<svg width="124" height="124" viewBox="0 0 124 124" fill="none" xmlns="http://www.w3.org/2000/svg">
    <g clip-path="url(#clip0_2246_95382)">
        <rect width="124" height="124" rx="12" fill="white" />
        <rect width="124" height="124" fill="#F1E0F2" />
        <g filter="url(#filter0_d_2246_95382)">
            <path fill-rule="evenodd" clip-rule="evenodd"
                d="M25 74C31.6274 74 37 68.6274 37 62C37 55.3726 31.6274 50 25 50C18.3726 50 13 55.3726 13 62C13 68.6274 18.3726 74 25 74ZM26.4219 55.8744C26.4219 54.9497 25.6765 54.2 24.7571 54.2C23.8376 54.2 23.0923 54.9497 23.0923 55.8744L22.6048 62.5181C22.5625 63.0952 22.8022 63.6573 23.2491 64.0288L28.158 68.1096C28.8082 68.7635 29.8622 68.7635 30.5124 68.1096C31.1625 67.4557 31.1625 66.3955 30.5124 65.7416L26.5961 61.8026C26.4845 61.6904 26.4219 61.5389 26.4219 61.3812V55.8744Z"
                fill="#D49DD6" />
        </g>
        <path
            d="M105.811 70.0001C105.664 70.0001 105.532 69.9488 105.415 69.8461C105.312 69.7434 105.261 69.6114 105.261 69.4501V58.5161L102.093 60.9581C101.961 61.0608 101.821 61.0974 101.675 61.0681C101.543 61.0388 101.425 60.9581 101.323 60.8261L100.223 59.3961C100.135 59.2641 100.098 59.1248 100.113 58.9781C100.142 58.8314 100.223 58.7141 100.355 58.6261L105.371 54.7541C105.459 54.6954 105.539 54.6588 105.613 54.6441C105.701 54.6148 105.796 54.6001 105.899 54.6001H108.231C108.377 54.6001 108.502 54.6514 108.605 54.7541C108.707 54.8568 108.759 54.9888 108.759 55.1501V69.4501C108.759 69.6114 108.707 69.7434 108.605 69.8461C108.502 69.9488 108.377 70.0001 108.231 70.0001H105.811Z"
            fill="#BB3A29" />
        <path
            d="M91.2689 70.2199C90.2129 70.2199 89.3036 70.0732 88.5409 69.7799C87.7929 69.4719 87.1696 69.0539 86.6709 68.5259C86.1869 67.9832 85.8202 67.3599 85.5709 66.6559C85.3362 65.9372 85.1969 65.1746 85.1529 64.3679C85.1382 63.9719 85.1236 63.5319 85.1089 63.0479C85.1089 62.5492 85.1089 62.0505 85.1089 61.5519C85.1236 61.0532 85.1382 60.5985 85.1529 60.1879C85.1822 59.3812 85.3216 58.6259 85.5709 57.9219C85.8349 57.2179 86.2162 56.6019 86.7149 56.0739C87.2136 55.5459 87.8369 55.1352 88.5849 54.8419C89.3476 54.5339 90.2422 54.3799 91.2689 54.3799C92.2956 54.3799 93.1829 54.5339 93.9309 54.8419C94.6789 55.1352 95.3022 55.5459 95.8009 56.0739C96.2996 56.6019 96.6736 57.2179 96.9229 57.9219C97.1869 58.6259 97.3409 59.3812 97.3849 60.1879C97.3996 60.5985 97.4069 61.0532 97.4069 61.5519C97.4216 62.0505 97.4216 62.5492 97.4069 63.0479C97.4069 63.5319 97.3996 63.9719 97.3849 64.3679C97.3409 65.1746 97.1942 65.9372 96.9449 66.6559C96.6956 67.3599 96.3216 67.9832 95.8229 68.5259C95.3389 69.0539 94.7156 69.4719 93.9529 69.7799C93.2049 70.0732 92.3102 70.2199 91.2689 70.2199ZM91.2689 67.3599C92.1196 67.3599 92.7429 67.0812 93.1389 66.5239C93.5349 65.9666 93.7476 65.2112 93.7769 64.2579C93.7916 63.8325 93.7989 63.3925 93.7989 62.9379C93.8136 62.4832 93.8136 62.0285 93.7989 61.5739C93.7989 61.1192 93.7916 60.6939 93.7769 60.2979C93.7476 59.3885 93.5349 58.6479 93.1389 58.0759C92.7429 57.5039 92.1196 57.2105 91.2689 57.1959C90.4036 57.2105 89.7729 57.5039 89.3769 58.0759C88.9956 58.6479 88.7902 59.3885 88.7609 60.2979C88.7462 60.6939 88.7316 61.1192 88.7169 61.5739C88.7169 62.0285 88.7169 62.4832 88.7169 62.9379C88.7316 63.3925 88.7462 63.8325 88.7609 64.2579C88.7902 65.2112 89.0029 65.9666 89.3989 66.5239C89.7949 67.0812 90.4182 67.3599 91.2689 67.3599Z"
            fill="#BB3A29" />
        <path
            d="M78.4606 62.2997C78.2993 62.2997 78.1673 62.2484 78.0646 62.1457C77.962 62.043 77.9106 61.911 77.9106 61.7497V59.3957C77.9106 59.2344 77.962 59.1024 78.0646 58.9997C78.1673 58.897 78.2993 58.8457 78.4606 58.8457H80.9246C81.086 58.8457 81.218 58.897 81.3206 58.9997C81.4233 59.1024 81.4746 59.2344 81.4746 59.3957V61.7497C81.4746 61.911 81.4233 62.043 81.3206 62.1457C81.218 62.2484 81.086 62.2997 80.9246 62.2997H78.4606ZM78.4606 69.9997C78.2993 69.9997 78.1673 69.9484 78.0646 69.8457C77.962 69.743 77.9106 69.611 77.9106 69.4497V67.0957C77.9106 66.9344 77.962 66.8024 78.0646 66.6997C78.1673 66.597 78.2993 66.5457 78.4606 66.5457H80.9246C81.086 66.5457 81.218 66.597 81.3206 66.6997C81.4233 66.8024 81.4746 66.9344 81.4746 67.0957V69.4497C81.4746 69.611 81.4233 69.743 81.3206 69.8457C81.218 69.9484 81.086 69.9997 80.9246 69.9997H78.4606Z"
            fill="#BB3A29" />
        <path
            d="M68.1434 70.2199C67.0874 70.2199 66.1781 70.0732 65.4154 69.7799C64.6674 69.4719 64.0441 69.0539 63.5454 68.5259C63.0614 67.9832 62.6947 67.3599 62.4454 66.6559C62.2107 65.9372 62.0714 65.1746 62.0274 64.3679C62.0127 63.9719 61.9981 63.5319 61.9834 63.0479C61.9834 62.5492 61.9834 62.0505 61.9834 61.5519C61.9981 61.0532 62.0127 60.5985 62.0274 60.1879C62.0567 59.3812 62.1961 58.6259 62.4454 57.9219C62.7094 57.2179 63.0907 56.6019 63.5894 56.0739C64.0881 55.5459 64.7114 55.1352 65.4594 54.8419C66.2221 54.5339 67.1167 54.3799 68.1434 54.3799C69.1701 54.3799 70.0574 54.5339 70.8054 54.8419C71.5534 55.1352 72.1767 55.5459 72.6754 56.0739C73.1741 56.6019 73.5481 57.2179 73.7974 57.9219C74.0614 58.6259 74.2154 59.3812 74.2594 60.1879C74.2741 60.5985 74.2814 61.0532 74.2814 61.5519C74.2961 62.0505 74.2961 62.5492 74.2814 63.0479C74.2814 63.5319 74.2741 63.9719 74.2594 64.3679C74.2154 65.1746 74.0687 65.9372 73.8194 66.6559C73.5701 67.3599 73.1961 67.9832 72.6974 68.5259C72.2134 69.0539 71.5901 69.4719 70.8274 69.7799C70.0794 70.0732 69.1847 70.2199 68.1434 70.2199ZM68.1434 67.3599C68.9941 67.3599 69.6174 67.0812 70.0134 66.5239C70.4094 65.9666 70.6221 65.2112 70.6514 64.2579C70.6661 63.8325 70.6734 63.3925 70.6734 62.9379C70.6881 62.4832 70.6881 62.0285 70.6734 61.5739C70.6734 61.1192 70.6661 60.6939 70.6514 60.2979C70.6221 59.3885 70.4094 58.6479 70.0134 58.0759C69.6174 57.5039 68.9941 57.2105 68.1434 57.1959C67.2781 57.2105 66.6474 57.5039 66.2514 58.0759C65.8701 58.6479 65.6647 59.3885 65.6354 60.2979C65.6207 60.6939 65.6061 61.1192 65.5914 61.5739C65.5914 62.0285 65.5914 62.4832 65.5914 62.9379C65.6061 63.3925 65.6207 63.8325 65.6354 64.2579C65.6647 65.2112 65.8774 65.9666 66.2734 66.5239C66.6694 67.0812 67.2927 67.3599 68.1434 67.3599Z"
            fill="#BB3A29" />
        <path
            d="M52.348 70.2199C51.292 70.2199 50.3827 70.0732 49.62 69.7799C48.872 69.4719 48.2487 69.0539 47.75 68.5259C47.266 67.9832 46.8993 67.3599 46.65 66.6559C46.4153 65.9372 46.276 65.1746 46.232 64.3679C46.2173 63.9719 46.2027 63.5319 46.188 63.0479C46.188 62.5492 46.188 62.0505 46.188 61.5519C46.2027 61.0532 46.2173 60.5985 46.232 60.1879C46.2613 59.3812 46.4007 58.6259 46.65 57.9219C46.914 57.2179 47.2953 56.6019 47.794 56.0739C48.2927 55.5459 48.916 55.1352 49.664 54.8419C50.4267 54.5339 51.3213 54.3799 52.348 54.3799C53.3747 54.3799 54.262 54.5339 55.01 54.8419C55.758 55.1352 56.3813 55.5459 56.88 56.0739C57.3787 56.6019 57.7527 57.2179 58.002 57.9219C58.266 58.6259 58.42 59.3812 58.464 60.1879C58.4787 60.5985 58.486 61.0532 58.486 61.5519C58.5007 62.0505 58.5007 62.5492 58.486 63.0479C58.486 63.5319 58.4787 63.9719 58.464 64.3679C58.42 65.1746 58.2733 65.9372 58.024 66.6559C57.7747 67.3599 57.4007 67.9832 56.902 68.5259C56.418 69.0539 55.7947 69.4719 55.032 69.7799C54.284 70.0732 53.3893 70.2199 52.348 70.2199ZM52.348 67.3599C53.1987 67.3599 53.822 67.0812 54.218 66.5239C54.614 65.9666 54.8267 65.2112 54.856 64.2579C54.8707 63.8325 54.878 63.3925 54.878 62.9379C54.8927 62.4832 54.8927 62.0285 54.878 61.5739C54.878 61.1192 54.8707 60.6939 54.856 60.2979C54.8267 59.3885 54.614 58.6479 54.218 58.0759C53.822 57.5039 53.1987 57.2105 52.348 57.1959C51.4827 57.2105 50.852 57.5039 50.456 58.0759C50.0747 58.6479 49.8693 59.3885 49.84 60.2979C49.8253 60.6939 49.8107 61.1192 49.796 61.5739C49.796 62.0285 49.796 62.4832 49.796 62.9379C49.8107 63.3925 49.8253 63.8325 49.84 64.2579C49.8693 65.2112 50.082 65.9666 50.478 66.5239C50.874 67.0812 51.4973 67.3599 52.348 67.3599Z"
            fill="#BB3A29" />
    </g>
    <defs>
        <filter id="filter0_d_2246_95382" x="13" y="50" width="24" height="25"
            color-interpolation-filters="sRGB">
            <feFlood flood-opacity="0" result="BackgroundImageFix" />
            <feColorMatrix in="SourceAlpha" values="0 0 0 0 0 0 0 0 0 0 0 0 0 0 0 0 0 0 127 0"
                result="hardAlpha" />
            <feOffset dy="1" />
            <feComposite in2="hardAlpha" operator="out" />
            <feColorMatrix values="0 0 0 0 0.670909 0 0 0 0 0.505135 0 0 0 0 0.676937 0 0 0 1 0" />
            <feBlend in2="BackgroundImageFix" result="effect1_dropShadow_2246_95382" />
            <feBlend in="SourceGraphic" in2="effect1_dropShadow_2246_95382" result="shape" />
        </filter>
        <clipPath id="clip0_2246_95382">
            <rect width="124" height="124" rx="12" fill="white" />
        </clipPath>
    </defs>
</svg>
