<svg fill="none" height="105" viewBox="0 0 153 105" width="153" xmlns="http://www.w3.org/2000/svg">
    <path
        d="M150.077 9.3049C148.999 7.65294 146.786 7.68963 145.404 8.92913C144.558 9.68758 144.118 10.7741 143.635 11.7746C143.081 12.9172 142.528 14.0598 141.973 15.2019C141.892 15.3689 141.844 15.5354 141.823 15.6981C136.274 21.0325 130.066 25.609 123.309 29.304C121.638 30.217 122.977 32.8622 124.648 31.9474C132.05 27.8999 138.862 22.8284 144.849 16.8767C146.487 16.762 147.898 15.6103 149.02 14.4625C150.362 13.0889 151.245 11.0927 150.077 9.3049Z"
        fill="#3A285B" />
    <path
        d="M65.6949 42.1758C57.7632 46.5558 50.759 52.4728 45.1204 59.5825C43.7044 61.3677 42.4976 63.374 40.9113 65.0143C39.3653 66.6126 37.4561 67.179 35.5502 68.1906C33.9276 69.0518 32.6189 70.3257 32.2107 72.1736C31.8693 73.7201 32.2283 75.4962 33.6137 76.4274C35.5678 77.7421 37.9856 76.7329 39.5803 75.3305C41.4634 73.6743 42.5229 71.3487 42.7825 68.8776C42.8347 68.3785 42.646 68.001 42.3411 67.7508C44.9337 65.4304 46.7048 62.1755 48.9561 59.5441C51.3147 56.7868 53.9093 54.2287 56.6871 51.8983C59.9099 49.1943 63.3853 46.8343 67.0637 44.8028C68.7297 43.8827 67.364 41.2525 65.6942 42.1745L65.6949 42.1758ZM36.0948 71.5308C35.912 71.654 35.7238 71.7712 35.5297 71.8834C35.8168 71.5201 36.2037 71.229 36.6226 70.9827C36.445 71.1631 36.2693 71.3473 36.0948 71.5308Z"
        fill="#3A285B" />
    <path
        d="M82.1877 70.7192C82.1045 70.172 81.5956 69.7963 81.0511 69.8802C80.5065 69.9641 80.1324 70.4757 80.2156 71.023L82.1877 70.7192ZM80.2156 71.023L82.5043 86.0799L84.4764 85.7762L82.1877 70.7192L80.2156 71.023Z"
        fill="#3A285B" />
    <path
        d="M104.624 71.641C104.422 71.126 103.842 70.873 103.33 71.076C102.817 71.279 102.566 71.8611 102.769 72.3762L104.624 71.641ZM102.769 72.3762L109.035 88.3032L110.89 87.5681L104.624 71.641L102.769 72.3762Z"
        fill="#3A285B" />
    <path
        d="M77.5947 91.0954C75.3579 90.5849 73.0245 90.3378 70.777 90.7962C68.5295 91.2545 66.3655 92.4848 65.0961 94.4512C63.8266 96.4176 63.6034 99.1592 64.8508 101.141C66.1657 103.23 68.704 104.08 71.083 104.505C76.8765 105.541 82.9184 104.92 88.4584 102.887C90.1584 102.263 91.895 101.444 92.9565 99.939C94.2114 98.159 94.262 95.6639 93.4009 93.6499C92.5399 91.6366 90.8784 90.0731 89.1171 88.938C85.5066 90.2244 81.7469 91.0674 77.5947 91.0948V91.0954Z"
        fill="#9C93AD" />
    <path
        d="M77.5947 90.0925C75.3579 89.582 73.0245 89.3349 70.777 89.7932C68.5295 90.2516 66.3655 91.4819 65.0961 93.4483C63.8266 95.4147 63.6034 98.1563 64.8508 100.138C66.1657 102.227 68.704 103.077 71.083 103.502C76.8765 104.538 82.9184 103.917 88.4584 101.884C90.1584 101.26 91.895 100.441 92.9565 98.936C94.2114 97.1561 94.262 94.661 93.4009 92.647C92.5399 90.6336 90.8784 89.0702 89.1171 87.9351C85.5066 89.2214 81.7469 90.0644 77.5947 90.0918V90.0925Z"
        fill="white" />
    <path
        d="M83.0122 82.1773C81.5599 82.4451 80.0924 82.7175 78.7387 83.3111C77.3856 83.9047 76.1364 84.8571 75.47 86.1802C74.8037 87.5033 74.8234 89.2254 75.7552 90.3751C76.7961 91.6599 78.6244 91.9455 80.2738 91.9508C83.068 91.9594 85.8622 91.4231 88.456 90.381C89.7874 89.8461 91.1628 89.0797 91.7313 87.7572C92.307 86.417 91.8601 84.7767 90.8625 83.7148C89.865 82.6529 88.41 82.114 86.9636 81.9689C85.5166 81.8238 84.0505 81.986 83.0122 82.1773Z"
        fill="#E1DDE8" />
    <path
        d="M116.411 89.8411C118.1 88.365 119.991 87.063 122.13 86.39C124.268 85.717 126.686 85.7269 128.67 86.7717C130.654 87.8165 132.092 89.9985 131.921 92.2381C131.741 94.5985 129.947 96.4991 128.097 97.9716C123.593 101.557 118.122 103.875 112.44 104.781C110.697 105.059 108.833 105.191 107.237 104.434C105.351 103.538 104.173 101.48 103.997 99.3956C103.822 97.311 104.538 95.2269 105.535 93.4527C109.221 92.8305 112.832 91.7684 116.411 89.8417V89.8411Z"
        fill="#9C93AD" />
    <path
        d="M116.411 88.8367C118.1 87.3606 119.991 86.0586 122.13 85.3856C124.268 84.7126 126.686 84.7225 128.67 85.7673C130.654 86.8121 132.092 88.9941 131.921 91.2337C131.741 93.5941 129.947 95.4948 128.097 96.9672C123.593 100.552 118.122 102.871 112.44 103.777C110.697 104.055 108.833 104.187 107.237 103.429C105.351 102.534 104.173 100.476 103.997 98.3912C103.822 96.3066 104.538 94.2225 105.535 92.4483C109.221 91.8261 112.832 90.764 116.411 88.8373V88.8367Z"
        fill="white" />
    <path
        d="M108.019 84.0141C109.368 83.5492 110.731 83.0803 112.144 82.9505C113.559 82.82 115.049 83.0571 116.218 83.9009C117.387 84.7446 118.161 86.2725 117.902 87.7355C117.614 89.37 116.202 90.5044 114.813 91.3058C112.46 92.6621 109.856 93.539 107.189 93.8728C105.821 94.0437 104.309 94.0324 103.223 93.1416C102.122 92.2383 101.748 90.5766 102.102 89.1594C102.456 87.7414 103.436 86.5645 104.59 85.738C105.744 84.9115 107.055 84.3472 108.019 84.0141Z"
        fill="#E1DDE8" />
    <path
        d="M89.7673 74.9535C108.752 74.9535 124.077 59.4621 123.997 40.3525C123.916 21.2429 108.46 5.75146 89.4751 5.75146C70.49 5.75146 55.165 21.2429 55.2457 40.3525C55.3264 59.4621 70.7822 74.9535 89.7673 74.9535Z"
        fill="#28AEFB" />
    <path
        d="M86.939 48.8712C86.1246 48.4309 85.5445 47.6599 84.9198 46.997C84.6034 46.6616 84.2698 46.3399 83.8866 46.0828C83.479 45.8098 83.0362 45.6525 82.569 45.5169C82.046 45.3647 81.5548 45.2065 81.1421 44.8332C80.8014 44.5252 80.5135 44.1539 80.122 43.9068C79.2683 43.3672 78.5149 43.9176 77.7582 44.3315C77.3409 44.5597 76.889 44.6854 76.425 44.5167C76.0235 44.3707 75.6914 44.0773 75.3841 43.7872C74.6857 43.1277 74.0798 42.4753 73.1464 42.1616C72.2025 41.8445 70.8924 41.7056 70.3938 40.6918C70.1202 40.1343 70.3543 39.5598 70.6903 39.0935C71.0235 38.6319 71.4281 38.2043 71.9027 37.8897C72.3282 37.6081 72.8755 37.3932 73.3763 37.6081C73.7943 37.7876 74.0919 38.2294 74.5982 38.0867C74.8213 38.0239 74.9967 37.8708 75.1948 37.7584C75.3853 37.6497 75.5968 37.5954 75.816 37.5878C76.2346 37.5736 76.6577 37.7423 76.9776 38.0106C77.2983 38.2799 77.5041 38.6451 77.5307 39.0666C77.5433 39.2622 77.848 39.2763 77.8748 39.0803C78.087 37.5292 78.9735 36.1856 79.8045 34.9029C80.5809 33.7043 81.5695 32.4089 83.0824 32.2043C83.8592 32.0994 84.444 32.4221 85.1222 32.7438C85.6334 32.9862 86.2269 33.1544 86.758 32.8766C87.579 32.4466 87.7422 31.2962 87.443 30.4893C87.3642 30.2767 87.2489 30.0901 87.1102 29.9124C86.9157 29.6639 86.6074 29.3427 86.5872 29.0101C86.5635 28.6217 87.0114 28.6458 87.2813 28.6487C87.5437 28.6515 87.8074 28.6307 88.0221 28.4649C88.3926 28.1786 88.4124 27.6466 88.298 27.228C88.1416 26.6545 87.7107 26.3091 87.2563 25.9656C86.727 25.5655 86.3137 25.1757 86.1874 24.4973C86.0889 23.9658 86.0939 23.3606 85.7629 22.9042C85.4324 22.4487 84.8979 22.3514 84.3721 22.3415C83.8511 22.3316 83.1541 22.4544 82.7655 22.0113C82.533 21.7462 82.4615 21.3758 82.236 21.1037C82.0657 20.8982 81.829 20.7664 81.5623 20.7494C81.0191 20.7144 80.5054 21.1018 80.2581 21.5653C79.8609 22.3094 80.1596 23.2283 80.2929 24.0017C80.3218 24.1694 80.3446 24.3489 80.3524 24.5308C80.2686 25.0264 80.0941 25.5055 79.8411 25.9378C79.8322 25.9444 79.8262 25.9533 79.8168 25.96C79.7672 25.9959 79.7482 26.0431 79.7474 26.0904C79.552 26.3923 79.3204 26.6691 79.0459 26.9011C78.8111 27.0995 78.526 27.2776 78.2102 27.2885C77.9201 27.2984 77.6055 27.1567 77.5095 26.8633C77.4053 26.5463 77.5131 26.1716 77.5469 25.8494C77.5785 25.5518 77.5993 25.2456 77.5544 24.948C77.5114 24.6631 77.4089 24.39 77.2314 24.1614C77.0374 23.9114 76.7804 23.7201 76.5887 23.4683C76.2616 23.0383 76.1035 22.5017 76.1017 21.964C76.0994 21.4273 76.2656 20.8783 76.5947 20.4545C76.8977 20.0638 77.3265 19.7931 77.7649 19.5796C78.6089 19.1685 79.5828 18.9328 80.3086 18.3096C80.651 18.0158 80.9516 17.6227 81.0379 17.1682C81.1348 16.658 80.9157 16.1336 80.3643 16.0457C80.0383 15.9937 79.6865 16.0466 79.3599 16.0726C78.9794 16.1028 78.5994 16.1444 78.2218 16.1973C77.8582 16.2484 77.4966 16.3102 77.1365 16.3821C76.7782 16.4534 76.4162 16.5351 76.0487 16.538C75.3442 16.5436 74.7777 16.1203 74.1384 15.8884C73.4746 15.6469 72.7695 15.6054 72.0831 15.4641C70.5977 15.1589 69.2451 14.3099 68.263 13.1477C65.605 15.261 63.2683 17.764 61.3342 20.5698C61.4601 21.0394 61.5307 21.5218 61.5724 21.9565C61.6579 22.8532 61.7016 23.7574 61.9752 24.6229C62.2345 25.4417 62.6531 26.2009 62.896 27.0253C63.4312 28.8424 63.0489 30.761 62.9469 32.6073C62.847 34.4149 63.1286 36.1709 63.6419 37.9029C63.9014 38.7784 64.2078 39.6392 64.5255 40.4948C64.7002 40.9658 64.9231 42.0675 65.6171 42.0104C66.1998 41.9622 66.2154 41.2176 66.115 40.7863C65.9061 39.8872 65.6038 39.0009 65.3485 38.1141C65.1341 37.3695 64.8234 36.1511 65.7543 35.749C66.5667 35.398 67.085 36.6453 67.2893 37.2188C67.5776 38.0272 67.6579 38.9102 67.5145 39.7554C67.3982 40.4419 67.1444 41.1278 67.2155 41.8346C67.2836 42.5116 67.7238 42.9491 68.3647 43.1187C69.0748 43.3072 69.8264 43.3554 70.5516 43.4584C71.2574 43.559 71.9737 43.6791 72.64 43.946C73.3142 44.2162 73.8581 44.6353 74.2994 45.2145C74.6751 45.7077 75.0084 46.277 75.5211 46.6427C76.0512 47.0211 76.6072 46.9696 77.2204 46.9172C77.4762 46.8955 77.8486 46.8421 78.0527 47.0448C78.3695 47.3603 78.0108 47.7912 77.7856 48.0308C77.5506 48.2807 77.2957 48.5037 77.0974 48.7867C76.9057 49.0602 76.7511 49.3588 76.6417 49.6753C76.4228 50.3084 76.3615 51.0029 76.4924 51.6634C76.6339 52.3782 77.0098 52.9168 77.3986 53.5158C77.6306 53.873 77.8152 54.2477 77.7866 54.6847C77.765 55.0154 77.6886 55.3759 77.8865 55.6716C78.0854 55.9688 78.4437 56.0198 78.7415 56.1686C79.0444 56.3198 79.2951 56.5565 79.4873 56.8348C80.4762 58.2691 79.8328 60.0488 79.4529 61.5654C79.0975 62.9837 79.0282 64.4501 79.2704 65.8968C79.5044 67.2924 80.0044 68.6393 80.7366 69.8497C81.4446 71.02 82.4217 72.1978 83.587 72.9315C84.0242 73.2069 84.7794 73.4271 85.082 72.8493C85.3567 72.3244 84.8494 71.8869 84.4941 71.5718C84.2359 71.3427 83.9439 71.1097 83.8406 70.7649C83.7245 70.377 83.8222 69.9518 83.9078 69.5686C84.0538 68.9138 84.178 68.3143 83.8501 67.6873C83.6414 67.2891 83.275 67.0042 82.8379 67.0779C82.6595 66.6154 83.3694 66.2388 83.6859 66.0579C84.1242 65.8075 84.3933 65.5098 84.5113 65.0081C84.5745 64.7397 84.6175 64.478 84.7799 64.2484C84.9124 64.0608 85.0892 63.9106 85.2702 63.7727C85.6347 63.4949 86.0336 63.2582 86.341 62.9118C87.0085 62.1602 87.1528 61.1095 87.3525 60.1589C87.5402 59.2655 87.8894 58.1539 88.8096 57.7768C89.6741 57.4225 90.6897 57.8458 91.526 57.3786C92.2912 56.951 92.3353 56.0727 92.2616 55.2885C92.2203 54.8472 92.1452 54.4022 92.171 53.9581C92.202 53.4185 92.4305 53.0614 92.7922 52.6782C93.1057 52.3461 93.3633 51.996 93.3876 51.5221C93.4088 51.1078 93.2649 50.6968 93.0344 50.3561C91.6642 48.335 88.7789 49.8648 86.9409 48.8708L86.939 48.8712Z"
        fill="#42D576" />
    <path
        d="M121.963 45.1122C121.555 45.1415 121.142 45.0839 120.778 44.8873C120.4 44.6837 120.133 44.3431 119.922 43.9764C119.672 43.5437 119.476 43.0769 119.264 42.6253C119.039 42.1495 118.815 41.6742 118.591 41.1985C118.366 40.7227 118.141 40.2474 117.918 39.7717C117.781 39.4816 117.671 39.158 117.706 38.8325C117.749 38.4432 118.091 38.3614 118.352 38.6553C118.588 38.9208 118.705 39.3035 118.821 39.6328C119.052 40.2876 119.217 40.9708 119.527 41.5949C119.815 42.1741 120.241 42.6734 120.87 42.8771C121.681 43.1397 122.546 42.8142 123.211 42.3432C123.492 42.1443 123.743 41.9213 123.975 41.6846C123.99 41.2419 123.999 40.7978 123.997 40.3509C123.959 31.3442 120.504 23.1421 114.875 16.9861C114.799 17.0277 114.719 17.0645 114.636 17.0895C114.066 17.2615 113.577 16.8651 113.042 16.7362C111.966 16.4768 110.933 17.0957 110.206 17.8393C109.433 18.6297 108.987 19.6507 108.426 20.5894C108.148 21.0557 107.837 21.5098 107.446 21.8891C107.089 22.2369 106.663 22.4787 106.22 22.6989C105.392 23.1104 104.339 23.5474 104.19 24.5877C104.177 24.6789 104.236 24.7767 104.332 24.7904C105.349 24.934 106.366 25.0777 107.383 25.2208C107.884 25.2917 108.389 25.3862 108.893 25.4292C109.235 25.4585 109.578 25.407 109.851 25.1849C110.32 24.8027 110.447 24.137 110.519 23.5663C110.564 23.2162 110.581 22.8628 110.637 22.5142C110.71 22.0592 110.833 21.6137 111.007 21.188C111.177 20.7732 111.951 19.0285 112.5 19.963C112.931 20.6967 112.085 21.428 111.897 22.0984C111.717 22.7395 111.93 23.4288 112.63 23.5772C112.825 23.6183 113.037 23.6348 113.146 23.8271C113.245 24.0033 113.231 24.2268 113.153 24.4073C112.985 24.7989 112.581 25.0729 112.267 25.3404C111.562 25.9413 110.833 26.5271 109.992 26.9259C109.147 27.3265 108.24 27.5675 107.368 27.8977C106.636 28.175 105.914 28.5279 105.32 29.0481C104.786 29.5163 104.23 30.2113 104.213 30.9606C104.209 31.1543 104.248 31.3385 104.342 31.5086C104.438 31.6829 104.609 31.8261 104.674 32.0165C104.814 32.4266 104.352 32.779 103.998 32.8338C103.535 32.9056 103.066 32.7044 102.628 32.5825C102.264 32.4809 101.876 32.4228 101.505 32.5069C100.854 32.6538 100.51 33.2557 100.659 33.8992C100.811 34.5568 101.325 35.0657 101.947 35.2863C103.521 35.8442 105.132 34.9617 106.211 33.8515C106.818 33.2274 107.323 32.514 107.856 31.8266C108.086 31.5299 108.395 31.1033 108.81 31.0976C109.134 31.0933 109.315 31.3569 109.397 31.6423C109.485 31.9541 109.48 32.2933 109.445 32.6122C109.435 32.7039 109.489 32.8007 109.587 32.8149C110.205 32.9052 110.703 32.4984 111.222 32.2348C111.462 32.1129 111.753 31.991 112.016 32.1204C112.325 32.2725 112.418 32.6562 112.519 32.9567C112.747 33.6375 113.18 34.1619 113.822 34.4897C114.531 34.8521 115.347 34.897 116.116 34.7368C116.537 34.649 116.945 34.5091 117.339 34.3348C117.65 34.1973 118.266 33.7636 118.559 34.1288C118.782 34.4075 118.711 34.8842 118.629 35.2017C118.535 35.5636 118.345 35.8962 118.106 36.1792C117.578 36.8028 116.819 37.1435 116.016 37.228C115.108 37.3235 114.273 37.0854 113.415 36.8213C113.031 36.7031 112.625 36.6167 112.227 36.7098C111.831 36.8024 111.505 37.1005 111.096 37.1435C110.21 37.237 109.575 36.4055 109.156 35.7417C108.933 35.3888 108.728 35.0156 108.456 34.6962C108.263 34.4694 107.98 34.3282 107.7 34.4888C107.438 34.6404 107.327 34.9532 107.156 35.1875C106.95 35.4701 106.629 35.5745 106.295 35.6184C105.616 35.7072 104.953 35.6586 104.292 35.8816C103.667 36.0932 103.102 36.4551 102.62 36.9049C101.616 37.8399 100.963 39.1646 100.776 40.5262C100.723 40.9164 100.727 41.3104 100.695 41.7026C100.659 42.158 100.536 42.5468 100.297 42.9342C100.095 43.2626 99.8844 43.5758 99.7869 43.9557C99.696 44.311 99.7046 44.6889 99.7836 45.0461C100.103 46.4965 101.394 47.5647 102.746 48.0178C103.444 48.2521 104.186 48.348 104.919 48.2833C105.7 48.2143 106.384 47.9271 107.089 47.603C107.777 47.2869 108.546 46.9935 109.269 47.3828C109.548 47.533 109.788 47.7853 109.823 48.1137C109.862 48.477 109.668 48.8247 109.552 49.1564C109.448 49.4535 109.371 49.7734 109.479 50.0823C109.601 50.4357 109.934 50.62 110.126 50.9238C110.555 51.5994 109.975 52.4914 109.706 53.115C109.006 54.7426 109.532 56.4197 110.342 57.9046C110.779 58.7064 111.286 59.4689 111.685 60.2919C111.999 60.9391 112.251 61.6781 113.01 61.8996C113.66 62.0891 114.391 61.8486 114.898 61.4277C115.534 60.8999 115.919 60.1577 116.392 59.4944C116.879 58.8108 117.453 58.1876 118.096 57.65C118.417 57.3826 118.757 57.1483 119.099 56.9106C119.358 56.7306 119.608 56.501 119.651 56.1698C119.738 55.5079 118.929 54.9948 119.269 54.3419C119.547 53.8076 120.157 53.4244 120.014 52.7389C119.941 52.3836 119.704 52.102 119.512 51.8044C119.31 51.4898 119.211 51.143 119.257 50.7683C119.348 50.0242 119.868 49.3704 120.466 48.9589C121.35 48.3518 122.428 48.039 123.301 47.4489C123.491 46.5116 123.643 45.5606 123.756 44.5973C123.185 44.8562 122.585 45.0669 121.962 45.1113L121.963 45.1122Z"
        fill="#42D576" />
    <path clip-rule="evenodd" d="M123.982 36.2228C123.985 36.9393 123.966 37.6508 123.926 38.3565C123.971 39.0574 123.996 39.764 123.999 40.4755C124.08 59.5851 108.755 75.0765 89.7701 75.0765C70.7851 75.0765 55.3289 59.5851 55.2478 40.4755C55.2448 39.7594 55.2634 39.0483 55.303 38.3429C56.4686 56.4652 71.4759 70.8238 89.7537 70.8238C108.739 70.8238 124.063 55.3324 123.981 36.2228C123.9 17.1132 108.443 1.62183 89.4583 1.62183C89.4584 1.62183 89.4584 1.62183 89.4584 1.62183C108.443 1.62183 123.9 17.1132 123.982 36.2228ZM55.2306 36.2228C55.1491 17.1133 70.4733 1.62189 89.4583 1.62183C70.4733 1.62183 55.149 17.1132 55.2305 36.2228C55.2335 36.9347 55.2579 37.6416 55.303 38.3429C55.303 38.3426 55.3031 38.3422 55.3031 38.3419C55.258 37.641 55.2337 36.9344 55.2306 36.2228Z"
        fill="#1B84BF"
        fill-opacity="0.4" fill-rule="evenodd" />
    <path
        d="M92.6097 5.89526C92.6017 5.89999 92.5947 5.90614 92.5867 5.91086C91.7099 6.45134 90.73 6.92142 90.1612 7.82474C90.0195 8.04962 89.9028 8.31372 89.6602 8.44742C89.4813 8.54616 89.2697 8.57026 89.0694 8.58159C88.6653 8.60427 88.2488 8.54663 87.8535 8.65435C87.4668 8.75923 87.1809 9.08097 87.1737 9.49389C87.1647 10.0249 87.5438 10.4312 87.9706 10.6854C88.4487 10.9703 88.9629 11.1512 89.4131 11.4895C89.8373 11.8084 90.2107 12.1934 90.5069 12.6361C91.1323 13.5711 91.3106 14.6799 90.9528 15.75C90.5728 16.8863 89.8005 17.833 89.3658 18.9447C88.9535 19.9987 88.8542 21.1614 89.53 22.1332C89.8275 22.5608 90.2149 22.9147 90.576 23.2855C90.7499 23.4641 90.9187 23.6479 91.0689 23.8482C91.2548 24.0972 91.394 24.374 91.558 24.6367C91.8226 25.0615 92.2182 25.473 92.7496 25.4904C93.2167 25.5056 93.5672 25.1659 93.718 24.7444C93.8947 24.2512 93.8614 23.7003 93.7363 23.1972C93.6637 22.9047 93.548 22.6288 93.4019 22.3662C93.2586 22.1091 93.0782 21.8649 92.9893 21.581C92.8075 20.9998 93.2071 20.483 93.6823 20.2C94.2104 19.8853 94.8433 19.806 95.4126 19.5938C95.9248 19.403 96.4028 19.1162 96.812 18.7524C97.2272 18.3834 97.5037 17.9356 97.8445 17.5052C98.035 17.2642 98.2488 17.1022 98.5384 16.9992C98.798 16.9066 99.0639 16.8423 99.3036 16.7011C99.6899 16.4733 99.9633 16.0883 100.12 15.6721C100.521 14.6091 100.237 13.5196 100.139 12.4292C100.082 11.7923 100.12 11.1692 100.402 10.5885C100.64 10.1005 100.991 9.68144 101.327 9.26097C101.608 8.91088 101.883 8.55089 102.101 8.1564C99.1168 6.97245 95.9298 6.1981 92.6092 5.89574L92.6097 5.89526Z"
        fill="#42D576" />
    <path
        d="M91.2993 32.3992C91.581 31.6924 91.6568 30.9999 91.6115 30.2919C91.5978 30.0827 91.6329 29.9052 91.8149 29.7738C92.1456 29.5351 92.5227 29.6511 92.5878 30.0443C92.6849 30.6294 92.6626 31.223 92.5348 31.7995C92.4083 32.3697 92.2458 32.9278 91.98 33.4618C91.7075 34.009 91.3256 34.4433 90.8544 34.7977C90.1636 35.3165 89.3676 35.4823 88.5489 35.2113C88.1656 35.0843 87.8172 34.8073 87.496 34.5451C86.9163 34.0714 86.5544 33.4307 86.3232 32.7296C86.1655 32.2524 86.0656 31.7534 85.9752 31.2577C85.9363 31.0443 85.967 30.8112 86.0045 30.5932C86.0467 30.3486 86.2076 30.2151 86.389 30.2153C86.6663 30.2161 86.8912 30.3789 86.9416 30.6359C86.968 30.7719 86.9599 30.9149 86.9726 31.0537C87.0374 31.7629 87.248 32.4279 87.5901 33.0498C87.9135 33.6383 88.3678 34.0691 89.0374 34.2435C89.4753 34.3577 89.8613 34.2838 90.2226 34.007C90.7783 33.5805 91.1311 33.0248 91.3 32.3985L91.2993 32.3992Z"
        fill="#2C2854" />
    <path
        d="M68.5732 39.6852C68.5664 39.6758 68.5527 39.6706 68.535 39.6683C68.5273 39.6573 68.5104 39.6486 68.4784 39.6447C67.9614 39.5849 67.4121 39.6838 66.9051 39.8461C66.1786 40.0251 65.5236 40.385 65.2647 41.1298C65.2592 41.1463 65.277 41.1563 65.3062 41.1619C65.3042 41.1699 65.2998 41.1765 65.2981 41.1845C65.2729 41.2962 65.2751 41.4092 65.2896 41.52C65.2874 41.9556 65.5327 42.3562 65.8841 42.6186C66.3567 42.9713 66.9694 43.0612 67.5416 43.0786C68.5506 43.1098 69.9808 42.8543 70.4076 41.7811C70.8412 40.6898 69.5149 39.803 68.5735 39.6855L68.5732 39.6852Z"
        fill="#F9D1E1" />
    <path
        d="M109.66 40.0893C110.164 41.1318 111.61 41.2908 112.614 41.1926C113.184 41.1371 113.788 41.0064 114.234 40.6231C114.565 40.3379 114.78 39.9221 114.746 39.4874C114.752 39.3759 114.746 39.2628 114.713 39.1531C114.711 39.1453 114.706 39.1387 114.703 39.1313C114.732 39.1237 114.749 39.1124 114.742 39.0966C114.429 38.3709 113.75 38.0554 113.012 37.9255C112.494 37.7974 111.939 37.7355 111.428 37.8297C111.396 37.8357 111.379 37.8454 111.373 37.857C111.355 37.8602 111.342 37.8664 111.336 37.8764C110.405 38.0564 109.147 39.0297 109.66 40.0893L109.66 40.0893Z"
        fill="#F9D1E1" />
    <path
        d="M67.0543 40.6387C67.0494 40.6063 67.0387 40.5768 67.0243 40.55C67.0242 40.4812 66.9834 40.4156 66.9116 40.4027C66.812 40.3849 66.7043 40.3874 66.6046 40.4049C66.4846 40.4261 66.3741 40.4652 66.268 40.5252C66.2571 40.5314 66.2493 40.5407 66.2418 40.5504C66.2012 40.5748 66.1651 40.6056 66.1419 40.6486C66.1047 40.7187 66.1032 40.8189 66.1562 40.882C66.1568 40.8826 66.1578 40.8832 66.1584 40.8839C66.1649 40.9353 66.1988 40.9823 66.2533 40.992C66.3745 41.0128 66.4987 41.0261 66.6216 41.0255C66.7344 41.0246 66.855 41.0006 66.9419 40.9244C67.0213 40.8551 67.0701 40.7454 67.054 40.6383L67.0543 40.6387Z"
        fill="white" />
    <path
        d="M113.755 38.728C113.734 38.5932 113.61 38.5308 113.487 38.516C113.481 38.5124 113.474 38.508 113.468 38.5048C113.326 38.4314 113.156 38.4167 113.005 38.4683C112.989 38.474 112.975 38.4835 112.963 38.4945C112.902 38.4973 112.849 38.5651 112.856 38.624C112.857 38.6336 112.861 38.6407 112.864 38.6491C112.861 38.6619 112.858 38.6741 112.858 38.6877C112.858 38.77 112.904 38.8526 112.968 38.9028C113.035 38.9555 113.116 38.9784 113.2 38.9845C113.231 38.9868 113.262 38.9861 113.294 38.9869C113.36 39.0076 113.429 39.0164 113.498 39.0061C113.527 39.002 113.557 38.9929 113.585 38.981C113.624 38.9721 113.657 38.953 113.682 38.9201C113.734 38.8719 113.767 38.8067 113.754 38.7277L113.755 38.728Z"
        fill="white" />
    <ellipse cx="7.20012" cy="7.21829" fill="#F8F8FB" rx="7.20012"
        ry="7.21829" transform="matrix(-1 0 0 1 82.207 23.584)" />
    <path clip-rule="evenodd" d="M70.9054 26.8292C71.5802 27.2248 72.0399 28.0106 72.0399 28.9153C72.0399 30.2179 71.0869 31.274 69.9112 31.274C69.7706 31.274 69.6331 31.2588 69.5001 31.23C69.7137 34.4172 72.2941 36.9344 75.446 36.9344C78.7378 36.9344 81.4062 34.1888 81.4062 30.8019C81.4062 27.415 78.7378 24.6694 75.446 24.6694C73.6272 24.6694 71.9987 25.5077 70.9054 26.8292Z"
        fill="#2C2854"
        fill-rule="evenodd" />
    <ellipse cx="103.806" cy="31.6529" fill="#F8F8FB" rx="7.20012" ry="7.21829" />
    <path clip-rule="evenodd" d="M107.905 27.682C107.231 28.0777 106.771 28.8633 106.771 29.7678C106.771 31.0705 107.724 32.1265 108.9 32.1265C109.04 32.1265 109.178 32.1114 109.31 32.0826C109.097 35.27 106.517 37.7875 103.365 37.7875C100.073 37.7875 97.4043 35.0419 97.4043 31.655C97.4043 28.2681 100.073 25.5225 103.365 25.5225C105.183 25.5225 106.812 26.3606 107.905 27.682Z"
        fill="#2C2854"
        fill-rule="evenodd" />
    <path
        d="M30.6662 69.2966C29.7948 67.2228 31.1373 64.7011 33.5675 64.2742V64.2742C35.9977 63.8474 38.1089 65.7624 37.9863 68.0108C37.8714 70.1202 37.9765 72.5377 38.7488 74.3101C40.914 79.2794 47.271 83.7592 47.271 83.7592L27.2259 87.2801C27.2259 87.2801 31.7009 80.8976 32.0671 75.4838C32.1977 73.5527 31.4837 71.2422 30.6662 69.2966Z"
        fill="#F6B307" />
    <path clip-rule="evenodd" d="M45.2852 83.4673L48.0985 82.9731C48.0985 82.9731 42.6132 78.4383 40.6637 73.5251C39.9683 71.7726 39.8222 69.4051 39.8698 67.3441C39.9204 65.1474 38.0886 63.2234 36.0421 63.5829C35.5795 63.6641 35.1664 63.8515 34.8132 64.1164C35.9343 64.4542 36.6655 65.5818 37.0564 67.8383C37.5483 70.6775 38.3103 74.7523 39.0057 76.5048C40.9553 81.418 45.2852 83.4673 45.2852 83.4673Z"
        fill="#C18B00"
        fill-rule="evenodd" />
    <path clip-rule="evenodd" d="M52.1465 48.4654C56.4194 47.7148 59.2471 43.4352 58.4625 38.9064C57.6779 34.3777 53.5779 31.3149 49.3051 32.0654C45.0322 32.8159 42.2044 37.0956 42.9891 41.6243C43.7737 46.153 47.8736 49.2159 52.1465 48.4654ZM51.5007 44.7381C53.8314 44.3287 55.3738 41.9944 54.9458 39.5241C54.5178 37.0539 52.2815 35.3833 49.9509 35.7926C47.6202 36.202 46.0778 38.5364 46.5058 41.0066C46.9337 43.4768 49.1701 45.1475 51.5007 44.7381Z"
        fill="#F6B307"
        fill-rule="evenodd" />
    <path clip-rule="evenodd" d="M57.501 37.539C58.2857 42.0677 55.4579 46.3474 51.185 47.0979C48.4355 47.5808 45.7575 46.4848 43.9885 44.4351C45.6301 47.3395 48.8365 49.0467 52.1467 48.4652C56.4195 47.7147 59.2473 43.435 58.4627 38.9063C58.1829 37.2918 57.4818 35.8635 56.5017 34.728C56.9792 35.5727 57.3242 36.5186 57.501 37.539ZM46.8753 42.1966C46.705 41.8275 46.5791 41.4287 46.5059 41.0065C46.0779 38.5363 47.6204 36.2019 49.951 35.7925C51.321 35.5519 52.6583 36.0299 53.615 36.9665C52.7892 35.1761 50.9217 34.0858 48.9894 34.4252C46.6587 34.8345 45.1163 37.1689 45.5443 39.6391C45.7207 40.6574 46.2044 41.5398 46.8753 42.1966Z"
        fill="#D29700"
        fill-rule="evenodd" />
    <path clip-rule="evenodd" d="M11.3535 55.6309C15.6264 54.8804 18.4542 50.6007 17.6695 46.072C16.8849 41.5432 12.785 38.4804 8.5121 39.2309C4.23923 39.9814 1.41147 44.2611 2.19611 48.7898C2.98075 53.3186 7.08067 56.3814 11.3535 55.6309ZM10.7078 51.9036C13.0384 51.4942 14.5808 49.1599 14.1528 46.6897C13.7249 44.2194 11.4885 42.5488 9.15788 42.9582C6.82723 43.3676 5.28481 45.7019 5.71279 48.1721C6.14078 50.6424 8.3771 52.313 10.7078 51.9036Z"
        fill="#F6B307"
        fill-rule="evenodd" />
    <path clip-rule="evenodd" d="M16.6818 51.8225C15.5393 53.3322 13.8851 54.4167 11.9276 54.7605C7.65476 55.5111 3.55484 52.4482 2.7702 47.9195C2.41074 45.8448 2.80942 43.8224 3.75785 42.1676C2.4064 43.9535 1.77083 46.3344 2.19602 48.7885C2.98066 53.3172 7.08058 56.38 11.3534 55.6295C13.6689 55.2228 15.5599 53.7798 16.6818 51.8225ZM6.71232 44.3748C7.32667 43.6478 8.17168 43.13 9.15779 42.9568C11.4884 42.5474 13.7248 44.2181 14.1528 46.6883C14.3338 47.7335 14.1622 48.7543 13.7273 49.6153C14.565 48.6242 14.9738 47.2444 14.7269 45.8193C14.299 43.3491 12.0626 41.6784 9.73197 42.0878C8.38744 42.324 7.30523 43.2008 6.71232 44.3748Z"
        fill="#D29700"
        fill-rule="evenodd" />
    <path
        d="M9.99028 43.5798C9.41963 40.2862 11.4762 37.1737 14.5837 36.6279L42.7172 31.6863C45.8248 31.1405 48.8065 33.368 49.3772 36.6616L50.927 45.6071C52.9243 57.1347 45.7264 68.0285 34.85 69.9389C23.9736 71.8493 13.5374 64.053 11.5402 52.5253L9.99028 43.5798Z"
        fill="#FFCF23" />
    <path clip-rule="evenodd" d="M29.8121 70.1462C31.4601 70.2991 33.1494 70.2376 34.8494 69.939C45.7258 68.0286 52.9237 57.1348 50.9265 45.6072L48.3434 30.6981L38.4967 32.4276L41.0798 47.3367C42.7649 57.0626 37.9046 66.3371 29.8121 70.1462Z"
        fill="#FFC429"
        fill-rule="evenodd" />
    <path clip-rule="evenodd" d="M24.1567 68.7279C27.4558 70.109 31.1273 70.5925 34.8504 69.9385C45.7268 68.0281 52.9247 57.1344 50.9275 45.6067L48.3444 30.6976L45.5308 31.1918L47.8556 44.61C49.8529 56.1377 42.655 67.0314 31.7786 68.9418C29.1762 69.3989 26.599 69.3003 24.1567 68.7279Z"
        fill="#F5B40C"
        fill-rule="evenodd" />
    <path d="M48.3437 30.698L9.66016 37.4927L10.3059 41.2199L48.9895 34.4253L48.3437 30.698Z"
        fill="#D29803" />
    <path
        d="M23.5717 88.5103C23.4005 87.5222 23.8915 86.6106 24.6684 86.4741L49.9885 82.0267C50.7654 81.8902 51.534 82.5806 51.7052 83.5687V83.5687C51.8764 84.5568 51.3854 85.4684 50.6085 85.6049L25.2883 90.0523C24.5115 90.1888 23.7429 89.4984 23.5717 88.5103V88.5103Z"
        fill="#FFD84F" />
    <path
        d="M3.12247 37.4112C2.95128 36.4231 3.44229 35.5114 4.21918 35.375L52.0461 26.9743C52.823 26.8378 53.5916 27.5282 53.7628 28.5163V28.5163C53.934 29.5044 53.443 30.416 52.6661 30.5525L4.83912 38.9532C4.06224 39.0896 3.29367 38.3992 3.12247 37.4112V37.4112Z"
        fill="#FFD84F" />
    <path
        d="M27.6361 41.6838C27.9451 40.7069 29.1737 40.4911 29.7929 41.305L32.4645 44.8159L36.7293 44.904C37.714 44.9244 38.3026 46.0718 37.7669 46.9269L35.4366 50.6464L36.7343 54.9268C37.0333 55.9133 36.1711 56.8396 35.2182 56.5556L31.112 55.3321L27.6599 57.8832C26.8587 58.4753 25.7359 57.8976 25.6856 56.8675L25.4672 52.3975L22.0237 49.6921C21.2322 49.0702 21.4001 47.7899 22.3198 47.435L26.303 45.8981L27.6361 41.6838Z"
        fill="#FFF5D3" />
</svg>
