<svg width="131" height="114" viewBox="0 0 131 114" fill="none" xmlns="http://www.w3.org/2000/svg">
<path d="M12.8744 66.0108C12.2443 67.9823 11.6134 69.9547 10.9833 71.9262C10.4583 73.5692 9.97787 75.2367 9.22189 76.7892C7.17117 75.8081 3.99993 74.8552 2.99375 77.0803C2.45191 78.2783 3.25162 79.6171 4.39595 80.0775C5.03449 80.3341 5.71141 80.3226 6.37989 80.2015C7.14814 80.0621 7.96783 79.6102 8.75988 79.765C9.18813 79.8484 9.54039 79.7014 9.77985 79.4509C10.4061 79.4854 10.9042 78.8849 10.9004 78.2859C11.8122 76.561 12.3855 74.6967 12.978 72.8438L14.9773 66.5906C15.4048 65.2525 13.2996 64.6803 12.8744 66.0116V66.0108ZM5.19566 78.0668C5.1427 78.0584 5.10818 78.0102 5.08131 77.965C5.22944 77.9696 5.49268 77.9458 5.58247 77.952C5.77358 77.9657 5.96545 77.9971 6.15579 78.0377C6.0376 78.0661 5.9194 78.0898 5.80121 78.1013C5.58938 78.122 5.40365 78.0975 5.19566 78.0661V78.0668Z" fill="#3A285B"/>
<path d="M96.0613 93.4803C94.9485 92.7263 93.6322 92.5766 92.3256 92.6127C91.7137 92.5051 91.0846 92.454 90.4704 92.4209C86.9599 81.2993 84.1052 69.9745 81.9258 58.5105C81.6694 57.1607 79.6271 57.7325 79.8835 59.0794C82.0913 70.6923 84.9907 82.1638 88.5646 93.4246C88.6645 93.7399 88.8605 93.9453 89.0931 94.0589C89.1199 94.1921 89.181 94.3298 89.2846 94.4682C90.2156 95.709 91.3552 96.7405 92.7617 97.4057C94.1368 98.0558 96.1277 98.6946 97.271 97.2958C98.3592 95.964 97.2352 94.2756 96.0613 93.4803Z" fill="#3A285B"/>
<path d="M38.2895 90.3839C38.68 89.9935 38.6801 89.3603 38.2896 88.9697C37.8991 88.5792 37.266 88.5791 36.8754 88.9696L38.2895 90.3839ZM36.8754 88.9696L32.1777 93.6663L33.5918 95.0806L38.2895 90.3839L36.8754 88.9696Z" fill="#3A285B"/>
<path d="M64.7307 89.2937C64.5193 88.7836 63.9342 88.5415 63.424 88.7529C62.9137 88.9644 62.6715 89.5494 62.883 90.0596L64.7307 89.2937ZM62.883 90.0596L65.4262 96.1957L67.274 95.4299L64.7307 89.2937L62.883 90.0596Z" fill="#3A285B"/>
<path d="M58.8683 98.9356C58.5778 97.6583 59.1805 96.2949 60.147 95.4099C61.113 94.5254 62.3906 94.0545 63.6699 93.7712C66.1721 93.2167 68.9082 93.3354 71.1448 94.5873C73.381 95.8392 74.9856 98.3658 74.6961 100.912C69.3724 100.296 64.0488 99.6794 58.8688 98.9356L58.8683 98.9356Z" fill="#E1DDE8"/>
<path d="M75.0437 99.3749C76.5725 100.747 77.1709 102.935 76.8824 104.986C76.8081 105.502 76.6777 106.011 76.4961 106.497C75.5858 108.902 73.5107 110.737 71.1741 111.823C68.8386 112.903 66.2473 113.31 63.6767 113.526C60.146 113.824 57.0095 114.155 53.9614 113.514C50.9187 112.874 47.9409 111.291 46.281 108.66C45.9792 108.182 45.7293 107.677 45.5313 107.149C44.6332 104.77 44.7806 101.993 46.0086 99.7534C47.5103 97.0272 50.5553 95.2168 53.6688 95.207C56.9612 95.1933 59.9889 97.0058 63.2531 97.456C65.2658 97.7355 67.3153 97.4891 69.3517 97.5446C71.3881 97.6 73.5304 98.0128 75.0443 99.3749L75.0437 99.3749Z" fill="white"/>
<path opacity="0.4" d="M73.4872 101.768C74.7516 102.131 75.8828 102.992 76.52 104.15C76.6696 104.42 76.7879 104.7 76.8822 104.986C76.8079 105.503 76.6776 106.012 76.496 106.497C75.5856 108.902 73.5105 110.738 71.174 111.823C68.8385 112.904 66.2471 113.31 63.6765 113.527C60.1458 113.824 57.0094 114.155 53.9612 113.514C50.9185 112.874 47.9408 111.292 46.2808 108.661C45.979 108.183 45.7291 107.677 45.5311 107.149C45.5307 106.856 45.5488 106.556 45.5889 106.261C45.9117 103.817 47.658 101.619 49.9559 100.748C51.5359 100.151 53.2689 100.153 54.9526 100.293C58.0879 100.558 61.1835 101.29 64.1113 102.449C65.0779 102.834 66.0939 103.278 67.1275 103.128C68.0257 102.993 68.7872 102.435 69.619 102.066C70.8225 101.532 72.2185 101.403 73.4883 101.768L73.4872 101.768Z" fill="#3A285B"/>
<path d="M35.0471 89.7168C54.373 98.0768 76.7787 89.0985 85.0916 69.663C93.4045 50.2275 84.4768 27.6948 65.1509 19.3347C45.8249 10.9747 23.4192 19.9531 15.1063 39.3885C6.79337 58.824 15.7212 81.3567 35.0471 89.7168Z" fill="#28AEFB"/>
<path d="M43.6247 61.9929C42.9892 61.1873 42.7374 60.1491 42.3927 59.2011C42.218 58.7212 42.0197 58.2477 41.7426 57.818C41.4476 57.3613 41.0659 57.0066 40.65 56.6633C40.1844 56.2785 39.7539 55.9015 39.4978 55.3409C39.2863 54.8782 39.1564 54.3744 38.8664 53.9512C38.2344 53.0275 37.2257 53.2545 36.2735 53.3414C35.7485 53.3893 35.2333 53.3179 34.8351 52.9424C34.4905 52.6174 34.2813 52.1733 34.096 51.7435C33.6748 50.7664 33.3447 49.8373 32.5322 49.1077C31.7107 48.3703 30.4381 47.6524 30.376 46.4036C30.3424 45.7171 30.8331 45.237 31.38 44.9116C31.9219 44.5897 32.5217 44.3338 33.143 44.2234C33.6998 44.1249 34.3514 44.1476 34.7667 44.5864C35.1134 44.9527 35.2223 45.5322 35.8003 45.6103C36.0551 45.6448 36.3009 45.5666 36.5519 45.5397C36.7936 45.5133 37.0327 45.5513 37.2592 45.6401C37.6915 45.81 38.0482 46.1676 38.2558 46.5808C38.4641 46.9955 38.513 47.4568 38.355 47.8964C38.2819 48.1005 38.5858 48.249 38.6993 48.0618C39.5967 46.5807 41.0895 45.607 42.4989 44.6708C43.8158 43.7959 45.3913 42.9161 47.0212 43.3746C47.858 43.6102 48.3116 44.1953 48.8606 44.8205C49.2745 45.2917 49.8048 45.7238 50.4675 45.6756C51.4921 45.6007 52.1636 44.5047 52.2136 43.5538C52.2267 43.3032 52.1913 43.063 52.1282 42.8216C52.0394 42.4837 51.8667 42.0218 51.9923 41.6752C52.1387 41.2705 52.5841 41.4922 52.8576 41.614C53.1234 41.7324 53.401 41.8274 53.6924 41.7536C54.1954 41.6261 54.4493 41.0948 54.5167 40.6194C54.6095 39.9683 54.3225 39.428 54.0109 38.8792C53.6479 38.2399 53.3984 37.6622 53.5679 36.9178C53.7012 36.3349 53.9721 35.7227 53.8357 35.1136C53.6993 34.5058 53.1979 34.1716 52.6671 33.93C52.1411 33.6905 51.3777 33.5083 51.1767 32.8873C51.0565 32.5158 51.1464 32.1083 51.0364 31.7327C50.9533 31.4491 50.7703 31.2111 50.5064 31.0764C49.9688 30.8017 49.2756 30.9687 48.8203 31.3304C48.089 31.9109 47.9894 32.9752 47.7853 33.8191C47.741 34.0021 47.6853 34.1944 47.6134 34.3825C47.3103 34.8487 46.9223 35.2582 46.4748 35.5856C46.4628 35.5884 46.4527 35.5949 46.4403 35.5975C46.374 35.6121 46.3339 35.6516 46.3124 35.6993C45.9809 35.9197 45.6234 36.0988 45.2421 36.2134C44.9159 36.3114 44.5474 36.3667 44.2212 36.2387C43.9216 36.121 43.6636 35.8386 43.6947 35.4984C43.728 35.1308 44.0023 34.7979 44.1783 34.4857C44.3412 34.1974 44.4968 33.8958 44.5819 33.5739C44.6633 33.2657 44.6789 32.9433 44.5987 32.6331C44.511 32.2939 44.3334 31.9865 44.2489 31.6464C44.1049 31.066 44.1797 30.4515 44.4141 29.9049C44.6475 29.359 45.0579 28.8749 45.5791 28.5896C46.0591 28.3264 46.6145 28.2404 47.1547 28.2166C48.1944 28.171 49.2894 28.3606 50.302 28.0476C50.7796 27.9 51.2583 27.6333 51.5458 27.2099C51.8686 26.7346 51.876 26.1057 51.3533 25.7737C51.0443 25.5774 50.6629 25.4762 50.3191 25.3588C49.9184 25.2219 49.5133 25.0968 49.1057 24.9842C48.7132 24.8759 48.3179 24.7795 47.9197 24.6938C47.5236 24.6085 47.1192 24.5321 46.7439 24.3731C46.0242 24.0686 45.6336 23.3895 45.0847 22.8724C44.5151 22.3351 43.8155 21.9823 43.1789 21.5367C41.8009 20.5727 40.797 19.1153 40.3079 17.5029C36.6737 18.4778 33.1955 19.9899 29.9939 21.9867C29.9158 22.5189 29.7757 23.0396 29.6272 23.4993C29.3203 24.4472 28.9675 25.3845 28.8658 26.3836C28.77 27.3289 28.8626 28.284 28.7476 29.2279C28.4942 31.3082 27.2621 33.0876 26.3471 34.917C25.4514 36.7081 24.9665 38.6148 24.7281 40.5992C24.6077 41.6022 24.5414 42.611 24.4888 43.6194C24.4598 44.1745 24.2027 45.3912 24.9342 45.6387C25.5486 45.8464 25.8916 45.0974 25.9789 44.6153C26.1612 43.6106 26.2429 42.5777 26.3725 41.565C26.4814 40.7148 26.7004 39.341 27.8247 39.3428C28.8059 39.3441 28.7855 40.8386 28.7415 41.5108C28.6799 42.4584 28.3736 43.3901 27.8564 44.1851C27.4364 44.8307 26.8767 45.4154 26.6385 46.1642C26.4104 46.8814 26.6663 47.5194 27.2443 47.9739C27.8842 48.4779 28.6282 48.8578 29.3211 49.2817C29.9955 49.6947 30.6719 50.1319 31.2328 50.6963C31.8004 51.2675 32.17 51.9324 32.3647 52.7148C32.5305 53.3809 32.6197 54.1056 32.9809 54.7026C33.3543 55.3202 33.9429 55.5128 34.5902 55.7296C34.86 55.8201 35.2626 55.93 35.3813 56.2256C35.5651 56.6855 35.0107 56.9649 34.6762 57.1089C34.3272 57.2592 33.9698 57.3733 33.6436 57.5733C33.3282 57.7666 33.0397 58.0016 32.7893 58.2748C32.2884 58.8211 31.9208 59.4991 31.7639 60.2273C31.5939 61.0152 31.7399 61.7275 31.8726 62.5069C31.9518 62.9717 31.9751 63.4333 31.754 63.8643C31.5867 64.1906 31.3506 64.5229 31.4221 64.9103C31.494 65.2995 31.8364 65.5091 32.0741 65.7913C32.316 66.0782 32.4672 66.4288 32.5406 66.796C32.9172 68.6876 31.4803 70.211 30.4273 71.5833C29.4425 72.8666 28.7276 74.3248 28.3386 75.9001C27.9637 77.4199 27.8809 79.0075 28.0945 80.5587C28.3011 82.0585 28.7783 83.6844 29.6421 84.9424C29.9662 85.4145 30.6382 85.9706 31.2001 85.5173C31.7104 85.1054 31.3861 84.4379 31.1629 83.9615C31.0008 83.6152 30.8058 83.2502 30.8522 82.8546C30.9043 82.4096 31.1906 82.021 31.4462 81.6698C31.8825 81.0693 32.2723 80.5154 32.2139 79.7345C32.1764 79.2383 31.9286 78.7877 31.4513 78.6701C31.4728 78.1219 32.361 78.0523 32.7627 78.008C33.3188 77.9468 33.7235 77.7631 34.0641 77.3057C34.2463 77.0611 34.405 76.8144 34.6712 76.6528C34.8885 76.5207 35.1344 76.446 35.3794 76.3857C35.8724 76.2642 36.3825 76.1996 36.8475 75.9833C37.8572 75.5142 38.4658 74.5111 39.0866 73.634C39.6702 72.8097 40.5141 71.835 41.6165 71.8574C42.6521 71.8784 43.5 72.7554 44.5566 72.6493C45.5233 72.5522 45.9541 71.68 46.2236 70.8514C46.3754 70.3852 46.4945 69.9003 46.7159 69.4608C46.9845 68.9268 47.374 68.6648 47.9105 68.4351C48.3756 68.236 48.7916 67.994 49.0245 67.5237C49.2281 67.1124 49.2622 66.6317 49.1772 66.1844C48.6703 63.5292 45.0612 63.8117 43.6268 61.9932L43.6247 61.9929Z" fill="#42D576"/>
<path d="M80.9285 73.6016C80.5001 73.4515 80.1052 73.2112 79.8204 72.8512C79.5253 72.4781 79.4035 72.0149 79.3494 71.5496C79.2854 71.0003 79.2911 70.4402 79.2731 69.8881C79.2536 69.3063 79.2343 68.7251 79.2148 68.1433C79.1953 67.5614 79.1751 66.9799 79.1565 66.3985C79.1451 66.0439 79.1746 65.6666 79.3539 65.3519C79.5687 64.9756 79.953 65.0433 80.0894 65.4565C80.2123 65.8297 80.1638 66.2699 80.1372 66.6553C80.0841 67.4215 79.9527 68.188 79.9941 68.9581C80.0327 69.6729 80.2469 70.3674 80.7976 70.8511C81.5075 71.4747 82.5311 71.5252 83.4154 71.3401C83.7886 71.2618 84.1418 71.1458 84.4822 71.0078C84.6915 70.5648 84.8961 70.1181 85.0905 69.6635C89.0086 60.5032 89.0954 50.6553 86.0699 41.9272C85.9735 41.9355 85.8767 41.9381 85.7812 41.927C85.125 41.8503 84.8019 41.2329 84.3133 40.8661C83.3325 40.1292 82.0083 40.3023 80.9418 40.7372C79.8082 41.1994 78.9049 42.0392 77.9223 42.7455C77.4342 43.0963 76.9175 43.42 76.3535 43.6333C75.8367 43.8288 75.2967 43.8868 74.7494 43.9154C73.7262 43.9687 72.462 43.9485 71.8532 44.939C71.7997 45.0257 71.8173 45.1512 71.9083 45.2071C72.8803 45.8007 73.8527 46.3944 74.8249 46.9875C75.3043 47.2803 75.7764 47.5984 76.2713 47.8643C76.6064 48.0446 76.978 48.1433 77.3532 48.0379C77.9987 47.8565 78.4201 47.2365 78.7449 46.6891C78.944 46.3534 79.1168 46.0022 79.3268 45.6728C79.6007 45.243 79.922 44.845 80.2864 44.4896C80.6412 44.1432 82.1957 42.7128 82.3444 43.9034C82.461 44.8381 81.2785 45.208 80.7924 45.8057C80.3277 46.3774 80.2409 47.1706 80.8888 47.6297C81.0687 47.757 81.2779 47.8675 81.3037 48.1104C81.3274 48.333 81.2149 48.5537 81.0566 48.7027C80.7128 49.026 80.1812 49.1263 79.7448 49.2598C78.7633 49.5596 77.7631 49.8329 76.732 49.8675C75.6963 49.9023 74.6669 49.7474 73.6341 49.6986C72.7672 49.6579 71.8769 49.6981 71.0443 49.9648C70.295 50.205 69.4231 50.6654 69.0766 51.4186C68.9871 51.6133 68.9466 51.8179 68.9677 52.032C68.9888 52.2513 69.0995 52.4717 69.0822 52.6936C69.0442 53.1715 68.4193 53.3259 68.0348 53.2256C67.5324 53.0949 67.1427 52.6837 66.7504 52.3671C66.4252 52.104 66.0559 51.8742 65.6404 51.7958C64.9138 51.6586 64.2993 52.1182 64.168 52.8369C64.0338 53.5715 64.3338 54.3145 64.8699 54.8124C66.2269 56.0718 68.2549 55.8854 69.8411 55.2335C70.7327 54.867 71.5605 54.3653 72.4047 53.902C72.7688 53.702 73.2712 53.4051 73.696 53.582C74.028 53.7205 74.0964 54.0678 74.0539 54.3934C74.0072 54.7489 73.8524 55.0909 73.6769 55.3993C73.6265 55.4879 73.6389 55.61 73.7321 55.6674C74.3216 56.0312 75.0079 55.8378 75.652 55.7987C75.9501 55.7807 76.2998 55.7851 76.5106 56.0323C76.7579 56.3226 76.6846 56.7533 76.6547 57.1025C76.5884 57.8943 76.7984 58.6172 77.3075 59.2326C77.8708 59.9131 78.6817 60.3179 79.5345 60.4938C80.0018 60.59 80.4788 60.6278 80.9559 60.6241C81.3325 60.6213 82.1509 60.4526 82.2883 60.9522C82.393 61.3335 82.1116 61.7863 81.888 62.0722C81.6336 62.3983 81.2944 62.6524 80.9262 62.8342C80.115 63.2349 79.1928 63.2465 78.3385 62.9789C77.372 62.6758 76.627 62.0666 75.869 61.4204C75.5305 61.1316 75.1548 60.8649 74.7086 60.784C74.2646 60.7036 73.8024 60.8629 73.3666 60.7262C72.4243 60.4313 72.1429 59.3074 72.0083 58.4492C71.9363 57.9927 71.8908 57.5232 71.755 57.0796C71.6583 56.7644 71.4316 56.4961 71.0765 56.5361C70.7425 56.5743 70.4927 56.8433 70.2154 57.0057C69.8818 57.2019 69.5096 57.1667 69.1503 57.0643C68.4193 56.8551 67.7663 56.514 66.9956 56.4494C66.2657 56.3887 65.5321 56.5075 64.8433 56.7516C63.4113 57.259 62.1637 58.316 61.3755 59.616C61.1498 59.9887 60.9813 60.3907 60.7768 60.7748C60.5395 61.2211 60.2437 61.5618 59.8306 61.85C59.4804 62.0942 59.1281 62.3194 58.8621 62.6621C58.6134 62.9827 58.4561 63.3702 58.3796 63.7676C58.0678 65.3808 58.9128 67.0337 60.0893 68.0887C60.6974 68.6342 61.4101 69.0581 62.1846 69.3151C63.0106 69.5893 63.8326 69.5987 64.6927 69.5801C65.5316 69.5621 66.4438 69.6031 67.0088 70.3167C67.2273 70.5923 67.3597 70.9536 67.2513 71.3025C67.1315 71.6885 66.7815 71.9562 66.5177 72.2418C66.2814 72.4978 66.0625 72.7885 66.0361 73.1495C66.0056 73.5622 66.2633 73.8958 66.3256 74.2889C66.4651 75.1634 65.4827 75.8135 64.9357 76.3285C63.5081 77.6726 63.3065 79.6067 63.4785 81.4708C63.5712 82.4772 63.7527 83.4747 63.7969 84.4858C63.8317 85.2809 63.7635 86.1419 64.4392 86.7013C65.0176 87.1798 65.8671 87.2575 66.5686 87.0536C67.448 86.798 68.1655 86.2138 68.9385 85.7488C69.7352 85.2695 70.5925 84.8893 71.4839 84.6269C71.9275 84.4965 72.3768 84.4084 72.8294 84.3178C73.1724 84.2493 73.527 84.1259 73.7169 83.8089C74.0966 83.1754 73.4984 82.2983 74.1313 81.7851C74.6489 81.3651 75.4377 81.2445 75.594 80.4859C75.675 80.0927 75.5576 79.7026 75.4936 79.3161C75.426 78.9077 75.477 78.5118 75.6882 78.1516C76.1084 77.4366 76.9246 77.0016 77.7147 76.8475C78.8804 76.62 80.1159 76.7775 81.2632 76.5626C81.8687 75.6949 82.4411 74.7962 82.9796 73.8682C82.2845 73.8795 81.5813 73.8293 80.928 73.6002L80.9285 73.6016Z" fill="#42D576"/>
<path fill-rule="evenodd" clip-rule="evenodd" d="M85.8948 67.6051C76.9004 85.5496 55.4448 93.5668 36.8426 85.5198C17.5191 77.1607 8.59109 54.6326 16.8987 35.1987C16.8997 35.1964 16.9007 35.194 16.9017 35.1917C25.2147 15.7562 47.6204 6.77783 66.9463 15.1379C83.8564 22.4529 92.8055 40.6188 89.2097 58.0662C92.8056 40.6188 83.8565 22.4528 66.9464 15.1377C47.6205 6.77767 25.2147 15.7561 16.9018 35.1915C16.9008 35.1939 16.8998 35.1963 16.8987 35.1987C16.59 35.9209 16.3051 36.6473 16.0436 37.3771C15.6937 38.0752 15.3627 38.7883 15.0514 39.5161C6.7385 58.9515 15.6663 81.4843 34.9922 89.8443C54.3181 98.2044 76.7238 89.226 85.0367 69.7905C85.3466 69.066 85.6325 68.3373 85.8948 67.6051ZM86.7891 65.6933C86.8219 65.6177 86.8546 65.542 86.887 65.4661C86.8871 65.4661 86.8871 65.466 86.8871 65.466C86.8546 65.5419 86.822 65.6177 86.7891 65.6933Z" fill="#1B84BF" fill-opacity="0.4"/>
<path d="M68.2779 20.863C68.2677 20.8642 68.2578 20.8674 68.2477 20.8687C67.1176 21.0313 65.9136 21.077 64.9377 21.7435C64.6947 21.9094 64.4599 22.1261 64.1542 22.1551C63.9287 22.1765 63.7028 22.1078 63.4938 22.0311C63.0726 21.8762 62.6738 21.6343 62.2242 21.5696C61.7844 21.5057 61.352 21.7065 61.1633 22.1225C60.9208 22.6576 61.1282 23.237 61.451 23.683C61.8125 24.1827 62.2565 24.5929 62.5662 25.1345C62.8579 25.6451 63.0688 26.2004 63.1758 26.7802C63.4017 28.0048 63.0961 29.209 62.2618 30.1378C61.3757 31.1239 60.1736 31.745 59.2428 32.6821C58.36 33.5706 57.7481 34.7072 58.0091 35.9914C58.1241 36.5564 58.3629 37.0862 58.5676 37.6217C58.6662 37.8796 58.7573 38.1405 58.8221 38.41C58.902 38.7447 58.9221 39.087 58.9736 39.4259C59.0564 39.9736 59.2782 40.5655 59.8115 40.8173C60.2803 41.0383 60.7865 40.8478 61.1251 40.4864C61.5217 40.0635 61.7298 39.4896 61.8235 38.9237C61.8781 38.5949 61.8815 38.2638 61.8481 37.9328C61.8152 37.6088 61.7389 37.2814 61.7731 36.954C61.8433 36.284 62.4772 35.9353 63.0852 35.8572C63.7611 35.7703 64.4401 35.9684 65.1129 36.0038C65.7182 36.0356 66.3308 35.955 66.9071 35.7658C67.4919 35.5741 67.97 35.2411 68.5061 34.9543C68.8058 34.7935 69.0947 34.7232 69.4347 34.7462C69.7397 34.7665 70.0386 34.8183 70.3447 34.7805C70.8379 34.7194 71.2854 34.4489 71.628 34.0955C72.5027 33.1927 72.6923 31.9617 73.0716 30.8116C73.2932 30.1399 73.6059 29.524 74.1485 29.059C74.6049 28.6682 75.1465 28.3975 75.6735 28.1186C76.1129 27.8868 76.5514 27.6426 76.9461 27.3379C74.4286 24.8219 71.5246 22.6324 68.2772 20.8632L68.2779 20.863Z" fill="#42D576"/>
<path d="M83.556 49.7238C83.352 50.0114 83.1456 50.2965 82.9447 50.5867C81.2191 53.0776 78.9328 54.7058 75.9215 55.1999C75.3558 55.2928 74.7784 55.309 74.2063 55.3607C73.4288 55.1809 72.62 55.0842 71.8785 54.8064C68.6983 53.6143 66.9819 51.2043 66.4132 47.9001C66.1624 46.4424 66.4164 45.0019 66.6543 43.5677C66.6949 43.3217 66.8333 43.0848 66.9576 42.8615C67.0667 42.6646 67.3521 42.575 67.5486 42.6556C67.7616 42.7434 67.9718 42.8753 67.9785 43.1276C67.9851 43.3811 67.9516 43.6444 67.8841 43.8894C67.2846 46.0679 67.422 48.2049 68.4648 50.1955C69.665 52.486 71.5281 53.8822 74.1994 53.9627C74.8436 54.0799 75.4792 53.9822 76.1045 53.848C78.5449 53.3257 80.4212 51.963 81.8163 49.8983C82.0432 49.5507 82.268 49.2018 82.498 48.8568C82.5858 48.725 82.6702 48.5833 82.7852 48.4786C82.9552 48.3237 83.1613 48.2275 83.3963 48.3374C83.6202 48.4423 83.7431 48.6334 83.7166 48.8763C83.6859 49.1616 83.6117 49.4415 83.556 49.7238Z" fill="#2C2853"/>
<path d="M31.6641 38.7361C31.5337 38.4762 31.4004 38.2182 31.274 37.9565C30.5391 36.4376 30.2111 34.8326 30.3456 33.1348C30.4199 32.1918 30.5099 31.2502 30.8397 30.3549C30.9165 30.1464 31.0096 29.9322 31.1435 29.7596C31.2894 29.5708 31.5187 29.5071 31.7486 29.5938C31.969 29.6774 32.1255 29.8495 32.1553 30.0922C32.1745 30.2479 32.1509 30.4162 32.116 30.5717C31.9805 31.1741 31.7814 31.7668 31.6983 32.3756C31.4596 34.122 31.6004 35.8173 32.4796 37.3819C32.7121 38.1628 33.2516 38.74 33.8171 39.2423C35.1849 40.4573 36.7758 41.0459 38.63 40.9342C41.7135 40.7488 44.0296 39.1973 45.8979 36.7909C46.1356 36.4849 46.3379 36.1501 46.5676 35.8366C46.6616 35.7084 46.7664 35.5717 46.8971 35.4925C47.1017 35.3691 47.3502 35.3667 47.5166 35.5432C47.635 35.6689 47.7406 35.8803 47.7289 36.0448C47.714 36.2583 47.6077 36.4836 47.489 36.6688C45.5311 39.7114 42.894 41.7599 39.3036 42.1641C36.5331 42.4759 34.0801 41.6778 32.2442 39.3791C32.064 39.1535 31.8586 38.9496 31.6647 38.7356L31.6641 38.7361Z" fill="#2C2853"/>
<path d="M62.2795 61.8454C61.556 63.0493 60.4405 63.9671 59.249 64.6434C59.0859 64.7399 58.9171 64.8336 58.7444 64.9178C55.9872 66.3336 52.7605 66.8161 49.893 65.9914C42.8824 63.9783 39.9769 60.8958 38.7304 58.7154C38.617 58.5127 38.5191 58.3245 38.4341 58.1416C37.7423 56.7038 37.3096 55.0386 37.6841 53.4258C38.0561 51.8195 39.2561 50.3377 40.788 49.9495C40.8451 49.934 40.9084 49.9215 40.9688 49.9153C43.4957 49.4551 46.6124 52.8042 50.434 54.0151C54.8993 55.4292 57.8823 54.4566 59.395 54.8631C60.3243 55.114 61.2303 55.5815 61.9077 56.2735C62.3368 56.6995 62.6789 57.2147 62.8791 57.8106C63.3148 59.1113 63.0121 60.6367 62.2797 61.8448L62.2795 61.8454Z" fill="#8F2F59"/>
<path d="M61.909 56.2744C61.5932 56.6035 61.1944 56.9217 60.6786 57.2773C59.1933 58.2995 47.7057 57.2343 42.5458 53.2133C41.9246 52.7233 41.4525 52.0458 41.2285 51.2604C41.0995 50.8102 41.0138 50.3622 40.9701 49.9162C43.4971 49.456 46.6137 52.8051 50.4353 54.016C54.9006 55.4301 57.8837 54.4575 59.3964 54.8641C60.3257 55.1149 61.2317 55.5825 61.909 56.2744Z" fill="white"/>
<path d="M58.7443 64.9185C55.987 66.3343 52.7604 66.8168 49.8929 65.9921C42.8822 63.979 39.9768 60.8965 38.7302 58.7161C42.4451 57.267 46.5615 57.0969 50.2351 58.3325C53.673 59.4862 56.6745 61.8537 58.7443 64.9185Z" fill="#F7807C"/>
<path d="M32.7069 46.5826C32.7004 46.5596 32.6778 46.5398 32.6453 46.5228C32.6382 46.4962 32.6117 46.4673 32.5526 46.4371C31.5966 45.9544 30.4656 45.7541 29.3713 45.7063C27.8414 45.5344 26.3211 45.7617 25.2927 47.0122C25.2703 47.04 25.2977 47.0719 25.3501 47.1035C25.3406 47.1174 25.3273 47.1271 25.3184 47.1412C25.1904 47.3383 25.1145 47.5575 25.0639 47.7812C24.7507 48.6187 24.9401 49.5646 25.4326 50.3198C26.0951 51.3353 27.2145 51.944 28.3073 52.3845C30.2336 53.162 33.1769 53.687 34.7626 51.9234C36.3741 50.1301 34.442 47.4791 32.7073 46.5834L32.7069 46.5826Z" fill="#F9D1E1"/>
<path d="M65.1051 65.1638C65.3395 67.5302 68.0179 68.8643 70.0271 69.3894C71.1664 69.6874 72.4269 69.8658 73.5588 69.4442C74.4012 69.1306 75.112 68.4829 75.3542 67.6213C75.4455 67.411 75.5138 67.1888 75.5276 66.9539C75.5287 66.9373 75.5236 66.921 75.5239 66.9048C75.5845 66.9105 75.6254 66.901 75.6237 66.8657C75.5342 65.2455 74.446 64.1547 73.1129 63.3798C72.204 62.765 71.1753 62.2508 70.1215 62.0689C70.0556 62.0577 70.017 62.0648 69.996 62.0822C69.9599 62.0761 69.9305 62.0787 69.9112 62.0934C67.9864 61.7784 64.8665 62.7584 65.1045 65.1636L65.1051 65.1638Z" fill="#F9D1E1"/>
<path d="M29.0961 47.3426C29.1098 47.2767 29.11 47.2122 29.1012 47.1503C29.15 47.0175 29.1178 46.8621 28.9882 46.7862C28.8086 46.681 28.599 46.6094 28.3941 46.5722C28.1474 46.5279 27.9062 46.5246 27.6587 46.5649C27.6334 46.5691 27.6117 46.5815 27.5903 46.5948C27.4946 46.6132 27.403 46.6468 27.3276 46.7133C27.206 46.8219 27.132 47.014 27.1896 47.1734C27.1903 47.175 27.1916 47.1769 27.1923 47.1786C27.1684 47.2825 27.2004 47.3971 27.2988 47.4545C27.518 47.5809 27.7482 47.6947 27.9859 47.7809C28.2043 47.8594 28.4543 47.8988 28.6761 47.8137C28.8786 47.7365 29.0507 47.5596 29.0957 47.3417L29.0961 47.3426Z" fill="white"/>
<path d="M73.9792 65.4562C74.035 65.1815 73.8405 64.9733 73.6126 64.857C73.6029 64.8457 73.5932 64.8323 73.5839 64.8218C73.3621 64.5796 73.0445 64.4305 72.7172 64.4228C72.6805 64.4218 72.6468 64.4302 72.6161 64.4431C72.496 64.405 72.3471 64.4987 72.3182 64.617C72.3134 64.6361 72.3157 64.6526 72.3147 64.6706C72.3015 64.6939 72.2859 64.7148 72.2763 64.7409C72.218 64.8998 72.2486 65.092 72.3367 65.2342C72.4287 65.3835 72.5684 65.4852 72.7256 65.5564C72.784 65.583 72.8454 65.6039 72.9056 65.6278C73.0187 65.7148 73.146 65.781 73.2865 65.8102C73.3457 65.8228 73.4086 65.8261 73.4718 65.8233C73.5528 65.8337 73.6309 65.8206 73.7028 65.7751C73.8375 65.7192 73.9467 65.6165 73.9789 65.4554L73.9792 65.4562Z" fill="white"/>
<path d="M26.6793 89.9218C27.7536 89.172 29.2439 89.2171 30.4277 89.7793C31.6109 90.3411 32.5281 91.3473 33.2721 92.4257C34.7277 94.5348 35.6474 97.1138 35.3292 99.6568C35.0107 102.199 33.2732 104.636 30.8049 105.327C29.3723 100.163 27.9398 95.0003 26.6795 89.9223L26.6793 89.9218Z" fill="#E1DDE8"/>
<path d="M32.3587 105.07C31.6627 107.003 29.8604 108.381 27.8515 108.885C27.345 109.011 26.824 109.082 26.3057 109.096C23.7347 109.158 21.2528 107.927 19.3673 106.171C17.4873 104.414 16.1351 102.167 14.9669 99.8673C13.3626 96.7087 11.8755 93.9281 11.3222 90.8634C10.77 87.8042 11.1157 84.4503 12.929 81.9226C13.2582 81.4632 13.6328 81.0414 14.0478 80.6592C15.9137 78.9321 18.543 78.0234 21.0802 78.318C24.1717 78.683 26.9953 80.8221 28.1762 83.7025C29.428 86.747 28.8879 90.2336 29.6993 93.4267C30.1978 95.3962 31.1975 97.2019 31.9125 99.1091C32.6276 101.016 33.0514 103.156 32.3589 105.071L32.3587 105.07Z" fill="white"/>
<path opacity="0.4" d="M29.5554 104.529C29.6947 105.837 29.3232 107.209 28.4896 108.235C28.2954 108.475 28.0807 108.69 27.8511 108.885C27.3446 109.011 26.8236 109.082 26.3053 109.096C23.7343 109.158 21.2524 107.927 19.3669 106.171C17.4868 104.414 16.1347 102.167 14.9665 99.8673C13.3622 96.7088 11.8751 93.9281 11.3218 90.8634C10.7696 87.8042 11.1153 84.4504 12.9286 81.9226C13.2578 81.4632 13.6324 81.0414 14.0473 80.6592C14.3186 80.5485 14.6032 80.4525 14.8917 80.3786C17.2783 79.7576 19.9728 80.5478 21.6447 82.3486C22.7921 83.5875 23.4422 85.1936 23.9468 86.8057C24.8809 89.8097 25.3675 92.9527 25.3961 96.1006C25.4025 97.1411 25.3741 98.249 25.902 99.15C26.3651 99.9312 27.1681 100.427 27.8232 101.058C28.7714 101.972 29.4159 103.217 29.5558 104.53L29.5554 104.529Z" fill="#3A285B"/>
<path d="M93.3326 43.8638C93.8461 43.5617 94.4222 43.5701 94.9846 43.5385C96.5378 43.4512 98.0475 43.7206 99.5325 44.1373C101.494 44.6882 103.386 45.4275 105.28 46.1784C107.644 47.116 109.914 48.2448 112.202 49.3406C114.492 50.4377 116.667 51.7331 118.779 53.1448C120.531 54.3159 122.217 55.5643 123.672 57.0958C125.079 58.5772 126.129 60.263 126.423 62.338C126.612 63.6767 126.546 65.0139 126.286 66.3388C126.008 67.756 125.567 69.122 125.034 70.4681C124.65 71.4368 124.272 72.4058 123.775 73.3186C122.378 75.8835 120.826 78.3487 118.943 80.5911C118.86 80.6894 118.736 80.753 118.631 80.8327C118.242 80.7533 117.855 80.662 117.463 80.5971C115.922 80.3403 114.367 80.1498 112.841 79.8263C111.092 79.4555 109.349 79.0562 107.64 78.4983C106.184 78.0227 104.743 77.5412 103.376 76.8457C102.573 76.4371 101.77 76.0209 100.938 75.6792C100.094 75.3322 99.3629 74.7935 98.6536 74.2689C96.8387 72.9264 95.1311 71.4504 93.6122 69.7573C91.9215 67.8724 90.5751 65.8073 89.7941 63.3761C89.3311 61.9341 89.096 60.4644 89.0246 58.9563C88.9578 57.5448 89.1162 56.1534 89.3282 54.7619C89.6346 52.7464 90.0469 50.7609 90.8901 48.8873C90.9583 48.7362 91.0106 48.5744 91.0466 48.4126C91.2901 47.3152 91.9175 46.3896 92.3947 45.397C92.8778 44.9907 93.0335 44.3842 93.3321 43.8648L93.3326 43.8638Z" fill="#FFECE9"/>
<path d="M93.3338 43.8631C93.0352 44.3825 92.8795 44.989 92.3964 45.3953C91.9192 46.3878 91.2921 47.313 91.0483 48.4108C91.0123 48.5726 90.9601 48.7345 90.8919 48.8856C90.0484 50.7596 89.6363 52.7447 89.3299 54.7601C89.1184 56.1519 88.9602 57.5428 89.0263 58.9545C89.0974 60.4632 89.3331 61.9331 89.7958 63.3744C90.5763 65.8053 91.9232 67.8707 93.6139 69.7556C95.1324 71.4485 96.8399 72.9245 98.6553 74.2672C99.3646 74.7918 100.095 75.3304 100.94 75.6775C101.772 76.0196 102.575 76.4353 103.378 76.844C104.744 77.5395 106.186 78.0212 107.642 78.4965C109.351 79.0545 111.093 79.4536 112.843 79.8245C114.369 80.148 115.924 80.3388 117.465 80.5953C117.856 80.6605 118.244 80.7516 118.633 80.8309C117.059 82.8411 115.19 84.4869 112.835 85.5239C111.396 86.1577 109.881 86.3749 108.326 86.3195C106.17 86.2422 104.086 85.774 102.055 85.0864C99.7428 84.3044 97.5066 83.3314 95.3294 82.23C93.9294 81.5214 92.5437 80.7834 91.1717 80.0217C90.7014 79.7606 90.265 79.6925 89.7401 79.8123C88.5656 80.0797 87.3817 80.3068 86.1971 80.5264C85.0104 80.7467 83.8126 80.8703 82.6043 80.8435C81.8259 80.8261 81.0821 80.6734 80.386 80.3034C79.2729 79.7119 78.8738 78.7061 79.3183 77.5168C79.6644 76.5912 80.2354 75.8048 80.8914 75.0781C81.361 74.5576 81.8458 74.0504 82.3437 73.5163C82.2885 73.3825 82.2628 73.2449 82.1868 73.1465C80.3032 70.7069 79.905 67.93 80.3697 64.9596C80.6039 63.465 80.9872 62.001 81.5199 60.5891C82.171 58.8639 82.8398 57.1381 83.6316 55.4746C84.4378 53.7812 85.3985 52.1609 86.3007 50.5131C86.9796 49.2728 87.7993 48.1263 88.7089 47.0467C89.5793 46.0148 90.5581 45.1 91.7482 44.4413C92.2443 44.1665 92.7507 43.9028 93.3338 43.8606L93.3338 43.8631Z" fill="#FFE3DF"/>
<g filter="url(#filter0_d_2199_118393)">
<path d="M101.591 55.1568C101.292 54.4092 100.458 54.0376 99.6973 54.3029L98.0964 54.8608C97.3353 55.1261 96.9142 55.935 97.146 56.7059C97.5869 58.1722 98.3704 60.7077 99.4114 63.7956C96.343 64.9032 93.8679 65.8684 92.4442 66.4361C91.6956 66.7346 91.3235 67.5671 91.5891 68.3271L92.1478 69.9257C92.4134 70.6857 93.2235 71.1062 93.9956 70.8747C95.4638 70.4345 98.0029 69.6522 101.095 68.6127C102.204 71.6767 103.171 74.1483 103.739 75.57C104.038 76.3175 104.872 76.6891 105.633 76.4239L107.234 75.8659C107.995 75.6007 108.416 74.7917 108.184 74.0208C107.743 72.5546 106.96 70.0192 105.919 66.9314C108.987 65.8238 111.463 64.8585 112.886 64.2908C113.635 63.9923 114.007 63.1598 113.742 62.3998L113.183 60.8012C112.917 60.0412 112.107 59.6207 111.335 59.8522C109.867 60.2924 107.328 61.0748 104.235 62.1143C103.126 59.0502 102.159 56.5785 101.591 55.1568Z" fill="#D5351F"/>
</g>
<defs>
<filter id="filter0_d_2199_118393" x="90.4746" y="53.1895" width="24.3809" height="25.3477" filterUnits="userSpaceOnUse" color-interpolation-filters="sRGB">
<feFlood flood-opacity="0" result="BackgroundImageFix"/>
<feColorMatrix in="SourceAlpha" type="matrix" values="0 0 0 0 0 0 0 0 0 0 0 0 0 0 0 0 0 0 127 0" result="hardAlpha"/>
<feOffset dy="1"/>
<feComposite in2="hardAlpha" operator="out"/>
<feColorMatrix type="matrix" values="0 0 0 0 0.684831 0 0 0 0 0.15988 0 0 0 0 0.0876994 0 0 0 1 0"/>
<feBlend mode="normal" in2="BackgroundImageFix" result="effect1_dropShadow_2199_118393"/>
<feBlend mode="normal" in="SourceGraphic" in2="effect1_dropShadow_2199_118393" result="shape"/>
</filter>
</defs>
</svg>
