<svg width="121" height="106" viewBox="0 0 121 106" fill="none" xmlns="http://www.w3.org/2000/svg">
<path d="M11.8901 61.3786C11.3081 63.2118 10.7254 65.0458 10.1434 66.879C9.65846 68.4066 9.2147 69.9571 8.51644 71.4007C6.62225 70.4884 3.69308 69.6024 2.76371 71.6713C2.26323 72.7852 3.0019 74.0301 4.05887 74.4582C4.64868 74.6968 5.27392 74.6861 5.89137 74.5735C6.60098 74.4439 7.3581 74.0237 8.08968 74.1676C8.48525 74.2452 8.81062 74.1085 9.0318 73.8756C9.61026 73.9076 10.0704 73.3493 10.0668 72.7923C10.909 71.1885 11.4385 69.455 11.9858 67.7322L13.8325 61.9178C14.2273 60.6736 12.2828 60.1416 11.8901 61.3794V61.3786ZM4.79754 72.5886C4.74863 72.5808 4.71674 72.5359 4.69193 72.4939C4.82874 72.4982 5.07188 72.4761 5.15483 72.4818C5.33134 72.4946 5.50857 72.5238 5.68438 72.5616C5.57521 72.5879 5.46604 72.61 5.35687 72.6207C5.16121 72.6399 4.98965 72.6171 4.79754 72.5879V72.5886Z" fill="#3A285B"/>
<path d="M88.729 86.9206C87.7011 86.2196 86.4853 86.0804 85.2785 86.1139C84.7133 86.0139 84.1322 85.9663 83.5649 85.9356C80.3223 75.5944 77.6855 65.0644 75.6725 54.4049C75.4357 53.1498 73.5493 53.6815 73.7861 54.9339C75.8253 65.7318 78.5034 76.3983 81.8045 86.8688C81.8968 87.162 82.0779 87.353 82.2926 87.4586C82.3174 87.5825 82.3739 87.7105 82.4696 87.8392C83.3295 88.9929 84.3821 89.9521 85.6812 90.5706C86.9514 91.175 88.7903 91.769 89.8464 90.4684C90.8515 89.2301 89.8133 87.6601 88.729 86.9206Z" fill="#3A285B"/>
<path d="M35.4215 84.0891C35.8108 83.6973 35.8087 83.0642 35.4169 82.6749C35.0252 82.2856 34.392 82.2877 34.0027 82.6795L35.4215 84.0891ZM34.0027 82.6795L29.6637 87.0466L31.0824 88.4562L35.4215 84.0891L34.0027 82.6795Z" fill="#3A285B"/>
<path d="M59.8579 83.0042C59.6471 82.4923 59.0632 82.2475 58.5537 82.4572C58.0442 82.667 57.802 83.252 58.0127 83.7639L59.8579 83.0042ZM58.0127 83.7639L60.3618 89.4694L62.207 88.7097L59.8579 83.0042L58.0127 83.7639Z" fill="#3A285B"/>
<path d="M54.3744 91.993C54.1061 90.8053 54.6628 89.5375 55.5555 88.7146C56.4477 87.8922 57.6278 87.4544 58.8095 87.191C61.1207 86.6754 63.6479 86.7858 65.7138 87.9498C67.7792 89.1138 69.2614 91.4631 68.994 93.8306C64.0767 93.2576 59.1594 92.6845 54.3749 91.9929L54.3744 91.993Z" fill="#E1DDE8"/>
<path d="M69.3164 92.4013C70.7285 93.6769 71.2812 95.7114 71.0147 97.6182C70.9461 98.0983 70.8257 98.5718 70.658 99.0233C69.8171 101.259 67.9004 102.966 65.7422 103.976C63.585 104.98 61.1915 105.358 58.8171 105.56C55.5559 105.836 52.6589 106.144 49.8434 105.548C47.033 104.953 44.2825 103.481 42.7493 101.035C42.4705 100.591 42.2397 100.12 42.0568 99.6294C41.2273 97.4179 41.3635 94.8353 42.4977 92.7532C43.8848 90.2182 46.6973 88.5349 49.5732 88.5258C52.6143 88.5131 55.4108 90.1984 58.4259 90.617C60.2849 90.8769 62.178 90.6478 64.0589 90.6993C65.9399 90.7509 67.9186 91.1347 69.3169 92.4013L69.3164 92.4013Z" fill="white"/>
<path opacity="0.4" d="M67.8775 94.6262C69.0454 94.9639 70.0902 95.7639 70.6788 96.841C70.817 97.0922 70.9263 97.3524 71.0133 97.6184C70.9447 98.0986 70.8243 98.5721 70.6566 99.0236C69.8157 101.26 67.899 102.966 65.7408 103.976C63.5836 104.98 61.1901 105.358 58.8157 105.56C55.5545 105.836 52.6575 106.144 49.842 105.548C47.0316 104.953 44.2811 103.482 42.7479 101.035C42.4692 100.591 42.2383 100.121 42.0554 99.6296C42.055 99.3572 42.0717 99.0785 42.1088 98.8042C42.407 96.5313 44.02 94.4871 46.1425 93.6774C47.6018 93.1227 49.2025 93.1248 50.7577 93.2544C53.6537 93.5011 56.513 94.1819 59.2173 95.2589C60.1101 95.6175 61.0485 96.0297 62.0032 95.8903C62.8329 95.7649 63.5362 95.2467 64.3046 94.9035C65.4162 94.4066 66.7056 94.287 67.8785 94.6262L67.8775 94.6262Z" fill="#3A285B"/>
<path d="M32.3711 83.4211C50.2218 91.1945 70.9172 82.8462 78.5955 64.7747C86.2739 46.7031 78.0276 25.7516 60.177 17.9783C42.3263 10.2049 21.6309 18.5532 13.9526 36.6248C6.27418 54.6963 14.5205 75.6478 32.3711 83.4211Z" fill="#28AEFB"/>
<path d="M40.2936 57.6427C39.7066 56.8936 39.474 55.9283 39.1556 55.0468C38.9942 54.6006 38.8111 54.1603 38.5551 53.7608C38.2826 53.3362 37.9301 53.0063 37.5459 52.6871C37.1159 52.3293 36.7183 51.9788 36.4816 51.4575C36.2863 51.0273 36.1663 50.5589 35.8984 50.1653C35.3147 49.3065 34.383 49.5176 33.5035 49.5984C33.0186 49.6429 32.5427 49.5765 32.1749 49.2273C31.8566 48.9252 31.6634 48.5122 31.4922 48.1126C31.1032 47.2041 30.7982 46.3401 30.0478 45.6618C29.289 44.9761 28.1135 44.3086 28.0562 43.1474C28.0251 42.5091 28.4784 42.0627 28.9835 41.7601C29.4841 41.4608 30.0381 41.2229 30.612 41.1202C31.1263 41.0286 31.7281 41.0498 32.1118 41.4577C32.432 41.7984 32.5325 42.3372 33.0665 42.4098C33.3018 42.4419 33.5288 42.3692 33.7606 42.3441C33.9839 42.3196 34.2048 42.3549 34.4139 42.4375C34.8133 42.5955 35.1427 42.928 35.3345 43.3122C35.5269 43.6978 35.5721 44.1267 35.4262 44.5355C35.3586 44.7252 35.6393 44.8634 35.7441 44.6893C36.573 43.312 37.9518 42.4067 39.2537 41.5362C40.4701 40.7227 41.9253 39.9047 43.4308 40.331C44.2037 40.55 44.6226 41.0941 45.1298 41.6755C45.5121 42.1136 46.0019 42.5153 46.614 42.4706C47.5604 42.4009 48.1806 41.3818 48.2268 40.4976C48.239 40.2646 48.2063 40.0413 48.1479 39.8168C48.0659 39.5026 47.9064 39.0731 48.0224 38.7509C48.1577 38.3746 48.569 38.5807 48.8216 38.6939C49.0672 38.804 49.3236 38.8923 49.5928 38.8237C50.0573 38.7052 50.2918 38.2111 50.3541 37.7692C50.4398 37.1637 50.1748 36.6613 49.8869 36.151C49.5516 35.5566 49.3212 35.0195 49.4777 34.3273C49.6008 33.7853 49.8511 33.2161 49.7251 32.6497C49.5992 32.0845 49.136 31.7738 48.6457 31.5492C48.1599 31.3265 47.4547 31.157 47.2691 30.5796C47.158 30.2342 47.2411 29.8553 47.1395 29.5061C47.0628 29.2424 46.8937 29.0211 46.6499 28.8958C46.1533 28.6404 45.5131 28.7957 45.0925 29.132C44.4171 29.6717 44.325 30.6614 44.1365 31.446C44.0956 31.6162 44.0442 31.795 43.9777 31.9699C43.6979 32.4034 43.3394 32.7842 42.9261 33.0886C42.915 33.0912 42.9057 33.0972 42.8942 33.0996C42.833 33.1132 42.7959 33.15 42.7761 33.1943C42.4699 33.3993 42.1397 33.5658 41.7875 33.6723C41.4862 33.7635 41.1458 33.8149 40.8445 33.6958C40.5678 33.5864 40.3295 33.3238 40.3582 33.0076C40.3889 32.6657 40.6423 32.3562 40.8049 32.0659C40.9553 31.7978 41.0991 31.5174 41.1776 31.218C41.2528 30.9315 41.2672 30.6318 41.1932 30.3433C41.1122 30.0279 40.9481 29.742 40.8701 29.4259C40.7371 28.8861 40.8062 28.3148 41.0227 27.8065C41.2383 27.299 41.6173 26.8488 42.0987 26.5835C42.5421 26.3388 43.0552 26.2588 43.554 26.2367C44.5145 26.1944 45.5258 26.3706 46.4611 26.0795C46.9023 25.9423 47.3444 25.6944 47.61 25.3007C47.9081 24.8587 47.915 24.274 47.4322 23.9653C47.1468 23.7827 46.7945 23.6886 46.4769 23.5795C46.1068 23.4522 45.7327 23.3359 45.3561 23.2312C44.9936 23.1305 44.6285 23.0409 44.2607 22.9612C43.8949 22.8818 43.5213 22.8107 43.1746 22.6629C42.5099 22.3798 42.1491 21.7483 41.6421 21.2676C41.116 20.7679 40.4698 20.44 39.8818 20.0256C38.609 19.1293 37.6817 17.7741 37.2299 16.2749C33.8732 17.1814 30.6604 18.5873 27.7033 20.444C27.6311 20.9388 27.5017 21.4231 27.3646 21.8504C27.0811 22.7319 26.7552 23.6033 26.6612 24.5323C26.5728 25.4113 26.6583 26.2994 26.5521 27.1771C26.3181 29.1114 25.18 30.7659 24.3348 32.4669C23.5075 34.1323 23.0596 35.9052 22.8394 37.7503C22.7282 38.6829 22.667 39.6209 22.6184 40.5586C22.5916 41.0748 22.3541 42.2061 23.0298 42.4362C23.5973 42.6293 23.9141 41.9329 23.9947 41.4846C24.1631 40.5504 24.2386 39.59 24.3583 38.6484C24.4589 37.8578 24.6612 36.5804 25.6996 36.5821C26.6059 36.5834 26.5871 37.9729 26.5465 38.598C26.4895 39.4791 26.2067 40.3454 25.7289 41.0846C25.341 41.6849 24.824 42.2285 24.604 42.9248C24.3933 43.5917 24.6297 44.185 25.1635 44.6075C25.7546 45.0761 26.4418 45.4294 27.0818 45.8235C27.7047 46.2075 28.3295 46.6141 28.8476 47.1388C29.3719 47.67 29.7132 48.2883 29.8931 49.0157C30.0462 49.6351 30.1286 50.309 30.4623 50.8641C30.8071 51.4383 31.3508 51.6174 31.9487 51.819C32.1979 51.9031 32.5698 52.0052 32.6794 52.2801C32.8492 52.7077 32.3371 52.9676 32.0282 53.1015C31.7058 53.2412 31.3756 53.3473 31.0744 53.5333C30.7831 53.713 30.5166 53.9315 30.2852 54.1855C29.8226 54.6935 29.4831 55.3239 29.3381 56.001C29.1811 56.7337 29.316 57.396 29.4385 58.1207C29.5117 58.5528 29.5333 58.982 29.329 59.3828C29.1745 59.6861 28.9564 59.9951 29.0224 60.3554C29.0888 60.7173 29.4051 60.9122 29.6246 61.1746C29.8481 61.4413 29.9878 61.7674 30.0556 62.1087C30.4034 63.8676 29.0762 65.2841 28.1036 66.5601C27.1939 67.7533 26.5336 69.1092 26.1743 70.5739C25.8281 71.9871 25.7516 73.4633 25.9488 74.9056C26.1397 76.3002 26.5804 77.812 27.3783 78.9817C27.6776 79.4207 28.2984 79.9377 28.8174 79.5162C29.2887 79.1333 28.9892 78.5126 28.783 78.0697C28.6333 77.7477 28.4532 77.4082 28.496 77.0404C28.5442 76.6267 28.8086 76.2653 29.0447 75.9387C29.4477 75.3804 29.8077 74.8653 29.7538 74.1393C29.7192 73.6779 29.4903 73.2589 29.0494 73.1495C29.0693 72.6399 29.8896 72.5751 30.2607 72.5339C30.7744 72.477 31.1481 72.3062 31.4627 71.881C31.631 71.6535 31.7777 71.4241 32.0235 71.2738C32.2242 71.151 32.4514 71.0816 32.6776 71.0255C33.133 70.9125 33.6041 70.8524 34.0337 70.6514C34.9663 70.2152 35.5284 69.2824 36.1019 68.4669C36.6409 67.7005 37.4204 66.7941 38.4386 66.815C39.3952 66.8345 40.1784 67.6499 41.1543 67.5513C42.0472 67.461 42.4452 66.65 42.6941 65.8795C42.8343 65.4461 42.9443 64.9952 43.1488 64.5866C43.3969 64.09 43.7566 63.8464 44.2522 63.6328C44.6818 63.4477 45.066 63.2227 45.2812 62.7853C45.4693 62.4029 45.5007 61.956 45.4222 61.5401C44.954 59.0712 41.6204 59.3339 40.2955 57.643L40.2936 57.6427Z" fill="#42D576"/>
<path d="M74.7501 68.4362C74.3544 68.2968 73.9897 68.0733 73.7266 67.7385C73.454 67.3916 73.3416 66.9609 73.2916 66.5283C73.2325 66.0176 73.2378 65.4968 73.2211 64.9834C73.2031 64.4424 73.1853 63.902 73.1672 63.361C73.1492 62.82 73.1306 62.2793 73.1134 61.7386C73.1029 61.409 73.1301 61.0581 73.2958 60.7655C73.4941 60.4156 73.8491 60.4786 73.9751 60.8628C74.0886 61.2098 74.0439 61.6191 74.0192 61.9774C73.9702 62.6899 73.8488 63.4026 73.8871 64.1187C73.9227 64.7833 74.1205 65.4291 74.6292 65.8788C75.285 66.4587 76.2304 66.5056 77.0472 66.3335C77.392 66.2607 77.7181 66.1528 78.0325 66.0245C78.2259 65.6126 78.4149 65.1972 78.5945 64.7746C82.2134 56.2571 82.2936 47.1003 79.4991 38.9846C79.41 38.9924 79.3206 38.9948 79.2325 38.9845C78.6263 38.9132 78.3279 38.3391 77.8766 37.998C76.9706 37.3128 75.7475 37.4738 74.7625 37.8782C73.7154 38.308 72.881 39.0888 71.9734 39.7455C71.5225 40.0718 71.0453 40.3728 70.5244 40.5711C70.047 40.7529 69.5482 40.8067 69.0427 40.8333C68.0976 40.8829 66.9299 40.8641 66.3676 41.7851C66.3181 41.8658 66.3344 41.9825 66.4185 42.0344C67.3163 42.5863 68.2145 43.1384 69.1124 43.6899C69.5553 43.9621 69.9913 44.2579 70.4484 44.5051C70.7579 44.6727 71.1012 44.7645 71.4478 44.6666C72.044 44.4979 72.4332 43.9214 72.7332 43.4125C72.9171 43.1002 73.0767 42.7737 73.2707 42.4675C73.5237 42.0678 73.8205 41.6977 74.157 41.3673C74.4848 41.0451 75.9206 39.7151 76.058 40.8222C76.1656 41.6913 75.0734 42.0353 74.6244 42.5911C74.1952 43.1226 74.115 43.8601 74.7134 44.287C74.8796 44.4054 75.0729 44.5081 75.0967 44.734C75.1186 44.941 75.0147 45.1461 74.8684 45.2847C74.5509 45.5853 74.0599 45.6786 73.6568 45.8027C72.7502 46.0814 71.8264 46.3356 70.874 46.3678C69.9173 46.4001 68.9665 46.2561 68.0126 46.2108C67.2118 46.1728 66.3895 46.2102 65.6204 46.4583C64.9283 46.6816 64.123 47.1097 63.803 47.81C63.7203 47.9911 63.6829 48.1813 63.7023 48.3804C63.7219 48.5843 63.8241 48.7892 63.8081 48.9956C63.7731 49.4399 63.1959 49.5835 62.8406 49.4902C62.3766 49.3687 62.0166 48.9863 61.6543 48.692C61.354 48.4473 61.0128 48.2337 60.629 48.1608C59.9579 48.0332 59.3903 48.4605 59.269 49.1288C59.1451 49.8119 59.4222 50.5027 59.9174 50.9656C61.1707 52.1367 63.0439 51.9634 64.509 51.3572C65.3327 51.0164 66.0972 50.5499 66.877 50.1192C67.2133 49.9331 67.6774 49.6571 68.0698 49.8216C68.3764 49.9504 68.4395 50.2733 68.4003 50.576C68.3571 50.9066 68.2142 51.2246 68.0521 51.5113C68.0056 51.5938 68.017 51.7073 68.1031 51.7607C68.6476 52.0989 69.2815 51.9191 69.8764 51.8827C70.1518 51.866 70.4748 51.8701 70.6695 52.1C70.8979 52.3699 70.8302 52.7704 70.8026 53.0951C70.7413 53.8313 70.9353 54.5035 71.4055 55.0757C71.9259 55.7084 72.6749 56.0848 73.4625 56.2483C73.8942 56.3378 74.3347 56.373 74.7755 56.3695C75.1233 56.3669 75.8793 56.2101 76.0061 56.6746C76.1029 57.0291 75.8429 57.4501 75.6364 57.7159C75.4014 58.0192 75.0881 58.2555 74.748 58.4245C73.9987 58.7971 73.1469 58.8079 72.3578 58.5591C71.4651 58.2772 70.777 57.7108 70.0768 57.1099C69.7641 56.8414 69.4171 56.5934 69.0051 56.5182C68.5949 56.4434 68.168 56.5916 67.7654 56.4645C66.8951 56.1903 66.6352 55.1453 66.5109 54.3473C66.4444 53.9228 66.4024 53.4862 66.2769 53.0737C66.1876 52.7807 65.9782 52.5312 65.6502 52.5683C65.3417 52.604 65.111 52.854 64.8548 53.0051C64.5467 53.1875 64.2029 53.1548 63.871 53.0595C63.1958 52.865 62.5927 52.5478 61.8808 52.4877C61.2066 52.4313 60.529 52.5418 59.8928 52.7688C58.5701 53.2406 57.4177 54.2233 56.6897 55.4322C56.4812 55.7787 56.3256 56.1525 56.1367 56.5097C55.9175 56.9246 55.6443 57.2414 55.2627 57.5093C54.9392 57.7365 54.6139 57.9458 54.3681 58.2645C54.1384 58.5626 53.9932 58.9229 53.9225 59.2924C53.6345 60.7924 54.415 62.3293 55.5017 63.3103C56.0634 63.8175 56.7217 64.2116 57.437 64.4506C58.2 64.7056 58.9593 64.7143 59.7537 64.6971C60.5286 64.6803 61.3711 64.7184 61.893 65.3819C62.0948 65.6381 62.2172 65.9742 62.117 66.2985C62.0063 66.6575 61.683 66.9064 61.4394 67.1719C61.2212 67.4099 61.0189 67.6803 60.9945 68.0159C60.9664 68.3997 61.2044 68.7098 61.2619 69.0753C61.3908 69.8885 60.4833 70.493 59.9781 70.9718C58.6595 72.2216 58.4733 74.02 58.6322 75.7533C58.7178 76.689 58.8854 77.6165 58.9263 78.5566C58.9584 79.296 58.8954 80.0966 59.5195 80.6167C60.0538 81.0616 60.8384 81.1338 61.4864 80.9443C62.2986 80.7066 62.9614 80.1634 63.6754 79.731C64.4113 79.2854 65.2032 78.9319 66.0265 78.6879C66.4362 78.5666 66.8512 78.4847 67.2693 78.4005C67.5861 78.3367 67.9136 78.222 68.089 77.9273C68.4397 77.3382 67.8873 76.5227 68.4718 76.0455C68.9499 75.6549 69.6785 75.5428 69.8229 74.8374C69.8976 74.4719 69.7892 74.1091 69.7301 73.7498C69.6676 73.37 69.7147 73.0019 69.9099 72.667C70.298 72.0021 71.0519 71.5977 71.7817 71.4544C72.8584 71.2429 73.9996 71.3893 75.0593 71.1895C75.6186 70.3827 76.1473 69.5471 76.6447 68.6842C76.0027 68.6947 75.3531 68.648 74.7496 68.435L74.7501 68.4362Z" fill="#42D576"/>
<path fill-rule="evenodd" clip-rule="evenodd" d="M80.2541 60.8715C79.9668 61.5475 79.6614 62.2099 79.3386 62.8583C79.0961 63.5398 78.8318 64.218 78.5453 64.8923C70.8669 82.9638 50.1716 91.3121 32.3209 83.5388C14.4702 75.7654 6.22395 54.8139 13.9023 36.7424C14.1893 36.067 14.4944 35.4051 14.8169 34.7572C8.56148 52.3396 16.8451 72.0352 34.0293 79.5183C51.8799 87.2917 72.5753 78.9434 80.2537 60.8718C87.932 42.8003 79.6858 21.8488 61.8351 14.0754C48.9028 8.44385 34.4775 11.2739 24.5904 20.1325C34.4775 11.2736 48.903 8.44343 61.8355 14.0751C79.6861 21.8485 87.9324 42.7999 80.2541 60.8715ZM23.5627 21.091C20.2636 24.2936 17.5304 28.2039 15.6107 32.7219C15.324 33.3966 15.0596 34.0753 14.8169 34.7572C14.8172 34.7567 14.8175 34.7561 14.8178 34.7555C15.0603 34.0741 15.3246 33.3958 15.6111 32.7216C17.5307 28.2037 20.2638 24.2935 23.5627 21.091Z" fill="#1B84BF" fill-opacity="0.4"/>
<path d="M63.0671 19.3988C63.0577 19.4 63.0486 19.403 63.0392 19.4042C61.9955 19.5553 60.8834 19.5978 59.982 20.2176C59.7575 20.3719 59.5406 20.5734 59.2583 20.6003C59.05 20.6202 58.8413 20.5563 58.6483 20.485C58.2592 20.341 57.8909 20.116 57.4756 20.0559C57.0694 19.9965 56.67 20.1832 56.4957 20.57C56.2717 21.0676 56.4633 21.6063 56.7614 22.021C57.0954 22.4857 57.5055 22.867 57.7914 23.3706C58.0609 23.8454 58.2557 24.3617 58.3546 24.9008C58.5632 26.0395 58.281 27.1592 57.5103 28.0228C56.6919 28.9397 55.5815 29.5172 54.7217 30.3886C53.9063 31.2147 53.3412 32.2715 53.5822 33.4656C53.6885 33.991 53.9091 34.4836 54.0981 34.9815C54.1892 35.2213 54.2733 35.4639 54.3332 35.7145C54.407 36.0257 54.4255 36.344 54.4731 36.6591C54.5496 37.1684 54.7545 37.7188 55.2471 37.9528C55.6801 38.1584 56.1476 37.9812 56.4604 37.6452C56.8267 37.252 57.0189 36.7183 57.1054 36.1922C57.1559 35.8864 57.159 35.5786 57.1282 35.2708C57.0978 34.9695 57.0273 34.6651 57.0589 34.3606C57.1238 33.7377 57.7092 33.4134 58.2709 33.3409C58.8951 33.2601 59.5224 33.4443 60.1438 33.4772C60.7029 33.5067 61.2687 33.4317 61.801 33.2559C62.3412 33.0776 62.7828 32.768 63.2779 32.5013C63.5548 32.3518 63.8216 32.2864 64.1357 32.3078C64.4174 32.3267 64.6935 32.3749 64.9762 32.3397C65.4318 32.2829 65.8451 32.0314 66.1615 31.7027C66.9695 30.8633 67.1447 29.7187 67.495 28.6493C67.6997 28.0247 67.9885 27.4521 68.4896 27.0197C68.9113 26.6564 69.4115 26.4046 69.8982 26.1453C70.3041 25.9298 70.7091 25.7027 71.0737 25.4194C68.7484 23.08 66.066 21.0441 63.0665 19.3991L63.0671 19.3988Z" fill="#42D576"/>
<path d="M77.1783 46.2344C76.99 46.5018 76.7993 46.7669 76.6137 47.0367C75.0199 49.3528 72.9081 50.8668 70.1266 51.3262C69.6042 51.4126 69.0708 51.4276 68.5424 51.4757C67.8242 51.3086 67.0771 51.2186 66.3922 50.9603C63.4548 49.8518 61.8694 47.611 61.3441 44.5386C61.1125 43.1833 61.3471 41.8439 61.5669 40.5103C61.6044 40.2815 61.7322 40.0613 61.847 39.8537C61.9478 39.6705 62.2114 39.5873 62.3929 39.6622C62.5896 39.7438 62.7838 39.8665 62.79 40.1011C62.7961 40.3368 62.7652 40.5816 62.7028 40.8094C62.1491 42.8351 62.276 44.8221 63.2392 46.673C64.3478 48.8028 66.0686 50.101 68.536 50.1759C69.1311 50.2847 69.7181 50.194 70.2957 50.0692C72.5498 49.5835 74.2829 48.3165 75.5715 46.3966C75.7811 46.0735 75.9887 45.7491 76.2011 45.4283C76.2823 45.3056 76.3602 45.1739 76.4664 45.0765C76.6234 44.9326 76.8138 44.8431 77.0309 44.9453C77.2377 45.0429 77.3512 45.2205 77.3267 45.4464C77.2984 45.7117 77.2298 45.9719 77.1783 46.2344Z" fill="#2C2853"/>
<path d="M29.2466 36.0179C29.1261 35.7762 29.003 35.5364 28.8862 35.293C28.2074 33.8807 27.9045 32.3884 28.0287 30.8097C28.0973 29.9328 28.1804 29.0574 28.4851 28.2249C28.556 28.031 28.642 27.8318 28.7657 27.6713C28.9004 27.4958 29.1123 27.4365 29.3246 27.5172C29.5282 27.5949 29.6727 27.7549 29.7003 27.9806C29.718 28.1254 29.6962 28.2819 29.664 28.4264C29.5388 28.9866 29.3549 29.5377 29.2782 30.1037C29.0577 31.7276 29.1877 33.3039 29.9998 34.7588C30.2146 35.4849 30.7129 36.0215 31.2352 36.4886C32.4986 37.6183 33.9681 38.1656 35.6807 38.0617C38.5288 37.8893 40.6681 36.4468 42.3938 34.2092C42.6134 33.9247 42.8002 33.6134 43.0124 33.3219C43.0993 33.2026 43.196 33.0755 43.3168 33.0019C43.5057 32.8871 43.7352 32.885 43.889 33.049C43.9983 33.1659 44.0959 33.3625 44.085 33.5154C44.0713 33.714 43.9731 33.9234 43.8634 34.0957C42.055 36.9248 39.6193 38.8295 36.3029 39.2053C33.7438 39.4952 31.4781 38.7532 29.7824 36.6157C29.6159 36.406 29.4262 36.2164 29.2471 36.0174L29.2466 36.0179Z" fill="#2C2853"/>
<path d="M57.5246 57.5054C56.8563 58.6249 55.826 59.4782 54.7254 60.1071C54.5748 60.1968 54.4189 60.2839 54.2594 60.3622C51.7126 61.6787 48.7322 62.1274 46.0836 61.3606C39.6081 59.4887 36.9245 56.6225 35.7731 54.5951C35.6683 54.4067 35.578 54.2316 35.4994 54.0616C34.8604 52.7247 34.4608 51.1763 34.8066 49.6767C35.1503 48.1831 36.2586 46.8053 37.6737 46.4444C37.7264 46.43 37.7848 46.4183 37.8406 46.4126C40.1746 45.9847 43.0534 49.0987 46.5833 50.2247C50.7077 51.5396 53.463 50.6352 54.8603 51.0132C55.7187 51.2465 56.5555 51.6812 57.1812 52.3246C57.5775 52.7207 57.8935 53.1998 58.0784 53.7538C58.4809 54.9633 58.2012 56.3816 57.5248 57.5049L57.5246 57.5054Z" fill="#8F2F59"/>
<path d="M57.1825 52.3254C56.8908 52.6313 56.5225 52.9273 56.046 53.2579C54.6741 54.2084 44.0634 53.2179 39.2974 49.4791C38.7236 49.0235 38.2876 48.3935 38.0806 47.6633C37.9615 47.2446 37.8823 46.8281 37.842 46.4133C40.176 45.9855 43.0548 49.0995 46.5846 50.2255C50.7091 51.5404 53.4644 50.636 54.8617 51.014C55.72 51.2473 56.5569 51.682 57.1825 52.3254Z" fill="white"/>
<path d="M54.2597 60.3629C51.7129 61.6794 48.7326 62.1281 46.0839 61.3612C39.6085 59.4894 36.9249 56.6232 35.7734 54.5958C39.2047 53.2484 43.0069 53.0902 46.4001 54.2391C49.5755 55.3119 52.3479 57.5133 54.2597 60.3629Z" fill="#F7807C"/>
<path d="M30.2115 43.3137C30.2055 43.2924 30.1846 43.2739 30.1546 43.2581C30.148 43.2334 30.1235 43.2065 30.069 43.1784C29.1859 42.7296 28.1412 42.5434 27.1305 42.4989C25.7174 42.3391 24.3131 42.5504 23.3633 43.7132C23.3426 43.739 23.3678 43.7687 23.4162 43.7981C23.4075 43.811 23.3952 43.82 23.387 43.8332C23.2687 44.0164 23.1987 44.2202 23.1519 44.4283C22.8626 45.207 23.0376 46.0865 23.4925 46.7887C24.1044 47.7329 25.1383 48.2989 26.1477 48.7085C27.927 49.4314 30.6456 49.9196 32.1102 48.2798C33.5987 46.6123 31.8142 44.1473 30.2118 43.3145L30.2115 43.3137Z" fill="#F9D1E1"/>
<path d="M60.1355 60.5908C60.3519 62.7911 62.8259 64.0316 64.6818 64.5199C65.7341 64.7969 66.8984 64.9628 67.9439 64.5709C68.722 64.2792 69.3785 63.677 69.6022 62.8759C69.6866 62.6803 69.7496 62.4737 69.7624 62.2553C69.7634 62.2399 69.7587 62.2247 69.759 62.2097C69.8149 62.215 69.8527 62.2061 69.8512 62.1732C69.7684 60.6668 68.7633 59.6526 67.532 58.932C66.6925 58.3603 65.7423 57.8822 64.7689 57.7131C64.7081 57.7027 64.6725 57.7092 64.653 57.7255C64.6197 57.7197 64.5926 57.7222 64.5747 57.7359C62.7968 57.443 59.9151 58.3542 60.1349 60.5906L60.1355 60.5908Z" fill="#F9D1E1"/>
<path d="M26.8755 44.0203C26.8882 43.959 26.8884 43.8991 26.8803 43.8416C26.9253 43.7181 26.8956 43.5736 26.7759 43.503C26.61 43.4052 26.4164 43.3386 26.2271 43.304C25.9993 43.2628 25.7765 43.2597 25.5479 43.2972C25.5245 43.3012 25.5045 43.3127 25.4847 43.325C25.3963 43.3421 25.3117 43.3734 25.2421 43.4352C25.1297 43.5362 25.0613 43.7148 25.1146 43.863C25.1153 43.8645 25.1165 43.8663 25.1171 43.8678C25.095 43.9645 25.1246 44.071 25.2155 44.1244C25.4179 44.2419 25.6306 44.3477 25.8501 44.4278C26.0519 44.5009 26.2827 44.5375 26.4876 44.4584C26.6747 44.3866 26.8337 44.2221 26.8752 44.0195L26.8755 44.0203Z" fill="white"/>
<path d="M68.3322 60.8623C68.3836 60.6071 68.204 60.4136 67.9935 60.3055C67.9845 60.295 67.9756 60.2826 67.9669 60.2728C67.7621 60.0477 67.4688 59.909 67.1666 59.9019C67.1326 59.9009 67.1015 59.9087 67.0731 59.9207C66.9622 59.8852 66.8247 59.9723 66.7981 60.0822C66.7937 60.1 66.7958 60.1153 66.7949 60.132C66.7827 60.1537 66.7683 60.1731 66.7594 60.1973C66.7056 60.345 66.734 60.5235 66.8153 60.6557C66.9003 60.7944 67.0294 60.8889 67.1745 60.9551C67.2285 60.9798 67.2851 60.9993 67.3407 61.0215C67.4452 61.1024 67.5628 61.1639 67.6925 61.1911C67.7472 61.2028 67.8053 61.2059 67.8637 61.2033C67.9385 61.213 68.0106 61.2008 68.077 61.1585C68.2014 61.1066 68.3022 61.0113 68.3318 60.8616L68.3322 60.8623Z" fill="white"/>
<path d="M24.6411 83.6114C25.6335 82.9142 27.0099 82.9562 28.1034 83.4789C29.1963 84.0013 30.0435 84.9369 30.7307 85.9396C32.0751 87.9007 32.9247 90.2988 32.6307 92.6632C32.3365 95.0273 30.7317 97.2935 28.4518 97.9352C27.1286 93.1344 25.8054 88.3335 24.6413 83.6119L24.6411 83.6114Z" fill="#E1DDE8"/>
<path d="M29.8888 97.6964C29.246 99.4932 27.5813 100.774 25.7257 101.243C25.2578 101.36 24.7767 101.426 24.2979 101.44C21.9231 101.497 19.6307 100.352 17.8891 98.7198C16.1526 97.0863 14.9037 94.9967 13.8247 92.8585C12.3428 89.9216 10.9692 87.3361 10.4582 84.4865C9.94812 81.642 10.2674 78.5235 11.9423 76.1731C12.2464 75.746 12.5924 75.3537 12.9757 74.9984C14.6992 73.3925 17.1278 72.5475 19.4713 72.8215C22.3268 73.1608 24.9349 75.1499 26.0256 77.8281C27.1819 80.659 26.683 83.9009 27.4324 86.8699C27.8929 88.7012 28.8163 90.3802 29.4767 92.1535C30.1372 93.9268 30.5286 95.9164 29.889 97.6969L29.8888 97.6964Z" fill="white"/>
<path opacity="0.4" d="M27.2992 97.1941C27.4279 98.4101 27.0847 99.6855 26.3148 100.64C26.1355 100.863 25.9371 101.063 25.725 101.244C25.2572 101.361 24.776 101.427 24.2973 101.44C21.9225 101.498 19.63 100.353 17.8885 98.7206C16.152 97.0871 14.9031 94.9975 13.824 92.8593C12.3422 89.9224 10.9686 87.3369 10.4575 84.4873C9.94746 81.6427 10.2668 78.5242 11.9416 76.1739C12.2457 75.7467 12.5917 75.3545 12.975 74.9991C13.2256 74.8962 13.4884 74.8069 13.7549 74.7382C15.9593 74.1608 18.4482 74.8955 19.9924 76.5699C21.0522 77.7219 21.6527 79.2153 22.1188 80.7142C22.9816 83.5075 23.4311 86.4299 23.4574 89.3569C23.4634 90.3244 23.4371 91.3545 23.9247 92.1923C24.3525 92.9186 25.0941 93.3795 25.6993 93.9668C26.5751 94.8163 27.1704 95.9736 27.2996 97.195L27.2992 97.1941Z" fill="#3A285B"/>
<path d="M86.2065 40.7856C86.6808 40.5047 87.213 40.5125 87.7324 40.4831C89.167 40.4019 90.5616 40.6525 91.9332 41.0399C93.7453 41.5521 95.4927 42.2395 97.2416 42.9377C99.4259 43.8095 101.522 44.8591 103.635 45.878C105.75 46.8981 107.76 48.1026 109.71 49.4152C111.329 50.5042 112.886 51.665 114.23 53.089C115.53 54.4665 116.5 56.0339 116.771 57.9633C116.946 59.2081 116.885 60.4515 116.645 61.6833C116.388 63.0011 115.981 64.2712 115.488 65.5229C115.133 66.4235 114.784 67.3246 114.325 68.1733C113.035 70.5582 111.602 72.8504 109.862 74.9355C109.786 75.0269 109.671 75.086 109.574 75.1601C109.214 75.0863 108.857 75.0014 108.495 74.941C107.071 74.7023 105.636 74.5251 104.226 74.2243C102.61 73.8796 101.001 73.5083 99.422 72.9895C98.0767 72.5473 96.7456 72.0996 95.4834 71.4529C94.742 71.073 94 70.686 93.2315 70.3683C92.4515 70.0456 91.7765 69.5448 91.1214 69.057C89.445 67.8087 87.8678 66.4363 86.4648 64.862C84.9031 63.1093 83.6595 61.1891 82.9382 58.9286C82.5105 57.5877 82.2933 56.2212 82.2274 54.8189C82.1657 53.5064 82.312 52.2127 82.5078 50.9189C82.7908 49.0448 83.1717 47.1986 83.9505 45.4566C84.0135 45.316 84.0618 45.1656 84.0951 45.0151C84.32 43.9948 84.8995 43.1341 85.3403 42.2112C85.7865 41.8334 85.9303 41.2695 86.2061 40.7865L86.2065 40.7856Z" fill="#FFECE9"/>
<path d="M86.2075 40.7853C85.9317 41.2683 85.7879 41.8322 85.3417 42.21C84.9009 43.1329 84.3216 43.9932 84.0965 45.014C84.0632 45.1644 84.0149 45.3149 83.9519 45.4554C83.1728 47.1979 82.7922 49.0437 82.5092 50.9177C82.3138 52.2118 82.1677 53.505 82.2288 54.8177C82.2945 56.2205 82.5121 57.5872 82.9395 58.9274C83.6604 61.1877 84.9045 63.1082 86.4662 64.8608C87.8687 66.4349 89.446 67.8073 91.1227 69.0558C91.7779 69.5436 92.4529 70.0444 93.2329 70.3671C94.0012 70.6853 94.7434 71.0718 95.4848 71.4517C96.747 72.0985 98.0785 72.5463 99.4234 72.9884C101.002 73.5071 102.611 73.8782 104.227 74.2232C105.637 74.5239 107.073 74.7013 108.496 74.9399C108.858 75.0005 109.216 75.0851 109.575 75.1589C108.121 77.028 106.396 78.5583 104.22 79.5225C102.891 80.1119 101.492 80.3138 100.055 80.2623C98.0638 80.1905 96.1387 79.7551 94.263 79.1158C92.1273 78.3886 90.0618 77.4839 88.0507 76.4598C86.7576 75.801 85.4776 75.1147 84.2104 74.4065C83.776 74.1637 83.3729 74.1003 82.8881 74.2118C81.8033 74.4604 80.7097 74.6716 79.6156 74.8757C78.5194 75.0806 77.4131 75.1955 76.297 75.1706C75.578 75.1544 74.891 75.0124 74.248 74.6685C73.2199 74.1184 72.8513 73.1832 73.2619 72.0774C73.5815 71.2167 74.1089 70.4855 74.7148 69.8098C75.1486 69.3258 75.5964 68.8543 76.0563 68.3576C76.0053 68.2332 75.9816 68.1052 75.9114 68.0138C74.1715 65.7454 73.8037 63.1634 74.233 60.4014C74.4493 59.0116 74.8033 57.6504 75.2954 56.3376C75.8968 54.7335 76.5146 53.1288 77.2459 51.582C77.9906 50.0074 78.8779 48.5009 79.7112 46.9687C80.3383 45.8154 81.0954 44.7494 81.9356 43.7456C82.7395 42.7861 83.6437 41.9355 84.7429 41.323C85.2011 41.0675 85.6689 40.8223 86.2074 40.7831L86.2075 40.7853Z" fill="#FFE3DF"/>
<g filter="url(#filter0_d_2199_118305)">
<path fill-rule="evenodd" clip-rule="evenodd" d="M87.774 53.3422C86.9325 53.6402 86.2753 54.3377 86.4668 55.2134C86.5061 55.3933 86.5601 55.5896 86.6331 55.8018C86.7024 56.0033 86.7763 56.1828 86.8516 56.3422C87.2395 57.1631 88.2009 57.3021 89.0533 57.0002L89.5245 56.8333C94.329 55.1317 99.1306 57.8325 100.795 62.6725L100.864 62.8741C101.125 63.6325 101.722 64.229 102.505 64.0696C102.721 64.0257 102.967 63.959 103.244 63.8607C103.531 63.7589 103.771 63.6522 103.971 63.547C104.669 63.1792 104.765 62.3503 104.507 61.6009L104.433 61.384C102.072 54.52 94.6354 50.9119 87.8219 53.3252L87.774 53.3422ZM89.202 58.8355C88.6187 59.0421 88.1572 59.5112 88.2289 60.1284C88.2611 60.405 88.3313 60.7402 88.4664 61.133C88.6005 61.5229 88.7498 61.828 88.8933 62.0642C89.2154 62.5945 89.8682 62.6734 90.4509 62.467C92.5952 61.7076 94.9357 62.8431 95.6786 65.0033C95.882 65.5949 96.3414 66.0677 96.9591 65.9853C97.2287 65.9493 97.5584 65.8744 97.9521 65.735C98.3489 65.5945 98.6545 65.4437 98.8883 65.3006C99.4204 64.9751 99.487 64.3187 99.2834 63.7265C97.8508 59.5607 93.3372 57.3709 89.202 58.8355ZM92.3366 69.0778C93.5582 68.6451 94.2054 67.2968 93.7822 66.0661C93.359 64.8355 92.0256 64.1886 90.804 64.6213C89.5825 65.0539 88.9352 66.4023 89.3584 67.6329C89.7816 68.8636 91.115 69.5104 92.3366 69.0778Z" fill="#7F8EC1"/>
<path d="M99.2458 69.2797C99.4957 70.0293 99.4596 70.8763 98.7548 71.2278C98.6267 71.2917 98.4803 71.3544 98.313 71.4136C98.1457 71.4729 97.9927 71.5163 97.8533 71.5471C97.086 71.717 96.5385 71.0767 96.2746 70.3321C95.4997 68.1459 93.8051 63.3556 92.9334 60.8207C92.0617 58.2859 90.4513 53.4657 89.7176 51.265C89.4677 50.5154 89.5037 49.6684 90.2086 49.3169C90.3366 49.253 90.483 49.1903 90.6503 49.1311C90.8176 49.0718 90.9707 49.0284 91.1101 48.9976C91.8774 48.8277 92.4249 49.468 92.6888 50.2126C93.4637 52.3988 95.1583 57.1891 96.03 59.724C96.9017 62.2588 98.512 67.079 99.2458 69.2797Z" fill="#5A669F"/>
</g>
<defs>
<filter id="filter0_d_2199_118305" x="81.416" y="46.6653" width="26.8184" height="28.0181" filterUnits="userSpaceOnUse" color-interpolation-filters="sRGB">
<feFlood flood-opacity="0" result="BackgroundImageFix"/>
<feColorMatrix in="SourceAlpha" type="matrix" values="0 0 0 0 0 0 0 0 0 0 0 0 0 0 0 0 0 0 127 0" result="hardAlpha"/>
<feOffset dy="1"/>
<feComposite in2="hardAlpha" operator="out"/>
<feColorMatrix type="matrix" values="0 0 0 0 0.352941 0 0 0 0 0.4 0 0 0 0 0.623529 0 0 0 1 0"/>
<feBlend mode="normal" in2="BackgroundImageFix" result="effect1_dropShadow_2199_118305"/>
<feBlend mode="normal" in="SourceGraphic" in2="effect1_dropShadow_2199_118305" result="shape"/>
</filter>
</defs>
</svg>
