<svg width="120" height="124" viewBox="0 0 120 124" fill="none" xmlns="http://www.w3.org/2000/svg">
<g clip-path="url(#clip0_2143_171365)">
<g filter="url(#filter0_d_2143_171365)">
<path d="M60 120C93.1371 120 120 93.1371 120 60C120 26.8629 93.1371 0 60 0C26.8629 0 0 26.8629 0 60C0 93.1371 26.8629 120 60 120Z" fill="#FFFCFE"/>
</g>
<path d="M60.241 116.796C91.5871 116.796 116.89 91.3216 116.756 59.8978C116.623 28.474 91.1032 3 59.7571 3C28.411 3 3.10832 28.474 3.24194 59.8978C3.37555 91.3216 28.8949 116.796 60.241 116.796Z" fill="#28AEFB"/>
<path d="M55.5681 73.9074C54.2235 73.1833 53.2657 71.9154 52.2342 70.8254C51.7119 70.2739 51.1609 69.7448 50.5283 69.3222C49.8553 68.8731 49.1242 68.6144 48.3529 68.3915C47.4893 68.1413 46.6783 67.881 45.9968 67.2673C45.4344 66.7608 44.9591 66.1501 44.3126 65.7438C42.903 64.8566 41.6591 65.7617 40.4097 66.4422C39.7208 66.8175 38.9746 67.0241 38.2085 66.7468C37.5457 66.5067 36.9973 66.0243 36.49 65.5473C35.3368 64.4627 34.3364 63.3899 32.7952 62.874C31.2368 62.3527 29.0737 62.1243 28.2505 60.4571C27.7987 59.5404 28.1852 58.5957 28.74 57.8289C29.29 57.0699 29.9582 56.3668 30.7418 55.8494C31.4443 55.3863 32.3479 55.0329 33.1748 55.3863C33.865 55.6816 34.3563 56.408 35.1923 56.1733C35.5607 56.07 35.8503 55.8183 36.1773 55.6334C36.4919 55.4547 36.8411 55.3654 37.2029 55.3529C37.8941 55.3296 38.5927 55.607 39.1208 56.0482C39.6505 56.4911 39.9901 57.0916 40.0342 57.7846C40.0549 58.1062 40.5579 58.1295 40.6023 57.8071C40.9526 55.2566 42.4164 53.0471 43.7884 50.9379C45.0703 48.9669 46.7026 46.8367 49.2005 46.5003C50.4831 46.3278 51.4486 46.8584 52.5684 47.3875C53.4125 47.786 54.3924 48.0626 55.2693 47.6058C56.6248 46.8988 56.8942 45.0071 56.4003 43.6802C56.2702 43.3306 56.0798 43.0237 55.8507 42.7316C55.5297 42.323 55.0206 41.7947 54.9873 41.2477C54.9481 40.6091 55.6876 40.6488 56.1332 40.6534C56.5665 40.6581 57.0018 40.6239 57.3564 40.3512C57.9682 39.8804 58.0009 39.0056 57.8119 38.3173C57.5537 37.3742 56.8422 36.8063 56.092 36.2415C55.2181 35.5834 54.5357 34.9425 54.3272 33.8269C54.1646 32.9529 54.1727 31.9577 53.6263 31.2072C53.0806 30.4583 52.198 30.2983 51.33 30.282C50.4697 30.2656 49.319 30.4676 48.6773 29.7389C48.2934 29.3031 48.1753 28.694 47.803 28.2465C47.5218 27.9086 47.131 27.6918 46.6907 27.6638C45.7938 27.6063 44.9456 28.2434 44.5374 29.0055C43.8815 30.2291 44.3747 31.7402 44.5947 33.0119C44.6424 33.2877 44.6801 33.583 44.693 33.8821C44.5546 34.697 44.2666 35.4848 43.8488 36.1956C43.8341 36.2065 43.8241 36.2213 43.8087 36.2321C43.7268 36.2912 43.6953 36.3689 43.6941 36.4466C43.3715 36.943 42.9891 37.3983 42.5358 37.7797C42.1482 38.106 41.6774 38.3989 41.156 38.4168C40.6771 38.4331 40.1577 38.2 39.9991 37.7175C39.8271 37.1963 40.0051 36.5802 40.0609 36.0503C40.1131 35.5609 40.1474 35.0575 40.0732 34.568C40.0023 34.0996 39.833 33.6505 39.54 33.2745C39.2197 32.8635 38.7952 32.5489 38.4788 32.1348C37.9388 31.4278 37.6777 30.5453 37.6747 29.6612C37.671 28.7787 37.9453 27.8759 38.4887 27.179C38.9889 26.5366 39.6969 26.0914 40.4208 25.7403C41.8144 25.0644 43.4224 24.6767 44.6207 23.652C45.186 23.1688 45.6823 22.5224 45.8248 21.775C45.9847 20.936 45.623 20.0736 44.7126 19.9291C44.1744 19.8437 43.5936 19.9307 43.0544 19.9734C42.4261 20.0231 41.7986 20.0915 41.1752 20.1785C40.5749 20.2624 39.9779 20.3642 39.3832 20.4823C38.7916 20.5996 38.1939 20.734 37.5871 20.7386C36.4239 20.748 35.4887 20.0519 34.4331 19.6704C33.3372 19.2734 32.1729 19.2051 31.0397 18.9728C28.5871 18.4709 26.3539 17.0748 24.7322 15.1637C20.3437 18.6387 16.4856 22.7547 13.2922 27.3686C13.5001 28.1408 13.6166 28.934 13.6855 29.6488C13.8267 31.1233 13.8989 32.6103 14.3505 34.0335C14.7786 35.3799 15.4698 36.6284 15.8708 37.984C16.7546 40.9719 16.1232 44.1269 15.9548 47.163C15.79 50.1354 16.2549 53.023 17.1024 55.8711C17.5309 57.3107 18.0368 58.7262 18.5613 60.1331C18.8497 60.9077 19.2178 62.7194 20.3636 62.6254C21.3258 62.5461 21.3516 61.3218 21.1858 60.6125C20.8408 59.134 20.3417 57.6766 19.9202 56.2184C19.5662 54.994 19.0532 52.9904 20.5902 52.3293C21.9316 51.7521 22.7873 53.803 23.1246 54.7462C23.6006 56.0754 23.7331 57.5275 23.4965 58.9173C23.3045 60.0461 22.8854 61.1742 23.0027 62.3364C23.1151 63.4497 23.842 64.1691 24.9003 64.448C26.0726 64.758 27.3136 64.8372 28.5109 65.0066C29.6764 65.172 30.8591 65.3694 31.9591 65.8083C33.0723 66.2527 33.9703 66.9418 34.6989 67.8943C35.3193 68.7053 35.8696 69.6415 36.7161 70.2428C37.5914 70.8651 38.5093 70.7804 39.5219 70.6942C39.9441 70.6584 40.559 70.5706 40.896 70.9039C41.419 71.4229 40.8268 72.1314 40.455 72.5253C40.0669 72.9363 39.6461 73.303 39.3187 73.7683C39.0021 74.2181 38.7469 74.7091 38.5663 75.2296C38.2049 76.2707 38.1036 77.4127 38.3198 78.4988C38.5534 79.6742 39.1741 80.5599 39.8161 81.545C40.1991 82.1323 40.5039 82.7484 40.4566 83.467C40.421 84.0108 40.2948 84.6036 40.6216 85.0899C40.95 85.5786 41.5416 85.6625 42.0332 85.9072C42.5334 86.1558 42.9473 86.545 43.2647 87.0026C44.8975 89.3612 43.8351 92.2878 43.2079 94.7816C42.6211 97.1138 42.5066 99.5253 42.9065 101.904C43.2929 104.199 44.1184 106.414 45.3273 108.404C46.4964 110.329 48.1096 112.265 50.0336 113.472C50.7555 113.925 52.0024 114.287 52.5021 113.337C52.9556 112.474 52.1179 111.754 51.5314 111.236C51.1051 110.859 50.623 110.476 50.4524 109.909C50.2606 109.271 50.4219 108.572 50.5634 107.942C50.8044 106.865 51.0095 105.879 50.468 104.849C50.1235 104.194 49.5186 103.725 48.7968 103.846C48.5022 103.086 49.6744 102.467 50.197 102.169C50.9206 101.757 51.3649 101.268 51.5598 100.443C51.6641 100.002 51.7351 99.5711 52.0032 99.1936C52.222 98.8851 52.5139 98.6381 52.8128 98.4112C53.4146 97.9544 54.0732 97.5652 54.5807 96.9957C55.6828 95.7597 55.9211 94.0319 56.2508 92.4688C56.5608 90.9997 57.1373 89.1717 58.6567 88.5517C60.084 87.9691 61.7609 88.6652 63.1417 87.8968C64.4051 87.1937 64.4779 85.7495 64.3562 84.4599C64.288 83.7343 64.164 83.0024 64.2066 82.2721C64.2579 81.3849 64.6351 80.7976 65.2322 80.1676C65.7499 79.6214 66.1753 79.0457 66.2153 78.2665C66.2504 77.5852 66.0127 76.9093 65.6321 76.3491C63.3698 73.0256 58.6059 75.5412 55.5712 73.9066L55.5681 73.9074Z" fill="#42D576"/>
<path d="M113.399 67.7278C112.725 67.776 112.043 67.6812 111.441 67.358C110.817 67.0232 110.377 66.463 110.028 65.8602C109.616 65.1485 109.292 64.381 108.941 63.6383C108.571 62.8559 108.201 62.0744 107.83 61.2921C107.459 60.5097 107.088 59.7282 106.719 58.9459C106.494 58.4688 106.311 57.9367 106.37 57.4014C106.441 56.7612 107.006 56.6268 107.436 57.1101C107.825 57.5467 108.019 58.176 108.211 58.7174C108.591 59.7942 108.865 60.9176 109.377 61.9439C109.852 62.8963 110.555 63.7175 111.594 64.0523C112.932 64.4843 114.36 63.949 115.459 63.1745C115.923 62.8474 116.337 62.4807 116.72 62.0915C116.744 61.3635 116.76 60.6333 116.756 59.8983C116.693 45.0877 110.99 31.6001 101.696 21.4773C101.569 21.5456 101.438 21.6062 101.301 21.6474C100.359 21.9302 99.5528 21.2784 98.6684 21.0663C96.8927 20.6398 95.1859 21.6575 93.986 22.8803C92.7106 24.1801 91.973 25.8589 91.048 27.4026C90.5886 28.1694 90.0741 28.916 89.4297 29.5398C88.8393 30.1116 88.1358 30.5094 87.4049 30.8714C86.0385 31.5481 84.2994 32.2667 84.0533 33.9774C84.0314 34.1274 84.1298 34.2882 84.2872 34.3107C85.966 34.5469 87.6456 34.7831 89.3244 35.0185C90.1525 35.135 90.9855 35.2904 91.8189 35.3611C92.3833 35.4092 92.9494 35.3245 93.3997 34.9594C94.1743 34.3309 94.3835 33.2363 94.5035 32.2978C94.577 31.7221 94.6056 31.141 94.6977 30.5677C94.8177 29.8195 95.0215 29.0869 95.3091 28.3869C95.5891 27.7048 96.8672 24.8358 97.7742 26.3724C98.4861 27.579 97.0893 28.7816 96.7786 29.884C96.4817 30.9382 96.8321 32.0717 97.9886 32.3157C98.3098 32.3833 98.6609 32.4104 98.8398 32.7266C99.0037 33.0164 98.9805 33.3839 98.8523 33.6806C98.5738 34.3247 97.9069 34.7753 97.3895 35.215C96.2259 36.2032 95.021 37.1665 93.6327 37.8222C92.2383 38.481 90.7404 38.8773 89.3005 39.4203C88.0919 39.8763 86.8994 40.4567 85.9196 41.312C85.0379 42.0819 84.119 43.2247 84.0909 44.4569C84.0837 44.7754 84.1494 45.0784 84.3048 45.3581C84.4633 45.6447 84.7448 45.8801 84.8524 46.1932C85.0831 46.8676 84.3206 47.4471 83.7359 47.5372C82.9723 47.6553 82.1967 47.3244 81.4736 47.1239C80.8738 46.9569 80.2333 46.8614 79.6193 46.9996C78.5455 47.2413 77.9778 48.231 78.2233 49.2891C78.4743 50.3706 79.3234 51.2073 80.3502 51.5701C82.9487 52.4876 85.6092 51.0363 87.3908 49.2107C88.3924 48.1844 89.2267 47.0113 90.1061 45.8809C90.4853 45.393 90.9961 44.6915 91.6811 44.6822C92.2166 44.6752 92.5153 45.1087 92.6498 45.5779C92.7961 46.0907 92.7869 46.6485 92.7294 47.1729C92.713 47.3236 92.802 47.4829 92.9633 47.5062C93.9838 47.6545 94.8071 46.9856 95.6639 46.5521C96.0606 46.3517 96.541 46.1513 96.9751 46.3641C97.4846 46.6143 97.6392 47.2451 97.8048 47.7392C98.1823 48.8587 98.8966 49.7211 99.956 50.2602C101.128 50.8561 102.475 50.9299 103.744 50.6666C104.44 50.5221 105.114 50.2921 105.763 50.0054C106.276 49.7793 107.294 49.0662 107.778 49.6667C108.146 50.1251 108.029 50.9089 107.893 51.431C107.738 52.0261 107.425 52.573 107.029 53.0384C106.158 54.0639 104.905 54.624 103.58 54.7631C102.08 54.92 100.702 54.5285 99.2841 54.0942C98.6509 53.9 97.98 53.7578 97.3227 53.9108C96.6685 54.0631 96.1312 54.5533 95.455 54.624C93.9932 54.7779 92.9443 53.4105 92.253 52.319C91.8848 51.7387 91.5451 51.1249 91.0972 50.5997C90.7787 50.2268 90.3104 49.9945 89.8488 50.2587C89.4151 50.5081 89.2329 51.0224 88.9501 51.4077C88.6103 51.8723 88.081 52.044 87.5295 52.1162C86.4072 52.2623 85.3134 52.1823 84.2223 52.5489C83.1891 52.897 82.2571 53.4921 81.4605 54.2317C79.8039 55.7692 78.7244 57.9476 78.4162 60.1866C78.3282 60.8283 78.3356 61.4762 78.2834 62.121C78.223 62.8699 78.0204 63.5093 77.6263 64.1463C77.2923 64.6863 76.9442 65.2014 76.7833 65.826C76.6331 66.4102 76.6474 67.0317 76.7778 67.619C77.3056 70.0041 79.4373 71.7606 81.6685 72.5057C82.8217 72.891 84.0461 73.0487 85.2561 72.9423C86.5467 72.8289 87.6754 72.3565 88.8394 71.8236C89.9749 71.3038 91.2453 70.8214 92.4392 71.4616C92.9006 71.7086 93.2952 72.1235 93.3533 72.6634C93.4179 73.2608 93.0979 73.8326 92.9065 74.378C92.735 74.8667 92.6078 75.3926 92.7851 75.9007C92.9875 76.4818 93.5367 76.7848 93.8543 77.2843C94.5619 78.3953 93.6041 79.8621 93.1613 80.8875C92.0056 83.5639 92.8737 86.3219 94.2108 88.7636C94.9325 90.082 95.7702 91.3359 96.4285 92.6892C96.946 93.7536 97.3619 94.9687 98.6158 95.333C99.6889 95.6445 100.895 95.2491 101.733 94.5569C102.784 93.6891 103.419 92.4686 104.2 91.3779C105.005 90.2537 105.951 89.229 107.014 88.3449C107.543 87.9052 108.105 87.5198 108.669 87.1291C109.097 86.8331 109.509 86.4555 109.581 85.9109C109.725 84.8225 108.389 83.9788 108.951 82.9051C109.409 82.0265 110.416 81.3964 110.181 80.2691C110.059 79.6849 109.668 79.2219 109.352 78.7324C109.018 78.215 108.854 77.6448 108.929 77.0287C109.081 75.8051 109.939 74.7299 110.927 74.0533C112.385 73.055 114.166 72.5406 115.607 71.5703C115.921 70.029 116.171 68.4651 116.358 66.881C115.416 67.3067 114.425 67.6532 113.397 67.7263L113.399 67.7278Z" fill="#42D576"/>
<path fill-rule="evenodd" clip-rule="evenodd" d="M116.725 53.1102C116.73 54.2824 116.7 55.4464 116.635 56.601C116.635 56.6031 116.635 56.6052 116.635 56.6072C114.96 86.4024 90.3862 110.008 60.2118 110.008C30.0387 110.008 5.26415 86.4046 3.33295 56.6114C3.26817 57.7661 3.23778 58.93 3.24279 60.1022C3.37702 91.526 28.8965 117 60.2422 117C91.5879 117 116.89 91.526 116.756 60.1022C116.751 58.9286 116.71 57.7632 116.635 56.6072C116.7 55.4505 116.731 54.2845 116.726 53.1102C116.592 21.6864 91.0723 -3.7876 59.7264 -3.7876C59.7263 -3.7876 59.7261 -3.7876 59.726 -3.7876C91.0717 -3.7876 116.591 21.6864 116.725 53.1102Z" fill="#1B84BF" fill-opacity="0.4"/>
<path d="M64.9345 3.23755C64.9213 3.24532 64.9098 3.25543 64.8966 3.2632C63.4489 4.15196 61.8309 4.92496 60.8918 6.41038C60.6578 6.78017 60.4651 7.21445 60.0646 7.43431C59.7693 7.59668 59.4199 7.6363 59.0891 7.65494C58.422 7.69223 57.7342 7.59745 57.0817 7.77458C56.4431 7.94705 55.971 8.47612 55.9592 9.15512C55.9443 10.0283 56.5702 10.6965 57.2749 11.1144C58.0643 11.5829 58.9134 11.8804 59.6566 12.4367C60.3571 12.9611 60.9736 13.5943 61.4626 14.3222C62.4952 15.8597 62.7897 17.683 62.1989 19.4427C61.5714 21.3111 60.2962 22.868 59.5786 24.696C58.8978 26.4292 58.7339 28.3412 59.8497 29.9392C60.3409 30.6423 60.9804 31.2242 61.5767 31.8341C61.8639 32.1277 62.1426 32.4299 62.3904 32.7593C62.6975 33.1688 62.9273 33.624 63.1981 34.056C63.635 34.7544 64.2881 35.4311 65.1655 35.4598C65.9367 35.4847 66.5155 34.9261 66.7644 34.2331C67.0562 33.422 67.0012 32.5162 66.7947 31.6888C66.6748 31.2079 66.4838 30.7542 66.2425 30.3222C66.0059 29.8996 65.7081 29.498 65.5612 29.0311C65.2611 28.0755 65.9209 27.2256 66.7055 26.7602C67.5774 26.2428 68.6223 26.1123 69.5624 25.7634C70.4081 25.4496 71.1974 24.978 71.8729 24.3798C72.5585 23.7731 73.0149 23.0366 73.5776 22.3288C73.8921 21.9326 74.2452 21.6661 74.7234 21.4968C75.152 21.3445 75.591 21.2389 75.9868 21.0066C76.6246 20.6321 77.076 19.9989 77.335 19.3145C77.9964 17.5665 77.5276 15.775 77.3658 13.9819C77.2714 12.9347 77.3345 11.91 77.8008 10.9552C78.1934 10.1526 78.7733 9.46353 79.3283 8.7721C79.7916 8.19643 80.2463 7.60445 80.6054 6.95575C75.6784 5.00886 70.4164 3.73554 64.9337 3.23833L64.9345 3.23755Z" fill="#42D576"/>
<path d="M62.7699 46.8206C63.2351 45.6584 63.3602 44.5196 63.2855 43.3554C63.2628 43.0114 63.3208 42.7195 63.6213 42.5035C64.1673 42.1109 64.7898 42.3017 64.8973 42.9482C65.0577 43.9104 65.0208 44.8866 64.8098 45.8346C64.601 46.7721 64.3328 47.69 63.8938 48.5681C63.4439 49.4678 62.8133 50.1819 62.0353 50.7647C60.8948 51.6179 59.5806 51.8905 58.2287 51.4449C57.5959 51.236 57.0206 50.7806 56.4902 50.3493C55.5332 49.5705 54.9356 48.5168 54.5539 47.3639C54.2935 46.5793 54.1286 45.7587 53.9793 44.9436C53.9151 44.5926 53.9659 44.2093 54.0277 43.8508C54.0973 43.4487 54.3631 43.2291 54.6626 43.2295C55.1203 43.2307 55.4917 43.4985 55.5749 43.9211C55.6185 44.1447 55.6051 44.3798 55.6262 44.6081C55.7331 45.7743 56.0809 46.8678 56.6456 47.8905C57.1797 48.8582 57.9298 49.5667 59.0353 49.8534C59.7583 50.0411 60.3956 49.9197 60.9922 49.4646C61.9098 48.7632 62.4921 47.8494 62.7711 46.8195L62.7699 46.8206Z" fill="#2C2854"/>
<path d="M25.2454 58.8017C25.2342 58.7862 25.2116 58.7776 25.1825 58.7738C25.1697 58.7558 25.1418 58.7414 25.0889 58.735C24.2353 58.6368 23.3283 58.7993 22.4912 59.0663C21.2918 59.3606 20.2102 59.9524 19.7828 61.1773C19.7737 61.2044 19.8031 61.2208 19.8514 61.2301C19.8481 61.2431 19.8408 61.2541 19.838 61.2672C19.7963 61.4508 19.7999 61.6366 19.8238 61.8188C19.8203 62.5352 20.2252 63.1939 20.8054 63.6253C21.5858 64.2054 22.5973 64.3531 23.5422 64.3818C25.2081 64.4331 27.5695 64.0129 28.2742 62.2481C28.9901 60.4536 26.8003 58.9954 25.2459 58.8022L25.2454 58.8017Z" fill="#F9D1E1"/>
<path d="M93.0833 59.466C93.916 61.1803 96.3024 61.4418 97.9607 61.2804C98.901 61.189 99.8995 60.9741 100.635 60.3439C101.182 59.8749 101.537 59.1911 101.481 58.4763C101.491 58.2929 101.481 58.107 101.426 57.9265C101.423 57.9137 101.414 57.9029 101.41 57.8906C101.457 57.8782 101.485 57.8596 101.474 57.8336C100.957 56.6403 99.8357 56.1214 98.6172 55.9078C97.7624 55.6972 96.8453 55.5954 96.0015 55.7504C95.9488 55.7602 95.9218 55.7762 95.9108 55.7952C95.8819 55.8005 95.8605 55.8106 95.8501 55.8271C94.3136 56.1231 92.2366 57.7236 93.0828 59.466L93.0833 59.466Z" fill="#F9D1E1"/>
<path d="M22.7381 60.3714C22.7302 60.3181 22.7125 60.2696 22.6887 60.2255C22.6886 60.1121 22.6212 60.0042 22.5026 59.983C22.3382 59.9536 22.1606 59.9578 21.996 59.9866C21.798 60.0216 21.6155 60.0858 21.4404 60.1847C21.4225 60.1948 21.4096 60.2102 21.3971 60.2261C21.3302 60.2664 21.2706 60.317 21.2323 60.3879C21.1708 60.5033 21.1683 60.6681 21.2559 60.772C21.2569 60.7731 21.2584 60.7741 21.2594 60.7751C21.2702 60.8599 21.3261 60.9372 21.4161 60.9531C21.6162 60.9875 21.8211 61.0093 22.0239 61.0083C22.2101 61.0069 22.4092 60.9673 22.5526 60.8419C22.6837 60.7278 22.7642 60.5471 22.7376 60.3709L22.7381 60.3714Z" fill="white"/>
<path d="M99.845 57.228C99.8109 57.006 99.6067 56.9032 99.4028 56.8789C99.3924 56.8731 99.3814 56.8657 99.3714 56.8604C99.1374 56.7397 98.8569 56.7155 98.6084 56.8004C98.5804 56.8098 98.5574 56.8254 98.5378 56.8436C98.4368 56.8482 98.3507 56.9599 98.3618 57.0568C98.3635 57.0725 98.3698 57.0843 98.374 57.0981C98.3706 57.1193 98.3646 57.1393 98.3646 57.1616C98.3648 57.2972 98.4411 57.4332 98.5469 57.5158C98.6575 57.6025 98.791 57.6403 98.929 57.6503C98.9804 57.6541 99.0324 57.6529 99.0843 57.6542C99.1936 57.6883 99.3078 57.7028 99.4217 57.6859C99.4697 57.679 99.518 57.664 99.5648 57.6444C99.6287 57.6298 99.6838 57.5983 99.7254 57.5442C99.8113 57.4649 99.865 57.3575 99.8445 57.2274L99.845 57.228Z" fill="white"/>
<ellipse cx="11.8881" cy="11.8697" rx="11.8881" ry="11.8697" transform="matrix(-1 0 0 1 47.7539 32.3252)" fill="#F8F8FB"/>
<path fill-rule="evenodd" clip-rule="evenodd" d="M29.0959 37.6632C30.2099 38.3138 30.9689 39.6059 30.9689 41.0936C30.9689 43.2357 29.3954 44.9722 27.4543 44.9722C27.2221 44.9722 26.9951 44.9473 26.7754 44.8999C27.1279 50.141 31.3886 54.2805 36.5927 54.2805C42.0277 54.2805 46.4336 49.7656 46.4336 44.1962C46.4336 38.6268 42.0277 34.1119 36.5927 34.1119C33.5898 34.1119 30.9009 35.4903 29.0959 37.6632Z" fill="#2C2854"/>
<ellipse cx="83.4193" cy="45.5914" rx="11.8881" ry="11.8697" fill="#F8F8FB"/>
<path fill-rule="evenodd" clip-rule="evenodd" d="M90.1888 39.059C89.0752 39.7097 88.3165 41.0016 88.3165 42.4889C88.3165 44.631 89.8901 46.3675 91.8311 46.3675C92.0633 46.3675 92.2902 46.3427 92.5098 46.2953C92.1577 51.5368 87.8969 55.6768 82.6924 55.6768C77.2575 55.6768 72.8516 51.162 72.8516 45.5926C72.8516 40.0232 77.2575 35.5083 82.6924 35.5083C85.6951 35.5083 88.3837 36.8864 90.1888 39.059Z" fill="#2C2854"/>
</g>
<defs>
<filter id="filter0_d_2143_171365" x="-3" y="0" width="126" height="127" filterUnits="userSpaceOnUse" color-interpolation-filters="sRGB">
<feFlood flood-opacity="0" result="BackgroundImageFix"/>
<feColorMatrix in="SourceAlpha" type="matrix" values="0 0 0 0 0 0 0 0 0 0 0 0 0 0 0 0 0 0 127 0" result="hardAlpha"/>
<feMorphology radius="3" operator="dilate" in="SourceAlpha" result="effect1_dropShadow_2143_171365"/>
<feOffset dy="4"/>
<feColorMatrix type="matrix" values="0 0 0 0 0.129412 0 0 0 0 0.129412 0 0 0 0 0.129412 0 0 0 0.2 0"/>
<feBlend mode="normal" in2="BackgroundImageFix" result="effect1_dropShadow_2143_171365"/>
<feBlend mode="normal" in="SourceGraphic" in2="effect1_dropShadow_2143_171365" result="shape"/>
</filter>
<clipPath id="clip0_2143_171365">
<rect width="120" height="124" fill="white"/>
</clipPath>
</defs>
</svg>
