<svg width="133" height="112" viewBox="0 0 133 112" fill="none" xmlns="http://www.w3.org/2000/svg">
<path d="M116 102.656C116 107.817 95.1812 112 69.5 112C43.8188 112 23 107.817 23 102.656C23 97.4958 43.8188 93.3125 69.5 93.3125C95.1812 93.3125 116 97.4958 116 102.656Z" fill="#71B5F3"/>
<path d="M133 97.625C133 102.388 117.554 106.25 98.5 106.25C79.4462 106.25 64 102.388 64 97.625C64 92.8615 79.4462 89 98.5 89C117.554 89 133 92.8615 133 97.625Z" fill="#71B5F3"/>
<path d="M108.4 103.012C108.4 106.677 91.745 109.648 71.2 109.648C50.655 109.648 34 106.677 34 103.012C34 99.3466 50.655 96.3755 71.2 96.3755C91.745 96.3755 108.4 99.3466 108.4 103.012Z" fill="#C0E7FF"/>
<path d="M122 99.4382C122 102.821 109.643 105.564 94.3998 105.564C79.1567 105.564 66.7998 102.821 66.7998 99.4382C66.7998 96.0551 79.1567 93.3125 94.3998 93.3125C109.643 93.3125 122 96.0551 122 99.4382Z" fill="#C0E7FF"/>
<path d="M100.63 101.13C100.69 103.386 90.4826 105.779 77.8307 106.476C65.1787 107.173 54.8736 105.909 54.8134 103.653C54.7533 101.397 64.961 99.0031 77.613 98.3064C90.2649 97.6097 100.57 98.8738 100.63 101.13Z" fill="#D7F0FF"/>
<path d="M108.947 98.4696C109.002 100.552 101.437 102.659 92.0505 103.176C82.6636 103.693 75.009 102.424 74.9535 100.341C74.898 98.259 82.4626 96.1518 91.8496 95.6349C101.237 95.118 108.891 96.3871 108.947 98.4696Z" fill="#D7F0FF"/>
<path d="M11.8911 61.3786C11.3091 63.2118 10.7263 65.0458 10.1443 66.879C9.65944 68.4066 9.21568 69.9571 8.51741 71.4007C6.62323 70.4884 3.69406 69.6024 2.76469 71.6713C2.26421 72.7852 3.00288 74.0301 4.05985 74.4582C4.64965 74.6968 5.2749 74.6861 5.89235 74.5735C6.60196 74.4439 7.35908 74.0237 8.09066 74.1676C8.48623 74.2452 8.8116 74.1085 9.03278 73.8756C9.61124 73.9076 10.0713 73.3493 10.0678 72.7923C10.91 71.1885 11.4395 69.455 11.9868 67.7322L13.8335 61.9178C14.2283 60.6736 12.2838 60.1416 11.8911 61.3794V61.3786ZM4.79852 72.5886C4.7496 72.5808 4.71771 72.5359 4.6929 72.4939C4.82972 72.4982 5.07286 72.4761 5.1558 72.4818C5.33232 72.4946 5.50955 72.5238 5.68536 72.5616C5.57619 72.5879 5.46701 72.61 5.35784 72.6207C5.16219 72.6399 4.99063 72.6171 4.79852 72.5879V72.5886Z" fill="#3A285B"/>
<path d="M88.7285 86.9204C87.7006 86.2193 86.4848 86.0801 85.278 86.1137C84.7128 86.0137 84.1317 85.9661 83.5644 85.9353C80.3218 75.5942 77.685 65.0642 75.672 54.4047C75.4352 53.1496 73.5488 53.6813 73.7857 54.9336C75.8249 65.7316 78.5029 76.398 81.8041 86.8686C81.8963 87.1617 82.0774 87.3527 82.2922 87.4584C82.3169 87.5822 82.3734 87.7102 82.4691 87.839C83.329 88.9927 84.3816 89.9518 85.6807 90.5703C86.9509 91.1748 88.7898 91.7688 89.8459 90.4682C90.851 89.2298 89.8128 87.6599 88.7285 86.9204Z" fill="#3A285B"/>
<path fill-rule="evenodd" clip-rule="evenodd" d="M35.4178 82.6749C35.8096 83.0642 35.8116 83.6973 35.4224 84.0891L31.0833 88.4562L29.6646 87.0466L34.0036 82.6795C34.3929 82.2877 35.026 82.2856 35.4178 82.6749Z" fill="#3A285B"/>
<path fill-rule="evenodd" clip-rule="evenodd" d="M58.5547 82.457C59.0643 82.2472 59.6482 82.4921 59.8589 83.004L62.208 88.7095L60.3629 89.4692L58.0137 83.7636C57.803 83.2518 58.0452 82.6668 58.5547 82.457Z" fill="#3A285B"/>
<path d="M54.3754 91.9932C54.1071 90.8055 54.6638 89.5378 55.5565 88.7149C56.4487 87.8925 57.6288 87.4546 58.8104 87.1912C61.1216 86.6756 63.6489 86.786 65.7148 87.95C67.7802 89.114 69.2624 91.4634 68.9949 93.8309C64.0777 93.2578 59.1604 92.6848 54.3759 91.9932L54.3754 91.9932Z" fill="#E1DDE8"/>
<path d="M69.3164 92.4013C70.7285 93.6769 71.2812 95.7114 71.0147 97.6182C70.9461 98.0983 70.8257 98.5718 70.658 99.0233C69.8171 101.259 67.9004 102.966 65.7422 103.976C63.585 104.98 61.1915 105.358 58.8171 105.56C55.5559 105.836 52.6589 106.144 49.8434 105.548C47.033 104.953 44.2825 103.481 42.7493 101.035C42.4705 100.591 42.2397 100.12 42.0568 99.6294C41.2273 97.4179 41.3635 94.8353 42.4977 92.7532C43.8848 90.2182 46.6973 88.5349 49.5732 88.5258C52.6143 88.5131 55.4108 90.1984 58.4259 90.617C60.2849 90.8769 62.178 90.6478 64.0589 90.6993C65.9399 90.7509 67.9186 91.1347 69.3169 92.4013L69.3164 92.4013Z" fill="white"/>
<path opacity="0.4" d="M67.878 94.6262C69.0459 94.9639 70.0907 95.7639 70.6793 96.841C70.8174 97.0922 70.9268 97.3524 71.0138 97.6184C70.9452 98.0986 70.8248 98.5721 70.6571 99.0236C69.8162 101.26 67.8995 102.966 65.7413 103.976C63.5841 104.98 61.1906 105.358 58.8162 105.56C55.555 105.836 52.658 106.144 49.8425 105.548C47.0321 104.953 44.2816 103.482 42.7484 101.035C42.4697 100.591 42.2388 100.121 42.0559 99.6296C42.0555 99.3572 42.0722 99.0785 42.1093 98.8042C42.4074 96.5313 44.0205 94.4871 46.143 93.6774C47.6023 93.1227 49.203 93.1248 50.7582 93.2544C53.6542 93.5011 56.5135 94.1819 59.2178 95.2589C60.1106 95.6175 61.049 96.0297 62.0037 95.8903C62.8333 95.7649 63.5367 95.2467 64.3051 94.9035C65.4167 94.4065 66.7061 94.287 67.879 94.6262L67.878 94.6262Z" fill="#3A285B"/>
<path d="M32.3716 83.4211C50.2223 91.1945 70.9177 82.8462 78.596 64.7747C86.2744 46.7031 78.0281 25.7516 60.1775 17.9783C42.3268 10.2049 21.6314 18.5532 13.953 36.6248C6.27467 54.6963 14.521 75.6478 32.3716 83.4211Z" fill="#28AEFB"/>
<path d="M40.2946 57.6424C39.7075 56.8934 39.475 55.928 39.1566 55.0466C38.9952 54.6004 38.812 54.1601 38.5561 53.7606C38.2836 53.3359 37.9311 53.0061 37.5469 52.6869C37.1168 52.3291 36.7192 51.9786 36.4826 51.4573C36.2873 51.027 36.1673 50.5586 35.8994 50.1651C35.3156 49.3062 34.384 49.5173 33.5045 49.5981C33.0196 49.6427 32.5437 49.5763 32.1759 49.2271C31.8576 48.9249 31.6644 48.512 31.4932 48.1124C31.1042 47.2038 30.7992 46.3399 30.0488 45.6615C29.29 44.9759 28.1145 44.3083 28.0572 43.1472C28.0261 42.5089 28.4794 42.0624 28.9845 41.7598C29.4851 41.4606 30.039 41.2226 30.613 41.12C31.1273 41.0284 31.7291 41.0495 32.1127 41.4575C32.4329 41.7981 32.5335 42.3369 33.0674 42.4096C33.3028 42.4416 33.5298 42.3689 33.7616 42.3439C33.9849 42.3193 34.2058 42.3546 34.4149 42.4372C34.8142 42.5953 35.1437 42.9277 35.3355 43.312C35.5278 43.6975 35.5731 44.1265 35.4271 44.5352C35.3596 44.725 35.6403 44.8631 35.7451 44.689C36.574 43.3118 37.9528 42.4065 39.2547 41.5359C40.4711 40.7224 41.9263 39.9044 43.4317 40.3307C44.2047 40.5498 44.6236 41.0938 45.1307 41.6752C45.5131 42.1133 46.0029 42.5151 46.615 42.4703C47.5613 42.4006 48.1816 41.3815 48.2278 40.4974C48.2399 40.2644 48.2072 40.041 48.1489 39.8165C48.0669 39.5023 47.9074 39.0728 48.0233 38.7506C48.1586 38.3743 48.57 38.5805 48.8226 38.6937C49.0682 38.8038 49.3245 38.8921 49.5937 38.8235C50.0583 38.705 50.2928 38.2109 50.3551 37.7689C50.4408 37.1635 50.1757 36.6611 49.8879 36.1508C49.5526 35.5564 49.3222 35.0192 49.4787 34.3271C49.6018 33.7851 49.852 33.2158 49.7261 32.6495C49.6001 32.0843 49.137 31.7736 48.6467 31.5489C48.1608 31.3262 47.4557 31.1568 47.2701 30.5794C47.159 30.234 47.2421 29.8551 47.1405 29.5059C47.0637 29.2421 46.8947 29.0208 46.6509 28.8956C46.1543 28.6402 45.5141 28.7955 45.0935 29.1317C44.4181 29.6715 44.326 30.6612 44.1375 31.4458C44.0966 31.6159 44.0452 31.7947 43.9787 31.9696C43.6988 32.4031 43.3404 32.7839 42.9271 33.0884C42.916 33.091 42.9067 33.097 42.8952 33.0994C42.834 33.113 42.7969 33.1498 42.777 33.194C42.4708 33.399 42.1407 33.5655 41.7884 33.6721C41.4872 33.7632 41.1468 33.8146 40.8455 33.6956C40.5687 33.5862 40.3304 33.3236 40.3592 33.0073C40.3899 32.6654 40.6433 32.3559 40.8058 32.0656C40.9563 31.7976 41.1001 31.5171 41.1786 31.2178C41.2538 30.9313 41.2682 30.6315 41.1942 30.343C41.1132 30.0277 40.9491 29.7418 40.8711 29.4256C40.738 28.8859 40.8072 28.3145 41.0236 27.8063C41.2393 27.2987 41.6183 26.8486 42.0997 26.5833C42.5431 26.3385 43.0561 26.2586 43.555 26.2365C44.5154 26.1941 45.5268 26.3703 46.4621 26.0793C46.9032 25.9421 47.3454 25.6941 47.611 25.3004C47.9091 24.8585 47.9159 24.2737 47.4331 23.965C47.1477 23.7825 46.7955 23.6884 46.4779 23.5792C46.1078 23.452 45.7336 23.3356 45.3571 23.2309C44.9946 23.1303 44.6295 23.0406 44.2617 22.9609C43.8958 22.8816 43.5223 22.8105 43.1756 22.6627C42.5109 22.3796 42.1501 21.7481 41.6431 21.2674C41.1169 20.7677 40.4708 20.4397 39.8828 20.0253C38.61 19.129 37.6827 17.7739 37.2309 16.2747C33.8742 17.1811 30.6614 18.5871 27.7043 20.4438C27.6321 20.9386 27.5027 21.4228 27.3656 21.8502C27.082 22.7316 26.7562 23.6031 26.6622 24.5321C26.5738 25.4111 26.6593 26.2992 26.5531 27.1768C26.319 29.1112 25.1809 30.7656 24.3358 32.4667C23.5084 34.1321 23.0606 35.905 22.8404 37.7501C22.7292 38.6827 22.6679 39.6207 22.6194 40.5584C22.5925 41.0745 22.3551 42.2058 23.0308 42.436C23.5982 42.6291 23.9151 41.9327 23.9957 41.4844C24.1641 40.5502 24.2395 39.5898 24.3593 38.6482C24.4599 37.8576 24.6622 36.5802 25.7006 36.5819C26.6069 36.5831 26.5881 37.9727 26.5474 38.5977C26.4905 39.4788 26.2076 40.3452 25.7299 41.0843C25.342 41.6847 24.8249 42.2283 24.605 42.9245C24.3943 43.5915 24.6307 44.1847 25.1645 44.6072C25.7556 45.0759 26.4428 45.4291 27.0828 45.8233C27.7057 46.2073 28.3305 46.6139 28.8486 47.1386C29.3728 47.6698 29.7142 48.288 29.8941 49.0155C30.0472 49.6349 30.1296 50.3087 30.4632 50.8638C30.8081 51.4381 31.3518 51.6171 31.9496 51.8187C32.1989 51.9029 32.5708 52.005 32.6804 52.2799C32.8502 52.7075 32.3381 52.9674 32.0291 53.1012C31.7067 53.2409 31.3766 53.3471 31.0753 53.533C30.784 53.7127 30.5176 53.9313 30.2862 54.1853C29.8235 54.6932 29.484 55.3237 29.3391 56.0008C29.1821 56.7334 29.317 57.3957 29.4395 58.1204C29.5127 58.5525 29.5342 58.9818 29.33 59.3826C29.1754 59.6859 28.9573 59.9949 29.0234 60.3551C29.0898 60.7171 29.406 60.9119 29.6256 61.1743C29.8491 61.4411 29.9887 61.7671 30.0566 62.1085C30.4044 63.8674 29.0771 65.2838 28.1046 66.5598C27.1949 67.7531 26.5346 69.109 26.1753 70.5737C25.829 71.9869 25.7525 73.463 25.9498 74.9054C26.1407 76.2999 26.5814 77.8118 27.3793 78.9815C27.6786 79.4205 28.2994 79.9375 28.8184 79.516C29.2897 79.133 28.9901 78.5123 28.784 78.0694C28.6342 77.7474 28.4542 77.408 28.497 77.0401C28.5452 76.6264 28.8096 76.2651 29.0456 75.9385C29.4486 75.3802 29.8087 74.8651 29.7548 74.139C29.7202 73.6776 29.4913 73.2587 29.0504 73.1493C29.0703 72.6396 29.8906 72.5749 30.2616 72.5337C30.7753 72.4768 31.1491 72.306 31.4637 71.8807C31.632 71.6533 31.7786 71.4238 32.0245 71.2736C32.2252 71.1508 32.4524 71.0814 32.6786 71.0253C33.134 70.9123 33.6051 70.8522 34.0346 70.6511C34.9673 70.2149 35.5294 69.2822 36.1029 68.4667C36.6419 67.7002 37.4213 66.7938 38.4396 66.8148C39.3962 66.8342 40.1794 67.6497 41.1553 67.551C42.0482 67.4607 42.4461 66.6498 42.6951 65.8793C42.8353 65.4458 42.9453 64.995 43.1497 64.5864C43.3979 64.0898 43.7576 63.8462 44.2532 63.6326C44.6827 63.4475 45.067 63.2225 45.2821 62.7851C45.4702 62.4027 45.5017 61.9558 45.4232 61.5398C44.955 59.071 41.6213 59.3336 40.2965 57.6428L40.2946 57.6424Z" fill="#42D576"/>
<path d="M74.7516 68.4362C74.3559 68.2968 73.9911 68.0733 73.7281 67.7385C73.4555 67.3916 73.343 66.9609 73.2931 66.5283C73.2339 66.0176 73.2392 65.4968 73.2225 64.9834C73.2045 64.4424 73.1867 63.902 73.1687 63.361C73.1507 62.82 73.132 62.2793 73.1149 61.7386C73.1044 61.409 73.1316 61.0581 73.2972 60.7655C73.4956 60.4156 73.8506 60.4786 73.9765 60.8628C74.0901 61.2098 74.0453 61.6191 74.0207 61.9774C73.9716 62.6899 73.8503 63.4026 73.8886 64.1187C73.9241 64.7833 74.122 65.4291 74.6307 65.8788C75.2864 66.4587 76.2319 66.5056 77.0487 66.3335C77.3934 66.2607 77.7196 66.1528 78.034 66.0245C78.2273 65.6126 78.4164 65.1972 78.5959 64.7746C82.2149 56.2571 82.2951 47.1003 79.5006 38.9846C79.4115 38.9924 79.3221 38.9948 79.2339 38.9845C78.6277 38.9132 78.3294 38.3391 77.8781 37.998C76.9721 37.3128 75.749 37.4738 74.7639 37.8782C73.7168 38.308 72.8825 39.0888 71.9748 39.7455C71.524 40.0718 71.0468 40.3728 70.5258 40.5711C70.0485 40.7529 69.5497 40.8067 69.0442 40.8333C68.099 40.8829 66.9314 40.8641 66.369 41.7851C66.3196 41.8658 66.3359 41.9825 66.42 42.0344C67.3177 42.5863 68.2159 43.1384 69.1139 43.6899C69.5567 43.9621 69.9928 44.2579 70.4499 44.5051C70.7594 44.6727 71.1027 44.7645 71.4492 44.6666C72.0454 44.4979 72.4347 43.9214 72.7346 43.4125C72.9186 43.1002 73.0782 42.7737 73.2721 42.4675C73.5251 42.0678 73.822 41.6977 74.1585 41.3673C74.4863 41.0451 75.9221 39.7151 76.0594 40.8222C76.1671 41.6913 75.0749 42.0353 74.6259 42.5911C74.1966 43.1226 74.1165 43.8601 74.7149 44.287C74.8811 44.4054 75.0744 44.5081 75.0982 44.734C75.12 44.941 75.0161 45.1461 74.8699 45.2847C74.5523 45.5853 74.0614 45.6786 73.6582 45.8027C72.7517 46.0814 71.8279 46.3356 70.8755 46.3678C69.9188 46.4001 68.968 46.2561 68.014 46.2108C67.2132 46.1728 66.3909 46.2102 65.6219 46.4583C64.9298 46.6816 64.1245 47.1097 63.8044 47.81C63.7217 47.9911 63.6843 48.1813 63.7038 48.3804C63.7234 48.5843 63.8256 48.7892 63.8096 48.9956C63.7745 49.4399 63.1973 49.5835 62.8421 49.4902C62.3781 49.3687 62.0181 48.9863 61.6558 48.692C61.3554 48.4473 61.0143 48.2337 60.6305 48.1608C59.9593 48.0332 59.3918 48.4605 59.2705 49.1288C59.1466 49.8119 59.4236 50.5027 59.9189 50.9656C61.1722 52.1367 63.0454 51.9634 64.5105 51.3572C65.3341 51.0164 66.0987 50.5499 66.8785 50.1192C67.2148 49.9331 67.6788 49.6571 68.0712 49.8216C68.3779 49.9504 68.441 50.2733 68.4018 50.576C68.3586 50.9066 68.2157 51.2246 68.0536 51.5113C68.007 51.5938 68.0184 51.7073 68.1045 51.7607C68.649 52.0989 69.2829 51.9191 69.8778 51.8827C70.1532 51.866 70.4763 51.8701 70.6709 52.1C70.8993 52.3699 70.8317 52.7704 70.8041 53.0951C70.7428 53.8313 70.9368 54.5035 71.407 55.0757C71.9273 55.7084 72.6763 56.0848 73.464 56.2483C73.8956 56.3378 74.3362 56.373 74.777 56.3695C75.1248 56.3669 75.8807 56.2101 76.0076 56.6746C76.1043 57.0291 75.8444 57.4501 75.6378 57.7159C75.4028 58.0192 75.0896 58.2555 74.7495 58.4245C74.0002 58.7971 73.1484 58.8079 72.3593 58.5591C71.4666 58.2772 70.7785 57.7108 70.0783 57.1099C69.7656 56.8414 69.4186 56.5934 69.0065 56.5182C68.5964 56.4434 68.1695 56.5916 67.7669 56.4645C66.8966 56.1903 66.6366 55.1453 66.5123 54.3473C66.4458 53.9228 66.4038 53.4862 66.2784 53.0737C66.189 52.7807 65.9797 52.5312 65.6517 52.5683C65.3431 52.604 65.1124 52.854 64.8563 53.0051C64.5482 53.1875 64.2044 53.1548 63.8725 53.0595C63.1973 52.865 62.5942 52.5478 61.8823 52.4877C61.2081 52.4313 60.5304 52.5418 59.8943 52.7688C58.5715 53.2406 57.4192 54.2233 56.6911 55.4322C56.4827 55.7787 56.327 56.1525 56.1381 56.5097C55.919 56.9246 55.6458 57.2414 55.2642 57.5093C54.9407 57.7365 54.6154 57.9458 54.3696 58.2645C54.1399 58.5626 53.9947 58.9229 53.924 59.2924C53.636 60.7924 54.4164 62.3293 55.5032 63.3103C56.0648 63.8175 56.7232 64.2116 57.4385 64.4506C58.2015 64.7056 58.9608 64.7143 59.7552 64.6971C60.53 64.6803 61.3726 64.7184 61.8945 65.3819C62.0962 65.6381 62.2186 65.9742 62.1185 66.2985C62.0078 66.6575 61.6845 66.9064 61.4409 67.1719C61.2226 67.4099 61.0204 67.6803 60.996 68.0159C60.9679 68.3997 61.2058 68.7098 61.2634 69.0753C61.3922 69.8885 60.4848 70.493 59.9796 70.9718C58.661 72.2216 58.4747 74.02 58.6336 75.7533C58.7193 76.689 58.8869 77.6165 58.9278 78.5566C58.9599 79.296 58.8969 80.0966 59.521 80.6167C60.0552 81.0616 60.8399 81.1338 61.4879 80.9443C62.3001 80.7066 62.9629 80.1634 63.6769 79.731C64.4127 79.2854 65.2046 78.9319 66.0279 78.6879C66.4377 78.5666 66.8527 78.4847 67.2708 78.4005C67.5876 78.3367 67.9151 78.222 68.0905 77.9273C68.4412 77.3382 67.8887 76.5227 68.4732 76.0455C68.9514 75.6549 69.6799 75.5428 69.8243 74.8374C69.8991 74.4719 69.7907 74.1091 69.7316 73.7498C69.6691 73.37 69.7162 73.0019 69.9113 72.667C70.2995 72.0022 71.0534 71.5977 71.7832 71.4544C72.8599 71.2429 74.001 71.3893 75.0607 71.1895C75.6201 70.3827 76.1487 69.5471 76.6461 68.6842C76.0041 68.6947 75.3546 68.648 74.7511 68.435L74.7516 68.4362Z" fill="#42D576"/>
<path fill-rule="evenodd" clip-rule="evenodd" d="M80.2545 60.8715C79.9673 61.5475 79.6619 62.2099 79.339 62.8583C79.0965 63.5398 78.8322 64.218 78.5458 64.8923C70.8674 82.9638 50.172 91.3122 32.3214 83.5388C14.4707 75.7654 6.22443 54.8139 13.9028 36.7424C14.1898 36.067 14.4949 35.4052 14.8174 34.7573C8.56196 52.3396 16.8455 72.0352 34.0297 79.5183C51.8804 87.2917 72.5758 78.9434 80.2541 60.8718C87.9325 42.8003 79.6862 21.8488 61.8356 14.0754C48.9033 8.44385 34.478 11.2739 24.5909 20.1325C34.478 11.2736 48.9035 8.44342 61.836 14.0751C79.6866 21.8485 87.9329 42.7999 80.2545 60.8715ZM23.5632 21.091C20.2641 24.2936 17.5308 28.2039 15.6112 32.7219C15.3245 33.3966 15.06 34.0754 14.8174 34.7573C14.8177 34.7567 14.818 34.7561 14.8183 34.7555C15.0608 34.0741 15.3251 33.3958 15.6115 32.7216C17.5311 28.2037 20.2643 24.2935 23.5632 21.091Z" fill="#1B84BF" fill-opacity="0.4"/>
<path d="M63.0676 19.3991C63.0582 19.4003 63.0491 19.4032 63.0397 19.4044C61.996 19.5556 60.8838 19.5981 59.9825 20.2179C59.758 20.3721 59.5411 20.5736 59.2587 20.6005C59.0505 20.6205 58.8418 20.5566 58.6488 20.4853C58.2597 20.3412 57.8914 20.1163 57.4761 20.0561C57.0698 19.9968 56.6705 20.1834 56.4962 20.5702C56.2722 21.0678 56.4638 21.6066 56.7619 22.0212C57.0958 22.4859 57.5059 22.8673 57.7919 23.3709C58.0614 23.8456 58.2562 24.3619 58.3551 24.9011C58.5637 26.0397 58.2815 27.1594 57.5108 28.023C56.6924 28.9399 55.582 29.5174 54.7222 30.3888C53.9068 31.2149 53.3417 32.2718 53.5827 33.4658C53.689 33.9912 53.9095 34.4839 54.0986 34.9818C54.1897 35.2216 54.2738 35.4642 54.3337 35.7147C54.4075 36.0259 54.426 36.3442 54.4736 36.6593C54.5501 37.1686 54.755 37.719 55.2476 37.9531C55.6806 38.1586 56.1481 37.9815 56.4608 37.6454C56.8272 37.2522 57.0194 36.7186 57.1059 36.1924C57.1564 35.8866 57.1595 35.5788 57.1287 35.271C57.0983 34.9697 57.0278 34.6653 57.0594 34.3609C57.1243 33.7379 57.7097 33.4137 58.2714 33.3411C58.8956 33.2603 59.5229 33.4445 60.1443 33.4774C60.7034 33.507 61.2692 33.432 61.8015 33.2561C62.3416 33.0778 62.7833 32.7683 63.2784 32.5015C63.5553 32.3521 63.8221 32.2867 64.1362 32.308C64.4179 32.3269 64.694 32.3751 64.9767 32.3399C65.4323 32.2831 65.8456 32.0316 66.162 31.703C66.97 30.8636 67.1451 29.7189 67.4955 28.6495C67.7002 28.025 67.9889 27.4524 68.4901 27.0199C68.9117 26.6566 69.412 26.4048 69.8987 26.1456C70.3046 25.93 70.7096 25.7029 71.0742 25.4196C68.7489 23.0802 66.0665 21.0444 63.067 19.3993L63.0676 19.3991Z" fill="#42D576"/>
<path d="M24.6421 83.6114C25.6344 82.9142 27.0109 82.9562 28.1044 83.4789C29.1973 84.0013 30.0444 84.9369 30.7316 85.9396C32.0761 87.9007 32.9256 90.2988 32.6317 92.6632C32.3375 95.0273 30.7327 97.2935 28.4527 97.9352C27.1296 93.1344 25.8064 88.3335 24.6423 83.6119L24.6421 83.6114Z" fill="#E1DDE8"/>
<path d="M29.8898 97.6964C29.247 99.4932 27.5822 100.774 25.7267 101.243C25.2588 101.36 24.7776 101.426 24.2989 101.44C21.9241 101.497 19.6317 100.352 17.8901 98.7198C16.1536 97.0863 14.9047 94.9967 13.8257 92.8585C12.3438 89.9216 10.9702 87.3361 10.4591 84.4865C9.94909 81.642 10.2684 78.5235 11.9433 76.1731C12.2474 75.746 12.5934 75.3537 12.9766 74.9984C14.7002 73.3925 17.1287 72.5475 19.4723 72.8215C22.3278 73.1608 24.9358 75.1499 26.0266 77.8281C27.1829 80.659 26.684 83.9009 27.4334 86.8699C27.8938 88.7012 28.8173 90.3802 29.4777 92.1535C30.1382 93.9268 30.5296 95.9164 29.89 97.6969L29.8898 97.6964Z" fill="white"/>
<path opacity="0.4" d="M27.3002 97.1938C27.4289 98.4099 27.0857 99.6852 26.3158 100.639C26.1365 100.863 25.9381 101.063 25.726 101.244C25.2582 101.361 24.777 101.427 24.2983 101.44C21.9235 101.498 19.631 100.353 17.8894 98.7203C16.1529 97.0868 14.904 94.9973 13.825 92.8591C12.3431 89.9221 10.9695 87.3366 10.4585 84.487C9.94843 81.6425 10.2678 78.524 11.9426 76.1736C12.2467 75.7465 12.5927 75.3542 12.976 74.9989C13.2266 74.8959 13.4894 74.8067 13.7558 74.738C15.9603 74.1606 18.4491 74.8953 19.9934 76.5697C21.0532 77.7217 21.6537 79.215 22.1198 80.714C22.9825 83.5072 23.432 86.4297 23.4584 89.3567C23.4644 90.3241 23.4381 91.3543 23.9257 92.192C24.3534 92.9184 25.0951 93.3793 25.7003 93.9665C26.5761 94.816 27.1713 95.9734 27.3006 97.1947L27.3002 97.1938Z" fill="#3A285B"/>
<path d="M38.8581 33.0423C41.268 34.4928 42.3805 37.495 41.3573 40.2233C40.2035 43.3 36.7734 44.8591 33.6968 43.7053C30.6201 42.5515 29.061 39.1214 30.2148 36.0447C30.5831 35.0626 31.1845 34.2374 31.9311 33.6034C34.2347 34.4804 36.7832 34.2385 38.8581 33.0423Z" fill="#2C2854"/>
<path fill-rule="evenodd" clip-rule="evenodd" d="M38.6085 32.6093C38.766 32.5186 38.9604 32.5204 39.1161 32.6141C41.7282 34.1864 42.9351 37.4404 41.8256 40.3991C40.5749 43.7343 36.8565 45.4244 33.5213 44.1736C30.1861 42.9229 28.496 39.2046 29.7467 35.8694C30.146 34.8048 30.7984 33.9096 31.6075 33.2225C31.7465 33.1045 31.9387 33.0714 32.1091 33.1363C34.2689 33.9586 36.6606 33.7323 38.6085 32.6093ZM38.8401 33.6238C36.7768 34.7173 34.3129 34.9472 32.0422 34.175C31.4567 34.7271 30.9847 35.4161 30.6831 36.2205C29.6262 39.0386 31.0543 42.1805 33.8725 43.2373C36.6906 44.2941 39.8325 42.866 40.8893 40.0479C41.7915 37.6422 40.8805 35.0025 38.8401 33.6238Z" fill="#F8F8FB"/>
<path d="M40.5889 38.053C40.1843 39.1321 38.9803 39.6794 37.9008 39.2746C36.8214 38.8697 36.2748 37.6665 36.6796 36.587C37.0844 35.5075 38.2874 34.9604 39.3669 35.3652C40.4464 35.77 40.9937 36.9736 40.5889 38.053Z" fill="white"/>
<path d="M36.2304 39.2964C36.0684 39.7282 35.5878 39.947 35.1559 39.7851C34.724 39.6231 34.505 39.1419 34.667 38.71C34.8289 38.2782 35.3102 38.0601 35.7421 38.222C36.1739 38.384 36.3922 38.8649 36.2304 39.2964Z" fill="white"/>
<path fill-rule="evenodd" clip-rule="evenodd" d="M41.916 29.9439C42.1492 30.0918 42.2184 30.4007 42.0706 30.6339C39.5271 34.6455 34.2144 35.8362 30.2021 33.2935C29.9689 33.1456 29.8996 32.8367 30.0474 32.6035C30.1952 32.3702 30.5042 32.301 30.7374 32.4488C34.2833 34.696 38.9782 33.6437 41.226 30.0984C41.3739 29.8652 41.6828 29.796 41.916 29.9439Z" fill="#2C2854"/>
<path d="M63.6838 42.3521C60.9144 41.8603 58.1022 43.3906 57.0791 46.119C55.9253 49.1956 57.4844 52.6257 60.561 53.7795C63.6377 54.9333 67.0686 53.3745 68.2223 50.2978C68.5906 49.3157 68.6794 48.2982 68.5338 47.3297C66.2215 46.4756 64.4606 44.6177 63.6838 42.3521Z" fill="#2C2854"/>
<path fill-rule="evenodd" clip-rule="evenodd" d="M63.7713 41.8599C63.9503 41.8917 64.0979 42.0181 64.1569 42.1901C64.8861 44.317 66.5392 46.0601 68.7071 46.8608C68.8782 46.924 69.0013 47.0753 69.0284 47.2555C69.1861 48.305 69.0899 49.4087 68.6906 50.4736C67.4398 53.8089 63.7207 55.4986 60.3856 54.2478C57.0503 52.9971 55.3603 49.2788 56.611 45.9436C57.7205 42.9849 60.7695 41.3269 63.7713 41.8599ZM63.3154 42.8022C60.8715 42.4991 58.4495 43.8889 57.5473 46.2947C56.4905 49.1128 57.9186 52.2547 60.7367 53.3115C63.5549 54.3684 66.6975 52.9405 67.7543 50.1224C68.0559 49.3182 68.1528 48.4885 68.0746 47.6873C65.856 46.776 64.1509 44.9827 63.3154 42.8022Z" fill="#F8F8FB"/>
<path fill-rule="evenodd" clip-rule="evenodd" d="M40.929 50.3885C41.9428 47.6852 44.9561 46.3155 47.6591 47.3291C50.3629 48.3431 51.7317 51.3561 50.7179 54.0594C50.621 54.318 50.3327 54.449 50.0742 54.352C49.8156 54.255 49.6846 53.9668 49.7816 53.7083C50.6015 51.522 49.4945 49.0854 47.308 48.2654C45.1221 47.4457 42.6852 48.5534 41.8654 50.7396C41.7684 50.9982 41.4802 51.1292 41.2216 51.0322C40.9631 50.9352 40.8321 50.647 40.929 50.3885Z" fill="#2C2854"/>
<path d="M59.0853 44.9893C58.6807 46.0684 59.2279 47.2724 60.3074 47.6772C61.3868 48.082 62.5899 47.5349 62.9947 46.4554C63.3995 45.3759 62.8529 44.1726 61.7734 43.7678C60.694 43.363 59.4901 43.9099 59.0853 44.9893Z" fill="white"/>
<path d="M61.5512 48.7921C61.3893 49.2239 61.6076 49.7048 62.0394 49.8668C62.4713 50.0288 62.9527 49.8102 63.1147 49.3784C63.2766 48.9465 63.0574 48.4657 62.6256 48.3038C62.1937 48.1418 61.713 48.3606 61.5512 48.7921Z" fill="white"/>
<path d="M66.8719 55.6455C67.1749 54.8373 65.6792 53.5286 63.5306 52.7228C61.382 51.9171 59.3938 51.9193 59.0907 52.7275C58.7876 53.5356 60.2842 54.8447 62.4327 55.6504C62.8025 55.7891 63.167 55.9022 63.5198 55.993C63.4204 56.4994 63.6946 57.0175 64.1939 57.2047C64.7492 57.413 65.3687 57.1317 65.5769 56.5765C65.6181 56.4665 65.6345 56.3542 65.6394 56.2432C66.2864 56.1974 66.7396 55.998 66.8719 55.6455Z" fill="#C0E7FF"/>
<path d="M27.7157 40.9614C28.0188 40.1532 30.0063 40.1507 32.1548 40.9564C34.3034 41.7622 35.7999 43.0712 35.4969 43.8794C35.1938 44.6875 33.2055 44.6898 31.057 43.884C30.6872 43.7454 30.3382 43.5909 30.0127 43.4273C29.7546 43.8742 29.2073 44.0842 28.708 43.897C28.1528 43.6888 27.871 43.0695 28.0792 42.5143C28.1204 42.4043 28.182 42.3089 28.2513 42.2221C27.7939 41.7621 27.5835 41.3139 27.7157 40.9614Z" fill="#C0E7FF"/>
<path fill-rule="evenodd" clip-rule="evenodd" d="M63.4174 38.0071C63.6903 38.049 63.8776 38.3043 63.8357 38.5772C63.1983 42.7264 66.0434 46.6062 70.1924 47.2448C70.4654 47.2868 70.6526 47.5421 70.6106 47.815C70.5686 48.0879 70.3133 48.2751 70.0403 48.2331C65.3454 47.5106 62.1261 43.1203 62.8473 38.4254C62.8892 38.1524 63.1445 37.9652 63.4174 38.0071Z" fill="#2C2854"/>
<path d="M25.4139 43.0893C25.4112 43.0781 25.4007 43.068 25.3853 43.059C25.3824 43.046 25.3702 43.0315 25.3423 43.0155C24.8898 42.7607 24.3466 42.6381 23.8178 42.5899C23.0809 42.4719 22.3399 42.5468 21.8152 43.1268C21.8037 43.1397 21.8163 43.1558 21.841 43.1723C21.8361 43.1787 21.8294 43.1831 21.8248 43.1897C21.7586 43.2819 21.7172 43.386 21.6878 43.4928C21.5182 43.8899 21.5895 44.3508 21.8117 44.7266C22.1107 45.2319 22.6395 45.5513 23.1591 45.789C24.075 46.2084 25.4887 46.5292 26.2942 45.7143C27.113 44.8856 26.2346 43.5618 25.414 43.0897L25.4139 43.0893Z" fill="#F9D1E1"/>
<path d="M63.043 59.3793C63.1056 60.5268 64.3736 61.2322 65.3351 61.5317C65.8802 61.7017 66.4866 61.8166 67.0437 61.6391C67.4582 61.507 67.8162 61.2107 67.952 60.8004C68.0007 60.7009 68.0386 60.5953 68.0503 60.4822C68.0512 60.4742 68.0491 60.4662 68.0496 60.4584C68.0788 60.4626 68.0988 60.4589 68.0987 60.4418C68.0902 59.6577 67.5868 59.1063 66.9581 58.7016C66.5313 58.3841 66.0443 58.1123 65.5381 58.0003C65.5064 57.9934 65.4876 57.9959 65.477 58.0039C65.4597 58.0001 65.4454 58.0007 65.4358 58.0073C64.5107 57.8112 62.9792 58.2127 63.0427 59.3791L63.043 59.3793Z" fill="#F9D1E1"/>
<path d="M23.6501 43.3711C23.6581 43.3397 23.6596 43.3086 23.6566 43.2785C23.6831 43.2156 23.6708 43.1399 23.6096 43.1003C23.5249 43.0454 23.4249 43.006 23.3265 42.9833C23.208 42.9563 23.0913 42.9491 22.9706 42.9628C22.9583 42.9642 22.9475 42.9697 22.9368 42.9756C22.8901 42.9823 22.8451 42.9964 22.8071 43.0267C22.7459 43.0762 22.706 43.1671 22.7306 43.2454C22.7309 43.2462 22.7315 43.2471 22.7318 43.2479C22.718 43.2975 22.7311 43.3535 22.7775 43.3834C22.8809 43.4495 22.99 43.5097 23.1032 43.5567C23.2073 43.5997 23.3275 43.6245 23.4367 43.5886C23.5364 43.556 23.6235 43.4747 23.6499 43.3707L23.6501 43.3711Z" fill="white"/>
<path d="M67.3339 59.7229C67.3668 59.5917 67.277 59.4868 67.1692 59.4254C67.1647 59.4198 67.1603 59.4131 67.156 59.4078C67.0538 59.2859 66.9031 59.2066 66.7448 59.1953C66.7271 59.194 66.7106 59.1972 66.6954 59.2028C66.6381 59.1816 66.564 59.2233 66.5475 59.2797C66.5448 59.2888 66.5455 59.2968 66.5447 59.3055C66.5378 59.3164 66.5298 59.3261 66.5246 59.3385C66.493 59.4138 66.5037 59.5071 66.5434 59.5778C66.5847 59.6519 66.6503 59.7042 66.7248 59.7421C66.7526 59.7563 66.7818 59.7679 66.8105 59.7808C66.8634 59.8253 66.9236 59.8602 66.991 59.8776C67.0194 59.885 67.0498 59.8881 67.0805 59.8882C67.1195 59.8951 67.1576 59.8906 67.1933 59.8703C67.2598 59.8464 67.3148 59.7995 67.3338 59.7225L67.3339 59.7229Z" fill="white"/>
</svg>
