<svg width="172" height="110" viewBox="0 0 172 110" fill="none" xmlns="http://www.w3.org/2000/svg">
<path d="M168.77 14.2224C167.694 12.5851 165.486 12.6215 164.107 13.85C163.262 14.6017 162.824 15.6786 162.341 16.6702C161.788 17.8027 161.236 18.9352 160.683 20.0672C160.602 20.2327 160.554 20.3978 160.533 20.559C154.996 25.8462 148.8 30.3821 142.056 34.0444C140.39 34.9493 141.725 37.5711 143.393 36.6644C150.78 32.6528 157.578 27.6262 163.553 21.7272C165.187 21.6134 166.596 20.472 167.715 19.3344C169.054 17.9729 169.935 15.9944 168.77 14.2224Z" fill="#3A285B"/>
<path d="M84.5604 46.8026C76.6449 51.1439 69.655 57.0085 64.0279 64.0552C62.6148 65.8245 61.4105 67.8131 59.8275 69.4388C58.2846 71.023 56.3793 71.5844 54.4773 72.587C52.8581 73.4406 51.552 74.7032 51.1446 76.5347C50.8039 78.0675 51.1622 79.828 52.5448 80.7509C54.4949 82.054 56.9077 81.0537 58.4992 79.6637C60.3785 78.0222 61.4358 75.7172 61.6948 73.268C61.7469 72.7732 61.5586 72.3991 61.2544 72.1511C63.8417 69.8513 65.6091 66.6252 67.8558 64.0171C70.2096 61.2843 72.7989 58.7488 75.571 56.439C78.7873 53.759 82.2555 51.4199 85.9264 49.4064C87.589 48.4944 86.226 45.8875 84.5597 46.8014L84.5604 46.8026ZM55.5476 76.5347C55.3651 76.6568 54.6505 76.1359 54.4569 76.2472C54.7433 75.887 55.1294 75.5986 55.5476 75.3544C55.3703 75.5333 55.7216 76.3528 55.5476 76.5347Z" fill="#3A285B"/>
<path fill-rule="evenodd" clip-rule="evenodd" d="M85.083 47.6555L85.0409 47.6786C77.2408 51.9565 70.3536 57.7353 64.8097 64.6778L64.8096 64.6778C64.311 65.3022 63.845 65.9466 63.3623 66.6142C63.1777 66.8696 62.9906 67.1283 62.7983 67.3906C62.1162 68.321 61.3861 69.2706 60.5441 70.1352L60.5441 70.1353C59.6666 71.0362 58.6986 71.6314 57.7418 72.1206C57.3086 72.3421 56.8666 72.5471 56.4399 72.7451C56.3996 72.7639 56.3594 72.7825 56.3194 72.8011C55.8491 73.0195 55.394 73.2332 54.9432 73.4708C53.4788 74.2428 52.443 75.3042 52.1213 76.75M84.6309 46.7643C84.6072 46.776 84.5835 46.7883 84.5597 46.8014L84.5604 46.8026C76.6449 51.1439 69.655 57.0085 64.0279 64.0552C63.5132 64.6997 63.0261 65.3733 62.5384 66.0478C61.6872 67.2251 60.8339 68.4053 59.8275 69.4388C58.7028 70.5936 57.3855 71.2049 56.0173 71.8398C55.5086 72.0759 54.9928 72.3152 54.4773 72.587C52.8581 73.4406 51.552 74.7032 51.1446 76.5347C50.8039 78.0675 51.1622 79.828 52.5448 80.7509C54.4949 82.054 56.9077 81.0537 58.4992 79.6637C60.3785 78.0222 61.4358 75.7172 61.6948 73.268C61.729 72.9438 61.6598 72.6713 61.5225 72.4523C61.4503 72.337 61.3592 72.2366 61.2544 72.1511C61.5047 71.9286 61.7473 71.6974 61.9835 71.459C63.2524 70.1777 64.3337 68.6865 65.4099 67.2023C66.2036 66.1078 66.9945 65.017 67.8558 64.0171C70.2096 61.2843 72.7989 58.7488 75.571 56.439C78.7873 53.759 82.2555 51.4199 85.9264 49.4064C87.2117 48.7014 86.6888 46.9834 85.6154 46.6622C85.3305 46.5769 85.0068 46.5901 84.6678 46.7468C84.6555 46.7524 84.6432 46.7583 84.6309 46.7643ZM67.0979 63.3658C69.4887 60.59 72.1176 58.0159 74.9308 55.6719C78.1991 52.9484 81.7213 50.5734 85.4458 48.5304L85.4458 48.5304C85.6128 48.4388 85.6557 48.3432 85.672 48.27C85.6941 48.1714 85.6807 48.0285 85.6047 47.8835C85.5285 47.738 85.4244 47.6565 85.3473 47.6266C85.3017 47.609 85.2234 47.5892 85.083 47.6555M60.6998 73.1644C60.7094 73.0726 60.6945 73.0262 60.6861 73.0062C60.6769 72.9843 60.6595 72.9571 60.6211 72.9259L59.7123 72.185L60.5899 71.4049C61.8008 70.3285 62.8383 69.0185 63.8773 67.6081C64.1109 67.2909 64.3459 66.9669 64.5831 66.6397C65.3814 65.5386 66.2063 64.4008 67.0978 63.3659M60.6998 73.1649C60.4634 75.3994 59.5045 77.4589 57.8412 78.9117ZM57.8412 78.9117C57.1334 79.5299 56.2707 80.0341 55.4154 80.2475C54.5784 80.4563 53.7921 80.3811 53.1019 79.9199L53.1015 79.9196C52.1805 79.3048 51.8344 78.0411 52.1213 76.7502M56.1945 77.304L56.1034 77.3649C55.8195 77.5549 55.5313 77.5591 55.3921 77.5504C55.2403 77.5409 55.1099 77.5054 55.0271 77.4795C54.8724 77.4311 54.7113 77.3588 54.6122 77.3144L54.596 77.3072C54.4667 77.2492 54.4089 77.2246 54.3752 77.2137C54.3856 77.2166 54.417 77.2242 54.4633 77.2283C54.5168 77.233 54.7237 77.2461 54.9547 77.1134L53.6739 75.6261C54.0672 75.1317 54.5689 74.7689 55.0436 74.4917L56.2579 76.0573C56.4284 75.8853 56.4736 75.702 56.4862 75.6369C56.4962 75.5852 56.4967 75.549 56.4966 75.5381C56.4983 75.569 56.507 75.6281 56.5318 75.7692C56.533 75.7759 56.5342 75.7828 56.5355 75.79C56.5548 75.8992 56.5861 76.0767 56.5951 76.2433C56.6001 76.3349 56.6017 76.4698 56.5743 76.6186C56.548 76.7609 56.4789 77.0069 56.2702 77.2249L56.1945 77.304ZM54.3749 77.2136C54.375 77.2136 54.3751 77.2137 54.3752 77.2137C54.3704 77.2124 54.3701 77.212 54.3749 77.2136ZM55.0014 75.7191C54.9447 75.763 54.8894 75.8083 54.8357 75.8549C54.8081 75.879 54.7809 75.9034 54.7541 75.9282C54.6868 75.9907 54.6226 76.0556 54.5619 76.1232C54.5256 76.1635 54.4905 76.2049 54.4569 76.2472C54.487 76.2299 54.5298 76.2279 54.5812 76.2364C54.5905 76.2379 54.6 76.2398 54.6098 76.242C54.7191 76.2663 54.8604 76.3296 55.0016 76.3928C55.2289 76.4946 55.4557 76.5962 55.5476 76.5347C55.6343 76.4441 55.5906 76.195 55.5468 75.9458C55.5222 75.806 55.4976 75.6662 55.4961 75.5542C55.4959 75.5419 55.4961 75.5299 55.4965 75.5182C55.4991 75.4462 55.5137 75.3886 55.5476 75.3544C55.4878 75.3894 55.4286 75.4252 55.3703 75.462C55.2818 75.5179 55.1953 75.576 55.1114 75.6368C55.0742 75.6637 55.0375 75.6911 55.0014 75.7191ZM56.4965 75.5369C56.4964 75.5355 56.4964 75.5348 56.4964 75.5347ZM56.4964 75.5347C56.4964 75.5346 56.4965 75.5357 56.4966 75.5381Z" fill="#3A285B"/>
<path fill-rule="evenodd" clip-rule="evenodd" d="M42.3902 40.0763C42.8796 39.8204 43.4839 40.0096 43.7398 40.499L42.8537 40.9625L41.9676 41.4259C41.7116 40.9365 41.9008 40.3323 42.3902 40.0763ZM58.1429 88.0385L57.1559 88.1992L57.1483 88.1525L57.125 88.0118C57.1043 87.8876 57.0735 87.7037 57.0329 87.4658C56.9519 86.9899 56.8321 86.2981 56.6776 85.4363C56.3685 83.7125 55.9206 81.3098 55.3652 78.5953C54.2518 73.1537 52.716 66.5055 51.0125 61.5578C49.5897 57.4252 47.3337 52.3995 45.4216 48.3864C44.4677 46.3843 43.6034 44.6427 42.9778 43.4019C42.665 42.7816 42.412 42.2867 42.2374 41.9473C42.1501 41.7776 42.0824 41.6468 42.0366 41.5587L41.9848 41.4589L41.9676 41.4259L42.8537 40.9625C43.7398 40.499 43.7397 40.4989 43.7398 40.499L43.7585 40.5348L43.8119 40.6375C43.8586 40.7276 43.9274 40.8605 44.0158 41.0324C44.1927 41.3761 44.4482 41.8759 44.7636 42.5015C45.3944 43.7524 46.2655 45.5077 47.2271 47.5261C49.1462 51.5538 51.4424 56.6629 52.9036 60.9067C54.6517 65.9841 56.2084 72.739 57.3246 78.1944C57.8839 80.9283 58.335 83.3474 58.6462 85.0833C58.8019 85.9514 58.9226 86.649 59.0045 87.13C59.0455 87.3705 59.0768 87.5569 59.0978 87.6835L59.1217 87.8277L59.1298 87.8768C59.1298 87.877 59.1299 87.8778 58.1429 88.0385ZM58.1429 88.0385L57.1559 88.1992C57.2447 88.7443 57.7586 89.1143 58.3037 89.0255C58.8488 88.9367 59.2185 88.4219 59.1298 87.8768L58.1429 88.0385Z" fill="white"/>
<path fill-rule="evenodd" clip-rule="evenodd" d="M99.8844 74.2559C100.431 74.1727 100.941 74.5474 101.025 75.0929L103.309 90.0165L101.33 90.3179L99.0461 75.3943C98.9626 74.8489 99.3379 74.3392 99.8844 74.2559Z" fill="#3A285B"/>
<path fill-rule="evenodd" clip-rule="evenodd" d="M58.3876 79.8657C57.8939 80.4308 56.987 81.336 55.7381 81.486C54.8119 81.5972 54.04 81.2666 53.5324 80.9539C53.0169 80.6363 52.5989 80.2316 52.2967 79.8968C51.9851 79.5518 51.735 79.2117 51.5656 78.9646C51.4794 78.8388 51.4103 78.7316 51.3609 78.6525C51.3361 78.6129 51.3161 78.58 51.301 78.555L51.2822 78.5234L51.2756 78.5122L51.2731 78.5079L51.272 78.506C51.2718 78.5056 51.271 78.5043 53.0007 77.5003C54.7304 76.4962 54.7302 76.4958 54.73 76.4954L54.7291 76.4938C54.7329 76.5002 54.7409 76.5133 54.7527 76.5322C54.7764 76.5701 54.8146 76.6297 54.865 76.7032C54.9687 76.8545 55.1088 77.0426 55.2656 77.2163C55.2876 77.2407 55.309 77.2637 55.3296 77.2853C55.3442 77.2692 55.3593 77.2522 55.3749 77.2343C55.7103 76.8503 56.0793 76.2969 56.4394 75.6715C56.7916 75.0599 57.0981 74.4447 57.3186 73.9768C57.428 73.7446 57.5143 73.5528 57.5724 73.421C57.6014 73.3552 57.6233 73.3046 57.6374 73.2718L57.6525 73.2362L57.6556 73.229C57.6558 73.2284 57.6556 73.2289 57.6556 73.229C57.6555 73.2292 57.6555 73.2291 59.5009 74.0002C61.3462 74.7713 61.3461 74.7716 61.346 74.7719L61.343 74.7792L61.3364 74.7946L61.3139 74.8475C61.2948 74.8922 61.2675 74.9553 61.2326 75.0345C61.1629 75.1925 61.0627 75.4152 60.937 75.6818C60.6874 76.2115 60.3299 76.931 59.9059 77.6674C59.4898 78.3901 58.9705 79.1982 58.3876 79.8657ZM54.7291 76.4938L54.7276 76.4914L54.7265 76.4894C54.7263 76.4891 54.7271 76.4906 54.7291 76.4938Z" fill="#3A285B"/>
<path fill-rule="evenodd" clip-rule="evenodd" d="M122.117 75.4419C122.631 75.2387 123.212 75.49 123.416 76.0031L129.669 91.7891L127.808 92.5247L121.554 76.7386C121.351 76.2256 121.603 75.645 122.117 75.4419Z" fill="#3A285B"/>
<path d="M96.4365 95.2892C94.2044 94.7832 91.8757 94.5383 89.6328 94.9926C87.3899 95.4469 85.2304 96.6663 83.9635 98.6153C82.6966 100.564 82.4739 103.282 83.7187 105.246C85.031 107.316 87.5641 108.159 89.9382 108.58C95.7198 109.607 101.749 108.991 107.278 106.977C108.975 106.358 110.708 105.546 111.767 104.054C113.019 102.29 113.07 99.8172 112.21 97.8211C111.351 95.8256 109.693 94.2759 107.935 93.1509C104.332 94.4259 100.58 95.2614 96.4365 95.2885V95.2892Z" fill="#9C93AD"/>
<path d="M96.4365 94.2946C94.2044 93.7886 91.8757 93.5437 89.6328 93.998C87.3899 94.4522 85.2304 95.6716 83.9635 97.6206C82.6966 99.5696 82.4739 102.287 83.7187 104.251C85.031 106.322 87.5641 107.164 89.9382 107.585C95.7198 108.612 101.749 107.997 107.278 105.982C108.975 105.364 110.708 104.551 111.767 103.06C113.019 101.296 113.07 98.8226 112.21 96.8264C111.351 94.8309 109.693 93.2813 107.935 92.1562C104.332 93.4312 100.58 94.2668 96.4365 94.2939V94.2946Z" fill="white"/>
<path d="M101.842 86.4499C100.393 86.7153 98.9287 86.9853 97.5777 87.5736C96.2274 88.162 94.9807 89.106 94.3157 90.4173C93.6508 91.7287 93.6704 93.4356 94.6004 94.575C95.6392 95.8485 97.4636 96.1315 99.1097 96.1368C101.898 96.1453 104.687 95.6138 107.275 94.5809C108.604 94.0507 109.976 93.2911 110.544 91.9804C111.118 90.652 110.672 89.0262 109.677 87.9737C108.681 86.9212 107.229 86.3871 105.786 86.2433C104.342 86.0995 102.879 86.2603 101.842 86.4499Z" fill="#E1DDE8"/>
<path d="M135.172 94.0457C136.858 92.5826 138.745 91.2922 140.88 90.6251C143.014 89.9581 145.426 89.9679 147.407 91.0035C149.387 92.0391 150.821 94.2017 150.651 96.4215C150.471 98.761 148.681 100.645 146.835 102.104C142.34 105.657 136.88 107.956 131.21 108.854C129.47 109.129 127.61 109.26 126.018 108.509C124.135 107.622 122.96 105.582 122.784 103.516C122.609 101.449 123.324 99.3838 124.319 97.6253C127.997 97.0086 131.601 95.9559 135.172 94.0463V94.0457Z" fill="#9C93AD"/>
<path d="M135.172 93.0506C136.858 91.5875 138.745 90.2971 140.88 89.63C143.014 88.963 145.426 88.9728 147.407 90.0084C149.387 91.0439 150.821 93.2066 150.651 95.4263C150.471 97.7659 148.681 99.6497 146.835 101.109C142.34 104.662 136.88 106.961 131.21 107.859C129.47 108.134 127.61 108.265 126.018 107.514C124.135 106.626 122.96 104.587 122.784 102.52C122.609 100.454 123.324 98.3887 124.319 96.6302C127.997 96.0135 131.601 94.9608 135.172 93.0512V93.0506Z" fill="white"/>
<path d="M126.799 88.2705C128.145 87.8097 129.505 87.345 130.916 87.2163C132.327 87.087 133.814 87.322 134.981 88.1583C136.148 88.9945 136.92 90.5089 136.662 91.9589C136.374 93.5789 134.965 94.7033 133.579 95.4976C131.23 96.8419 128.632 97.711 125.971 98.0419C124.605 98.2112 123.096 98.2001 122.012 97.3172C120.914 96.4218 120.54 94.7749 120.894 93.3702C121.247 91.9648 122.225 90.7984 123.377 89.9791C124.529 89.1599 125.837 88.6007 126.799 88.2705Z" fill="#E1DDE8"/>
<path d="M108.585 79.2893C127.531 79.2893 142.825 63.9351 142.744 44.9947C142.664 26.0544 127.239 10.7002 108.293 10.7002C89.3468 10.7002 74.0532 26.0544 74.1339 44.9947C74.2146 63.9351 89.6389 79.2893 108.585 79.2893Z" fill="#28AEFB"/>
<path d="M105.762 53.4384C104.949 53.002 104.37 52.2377 103.747 51.5808C103.431 51.2483 103.098 50.9294 102.716 50.6747C102.309 50.404 101.867 50.2481 101.401 50.1137C100.879 49.9629 100.389 49.8061 99.977 49.4361C99.637 49.1308 99.3497 48.7628 98.959 48.5179C98.107 47.9831 97.3552 48.5286 96.6 48.9388C96.1836 49.165 95.7326 49.2896 95.2696 49.1224C94.8689 48.9777 94.5375 48.6869 94.2308 48.3994C93.5339 47.7457 92.9292 47.0991 91.9976 46.7881C91.0557 46.4739 89.7483 46.3363 89.2507 45.3314C88.9776 44.7788 89.2113 44.2094 89.5466 43.7472C89.8791 43.2897 90.2829 42.866 90.7565 42.5541C91.1811 42.275 91.7273 42.062 92.2271 42.275C92.6442 42.453 92.9412 42.8908 93.4465 42.7494C93.6692 42.6871 93.8442 42.5354 94.0418 42.4239C94.232 42.3162 94.443 42.2624 94.6618 42.2549C95.0795 42.2408 95.5018 42.408 95.821 42.674C96.1411 42.9409 96.3464 43.3029 96.373 43.7205C96.3856 43.9144 96.6896 43.9284 96.7164 43.7341C96.9281 42.1968 97.8129 40.8651 98.6422 39.5937C99.417 38.4058 100.404 37.1218 101.913 36.919C102.689 36.8151 103.272 37.1349 103.949 37.4538C104.459 37.694 105.051 37.8607 105.581 37.5854C106.401 37.1593 106.564 36.019 106.265 35.2193C106.186 35.0085 106.071 34.8236 105.933 34.6475C105.739 34.4012 105.431 34.0828 105.411 33.7531C105.387 33.3682 105.834 33.3921 106.104 33.3949C106.365 33.3977 106.629 33.3771 106.843 33.2128C107.213 32.929 107.232 32.4017 107.118 31.9868C106.962 31.4184 106.532 31.0761 106.079 30.7356C105.551 30.339 105.138 29.9527 105.012 29.2803C104.914 28.7535 104.919 28.1536 104.588 27.7013C104.259 27.2499 103.725 27.1534 103.2 27.1436C102.68 27.1338 101.985 27.2555 101.597 26.8163C101.365 26.5536 101.294 26.1865 101.069 25.9168C100.899 25.7131 100.663 25.5824 100.396 25.5656C99.8543 25.5309 99.3416 25.9149 99.0949 26.3743C98.6985 27.1118 98.9965 28.0225 99.1295 28.7891C99.1584 28.9553 99.1811 29.1333 99.1889 29.3135C99.1053 29.8047 98.9312 30.2796 98.6787 30.708C98.6698 30.7146 98.6638 30.7235 98.6544 30.73C98.6049 30.7656 98.5859 30.8124 98.5852 30.8593C98.3902 31.1585 98.159 31.4329 97.8851 31.6628C97.6508 31.8595 97.3663 32.036 97.0511 32.0468C96.7616 32.0566 96.4477 31.9161 96.3518 31.6253C96.2479 31.3111 96.3554 30.9398 96.3892 30.6205C96.4207 30.3254 96.4415 30.022 96.3966 29.727C96.3537 29.4447 96.2514 29.174 96.0743 28.9474C95.8808 28.6996 95.6242 28.51 95.433 28.2604C95.1065 27.8343 94.9487 27.3024 94.9469 26.7695C94.9447 26.2375 95.1105 25.6934 95.4389 25.2734C95.7413 24.8861 96.1692 24.6178 96.6067 24.4062C97.449 23.9988 98.4209 23.7651 99.1453 23.1475C99.4869 22.8562 99.7869 22.4666 99.873 22.0161C99.9697 21.5104 99.7511 20.9907 99.2008 20.9036C98.8755 20.852 98.5244 20.9045 98.1985 20.9302C97.8188 20.9602 97.4395 21.0014 97.0627 21.0539C96.6999 21.1044 96.339 21.1658 95.9796 21.237C95.622 21.3077 95.2607 21.3887 94.894 21.3915C94.1909 21.3971 93.6257 20.9775 92.9876 20.7476C92.3252 20.5084 91.6215 20.4671 90.9366 20.3271C89.4542 20.0246 88.1044 19.1832 87.1242 18.0312C84.4717 20.1258 82.1398 22.6066 80.2096 25.3876C80.3353 25.8531 80.4057 26.3312 80.4474 26.762C80.5327 27.6507 80.5763 28.547 80.8493 29.4048C81.1081 30.2163 81.5258 30.9688 81.7682 31.786C82.3024 33.5869 81.9208 35.4885 81.819 37.3185C81.7194 39.11 82.0003 40.8506 82.5126 42.5672C82.7716 43.4349 83.0774 44.2881 83.3944 45.1361C83.5687 45.6029 83.7912 46.6949 84.4837 46.6383C85.0653 46.5905 85.0809 45.8525 84.9807 45.425C84.7722 44.5339 84.4705 43.6554 84.2157 42.7765C84.0018 42.0385 83.6917 40.8309 84.6207 40.4324C85.4314 40.0845 85.9487 41.3207 86.1525 41.8892C86.4403 42.6904 86.5204 43.5656 86.3773 44.4033C86.2613 45.0837 86.0079 45.7636 86.0789 46.4641C86.1468 47.1351 86.5862 47.5687 87.2258 47.7368C87.9344 47.9237 88.6845 47.9714 89.4081 48.0735C90.1126 48.1732 90.8274 48.2922 91.4923 48.5568C92.1651 48.8246 92.7079 49.2399 93.1483 49.814C93.5232 50.3029 93.8559 50.8671 94.3675 51.2296C94.8966 51.6047 95.4514 51.5536 96.0634 51.5016C96.3186 51.4801 96.6903 51.4272 96.8939 51.6281C97.21 51.9409 96.8521 52.3679 96.6274 52.6053C96.3928 52.853 96.1385 53.0741 95.9406 53.3546C95.7492 53.6257 95.595 53.9216 95.4858 54.2354C95.2674 54.8628 95.2062 55.5512 95.3368 56.2058C95.478 56.9143 95.8532 57.4481 96.2412 58.0419C96.4727 58.3959 96.657 58.7672 96.6284 59.2003C96.6068 59.5281 96.5306 59.8854 96.7281 60.1785C96.9266 60.4731 97.2842 60.5236 97.5813 60.6711C97.8836 60.821 98.1338 61.0556 98.3256 61.3314C99.3125 62.753 98.6704 64.517 98.2913 66.0201C97.9366 67.4258 97.8674 68.8793 98.1092 70.3131C98.3427 71.6964 98.8416 73.0314 99.5723 74.2311C100.279 75.3909 101.254 76.5583 102.417 77.2855C102.853 77.5585 103.607 77.7767 103.909 77.204C104.183 76.6838 103.677 76.2502 103.322 75.9379C103.065 75.7108 102.773 75.4799 102.67 75.1381C102.554 74.7536 102.652 74.3322 102.737 73.9524C102.883 73.3034 103.007 72.7092 102.679 72.0878C102.471 71.6931 102.106 71.4107 101.669 71.4838C101.491 71.0253 102.2 70.6521 102.516 70.4728C102.953 70.2246 103.222 69.9296 103.339 69.4323C103.402 69.1663 103.445 68.9069 103.607 68.6794C103.74 68.4935 103.916 68.3446 104.097 68.2078C104.46 67.9325 104.859 67.6979 105.165 67.3546C105.831 66.6096 105.975 65.5682 106.175 64.6261C106.362 63.7406 106.711 62.6388 107.629 62.2651C108.492 61.9139 109.505 62.3335 110.34 61.8704C111.103 61.4466 111.147 60.5761 111.074 59.7988C111.033 59.3614 110.958 58.9203 110.983 58.4801C111.014 57.9454 111.242 57.5914 111.603 57.2116C111.916 56.8824 112.173 56.5355 112.197 56.0658C112.219 55.6551 112.075 55.2477 111.845 54.9101C110.478 52.9069 107.598 54.4231 105.764 53.4379L105.762 53.4384Z" fill="#42D576"/>
<path d="M140.715 49.7127C140.308 49.7417 139.896 49.6846 139.532 49.4898C139.155 49.2879 138.889 48.9503 138.678 48.5869C138.429 48.158 138.234 47.6954 138.021 47.2477C137.797 46.7762 137.574 46.3051 137.35 45.8336C137.126 45.362 136.901 44.891 136.678 44.4194C136.542 44.1319 136.431 43.8111 136.467 43.4885C136.51 43.1027 136.852 43.0217 137.112 43.3129C137.347 43.5761 137.464 43.9554 137.58 44.2817C137.81 44.9308 137.975 45.6079 138.285 46.2264C138.572 46.8005 138.997 47.2955 139.624 47.4973C140.434 47.7577 141.297 47.435 141.961 46.9682C142.241 46.771 142.491 46.55 142.723 46.3154C142.738 45.8767 142.747 45.4365 142.745 44.9935C142.707 36.0666 139.259 27.9371 133.642 21.8356C133.565 21.8768 133.486 21.9134 133.403 21.9382C132.834 22.1086 132.347 21.7158 131.812 21.5879C130.739 21.3309 129.707 21.9443 128.982 22.6813C128.211 23.4647 127.765 24.4766 127.206 25.4071C126.929 25.8692 126.618 26.3192 126.228 26.6953C125.871 27.0399 125.446 27.2796 125.004 27.4979C124.178 27.9057 123.127 28.3388 122.979 29.37C122.965 29.4603 123.025 29.5573 123.12 29.5709C124.135 29.7132 125.15 29.8556 126.164 29.9974C126.665 30.0677 127.169 30.1613 127.672 30.2039C128.013 30.233 128.356 30.1819 128.628 29.9618C129.096 29.583 129.222 28.9232 129.295 28.3576C129.339 28.0106 129.357 27.6603 129.412 27.3148C129.485 26.8638 129.608 26.4223 129.782 26.0004C129.951 25.5892 130.724 23.8599 131.272 24.7861C131.702 25.5134 130.858 26.2382 130.67 26.9027C130.491 27.5381 130.702 28.2213 131.401 28.3684C131.595 28.4091 131.808 28.4255 131.916 28.6161C132.015 28.7907 132.001 29.0122 131.923 29.1911C131.755 29.5793 131.352 29.8509 131.039 30.1159C130.336 30.7115 129.608 31.2922 128.769 31.6874C127.926 32.0845 127.02 32.3233 126.15 32.6506C125.42 32.9255 124.699 33.2753 124.107 33.7908C123.574 34.2549 123.018 34.9437 123.001 35.6863C122.997 35.8783 123.037 36.061 123.131 36.2295C123.226 36.4023 123.397 36.5442 123.462 36.7329C123.601 37.1394 123.14 37.4887 122.787 37.543C122.325 37.6142 121.856 37.4147 121.419 37.2939C121.057 37.1932 120.67 37.1356 120.299 37.219C119.65 37.3646 119.306 37.9612 119.455 38.5989C119.606 39.2508 120.12 39.7551 120.74 39.9738C122.311 40.5268 123.919 39.652 124.996 38.5516C125.601 37.9331 126.105 37.226 126.637 36.5447C126.866 36.2506 127.175 35.8278 127.589 35.8221C127.913 35.8179 128.093 36.0792 128.174 36.362C128.263 36.6711 128.257 37.0073 128.223 37.3234C128.213 37.4142 128.266 37.5102 128.364 37.5243C128.981 37.6137 129.478 37.2105 129.996 36.9492C130.236 36.8284 130.526 36.7076 130.789 36.8359C131.097 36.9867 131.19 37.3669 131.29 37.6648C131.518 38.3395 131.95 38.8593 132.59 39.1843C133.299 39.5434 134.113 39.5879 134.88 39.4292C135.3 39.3421 135.708 39.2035 136.101 39.0307C136.41 38.8944 137.026 38.4645 137.318 38.8265C137.541 39.1028 137.47 39.5753 137.388 39.8899C137.294 40.2486 137.105 40.5783 136.866 40.8588C136.339 41.4769 135.582 41.8145 134.781 41.8983C133.874 41.9929 133.041 41.7569 132.184 41.4951C131.802 41.3781 131.396 41.2924 130.999 41.3846C130.603 41.4764 130.279 41.7719 129.87 41.8145C128.986 41.9072 128.352 41.0831 127.935 40.4252C127.712 40.0754 127.507 39.7054 127.236 39.3889C127.043 39.1641 126.76 39.0241 126.481 39.1833C126.219 39.3336 126.109 39.6436 125.938 39.8759C125.733 40.1559 125.413 40.2594 125.08 40.3029C124.401 40.391 123.74 40.3427 123.081 40.5638C122.456 40.7735 121.893 41.1322 121.411 41.578C120.41 42.5047 119.758 43.8177 119.571 45.1672C119.518 45.554 119.523 45.9446 119.491 46.3332C119.455 46.7846 119.332 47.17 119.094 47.554C118.892 47.8794 118.682 48.1899 118.584 48.5664C118.494 48.9185 118.502 49.2931 118.581 49.6471C118.9 51.0847 120.189 52.1434 121.537 52.5925C122.234 52.8247 122.974 52.9198 123.706 52.8556C124.486 52.7873 125.168 52.5026 125.871 52.1813C126.558 51.8681 127.326 51.5773 128.047 51.9631C128.326 52.112 128.565 52.3621 128.6 52.6875C128.639 53.0476 128.445 53.3923 128.33 53.721C128.226 54.0155 128.149 54.3325 128.256 54.6388C128.379 54.989 128.711 55.1716 128.902 55.4727C129.33 56.1424 128.751 57.0264 128.484 57.6445C127.785 59.2577 128.31 60.92 129.118 62.3918C129.554 63.1864 130.06 63.9422 130.458 64.7579C130.771 65.3994 131.023 66.1318 131.78 66.3514C132.429 66.5392 133.158 66.3008 133.665 65.8836C134.3 65.3606 134.683 64.6249 135.155 63.9675C135.642 63.2899 136.214 62.6723 136.856 62.1394C137.176 61.8743 137.516 61.6421 137.857 61.4066C138.116 61.2281 138.364 61.0006 138.408 60.6723C138.495 60.0163 137.688 59.5077 138.027 58.8606C138.304 58.331 138.913 57.9512 138.771 57.2718C138.697 56.9197 138.461 56.6406 138.27 56.3456C138.068 56.0337 137.968 55.69 138.014 55.3187C138.106 54.5812 138.624 53.9331 139.222 53.5252C140.103 52.9235 141.179 52.6135 142.05 52.0287C142.24 51.0996 142.391 50.157 142.504 49.2023C141.935 49.4589 141.336 49.6677 140.714 49.7117L140.715 49.7127Z" fill="#42D576"/>
<path fill-rule="evenodd" clip-rule="evenodd" d="M142.727 40.902C142.73 41.6082 142.712 42.3095 142.673 43.0052C142.673 43.0057 142.673 43.0062 142.673 43.0067C141.661 60.9668 126.807 75.1965 108.568 75.1965C89.622 75.1965 74.1976 59.8423 74.1169 40.902C74.0363 21.9617 89.3297 6.60752 108.276 6.60742C127.222 6.60742 142.646 21.9616 142.727 40.902ZM108.276 6.60742C108.276 6.60742 108.276 6.60742 108.276 6.60742C127.222 6.60742 142.647 21.9616 142.727 40.902C142.73 41.6088 142.712 42.3105 142.673 43.0067C142.718 43.7047 142.743 44.4082 142.746 45.1168C142.827 64.0572 127.533 79.4114 108.587 79.4114C89.6407 79.4114 74.2162 64.0572 74.1353 45.1168C74.1322 44.4105 74.1506 43.7093 74.1897 43.0136C74.1443 42.3152 74.1198 41.6111 74.1168 40.902C74.0361 21.9616 89.3297 6.60742 108.276 6.60742Z" fill="#1B84BF" fill-opacity="0.4"/>
<path d="M111.422 10.8428C111.414 10.8475 111.407 10.8536 111.399 10.8582C110.524 11.3939 109.546 11.8598 108.979 12.7552C108.837 12.9781 108.721 13.2398 108.479 13.3723C108.3 13.4702 108.089 13.4941 107.889 13.5053C107.486 13.5278 107.07 13.4707 106.676 13.5774C106.29 13.6814 106.005 14.0003 105.997 14.4095C105.988 14.9359 106.367 15.3386 106.793 15.5905C107.27 15.8728 107.783 16.0522 108.232 16.3875C108.656 16.7035 109.028 17.0852 109.324 17.5239C109.948 18.4506 110.126 19.5496 109.769 20.6102C109.39 21.7364 108.619 22.6748 108.185 23.7766C107.774 24.8213 107.675 25.9737 108.349 26.9369C108.646 27.3607 109.032 27.7114 109.393 28.079C109.566 28.256 109.735 28.4382 109.885 28.6367C110.07 28.8835 110.209 29.1579 110.373 29.4182C110.637 29.8392 111.032 30.2471 111.562 30.2644C112.028 30.2794 112.378 29.9427 112.528 29.525C112.705 29.0361 112.671 28.4902 112.547 27.9915C112.474 27.7016 112.359 27.4281 112.213 27.1678C112.07 26.913 111.89 26.671 111.801 26.3895C111.62 25.8136 112.018 25.3013 112.493 25.0208C113.02 24.7089 113.651 24.6303 114.219 24.42C114.731 24.2308 115.208 23.9466 115.616 23.5861C116.03 23.2203 116.306 22.7764 116.646 22.3498C116.836 22.111 117.05 21.9504 117.339 21.8483C117.598 21.7565 117.863 21.6929 118.103 21.5529C118.488 21.3272 118.761 20.9455 118.917 20.533C119.317 19.4794 119.034 18.3996 118.936 17.3188C118.879 16.6876 118.917 16.07 119.199 15.4945C119.436 15.0108 119.787 14.5954 120.122 14.1787C120.402 13.8317 120.677 13.4749 120.894 13.0839C117.916 11.9104 114.736 11.1429 111.422 10.8432L111.422 10.8428Z" fill="#42D576"/>
<path d="M110.115 37.112C110.396 36.4115 110.472 35.7251 110.426 35.0234C110.413 34.8161 110.448 34.6401 110.629 34.5099C110.959 34.2733 111.336 34.3883 111.401 34.778C111.498 35.358 111.475 35.9463 111.348 36.5177C111.221 37.0828 111.059 37.636 110.794 38.1653C110.522 38.7076 110.141 39.138 109.671 39.4893C108.981 40.0036 108.187 40.1678 107.37 39.8993C106.987 39.7733 106.64 39.4989 106.319 39.2389C105.741 38.7695 105.38 38.1344 105.149 37.4395C104.991 36.9666 104.892 36.4719 104.801 35.9807C104.763 35.7691 104.793 35.5381 104.831 35.322C104.873 35.0797 105.034 34.9473 105.215 34.9475C105.491 34.9483 105.716 35.1096 105.766 35.3644C105.792 35.4992 105.784 35.6409 105.797 35.7785C105.862 36.4814 106.072 37.1405 106.413 37.7569C106.736 38.3401 107.189 38.7672 107.857 38.94C108.294 39.0532 108.68 38.98 109.04 38.7056C109.595 38.2829 109.947 37.7321 110.115 37.1113L110.115 37.112Z" fill="#2C2854"/>
<path d="M87.4351 44.3338C87.4283 44.3245 87.4147 44.3193 87.3971 44.317C87.3894 44.3061 87.3725 44.2975 87.3405 44.2936C86.8246 44.2344 86.2764 44.3324 85.7704 44.4933C85.0455 44.6708 84.3917 45.0275 84.1334 45.7658C84.1279 45.7821 84.1456 45.792 84.1748 45.7976C84.1728 45.8055 84.1684 45.8121 84.1667 45.82C84.1415 45.9306 84.1437 46.0426 84.1581 46.1525C84.156 46.5842 84.4007 46.9813 84.7514 47.2413C85.2231 47.5909 85.8344 47.6799 86.4056 47.6972C87.4124 47.728 88.8398 47.4747 89.2657 46.411C89.6984 45.3294 88.375 44.4505 87.4354 44.3341L87.4351 44.3338Z" fill="#F9D1E1"/>
<path d="M128.437 44.7344C128.94 45.7676 130.383 45.9252 131.385 45.8279C131.953 45.7729 132.557 45.6434 133.001 45.2635C133.332 44.9808 133.547 44.5687 133.512 44.1378C133.519 44.0273 133.513 43.9152 133.479 43.8064C133.477 43.7987 133.472 43.7922 133.47 43.7848C133.498 43.7773 133.515 43.7661 133.508 43.7504C133.196 43.0312 132.518 42.7185 131.782 42.5897C131.265 42.4628 130.711 42.4014 130.201 42.4948C130.169 42.5007 130.152 42.5104 130.146 42.5218C130.128 42.525 130.115 42.5311 130.109 42.541C129.18 42.7194 127.925 43.6842 128.436 44.7344L128.437 44.7344Z" fill="#F9D1E1"/>
<path d="M85.9191 45.2789C85.9142 45.2468 85.9036 45.2176 85.8892 45.191C85.8891 45.1228 85.8484 45.0578 85.7766 45.0451C85.6773 45.0274 85.5698 45.0299 85.4703 45.0472C85.3506 45.0683 85.2403 45.1069 85.1344 45.1664C85.1236 45.1726 85.1158 45.1818 85.1082 45.1914C85.0678 45.2156 85.0317 45.2461 85.0085 45.2888C84.9714 45.3582 84.9699 45.4575 85.0229 45.52C85.0235 45.5207 85.0244 45.5213 85.025 45.5219C85.0315 45.5729 85.0653 45.6195 85.1197 45.6291C85.2407 45.6497 85.3646 45.6629 85.4872 45.6623C85.5998 45.6614 85.7202 45.6376 85.8069 45.5621C85.8861 45.4934 85.9348 45.3847 85.9188 45.2786L85.9191 45.2789Z" fill="white"/>
<path d="M132.524 43.385C132.504 43.2514 132.38 43.1895 132.257 43.1749C132.251 43.1714 132.244 43.1669 132.238 43.1638C132.097 43.0911 131.927 43.0765 131.777 43.1276C131.76 43.1333 131.746 43.1426 131.734 43.1536C131.673 43.1564 131.621 43.2236 131.628 43.2819C131.629 43.2914 131.632 43.2985 131.635 43.3068C131.633 43.3196 131.629 43.3316 131.629 43.345C131.629 43.4267 131.676 43.5086 131.74 43.5583C131.806 43.6105 131.887 43.6332 131.971 43.6393C132.002 43.6416 132.033 43.6408 132.064 43.6416C132.131 43.6621 132.2 43.6709 132.268 43.6607C132.298 43.6566 132.327 43.6475 132.355 43.6358C132.394 43.627 132.427 43.608 132.452 43.5754C132.504 43.5277 132.537 43.463 132.524 43.3847L132.524 43.385Z" fill="white"/>
<path d="M86.6692 35.5294C86.6692 39.4806 89.8863 42.6837 93.8546 42.6837C97.823 42.6837 101.04 39.4806 101.04 35.5294C101.04 31.5781 97.823 28.375 93.8546 28.375C89.8863 28.375 86.6692 31.5781 86.6692 35.5294Z" fill="#F8F8FB"/>
<path fill-rule="evenodd" clip-rule="evenodd" d="M89.7626 31.5915C90.4359 31.9836 90.8945 32.7624 90.8945 33.659C90.8945 34.9501 89.9435 35.9968 88.7703 35.9968C88.6299 35.9968 88.4927 35.9818 88.3599 35.9532C88.5728 39.1123 91.1481 41.6075 94.2937 41.6075C97.5787 41.6075 100.242 38.8863 100.242 35.5294C100.242 32.1725 97.5787 29.4512 94.2937 29.4512C92.4787 29.4512 90.8536 30.2819 89.7626 31.5915Z" fill="#2C2854"/>
<path d="M129.781 36.3721C129.781 40.3234 126.564 43.5265 122.596 43.5265C118.627 43.5265 115.41 40.3234 115.41 36.3721C115.41 32.4209 118.627 29.2178 122.596 29.2178C126.564 29.2178 129.781 32.4209 129.781 36.3721Z" fill="#F8F8FB"/>
<path fill-rule="evenodd" clip-rule="evenodd" d="M126.687 32.4363C126.014 32.8285 125.555 33.6071 125.555 34.5036C125.555 35.7947 126.506 36.8414 127.679 36.8414C127.82 36.8414 127.957 36.8264 128.089 36.7979C127.876 39.9571 125.301 42.4523 122.156 42.4523C118.871 42.4523 116.208 39.731 116.208 36.3741C116.208 33.0172 118.871 30.2959 122.156 30.2959C123.971 30.2959 125.596 31.1266 126.687 32.4363Z" fill="#2C2854"/>
<path fill-rule="evenodd" clip-rule="evenodd" d="M51.4974 0.434482C52.0318 0.573891 52.352 1.12012 52.2126 1.65452L49.8008 10.8996C49.6614 11.434 49.1152 11.7542 48.5808 11.6148C48.0464 11.4754 47.7262 10.9292 47.8656 10.3948L50.2774 1.14968C50.4168 0.615277 50.963 0.295073 51.4974 0.434482ZM20.176 6.57731C20.6478 6.29015 21.263 6.4398 21.5502 6.91156L27.1776 16.1567C27.4648 16.6284 27.3151 17.2436 26.8434 17.5308C26.3716 17.818 25.7564 17.6683 25.4692 17.1966L19.8418 7.95146C19.5546 7.4797 19.7043 6.86447 20.176 6.57731ZM77.7883 18.1109C78.1061 18.5626 77.9976 19.1864 77.546 19.5042L66.693 27.1415C66.2414 27.4593 65.6176 27.3508 65.2997 26.8992C64.9819 26.4475 65.0904 25.8237 65.542 25.5059L76.395 17.8686C76.8466 17.5508 77.4704 17.6593 77.7883 18.1109ZM1.22679 32.5511C1.33943 32.0104 1.86905 31.6634 2.40972 31.7761L12.0568 33.7859C12.5975 33.8985 12.9444 34.4281 12.8318 34.9688C12.7192 35.5095 12.1895 35.8565 11.6489 35.7438L2.00181 33.734C1.46114 33.6214 1.11415 33.0918 1.22679 32.5511ZM71.1577 47.481C71.2387 46.9347 71.7472 46.5574 72.2935 46.6384L83.1464 48.2462C83.6928 48.3272 84.07 48.8357 83.9891 49.382C83.9081 49.9283 83.3997 50.3056 82.8533 50.2246L72.0004 48.6168C71.4541 48.5359 71.0768 48.0274 71.1577 47.481ZM17.5026 57.1133C17.8137 57.5696 17.696 58.1917 17.2397 58.5028L8.39656 64.5322C7.94024 64.8434 7.31811 64.7257 7.00699 64.2694C6.69587 63.813 6.81357 63.1909 7.26988 62.8798L16.113 56.8504C16.5693 56.5393 17.1915 56.657 17.5026 57.1133ZM58.336 65.6821C58.7986 65.3804 59.4182 65.5109 59.7199 65.9735L65.7493 75.2186C66.051 75.6812 65.9205 76.3008 65.4579 76.6025C64.9953 76.9042 64.3757 76.7737 64.074 76.3111L58.0446 67.066C57.7429 66.6034 57.8734 65.9838 58.336 65.6821ZM36.5849 71.572C37.1245 71.6893 37.4669 72.2219 37.3496 72.7616L35.3398 82.0067C35.2225 82.5464 34.6899 82.8888 34.1502 82.7714C33.6105 82.6541 33.2681 82.1215 33.3855 81.5818L35.3953 72.3367C35.5126 71.7971 36.0452 71.4547 36.5849 71.572Z" fill="#FFFCFE"/>
<path fill-rule="evenodd" clip-rule="evenodd" d="M40.3285 0.00206613C40.8797 -0.0331145 41.355 0.385172 41.3902 0.936335L43.0854 27.4945L44.2254 19.3516C44.302 18.8046 44.8074 18.4233 45.3544 18.4999C45.9013 18.5765 46.2827 19.0819 46.2061 19.6289L44.15 34.3155L55.5972 13.7779C55.8661 13.2955 56.4751 13.1224 56.9575 13.3913C57.4399 13.6601 57.613 14.2692 57.3441 14.7516L47.485 32.4401L68.2086 10.76C68.5902 10.3608 69.2232 10.3465 69.6224 10.7281C70.0216 11.1098 70.0359 11.7428 69.6543 12.142L48.7288 34.0333L59.5709 27.4776L60.6252 29.177L48.7855 36.7114L71.4687 30.1861C71.9995 30.0334 72.5535 30.3399 72.7062 30.8706C72.8589 31.4014 72.5524 31.9554 72.0216 32.1081L49.4954 38.5883H81.7942C82.3465 38.5883 82.7942 39.036 82.7942 39.5883C82.7942 40.1406 82.3465 40.5883 81.7942 40.5883H50.9801L64.7399 43.8406C65.2774 43.9676 65.6101 44.5063 65.483 45.0438C65.356 45.5813 64.8173 45.914 64.2798 45.7869L48.5764 42.0752L69.4402 54.4038C69.9156 54.6848 70.0733 55.298 69.7924 55.7735C69.5114 56.2489 68.8982 56.4066 68.4227 56.1257L49.3233 44.8397L72.4373 67.0037C72.8359 67.386 72.8492 68.019 72.4669 68.4176C72.0847 68.8163 71.4517 68.8296 71.053 68.4473L49.0647 47.3626L57.2899 59.1128C57.6066 59.5653 57.4966 60.1888 57.0441 60.5055C56.5917 60.8223 55.9681 60.7122 55.6514 60.2598L45.2152 45.3509L52.6032 69.4421C52.7651 69.9702 52.4683 70.5295 51.9403 70.6914C51.4123 70.8533 50.853 70.5565 50.6911 70.0285L43.9949 48.1932L46.2134 80.5198C46.2512 81.0708 45.8352 81.5481 45.2842 81.5859C44.7332 81.6237 44.2559 81.2077 44.2181 80.6567L41.9945 48.2556L39.3692 64.2697C39.2799 64.8147 38.7656 65.1841 38.2206 65.0947C37.6756 65.0054 37.3062 64.4911 37.3956 63.9461L40.306 46.1924L29.6349 68.1624C29.3936 68.6592 28.7952 68.8663 28.2985 68.625C27.8017 68.3837 27.5946 67.7854 27.8358 67.2886L36.3905 49.6762L31.9594 55.8479C31.6373 56.2966 31.0125 56.3992 30.5639 56.0771C30.2894 55.88 30.1444 55.5695 30.1471 55.2555L17.0303 70.3903C16.6686 70.8076 16.037 70.8527 15.6196 70.491C15.2023 70.1293 15.1572 69.4978 15.5189 69.0804L32.4773 49.513L24.9687 56.0204C24.5514 56.3821 23.9198 56.337 23.5581 55.9197C23.1964 55.5023 23.2415 54.8708 23.6589 54.5091L37.4817 42.5292L14.2183 51.3759C13.702 51.5722 13.1244 51.3129 12.9281 50.7967C12.7318 50.2804 12.9911 49.7028 13.5074 49.5065L23.241 45.805C22.7508 45.8715 22.2755 45.5655 22.1427 45.0752C21.9983 44.5421 22.3134 43.9929 22.8465 43.8485L31.283 41.5636L1.08711 44.2021C0.536919 44.2502 0.0519306 43.8432 0.00385591 43.293C-0.0442189 42.7428 0.362825 42.2578 0.913013 42.2097L31.1397 39.5685L20.2036 38.5744C19.6536 38.5244 19.2483 38.0379 19.2983 37.4879C19.3483 36.9379 19.8347 36.5326 20.3847 36.5826L35.485 37.9553L15.8092 27.6106L16.7163 25.8284L36.1959 35.4183L13.1991 15.0127C12.786 14.6462 12.7483 14.0141 13.1148 13.601C13.4814 13.1879 14.1134 13.1502 14.5265 13.5168L32.4383 29.4103L27.9734 24.1575C27.6157 23.7367 27.6669 23.1056 28.0877 22.7479C28.5085 22.3902 29.1396 22.4414 29.4973 22.8622L39.8608 35.0546L32.6088 12.9689C32.4365 12.4441 32.7222 11.8791 33.2469 11.7068C33.7716 11.5345 34.3367 11.8202 34.509 12.3449L41.4669 33.5349L39.3942 1.06374C39.3591 0.512572 39.7774 0.0372468 40.3285 0.00206613Z" fill="#F0CF6F"/>
</svg>
