<svg fill="none" height="103" viewBox="0 0 142 103" width="142" xmlns="http://www.w3.org/2000/svg">
    <path
        d="M119.121 7.65469C118.042 6.00878 115.827 6.04533 114.444 7.2803C113.597 8.03597 113.157 9.11848 112.673 10.1153C112.119 11.2538 111.565 12.3922 111.01 13.5301C110.929 13.6965 110.881 13.8624 110.86 14.0245C105.306 19.3394 99.0919 23.8992 92.3285 27.5806C90.6567 28.4903 91.9966 31.1258 93.6695 30.2144C101.078 26.1817 107.896 21.1288 113.889 15.1988C115.528 15.0845 116.94 13.9371 118.063 12.7935C119.406 11.4249 120.29 9.43592 119.121 7.65469Z"
        fill="#3A285B" />
    <path
        d="M34.6619 40.4052C26.7231 44.7693 19.7125 50.6647 14.0688 57.7483C12.6515 59.527 11.4437 61.526 9.85592 63.1602C8.30851 64.7527 6.39756 65.317 4.48995 66.3249C2.86595 67.183 1.556 68.4523 1.14741 70.2934C0.805723 71.8342 1.16508 73.6039 2.55173 74.5316C4.50759 75.8415 6.92755 74.836 8.52371 73.4387C10.4086 71.7886 11.469 69.4715 11.7288 67.0095C11.781 66.5121 11.5922 66.136 11.287 65.8867C13.882 63.5748 15.6547 60.3318 17.908 57.7101C20.2687 54.9629 22.8657 52.4141 25.646 50.0922C28.8717 47.3981 32.3503 45.0468 36.0319 43.0227C37.6994 42.106 36.3325 39.4853 34.6613 40.404L34.6619 40.4052ZM5.03511 69.653C4.85214 69.7757 4.66369 69.8925 4.46947 70.0043C4.75679 69.6422 5.14403 69.3523 5.56338 69.1069C5.38556 69.2866 5.20971 69.4701 5.03511 69.653Z"
        fill="#3A285B" />
    <path
        d="M51.1702 68.8444C51.0868 68.2983 50.5767 67.9232 50.0309 68.0067C49.4851 68.0901 49.1102 68.6005 49.1936 69.1466L51.1702 68.8444ZM49.1936 69.1466L51.4843 84.1484L53.4609 83.8462L51.1702 68.8444L49.1936 69.1466Z"
        fill="#3A285B" />
    <path
        d="M73.6292 69.7613C73.4261 69.2476 72.8453 68.9958 72.3318 69.1989C71.8183 69.4019 71.5667 69.983 71.7697 70.4967L73.6292 69.7613ZM71.7697 70.4967L78.0415 86.3656L79.901 85.6302L73.6292 69.7613L71.7697 70.4967Z"
        fill="#3A285B" />
    <path
        d="M46.5737 89.1464C44.335 88.6377 41.9994 88.3915 39.7499 88.8482C37.5004 89.3049 35.3344 90.5307 34.0638 92.4899C32.7932 94.4491 32.5699 97.1806 33.8183 99.1554C35.1345 101.237 37.6751 102.083 40.0562 102.507C45.8549 103.539 51.9023 102.921 57.4473 100.895C59.1488 100.273 60.887 99.4568 61.9494 97.9576C63.2055 96.1841 63.2561 93.6981 62.3943 91.6915C61.5324 89.6855 59.8695 88.1278 58.1066 86.9968C54.4929 88.2785 50.7298 89.1184 46.5737 89.1457V89.1464Z"
        fill="#9C93AD" />
    <path
        d="M46.5737 88.1469C44.335 87.6382 41.9994 87.392 39.7499 87.8487C37.5004 88.3054 35.3344 89.5312 34.0638 91.4904C32.7932 93.4496 32.5699 96.1811 33.8183 98.1559C35.1345 100.237 37.6751 101.084 40.0562 101.507C45.8549 102.539 51.9023 101.921 57.4473 99.8956C59.1488 99.2739 60.887 98.4573 61.9494 96.958C63.2055 95.1846 63.2561 92.6986 62.3943 90.692C61.5324 88.686 59.8695 87.1283 58.1066 85.9973C54.4929 87.279 50.7298 88.1189 46.5737 88.1462V88.1469Z"
        fill="white" />
    <path
        d="M51.994 80.2606C50.5404 80.5274 49.0716 80.7988 47.7167 81.3902C46.3624 81.9817 45.112 82.9306 44.445 84.2488C43.7781 85.5671 43.7978 87.2829 44.7305 88.4283C45.7724 89.7085 47.6022 89.993 49.2532 89.9983C52.0499 90.0068 54.8467 89.4726 57.4428 88.4343C58.7754 87.9013 60.1521 87.1377 60.721 85.8201C61.2972 84.4848 60.8499 82.8504 59.8515 81.7924C58.853 80.7344 57.3968 80.1975 55.9491 80.0529C54.5007 79.9083 53.0333 80.07 51.994 80.2606Z"
        fill="#E1DDE8" />
    <path
        d="M85.4239 87.8961C87.1146 86.4254 89.0072 85.1281 91.148 84.4576C93.2883 83.7871 95.7083 83.797 97.6944 84.838C99.6804 85.879 101.119 88.0529 100.948 90.2843C100.768 92.6362 98.9728 94.5298 97.1211 95.9969C92.6128 99.5687 87.1363 101.879 81.4499 102.782C79.7047 103.058 77.8393 103.19 76.2421 102.435C74.3538 101.543 73.1751 99.4928 72.9992 97.4157C72.8234 95.3387 73.5403 93.2622 74.5383 91.4945C78.2275 90.8746 81.8424 89.8163 85.4239 87.8967V87.8961Z"
        fill="#9C93AD" />
    <path
        d="M85.4239 86.8959C87.1146 85.4251 89.0072 84.1279 91.148 83.4574C93.2883 82.7868 95.7083 82.7967 97.6944 83.8377C99.6804 84.8787 101.119 87.0527 100.948 89.2841C100.768 91.6359 98.9728 93.5296 97.1211 94.9966C92.6128 98.5685 87.1363 100.879 81.4499 101.782C79.7047 102.058 77.8393 102.19 76.2421 101.435C74.3538 100.543 73.1751 98.4925 72.9992 96.4155C72.8234 94.3384 73.5403 92.262 74.5383 90.4943C78.2275 89.8744 81.8424 88.8161 85.4239 86.8965V86.8959Z"
        fill="white" />
    <path
        d="M77.0249 82.0907C78.3746 81.6274 79.7388 81.1603 81.1536 81.0309C82.5691 80.9009 84.061 81.1372 85.2312 81.9778C86.4013 82.8185 87.1757 84.3408 86.9165 85.7984C86.6276 87.4269 85.2154 88.5573 83.8246 89.3557C81.4691 90.7071 78.8632 91.5807 76.1942 91.9133C74.8243 92.0835 73.3108 92.0723 72.2241 91.1848C71.1222 90.2848 70.7473 88.6292 71.102 87.2171C71.4567 85.8043 72.4378 84.6318 73.5928 83.8083C74.7478 82.9848 76.0595 82.4226 77.0249 82.0907Z"
        fill="#E1DDE8" />
    <path
        d="M58.7554 73.0632C77.7576 73.0632 93.0965 57.6284 93.0158 38.5887C92.9351 19.549 77.4654 4.11426 58.4632 4.11426C39.461 4.11426 24.122 19.549 24.2027 38.5887C24.2834 57.6284 39.7531 73.0632 58.7554 73.0632Z"
        fill="#28AEFB" />
    <path
        d="M55.925 47.0765C55.11 46.6378 54.5293 45.8696 53.904 45.2092C53.5874 44.875 53.2534 44.5544 52.8699 44.2983C52.4619 44.0263 52.0187 43.8695 51.5511 43.7344C51.0276 43.5828 50.536 43.4252 50.1229 43.0533C49.7819 42.7464 49.4938 42.3764 49.1019 42.1302C48.2474 41.5927 47.4934 42.141 46.7359 42.5534C46.3183 42.7807 45.866 42.9059 45.4016 42.7379C44.9997 42.5925 44.6673 42.3001 44.3598 42.0111C43.6607 41.354 43.0543 40.7039 42.1199 40.3914C41.1753 40.0755 39.864 39.9371 39.365 38.927C39.0911 38.3715 39.3254 37.7991 39.6617 37.3345C39.9951 36.8746 40.4002 36.4486 40.8752 36.1351C41.301 35.8546 41.8488 35.6404 42.3501 35.8546C42.7685 36.0335 43.0663 36.4736 43.5731 36.3314C43.7964 36.2688 43.972 36.1163 44.1702 36.0043C44.361 35.896 44.5726 35.8419 44.792 35.8344C45.211 35.8202 45.6345 35.9883 45.9546 36.2556C46.2757 36.524 46.4816 36.8878 46.5083 37.3077C46.5209 37.5026 46.8258 37.5167 46.8527 37.3214C47.065 35.776 47.9524 34.4373 48.7841 33.1593C49.5612 31.965 50.5507 30.6743 52.065 30.4705C52.8425 30.366 53.4278 30.6875 54.1066 31.0081C54.6183 31.2496 55.2124 31.4171 55.7439 31.1403C56.5656 30.712 56.7289 29.5658 56.4296 28.7618C56.3507 28.55 56.2352 28.3641 56.0964 28.1871C55.9018 27.9395 55.5932 27.6194 55.5729 27.288C55.5492 26.9011 55.9975 26.9251 56.2676 26.9279C56.5303 26.9307 56.7942 26.91 57.0091 26.7448C57.38 26.4595 57.3998 25.9295 57.2853 25.5124C57.1288 24.941 56.6974 24.5969 56.2426 24.2547C55.7129 23.856 55.2992 23.4676 55.1728 22.7917C55.0742 22.2621 55.0792 21.6591 54.7479 21.2044C54.4171 20.7507 53.8821 20.6537 53.3559 20.6438C52.8344 20.6339 52.1368 20.7563 51.7478 20.3148C51.5151 20.0507 51.4435 19.6817 51.2178 19.4105C51.0473 19.2058 50.8104 19.0744 50.5435 19.0575C49.9998 19.0227 49.4857 19.4086 49.2382 19.8704C48.8406 20.6118 49.1395 21.5274 49.2729 22.2979C49.3018 22.465 49.3247 22.6439 49.3325 22.8251C49.2486 23.3189 49.074 23.7962 48.8208 24.2269C48.8119 24.2335 48.8058 24.2425 48.7964 24.249C48.7468 24.2848 48.7277 24.3319 48.727 24.379C48.5314 24.6797 48.2996 24.9556 48.0248 25.1867C47.7898 25.3844 47.5045 25.5619 47.1883 25.5727C46.898 25.5826 46.5831 25.4414 46.487 25.149C46.3828 24.8332 46.4906 24.4599 46.5245 24.1389C46.5561 23.8423 46.5769 23.5373 46.532 23.2408C46.4889 22.9569 46.3863 22.6848 46.2087 22.457C46.0145 22.208 45.7572 22.0174 45.5654 21.7665C45.238 21.3381 45.0798 20.8034 45.078 20.2677C45.0757 19.733 45.242 19.186 45.5714 18.7638C45.8747 18.3745 46.3038 18.1048 46.7427 17.892C47.5875 17.4825 48.5622 17.2476 49.2887 16.6267C49.6313 16.3339 49.9322 15.9423 50.0186 15.4894C50.1156 14.9811 49.8963 14.4586 49.3444 14.371C49.0181 14.3192 48.666 14.372 48.3392 14.3978C47.9583 14.428 47.5779 14.4694 47.2 14.5221C46.8361 14.573 46.4741 14.6346 46.1137 14.7062C45.755 14.7772 45.3927 14.8587 45.0249 14.8615C44.3197 14.8672 43.7528 14.4454 43.1129 14.2143C42.4485 13.9737 41.7427 13.9323 41.0557 13.7916C39.569 13.4875 38.2152 12.6416 37.2322 11.4836C34.5718 13.5892 32.233 16.083 30.2971 18.8786C30.4232 19.3465 30.4938 19.8271 30.5356 20.2602C30.6211 21.1536 30.6649 22.0545 30.9387 22.9169C31.1982 23.7327 31.6172 24.4891 31.8603 25.3105C32.396 27.1209 32.0133 29.0325 31.9112 30.872C31.8113 32.673 32.0931 34.4227 32.6069 36.1483C32.8667 37.0206 33.1733 37.8782 33.4913 38.7307C33.6661 39.2 33.8893 40.2977 34.5839 40.2407C35.1671 40.1927 35.1828 39.4509 35.0823 39.0211C34.8732 38.1253 34.5706 37.2423 34.315 36.3587C34.1005 35.6169 33.7895 34.4029 34.7212 34.0023C35.5344 33.6526 36.0531 34.8953 36.2576 35.4667C36.5462 36.2721 36.6265 37.1519 36.483 37.994C36.3666 38.678 36.1126 39.3614 36.1837 40.0656C36.2519 40.7402 36.6925 41.1761 37.334 41.3451C38.0447 41.5329 38.797 41.5809 39.5228 41.6835C40.2293 41.7838 40.9463 41.9033 41.6131 42.1693C42.2879 42.4385 42.8323 42.8561 43.274 43.4332C43.6501 43.9246 43.9837 44.4918 44.4968 44.8561C45.0274 45.2332 45.5839 45.1819 46.1977 45.1296C46.4537 45.108 46.8264 45.0548 47.0307 45.2567C47.3478 45.5712 46.9888 46.0005 46.7634 46.2391C46.5281 46.4881 46.273 46.7103 46.0746 46.9923C45.8827 47.2648 45.728 47.5623 45.6184 47.8777C45.3994 48.5084 45.338 49.2004 45.469 49.8585C45.6106 50.5707 45.9869 51.1073 46.3761 51.7041C46.6082 52.06 46.7931 52.4333 46.7644 52.8687C46.7428 53.1982 46.6663 53.5574 46.8644 53.852C47.0634 54.1481 47.4221 54.199 47.7201 54.3472C48.0233 54.4979 48.2742 54.7337 48.4666 55.0109C49.4565 56.44 48.8124 58.2132 48.4322 59.7242C48.0765 61.1373 48.0071 62.5984 48.2495 64.0398C48.4838 65.4303 48.9842 66.7723 49.717 67.9783C50.4257 69.1442 51.4037 70.3178 52.57 71.0488C53.0076 71.3232 53.7635 71.5426 54.0664 70.9669C54.3414 70.4439 53.8335 70.008 53.478 69.6941C53.2195 69.4658 52.9273 69.2337 52.8239 68.8901C52.7076 68.5036 52.8054 68.08 52.8912 67.6982C53.0373 67.0458 53.1616 66.4484 52.8334 65.8238C52.6245 65.427 52.2578 65.1431 51.8203 65.2166C51.6417 64.7557 52.3523 64.3806 52.6691 64.2003C53.1077 63.9508 53.3771 63.6543 53.4952 63.1544C53.5584 62.887 53.6015 62.6262 53.764 62.3975C53.8966 62.2106 54.0736 62.0609 54.2548 61.9234C54.6196 61.6467 55.0188 61.4108 55.3265 61.0658C55.9946 60.3169 56.1391 59.27 56.3389 58.3229C56.5268 57.4328 56.8763 56.3252 57.7974 55.9496C58.6626 55.5965 59.6792 56.0183 60.5163 55.5527C61.2821 55.1267 61.3263 54.2517 61.2525 53.4703C61.2111 53.0306 61.136 52.5872 61.1618 52.1447C61.1929 51.6072 61.4215 51.2513 61.7835 50.8696C62.0973 50.5387 62.3552 50.1898 62.3795 49.7177C62.4007 49.3049 62.2567 48.8954 62.026 48.556C60.6545 46.5423 57.7666 48.0664 55.9269 47.076L55.925 47.0765Z"
        fill="#42D576" />
    <path
        d="M90.9816 43.3315C90.573 43.3606 90.1598 43.3032 89.7949 43.1074C89.4167 42.9045 89.1499 42.5651 88.9383 42.1998C88.6884 41.7687 88.4924 41.3036 88.2796 40.8536C88.0549 40.3796 87.8306 39.9061 87.6059 39.432C87.3812 38.958 87.1561 38.4845 86.9323 38.0105C86.7958 37.7214 86.6849 37.399 86.7207 37.0747C86.7637 36.6868 87.1063 36.6054 87.3673 36.8981C87.6028 37.1627 87.7205 37.544 87.8365 37.8721C88.0672 38.5245 88.2331 39.2051 88.5434 39.827C88.8315 40.4041 89.2579 40.9016 89.8873 41.1045C90.6988 41.3662 91.5647 41.0419 92.2307 40.5726C92.5118 40.3744 92.7626 40.1522 92.9951 39.9164C93.0097 39.4753 93.019 39.0329 93.0172 38.5876C92.9789 29.6138 89.5212 21.4417 83.8872 15.3082C83.8103 15.3496 83.7311 15.3863 83.648 15.4113C83.077 15.5826 82.5882 15.1877 82.052 15.0592C80.9756 14.8008 79.9409 15.4174 79.2136 16.1583C78.4403 16.9458 77.9932 17.9631 77.4325 18.8984C77.154 19.363 76.8421 19.8153 76.4515 20.1933C76.0936 20.5398 75.6671 20.7808 75.2241 21.0001C74.3957 21.4101 73.3414 21.8455 73.1922 22.882C73.179 22.9729 73.2386 23.0703 73.334 23.084C74.3517 23.2271 75.3699 23.3702 76.3876 23.5128C76.8897 23.5834 77.3946 23.6776 77.8998 23.7204C78.242 23.7496 78.5852 23.6983 78.8581 23.477C79.3277 23.0962 79.4545 22.433 79.5273 21.8644C79.5718 21.5156 79.5891 21.1635 79.6449 20.8161C79.7177 20.3628 79.8412 19.9189 80.0156 19.4948C80.1853 19.0815 80.9601 17.3431 81.51 18.2742C81.9415 19.0052 81.0948 19.7339 80.9064 20.4018C80.7264 21.0406 80.9389 21.7274 81.64 21.8752C81.8346 21.9161 82.0475 21.9326 82.1559 22.1242C82.2553 22.2998 82.2412 22.5224 82.1635 22.7022C81.9947 23.0925 81.5904 23.3655 81.2768 23.6319C80.5714 24.2307 79.841 24.8143 78.9994 25.2116C78.1541 25.6108 77.246 25.8509 76.3732 26.1799C75.6405 26.4562 74.9176 26.8078 74.3236 27.3261C73.7891 27.7926 73.2321 28.485 73.2151 29.2316C73.2107 29.4246 73.2505 29.6081 73.3447 29.7776C73.4408 29.9513 73.6115 30.0939 73.6767 30.2836C73.8165 30.6922 73.3543 31.0434 72.9999 31.098C72.537 31.1695 72.0668 30.969 71.6284 30.8476C71.2648 30.7463 70.8765 30.6884 70.5044 30.7722C69.8534 30.9186 69.5092 31.5183 69.6581 32.1594C69.8103 32.8147 70.325 33.3216 70.9474 33.5415C72.5227 34.0974 74.1355 33.2181 75.2155 32.1119C75.8226 31.4901 76.3284 30.7793 76.8615 30.0944C77.0914 29.7988 77.401 29.3737 77.8163 29.3681C78.1409 29.3638 78.322 29.6265 78.4035 29.9108C78.4922 30.2215 78.4866 30.5595 78.4518 30.8772C78.4418 30.9685 78.4958 31.065 78.5936 31.0791C79.2122 31.169 79.7113 30.7638 80.2307 30.5011C80.4712 30.3796 80.7624 30.2582 81.0256 30.3872C81.3344 30.5387 81.4281 30.921 81.5285 31.2204C81.7574 31.8987 82.1904 32.4212 82.8326 32.7478C83.543 33.1089 84.3597 33.1536 85.129 32.994C85.5505 32.9065 85.9591 32.7671 86.353 32.5934C86.6639 32.4565 87.2812 32.0243 87.574 32.3882C87.7974 32.6659 87.7267 33.1409 87.6439 33.4572C87.5501 33.8178 87.3603 34.1492 87.1205 34.4311C86.5923 35.0525 85.8327 35.3919 85.0292 35.4761C84.1201 35.5712 83.2847 35.334 82.4253 35.0708C82.0414 34.9531 81.6347 34.867 81.2363 34.9597C80.8397 35.052 80.514 35.349 80.104 35.3919C79.2179 35.4851 78.5821 34.6566 78.163 33.9952C77.9398 33.6436 77.7338 33.2717 77.4623 32.9535C77.2692 32.7276 76.9853 32.5868 76.7056 32.7469C76.4426 32.898 76.3322 33.2096 76.1607 33.4431C75.9548 33.7246 75.6339 33.8286 75.2996 33.8724C74.6192 33.9609 73.9561 33.9124 73.2947 34.1346C72.6684 34.3454 72.1034 34.706 71.6205 35.1541C70.6163 36.0857 69.9618 37.4056 69.775 38.7622C69.7217 39.151 69.7262 39.5436 69.6945 39.9343C69.6579 40.3881 69.5351 40.7755 69.2962 41.1614C69.0937 41.4886 68.8827 41.8007 68.7851 42.1791C68.6941 42.5331 68.7027 42.9097 68.7818 43.2656C69.1018 44.7107 70.394 45.775 71.7466 46.2264C72.4457 46.4599 73.1879 46.5554 73.9214 46.4909C74.7038 46.4222 75.388 46.136 76.0937 45.8131C76.782 45.4982 77.5521 45.2059 78.2758 45.5937C78.5555 45.7434 78.7948 45.9948 78.83 46.3219C78.8691 46.6839 78.6752 47.0304 78.5591 47.3608C78.4552 47.6569 78.3781 47.9756 78.4855 48.2834C78.6083 48.6355 78.9412 48.8191 79.1337 49.1218C79.5626 49.7949 78.982 50.6836 78.7136 51.305C78.013 52.9266 78.5392 54.5976 79.3498 56.0771C79.7873 56.8759 80.2951 57.6356 80.6942 58.4556C81.0079 59.1005 81.26 59.8367 82.0202 60.0575C82.6707 60.2462 83.4021 60.0067 83.91 59.5872C84.5467 59.0615 84.9316 58.322 85.4051 57.6611C85.8932 56.9799 86.4669 56.3591 87.1111 55.8234C87.4318 55.557 87.7723 55.3235 88.1147 55.0867C88.3742 54.9074 88.6236 54.6786 88.6673 54.3486C88.7547 53.6891 87.945 53.1779 88.2852 52.5274C88.5634 51.995 89.1734 51.6133 89.0309 50.9303C88.9571 50.5763 88.7201 50.2957 88.5285 49.9992C88.3261 49.6857 88.2265 49.3402 88.2723 48.9669C88.3641 48.2255 88.8842 47.574 89.4833 47.1641C90.3672 46.5592 91.4469 46.2476 92.32 45.6596C92.5106 44.7257 92.6625 43.7782 92.7759 42.8184C92.2043 43.0763 91.6038 43.2863 90.9806 43.3305L90.9816 43.3315Z"
        fill="#42D576" />
    <path clip-rule="evenodd" d="M93.0012 34.4745C93.0043 35.1867 92.9857 35.8939 92.9462 36.5954C92.9463 36.5959 92.9463 36.5963 92.9463 36.5967C91.9291 54.648 77.0326 68.9489 58.7417 68.9489C39.7395 68.9489 24.2694 53.5142 24.1883 34.4745C24.1072 15.4348 39.4457 8.21791e-05 58.4479 0C77.4501 0 92.9202 15.4347 93.0012 34.4745ZM58.4479 0C58.4479 0 58.448 0 58.448 0C77.4502 0 92.9203 15.4347 93.0014 34.4745C93.0044 35.1871 92.9859 35.8948 92.9463 36.5967C92.9915 37.2962 93.016 38.0013 93.019 38.7114C93.0999 57.7511 77.7612 73.1859 58.7589 73.1859C39.7567 73.1859 24.2868 57.7511 24.2059 38.7114C24.2029 37.9992 24.2214 37.292 24.2609 36.5904C24.2157 35.8905 24.1912 35.185 24.1882 34.4745C24.1071 15.4347 39.4457 0 58.4479 0Z"
        fill="#1B84BF"
        fill-opacity="0.4" fill-rule="evenodd" />
    <path
        d="M61.6029 4.25757C61.5949 4.26228 61.5879 4.2684 61.5799 4.27311C60.7023 4.81161 59.7215 5.27998 59.1522 6.17999C59.0103 6.40405 58.8935 6.66718 58.6507 6.80039C58.4717 6.89877 58.2599 6.92278 58.0594 6.93407C57.655 6.95667 57.238 6.89924 56.8425 7.00656C56.4553 7.11106 56.1692 7.43162 56.162 7.84303C56.153 8.37212 56.5324 8.77694 56.9596 9.03018C57.4381 9.31403 57.9528 9.49431 58.4034 9.83134C58.828 10.1491 59.2017 10.5327 59.4982 10.9738C60.1242 11.9053 60.3027 13.0101 59.9445 14.0763C59.5641 15.2084 58.7911 16.1517 58.3561 17.2593C57.9434 18.3094 57.8441 19.4679 58.5205 20.4361C58.8182 20.8621 59.2059 21.2147 59.5673 21.5842C59.7415 21.7622 59.9104 21.9453 60.0607 22.1449C60.2468 22.3929 60.3861 22.6688 60.5502 22.9305C60.8151 23.3537 61.211 23.7637 61.7429 23.7811C62.2104 23.7961 62.5613 23.4577 62.7122 23.0378C62.8891 22.5464 62.8558 21.9975 62.7305 21.4962C62.6579 21.2048 62.5421 20.9299 62.3958 20.6682C62.2524 20.4121 62.0719 20.1688 61.9828 19.8859C61.8009 19.3069 62.2008 18.7919 62.6765 18.51C63.2051 18.1965 63.8385 18.1174 64.4084 17.906C64.921 17.7159 65.3995 17.4302 65.809 17.0677C66.2246 16.7001 66.5013 16.2538 66.8424 15.825C67.0331 15.5849 67.2471 15.4235 67.537 15.3209C67.7968 15.2286 68.0629 15.1646 68.3029 15.0238C68.6895 14.797 68.9631 14.4133 69.1202 13.9986C69.5211 12.9395 69.2369 11.854 69.1388 10.7676C69.0816 10.1331 69.1198 9.51219 69.4025 8.93368C69.6405 8.44743 69.992 8.0299 70.3285 7.61096C70.6094 7.26216 70.885 6.90348 71.1027 6.51043C68.1159 5.33081 64.9261 4.5593 61.6024 4.25804L61.6029 4.25757Z"
        fill="#42D576" />
    <path
        d="M60.2914 30.665C60.5735 29.9608 60.6493 29.2708 60.604 28.5654C60.5903 28.3569 60.6254 28.18 60.8076 28.0492C61.1385 27.8113 61.5159 27.927 61.5811 28.3187C61.6783 28.9017 61.656 29.4931 61.5281 30.0675C61.4015 30.6356 61.2389 31.1917 60.9728 31.7237C60.7 32.2689 60.3177 32.7015 59.8461 33.0547C59.1547 33.5716 58.3581 33.7368 57.5386 33.4668C57.1549 33.3402 56.8062 33.0643 56.4847 32.803C55.9045 32.3311 55.5422 31.6927 55.3109 30.9941C55.153 30.5187 55.053 30.0215 54.9625 29.5276C54.9236 29.315 54.9544 29.0828 54.9919 28.8655C55.0341 28.6219 55.1952 28.4888 55.3767 28.4891C55.6542 28.4898 55.8793 28.6521 55.9298 28.9081C55.9562 29.0436 55.9481 29.1861 55.9609 29.3244C56.0257 30.031 56.2365 30.6935 56.5789 31.3132C56.9026 31.8995 57.3573 32.3288 58.0275 32.5025C58.4658 32.6163 58.8521 32.5427 59.2138 32.2669C59.77 31.842 60.1231 31.2883 60.2922 30.6643L60.2914 30.665Z"
        fill="#2C2854" />
    <path
        d="M37.5449 37.9246C37.5381 37.9152 37.5244 37.91 37.5067 37.9077C37.499 37.8968 37.4821 37.888 37.45 37.8842C36.9326 37.8247 36.3827 37.9232 35.8753 38.085C35.1482 38.2633 34.4925 38.6219 34.2334 39.3641C34.2278 39.3805 34.2457 39.3904 34.2749 39.396C34.2729 39.404 34.2685 39.4106 34.2668 39.4185C34.2415 39.5298 34.2437 39.6424 34.2582 39.7528C34.2561 40.1868 34.5015 40.5859 34.8532 40.8473C35.3263 41.1988 35.9395 41.2882 36.5123 41.3056C37.5221 41.3366 38.9537 41.082 39.3809 40.0126C39.8149 38.9254 38.4875 38.0419 37.5452 37.9249L37.5449 37.9246Z"
        fill="#F9D1E1" />
    <path
        d="M78.668 38.3272C79.1728 39.3659 80.6194 39.5244 81.6247 39.4265C82.1947 39.3712 82.8 39.241 83.2457 38.8591C83.5774 38.5749 83.7929 38.1607 83.7586 37.7276C83.7649 37.6164 83.7587 37.5038 83.7256 37.3944C83.7233 37.3867 83.7182 37.3801 83.7156 37.3727C83.7442 37.3651 83.7613 37.3539 83.7546 37.3381C83.4413 36.6151 82.7613 36.3007 82.0227 36.1713C81.5045 36.0437 80.9486 35.982 80.437 36.0759C80.4051 36.0819 80.3887 36.0916 80.382 36.1031C80.3645 36.1063 80.3515 36.1124 80.3452 36.1224C79.4138 36.3017 78.1547 37.2715 78.6677 38.3272L78.668 38.3272Z"
        fill="#F9D1E1" />
    <path
        d="M36.0258 38.8748C36.021 38.8425 36.0103 38.8131 35.9958 38.7864C35.9958 38.7178 35.9549 38.6525 35.883 38.6397C35.7833 38.6219 35.6756 38.6244 35.5758 38.6418C35.4557 38.663 35.345 38.7019 35.2388 38.7617C35.228 38.7679 35.2201 38.7772 35.2126 38.7868C35.172 38.8112 35.1358 38.8418 35.1126 38.8847C35.0753 38.9545 35.0738 39.0543 35.127 39.1172C35.1276 39.1178 35.1285 39.1184 35.1291 39.1191C35.1357 39.1704 35.1696 39.2171 35.2241 39.2268C35.3454 39.2475 35.4697 39.2608 35.5927 39.2602C35.7056 39.2593 35.8264 39.2354 35.9133 39.1595C35.9928 39.0904 36.0416 38.9811 36.0255 38.8744L36.0258 38.8748Z"
        fill="white" />
    <path
        d="M82.7673 36.9708C82.7466 36.8365 82.6228 36.7743 82.4991 36.7596C82.4928 36.756 82.4862 36.7516 82.4801 36.7484C82.3381 36.6753 82.168 36.6607 82.0173 36.712C82.0004 36.7177 81.9864 36.7272 81.9746 36.7382C81.9133 36.7409 81.8611 36.8085 81.8678 36.8672C81.8689 36.8767 81.8727 36.8839 81.8753 36.8922C81.8732 36.905 81.8695 36.9171 81.8695 36.9306C81.8697 37.0127 81.916 37.095 81.9801 37.145C82.0472 37.1975 82.1281 37.2203 82.2118 37.2264C82.243 37.2287 82.2745 37.2279 82.306 37.2287C82.3723 37.2494 82.4415 37.2581 82.5106 37.2479C82.5397 37.2438 82.569 37.2347 82.5974 37.2228C82.6361 37.214 82.6696 37.1949 82.6947 37.1622C82.7468 37.1142 82.7794 37.0492 82.767 36.9705L82.7673 36.9708Z"
        fill="white" />
    <ellipse cx="7.20663" cy="7.19189" fill="#F8F8FB" rx="7.20663"
        ry="7.19189" transform="matrix(-1 0 0 1 51.1895 21.8818)" />
    <path clip-rule="evenodd" d="M39.8784 25.1154C40.5536 25.5096 41.0137 26.2925 41.0137 27.1938C41.0137 28.4917 40.0598 29.5438 38.8831 29.5438C38.7424 29.5438 38.6048 29.5288 38.4718 29.5001C38.6855 32.6756 41.2683 35.1838 44.4231 35.1838C47.7178 35.1838 50.3887 32.4482 50.3887 29.0737C50.3887 25.6992 47.7178 22.9636 44.4231 22.9636C42.6026 22.9636 40.9726 23.7988 39.8784 25.1154Z"
        fill="#2C2854"
        fill-rule="evenodd" />
    <ellipse cx="72.8082" cy="29.9209" fill="#F8F8FB" rx="7.20663" ry="7.19189" />
    <path clip-rule="evenodd" d="M76.9124 25.9642C76.2373 26.3585 75.7773 27.1412 75.7773 28.0425C75.7773 29.3403 76.7312 30.3925 77.9079 30.3925C78.0486 30.3925 78.1862 30.3774 78.3193 30.3487C78.1058 33.5245 75.5229 36.0329 72.368 36.0329C69.0732 36.0329 66.4023 33.2973 66.4023 29.9228C66.4023 26.5483 69.0732 23.8127 72.368 23.8127C74.1883 23.8127 75.8181 24.6478 76.9124 25.9642Z"
        fill="#2C2854"
        fill-rule="evenodd" />
    <path
        d="M101.689 13.7659C102.238 13.4422 102.855 13.4511 103.457 13.4173C105.119 13.3237 106.735 13.6125 108.324 14.0591C110.423 14.6494 112.448 15.4417 114.474 16.2464C117.005 17.2511 119.433 18.4608 121.881 19.6353C124.332 20.8109 126.66 22.1992 128.92 23.7121C130.795 24.9671 132.599 26.305 134.156 27.9463C135.662 29.5339 136.786 31.3404 137.1 33.5642C137.303 34.9988 137.232 36.4319 136.954 37.8517C136.656 39.3704 136.185 40.8343 135.614 42.2769C135.203 43.315 134.799 44.3535 134.267 45.3317C132.772 48.0805 131.111 50.7223 129.095 53.1255C129.007 53.2308 128.874 53.299 128.762 53.3843C128.345 53.2993 127.932 53.2014 127.512 53.1319C125.863 52.8567 124.199 52.6525 122.566 52.3058C120.694 51.9085 118.829 51.4806 117 50.8827C115.441 50.373 113.899 49.857 112.437 49.1116C111.578 48.6737 110.718 48.2277 109.828 47.8616C108.924 47.4896 108.142 46.9124 107.383 46.3502C105.441 44.9115 103.614 43.3297 101.988 41.5152C100.179 39.4952 98.7378 37.2821 97.9021 34.6767C97.4067 33.1313 97.155 31.5563 97.0786 29.9401C97.0071 28.4274 97.1766 26.9363 97.4036 25.4451C97.7314 23.2851 98.1727 21.1573 99.075 19.1495C99.148 18.9875 99.204 18.8141 99.2425 18.6407C99.5031 17.4647 100.174 16.4727 100.685 15.409C101.202 14.9736 101.369 14.3236 101.688 13.767L101.689 13.7659Z"
        fill="#FFFCFE" />
    <path
        d="M101.692 13.7657C101.372 14.3223 101.205 14.9723 100.688 15.4077C100.178 16.4714 99.5066 17.4629 99.2458 18.6394C99.2073 18.8128 99.1513 18.9862 99.0783 19.1482C98.1757 21.1565 97.7346 23.2838 97.4068 25.4438C97.1804 26.9353 97.0112 28.4258 97.0819 29.9388C97.158 31.5555 97.4102 33.1308 97.9054 34.6754C98.7406 37.2805 100.182 39.4939 101.991 41.5139C103.616 43.3281 105.444 44.9099 107.386 46.3489C108.145 46.9111 108.927 47.4883 109.831 47.8603C110.721 48.227 111.581 48.6724 112.44 49.1103C113.903 49.8557 115.445 50.3719 117.003 50.8814C118.832 51.4793 120.697 51.907 122.569 52.3045C124.202 52.6512 125.866 52.8557 127.515 53.1306C127.934 53.2004 128.349 53.298 128.765 53.3831C127.081 55.5373 125.081 57.3011 122.561 58.4124C121.021 59.0916 119.4 59.3243 117.735 59.265C115.428 59.1822 113.198 58.6804 111.025 57.9436C108.55 57.1054 106.157 56.0627 103.827 54.8824C102.329 54.123 100.846 53.3321 99.3778 52.5158C98.8745 52.236 98.4075 52.163 97.8458 52.2915C96.5889 52.578 95.3219 52.8214 94.0543 53.0567C92.7843 53.2928 91.5025 53.4252 90.2094 53.3966C89.3764 53.3779 88.5804 53.2142 87.8355 52.8178C86.6443 52.1838 86.2172 51.106 86.6929 49.8315C87.0633 48.8394 87.6743 47.9967 88.3763 47.2179C88.8789 46.6601 89.3977 46.1166 89.9305 45.5442C89.8714 45.4008 89.8439 45.2533 89.7626 45.1479C87.7469 42.5334 87.3207 39.5576 87.8181 36.3742C88.0687 34.7725 88.4788 33.2036 89.049 31.6905C89.7457 29.8416 90.4615 27.9922 91.3088 26.2095C92.1716 24.3946 93.1996 22.6583 94.1651 20.8924C94.8916 19.5631 95.7688 18.3345 96.7422 17.1775C97.6736 16.0717 98.7212 15.0913 99.9947 14.3854C100.526 14.0909 101.068 13.8083 101.692 13.7631L101.692 13.7657Z"
        fill="#EBECF2" />
    <g filter="url(#filter0_d_2199_118343)">
        <path
            d="M119.625 39.2176C119.729 39.0017 119.819 38.7906 119.904 38.5654L122.338 38.1084C122.86 38.0131 123.22 37.5387 123.178 37.0092L122.835 33.1064C122.793 32.5769 122.354 32.1564 121.819 32.1298L119.332 31.9825C119.092 31.566 118.82 31.1685 118.51 30.7992L119.277 28.4958C119.445 27.9986 119.202 27.4416 118.72 27.2087L115.119 25.4711C114.627 25.2335 114.04 25.3899 113.755 25.8313L112.429 27.8644C111.948 27.8518 111.467 27.886 110.992 27.9576L109.329 26.102C108.975 25.6999 108.373 25.6173 107.932 25.9139L104.66 28.0839C104.219 28.3805 104.076 28.948 104.322 29.4253L105.479 31.6152C105.36 31.8124 105.251 32.0142 105.146 32.2301C105.042 32.446 104.952 32.6572 104.867 32.8824L102.433 33.3394C101.911 33.4346 101.552 33.909 101.594 34.4385L101.936 38.3414C101.978 38.8708 102.418 39.2913 102.952 39.3179L105.44 39.4653C105.679 39.8817 105.951 40.2792 106.261 40.6486L105.495 42.9519C105.326 43.4492 105.569 44.0062 106.052 44.2391L109.652 45.9766C110.135 46.2095 110.722 46.0532 111.006 45.6118L112.332 43.5787C112.814 43.5913 113.295 43.5571 113.77 43.4854L115.433 45.3411C115.786 45.7431 116.389 45.8257 116.829 45.5292L120.097 43.3685C120.538 43.072 120.681 42.5045 120.435 42.0272L119.278 39.8373C119.411 39.6353 119.521 39.4335 119.625 39.2176ZM110.839 39.0277C108.976 38.1286 108.172 35.9236 109.046 34.1121C109.92 32.3005 112.146 31.5582 114.009 32.4573C115.872 33.3563 116.677 35.5614 115.803 37.3729C114.928 39.1845 112.702 39.9268 110.839 39.0277Z"
            fill="#7F8EC1" />
    </g>
    <defs>
        <filter color-interpolation-filters="sRGB" filterUnits="userSpaceOnUse" height="28.8315" id="filter0_d_2199_118343" width="27.8301"
            x="98.4707" y="21.8081">
            <feFlood flood-opacity="0" result="BackgroundImageFix" />
            <feColorMatrix in="SourceAlpha" result="hardAlpha"
                type="matrix" values="0 0 0 0 0 0 0 0 0 0 0 0 0 0 0 0 0 0 127 0" />
            <feOffset dy="1" />
            <feComposite in2="hardAlpha" operator="out" />
            <feColorMatrix type="matrix"
                values="0 0 0 0 0.352941 0 0 0 0 0.4 0 0 0 0 0.623529 0 0 0 1 0" />
            <feBlend in2="BackgroundImageFix" mode="normal"
                result="effect1_dropShadow_2199_118343" />
            <feBlend in="SourceGraphic" in2="effect1_dropShadow_2199_118343" mode="normal"
                result="shape" />
        </filter>
    </defs>
</svg>
