<svg fill="none" height="110" viewBox="0 0 148 110" width="148" xmlns="http://www.w3.org/2000/svg">
    <path
        d="M118.77 15.1533C117.694 13.516 115.485 13.5524 114.106 14.7809C113.261 15.5326 112.823 16.6095 112.34 17.6011C111.788 18.7336 111.236 19.8661 110.682 20.9981C110.602 21.1636 110.554 21.3287 110.532 21.4899C104.995 26.7771 98.7994 31.313 92.056 34.9753C90.3891 35.8803 91.725 38.502 93.393 37.5953C100.78 33.5837 107.577 28.5571 113.553 22.6581C115.187 22.5444 116.595 21.4029 117.714 20.2653C119.054 18.9038 119.935 16.9253 118.77 15.1533Z"
        fill="#3A285B" />
    <path
        d="M111.633 81.449C112.457 80.5154 113.018 79.4149 113.385 78.2306C113.761 77.0198 113.932 75.7585 114.109 74.5072C114.309 73.0957 114.509 71.6842 114.71 70.2727C115.51 64.626 116.312 58.9794 117.113 53.3321C117.211 52.6428 117.317 51.9539 117.405 51.2626C117.473 50.7266 117.527 50.1774 117.457 49.6387C117.377 49.0305 117.158 48.4703 116.736 48.0142C116.304 47.5484 115.706 47.2795 115.108 47.0972C115.06 47.0828 115.011 47.0721 114.963 47.0583C114.357 43.3523 113.663 39.6608 112.869 35.9904C112.394 33.8008 111.893 31.6169 111.343 29.445C110.831 27.422 110.233 25.3969 109.223 23.5586C108.327 21.928 107.09 20.5164 105.488 19.5477C104.048 18.6769 102.3 18.1874 100.614 18.4481C96.3752 19.1032 94.5023 23.5202 92.9343 26.9646L87.0564 39.8764C86.8149 40.4068 86.5733 40.9372 86.3317 41.4676C86.3223 41.4876 86.3194 41.508 86.313 41.5285C84.3347 41.3893 82.3564 41.2501 80.3787 41.1115C80.1452 41.0956 79.9709 41.3048 79.9075 41.5017C78.5605 45.7002 77.654 50.0234 76.9712 54.3743C76.2927 58.6958 75.801 63.0511 75.3535 67.4024C75.1514 69.3684 75.0123 71.356 75.3434 73.3163C75.6876 75.3555 76.6211 77.19 78.0209 78.7115C80.9714 81.9197 85.3107 83.1975 89.4791 83.9151C92.9222 84.5076 96.4627 84.9312 99.9553 84.6196C102.985 85.0618 106.038 84.9852 108.874 83.5475C109.906 83.0248 110.865 82.319 111.632 81.4502L111.633 81.449ZM106.927 44.5755C105.426 44.8796 103.683 44.6035 102.183 44.4397C100.659 44.2733 99.1295 44.033 97.6357 43.6702C95.9263 43.7146 94.1295 43.6285 92.638 42.7244C92.0535 42.717 91.4785 42.2695 91.676 41.5498C92.4639 38.6756 93.4209 35.8443 94.5683 33.0937C95.6738 30.4425 96.9427 27.7078 98.729 25.4341C99.5652 24.3688 100.84 23.2308 102.312 23.546C103.555 23.8117 104.339 24.9665 104.846 26.0389C106.532 29.6 106.794 33.7774 107.214 37.6227C107.388 39.2247 107.568 40.8288 107.86 42.414C108.041 43.3968 108.119 44.3357 106.926 44.5773L106.927 44.5755Z"
        fill="#DCB2F6" />
    <path
        d="M100.876 60.2101C102.706 59.4779 104.537 58.745 106.367 58.0128C106.683 60.0707 106.52 62.2009 105.893 64.1861C104.067 63.2991 102.418 62.0524 100.875 60.2096L100.876 60.2101Z"
        fill="#15BB28" />
    <path
        d="M104.963 60.0311C104.963 60.0311 103.515 53.8606 100.461 53.3078C97.4076 52.755 93.5925 58.9167 93.5925 58.9167L95.2863 60.5914C95.2863 60.5914 98.313 55.6936 99.5891 55.8824C100.865 56.0712 102.77 60.5404 102.77 60.5404L104.963 60.0322L104.963 60.0311Z"
        fill="#15BB28" />
    <path
        d="M102.934 72.8529C102.742 74.8095 102.548 76.7665 102.355 78.7231C100.378 78.0532 98.5578 76.9254 97.0799 75.4547C98.7114 74.2491 100.582 73.3667 102.934 72.8529Z"
        fill="#15BB28" />
    <path
        d="M101.207 76.5529C101.207 76.5529 107.367 78.1198 109.269 75.6748C111.17 73.2299 107.448 67.0122 107.448 67.0122L105.175 67.7375C105.175 67.7375 108.138 72.6739 107.381 73.7158C106.624 74.7576 101.767 74.3793 101.767 74.3793L101.208 76.5522L101.207 76.5529Z"
        fill="#15BB28" />
    <path
        d="M91.8822 68.5236C90.4112 67.2144 88.9394 65.9048 87.4684 64.5956C89.1772 63.3987 91.1642 62.5989 93.2277 62.2772C93.2417 64.3017 92.853 66.3286 91.8824 68.5247L91.8822 68.5236Z"
        fill="#15BB28" />
    <path
        d="M89.9014 64.952C89.9014 64.952 84.9995 68.9861 85.8584 71.959C86.7173 74.932 93.9504 75.6017 93.9504 75.6017L94.7029 73.3451C94.7029 73.3451 88.9568 72.8177 88.5588 71.5943C88.1612 70.3703 91.3324 66.6841 91.3324 66.6841L89.9014 64.952Z"
        fill="#15BB28" />
    <path
        d="M34.5604 47.733C26.6449 52.0743 19.655 57.9389 14.0279 64.9856C12.6148 66.755 11.4105 68.7435 9.82746 70.3692C8.28461 71.9534 6.37928 72.5148 4.47729 73.5174C2.85808 74.3711 1.55199 75.6337 1.1446 77.4652C0.80392 78.998 1.16222 80.7584 2.54479 81.6813C4.49488 82.9844 6.90771 81.9841 8.49917 80.5941C10.3785 78.9526 11.4358 76.6476 11.6948 74.1984C11.7469 73.7037 11.5586 73.3295 11.2544 73.0815C13.8417 70.7817 15.6091 67.5556 17.8558 64.9475C20.2096 62.2147 22.7989 59.6792 25.571 57.3694C28.7873 54.6894 32.2555 52.3503 35.9264 50.3368C37.589 49.4249 36.226 46.8179 34.5597 47.7318L34.5604 47.733ZM5.02085 76.8281C4.83842 76.9502 4.65052 77.0663 4.45687 77.1776C4.74335 76.8174 5.12945 76.529 5.54756 76.2849C5.37026 76.4637 5.19494 76.6462 5.02085 76.8281Z"
        fill="#3A285B" />
    <path
        d="M51.0241 76.0234C50.9406 75.478 50.43 75.1032 49.8836 75.1865C49.3371 75.2697 48.9618 75.7794 49.0453 76.3249L51.0241 76.0234ZM49.0453 76.3249L51.3293 91.2484L53.3081 90.947L51.0241 76.0234L49.0453 76.3249Z"
        fill="#3A285B" />
    <path
        d="M73.4153 76.9339C73.2121 76.4209 72.6306 76.1696 72.1166 76.3727C71.6025 76.5758 71.3506 77.1564 71.5538 77.6695L73.4153 76.9339ZM71.5538 77.6695L77.8072 93.4555L79.6687 92.72L73.4153 76.9339L71.5538 77.6695Z"
        fill="#3A285B" />
    <path
        d="M46.436 96.2196C44.2039 95.7136 41.8752 95.4687 39.6323 95.923C37.3895 96.3773 35.2299 97.5967 33.963 99.5457C32.6961 101.495 32.4734 104.212 33.7182 106.176C35.0305 108.247 37.5636 109.089 39.9377 109.51C45.7193 110.537 51.7489 109.922 57.2775 107.907C58.9741 107.289 60.7072 106.476 61.7665 104.985C63.0188 103.221 63.0693 100.748 62.21 98.7515C61.3507 96.756 59.6927 95.2064 57.935 94.0813C54.3318 95.3563 50.5798 96.1918 46.436 96.219V96.2196Z"
        fill="#9C93AD" />
    <path
        d="M46.436 95.2255C44.2039 94.7195 41.8752 94.4746 39.6323 94.9289C37.3895 95.3832 35.2299 96.6026 33.963 98.5515C32.6961 100.501 32.4734 103.218 33.7182 105.182C35.0305 107.253 37.5636 108.095 39.9377 108.516C45.7193 109.543 51.7489 108.928 57.2775 106.913C58.9741 106.294 60.7072 105.482 61.7665 103.991C63.0188 102.227 63.0693 99.7535 62.21 97.7573C61.3507 95.7618 59.6927 94.2122 57.935 93.0872C54.3318 94.3621 50.5798 95.1977 46.436 95.2248V95.2255Z"
        fill="white" />
    <path
        d="M51.8415 87.3803C50.3922 87.6457 48.9277 87.9157 47.5768 88.504C46.2265 89.0924 44.9798 90.0364 44.3148 91.3477C43.6498 92.6591 43.6695 94.366 44.5994 95.5054C45.6382 96.7789 47.4627 97.062 49.1087 97.0672C51.8972 97.0757 54.6858 96.5442 57.2742 95.5113C58.6029 94.9812 59.9755 94.2215 60.5428 92.9108C61.1173 91.5824 60.6713 89.9566 59.6758 88.9041C58.6803 87.8516 57.2283 87.3175 55.7849 87.1737C54.3408 87.0299 52.8777 87.1907 51.8415 87.3803Z"
        fill="#E1DDE8" />
    <path
        d="M85.1724 94.9761C86.8581 93.513 88.7451 92.2226 90.8797 91.5556C93.0136 90.8885 95.4265 90.8984 97.4067 91.9339C99.3869 92.9695 100.821 95.1321 100.651 97.3519C100.471 99.6914 98.6814 101.575 96.8351 103.035C92.3401 106.588 86.8797 108.886 81.2101 109.784C79.47 110.059 77.6102 110.19 76.0176 109.44C74.1349 108.552 72.9596 106.512 72.7843 104.446C72.609 102.38 73.3238 100.314 74.3189 98.5557C77.9972 97.9391 81.6014 96.8863 85.1724 94.9767V94.9761Z"
        fill="#9C93AD" />
    <path
        d="M85.1724 93.981C86.8581 92.5179 88.7451 91.2275 90.8797 90.5604C93.0136 89.8934 95.4265 89.9032 97.4067 90.9388C99.3869 91.9744 100.821 94.137 100.651 96.3568C100.471 98.6963 98.6814 100.58 96.8351 102.039C92.3401 105.593 86.8797 107.891 81.2101 108.789C79.47 109.064 77.6102 109.195 76.0176 108.444C74.1349 107.557 72.9596 105.517 72.7843 103.451C72.609 101.385 73.3238 99.3191 74.3189 97.5606C77.9972 96.9439 81.6014 95.8912 85.1724 93.9816V93.981Z"
        fill="white" />
    <path
        d="M76.7981 89.2009C78.1438 88.7401 79.504 88.2754 80.9146 88.1467C82.3259 88.0174 83.8135 88.2524 84.9802 89.0887C86.1469 89.9249 86.919 91.4393 86.6606 92.8893C86.3725 94.5093 84.9644 95.6338 83.5777 96.428C81.2292 97.7724 78.631 98.6415 75.9698 98.9723C74.6039 99.1416 73.095 99.1305 72.0114 98.2476C70.9128 97.3523 70.539 95.7053 70.8926 94.3006C71.2462 92.8952 72.2245 91.7288 73.3761 90.9096C74.5277 90.0904 75.8356 89.5311 76.7981 89.2009Z"
        fill="#E1DDE8" />
    <path
        d="M58.5837 80.2204C77.5299 80.2204 92.8235 64.8662 92.7428 45.9259C92.6621 26.9855 77.2378 11.6313 58.2915 11.6313C39.3453 11.6313 24.0517 26.9855 24.1324 45.9259C24.2131 64.8662 39.6375 80.2204 58.5837 80.2204Z"
        fill="#28AEFB" />
    <path
        d="M55.7596 54.3693C54.9469 53.9329 54.368 53.1687 53.7446 52.5117C53.4288 52.1792 53.0958 51.8603 52.7135 51.6056C52.3067 51.3349 51.8648 51.179 51.3986 51.0446C50.8766 50.8938 50.3865 50.737 49.9746 50.3671C49.6346 50.0617 49.3473 49.6937 48.9565 49.4488C48.1046 48.914 47.3528 49.4596 46.5976 49.8698C46.1812 50.0959 45.7302 50.2205 45.2671 50.0533C44.8665 49.9086 44.535 49.6178 44.2284 49.3303C43.5314 48.6766 42.9268 48.03 41.9952 47.719C41.0533 47.4048 39.7458 47.2672 39.2483 46.2623C38.9752 45.7097 39.2089 45.1403 39.5441 44.6781C39.8766 44.2207 40.2805 43.7969 40.7541 43.485C41.1787 43.2059 41.7249 42.9929 42.2246 43.2059C42.6418 43.3839 42.9388 43.8217 43.444 43.6803C43.6667 43.618 43.8417 43.4663 44.0394 43.3548C44.2296 43.2471 44.4406 43.1933 44.6593 43.1858C45.0771 43.1717 45.4994 43.3389 45.8185 43.6049C46.1387 43.8718 46.344 44.2338 46.3706 44.6515C46.3831 44.8453 46.6872 44.8594 46.714 44.665C46.9257 43.1277 47.8105 41.796 48.6397 40.5247C49.4145 39.3367 50.4012 38.0527 51.9109 37.85C52.6861 37.746 53.2697 38.0658 53.9465 38.3847C54.4567 38.6249 55.049 38.7916 55.579 38.5163C56.3983 38.0902 56.5611 36.95 56.2626 36.1502C56.184 35.9394 56.0689 35.7545 55.9304 35.5784C55.7364 35.3321 55.4287 35.0137 55.4086 34.684C55.3849 34.2991 55.8319 34.323 56.1012 34.3258C56.3631 34.3286 56.6262 34.308 56.8405 34.1437C57.2103 33.8599 57.23 33.3326 57.1159 32.9177C56.9598 32.3493 56.5297 32.007 56.0763 31.6666C55.5481 31.2699 55.1356 30.8836 55.0096 30.2112C54.9113 29.6844 54.9162 29.0846 54.586 28.6322C54.2561 28.1808 53.7227 28.0844 53.198 28.0745C52.678 28.0647 51.9825 28.1864 51.5947 27.7472C51.3626 27.4845 51.2913 27.1174 51.0662 26.8477C50.8963 26.644 50.6601 26.5133 50.394 26.4965C49.8519 26.4618 49.3392 26.8458 49.0924 27.3052C48.696 28.0427 48.9941 28.9535 49.1271 29.72C49.1559 29.8862 49.1787 30.0642 49.1865 30.2445C49.1029 30.7357 48.9288 31.2105 48.6763 31.6389C48.6674 31.6455 48.6613 31.6544 48.652 31.6609C48.6025 31.6965 48.5835 31.7434 48.5828 31.7902C48.3878 32.0894 48.1566 32.3638 47.8826 32.5937C47.6483 32.7904 47.3638 32.9669 47.0486 32.9777C46.7592 32.9875 46.4452 32.847 46.3494 32.5562C46.2455 32.242 46.353 31.8707 46.3868 31.5514C46.4183 31.2564 46.439 30.9529 46.3942 30.6579C46.3513 30.3756 46.249 30.1049 46.0719 29.8783C45.8783 29.6306 45.6218 29.4409 45.4305 29.1913C45.1041 28.7652 44.9463 28.2333 44.9445 27.7004C44.9422 27.1684 45.1081 26.6243 45.4365 26.2043C45.7388 25.817 46.1668 25.5487 46.6043 25.3371C47.4466 24.9297 48.4185 24.696 49.1428 24.0784C49.4844 23.7871 49.7844 23.3975 49.8706 22.9471C49.9672 22.4413 49.7486 21.9216 49.1983 21.8345C48.8731 21.783 48.522 21.8354 48.1961 21.8612C47.8163 21.8911 47.4371 21.9323 47.0602 21.9848C46.6974 22.0354 46.3366 22.0967 45.9771 22.1679C45.6196 22.2386 45.2583 22.3196 44.8916 22.3224C44.1885 22.328 43.6232 21.9085 42.9852 21.6785C42.3228 21.4393 41.6191 21.398 40.9341 21.258C39.4517 20.9555 38.1019 20.1141 37.1218 18.9622C34.4692 21.0567 32.1373 23.5375 30.2072 26.3185C30.3328 26.784 30.4033 27.2621 30.4449 27.6929C30.5302 28.5817 30.5739 29.4779 30.8469 30.3358C31.1056 31.1472 31.5234 31.8998 31.7657 32.7169C32.2999 34.5178 31.9183 36.4194 31.8165 38.2494C31.7169 40.041 31.9979 41.7815 32.5102 43.4981C32.7692 44.3658 33.0749 45.219 33.3919 46.067C33.5663 46.5339 33.7888 47.6258 34.4813 47.5692C35.0628 47.5214 35.0784 46.7834 34.9782 46.3559C34.7697 45.4648 34.4681 44.5864 34.2133 43.7074C33.9993 42.9694 33.6892 41.7618 34.6183 41.3633C35.429 41.0154 35.9462 42.2516 36.1501 42.8201C36.4378 43.6213 36.5179 44.4965 36.3749 45.3342C36.2588 46.0146 36.0055 46.6945 36.0764 47.395C36.1444 48.066 36.5837 48.4996 37.2234 48.6677C37.9319 48.8546 38.682 48.9023 39.4057 49.0044C40.1101 49.1041 40.825 49.2231 41.4898 49.4877C42.1627 49.7555 42.7055 50.1709 43.1459 50.7449C43.5208 51.2338 43.8534 51.7981 44.3651 52.1605C44.8941 52.5356 45.449 52.4845 46.0609 52.4326C46.3161 52.411 46.6878 52.3581 46.8915 52.559C47.2076 52.8718 46.8497 53.2988 46.6249 53.5362C46.3904 53.784 46.136 54.005 45.9382 54.2855C45.7468 54.5566 45.5926 54.8525 45.4834 55.1663C45.265 55.7937 45.2037 56.4821 45.3344 57.1367C45.4756 57.8452 45.8507 58.379 46.2388 58.9728C46.4703 59.3268 46.6545 59.6981 46.6259 60.1312C46.6044 60.459 46.5281 60.8163 46.7257 61.1094C46.9241 61.404 47.2817 61.4546 47.5789 61.6021C47.8812 61.7519 48.1313 61.9865 48.3232 62.2623C49.3101 63.6839 48.6679 65.4479 48.2889 66.951C47.9342 68.3567 47.865 69.8102 48.1067 71.244C48.3403 72.6273 48.8392 73.9623 49.5699 75.162C50.2765 76.3218 51.2516 77.4892 52.4144 78.2164C52.8508 78.4894 53.6044 78.7076 53.9064 78.135C54.1806 77.6147 53.6743 77.1811 53.3197 76.8688C53.0621 76.6417 52.7707 76.4108 52.6676 76.069C52.5517 75.6846 52.6492 75.2631 52.7347 74.8833C52.8804 74.2343 53.0043 73.6401 52.677 73.0187C52.4688 72.624 52.1032 72.3416 51.6669 72.4147C51.4888 71.9562 52.1974 71.583 52.5132 71.4037C52.9506 71.1555 53.2191 70.8605 53.3369 70.3632C53.4 70.0973 53.4429 69.8378 53.6049 69.6103C53.7372 69.4244 53.9136 69.2755 54.0943 69.1387C54.458 68.8634 54.8561 68.6288 55.1628 68.2855C55.829 67.5405 55.973 66.4991 56.1723 65.557C56.3596 64.6715 56.7081 63.5697 57.6264 63.196C58.4892 62.8448 59.5027 63.2644 60.3373 62.8013C61.1009 62.3775 61.1449 61.507 61.0713 60.7297C61.0301 60.2923 60.9552 59.8512 60.9809 59.4111C61.0119 58.8763 61.2399 58.5223 61.6008 58.1425C61.9137 57.8134 62.1708 57.4664 62.195 56.9967C62.2162 56.586 62.0726 56.1786 61.8425 55.841C60.4751 53.8378 57.5958 55.354 55.7615 54.3688L55.7596 54.3693Z"
        fill="#42D576" />
    <path
        d="M90.7145 50.6433C90.3071 50.6724 89.8951 50.6152 89.5313 50.4204C89.1543 50.2186 88.8882 49.881 88.6772 49.5176C88.4281 49.0887 88.2327 48.626 88.0204 48.1784C87.7964 47.7069 87.5728 47.2358 87.3488 46.7642C87.1247 46.2927 86.9002 45.8216 86.6771 45.3501C86.541 45.0626 86.4305 44.7418 86.4661 44.4192C86.509 44.0333 86.8506 43.9523 87.1108 44.2436C87.3457 44.5067 87.463 44.886 87.5787 45.2124C87.8087 45.8614 87.9741 46.5385 88.2835 47.1571C88.5708 47.7312 88.9959 48.2261 89.6234 48.428C90.4326 48.6883 91.2959 48.3657 91.9599 47.8988C92.2401 47.7017 92.4903 47.4807 92.7221 47.2461C92.7366 46.8073 92.7459 46.3672 92.7441 45.9242C92.7059 36.9972 89.2584 28.8677 83.641 22.7663C83.5643 22.8075 83.4853 22.844 83.4025 22.8688C82.8332 23.0393 82.3458 22.6464 81.8113 22.5186C80.738 22.2615 79.7063 22.8749 78.9811 23.612C78.2102 24.3954 77.7644 25.4073 77.2053 26.3377C76.9277 26.7999 76.6167 27.2499 76.2272 27.6259C75.8703 27.9706 75.4451 28.2103 75.0034 28.4285C74.1774 28.8364 73.1263 29.2695 72.9775 30.3006C72.9643 30.391 73.0238 30.4879 73.1189 30.5015C74.1336 30.6439 75.1488 30.7862 76.1635 30.9281C76.6641 30.9983 77.1675 31.092 77.6713 31.1346C78.0124 31.1636 78.3546 31.1126 78.6267 30.8925C79.0949 30.5137 79.2214 29.8539 79.2939 29.2882C79.3383 28.9413 79.3556 28.591 79.4112 28.2454C79.4838 27.7945 79.607 27.3529 79.7808 26.931C79.95 26.5199 80.7225 24.7906 81.2708 25.7168C81.7011 26.444 80.8568 27.1689 80.669 27.8334C80.4895 28.4688 80.7014 29.152 81.4004 29.299C81.5945 29.3398 81.8067 29.3561 81.9148 29.5467C82.0139 29.7214 81.9999 29.9429 81.9224 30.1218C81.754 30.5099 81.351 30.7815 81.0383 31.0466C80.3349 31.6422 79.6067 32.2228 78.7676 32.6181C77.9247 33.0151 77.0194 33.254 76.1491 33.5813C75.4186 33.8561 74.6978 34.2059 74.1056 34.7215C73.5727 35.1855 73.0173 35.8743 73.0003 36.617C72.996 36.809 73.0356 36.9916 73.1296 37.1602C73.2254 37.333 73.3956 37.4749 73.4605 37.6636C73.6 38.07 73.1392 38.4193 72.7857 38.4737C72.3242 38.5448 71.8554 38.3454 71.4183 38.2246C71.0558 38.1239 70.6687 38.0663 70.2976 38.1496C69.6485 38.2953 69.3054 38.8918 69.4538 39.5296C69.6055 40.1814 70.1187 40.6857 70.7393 40.9044C72.3099 41.4574 73.918 40.5827 74.9948 39.4823C75.6002 38.8637 76.1045 38.1567 76.636 37.4753C76.8652 37.1813 77.1739 36.7584 77.588 36.7528C77.9116 36.7486 78.0922 37.0099 78.1735 37.2927C78.2619 37.6018 78.2563 37.938 78.2216 38.2541C78.2117 38.3449 78.2655 38.4409 78.363 38.4549C78.9798 38.5444 79.4774 38.1412 79.9953 37.8799C80.235 37.7591 80.5254 37.6383 80.7878 37.7666C81.0957 37.9174 81.1891 38.2976 81.2892 38.5954C81.5174 39.2702 81.9492 39.79 82.5895 40.1149C83.2978 40.4741 84.1121 40.5186 84.8792 40.3598C85.2994 40.2727 85.7068 40.1341 86.0995 39.9613C86.4095 39.8251 87.025 39.3952 87.317 39.7572C87.5397 40.0334 87.4691 40.5059 87.3866 40.8206C87.2931 41.1793 87.1039 41.5089 86.8648 41.7894C86.3381 42.4075 85.5807 42.7451 84.7796 42.829C83.8732 42.9236 83.0403 42.6876 82.1834 42.4258C81.8007 42.3087 81.3951 42.223 80.9979 42.3153C80.6025 42.4071 80.2777 42.7025 79.869 42.7452C78.9855 42.8379 78.3515 42.0137 77.9337 41.3558C77.7111 41.006 77.5057 40.6361 77.2351 40.3196C77.0425 40.0948 76.7595 39.9548 76.4805 40.114C76.2184 40.2643 76.1082 40.5743 75.9373 40.8065C75.7319 41.0866 75.412 41.1901 75.0787 41.2336C74.4003 41.3216 73.7392 41.2734 73.0797 41.4944C72.4553 41.7042 71.8919 42.0629 71.4104 42.5087C70.4092 43.4354 69.7567 44.7484 69.5704 46.0979C69.5172 46.4847 69.5217 46.8752 69.4901 47.2639C69.4536 47.7153 69.3311 48.1007 69.0929 48.4846C68.891 48.8101 68.6807 49.1205 68.5834 49.497C68.4927 49.8492 68.5013 50.2238 68.5801 50.5778C68.8991 52.0153 70.1875 53.0741 71.5361 53.5231C72.2332 53.7554 72.9732 53.8504 73.7046 53.7863C74.4846 53.7179 75.1668 53.4332 75.8704 53.112C76.5567 52.7987 77.3246 52.5079 78.0462 52.8938C78.325 53.0427 78.5636 53.2927 78.5987 53.6182C78.6377 53.9783 78.4443 54.3229 78.3286 54.6516C78.225 54.9462 78.1481 55.2632 78.2553 55.5694C78.3776 55.9197 78.7096 56.1023 78.9015 56.4034C79.3292 57.073 78.7503 57.9571 78.4826 58.5752C77.7841 60.1884 78.3088 61.8507 79.117 63.3224C79.5532 64.1171 80.0595 64.8728 80.4574 65.6886C80.7702 66.3301 81.0216 67.0624 81.7795 67.2821C82.4281 67.4698 83.1573 67.2315 83.6637 66.8143C84.2985 66.2912 84.6823 65.5556 85.1545 64.8981C85.641 64.2206 86.2131 63.6029 86.8554 63.07C87.1751 62.805 87.5147 62.5728 87.8561 62.3372C88.1148 62.1588 88.3635 61.9312 88.4071 61.603C88.4942 60.947 87.6868 60.4384 88.026 59.7913C88.3034 59.2617 88.9116 58.8819 88.7696 58.2025C88.696 57.8503 88.4596 57.5712 88.2687 57.2762C88.0668 56.9644 87.9675 56.6207 88.0132 56.2493C88.1047 55.5118 88.6233 54.8638 89.2206 54.4559C90.1019 53.8542 91.1784 53.5442 92.049 52.9593C92.239 52.0303 92.3904 51.0877 92.5035 50.1329C91.9336 50.3895 91.3349 50.5984 90.7135 50.6424L90.7145 50.6433Z"
        fill="#42D576" />
    <path clip-rule="evenodd" d="M92.7252 41.8329C92.7282 42.5391 92.7098 43.2404 92.6707 43.9361C92.6707 43.9366 92.6707 43.9371 92.6708 43.9376C91.6595 61.8978 76.8055 76.1274 58.5662 76.1274C39.62 76.1274 24.1957 60.7732 24.115 41.8329C24.0343 22.8926 39.3278 7.53843 58.2739 7.53833C77.2202 7.53833 92.6445 22.8925 92.7252 41.8329ZM58.2739 7.53833C58.274 7.53833 58.2741 7.53833 58.2741 7.53833C77.2204 7.53833 92.6447 22.8925 92.7254 41.8329C92.7284 42.5397 92.71 43.2414 92.6708 43.9376C92.7161 44.6356 92.7407 45.3391 92.7437 46.0477C92.8246 64.9881 77.5312 80.3423 58.585 80.3423C39.6388 80.3423 24.2142 64.9881 24.1333 46.0477C24.1303 45.3415 24.1486 44.6402 24.1878 43.9445C24.1424 43.2461 24.1178 42.542 24.1148 41.8329C24.0341 22.8925 39.3277 7.53833 58.2739 7.53833Z"
        fill="#1B84BF"
        fill-opacity="0.4" fill-rule="evenodd" />
    <path
        d="M61.4208 11.7737C61.4129 11.7784 61.4058 11.7845 61.3979 11.7891C60.5229 12.3248 59.5449 12.7908 58.9773 13.6861C58.8359 13.909 58.7194 14.1707 58.4774 14.3032C58.2988 14.4011 58.0877 14.425 57.8877 14.4362C57.4845 14.4587 57.0688 14.4016 56.6744 14.5083C56.2884 14.6123 56.0031 14.9312 55.9959 15.3404C55.987 15.8668 56.3653 16.2695 56.7912 16.5214C57.2683 16.8038 57.7815 16.9831 58.2307 17.3184C58.6541 17.6344 59.0267 18.0161 59.3223 18.4548C59.9464 19.3815 60.1244 20.4805 59.7673 21.5412C59.3881 22.6673 58.6173 23.6057 58.1836 24.7075C57.7721 25.7522 57.673 26.9046 58.3474 27.8678C58.6444 28.2916 59.0309 28.6423 59.3913 29.0099C59.5649 29.1869 59.7333 29.3691 59.8831 29.5676C60.0687 29.8144 60.2076 30.0888 60.3713 30.3492C60.6354 30.7701 61.0301 31.178 61.5604 31.1953C62.0265 31.2103 62.3764 30.8736 62.5269 30.4559C62.7032 29.967 62.67 29.4211 62.5451 28.9224C62.4727 28.6325 62.3572 28.359 62.2114 28.0987C62.0684 27.844 61.8884 27.6019 61.7996 27.3204C61.6182 26.7445 62.017 26.2322 62.4912 25.9517C63.0183 25.6398 63.6498 25.5612 64.218 25.3509C64.7292 25.1617 65.2062 24.8775 65.6145 24.517C66.0289 24.1512 66.3048 23.7073 66.6449 23.2807C66.835 23.0419 67.0484 22.8813 67.3374 22.7792C67.5965 22.6874 67.8618 22.6238 68.101 22.4838C68.4865 22.2581 68.7594 21.8764 68.9159 21.4639C69.3157 20.4103 69.0324 19.3305 68.9345 18.2497C68.8775 17.6185 68.9156 17.0009 69.1975 16.4254C69.4348 15.9417 69.7852 15.5263 70.1207 15.1096C70.4007 14.7626 70.6756 14.4058 70.8927 14.0148C67.9147 12.8413 64.7342 12.0738 61.4203 11.7742L61.4208 11.7737Z"
        fill="#42D576" />
    <path
        d="M60.1128 38.043C60.394 37.3424 60.4696 36.6561 60.4244 35.9543C60.4107 35.747 60.4457 35.571 60.6274 35.4408C60.9574 35.2042 61.3337 35.3192 61.3986 35.7089C61.4956 36.2889 61.4733 36.8772 61.3458 37.4486C61.2195 38.0137 61.0574 38.5669 60.7921 39.0962C60.5201 39.6385 60.139 40.0689 59.6688 40.4202C58.9794 40.9345 58.1851 41.0987 57.368 40.8302C56.9855 40.7042 56.6378 40.4298 56.3172 40.1698C55.7388 39.7004 55.3776 39.0653 55.1469 38.3704C54.9895 37.8975 54.8898 37.4028 54.7995 36.9116C54.7607 36.7 54.7914 36.469 54.8288 36.2529C54.8709 36.0106 55.0315 35.8782 55.2125 35.8784C55.4892 35.8792 55.7137 36.0406 55.764 36.2953C55.7903 36.4301 55.7822 36.5718 55.795 36.7094C55.8596 37.4123 56.0698 38.0714 56.4111 38.6878C56.734 39.2711 57.1873 39.6981 57.8555 39.8709C58.2925 39.9841 58.6777 39.9109 59.0383 39.6366C59.5929 39.2138 59.9449 38.663 60.1135 38.0423L60.1128 38.043Z"
        fill="#2C2854" />
    <path
        d="M37.4337 45.2647C37.4269 45.2554 37.4133 45.2502 37.3956 45.2479C37.3879 45.237 37.371 45.2284 37.3391 45.2245C36.8231 45.1653 36.2749 45.2633 35.769 45.4243C35.044 45.6017 34.3903 45.9584 34.1319 46.6967C34.1264 46.713 34.1442 46.7229 34.1733 46.7285C34.1713 46.7364 34.1669 46.743 34.1652 46.7509C34.14 46.8616 34.1422 46.9735 34.1567 47.0834C34.1546 47.5151 34.3993 47.9122 34.7499 48.1722C35.2216 48.5218 35.833 48.6108 36.4041 48.6281C37.411 48.6589 38.8383 48.4057 39.2642 47.3419C39.697 46.2603 38.3735 45.3814 37.434 45.265L37.4337 45.2647Z"
        fill="#F9D1E1" />
    <path
        d="M78.4353 45.665C78.9386 46.6983 80.381 46.8559 81.3833 46.7586C81.9517 46.7035 82.5552 46.574 82.9996 46.1941C83.3303 45.9115 83.5452 45.4993 83.5109 45.0685C83.5172 44.9579 83.5111 44.8459 83.478 44.7371C83.4757 44.7294 83.4707 44.7229 83.4681 44.7155C83.4966 44.708 83.5136 44.6968 83.5069 44.6811C83.1946 43.9618 82.5166 43.6491 81.7801 43.5204C81.2635 43.3934 80.7092 43.3321 80.1992 43.4255C80.1673 43.4314 80.151 43.441 80.1443 43.4525C80.1269 43.4557 80.1139 43.4618 80.1076 43.4717C79.1789 43.6501 77.9235 44.6148 78.435 45.665L78.4353 45.665Z"
        fill="#F9D1E1" />
    <path
        d="M35.9176 46.2098C35.9128 46.1777 35.9021 46.1485 35.8877 46.1219C35.8876 46.0537 35.8469 45.9887 35.7752 45.976C35.6758 45.9583 35.5684 45.9608 35.4689 45.9781C35.3491 45.9992 35.2388 46.0378 35.1329 46.0973C35.1221 46.1035 35.1143 46.1127 35.1068 46.1223C35.0663 46.1465 35.0303 46.177 35.0071 46.2197C34.9699 46.2891 34.9684 46.3884 35.0214 46.4509C35.022 46.4516 35.0229 46.4522 35.0235 46.4528C35.0301 46.5039 35.0639 46.5504 35.1183 46.56C35.2392 46.5806 35.3631 46.5938 35.4858 46.5932C35.5983 46.5923 35.7187 46.5685 35.8054 46.493C35.8847 46.4243 35.9334 46.3156 35.9173 46.2095L35.9176 46.2098Z"
        fill="white" />
    <path
        d="M82.5225 44.3157C82.5018 44.1821 82.3783 44.1202 82.2551 44.1055C82.2488 44.102 82.2422 44.0976 82.2361 44.0944C82.0946 44.0217 81.925 44.0072 81.7747 44.0582C81.7578 44.0639 81.7439 44.0733 81.7321 44.0843C81.671 44.087 81.619 44.1543 81.6256 44.2126C81.6267 44.2221 81.6305 44.2292 81.6331 44.2375C81.631 44.2502 81.6273 44.2623 81.6274 44.2757C81.6275 44.3573 81.6736 44.4392 81.7376 44.4889C81.8045 44.5412 81.8852 44.5639 81.9686 44.5699C81.9997 44.5722 82.0311 44.5715 82.0625 44.5723C82.1286 44.5928 82.1977 44.6015 82.2665 44.5914C82.2956 44.5872 82.3247 44.5782 82.3531 44.5664C82.3917 44.5576 82.425 44.5387 82.4501 44.5061C82.5021 44.4583 82.5346 44.3937 82.5222 44.3154L82.5225 44.3157Z"
        fill="white" />
    <ellipse cx="7.1854" cy="7.15436" fill="#F8F8FB" rx="7.1854"
        ry="7.15436" transform="matrix(-1 0 0 1 51.0391 29.3057)" />
    <path clip-rule="evenodd" d="M39.7611 32.5224C40.4344 32.9145 40.8931 33.6933 40.8931 34.5899C40.8931 35.881 39.942 36.9277 38.7688 36.9277C38.6284 36.9277 38.4912 36.9127 38.3584 36.8841C38.5713 40.0433 41.1466 42.5385 44.2922 42.5385C47.5772 42.5385 50.2402 39.8172 50.2402 36.4603C50.2402 33.1034 47.5772 30.3821 44.2922 30.3821C42.4772 30.3821 40.8521 31.2128 39.7611 32.5224Z"
        fill="#2C2854"
        fill-rule="evenodd" />
    <ellipse cx="72.5936" cy="37.3033" fill="#F8F8FB" rx="7.1854" ry="7.15436" />
    <path clip-rule="evenodd" d="M76.6862 33.3675C76.0132 33.7597 75.5547 34.5383 75.5547 35.4348C75.5547 36.7259 76.5058 37.7725 77.679 37.7725C77.8192 37.7725 77.9562 37.7576 78.0889 37.729C77.8759 40.8882 75.3007 43.3834 72.1551 43.3834C68.8701 43.3834 66.207 40.6621 66.207 37.3052C66.207 33.9483 68.8701 31.2271 72.1551 31.2271C73.9701 31.2271 75.5952 32.0578 76.6862 33.3675Z"
        fill="#2C2854"
        fill-rule="evenodd" />
</svg>
