<svg fill="none" height="25" viewBox="0 0 24 25" width="24" xmlns="http://www.w3.org/2000/svg">
    <g filter="url(#filter0_d_2144_174390)">
        <path
            d="M12 12C15.315 12 18 9.315 18 6C18 2.685 15.315 0 12 0C8.685 0 6 2.685 6 6C6 9.315 8.685 12 12 12ZM12 15C7.995 15 0 17.01 0 21V22.5C0 23.325 0.675 24 1.5 24H22.5C23.325 24 24 23.325 24 22.5V21C24 17.01 16.005 15 12 15Z"
            fill="#7F8EC1" />
    </g>
    <defs>
        <filter color-interpolation-filters="sRGB" filterUnits="userSpaceOnUse" height="25" id="filter0_d_2144_174390" width="24"
            x="0" y="0">
            <feFlood flood-opacity="0" result="BackgroundImageFix" />
            <feColorMatrix in="SourceAlpha" result="hardAlpha"
                type="matrix" values="0 0 0 0 0 0 0 0 0 0 0 0 0 0 0 0 0 0 127 0" />
            <feOffset dy="1" />
            <feComposite in2="hardAlpha" operator="out" />
            <feColorMatrix type="matrix"
                values="0 0 0 0 0.352941 0 0 0 0 0.4 0 0 0 0 0.623529 0 0 0 1 0" />
            <feBlend in2="BackgroundImageFix" mode="normal"
                result="effect1_dropShadow_2144_174390" />
            <feBlend in="SourceGraphic" in2="effect1_dropShadow_2144_174390" mode="normal"
                result="shape" />
        </filter>
    </defs>
</svg>
