<svg width="24" height="24" viewBox="0 0 24 24" fill="none" xmlns="http://www.w3.org/2000/svg">
<g filter="url(#filter0_d_2144_174381)">
<path d="M13.9951 4.85402C13.8784 2.89574 11.8792 1.78068 10.2404 2.85895C7.48668 4.67071 6.00009 6.45462 6.00009 6.45462C6.00009 6.45462 4.3983 6.72159 2.68885 7.06875C1.34861 7.34093 0.284506 8.33946 0.125439 9.69778C0.0527484 10.3185 0 11.0611 0 11.9092C0 12.7574 0.0527484 13.5 0.125439 14.1207C0.284506 15.479 1.34861 16.4776 2.68885 16.7497C4.3983 17.0969 6.00009 17.3639 6.00009 17.3639C6.00009 17.3639 7.48668 19.1478 10.2404 20.9595C11.8792 22.0378 13.8784 20.9228 13.9951 18.9645C14.0975 17.2443 14.182 14.9148 14.182 11.9092C14.182 8.90374 14.0975 6.57416 13.9951 4.85402Z" fill="#7F8EC1"/>
<path fill-rule="evenodd" clip-rule="evenodd" d="M21.4294 5.86113C20.9912 5.43524 20.3569 5.24009 19.8752 5.61902C19.7873 5.68814 19.695 5.76827 19.5995 5.86113C19.5858 5.87439 19.5725 5.88757 19.5593 5.90069C18.9889 6.47168 19.2429 7.29299 19.822 7.85575C22.2387 10.2044 22.0162 13.796 19.5995 16.1447C19.1561 16.5756 18.9469 17.1838 19.3462 17.6536C19.4182 17.7383 19.5019 17.8283 19.5995 17.923C19.697 18.0178 19.7896 18.0992 19.8768 18.1692C20.3602 18.5572 20.986 18.3539 21.4294 17.923C24.8568 14.5922 24.8568 9.19194 21.4294 5.86113ZM17.9599 8.23139C17.6666 7.9464 17.2497 7.80753 16.9004 8.02483C16.7444 8.1219 16.5645 8.25772 16.3691 8.44764C16.1737 8.63757 16.0339 8.81236 15.934 8.96398C15.7104 9.30341 15.8533 9.70861 16.1466 9.9936C17.2252 11.0418 17.2252 12.7414 16.1466 13.7897C15.851 14.0769 15.7008 14.4795 15.9292 14.8198C16.0292 14.9688 16.1703 15.1424 16.3691 15.3356C16.5679 15.5288 16.7465 15.6659 16.8999 15.7631C17.25 15.985 17.6643 15.8391 17.9599 15.5519C20.04 13.5304 20.04 10.2529 17.9599 8.23139Z" fill="#5A669F"/>
</g>
<defs>
<filter id="filter0_d_2144_174381" x="0" y="0" width="24" height="25" filterUnits="userSpaceOnUse" color-interpolation-filters="sRGB">
<feFlood flood-opacity="0" result="BackgroundImageFix"/>
<feColorMatrix in="SourceAlpha" type="matrix" values="0 0 0 0 0 0 0 0 0 0 0 0 0 0 0 0 0 0 127 0" result="hardAlpha"/>
<feOffset dy="1"/>
<feComposite in2="hardAlpha" operator="out"/>
<feColorMatrix type="matrix" values="0 0 0 0 0.352941 0 0 0 0 0.4 0 0 0 0 0.623529 0 0 0 1 0"/>
<feBlend mode="normal" in2="BackgroundImageFix" result="effect1_dropShadow_2144_174381"/>
<feBlend mode="normal" in="SourceGraphic" in2="effect1_dropShadow_2144_174381" result="shape"/>
</filter>
</defs>
</svg>
