<svg width="24" height="24" viewBox="0 0 24 24" fill="none" xmlns="http://www.w3.org/2000/svg">
<path d="M0.434277 7.92372C0.434277 7.92372 0.86832 17.5481 0 19.9433C0 19.9433 4.217 17.6999 10.1085 19.5747C15.2328 21.2051 20.8375 20.7262 22.202 19.2521L24 8.10763C24 8.10763 19.9675 8.98272 17.0546 8.84421C12.4963 8.62825 5.14746 5.48227 0.434323 7.92372H0.434277Z" fill="#DAAB7D"/>
<path d="M1.20078 8.37565C1.20078 8.37565 1.71529 17.0534 0.929688 19.0056C0.929688 19.0056 5.26664 17.002 10.5986 18.5304C15.2366 19.859 20.4882 19.7264 21.723 18.5251L23.1918 8.88955C23.1918 8.88955 19.5423 9.60315 16.9057 9.49002C12.7802 9.31415 5.46695 6.38559 1.20073 8.3757L1.20078 8.37565Z" fill="#F6E1CE"/>
<path fill-rule="evenodd" clip-rule="evenodd" d="M10.5651 8.39672C10.5483 8.58081 10.5825 8.76409 10.6968 8.92773C10.7619 9.0209 10.8425 9.10136 10.9228 9.18149C10.944 9.20267 10.9652 9.22383 10.9861 9.24519C11.0342 9.29439 11.0809 9.34503 11.1224 9.40022C11.1562 9.44521 11.1844 9.49351 11.2126 9.54184C11.2273 9.5672 11.2421 9.59256 11.2577 9.61745C11.3309 9.73447 11.4404 9.84784 11.5874 9.85265C11.7166 9.85682 11.8135 9.76323 11.8553 9.64713C11.9041 9.51124 11.8949 9.35948 11.8603 9.22086C11.8402 9.14029 11.8082 9.06427 11.7678 8.99191C11.7567 8.97212 11.7449 8.95261 11.733 8.93306C11.7023 8.88264 11.6714 8.83195 11.6537 8.77558C11.6365 8.72081 11.6381 8.66811 11.6529 8.61936C11.7832 8.64643 11.9129 8.67348 12.042 8.70039C13.0719 8.91514 14.0624 9.12165 14.9735 9.27078C14.8615 9.35214 14.7732 9.45594 14.7519 9.60424C14.7482 9.62936 14.7647 9.6563 14.7911 9.66008L15.635 9.77866C15.678 9.78471 15.7211 9.79138 15.7642 9.79807L15.7643 9.79808L15.7643 9.79808C15.8603 9.81296 15.9566 9.82788 16.0529 9.83605C16.1475 9.84412 16.2423 9.82994 16.3178 9.76876C16.41 9.69395 16.4544 9.57973 16.4795 9.46348C16.625 9.4753 16.7672 9.48431 16.9057 9.49022C17.0177 9.49502 17.1314 9.49833 17.2466 9.50028C17.2439 9.51908 17.2387 9.53749 17.2313 9.55452C17.193 9.64316 17.1107 9.70994 17.0345 9.77179C17.018 9.78523 17.0017 9.79844 16.9862 9.81159C16.7913 9.97715 16.5894 10.1385 16.3568 10.2484C16.207 10.3192 16.05 10.3719 15.8931 10.4246C15.8053 10.454 15.7175 10.4835 15.631 10.5161C15.4285 10.5925 15.2287 10.6898 15.0646 10.8331C14.9168 10.9621 14.7629 11.1535 14.7582 11.36C14.757 11.4133 14.768 11.4641 14.794 11.511C14.8049 11.5306 14.8192 11.5489 14.8336 11.5672C14.8543 11.5935 14.8751 11.6199 14.8857 11.6509C14.9244 11.7638 14.7967 11.861 14.6987 11.876C14.5969 11.8918 14.4938 11.8599 14.3949 11.8293L14.3949 11.8293C14.3695 11.8214 14.3444 11.8137 14.3197 11.8068C14.2192 11.7788 14.1119 11.7628 14.009 11.786C13.8291 11.8265 13.734 11.9923 13.7751 12.1696C13.8172 12.3507 13.9594 12.4909 14.1315 12.5517C14.5668 12.7054 15.0125 12.4623 15.311 12.1564C15.4423 12.0219 15.5564 11.8723 15.6704 11.7229C15.7022 11.6814 15.7339 11.6398 15.766 11.5985L15.7747 11.5872C15.8373 11.5064 15.9203 11.3992 16.0298 11.3977C16.1196 11.3965 16.1696 11.4692 16.1921 11.5478C16.2166 11.6337 16.2151 11.7271 16.2055 11.815C16.2027 11.8403 16.2176 11.8669 16.2447 11.8708C16.3789 11.8904 16.4927 11.8255 16.6049 11.7615L16.605 11.7615C16.6357 11.744 16.6663 11.7266 16.6971 11.711C16.7636 11.6774 16.8441 11.6438 16.9168 11.6795C16.9933 11.7171 17.022 11.8059 17.0472 11.8835L17.0558 11.9099C17.119 12.0975 17.2387 12.2419 17.4162 12.3323C17.6126 12.4321 17.8383 12.4445 18.0509 12.4003C18.1674 12.3761 18.2803 12.3376 18.3892 12.2896C18.4045 12.2828 18.4225 12.2735 18.4422 12.2632C18.5331 12.2161 18.6601 12.1501 18.7266 12.2328C18.7884 12.3096 18.7688 12.4409 18.7459 12.5284C18.72 12.6281 18.6675 12.7197 18.6013 12.7977C18.4553 12.9695 18.2453 13.0634 18.0233 13.0867C17.772 13.113 17.5412 13.0474 17.3036 12.9746C17.1976 12.9421 17.0851 12.9182 16.975 12.9439C16.926 12.9553 16.8808 12.9781 16.8357 13.0008C16.7801 13.0288 16.7247 13.0568 16.6621 13.0634C16.4172 13.0891 16.2415 12.8601 16.1257 12.6772C16.1114 12.6546 16.0973 12.6318 16.0832 12.6089C16.0366 12.5331 15.9896 12.4567 15.932 12.3891C15.8786 12.3267 15.8002 12.2877 15.7229 12.332C15.6722 12.3611 15.642 12.4119 15.6123 12.4619C15.5994 12.4835 15.5866 12.505 15.5723 12.5245C15.5154 12.6023 15.4267 12.6311 15.3343 12.6432C15.2714 12.6514 15.2091 12.6553 15.1472 12.6593H15.1472C15.0238 12.6671 14.9019 12.6748 14.7802 12.7157C14.6071 12.774 14.4509 12.8737 14.3175 12.9976C14.0399 13.2552 13.8591 13.6202 13.8074 13.9953C13.7984 14.0614 13.7953 14.128 13.7923 14.1945C13.7904 14.2362 13.7885 14.2778 13.7852 14.3194C13.7751 14.4449 13.7411 14.552 13.6751 14.6587L13.6576 14.6868C13.6074 14.7673 13.558 14.8463 13.5339 14.9401C13.5087 15.038 13.5111 15.1421 13.5329 15.2405C13.6214 15.6401 13.9785 15.9344 14.3523 16.0593C14.5455 16.1238 14.7507 16.1502 14.9534 16.1324C15.1696 16.1134 15.3587 16.0343 15.5537 15.945C15.744 15.8579 15.9568 15.7771 16.1568 15.8843C16.2341 15.9257 16.3003 15.9952 16.31 16.0857C16.3183 16.1627 16.2885 16.2373 16.2596 16.3092C16.251 16.3307 16.2425 16.3519 16.2351 16.3729C16.2064 16.4548 16.1851 16.5429 16.2148 16.6281C16.2349 16.6858 16.2755 16.7272 16.3163 16.7688L16.3163 16.7688C16.3443 16.7973 16.3723 16.8258 16.3939 16.8599C16.4925 17.0147 16.3981 17.2107 16.3209 17.3711C16.3053 17.4036 16.2903 17.4346 16.2778 17.4636C16.0842 17.912 16.2296 18.374 16.4537 18.7831C16.5012 18.8699 16.5517 18.955 16.6021 19.0401L16.6022 19.0401C16.6802 19.1716 16.7582 19.3031 16.8252 19.4408L16.8406 19.4729C15.0862 19.437 13.0791 19.1819 11.1458 18.6799C11.1809 18.6702 11.2152 18.6567 11.2485 18.6382C11.4602 18.5204 11.4724 18.2784 11.452 18.0623C11.4491 18.0321 11.4457 18.0018 11.4423 17.9715L11.4423 17.9714C11.4319 17.8798 11.4216 17.7877 11.4269 17.6958C11.4355 17.5472 11.4987 17.4488 11.5988 17.3432C11.6855 17.2517 11.7567 17.1553 11.7635 17.0247C11.7693 16.9106 11.7295 16.7973 11.6658 16.7035C11.4442 16.378 11.0795 16.3868 10.7132 16.3955C10.4527 16.4018 10.1914 16.4081 9.98014 16.2943L9.97962 16.2944C9.8018 16.1986 9.66436 16.0461 9.52935 15.8963C9.49332 15.8563 9.45747 15.8165 9.42107 15.778C9.33355 15.6856 9.24125 15.597 9.13526 15.5262C9.0225 15.451 8.90001 15.4076 8.77079 15.3703C8.6261 15.3283 8.49023 15.2847 8.37606 15.1819C8.34426 15.1533 8.31412 15.1227 8.28399 15.092L8.28398 15.092C8.22481 15.0319 8.16564 14.9718 8.09387 14.9267C7.88315 14.794 7.69454 14.9005 7.50764 15.0059C7.48508 15.0187 7.46254 15.0314 7.43999 15.0437C7.32457 15.1065 7.19955 15.1412 7.0712 15.0947C6.96015 15.0545 6.86827 14.9737 6.78328 14.8937C6.76184 14.8736 6.74072 14.8534 6.71975 14.8335L6.71972 14.8334C6.55175 14.6733 6.39381 14.5227 6.16425 14.4459C6.11137 14.4282 6.05434 14.4125 5.99586 14.3964L5.99582 14.3964L5.9958 14.3964C5.76553 14.3331 5.51281 14.2637 5.40284 14.0409C5.32714 13.8873 5.39191 13.7291 5.48484 13.6006C5.577 13.4734 5.68894 13.3556 5.82023 13.269C5.93792 13.1914 6.08932 13.1322 6.22785 13.1914C6.26505 13.2073 6.2988 13.2307 6.33213 13.2538C6.40242 13.3025 6.47086 13.3499 6.56586 13.3232C6.60824 13.3113 6.64438 13.2877 6.68061 13.2641C6.69715 13.2533 6.71371 13.2425 6.73089 13.2328C6.78361 13.2028 6.8421 13.1879 6.90272 13.1858C7.01852 13.1819 7.13557 13.2283 7.22405 13.3023C7.31279 13.3765 7.36969 13.4771 7.37707 13.5932C7.38054 13.6471 7.46483 13.651 7.47226 13.597C7.5298 13.178 7.76669 12.8139 7.99258 12.4668L8.00605 12.4461C8.22083 12.1159 8.4943 11.759 8.91279 11.7026C9.11029 11.6761 9.26292 11.749 9.43197 11.8298L9.47705 11.8513C9.61847 11.918 9.78265 11.9644 9.92956 11.8878C10.1567 11.7694 10.2018 11.4524 10.1191 11.2301C10.0972 11.1716 10.0654 11.1201 10.027 11.0712C10.0186 11.0606 10.0096 11.0495 10.0001 11.038C9.94868 10.9753 9.88703 10.9 9.88231 10.8226C9.87604 10.7204 9.98891 10.7219 10.0641 10.7229L10.0743 10.723C10.1469 10.7238 10.2198 10.7181 10.2792 10.6724C10.3817 10.5935 10.3872 10.447 10.3556 10.3316C10.3123 10.1736 10.1931 10.0785 10.0674 9.98385C9.92099 9.8736 9.80666 9.76622 9.77172 9.57931C9.76514 9.54395 9.76023 9.5074 9.75527 9.47054C9.73972 9.35474 9.72373 9.23578 9.65429 9.14041C9.56287 9.01494 9.415 8.98813 9.26957 8.98539C9.24266 8.98488 9.21405 8.98565 9.18462 8.98643C9.05642 8.98986 8.91257 8.99371 8.82514 8.89441C8.79217 8.85698 8.7709 8.81193 8.7496 8.7668C8.72934 8.72389 8.70906 8.68092 8.67865 8.64438C8.63154 8.58776 8.56608 8.55144 8.49231 8.54676C8.34205 8.53712 8.19994 8.64385 8.13154 8.77154C8.04041 8.94156 8.08168 9.1447 8.11946 9.33062C8.12723 9.36888 8.13486 9.40641 8.14115 9.44278C8.14914 9.48898 8.15545 9.53844 8.15761 9.58855C8.13443 9.72509 8.08617 9.85707 8.01618 9.97617C8.015 9.97704 8.01401 9.97806 8.013 9.97909C8.01191 9.98021 8.0108 9.98134 8.00945 9.98229C7.99573 9.99218 7.99047 10.0052 7.99026 10.0182C7.93621 10.1014 7.87214 10.1777 7.7962 10.2416C7.73125 10.2962 7.65239 10.3453 7.56502 10.3483C7.48479 10.351 7.39776 10.312 7.37119 10.2312C7.34944 10.1652 7.36111 10.0902 7.37216 10.0192L7.37217 10.0192L7.37217 10.0192C7.37575 9.99614 7.37927 9.97355 7.38156 9.95183C7.3903 9.86983 7.39604 9.78549 7.38362 9.70348C7.37173 9.625 7.34336 9.54976 7.29427 9.48677C7.2679 9.45293 7.23731 9.42299 7.20673 9.39305C7.17509 9.36207 7.14345 9.3311 7.11649 9.29582C7.02601 9.17738 6.98227 9.02952 6.98177 8.88139C6.98114 8.73353 7.02711 8.58229 7.11815 8.46553C7.20195 8.35789 7.32057 8.28331 7.44185 8.22448C7.51617 8.18843 7.59413 8.15728 7.67235 8.12602C7.80109 8.07458 7.93056 8.02284 8.04572 7.94853C8.88532 8.07267 9.73161 8.23007 10.5651 8.39672ZM19.6684 15.2588C19.5554 15.2668 19.4413 15.251 19.3404 15.1968C19.2359 15.1407 19.1621 15.0469 19.1037 14.9459C19.0522 14.857 19.009 14.763 18.966 14.6694C18.9513 14.6373 18.9366 14.6053 18.9216 14.5736L18.7354 14.1805L18.6802 14.0641L18.6798 14.0631C18.6362 13.9712 18.5926 13.8794 18.5493 13.7874C18.5115 13.7075 18.4809 13.6184 18.4908 13.5287C18.5027 13.4214 18.5973 13.3989 18.6695 13.4799C18.7283 13.546 18.7605 13.6384 18.7899 13.7226L18.7992 13.7492C18.819 13.8053 18.8371 13.8622 18.8552 13.9191C18.8953 14.0451 18.9355 14.1713 18.9945 14.2897C19.0742 14.4493 19.192 14.5869 19.366 14.643C19.5902 14.7154 19.8295 14.6257 20.0136 14.4959C20.0913 14.4411 20.1606 14.3797 20.2249 14.3145C20.2289 14.1925 20.2315 14.0702 20.231 13.947C20.224 12.3159 19.8087 10.7805 19.0826 9.43811C21.1913 9.28091 23.1918 8.88975 23.1918 8.88975L21.723 18.5253C21.1595 19.0736 19.7594 19.3992 17.9628 19.465C17.9845 19.4331 18.0058 19.4008 18.0271 19.3686C18.0599 19.3189 18.0927 19.2693 18.1272 19.2211C18.2621 19.0328 18.4206 18.8611 18.5987 18.713C18.6836 18.6423 18.7737 18.5801 18.8643 18.5174L18.8761 18.5093C18.9478 18.4597 19.0167 18.3964 19.0288 18.3052C19.0395 18.2243 19.0014 18.1515 18.9639 18.0798C18.9169 17.9898 18.8708 17.9017 18.9232 17.8016C18.9472 17.7555 18.9802 17.7136 19.013 17.6718C19.0852 17.5802 19.1563 17.4897 19.1293 17.3599C19.1131 17.2825 19.0688 17.2178 19.0248 17.1536C19.0131 17.1366 19.0015 17.1196 18.9904 17.1025C18.9345 17.0158 18.9069 16.9203 18.9196 16.817C18.945 16.612 19.0887 16.4319 19.2543 16.3185C19.3784 16.2336 19.5164 16.1696 19.6538 16.1058C19.787 16.044 19.9195 15.9825 20.0383 15.9025C20.0909 15.6443 20.1329 15.3823 20.1643 15.1169C20.0063 15.1882 19.8404 15.2463 19.6681 15.2585L19.6684 15.2588ZM3.45607 7.76709C2.64337 7.86513 1.88311 8.0576 1.20078 8.37588L1.20078 8.37586L1.20073 8.3759L1.20078 8.37588C1.20181 8.3932 1.7145 17.0555 0.929688 19.0058C0.929688 19.0058 3.65475 17.7469 7.44037 17.9861C7.44138 17.971 7.44276 17.9559 7.44413 17.941C7.44551 17.9258 7.44688 17.9108 7.44785 17.896C7.45577 17.7756 7.4047 17.6724 7.34053 17.574L7.31784 17.5393C7.21862 17.3878 7.12623 17.2467 7.08985 17.0636C7.05363 16.8817 7.0706 16.6903 7.13114 16.5159C7.16141 16.4287 7.20416 16.3465 7.25721 16.2711C7.29636 16.2154 7.34349 16.1682 7.3909 16.1207L7.39093 16.1207L7.39094 16.1206C7.40994 16.1016 7.42898 16.0825 7.44757 16.0628C7.50987 15.9968 7.60908 15.8781 7.52146 15.7912C7.46953 15.7398 7.37819 15.7482 7.30883 15.7545L7.29124 15.756L7.28659 15.7564C7.11879 15.7707 6.96646 15.7837 6.82116 15.6804C6.71189 15.6028 6.63207 15.4919 6.55365 15.3829L6.55365 15.3829L6.55364 15.3829C6.53029 15.3504 6.50706 15.3181 6.48321 15.287C6.36113 15.1274 6.21067 15.0119 6.02417 14.9375C5.83988 14.8639 5.64173 14.8309 5.44647 14.8031C5.38926 14.7951 5.33145 14.7882 5.27349 14.7813C5.12821 14.7641 4.98193 14.7467 4.84154 14.7096C4.66425 14.6628 4.54246 14.5423 4.52362 14.3558C4.50975 14.2184 4.54061 14.0839 4.57129 13.9502C4.5841 13.8944 4.59688 13.8387 4.60635 13.783C4.646 13.5501 4.6238 13.3068 4.54404 13.0841C4.48754 12.9261 4.34416 12.5825 4.11944 12.6792C3.86192 12.79 3.94787 13.1256 4.00717 13.3308C4.03021 13.4105 4.05463 13.4901 4.07909 13.5699L4.0791 13.5699C4.12961 13.7348 4.18028 13.9001 4.21922 14.067C4.24699 14.1858 4.24267 14.3909 4.08147 14.4042C3.91916 14.4175 3.85 14.2026 3.80329 14.0574L3.80329 14.0574C3.79475 14.0309 3.78697 14.0067 3.77951 13.9867C3.69164 13.7509 3.60688 13.5138 3.5351 13.2726C3.3931 12.7954 3.31521 12.3116 3.34282 11.8136C3.34936 11.6958 3.36006 11.5769 3.3708 11.4576C3.40642 11.0616 3.44252 10.6604 3.32874 10.2758C3.29352 10.1567 3.24494 10.0426 3.19636 9.92845C3.15226 9.82485 3.10816 9.72125 3.07404 9.61393C3.01001 9.41216 2.9915 9.20276 2.97299 8.99343C2.96963 8.95538 2.96626 8.91732 2.96263 8.87931C2.95108 8.75957 2.93156 8.62667 2.89673 8.49729C3.07155 8.24471 3.25826 8.00103 3.45607 7.76709Z" fill="#EAC196"/>
<path d="M20.1251 20.2239L20.7194 19.0418C21.1551 18.8989 21.4934 18.7215 21.7085 18.5123L22.0235 16.4441L22.7155 15.0669L22.2515 18.9413L22.227 19.0925C21.6928 19.853 20.125 20.2239 20.125 20.2239H20.1251Z" fill="#D39A64"/>
<path d="M20.7188 19.0422L22.0229 16.4445L21.7079 18.5127C21.4927 18.722 21.1545 18.8993 20.7188 19.0422Z" fill="#E6B581"/>
<path d="M23.1776 10.6166L19.6562 18.0134C19.6562 18.0134 22.2406 16.8879 22.2348 19.0813L23.1776 10.6166Z" fill="#DAAB7D"/>
<path fill-rule="evenodd" clip-rule="evenodd" d="M18.1667 4C20.4679 4 22.3333 5.8804 22.3333 8.2C22.3333 9.97854 21.2366 11.4989 19.6877 12.1114L18.4039 13.8801C18.3772 13.9172 18.3416 13.9474 18.3003 13.9682C18.259 13.9891 18.2132 14 18.1666 14C18.1201 14 18.0742 13.9891 18.0329 13.9682C17.9916 13.9474 17.9561 13.9172 17.9293 13.8801L16.6455 12.1113C15.0966 11.4988 14 9.97849 14 8.2C14 5.8804 15.8655 4 18.1667 4Z" fill="#F45D48"/>
<path d="M21.6804 8.21052C21.6804 6.24989 20.1076 4.66047 18.1674 4.66047C16.2272 4.66047 14.6543 6.24989 14.6543 8.21052C14.6543 10.1712 16.2272 11.7606 18.1674 11.7606C20.1076 11.7606 21.6804 10.1712 21.6804 8.21052Z" fill="#DC4431"/>
</svg>
