<svg width="24" height="24" viewBox="0 0 24 24" fill="none" xmlns="http://www.w3.org/2000/svg">
<g filter="url(#filter0_d_2144_174376)">
<path d="M8.39897 3.48101C9.80243 2.45166 11.5039 3.15754 11.6146 4.80838C11.6791 5.77105 11.7365 7.00087 11.7716 8.56036C16.0137 8.61512 20.0242 8.76903 22.0465 8.88318C23.3463 8.95654 23.8403 9.69998 23.9548 10.8966C23.9828 11.189 24 11.517 24 11.8813C24 12.2853 23.9789 12.6446 23.9453 12.9604C23.8237 14.1046 23.3948 14.8311 22.1538 14.9374C20.145 15.1094 16.0898 15.3471 11.7718 15.4307C11.7368 16.9942 11.6793 18.2268 11.6147 19.1913C11.504 20.8425 9.80199 21.5484 8.39826 20.5189C7.45152 19.8245 6.25254 18.8944 4.77895 17.6633C2.5185 15.7747 1.22735 14.3584 0.501401 13.4146C-0.167202 12.5453 -0.167114 11.4555 0.501549 10.5862C1.22752 9.64241 2.51865 8.2262 4.77895 6.33743C6.2529 5.10575 7.45211 4.17547 8.39897 3.48101Z" fill="#7F8EC1"/>
</g>
<defs>
<filter id="filter0_d_2144_174376" x="0" y="0" width="24" height="25" filterUnits="userSpaceOnUse" color-interpolation-filters="sRGB">
<feFlood flood-opacity="0" result="BackgroundImageFix"/>
<feColorMatrix in="SourceAlpha" type="matrix" values="0 0 0 0 0 0 0 0 0 0 0 0 0 0 0 0 0 0 127 0" result="hardAlpha"/>
<feOffset dy="1"/>
<feComposite in2="hardAlpha" operator="out"/>
<feColorMatrix type="matrix" values="0 0 0 0 0.352941 0 0 0 0 0.4 0 0 0 0 0.623529 0 0 0 1 0"/>
<feBlend mode="normal" in2="BackgroundImageFix" result="effect1_dropShadow_2144_174376"/>
<feBlend mode="normal" in="SourceGraphic" in2="effect1_dropShadow_2144_174376" result="shape"/>
</filter>
</defs>
</svg>
