<svg width="24" height="24" viewBox="0 0 24 24" fill="none" xmlns="http://www.w3.org/2000/svg">
<path d="M10.3135 15.8552C10.1015 14.9397 10.838 14 11.8746 14V14C12.9112 14 13.6478 14.9397 13.4358 15.8552C13.2369 16.7142 13.107 17.7156 13.2996 18.5C13.8395 20.6993 16.1496 23.0001 16.1496 23.0001H7.59961C7.59961 23.0001 9.90973 20.6993 10.4496 18.5C10.6422 17.7156 10.5123 16.7142 10.3135 15.8552Z" fill="#F6B307"/>
<path fill-rule="evenodd" clip-rule="evenodd" d="M15.3493 22.7368H16.5493C16.5493 22.7368 14.604 20.4764 14.1493 18.3157C13.9872 17.545 14.0965 16.5612 14.264 15.7173C14.4425 14.8179 13.8222 13.8946 12.9493 13.8946C12.752 13.8946 12.5675 13.9418 12.4023 14.0252C12.8422 14.245 13.064 14.7614 13.064 15.7173C13.064 16.9201 13.0872 18.6503 13.2493 19.421C13.704 21.5817 15.3493 22.7368 15.3493 22.7368Z" fill="#C18B00"/>
<path fill-rule="evenodd" clip-rule="evenodd" d="M20.7004 8.84253C22.5229 8.84253 24.0004 7.28729 24.0004 5.3688C24.0004 3.45031 22.5229 1.89507 20.7004 1.89507C18.8779 1.89507 17.4004 3.45031 17.4004 5.3688C17.4004 7.28729 18.8779 8.84253 20.7004 8.84253ZM20.7004 7.26356C21.6945 7.26356 22.5004 6.41525 22.5004 5.3688C22.5004 4.32235 21.6945 3.47404 20.7004 3.47404C19.7063 3.47404 18.9004 4.32235 18.9004 5.3688C18.9004 6.41525 19.7063 7.26356 20.7004 7.26356Z" fill="#F6B307"/>
<path fill-rule="evenodd" clip-rule="evenodd" d="M23.7012 4.73711C23.7012 6.6556 22.2238 8.21084 20.4012 8.21084C19.2285 8.21084 18.1986 7.56685 17.6133 6.59648C18.0845 7.90905 19.2893 8.84243 20.7012 8.84243C22.5238 8.84243 24.0012 7.28719 24.0012 5.3687C24.0012 4.68474 23.8134 4.04694 23.4892 3.50933C23.6262 3.89106 23.7012 4.30487 23.7012 4.73711ZM18.9688 5.88464C18.9248 5.72061 18.9012 5.54755 18.9012 5.3687C18.9012 4.32225 19.7071 3.47394 20.7012 3.47394C21.2856 3.47394 21.8049 3.76703 22.1337 4.22117C21.9203 3.42547 21.2254 2.84235 20.4012 2.84235C19.4071 2.84235 18.6012 3.69066 18.6012 4.73711C18.6012 5.16847 18.7382 5.56615 18.9688 5.88464Z" fill="#D29700"/>
<path fill-rule="evenodd" clip-rule="evenodd" d="M3.3 8.84253C5.12254 8.84253 6.6 7.28729 6.6 5.3688C6.6 3.45031 5.12254 1.89507 3.3 1.89507C1.47746 1.89507 0 3.45031 0 5.3688C0 7.28729 1.47746 8.84253 3.3 8.84253ZM3.3 7.26356C4.29411 7.26356 5.1 6.41525 5.1 5.3688C5.1 4.32235 4.29411 3.47404 3.3 3.47404C2.30589 3.47404 1.5 4.32235 1.5 5.3688C1.5 6.41525 2.30589 7.26356 3.3 7.26356Z" fill="#F6B307"/>
<path fill-rule="evenodd" clip-rule="evenodd" d="M5.77865 7.66158C5.19744 8.19977 4.43493 8.52616 3.6 8.52616C1.77746 8.52616 0.3 6.97092 0.3 5.05243C0.3 4.17355 0.610071 3.3709 1.12134 2.75908C0.433843 3.39569 0 4.32863 0 5.36823C0 7.28672 1.47746 8.84196 3.3 8.84196C4.28761 8.84196 5.17389 8.38528 5.77865 7.66158ZM2.18602 3.87981C2.49246 3.62533 2.87938 3.47347 3.3 3.47347C4.29411 3.47347 5.1 4.32178 5.1 5.36823C5.1 5.81099 4.95573 6.21828 4.71397 6.54085C5.13179 6.19387 5.4 5.65612 5.4 5.05243C5.4 4.00599 4.59411 3.15767 3.6 3.15767C3.0265 3.15767 2.51565 3.44 2.18602 3.87981Z" fill="#D29700"/>
<path d="M3.59961 3.78973C3.59961 2.39447 4.67413 1.26338 5.99961 1.26338H17.9996C19.3251 1.26338 20.3996 2.39447 20.3996 3.78973V7.57925C20.3996 12.4627 16.6388 16.4215 11.9996 16.4215C7.36042 16.4215 3.59961 12.4627 3.59961 7.57925V3.78973Z" fill="#FFCF23"/>
<path fill-rule="evenodd" clip-rule="evenodd" d="M9.90039 16.1429C10.5716 16.3248 11.2753 16.4215 12.0004 16.4215C16.6396 16.4215 20.4004 12.4627 20.4004 7.57925V1.26338H16.2004V7.57925C16.2004 11.6994 13.5234 15.1613 9.90039 16.1429Z" fill="#FFC429"/>
<path fill-rule="evenodd" clip-rule="evenodd" d="M7.66016 15.1515C8.92673 15.9576 10.4118 16.4215 11.9999 16.4215C16.6391 16.4215 20.3999 12.4627 20.3999 7.57925V1.26338H19.1998V6.94767C19.1998 11.8311 15.439 15.7899 10.7998 15.7899C9.68982 15.7899 8.6301 15.5633 7.66016 15.1515Z" fill="#F5B40C"/>
<path d="M20.4004 1.26338H3.90039V2.84235H20.4004V1.26338Z" fill="#D29803"/>
<path d="M6 23.2423C6 22.8237 6.26863 22.4844 6.6 22.4844H17.4C17.7314 22.4844 18 22.8237 18 23.2423V23.2423C18 23.6609 17.7314 24.0002 17.4 24.0002H6.6C6.26863 24.0002 6 23.6609 6 23.2423V23.2423Z" fill="#FFD84F"/>
<path d="M1.19922 0.757905C1.19922 0.339326 1.46785 0 1.79922 0H22.1992C22.5306 0 22.7992 0.339326 22.7992 0.757905V0.757905C22.7992 1.17648 22.5306 1.51581 22.1992 1.51581H1.79922C1.46785 1.51581 1.19922 1.17648 1.19922 0.757905V0.757905Z" fill="#FFD84F"/>
<path d="M11.04 4.28448C11.238 3.90517 11.762 3.90517 11.96 4.28448L12.814 5.92078L14.5731 6.26498C14.9792 6.34445 15.1406 6.8587 14.8575 7.17154L13.6262 8.53241L13.8563 10.3859C13.9094 10.813 13.486 11.1315 13.1119 10.946L11.5 10.1465L9.88806 10.946C9.51396 11.1315 9.09062 10.813 9.14366 10.3859L9.37384 8.53241L8.14248 7.17154C7.85942 6.8587 8.02075 6.34445 8.42689 6.26498L10.186 5.92078L11.04 4.28448Z" fill="#FFF5D3"/>
</svg>
