<svg width="24" height="25" viewBox="0 0 24 25" fill="none" xmlns="http://www.w3.org/2000/svg">
<g filter="url(#filter0_d_2144_174377)">
<path d="M21.2561 12C21.2561 11.724 21.2438 11.46 21.2191 11.184L23.5146 9.492C24.0083 9.132 24.144 8.46 23.8355 7.932L21.5276 4.056C21.2191 3.528 20.5527 3.312 19.9849 3.552L17.3315 4.644C16.8749 4.332 16.3936 4.056 15.8876 3.828L15.5297 1.056C15.4556 0.456 14.9249 0 14.3079 0H9.70448C9.07507 0 8.54438 0.456 8.47033 1.056L8.11243 3.828C7.60643 4.056 7.12511 4.332 6.66848 4.644L4.01505 3.552C3.44735 3.312 2.78091 3.528 2.47237 4.056L0.16451 7.944C-0.144028 8.472 -0.00827135 9.132 0.485388 9.504L2.78091 11.196C2.75622 11.46 2.74388 11.724 2.74388 12C2.74388 12.276 2.75622 12.54 2.78091 12.816L0.485388 14.508C-0.00827135 14.868 -0.144028 15.54 0.16451 16.068L2.47237 19.944C2.78091 20.472 3.44735 20.688 4.01505 20.448L6.66848 19.356C7.12511 19.668 7.60643 19.944 8.11243 20.172L8.47033 22.944C8.54438 23.544 9.07507 24 9.69214 24H14.2955C14.9126 24 15.4433 23.544 15.5173 22.944L15.8752 20.172C16.3812 19.944 16.8625 19.668 17.3192 19.356L19.9726 20.448C20.5403 20.688 21.2067 20.472 21.5153 19.944L23.8231 16.068C24.1317 15.54 23.9959 14.88 23.5023 14.508L21.2067 12.816C21.2438 12.54 21.2561 12.276 21.2561 12ZM12.0494 16.2C9.66746 16.2 7.72984 14.316 7.72984 12C7.72984 9.684 9.66746 7.8 12.0494 7.8C14.4313 7.8 16.3689 9.684 16.3689 12C16.3689 14.316 14.4313 16.2 12.0494 16.2Z" fill="#7F8EC1"/>
</g>
<defs>
<filter id="filter0_d_2144_174377" x="0" y="0" width="24" height="25" filterUnits="userSpaceOnUse" color-interpolation-filters="sRGB">
<feFlood flood-opacity="0" result="BackgroundImageFix"/>
<feColorMatrix in="SourceAlpha" type="matrix" values="0 0 0 0 0 0 0 0 0 0 0 0 0 0 0 0 0 0 127 0" result="hardAlpha"/>
<feOffset dy="1"/>
<feComposite in2="hardAlpha" operator="out"/>
<feColorMatrix type="matrix" values="0 0 0 0 0.352941 0 0 0 0 0.4 0 0 0 0 0.623529 0 0 0 1 0"/>
<feBlend mode="normal" in2="BackgroundImageFix" result="effect1_dropShadow_2144_174377"/>
<feBlend mode="normal" in="SourceGraphic" in2="effect1_dropShadow_2144_174377" result="shape"/>
</filter>
</defs>
</svg>
