<svg width="299" height="149" viewBox="0 0 299 149" fill="none" xmlns="http://www.w3.org/2000/svg">
<g filter="url(#filter0_d_2132_88391)">
<rect x="13" y="13" width="250" height="84" fill="white" stroke="white" stroke-width="6"/>
<mask id="path-2-outside-1_2132_88391" maskUnits="userSpaceOnUse" x="0" y="0" width="296" height="110" fill="black">
<rect fill="white" width="296" height="110"/>
<path d="M9.81802 51.9888C9.33528 51.9888 8.91837 51.8136 8.56729 51.4632C8.21621 51.1128 8.04067 50.6968 8.04067 50.215V7.77386C8.04067 7.29207 8.21621 6.87598 8.56729 6.52559C8.91837 6.1752 9.33528 6 9.81802 6H31.6729C35.8859 6 39.3309 6.52559 42.0079 7.57676C44.6849 8.58413 46.6597 10.1171 47.9324 12.1756C49.249 14.1904 49.9072 16.7307 49.9072 19.7966C49.9072 21.1982 49.6 22.4684 48.9856 23.6072C48.4151 24.7021 47.713 25.6219 46.8792 26.3665C46.0892 27.1111 45.3432 27.6585 44.641 28.0089C46.3086 28.7097 47.7569 29.9361 48.9856 31.688C50.2583 33.3962 50.8947 35.3452 50.8947 37.5352C50.8947 40.8201 50.1706 43.5356 48.7223 45.6818C47.2741 47.7841 45.1676 49.3609 42.4029 50.4121C39.682 51.4632 36.3247 51.9888 32.3312 51.9888H9.81802ZM24.4977 40.6887H30.6197C31.7168 40.6887 32.4848 40.3383 32.9236 39.6375C33.4064 38.893 33.6477 38.1703 33.6477 37.4695C33.6477 36.6811 33.3844 35.9584 32.8578 35.3014C32.3751 34.6007 31.629 34.2503 30.6197 34.2503H24.4977V40.6887ZM24.4977 23.2787H30.0272C30.9927 23.2787 31.6729 22.9721 32.0679 22.3589C32.5067 21.7019 32.7261 21.023 32.7261 20.3222C32.7261 19.6215 32.5067 18.9426 32.0679 18.2856C31.6729 17.6286 30.9927 17.3001 30.0272 17.3001H24.4977V23.2787Z"/>
<path d="M59.477 51.9888C58.9942 51.9888 58.5773 51.8136 58.2262 51.4632C57.8752 51.1128 57.6996 50.6968 57.6996 50.215V7.77386C57.6996 7.29207 57.8752 6.87598 58.2262 6.52559C58.5773 6.1752 58.9942 6 59.477 6H93.2467C93.7294 6 94.1464 6.1752 94.4974 6.52559C94.8485 6.87598 95.0241 7.29207 95.0241 7.77386V17.0373C95.0241 17.5191 94.8485 17.9352 94.4974 18.2856C94.1464 18.636 93.7294 18.8112 93.2467 18.8112H73.4983V22.9502H91.7985C92.2812 22.9502 92.6981 23.1254 93.0492 23.4758C93.4003 23.8261 93.5759 24.2422 93.5759 24.724V33.2648C93.5759 33.7466 93.4003 34.1627 93.0492 34.5131C92.6981 34.8635 92.2812 35.0387 91.7985 35.0387H73.4983V39.1777H93.7733C94.2561 39.1777 94.673 39.3528 95.0241 39.7032C95.3752 40.0536 95.5507 40.4697 95.5507 40.9515V50.215C95.5507 50.6968 95.3752 51.1128 95.0241 51.4632C94.673 51.8136 94.2561 51.9888 93.7733 51.9888H59.477Z"/>
<path d="M114.904 51.9888C114.421 51.9888 114.004 51.8136 113.653 51.4632C113.302 51.1128 113.126 50.6968 113.126 50.215V20.1251H102.199C101.716 20.1251 101.299 19.9499 100.948 19.5996C100.597 19.2492 100.421 18.8331 100.421 18.3513V7.77386C100.421 7.29207 100.597 6.87598 100.948 6.52559C101.299 6.1752 101.716 6 102.199 6H140.774C141.257 6 141.674 6.1752 142.025 6.52559C142.376 6.87598 142.551 7.29207 142.551 7.77386V18.3513C142.551 18.8331 142.376 19.2492 142.025 19.5996C141.674 19.9499 141.257 20.1251 140.774 20.1251H129.847V50.215C129.847 50.6968 129.671 51.1128 129.32 51.4632C128.969 51.8136 128.552 51.9888 128.069 51.9888H114.904Z"/>
<path d="M160.577 51.9888C160.094 51.9888 159.677 51.8136 159.326 51.4632C158.975 51.1128 158.8 50.6968 158.8 50.215V20.1251H147.872C147.389 20.1251 146.972 19.9499 146.621 19.5996C146.27 19.2492 146.095 18.8331 146.095 18.3513V7.77386C146.095 7.29207 146.27 6.87598 146.621 6.52559C146.972 6.1752 147.389 6 147.872 6H186.447C186.93 6 187.347 6.1752 187.698 6.52559C188.049 6.87598 188.225 7.29207 188.225 7.77386V18.3513C188.225 18.8331 188.049 19.2492 187.698 19.5996C187.347 19.9499 186.93 20.1251 186.447 20.1251H175.52V50.215C175.52 50.6968 175.344 51.1128 174.993 51.4632C174.642 51.8136 174.225 51.9888 173.742 51.9888H160.577Z"/>
<path d="M196.047 51.9888C195.564 51.9888 195.147 51.8136 194.796 51.4632C194.445 51.1128 194.269 50.6968 194.269 50.215V7.77386C194.269 7.29207 194.445 6.87598 194.796 6.52559C195.147 6.1752 195.564 6 196.047 6H229.817C230.299 6 230.716 6.1752 231.067 6.52559C231.418 6.87598 231.594 7.29207 231.594 7.77386V17.0373C231.594 17.5191 231.418 17.9352 231.067 18.2856C230.716 18.636 230.299 18.8112 229.817 18.8112H210.068V22.9502H228.368C228.851 22.9502 229.268 23.1254 229.619 23.4758C229.97 23.8261 230.146 24.2422 230.146 24.724V33.2648C230.146 33.7466 229.97 34.1627 229.619 34.5131C229.268 34.8635 228.851 35.0387 228.368 35.0387H210.068V39.1777H230.343C230.826 39.1777 231.243 39.3528 231.594 39.7032C231.945 40.0536 232.121 40.4697 232.121 40.9515V50.215C232.121 50.6968 231.945 51.1128 231.594 51.4632C231.243 51.8136 230.826 51.9888 230.343 51.9888H196.047Z"/>
<path d="M241.27 51.9888C240.787 51.9888 240.37 51.8136 240.019 51.4632C239.668 51.1128 239.493 50.6968 239.493 50.215V7.77386C239.493 7.29207 239.668 6.87598 240.019 6.52559C240.37 6.1752 240.787 6 241.27 6H260.755C267.075 6 272.012 7.42346 275.566 10.2704C279.121 13.1173 280.899 17.0154 280.899 21.9647C280.899 24.8992 280.218 27.4615 278.858 29.6514C277.541 31.7975 275.852 33.5276 273.789 34.8416L281.886 49.8208C282.018 50.0836 282.083 50.3245 282.083 50.5435C282.083 50.9376 281.93 51.288 281.623 51.5946C281.359 51.8574 281.03 51.9888 280.635 51.9888H267.14C266.263 51.9888 265.604 51.7698 265.166 51.3318C264.727 50.8939 264.442 50.5216 264.31 50.215L258.649 37.6666H255.95V50.215C255.95 50.6968 255.774 51.1128 255.423 51.4632C255.072 51.8136 254.655 51.9888 254.172 51.9888H241.27ZM255.95 25.1839H260.755C261.765 25.1839 262.511 24.8554 262.993 24.1984C263.52 23.4977 263.783 22.7093 263.783 21.8333C263.783 20.9573 263.542 20.147 263.059 19.4025C262.62 18.6141 261.852 18.2199 260.755 18.2199H255.95V25.1839Z"/>
<path d="M15.0843 104C14.2066 104 13.5044 103.737 12.9778 103.212C12.4511 102.642 12.1439 102.073 12.0562 101.503L6 59.6536C6 59.6098 6 59.5879 6 59.5879C6 59.5441 6 59.5003 6 59.4565C6 59.0623 6.13166 58.7338 6.39497 58.4711C6.70216 58.1645 7.05325 58.0112 7.44822 58.0112H19.6922C21.1404 58.0112 21.9304 58.6025 22.062 59.785L24.3002 78.3119L26.9991 70.0997C27.0869 69.7931 27.2844 69.3989 27.5916 68.9171C27.8988 68.4353 28.4473 68.1944 29.2373 68.1944H35.9517C36.7416 68.1944 37.2902 68.4353 37.5974 68.9171C37.9046 69.3989 38.1021 69.7931 38.1899 70.0997L40.8888 78.2462L43.127 59.785C43.2586 58.6025 44.0485 58.0112 45.4968 58.0112H57.7408C58.1357 58.0112 58.4649 58.1645 58.7282 58.4711C59.0354 58.7338 59.189 59.0623 59.189 59.4565C59.189 59.5003 59.189 59.5441 59.189 59.5879C59.189 59.5879 59.189 59.6098 59.189 59.6536L53.1328 101.503C53.0889 102.073 52.7817 102.642 52.2112 103.212C51.6846 103.737 50.9824 104 50.1047 104H40.6913C39.8136 104 39.1553 103.781 38.7165 103.343C38.3215 102.861 38.0802 102.489 37.9924 102.226L32.5945 88.758L27.1966 102.226C27.1088 102.489 26.8455 102.861 26.4067 103.343C26.0117 103.781 25.3754 104 24.4977 104H15.0843Z"/>
<path d="M157.577 104C157.094 104 156.677 103.825 156.326 103.474C155.975 103.124 155.799 102.708 155.799 102.226V59.785C155.799 59.3032 155.975 58.8871 156.326 58.5368C156.677 58.1864 157.094 58.0112 157.577 58.0112H177.062C183.381 58.0112 188.318 59.4346 191.873 62.2816C195.428 65.1285 197.205 69.0266 197.205 73.9759C197.205 76.9104 196.525 79.4726 195.165 81.6626C193.848 83.8087 192.158 85.5388 190.096 86.8527L198.193 101.832C198.324 102.095 198.39 102.336 198.39 102.555C198.39 102.949 198.237 103.299 197.929 103.606C197.666 103.869 197.337 104 196.942 104H183.447C182.569 104 181.911 103.781 181.472 103.343C181.033 102.905 180.748 102.533 180.617 102.226L174.955 89.6778H172.256V102.226C172.256 102.708 172.081 103.124 171.73 103.474C171.379 103.825 170.962 104 170.479 104H157.577ZM172.256 77.1951H177.062C178.071 77.1951 178.817 76.8666 179.3 76.2096C179.827 75.5088 180.09 74.7204 180.09 73.8445C180.09 72.9685 179.849 72.1582 179.366 71.4136C178.927 70.6252 178.159 70.2311 177.062 70.2311H172.256V77.1951Z"/>
<path d="M206.4 104C205.917 104 205.5 103.825 205.149 103.474C204.798 103.124 204.623 102.708 204.623 102.226V59.785C204.623 59.3032 204.798 58.8871 205.149 58.5368C205.5 58.1864 205.917 58.0112 206.4 58.0112H219.566C220.048 58.0112 220.465 58.1864 220.816 58.5368C221.167 58.8871 221.343 59.3032 221.343 59.785V90.5318H239.577C240.06 90.5318 240.477 90.707 240.828 91.0574C241.179 91.4078 241.355 91.8239 241.355 92.3057V102.226C241.355 102.708 241.179 103.124 240.828 103.474C240.477 103.825 240.06 104 239.577 104H206.4Z"/>
<path d="M248.923 104C248.441 104 248.024 103.825 247.673 103.474C247.322 103.124 247.146 102.708 247.146 102.226V59.785C247.146 59.3032 247.322 58.8871 247.673 58.5368C248.024 58.1864 248.441 58.0112 248.923 58.0112H267.882C272.007 58.0112 275.693 58.7119 278.941 60.1135C282.188 61.4713 284.778 63.486 286.709 66.1578C288.683 68.8295 289.737 72.1363 289.868 76.0782C289.956 77.9616 290 79.6259 290 81.0713C290 82.4728 289.956 84.0715 289.868 85.8672C289.693 89.9843 288.683 93.4007 286.84 96.1162C284.997 98.7879 282.474 100.781 279.27 102.095C276.11 103.365 272.424 104 268.211 104H248.923ZM263.603 91.1888H267.882C268.847 91.1888 269.703 91.0136 270.449 90.6632C271.239 90.269 271.875 89.6777 272.358 88.8894C272.841 88.101 273.104 87.0936 273.148 85.8672C273.236 84.5971 273.28 83.4583 273.28 82.4509C273.324 81.4436 273.324 80.4362 273.28 79.4288C273.28 78.3776 273.236 77.2608 273.148 76.0782C273.06 74.2386 272.468 72.9028 271.371 72.0706C270.317 71.2384 269.045 70.8223 267.553 70.8223H263.603V91.1888Z"/>
</mask>
<path d="M9.81802 51.9888C9.33528 51.9888 8.91837 51.8136 8.56729 51.4632C8.21621 51.1128 8.04067 50.6968 8.04067 50.215V7.77386C8.04067 7.29207 8.21621 6.87598 8.56729 6.52559C8.91837 6.1752 9.33528 6 9.81802 6H31.6729C35.8859 6 39.3309 6.52559 42.0079 7.57676C44.6849 8.58413 46.6597 10.1171 47.9324 12.1756C49.249 14.1904 49.9072 16.7307 49.9072 19.7966C49.9072 21.1982 49.6 22.4684 48.9856 23.6072C48.4151 24.7021 47.713 25.6219 46.8792 26.3665C46.0892 27.1111 45.3432 27.6585 44.641 28.0089C46.3086 28.7097 47.7569 29.9361 48.9856 31.688C50.2583 33.3962 50.8947 35.3452 50.8947 37.5352C50.8947 40.8201 50.1706 43.5356 48.7223 45.6818C47.2741 47.7841 45.1676 49.3609 42.4029 50.4121C39.682 51.4632 36.3247 51.9888 32.3312 51.9888H9.81802ZM24.4977 40.6887H30.6197C31.7168 40.6887 32.4848 40.3383 32.9236 39.6375C33.4064 38.893 33.6477 38.1703 33.6477 37.4695C33.6477 36.6811 33.3844 35.9584 32.8578 35.3014C32.3751 34.6007 31.629 34.2503 30.6197 34.2503H24.4977V40.6887ZM24.4977 23.2787H30.0272C30.9927 23.2787 31.6729 22.9721 32.0679 22.3589C32.5067 21.7019 32.7261 21.023 32.7261 20.3222C32.7261 19.6215 32.5067 18.9426 32.0679 18.2856C31.6729 17.6286 30.9927 17.3001 30.0272 17.3001H24.4977V23.2787Z" fill="#28AEFB"/>
<path d="M59.477 51.9888C58.9942 51.9888 58.5773 51.8136 58.2262 51.4632C57.8752 51.1128 57.6996 50.6968 57.6996 50.215V7.77386C57.6996 7.29207 57.8752 6.87598 58.2262 6.52559C58.5773 6.1752 58.9942 6 59.477 6H93.2467C93.7294 6 94.1464 6.1752 94.4974 6.52559C94.8485 6.87598 95.0241 7.29207 95.0241 7.77386V17.0373C95.0241 17.5191 94.8485 17.9352 94.4974 18.2856C94.1464 18.636 93.7294 18.8112 93.2467 18.8112H73.4983V22.9502H91.7985C92.2812 22.9502 92.6981 23.1254 93.0492 23.4758C93.4003 23.8261 93.5759 24.2422 93.5759 24.724V33.2648C93.5759 33.7466 93.4003 34.1627 93.0492 34.5131C92.6981 34.8635 92.2812 35.0387 91.7985 35.0387H73.4983V39.1777H93.7733C94.2561 39.1777 94.673 39.3528 95.0241 39.7032C95.3752 40.0536 95.5507 40.4697 95.5507 40.9515V50.215C95.5507 50.6968 95.3752 51.1128 95.0241 51.4632C94.673 51.8136 94.2561 51.9888 93.7733 51.9888H59.477Z" fill="#28AEFB"/>
<path d="M114.904 51.9888C114.421 51.9888 114.004 51.8136 113.653 51.4632C113.302 51.1128 113.126 50.6968 113.126 50.215V20.1251H102.199C101.716 20.1251 101.299 19.9499 100.948 19.5996C100.597 19.2492 100.421 18.8331 100.421 18.3513V7.77386C100.421 7.29207 100.597 6.87598 100.948 6.52559C101.299 6.1752 101.716 6 102.199 6H140.774C141.257 6 141.674 6.1752 142.025 6.52559C142.376 6.87598 142.551 7.29207 142.551 7.77386V18.3513C142.551 18.8331 142.376 19.2492 142.025 19.5996C141.674 19.9499 141.257 20.1251 140.774 20.1251H129.847V50.215C129.847 50.6968 129.671 51.1128 129.32 51.4632C128.969 51.8136 128.552 51.9888 128.069 51.9888H114.904Z" fill="#28AEFB"/>
<path d="M160.577 51.9888C160.094 51.9888 159.677 51.8136 159.326 51.4632C158.975 51.1128 158.8 50.6968 158.8 50.215V20.1251H147.872C147.389 20.1251 146.972 19.9499 146.621 19.5996C146.27 19.2492 146.095 18.8331 146.095 18.3513V7.77386C146.095 7.29207 146.27 6.87598 146.621 6.52559C146.972 6.1752 147.389 6 147.872 6H186.447C186.93 6 187.347 6.1752 187.698 6.52559C188.049 6.87598 188.225 7.29207 188.225 7.77386V18.3513C188.225 18.8331 188.049 19.2492 187.698 19.5996C187.347 19.9499 186.93 20.1251 186.447 20.1251H175.52V50.215C175.52 50.6968 175.344 51.1128 174.993 51.4632C174.642 51.8136 174.225 51.9888 173.742 51.9888H160.577Z" fill="#28AEFB"/>
<path d="M196.047 51.9888C195.564 51.9888 195.147 51.8136 194.796 51.4632C194.445 51.1128 194.269 50.6968 194.269 50.215V7.77386C194.269 7.29207 194.445 6.87598 194.796 6.52559C195.147 6.1752 195.564 6 196.047 6H229.817C230.299 6 230.716 6.1752 231.067 6.52559C231.418 6.87598 231.594 7.29207 231.594 7.77386V17.0373C231.594 17.5191 231.418 17.9352 231.067 18.2856C230.716 18.636 230.299 18.8112 229.817 18.8112H210.068V22.9502H228.368C228.851 22.9502 229.268 23.1254 229.619 23.4758C229.97 23.8261 230.146 24.2422 230.146 24.724V33.2648C230.146 33.7466 229.97 34.1627 229.619 34.5131C229.268 34.8635 228.851 35.0387 228.368 35.0387H210.068V39.1777H230.343C230.826 39.1777 231.243 39.3528 231.594 39.7032C231.945 40.0536 232.121 40.4697 232.121 40.9515V50.215C232.121 50.6968 231.945 51.1128 231.594 51.4632C231.243 51.8136 230.826 51.9888 230.343 51.9888H196.047Z" fill="#28AEFB"/>
<path d="M241.27 51.9888C240.787 51.9888 240.37 51.8136 240.019 51.4632C239.668 51.1128 239.493 50.6968 239.493 50.215V7.77386C239.493 7.29207 239.668 6.87598 240.019 6.52559C240.37 6.1752 240.787 6 241.27 6H260.755C267.075 6 272.012 7.42346 275.566 10.2704C279.121 13.1173 280.899 17.0154 280.899 21.9647C280.899 24.8992 280.218 27.4615 278.858 29.6514C277.541 31.7975 275.852 33.5276 273.789 34.8416L281.886 49.8208C282.018 50.0836 282.083 50.3245 282.083 50.5435C282.083 50.9376 281.93 51.288 281.623 51.5946C281.359 51.8574 281.03 51.9888 280.635 51.9888H267.14C266.263 51.9888 265.604 51.7698 265.166 51.3318C264.727 50.8939 264.442 50.5216 264.31 50.215L258.649 37.6666H255.95V50.215C255.95 50.6968 255.774 51.1128 255.423 51.4632C255.072 51.8136 254.655 51.9888 254.172 51.9888H241.27ZM255.95 25.1839H260.755C261.765 25.1839 262.511 24.8554 262.993 24.1984C263.52 23.4977 263.783 22.7093 263.783 21.8333C263.783 20.9573 263.542 20.147 263.059 19.4025C262.62 18.6141 261.852 18.2199 260.755 18.2199H255.95V25.1839Z" fill="#28AEFB"/>
<path d="M15.0843 104C14.2066 104 13.5044 103.737 12.9778 103.212C12.4511 102.642 12.1439 102.073 12.0562 101.503L6 59.6536C6 59.6098 6 59.5879 6 59.5879C6 59.5441 6 59.5003 6 59.4565C6 59.0623 6.13166 58.7338 6.39497 58.4711C6.70216 58.1645 7.05325 58.0112 7.44822 58.0112H19.6922C21.1404 58.0112 21.9304 58.6025 22.062 59.785L24.3002 78.3119L26.9991 70.0997C27.0869 69.7931 27.2844 69.3989 27.5916 68.9171C27.8988 68.4353 28.4473 68.1944 29.2373 68.1944H35.9517C36.7416 68.1944 37.2902 68.4353 37.5974 68.9171C37.9046 69.3989 38.1021 69.7931 38.1899 70.0997L40.8888 78.2462L43.127 59.785C43.2586 58.6025 44.0485 58.0112 45.4968 58.0112H57.7408C58.1357 58.0112 58.4649 58.1645 58.7282 58.4711C59.0354 58.7338 59.189 59.0623 59.189 59.4565C59.189 59.5003 59.189 59.5441 59.189 59.5879C59.189 59.5879 59.189 59.6098 59.189 59.6536L53.1328 101.503C53.0889 102.073 52.7817 102.642 52.2112 103.212C51.6846 103.737 50.9824 104 50.1047 104H40.6913C39.8136 104 39.1553 103.781 38.7165 103.343C38.3215 102.861 38.0802 102.489 37.9924 102.226L32.5945 88.758L27.1966 102.226C27.1088 102.489 26.8455 102.861 26.4067 103.343C26.0117 103.781 25.3754 104 24.4977 104H15.0843Z" fill="#28AEFB"/>
<path d="M157.577 104C157.094 104 156.677 103.825 156.326 103.474C155.975 103.124 155.799 102.708 155.799 102.226V59.785C155.799 59.3032 155.975 58.8871 156.326 58.5368C156.677 58.1864 157.094 58.0112 157.577 58.0112H177.062C183.381 58.0112 188.318 59.4346 191.873 62.2816C195.428 65.1285 197.205 69.0266 197.205 73.9759C197.205 76.9104 196.525 79.4726 195.165 81.6626C193.848 83.8087 192.158 85.5388 190.096 86.8527L198.193 101.832C198.324 102.095 198.39 102.336 198.39 102.555C198.39 102.949 198.237 103.299 197.929 103.606C197.666 103.869 197.337 104 196.942 104H183.447C182.569 104 181.911 103.781 181.472 103.343C181.033 102.905 180.748 102.533 180.617 102.226L174.955 89.6778H172.256V102.226C172.256 102.708 172.081 103.124 171.73 103.474C171.379 103.825 170.962 104 170.479 104H157.577ZM172.256 77.1951H177.062C178.071 77.1951 178.817 76.8666 179.3 76.2096C179.827 75.5088 180.09 74.7204 180.09 73.8445C180.09 72.9685 179.849 72.1582 179.366 71.4136C178.927 70.6252 178.159 70.2311 177.062 70.2311H172.256V77.1951Z" fill="#28AEFB"/>
<path d="M206.4 104C205.917 104 205.5 103.825 205.149 103.474C204.798 103.124 204.623 102.708 204.623 102.226V59.785C204.623 59.3032 204.798 58.8871 205.149 58.5368C205.5 58.1864 205.917 58.0112 206.4 58.0112H219.566C220.048 58.0112 220.465 58.1864 220.816 58.5368C221.167 58.8871 221.343 59.3032 221.343 59.785V90.5318H239.577C240.06 90.5318 240.477 90.707 240.828 91.0574C241.179 91.4078 241.355 91.8239 241.355 92.3057V102.226C241.355 102.708 241.179 103.124 240.828 103.474C240.477 103.825 240.06 104 239.577 104H206.4Z" fill="#28AEFB"/>
<path d="M248.923 104C248.441 104 248.024 103.825 247.673 103.474C247.322 103.124 247.146 102.708 247.146 102.226V59.785C247.146 59.3032 247.322 58.8871 247.673 58.5368C248.024 58.1864 248.441 58.0112 248.923 58.0112H267.882C272.007 58.0112 275.693 58.7119 278.941 60.1135C282.188 61.4713 284.778 63.486 286.709 66.1578C288.683 68.8295 289.737 72.1363 289.868 76.0782C289.956 77.9616 290 79.6259 290 81.0713C290 82.4728 289.956 84.0715 289.868 85.8672C289.693 89.9843 288.683 93.4007 286.84 96.1162C284.997 98.7879 282.474 100.781 279.27 102.095C276.11 103.365 272.424 104 268.211 104H248.923ZM263.603 91.1888H267.882C268.847 91.1888 269.703 91.0136 270.449 90.6632C271.239 90.269 271.875 89.6777 272.358 88.8894C272.841 88.101 273.104 87.0936 273.148 85.8672C273.236 84.5971 273.28 83.4583 273.28 82.4509C273.324 81.4436 273.324 80.4362 273.28 79.4288C273.28 78.3776 273.236 77.2608 273.148 76.0782C273.06 74.2386 272.468 72.9028 271.371 72.0706C270.317 71.2384 269.045 70.8223 267.553 70.8223H263.603V91.1888Z" fill="#28AEFB"/>
<path d="M9.81802 51.9888C9.33528 51.9888 8.91837 51.8136 8.56729 51.4632C8.21621 51.1128 8.04067 50.6968 8.04067 50.215V7.77386C8.04067 7.29207 8.21621 6.87598 8.56729 6.52559C8.91837 6.1752 9.33528 6 9.81802 6H31.6729C35.8859 6 39.3309 6.52559 42.0079 7.57676C44.6849 8.58413 46.6597 10.1171 47.9324 12.1756C49.249 14.1904 49.9072 16.7307 49.9072 19.7966C49.9072 21.1982 49.6 22.4684 48.9856 23.6072C48.4151 24.7021 47.713 25.6219 46.8792 26.3665C46.0892 27.1111 45.3432 27.6585 44.641 28.0089C46.3086 28.7097 47.7569 29.9361 48.9856 31.688C50.2583 33.3962 50.8947 35.3452 50.8947 37.5352C50.8947 40.8201 50.1706 43.5356 48.7223 45.6818C47.2741 47.7841 45.1676 49.3609 42.4029 50.4121C39.682 51.4632 36.3247 51.9888 32.3312 51.9888H9.81802ZM24.4977 40.6887H30.6197C31.7168 40.6887 32.4848 40.3383 32.9236 39.6375C33.4064 38.893 33.6477 38.1703 33.6477 37.4695C33.6477 36.6811 33.3844 35.9584 32.8578 35.3014C32.3751 34.6007 31.629 34.2503 30.6197 34.2503H24.4977V40.6887ZM24.4977 23.2787H30.0272C30.9927 23.2787 31.6729 22.9721 32.0679 22.3589C32.5067 21.7019 32.7261 21.023 32.7261 20.3222C32.7261 19.6215 32.5067 18.9426 32.0679 18.2856C31.6729 17.6286 30.9927 17.3001 30.0272 17.3001H24.4977V23.2787Z" stroke="white" stroke-width="12" mask="url(#path-2-outside-1_2132_88391)"/>
<path d="M59.477 51.9888C58.9942 51.9888 58.5773 51.8136 58.2262 51.4632C57.8752 51.1128 57.6996 50.6968 57.6996 50.215V7.77386C57.6996 7.29207 57.8752 6.87598 58.2262 6.52559C58.5773 6.1752 58.9942 6 59.477 6H93.2467C93.7294 6 94.1464 6.1752 94.4974 6.52559C94.8485 6.87598 95.0241 7.29207 95.0241 7.77386V17.0373C95.0241 17.5191 94.8485 17.9352 94.4974 18.2856C94.1464 18.636 93.7294 18.8112 93.2467 18.8112H73.4983V22.9502H91.7985C92.2812 22.9502 92.6981 23.1254 93.0492 23.4758C93.4003 23.8261 93.5759 24.2422 93.5759 24.724V33.2648C93.5759 33.7466 93.4003 34.1627 93.0492 34.5131C92.6981 34.8635 92.2812 35.0387 91.7985 35.0387H73.4983V39.1777H93.7733C94.2561 39.1777 94.673 39.3528 95.0241 39.7032C95.3752 40.0536 95.5507 40.4697 95.5507 40.9515V50.215C95.5507 50.6968 95.3752 51.1128 95.0241 51.4632C94.673 51.8136 94.2561 51.9888 93.7733 51.9888H59.477Z" stroke="white" stroke-width="12" mask="url(#path-2-outside-1_2132_88391)"/>
<path d="M114.904 51.9888C114.421 51.9888 114.004 51.8136 113.653 51.4632C113.302 51.1128 113.126 50.6968 113.126 50.215V20.1251H102.199C101.716 20.1251 101.299 19.9499 100.948 19.5996C100.597 19.2492 100.421 18.8331 100.421 18.3513V7.77386C100.421 7.29207 100.597 6.87598 100.948 6.52559C101.299 6.1752 101.716 6 102.199 6H140.774C141.257 6 141.674 6.1752 142.025 6.52559C142.376 6.87598 142.551 7.29207 142.551 7.77386V18.3513C142.551 18.8331 142.376 19.2492 142.025 19.5996C141.674 19.9499 141.257 20.1251 140.774 20.1251H129.847V50.215C129.847 50.6968 129.671 51.1128 129.32 51.4632C128.969 51.8136 128.552 51.9888 128.069 51.9888H114.904Z" stroke="white" stroke-width="12" mask="url(#path-2-outside-1_2132_88391)"/>
<path d="M160.577 51.9888C160.094 51.9888 159.677 51.8136 159.326 51.4632C158.975 51.1128 158.8 50.6968 158.8 50.215V20.1251H147.872C147.389 20.1251 146.972 19.9499 146.621 19.5996C146.27 19.2492 146.095 18.8331 146.095 18.3513V7.77386C146.095 7.29207 146.27 6.87598 146.621 6.52559C146.972 6.1752 147.389 6 147.872 6H186.447C186.93 6 187.347 6.1752 187.698 6.52559C188.049 6.87598 188.225 7.29207 188.225 7.77386V18.3513C188.225 18.8331 188.049 19.2492 187.698 19.5996C187.347 19.9499 186.93 20.1251 186.447 20.1251H175.52V50.215C175.52 50.6968 175.344 51.1128 174.993 51.4632C174.642 51.8136 174.225 51.9888 173.742 51.9888H160.577Z" stroke="white" stroke-width="12" mask="url(#path-2-outside-1_2132_88391)"/>
<path d="M196.047 51.9888C195.564 51.9888 195.147 51.8136 194.796 51.4632C194.445 51.1128 194.269 50.6968 194.269 50.215V7.77386C194.269 7.29207 194.445 6.87598 194.796 6.52559C195.147 6.1752 195.564 6 196.047 6H229.817C230.299 6 230.716 6.1752 231.067 6.52559C231.418 6.87598 231.594 7.29207 231.594 7.77386V17.0373C231.594 17.5191 231.418 17.9352 231.067 18.2856C230.716 18.636 230.299 18.8112 229.817 18.8112H210.068V22.9502H228.368C228.851 22.9502 229.268 23.1254 229.619 23.4758C229.97 23.8261 230.146 24.2422 230.146 24.724V33.2648C230.146 33.7466 229.97 34.1627 229.619 34.5131C229.268 34.8635 228.851 35.0387 228.368 35.0387H210.068V39.1777H230.343C230.826 39.1777 231.243 39.3528 231.594 39.7032C231.945 40.0536 232.121 40.4697 232.121 40.9515V50.215C232.121 50.6968 231.945 51.1128 231.594 51.4632C231.243 51.8136 230.826 51.9888 230.343 51.9888H196.047Z" stroke="white" stroke-width="12" mask="url(#path-2-outside-1_2132_88391)"/>
<path d="M241.27 51.9888C240.787 51.9888 240.37 51.8136 240.019 51.4632C239.668 51.1128 239.493 50.6968 239.493 50.215V7.77386C239.493 7.29207 239.668 6.87598 240.019 6.52559C240.37 6.1752 240.787 6 241.27 6H260.755C267.075 6 272.012 7.42346 275.566 10.2704C279.121 13.1173 280.899 17.0154 280.899 21.9647C280.899 24.8992 280.218 27.4615 278.858 29.6514C277.541 31.7975 275.852 33.5276 273.789 34.8416L281.886 49.8208C282.018 50.0836 282.083 50.3245 282.083 50.5435C282.083 50.9376 281.93 51.288 281.623 51.5946C281.359 51.8574 281.03 51.9888 280.635 51.9888H267.14C266.263 51.9888 265.604 51.7698 265.166 51.3318C264.727 50.8939 264.442 50.5216 264.31 50.215L258.649 37.6666H255.95V50.215C255.95 50.6968 255.774 51.1128 255.423 51.4632C255.072 51.8136 254.655 51.9888 254.172 51.9888H241.27ZM255.95 25.1839H260.755C261.765 25.1839 262.511 24.8554 262.993 24.1984C263.52 23.4977 263.783 22.7093 263.783 21.8333C263.783 20.9573 263.542 20.147 263.059 19.4025C262.62 18.6141 261.852 18.2199 260.755 18.2199H255.95V25.1839Z" stroke="white" stroke-width="12" mask="url(#path-2-outside-1_2132_88391)"/>
<path d="M15.0843 104C14.2066 104 13.5044 103.737 12.9778 103.212C12.4511 102.642 12.1439 102.073 12.0562 101.503L6 59.6536C6 59.6098 6 59.5879 6 59.5879C6 59.5441 6 59.5003 6 59.4565C6 59.0623 6.13166 58.7338 6.39497 58.4711C6.70216 58.1645 7.05325 58.0112 7.44822 58.0112H19.6922C21.1404 58.0112 21.9304 58.6025 22.062 59.785L24.3002 78.3119L26.9991 70.0997C27.0869 69.7931 27.2844 69.3989 27.5916 68.9171C27.8988 68.4353 28.4473 68.1944 29.2373 68.1944H35.9517C36.7416 68.1944 37.2902 68.4353 37.5974 68.9171C37.9046 69.3989 38.1021 69.7931 38.1899 70.0997L40.8888 78.2462L43.127 59.785C43.2586 58.6025 44.0485 58.0112 45.4968 58.0112H57.7408C58.1357 58.0112 58.4649 58.1645 58.7282 58.4711C59.0354 58.7338 59.189 59.0623 59.189 59.4565C59.189 59.5003 59.189 59.5441 59.189 59.5879C59.189 59.5879 59.189 59.6098 59.189 59.6536L53.1328 101.503C53.0889 102.073 52.7817 102.642 52.2112 103.212C51.6846 103.737 50.9824 104 50.1047 104H40.6913C39.8136 104 39.1553 103.781 38.7165 103.343C38.3215 102.861 38.0802 102.489 37.9924 102.226L32.5945 88.758L27.1966 102.226C27.1088 102.489 26.8455 102.861 26.4067 103.343C26.0117 103.781 25.3754 104 24.4977 104H15.0843Z" stroke="white" stroke-width="12" mask="url(#path-2-outside-1_2132_88391)"/>
<path d="M157.577 104C157.094 104 156.677 103.825 156.326 103.474C155.975 103.124 155.799 102.708 155.799 102.226V59.785C155.799 59.3032 155.975 58.8871 156.326 58.5368C156.677 58.1864 157.094 58.0112 157.577 58.0112H177.062C183.381 58.0112 188.318 59.4346 191.873 62.2816C195.428 65.1285 197.205 69.0266 197.205 73.9759C197.205 76.9104 196.525 79.4726 195.165 81.6626C193.848 83.8087 192.158 85.5388 190.096 86.8527L198.193 101.832C198.324 102.095 198.39 102.336 198.39 102.555C198.39 102.949 198.237 103.299 197.929 103.606C197.666 103.869 197.337 104 196.942 104H183.447C182.569 104 181.911 103.781 181.472 103.343C181.033 102.905 180.748 102.533 180.617 102.226L174.955 89.6778H172.256V102.226C172.256 102.708 172.081 103.124 171.73 103.474C171.379 103.825 170.962 104 170.479 104H157.577ZM172.256 77.1951H177.062C178.071 77.1951 178.817 76.8666 179.3 76.2096C179.827 75.5088 180.09 74.7204 180.09 73.8445C180.09 72.9685 179.849 72.1582 179.366 71.4136C178.927 70.6252 178.159 70.2311 177.062 70.2311H172.256V77.1951Z" stroke="white" stroke-width="12" mask="url(#path-2-outside-1_2132_88391)"/>
<path d="M206.4 104C205.917 104 205.5 103.825 205.149 103.474C204.798 103.124 204.623 102.708 204.623 102.226V59.785C204.623 59.3032 204.798 58.8871 205.149 58.5368C205.5 58.1864 205.917 58.0112 206.4 58.0112H219.566C220.048 58.0112 220.465 58.1864 220.816 58.5368C221.167 58.8871 221.343 59.3032 221.343 59.785V90.5318H239.577C240.06 90.5318 240.477 90.707 240.828 91.0574C241.179 91.4078 241.355 91.8239 241.355 92.3057V102.226C241.355 102.708 241.179 103.124 240.828 103.474C240.477 103.825 240.06 104 239.577 104H206.4Z" stroke="white" stroke-width="12" mask="url(#path-2-outside-1_2132_88391)"/>
<path d="M248.923 104C248.441 104 248.024 103.825 247.673 103.474C247.322 103.124 247.146 102.708 247.146 102.226V59.785C247.146 59.3032 247.322 58.8871 247.673 58.5368C248.024 58.1864 248.441 58.0112 248.923 58.0112H267.882C272.007 58.0112 275.693 58.7119 278.941 60.1135C282.188 61.4713 284.778 63.486 286.709 66.1578C288.683 68.8295 289.737 72.1363 289.868 76.0782C289.956 77.9616 290 79.6259 290 81.0713C290 82.4728 289.956 84.0715 289.868 85.8672C289.693 89.9843 288.683 93.4007 286.84 96.1162C284.997 98.7879 282.474 100.781 279.27 102.095C276.11 103.365 272.424 104 268.211 104H248.923ZM263.603 91.1888H267.882C268.847 91.1888 269.703 91.0136 270.449 90.6632C271.239 90.269 271.875 89.6777 272.358 88.8894C272.841 88.101 273.104 87.0936 273.148 85.8672C273.236 84.5971 273.28 83.4583 273.28 82.4509C273.324 81.4436 273.324 80.4362 273.28 79.4288C273.28 78.3776 273.236 77.2608 273.148 76.0782C273.06 74.2386 272.468 72.9028 271.371 72.0706C270.317 71.2384 269.045 70.8223 267.553 70.8223H263.603V91.1888Z" stroke="white" stroke-width="12" mask="url(#path-2-outside-1_2132_88391)"/>
<path d="M106.199 140.842C132.06 140.842 152.922 119.828 152.812 93.9211C152.702 68.0143 131.661 47 105.8 47C79.9389 47 59.0766 68.0143 59.1868 93.9211C59.2969 119.828 80.3379 140.842 106.199 140.842Z" fill="#28AEFB" stroke="white" stroke-width="6"/>
<path d="M102.58 104.735C101.542 104.176 100.803 103.198 100.007 102.356C99.6036 101.931 99.1784 101.522 98.69 101.196C98.1705 100.849 97.6061 100.65 97.0108 100.477C96.3441 100.284 95.7181 100.084 95.192 99.6097C94.7579 99.2187 94.391 98.7474 93.8919 98.4337C92.8038 97.7489 91.8436 98.4475 90.8792 98.9728C90.3474 99.2625 89.7714 99.422 89.18 99.2079C88.6683 99.0226 88.245 98.6502 87.8534 98.282C86.9633 97.4448 86.191 96.6166 85.0013 96.2184C83.7983 95.816 82.1285 95.6397 81.4931 94.3527C81.1443 93.6451 81.4427 92.9158 81.8709 92.3239C82.2956 91.738 82.8113 91.1953 83.4162 90.7959C83.9585 90.4385 84.656 90.1656 85.2943 90.4385C85.8271 90.6664 86.2064 91.2271 86.8517 91.046C87.1361 90.9662 87.3596 90.7719 87.612 90.6292C87.8549 90.4912 88.1244 90.4223 88.4038 90.4127C88.9373 90.3947 89.4766 90.6088 89.8842 90.9494C90.2931 91.2912 90.5553 91.7548 90.5893 92.2898C90.6053 92.538 90.9936 92.556 91.0278 92.3071C91.2982 90.3383 92.4282 88.6327 93.4873 87.0046C94.4768 85.4831 95.7369 83.8387 97.665 83.5791C98.6551 83.4459 99.4004 83.8555 100.265 84.2639C100.916 84.5716 101.673 84.785 102.35 84.4324C103.396 83.8867 103.604 82.4264 103.223 81.4021C103.122 81.1323 102.975 80.8954 102.799 80.6699C102.551 80.3544 102.158 79.9466 102.132 79.5244C102.102 79.0315 102.673 79.0621 103.017 79.0657C103.351 79.0693 103.687 79.0429 103.961 78.8324C104.433 78.469 104.458 77.7937 104.312 77.2624C104.113 76.5343 103.564 76.0959 102.985 75.66C102.31 75.152 101.783 74.6573 101.622 73.7961C101.497 73.1214 101.503 72.3532 101.081 71.7739C100.66 71.1958 99.9789 71.0722 99.3089 71.0596C98.6448 71.047 97.7565 71.203 97.2612 70.6404C96.9648 70.304 96.8737 69.8338 96.5862 69.4884C96.3692 69.2275 96.0676 69.0602 95.7277 69.0386C95.0353 68.9943 94.3806 69.486 94.0654 70.0743C93.5592 71.0189 93.9398 72.1853 94.1097 73.167C94.1465 73.3799 94.1756 73.6078 94.1856 73.8387C94.0788 74.4678 93.8564 75.0759 93.5339 75.6246C93.5226 75.633 93.5149 75.6444 93.5029 75.6528C93.4397 75.6983 93.4155 75.7583 93.4145 75.8183C93.1655 76.2015 92.8703 76.5529 92.5204 76.8474C92.2211 77.0993 91.8578 77.3253 91.4552 77.3391C91.0856 77.3517 90.6846 77.1718 90.5622 76.7994C90.4295 76.397 90.5668 75.9214 90.6099 75.5124C90.6502 75.1346 90.6767 74.746 90.6194 74.3682C90.5647 74.0066 90.434 73.6599 90.2078 73.3697C89.9606 73.0524 89.6329 72.8096 89.3887 72.4899C88.9718 71.9442 88.7703 71.2629 88.768 70.5805C88.7651 69.8992 88.9769 69.2023 89.3963 68.6644C89.7824 68.1685 90.3289 67.8248 90.8877 67.5538C91.9635 67.032 93.2047 66.7328 94.1298 65.9418C94.5661 65.5687 94.9492 65.0698 95.0592 64.4929C95.1827 63.8452 94.9035 63.1795 94.2007 63.068C93.7853 63.002 93.3369 63.0692 92.9207 63.1022C92.4357 63.1405 91.9513 63.1933 91.4701 63.2605C91.0067 63.3253 90.5458 63.4038 90.0868 63.495C89.6301 63.5855 89.1687 63.6893 88.7003 63.6929C87.8024 63.7001 87.0805 63.1627 86.2657 62.8683C85.4197 62.5618 84.5209 62.5091 83.6461 62.3297C81.7529 61.9423 80.029 60.8647 78.7773 59.3894C75.3896 62.0719 72.4114 65.2491 69.9464 68.8107C70.1068 69.4069 70.1968 70.0191 70.25 70.5709C70.3589 71.7091 70.4147 72.8569 70.7633 73.9556C71.0938 74.9949 71.6273 75.9586 71.9369 77.0051C72.6191 79.3116 72.1317 81.747 72.0017 84.0906C71.8745 86.3851 72.2334 88.6142 72.8876 90.8127C73.2184 91.9239 73.6089 93.0166 74.0137 94.1026C74.2364 94.7006 74.5205 96.0991 75.405 96.0265C76.1477 95.9653 76.1676 95.0202 76.0397 94.4727C75.7734 93.3314 75.3881 92.2064 75.0627 91.0807C74.7895 90.1356 74.3934 88.589 75.5799 88.0786C76.6153 87.6331 77.2759 89.2163 77.5363 89.9443C77.9038 90.9704 78.006 92.0913 77.8234 93.1641C77.6751 94.0355 77.3516 94.9062 77.4422 95.8034C77.529 96.6628 78.0901 97.2181 78.907 97.4334C79.8119 97.6727 80.7699 97.7339 81.6941 97.8646C82.5938 97.9923 83.5067 98.1447 84.3559 98.4835C85.2152 98.8265 85.9084 99.3585 86.4709 100.094C86.9497 100.72 87.3745 101.442 88.028 101.907C88.7036 102.387 89.4122 102.322 90.1938 102.255C90.5197 102.227 90.9944 102.16 91.2546 102.417C91.6583 102.818 91.2012 103.364 90.9141 103.669C90.6146 103.986 90.2897 104.269 90.037 104.628C89.7926 104.975 89.5956 105.354 89.4562 105.756C89.1772 106.56 89.099 107.441 89.2659 108.28C89.4462 109.187 89.9253 109.871 90.4209 110.631C90.7166 111.084 90.9519 111.56 90.9154 112.115C90.8879 112.535 90.7905 112.992 91.0428 113.368C91.2962 113.745 91.7529 113.81 92.1324 113.998C92.5185 114.19 92.838 114.491 93.083 114.844C94.3434 116.665 93.5233 118.924 93.0392 120.849C92.5862 122.649 92.4978 124.511 92.8066 126.347C93.1048 128.118 93.742 129.828 94.6752 131.365C95.5777 132.85 96.823 134.345 98.3081 135.277C98.8654 135.626 99.8279 135.906 100.214 135.172C100.564 134.506 99.9171 133.951 99.4643 133.551C99.1353 133.26 98.7631 132.964 98.6314 132.526C98.4834 132.034 98.6079 131.494 98.7171 131.008C98.9032 130.177 99.0615 129.416 98.6435 128.62C98.3775 128.114 97.9106 127.753 97.3534 127.846C97.126 127.259 98.0309 126.781 98.4343 126.551C98.9929 126.234 99.3358 125.856 99.4863 125.219C99.5668 124.878 99.6216 124.546 99.8285 124.255C99.9974 124.016 100.223 123.826 100.453 123.651C100.918 123.298 101.426 122.998 101.818 122.558C102.669 121.604 102.853 120.27 103.107 119.064C103.347 117.929 103.792 116.518 104.965 116.04C106.066 115.59 107.361 116.127 108.427 115.534C109.402 114.992 109.458 113.877 109.364 112.881C109.312 112.321 109.216 111.756 109.249 111.192C109.288 110.508 109.579 110.054 110.04 109.568C110.44 109.146 110.768 108.702 110.799 108.1C110.826 107.574 110.643 107.053 110.349 106.62C108.603 104.055 104.925 105.997 102.583 104.735L102.58 104.735Z" fill="#42D576"/>
<path d="M147.221 99.9653C146.701 100.002 146.174 99.9293 145.71 99.6798C145.228 99.4213 144.888 98.9889 144.619 98.5236C144.301 97.9742 144.051 97.3817 143.78 96.8084C143.494 96.2045 143.209 95.6012 142.922 94.9973C142.636 94.3934 142.35 93.7901 142.065 93.1862C141.891 92.818 141.75 92.4072 141.795 91.994C141.85 91.4998 142.286 91.3961 142.619 91.7691C142.918 92.1061 143.068 92.5919 143.216 93.0099C143.51 93.8411 143.721 94.7083 144.116 95.5005C144.483 96.2357 145.026 96.8696 145.827 97.1281C146.861 97.4615 147.963 97.0483 148.811 96.4504C149.169 96.1979 149.489 95.9149 149.785 95.6144C149.803 95.0525 149.815 94.4888 149.813 93.9214C149.764 82.4887 145.361 72.0772 138.187 64.2631C138.089 64.3159 137.988 64.3626 137.882 64.3944C137.155 64.6127 136.533 64.1096 135.85 63.9458C134.479 63.6166 133.162 64.4022 132.236 65.3461C131.251 66.3495 130.682 67.6454 129.968 68.837C129.613 69.4289 129.216 70.0053 128.719 70.4868C128.263 70.9282 127.72 71.2352 127.156 71.5147C126.101 72.0371 124.758 72.5918 124.568 73.9123C124.551 74.0281 124.627 74.1522 124.749 74.1696C126.045 74.3519 127.341 74.5342 128.637 74.7159C129.277 74.8059 129.92 74.9258 130.563 74.9804C130.999 75.0176 131.436 74.9522 131.783 74.6703C132.381 74.1852 132.543 73.3402 132.635 72.6158C132.692 72.1714 132.714 71.7228 132.785 71.2802C132.878 70.7027 133.035 70.1372 133.257 69.5969C133.473 69.0703 134.46 66.8556 135.16 68.0418C135.709 68.9732 134.631 69.9015 134.391 70.7525C134.162 71.5663 134.433 72.4413 135.325 72.6296C135.573 72.6817 135.844 72.7027 135.982 72.9468C136.109 73.1705 136.091 73.4542 135.992 73.6832C135.777 74.1804 135.262 74.5282 134.863 74.8677C133.965 75.6305 133.035 76.3741 131.963 76.8803C130.887 77.3888 129.73 77.6947 128.619 78.1138C127.686 78.4659 126.765 78.9139 126.009 79.5741C125.328 80.1684 124.619 81.0506 124.597 82.0017C124.592 82.2476 124.643 82.4815 124.762 82.6974C124.885 82.9187 125.102 83.1004 125.185 83.3421C125.363 83.8626 124.775 84.31 124.323 84.3796C123.734 84.4707 123.135 84.2152 122.577 84.0605C122.114 83.9316 121.62 83.8578 121.146 83.9646C120.317 84.1511 119.878 84.9151 120.068 85.7319C120.262 86.5667 120.917 87.2126 121.71 87.4926C123.716 88.2009 125.769 87.0806 127.145 85.6713C127.918 84.8791 128.562 83.9736 129.241 83.101C129.533 82.7244 129.928 82.1828 130.457 82.1756C130.87 82.1703 131.1 82.5049 131.204 82.8671C131.317 83.2629 131.31 83.6935 131.266 84.0983C131.253 84.2146 131.322 84.3376 131.446 84.3556C132.234 84.4701 132.87 83.9538 133.531 83.6191C133.837 83.4644 134.208 83.3097 134.543 83.474C134.936 83.6671 135.056 84.1541 135.184 84.5355C135.475 85.3997 136.026 86.0653 136.844 86.4815C137.749 86.9415 138.789 86.9985 139.768 86.7952C140.305 86.6836 140.825 86.5061 141.327 86.2848C141.723 86.1103 142.509 85.5598 142.882 86.0233C143.166 86.3772 143.076 86.9823 142.971 87.3853C142.851 87.8446 142.61 88.2668 142.304 88.6261C141.632 89.4177 140.664 89.85 139.641 89.9574C138.484 90.0785 137.42 89.7763 136.325 89.4411C135.837 89.2911 135.319 89.1814 134.811 89.2995C134.306 89.4171 133.892 89.7955 133.37 89.8501C132.241 89.9688 131.432 88.9133 130.898 88.0707C130.614 87.6227 130.351 87.149 130.006 86.7436C129.76 86.4557 129.398 86.2764 129.042 86.4803C128.707 86.6728 128.567 87.0698 128.348 87.3673C128.086 87.7259 127.677 87.8584 127.252 87.9142C126.385 88.027 125.541 87.9652 124.699 88.2482C123.901 88.5169 123.182 88.9763 122.567 89.5472C121.288 90.734 120.455 92.4156 120.217 94.1439C120.149 94.6393 120.155 95.1394 120.114 95.6372C120.068 96.2153 119.911 96.7089 119.607 97.2006C119.349 97.6174 119.081 98.015 118.956 98.4972C118.84 98.9482 118.852 99.4279 118.952 99.8813C119.36 101.722 121.005 103.078 122.727 103.653C123.618 103.951 124.563 104.073 125.497 103.99C126.493 103.903 127.364 103.538 128.263 103.127C129.139 102.726 130.12 102.353 131.042 102.847C131.398 103.038 131.702 103.358 131.747 103.775C131.797 104.236 131.55 104.678 131.402 105.099C131.27 105.476 131.172 105.882 131.309 106.274C131.465 106.723 131.889 106.957 132.134 107.342C132.68 108.2 131.941 109.332 131.599 110.124C130.707 112.19 131.377 114.319 132.409 116.203C132.966 117.221 133.613 118.189 134.121 119.234C134.521 120.055 134.842 120.993 135.81 121.275C136.638 121.515 137.569 121.21 138.216 120.675C139.027 120.006 139.517 119.063 140.12 118.221C140.741 117.354 141.472 116.563 142.292 115.88C142.701 115.541 143.134 115.243 143.57 114.942C143.901 114.713 144.218 114.422 144.274 114.001C144.385 113.161 143.354 112.51 143.787 111.681C144.142 111.003 144.918 110.516 144.737 109.646C144.643 109.195 144.341 108.838 144.097 108.46C143.839 108.061 143.713 107.62 143.771 107.145C143.888 106.2 144.55 105.37 145.313 104.848C146.439 104.077 147.813 103.68 148.925 102.931C149.168 101.742 149.361 100.534 149.506 99.3116C148.778 99.6402 148.013 99.9077 147.22 99.9641L147.221 99.9653Z" fill="#42D576"/>
<path fill-rule="evenodd" clip-rule="evenodd" d="M149.789 88.6815C149.793 89.5863 149.77 90.4847 149.72 91.376C149.72 91.3775 149.72 91.3791 149.72 91.3807C148.427 114.381 129.458 132.603 106.165 132.603C82.8737 132.603 63.7496 114.383 62.2587 91.3844C62.2087 92.2756 62.1852 93.174 62.1891 94.0788C62.2927 118.336 81.992 138 106.189 138C130.385 138 149.917 118.336 149.813 94.0788C149.809 93.1728 149.778 92.2731 149.72 91.3807C149.77 90.4879 149.794 89.5879 149.79 88.6815C149.687 64.4491 130.027 44.8002 105.864 44.7604C130.027 44.8004 149.686 64.4492 149.789 88.6815ZM105.826 44.7604C105.814 44.7604 105.802 44.7604 105.79 44.7604C105.79 44.7604 105.79 44.7604 105.79 44.7604C81.5935 44.7604 62.0621 64.4245 62.1656 88.6815C62.0621 64.4246 81.5935 44.7605 105.79 44.7604C105.802 44.7604 105.814 44.7604 105.826 44.7604Z" fill="#1B84BF" fill-opacity="0.4"/>
<path d="M109.809 50.1833C109.799 50.1893 109.79 50.1972 109.78 50.2032C108.663 50.8892 107.414 51.4859 106.689 52.6325C106.508 52.918 106.359 53.2532 106.05 53.423C105.822 53.5483 105.553 53.5789 105.297 53.5933C104.782 53.6221 104.251 53.5489 103.748 53.6856C103.255 53.8188 102.89 54.2272 102.881 54.7513C102.87 55.4254 103.353 55.9411 103.897 56.2638C104.506 56.6254 105.161 56.8551 105.735 57.2844C106.276 57.6892 106.752 58.178 107.129 58.7399C107.926 59.9267 108.154 61.3342 107.698 62.6926C107.213 64.1349 106.229 65.3367 105.675 66.7478C105.15 68.0857 105.023 69.5616 105.884 70.7952C106.263 71.3379 106.757 71.7871 107.217 72.2578C107.439 72.4845 107.654 72.7178 107.846 72.9721C108.083 73.2881 108.26 73.6396 108.469 73.973C108.806 74.5121 109.31 75.0345 109.988 75.0567C110.583 75.0759 111.03 74.6447 111.222 74.1097C111.447 73.4836 111.405 72.7844 111.245 72.1457C111.153 71.7745 111.005 71.4243 110.819 71.0908C110.636 70.7646 110.407 70.4546 110.293 70.0941C110.062 69.3565 110.571 68.7004 111.176 68.3412C111.85 67.9418 112.656 67.841 113.382 67.5718C114.035 67.3295 114.644 66.9655 115.165 66.5037C115.695 66.0353 116.047 65.4668 116.481 64.9205C116.724 64.6146 116.997 64.4089 117.366 64.2782C117.697 64.1606 118.035 64.0791 118.341 63.8998C118.833 63.6107 119.182 63.122 119.382 62.5936C119.892 61.2443 119.53 59.8614 119.405 58.4773C119.333 57.6689 119.381 56.8778 119.741 56.1408C120.044 55.5213 120.492 54.9894 120.92 54.4556C121.278 54.0113 121.629 53.5543 121.906 53.0535C118.103 51.5507 114.041 50.5678 109.809 50.184L109.809 50.1833Z" fill="#42D576"/>
<path d="M108.139 83.8264C108.498 82.9293 108.595 82.0502 108.537 81.1515C108.52 80.8859 108.564 80.6606 108.796 80.4939C109.218 80.1908 109.698 80.3381 109.781 80.8372C109.905 81.5799 109.877 82.3334 109.714 83.0652C109.552 83.789 109.345 84.4975 109.007 85.1753C108.659 85.8698 108.172 86.4211 107.572 86.8709C106.692 87.5296 105.677 87.74 104.634 87.396C104.145 87.2347 103.701 86.8832 103.292 86.5503C102.553 85.9491 102.091 85.1357 101.797 84.2458C101.596 83.6401 101.469 83.0066 101.353 82.3775C101.304 82.1065 101.343 81.8107 101.391 81.5339C101.444 81.2235 101.65 81.054 101.881 81.0543C102.234 81.0552 102.521 81.2619 102.585 81.5882C102.619 81.7608 102.608 81.9423 102.625 82.1185C102.707 83.0187 102.976 83.8628 103.411 84.6523C103.824 85.3992 104.403 85.9462 105.256 86.1675C105.814 86.3124 106.306 86.2187 106.767 85.8673C107.475 85.3259 107.925 84.6206 108.14 83.8255L108.139 83.8264Z" fill="#2C2854"/>
<path d="M79.1719 93.075C79.1631 93.063 79.1458 93.0563 79.1232 93.0534C79.1134 93.0395 79.0918 93.0284 79.051 93.0235C78.3921 92.9477 77.6919 93.0731 77.0458 93.2792C76.1199 93.5064 75.285 93.9632 74.9551 94.9087C74.948 94.9296 74.9708 94.9423 75.008 94.9495C75.0054 94.9596 74.9998 94.968 74.9977 94.9781C74.9655 95.1199 74.9683 95.2633 74.9867 95.404C74.9841 95.9569 75.2966 96.4654 75.7445 96.7985C76.3469 97.2463 77.1277 97.3603 77.8571 97.3824C79.143 97.422 80.9659 97.0977 81.5098 95.7353C82.0624 94.3501 80.3721 93.2245 79.1722 93.0754L79.1719 93.075Z" fill="#F9D1E1"/>
<path d="M131.538 93.5877C132.18 94.911 134.022 95.1129 135.303 94.9883C136.028 94.9177 136.799 94.7519 137.367 94.2654C137.789 93.9033 138.063 93.3755 138.02 92.8237C138.028 92.6821 138.02 92.5386 137.978 92.3993C137.975 92.3895 137.968 92.3811 137.965 92.3716C138.001 92.362 138.023 92.3477 138.015 92.3276C137.616 91.4064 136.75 91.0059 135.809 90.841C135.149 90.6785 134.442 90.5999 133.79 90.7195C133.75 90.7271 133.729 90.7395 133.72 90.7541C133.698 90.7582 133.681 90.766 133.673 90.7787C132.487 91.0072 130.884 92.2427 131.537 93.5877L131.538 93.5877Z" fill="#F9D1E1"/>
<path d="M77.2372 94.2866C77.2311 94.2454 77.2174 94.208 77.1991 94.1739C77.199 94.0864 77.147 94.0031 77.0554 93.9868C76.9285 93.9641 76.7914 93.9673 76.6643 93.9895C76.5115 94.0165 76.3706 94.0661 76.2354 94.1424C76.2216 94.1503 76.2116 94.1621 76.202 94.1744C76.1504 94.2055 76.1044 94.2446 76.0748 94.2993C76.0273 94.3884 76.0254 94.5156 76.0931 94.5958C76.0938 94.5966 76.095 94.5974 76.0957 94.5982C76.1041 94.6637 76.1472 94.7233 76.2167 94.7356C76.3711 94.7621 76.5293 94.779 76.6859 94.7782C76.8296 94.7771 76.9833 94.7466 77.094 94.6497C77.1952 94.5617 77.2573 94.4222 77.2368 94.2862L77.2372 94.2866Z" fill="white"/>
<path d="M136.758 91.8602C136.732 91.6888 136.574 91.6095 136.417 91.5907C136.409 91.5862 136.4 91.5806 136.392 91.5765C136.212 91.4833 135.995 91.4646 135.803 91.5301C135.782 91.5374 135.764 91.5494 135.749 91.5635C135.671 91.567 135.604 91.6532 135.613 91.728C135.614 91.7402 135.619 91.7493 135.622 91.7599C135.62 91.7763 135.615 91.7918 135.615 91.8089C135.615 91.9136 135.674 92.0186 135.756 92.0823C135.841 92.1493 135.944 92.1784 136.051 92.1862C136.091 92.1891 136.131 92.1882 136.171 92.1892C136.255 92.2155 136.343 92.2267 136.431 92.2136C136.468 92.2083 136.506 92.1968 136.542 92.1817C136.591 92.1704 136.634 92.1461 136.666 92.1043C136.732 92.0431 136.773 91.9601 136.758 91.8598L136.758 91.8602Z" fill="white"/>
<ellipse cx="9.17676" cy="9.1626" rx="9.17676" ry="9.1626" transform="matrix(-1 0 0 1 96.5488 72.6371)" fill="#F8F8FB"/>
<path fill-rule="evenodd" clip-rule="evenodd" d="M94.0529 79.0685C95.531 82.995 93.4674 87.4058 89.4438 88.9204C88.7318 89.1884 88.0061 89.3478 87.2856 89.4068C87.3251 89.2321 87.3461 89.0512 87.3466 88.8659C87.3507 87.3676 86.0136 86.1493 84.36 86.1448C83.1855 86.1416 82.1673 86.7517 81.6745 87.6424C80.7172 86.842 79.9503 85.7965 79.4824 84.5533C78.0043 80.6269 80.0679 76.216 84.0914 74.7015C88.115 73.1869 92.5749 75.1421 94.0529 79.0685Z" fill="#2C2854"/>
<ellipse cx="124.077" cy="82.8776" rx="9.17676" ry="9.1626" fill="#F8F8FB"/>
<path fill-rule="evenodd" clip-rule="evenodd" d="M123.796 90.5557C123.945 89.5712 123.536 88.4894 122.642 87.7688C121.355 86.7309 119.549 86.8351 118.609 88.0016C118.496 88.1411 118.401 88.2895 118.323 88.4444C115.344 85.6933 114.92 81.1269 117.442 77.9993C120.075 74.7333 124.923 74.2731 128.27 76.9716C131.617 79.67 132.195 84.5052 129.562 87.7713C128.107 89.5757 125.976 90.5237 123.796 90.5557Z" fill="#2C2854"/>
</g>
<defs>
<filter id="filter0_d_2132_88391" x="0" y="0" width="299" height="148.842" filterUnits="userSpaceOnUse" color-interpolation-filters="sRGB">
<feFlood flood-opacity="0" result="BackgroundImageFix"/>
<feColorMatrix in="SourceAlpha" type="matrix" values="0 0 0 0 0 0 0 0 0 0 0 0 0 0 0 0 0 0 127 0" result="hardAlpha"/>
<feOffset dx="3" dy="5"/>
<feComposite in2="hardAlpha" operator="out"/>
<feColorMatrix type="matrix" values="0 0 0 0 0.844173 0 0 0 0 0.83156 0 0 0 0 0.839739 0 0 0 1 0"/>
<feBlend mode="normal" in2="BackgroundImageFix" result="effect1_dropShadow_2132_88391"/>
<feBlend mode="normal" in="SourceGraphic" in2="effect1_dropShadow_2132_88391" result="shape"/>
</filter>
</defs>
</svg>
