<svg width="454" height="76" viewBox="0 0 454 76" fill="none" xmlns="http://www.w3.org/2000/svg">
<g filter="url(#filter0_d_2153_78210)">
<path fill-rule="evenodd" clip-rule="evenodd" d="M13.8383 4C10.7273 4 8.80715 7.39543 10.4104 10.0615L21.3466 28.2467C22.1095 29.5151 22.1095 31.1011 21.3466 32.3696L9.5783 51.9385C7.97501 54.6046 9.8952 58 13.0062 58H59.0014C61.2106 58 63.0014 56.2091 63.0014 54V8C63.0014 5.79086 61.2106 4 59.0014 4H13.8383Z" fill="#D7A72D"/>
</g>
<g filter="url(#filter1_d_2153_78210)">
<path fill-rule="evenodd" clip-rule="evenodd" d="M437.162 58C440.273 58 442.193 54.6046 440.59 51.9385L429.654 33.7528C428.891 32.4844 428.891 30.8984 429.654 29.6299L441.422 10.0614C443.025 7.39542 441.105 4 437.994 4L391.999 4C389.79 4 387.999 5.79086 387.999 8V54C387.999 56.2091 389.79 58 391.999 58L437.162 58Z" fill="#D7A72D"/>
</g>
<g filter="url(#filter2_d_2153_78210)">
<rect x="32" width="390" height="52" rx="4" fill="#D7A72D"/>
</g>
<g filter="url(#filter3_d_2153_78210)">
<path d="M386.681 15.7913C385.986 15.1554 384.92 15.1872 384.254 15.853L382.854 17.2537C382.188 17.9196 382.156 18.9857 382.792 19.6803C384.001 21.0014 386.115 23.2752 388.78 26.0001C386.115 28.725 384.001 30.9987 382.792 32.3198C382.156 33.0144 382.188 34.0805 382.854 34.7464L384.255 36.147C384.92 36.8129 385.987 36.8447 386.681 36.2088C388.002 34.9995 390.276 32.8861 393.001 30.2209C395.726 32.8861 397.999 34.9995 399.32 36.2088C400.015 36.8447 401.081 36.8129 401.747 36.147L403.148 34.7464C403.814 34.0805 403.845 33.0144 403.209 32.3198C402 30.9987 399.887 28.725 397.221 26.0001C399.887 23.2752 402 21.0014 403.21 19.6803C403.845 18.9857 403.814 17.9196 403.148 17.2537L401.747 15.853C401.081 15.1872 400.015 15.1554 399.321 15.7913C398 17.0006 395.726 19.1141 393.001 21.7794C390.276 19.1141 388.002 17.0006 386.681 15.7913Z" fill="#FFFCFE"/>
</g>
<defs>
<filter id="filter0_d_2153_78210" x="5" y="4" width="62.002" height="62" filterUnits="userSpaceOnUse" color-interpolation-filters="sRGB">
<feFlood flood-opacity="0" result="BackgroundImageFix"/>
<feColorMatrix in="SourceAlpha" type="matrix" values="0 0 0 0 0 0 0 0 0 0 0 0 0 0 0 0 0 0 127 0" result="hardAlpha"/>
<feOffset dy="4"/>
<feGaussianBlur stdDeviation="2"/>
<feComposite in2="hardAlpha" operator="out"/>
<feColorMatrix type="matrix" values="0 0 0 0 0 0 0 0 0 0 0 0 0 0 0 0 0 0 0.25 0"/>
<feBlend mode="normal" in2="BackgroundImageFix" result="effect1_dropShadow_2153_78210"/>
<feBlend mode="normal" in="SourceGraphic" in2="effect1_dropShadow_2153_78210" result="shape"/>
</filter>
<filter id="filter1_d_2153_78210" x="384" y="4" width="62" height="62" filterUnits="userSpaceOnUse" color-interpolation-filters="sRGB">
<feFlood flood-opacity="0" result="BackgroundImageFix"/>
<feColorMatrix in="SourceAlpha" type="matrix" values="0 0 0 0 0 0 0 0 0 0 0 0 0 0 0 0 0 0 127 0" result="hardAlpha"/>
<feOffset dy="4"/>
<feGaussianBlur stdDeviation="2"/>
<feComposite in2="hardAlpha" operator="out"/>
<feColorMatrix type="matrix" values="0 0 0 0 0 0 0 0 0 0 0 0 0 0 0 0 0 0 0.25 0"/>
<feBlend mode="normal" in2="BackgroundImageFix" result="effect1_dropShadow_2153_78210"/>
<feBlend mode="normal" in="SourceGraphic" in2="effect1_dropShadow_2153_78210" result="shape"/>
</filter>
<filter id="filter2_d_2153_78210" x="28" y="0" width="398" height="60" filterUnits="userSpaceOnUse" color-interpolation-filters="sRGB">
<feFlood flood-opacity="0" result="BackgroundImageFix"/>
<feColorMatrix in="SourceAlpha" type="matrix" values="0 0 0 0 0 0 0 0 0 0 0 0 0 0 0 0 0 0 127 0" result="hardAlpha"/>
<feOffset dy="4"/>
<feGaussianBlur stdDeviation="2"/>
<feComposite in2="hardAlpha" operator="out"/>
<feColorMatrix type="matrix" values="0 0 0 0 0 0 0 0 0 0 0 0 0 0 0 0 0 0 0.25 0"/>
<feBlend mode="normal" in2="BackgroundImageFix" result="effect1_dropShadow_2153_78210"/>
<feBlend mode="normal" in="SourceGraphic" in2="effect1_dropShadow_2153_78210" result="shape"/>
</filter>
<filter id="filter3_d_2153_78210" x="382.334" y="15.3334" width="21.334" height="22.3334" filterUnits="userSpaceOnUse" color-interpolation-filters="sRGB">
<feFlood flood-opacity="0" result="BackgroundImageFix"/>
<feColorMatrix in="SourceAlpha" type="matrix" values="0 0 0 0 0 0 0 0 0 0 0 0 0 0 0 0 0 0 127 0" result="hardAlpha"/>
<feOffset dy="1"/>
<feComposite in2="hardAlpha" operator="out"/>
<feColorMatrix type="matrix" values="0 0 0 0 0.827451 0 0 0 0 0.827451 0 0 0 0 0.827451 0 0 0 1 0"/>
<feBlend mode="normal" in2="BackgroundImageFix" result="effect1_dropShadow_2153_78210"/>
<feBlend mode="normal" in="SourceGraphic" in2="effect1_dropShadow_2153_78210" result="shape"/>
</filter>
</defs>
</svg>
