<svg fill="none" height="60" viewBox="0 0 433 60" width="433" xmlns="http://www.w3.org/2000/svg">
    <path clip-rule="evenodd" d="M4.83833 6C1.72734 6 -0.19285 9.39543 1.41044 12.0615L12.3466 30.2467C13.1095 31.5151 13.1095 33.1011 12.3466 34.3696L0.578304 53.9385C-1.02499 56.6046 0.895203 60 4.00619 60H50.0014C52.2106 60 54.0014 58.2091 54.0014 56V10C54.0014 7.79086 52.2106 6 50.0014 6H4.83833Z"
        fill="#212121"
        fill-opacity="0.1" fill-rule="evenodd" />
    <path clip-rule="evenodd" d="M428.162 60C431.273 60 433.193 56.6046 431.59 53.9385L420.654 35.7528C419.891 34.4844 419.891 32.8984 420.654 31.6299L432.422 12.0614C434.025 9.39542 432.105 6 428.994 6L382.999 6C380.79 6 378.999 7.79086 378.999 10V56C378.999 58.2091 380.79 60 382.999 60L428.162 60Z"
        fill="#212121"
        fill-opacity="0.1" fill-rule="evenodd" />
    <path clip-rule="evenodd" d="M4.83833 4C1.72734 4 -0.19285 7.39543 1.41044 10.0615L12.3466 28.2467C13.1095 29.5151 13.1095 31.1011 12.3466 32.3696L0.578304 51.9385C-1.02499 54.6046 0.895203 58 4.00619 58H50.0014C52.2106 58 54.0014 56.2091 54.0014 54V8C54.0014 5.79086 52.2106 4 50.0014 4H4.83833Z"
        fill="#BB3A29"
        fill-rule="evenodd" />
    <path clip-rule="evenodd" d="M428.162 58C431.273 58 433.193 54.6046 431.59 51.9385L420.654 33.7528C419.891 32.4844 419.891 30.8984 420.654 29.6299L432.422 10.0614C434.025 7.39542 432.105 4 428.994 4L382.999 4C380.79 4 378.999 5.79086 378.999 8V54C378.999 56.2091 380.79 58 382.999 58L428.162 58Z"
        fill="#BB3A29"
        fill-rule="evenodd" />
    <rect fill="#212121" fill-opacity="0.1" height="50" rx="4" width="394" x="21" y="4" />
    <rect fill="#BB3A29" height="52" rx="4" width="390" x="23" />
</svg>
