<svg width="454" height="76" viewBox="0 0 454 76" fill="none" xmlns="http://www.w3.org/2000/svg">
<g filter="url(#filter0_d_2153_78095)">
<path fill-rule="evenodd" clip-rule="evenodd" d="M13.8383 4C10.7273 4 8.80715 7.39543 10.4104 10.0615L21.3466 28.2467C22.1095 29.5151 22.1095 31.1011 21.3466 32.3696L9.5783 51.9385C7.97501 54.6046 9.8952 58 13.0062 58H59.0014C61.2106 58 63.0014 56.2091 63.0014 54V8C63.0014 5.79086 61.2106 4 59.0014 4H13.8383Z" fill="#2D67D7"/>
</g>
<g filter="url(#filter1_d_2153_78095)">
<path fill-rule="evenodd" clip-rule="evenodd" d="M437.162 58C440.273 58 442.193 54.6046 440.59 51.9385L429.654 33.7528C428.891 32.4844 428.891 30.8984 429.654 29.6299L441.422 10.0614C443.025 7.39542 441.105 4 437.994 4L391.999 4C389.79 4 387.999 5.79086 387.999 8V54C387.999 56.2091 389.79 58 391.999 58L437.162 58Z" fill="#2D67D7"/>
</g>
<g filter="url(#filter2_d_2153_78095)">
<rect x="32" width="390" height="52" rx="4" fill="#2D67D7"/>
</g>
<defs>
<filter id="filter0_d_2153_78095" x="5" y="4" width="62.002" height="62" filterUnits="userSpaceOnUse" color-interpolation-filters="sRGB">
<feFlood flood-opacity="0" result="BackgroundImageFix"/>
<feColorMatrix in="SourceAlpha" type="matrix" values="0 0 0 0 0 0 0 0 0 0 0 0 0 0 0 0 0 0 127 0" result="hardAlpha"/>
<feOffset dy="4"/>
<feGaussianBlur stdDeviation="2"/>
<feComposite in2="hardAlpha" operator="out"/>
<feColorMatrix type="matrix" values="0 0 0 0 0 0 0 0 0 0 0 0 0 0 0 0 0 0 0.25 0"/>
<feBlend mode="normal" in2="BackgroundImageFix" result="effect1_dropShadow_2153_78095"/>
<feBlend mode="normal" in="SourceGraphic" in2="effect1_dropShadow_2153_78095" result="shape"/>
</filter>
<filter id="filter1_d_2153_78095" x="384" y="4" width="62" height="62" filterUnits="userSpaceOnUse" color-interpolation-filters="sRGB">
<feFlood flood-opacity="0" result="BackgroundImageFix"/>
<feColorMatrix in="SourceAlpha" type="matrix" values="0 0 0 0 0 0 0 0 0 0 0 0 0 0 0 0 0 0 127 0" result="hardAlpha"/>
<feOffset dy="4"/>
<feGaussianBlur stdDeviation="2"/>
<feComposite in2="hardAlpha" operator="out"/>
<feColorMatrix type="matrix" values="0 0 0 0 0 0 0 0 0 0 0 0 0 0 0 0 0 0 0.25 0"/>
<feBlend mode="normal" in2="BackgroundImageFix" result="effect1_dropShadow_2153_78095"/>
<feBlend mode="normal" in="SourceGraphic" in2="effect1_dropShadow_2153_78095" result="shape"/>
</filter>
<filter id="filter2_d_2153_78095" x="28" y="0" width="398" height="60" filterUnits="userSpaceOnUse" color-interpolation-filters="sRGB">
<feFlood flood-opacity="0" result="BackgroundImageFix"/>
<feColorMatrix in="SourceAlpha" type="matrix" values="0 0 0 0 0 0 0 0 0 0 0 0 0 0 0 0 0 0 127 0" result="hardAlpha"/>
<feOffset dy="4"/>
<feGaussianBlur stdDeviation="2"/>
<feComposite in2="hardAlpha" operator="out"/>
<feColorMatrix type="matrix" values="0 0 0 0 0 0 0 0 0 0 0 0 0 0 0 0 0 0 0.25 0"/>
<feBlend mode="normal" in2="BackgroundImageFix" result="effect1_dropShadow_2153_78095"/>
<feBlend mode="normal" in="SourceGraphic" in2="effect1_dropShadow_2153_78095" result="shape"/>
</filter>
</defs>
</svg>
