<svg fill="none" height="60" viewBox="0 0 433 60" width="433" xmlns="http://www.w3.org/2000/svg">
    <path clip-rule="evenodd" d="M4.83833 6C1.72734 6 -0.19285 9.39543 1.41044 12.0615L12.3466 30.2467C13.1095 31.5151 13.1095 33.1011 12.3466 34.3696L0.578304 53.9385C-1.02499 56.6046 0.895203 60 4.00619 60H50.0014C52.2106 60 54.0014 58.2091 54.0014 56V10C54.0014 7.79086 52.2106 6 50.0014 6H4.83833Z"
        fill="#212121"
        fill-opacity="0.1" fill-rule="evenodd" />
    <path clip-rule="evenodd" d="M428.162 60C431.273 60 433.193 56.6046 431.59 53.9385L420.654 35.7528C419.891 34.4844 419.891 32.8984 420.654 31.6299L432.422 12.0614C434.025 9.39542 432.105 6 428.994 6L382.999 6C380.79 6 378.999 7.79086 378.999 10V56C378.999 58.2091 380.79 60 382.999 60L428.162 60Z"
        fill="#212121"
        fill-opacity="0.1" fill-rule="evenodd" />
    <path clip-rule="evenodd" d="M4.83833 4C1.72734 4 -0.19285 7.39543 1.41044 10.0615L12.3466 28.2467C13.1095 29.5151 13.1095 31.1011 12.3466 32.3696L0.578304 51.9385C-1.02499 54.6046 0.895203 58 4.00619 58H50.0014C52.2106 58 54.0014 56.2091 54.0014 54V8C54.0014 5.79086 52.2106 4 50.0014 4H4.83833Z"
        fill="#D7A72D"
        fill-rule="evenodd" />
    <path clip-rule="evenodd" d="M428.162 58C431.273 58 433.193 54.6046 431.59 51.9385L420.654 33.7528C419.891 32.4844 419.891 30.8984 420.654 29.6299L432.422 10.0614C434.025 7.39542 432.105 4 428.994 4L382.999 4C380.79 4 378.999 5.79086 378.999 8V54C378.999 56.2091 380.79 58 382.999 58L428.162 58Z"
        fill="#D7A72D"
        fill-rule="evenodd" />
    <rect fill="#212121" fill-opacity="0.1" height="50" rx="4" width="394" x="21" y="4" />
    <rect fill="#D7A72D" height="52" rx="4" width="390" x="23" />
    <g filter="url(#filter0_d_2186_83651)">
        <path
            d="M377.681 15.7913C376.986 15.1554 375.92 15.1872 375.254 15.853L373.854 17.2537C373.188 17.9196 373.156 18.9857 373.792 19.6803C375.001 21.0014 377.115 23.2752 379.78 26.0001C377.115 28.725 375.001 30.9987 373.792 32.3198C373.156 33.0144 373.188 34.0805 373.854 34.7464L375.255 36.147C375.92 36.8129 376.987 36.8447 377.681 36.2088C379.002 34.9995 381.276 32.8861 384.001 30.2209C386.726 32.8861 388.999 34.9995 390.32 36.2088C391.015 36.8447 392.081 36.8129 392.747 36.147L394.148 34.7464C394.814 34.0805 394.845 33.0144 394.209 32.3198C393 30.9987 390.887 28.725 388.221 26.0001C390.887 23.2752 393 21.0014 394.21 19.6803C394.845 18.9857 394.814 17.9196 394.148 17.2537L392.747 15.853C392.081 15.1872 391.015 15.1554 390.321 15.7913C389 17.0006 386.726 19.1141 384.001 21.7794C381.276 19.1141 379.002 17.0006 377.681 15.7913Z"
            fill="#FFFCFE" />
    </g>
    <defs>
        <filter color-interpolation-filters="sRGB" filterUnits="userSpaceOnUse" height="22.3334" id="filter0_d_2186_83651" width="21.334"
            x="373.334" y="15.3334">
            <feFlood flood-opacity="0" result="BackgroundImageFix" />
            <feColorMatrix in="SourceAlpha" result="hardAlpha"
                type="matrix" values="0 0 0 0 0 0 0 0 0 0 0 0 0 0 0 0 0 0 127 0" />
            <feOffset dy="1" />
            <feComposite in2="hardAlpha" operator="out" />
            <feColorMatrix type="matrix"
                values="0 0 0 0 0.827451 0 0 0 0 0.827451 0 0 0 0 0.827451 0 0 0 1 0" />
            <feBlend in2="BackgroundImageFix" mode="normal"
                result="effect1_dropShadow_2186_83651" />
            <feBlend in="SourceGraphic" in2="effect1_dropShadow_2186_83651" mode="normal"
                result="shape" />
        </filter>
    </defs>
</svg>
