<svg width="124" height="124" viewBox="0 0 124 124" fill="none" xmlns="http://www.w3.org/2000/svg">
    <g clip-path="url(#clip0_2322_92360)">
        <rect width="124" height="124" rx="12" fill="white" />
        <rect width="124" height="124" fill="#D9D9D9" />
        <g clip-path="url(#clip1_2322_92360)">
            <rect x="-92" width="892" height="412" fill="url(#paint0_linear_2322_92360)" />
            <path style="mix-blend-mode:screen" fill-rule="evenodd" clip-rule="evenodd"
                d="M43.9028 -66.0391L-44.8486 146.415L67.2489 143.458L112.437 -66.0391H43.9028Z"
                fill="url(#paint1_linear_2322_92360)" />
            <path style="mix-blend-mode:screen" fill-rule="evenodd" clip-rule="evenodd"
                d="M60.7436 -63.4321L-16.2827 142.07H24.538L92.131 -63.4321H60.7436Z"
                fill="url(#paint2_linear_2322_92360)" />
            <path style="mix-blend-mode:screen" fill-rule="evenodd" clip-rule="evenodd"
                d="M46.7071 -59.9565L-30.3936 145.546L-23.4437 143.097L50.1423 -59.7682L46.7071 -59.9565Z"
                fill="url(#paint3_linear_2322_92360)" />
            <path style="mix-blend-mode:screen" fill-rule="evenodd" clip-rule="evenodd"
                d="M93.887 -47.7915L33.6221 158.974L38.3312 159.014L98.3261 -47.1263L93.887 -47.7915Z"
                fill="url(#paint4_linear_2322_92360)" />
            <path style="mix-blend-mode:screen" fill-rule="evenodd" clip-rule="evenodd"
                d="M63.0121 -48.6602L-8.71094 153.916L26.6809 156.842L89.3776 -45.883L63.0121 -48.6602Z"
                fill="url(#paint5_linear_2322_92360)" />
            <g style="mix-blend-mode:soft-light">
                <path fill-rule="evenodd" clip-rule="evenodd"
                    d="M1.48608 95.3983C1.48608 95.9516 1.13087 96.4004 0.692505 96.4004C0.25414 96.4004 -0.101074 95.9516 -0.101074 95.3983C-0.101074 94.8449 0.254409 94.3965 0.692505 94.3965C1.1306 94.3965 1.48608 94.8452 1.48608 95.3983Z"
                    fill="white" />
                <path fill-rule="evenodd" clip-rule="evenodd"
                    d="M47.3576 42.5459C47.7959 41.9925 48.5066 41.9925 48.945 42.5459C49.3834 43.0993 49.3834 43.9964 48.945 44.5498C48.5066 45.1032 47.7959 45.1032 47.3576 44.5498C46.9192 43.9964 46.9192 43.0993 47.3576 42.5459Z"
                    fill="white" />
                <path fill-rule="evenodd" clip-rule="evenodd"
                    d="M8.17789 25.8306C8.61626 25.2772 9.32695 25.2772 9.76532 25.8306C10.2037 26.3839 10.2037 27.2811 9.76532 27.8344C9.32695 28.3878 8.61626 28.3878 8.17789 27.8344C7.73953 27.2811 7.73953 26.3839 8.17789 25.8306Z"
                    fill="white" />
                <path fill-rule="evenodd" clip-rule="evenodd"
                    d="M40.2764 25.3755C40.5865 24.9842 41.0889 24.9842 41.3989 25.3755C41.7089 25.7669 41.7089 26.4011 41.3989 26.7924C41.0889 27.1838 40.5865 27.1838 40.2764 26.7924C39.9664 26.4011 39.9664 25.7669 40.2764 25.3755Z"
                    fill="white" />
                <path fill-rule="evenodd" clip-rule="evenodd"
                    d="M54.6822 64.7925C54.9922 64.4012 55.4946 64.4012 55.8046 64.7925C56.1146 65.1839 56.1146 65.8181 55.8046 66.2094C55.4946 66.6008 54.9922 66.6008 54.6822 66.2094C54.3722 65.8181 54.3722 65.1839 54.6822 64.7925Z"
                    fill="white" />
                <path fill-rule="evenodd" clip-rule="evenodd"
                    d="M18.439 39.459C18.749 39.0677 19.2514 39.0677 19.5615 39.459C19.8715 39.8504 19.8715 40.4846 19.5615 40.8759C19.2514 41.2673 18.749 41.2673 18.439 40.8759C18.129 40.4846 18.129 39.8504 18.439 39.459Z"
                    fill="white" />
                <path fill-rule="evenodd" clip-rule="evenodd"
                    d="M52.3329 78.4533C52.5605 78.1659 52.93 78.1659 53.1576 78.4533C53.3853 78.7407 53.3853 79.2071 53.1576 79.4945C52.93 79.7819 52.5605 79.7819 52.3329 79.4945C52.1052 79.2071 52.1052 78.7411 52.3329 78.4533Z"
                    fill="white" />
                <path fill-rule="evenodd" clip-rule="evenodd"
                    d="M43.278 45.2824C43.4242 45.0979 43.661 45.0979 43.8071 45.2824C43.9532 45.4668 43.9532 45.7658 43.8071 45.9502C43.661 46.1347 43.4242 46.1347 43.278 45.9502C43.1319 45.7658 43.1319 45.4668 43.278 45.2824Z"
                    fill="white" />
                <path fill-rule="evenodd" clip-rule="evenodd"
                    d="M56.1833 67.3551C56.3294 67.1707 56.5663 67.1707 56.7124 67.3551C56.8585 67.5396 56.8585 67.8385 56.7124 68.023C56.5663 68.2075 56.3294 68.2075 56.1833 68.023C56.0372 67.8385 56.0372 67.5396 56.1833 67.3551Z"
                    fill="white" />
                <path fill-rule="evenodd" clip-rule="evenodd"
                    d="M106.105 74.8102C106.251 74.6258 106.488 74.6258 106.634 74.8102C106.78 74.9947 106.78 75.2936 106.634 75.4781C106.488 75.6625 106.251 75.6625 106.105 75.4781C105.959 75.2936 105.959 74.9947 106.105 74.8102Z"
                    fill="white" />
                <path fill-rule="evenodd" clip-rule="evenodd"
                    d="M101.126 72.5324C101.272 72.3479 101.509 72.3479 101.655 72.5324C101.801 72.7168 101.801 73.0158 101.655 73.2002C101.509 73.3847 101.272 73.3847 101.126 73.2002C100.98 73.0158 100.98 72.7168 101.126 72.5324Z"
                    fill="white" />
                <path fill-rule="evenodd" clip-rule="evenodd"
                    d="M51.9416 60.9992C52.0145 60.9072 52.1332 60.9072 52.2061 60.9992C52.2793 61.0916 52.2793 61.2411 52.2061 61.3331C52.1332 61.4255 52.0145 61.4255 51.9416 61.3331C51.8684 61.2411 51.8684 61.0913 51.9416 60.9992Z"
                    fill="white" />
                <path fill-rule="evenodd" clip-rule="evenodd"
                    d="M66.5464 84.1455C66.6196 84.0531 66.738 84.0531 66.8109 84.1455C66.8838 84.2375 66.8838 84.3873 66.8109 84.4794C66.738 84.5715 66.6193 84.5715 66.5464 84.4794C66.4735 84.387 66.4735 84.2375 66.5464 84.1455Z"
                    fill="white" />
                <path fill-rule="evenodd" clip-rule="evenodd"
                    d="M3.69532 21.4672C3.76852 21.3748 3.88692 21.3748 3.95985 21.4672C4.03277 21.5596 4.03277 21.7091 3.95985 21.8012C3.88665 21.8932 3.76825 21.8932 3.69532 21.8012C3.62239 21.7088 3.62239 21.5593 3.69532 21.4672Z"
                    fill="white" />
                <path fill-rule="evenodd" clip-rule="evenodd"
                    d="M100.065 76.4064C100.138 76.3144 100.256 76.3144 100.329 76.4064C100.402 76.4985 100.402 76.6483 100.329 76.7404C100.256 76.8328 100.138 76.8328 100.065 76.7404C99.9915 76.6483 99.9915 76.4985 100.065 76.4064Z"
                    fill="white" />
                <path fill-rule="evenodd" clip-rule="evenodd"
                    d="M50.7927 64.9279C50.9388 64.7434 51.1756 64.7434 51.3217 64.9279C51.4679 65.1124 51.4679 65.4113 51.3217 65.5957C51.1756 65.7802 50.9388 65.7802 50.7927 65.5957C50.6466 65.4113 50.6466 65.1124 50.7927 64.9279Z"
                    fill="white" />
                <path fill-rule="evenodd" clip-rule="evenodd"
                    d="M62.6726 80.592C62.8187 80.4075 63.0555 80.4075 63.2016 80.592C63.3478 80.7764 63.3478 81.0754 63.2016 81.2598C63.0555 81.4443 62.8187 81.4443 62.6726 81.2598C62.5265 81.0754 62.5265 80.7764 62.6726 80.592Z"
                    fill="white" />
                <path fill-rule="evenodd" clip-rule="evenodd"
                    d="M53.6252 100.791C53.7713 100.606 54.0081 100.606 54.1543 100.791C54.3004 100.975 54.3004 101.274 54.1543 101.459C54.0081 101.643 53.7713 101.643 53.6252 101.459C53.4791 101.274 53.4791 100.975 53.6252 100.791Z"
                    fill="white" />
                <path fill-rule="evenodd" clip-rule="evenodd"
                    d="M38.6628 85.7565C38.8089 85.572 39.0457 85.572 39.1919 85.7565C39.338 85.941 39.338 86.2399 39.1919 86.4244C39.0457 86.6088 38.8089 86.6088 38.6628 86.4244C38.5167 86.2399 38.5167 85.941 38.6628 85.7565Z"
                    fill="white" />
                <path fill-rule="evenodd" clip-rule="evenodd"
                    d="M91.8786 68.376C92.3169 67.8226 93.0276 67.8226 93.466 68.376C93.9044 68.9293 93.9044 69.8265 93.466 70.3799C93.0276 70.9332 92.3169 70.9332 91.8786 70.3799C91.4402 69.8265 91.4402 68.9293 91.8786 68.376Z"
                    fill="white" />
                <path fill-rule="evenodd" clip-rule="evenodd"
                    d="M114.619 47.8555C115.057 47.3021 115.768 47.3021 116.206 47.8555C116.645 48.4088 116.645 49.306 116.206 49.8594C115.768 50.4127 115.057 50.4127 114.619 49.8594C114.18 49.306 114.18 48.4088 114.619 47.8555Z"
                    fill="white" />
                <path fill-rule="evenodd" clip-rule="evenodd"
                    d="M77.6584 88.331C78.0967 87.7777 78.8074 87.7777 79.2458 88.331C79.6841 88.8844 79.6841 89.7816 79.2458 90.335C78.8074 90.8883 78.0967 90.8883 77.6584 90.335C77.22 89.7816 77.22 88.8844 77.6584 88.331Z"
                    fill="white" />
                <path fill-rule="evenodd" clip-rule="evenodd"
                    d="M81.1374 103.066C81.5757 102.513 82.2864 102.513 82.7248 103.066C83.1632 103.62 83.1632 104.517 82.7248 105.07C82.2864 105.624 81.5757 105.624 81.1374 105.07C80.699 104.517 80.699 103.62 81.1374 103.066Z"
                    fill="white" />
                <path fill-rule="evenodd" clip-rule="evenodd"
                    d="M122.657 33.0035C122.967 32.6121 123.469 32.6121 123.779 33.0035C124.089 33.3948 124.089 34.029 123.779 34.4204C123.469 34.8117 122.967 34.8117 122.657 34.4204C122.347 34.029 122.347 33.3948 122.657 33.0035Z"
                    fill="white" />
                <path fill-rule="evenodd" clip-rule="evenodd"
                    d="M62.96 65.2896C63.27 64.8983 63.7724 64.8983 64.0824 65.2896C64.3925 65.6809 64.3925 66.3152 64.0824 66.7065C63.7724 67.0978 63.27 67.0978 62.96 66.7065C62.65 66.3152 62.65 65.6809 62.96 65.2896Z"
                    fill="white" />
                <path fill-rule="evenodd" clip-rule="evenodd"
                    d="M79.162 99.8786C79.3896 99.5912 79.7591 99.5912 79.9867 99.8786C80.2144 100.166 80.2144 100.632 79.9867 100.92C79.7591 101.207 79.3896 101.207 79.162 100.92C78.9343 100.632 78.9343 100.166 79.162 99.8786Z"
                    fill="white" />
                <path fill-rule="evenodd" clip-rule="evenodd"
                    d="M87.7995 71.113C87.9457 70.9285 88.1825 70.9285 88.3286 71.113C88.4747 71.2974 88.4747 71.5963 88.3286 71.7808C88.1825 71.9653 87.9457 71.9653 87.7995 71.7808C87.6534 71.5963 87.6534 71.2974 87.7995 71.113Z"
                    fill="white" />
                <path fill-rule="evenodd" clip-rule="evenodd"
                    d="M82.0031 99.3034C82.1493 99.1189 82.3861 99.1189 82.5322 99.3034C82.6783 99.4878 82.6783 99.7868 82.5322 99.9712C82.3861 100.156 82.1493 100.156 82.0031 99.9712C81.857 99.7868 81.857 99.4878 82.0031 99.3034Z"
                    fill="white" />
                <path fill-rule="evenodd" clip-rule="evenodd"
                    d="M1.93918 13.7643C2.0853 13.5799 2.32211 13.5799 2.46823 13.7643C2.61436 13.9488 2.61436 14.2477 2.46823 14.4322C2.32211 14.6166 2.0853 14.6166 1.93918 14.4322C1.79306 14.2477 1.79306 13.9488 1.93918 13.7643Z"
                    fill="white" />
                <path fill-rule="evenodd" clip-rule="evenodd"
                    d="M68.3752 89.7072C68.5213 89.5227 68.7581 89.5227 68.9043 89.7072C69.0504 89.8916 69.0504 90.1906 68.9043 90.375C68.7581 90.5595 68.5213 90.5595 68.3752 90.375C68.2291 90.1906 68.2291 89.8916 68.3752 89.7072Z"
                    fill="white" />
                <path fill-rule="evenodd" clip-rule="evenodd"
                    d="M66.9204 94.4897C66.9933 94.3973 67.112 94.3973 67.1849 94.4897C67.2579 94.5821 67.2579 94.7316 67.1849 94.8236C67.112 94.9157 66.9933 94.916 66.9204 94.8236C66.8475 94.7316 66.8475 94.5818 66.9204 94.4897Z"
                    fill="white" />
                <path fill-rule="evenodd" clip-rule="evenodd"
                    d="M72.0508 90.163C72.124 90.0707 72.2424 90.0707 72.3153 90.163C72.3885 90.2551 72.3885 90.4046 72.3153 90.497C72.2424 90.5894 72.1237 90.5894 72.0508 90.497C71.9779 90.4046 71.9779 90.2551 72.0508 90.163Z"
                    fill="white" />
                <path fill-rule="evenodd" clip-rule="evenodd"
                    d="M38.2336 48.4265C38.3065 48.3344 38.4252 48.3344 38.4981 48.4265C38.5713 48.5189 38.5713 48.6683 38.4981 48.7604C38.4252 48.8528 38.3065 48.8528 38.2336 48.7604C38.1604 48.6683 38.1604 48.5185 38.2336 48.4265Z"
                    fill="white" />
                <path fill-rule="evenodd" clip-rule="evenodd"
                    d="M80.6763 102.275C80.7495 102.183 80.8679 102.183 80.9408 102.275C81.0137 102.367 81.014 102.517 80.9408 102.609C80.8679 102.701 80.7492 102.701 80.6763 102.609C80.6034 102.517 80.6034 102.367 80.6763 102.275Z"
                    fill="white" />
                <path fill-rule="evenodd" clip-rule="evenodd"
                    d="M79.4424 98.7619C79.5156 98.6699 79.634 98.6699 79.7069 98.7619C79.7799 98.8543 79.7799 99.0038 79.7069 99.0959C79.6337 99.1879 79.5153 99.1879 79.4424 99.0959C79.3695 99.0038 79.3695 98.854 79.4424 98.7619Z"
                    fill="white" />
                <path fill-rule="evenodd" clip-rule="evenodd"
                    d="M72.4797 98.3586C72.6258 98.1741 72.8626 98.1741 73.0088 98.3586C73.1549 98.543 73.1549 98.842 73.0088 99.0264C72.8626 99.2109 72.6258 99.2109 72.4797 99.0264C72.3336 98.842 72.3336 98.543 72.4797 98.3586Z"
                    fill="white" />
                <path fill-rule="evenodd" clip-rule="evenodd"
                    d="M77.4392 98.8312C77.5853 98.6468 77.8221 98.6468 77.9682 98.8312C78.1144 99.0157 78.1144 99.3146 77.9682 99.499C77.8221 99.6835 77.5853 99.6835 77.4392 99.499C77.2931 99.3146 77.2931 99.0157 77.4392 98.8312Z"
                    fill="white" />
                <path fill-rule="evenodd" clip-rule="evenodd"
                    d="M5.76584 38.3366C5.91196 38.1521 6.14877 38.1521 6.29489 38.3366C6.44102 38.521 6.44102 38.82 6.29489 39.0044C6.14877 39.1889 5.91196 39.1889 5.76584 39.0044C5.61972 38.82 5.61972 38.521 5.76584 38.3366Z"
                    fill="white" />
                <path fill-rule="evenodd" clip-rule="evenodd"
                    d="M0.786349 36.0588C0.932471 35.8743 1.16928 35.8743 1.3154 36.0588C1.46152 36.2432 1.46152 36.5421 1.3154 36.7269C1.16928 36.9114 0.932471 36.9114 0.786349 36.7269C0.640227 36.5425 0.640227 36.2436 0.786349 36.0588Z"
                    fill="white" />
                <path fill-rule="evenodd" clip-rule="evenodd"
                    d="M-0.275182 39.9333C-0.202255 39.8412 -0.0835815 39.8412 -0.0106553 39.9333C0.0625401 40.0257 0.0625401 40.1752 -0.0106553 40.2672C-0.0835815 40.3596 -0.202255 40.3596 -0.275182 40.2672C-0.348377 40.1752 -0.348377 40.0254 -0.275182 39.9333Z"
                    fill="white" />
                <path fill-rule="evenodd" clip-rule="evenodd"
                    d="M18.1602 99.9307C18.4702 99.5394 18.9727 99.5394 19.2827 99.9307C19.5927 100.322 19.5927 100.956 19.2827 101.348C18.9727 101.739 18.4702 101.739 18.1602 101.348C17.8502 100.956 17.8502 100.322 18.1602 99.9307Z"
                    fill="white" />
                <path fill-rule="evenodd" clip-rule="evenodd"
                    d="M15.8109 113.592C16.0385 113.304 16.408 113.304 16.6357 113.592C16.8633 113.879 16.8633 114.345 16.6357 114.633C16.408 114.92 16.0385 114.92 15.8109 114.633C15.5832 114.345 15.5832 113.879 15.8109 113.592Z"
                    fill="white" />
                <path fill-rule="evenodd" clip-rule="evenodd"
                    d="M19.6609 102.493C19.807 102.309 20.0438 102.309 20.1899 102.493C20.336 102.678 20.336 102.977 20.1899 103.161C20.0438 103.346 19.807 103.346 19.6609 103.161C19.5147 102.977 19.5147 102.678 19.6609 102.493Z"
                    fill="white" />
                <path fill-rule="evenodd" clip-rule="evenodd"
                    d="M25.6037 94.3229C25.7499 94.1385 25.9867 94.1385 26.1328 94.3229C26.2789 94.5074 26.2789 94.8063 26.1328 94.9908C25.9867 95.1752 25.7499 95.1752 25.6037 94.9908C25.4576 94.8063 25.4576 94.5074 25.6037 94.3229Z"
                    fill="white" />
                <path fill-rule="evenodd" clip-rule="evenodd"
                    d="M7.5842 29.4992C7.73032 29.3147 7.96713 29.3147 8.11325 29.4992C8.25937 29.6836 8.25937 29.9826 8.11325 30.167C7.96713 30.3515 7.73032 30.3515 7.5842 30.167C7.43808 29.9826 7.43808 29.6836 7.5842 29.4992Z"
                    fill="white" />
                <path fill-rule="evenodd" clip-rule="evenodd"
                    d="M20.6247 92.0446C20.7708 91.8601 21.0076 91.8601 21.1538 92.0446C21.2999 92.2291 21.2999 92.528 21.1538 92.7124C21.0076 92.8969 20.7708 92.8969 20.6247 92.7124C20.4786 92.528 20.4786 92.2291 20.6247 92.0446Z"
                    fill="white" />
                <path fill-rule="evenodd" clip-rule="evenodd"
                    d="M15.4194 96.1369C15.4926 96.0449 15.611 96.0449 15.684 96.1369C15.7572 96.2293 15.7572 96.3788 15.684 96.4709C15.611 96.5633 15.4924 96.5633 15.4194 96.4709C15.3465 96.3785 15.3465 96.2293 15.4194 96.1369Z"
                    fill="white" />
                <path fill-rule="evenodd" clip-rule="evenodd"
                    d="M8.26124 115.57C8.33416 115.477 8.45284 115.477 8.52576 115.57C8.59869 115.662 8.59869 115.811 8.52576 115.903C8.45257 115.996 8.33416 115.996 8.26124 115.903C8.18831 115.811 8.18831 115.662 8.26124 115.57Z"
                    fill="white" />
                <path fill-rule="evenodd" clip-rule="evenodd"
                    d="M30.0239 119.284C30.0969 119.191 30.2155 119.191 30.2885 119.284C30.3614 119.376 30.3614 119.526 30.2885 119.618C30.2153 119.71 30.0969 119.71 30.0239 119.618C29.951 119.526 29.951 119.376 30.0239 119.284Z"
                    fill="white" />
                <path fill-rule="evenodd" clip-rule="evenodd"
                    d="M19.563 95.9196C19.6362 95.8276 19.7546 95.8276 19.8275 95.9196C19.9005 96.0117 19.9007 96.1615 19.8275 96.2536C19.7543 96.3456 19.6359 96.3456 19.563 96.2536C19.4901 96.1612 19.4901 96.0117 19.563 95.9196Z"
                    fill="white" />
                <path fill-rule="evenodd" clip-rule="evenodd"
                    d="M14.2702 100.066C14.4164 99.8811 14.6532 99.8811 14.7993 100.066C14.9454 100.25 14.9454 100.549 14.7993 100.733C14.6532 100.918 14.4164 100.918 14.2702 100.733C14.1241 100.549 14.1241 100.25 14.2702 100.066Z"
                    fill="white" />
                <path fill-rule="evenodd" clip-rule="evenodd"
                    d="M26.1506 115.73C26.2967 115.546 26.5335 115.546 26.6797 115.73C26.8258 115.915 26.8258 116.214 26.6797 116.398C26.5335 116.582 26.2967 116.582 26.1506 116.398C26.0045 116.214 26.0045 115.915 26.1506 115.73Z"
                    fill="white" />
                <path fill-rule="evenodd" clip-rule="evenodd"
                    d="M121.813 9.48405C121.959 9.29959 122.196 9.29959 122.342 9.48405C122.488 9.6685 122.488 9.96744 122.342 10.1519C122.196 10.3364 121.959 10.3364 121.813 10.1519C121.667 9.96744 121.667 9.6685 121.813 9.48405Z"
                    fill="white" />
                <path fill-rule="evenodd" clip-rule="evenodd"
                    d="M83.1838 111.587C83.3299 111.402 83.5667 111.402 83.7129 111.587C83.859 111.771 83.859 112.07 83.7129 112.254C83.5667 112.439 83.3299 112.439 83.1838 112.254C83.0377 112.07 83.0377 111.771 83.1838 111.587Z"
                    fill="white" />
                <path fill-rule="evenodd" clip-rule="evenodd"
                    d="M37.8879 16.0762C38.3262 15.5228 39.0369 15.5228 39.4753 16.0762C39.9136 16.6295 39.9136 17.5267 39.4753 18.0801C39.0369 18.6334 38.3262 18.6334 37.8879 18.0801C37.4495 17.5267 37.4495 16.6295 37.8879 16.0762Z"
                    fill="white" />
                <path fill-rule="evenodd" clip-rule="evenodd"
                    d="M55.9537 3.63286C56.2637 3.24152 56.7661 3.24152 57.0761 3.63286C57.3861 4.02419 57.3861 4.65841 57.0761 5.04975C56.7661 5.44108 56.2637 5.44108 55.9537 5.04975C55.6437 4.65841 55.6437 4.02419 55.9537 3.63286Z"
                    fill="white" />
                <path fill-rule="evenodd" clip-rule="evenodd"
                    d="M53.6048 17.2937C53.8325 17.0063 54.202 17.0063 54.4296 17.2937C54.6573 17.5811 54.6573 18.0475 54.4296 18.3349C54.202 18.6222 53.8325 18.6222 53.6048 18.3349C53.3772 18.0475 53.3772 17.5811 53.6048 17.2937Z"
                    fill="white" />
                <path fill-rule="evenodd" clip-rule="evenodd"
                    d="M58.2704 31.7038C58.498 31.4164 58.8675 31.4164 59.0951 31.7038C59.3228 31.9912 59.3228 32.4573 59.0951 32.745C58.8675 33.0324 58.498 33.0324 58.2704 32.745C58.0427 32.4576 58.0427 31.9915 58.2704 31.7038Z"
                    fill="white" />
                <path fill-rule="evenodd" clip-rule="evenodd"
                    d="M57.4548 6.19547C57.6009 6.01101 57.8377 6.01101 57.9839 6.19547C58.13 6.37993 58.13 6.67887 57.9839 6.86333C57.8377 7.04778 57.6009 7.04778 57.4548 6.86333C57.3087 6.67887 57.3087 6.37993 57.4548 6.19547Z"
                    fill="white" />
                <path fill-rule="evenodd" clip-rule="evenodd"
                    d="M38.7536 12.3127C38.8998 12.1282 39.1366 12.1282 39.2827 12.3127C39.4288 12.4971 39.4288 12.7961 39.2827 12.9805C39.1366 13.165 38.8998 13.165 38.7536 12.9805C38.6075 12.7961 38.6075 12.4971 38.7536 12.3127Z"
                    fill="white" />
                <path fill-rule="evenodd" clip-rule="evenodd"
                    d="M80.4973 2.00895C80.6434 1.82449 80.8802 1.82449 81.0263 2.00895C81.1725 2.19341 81.1725 2.49234 81.0263 2.6768C80.8802 2.86126 80.6434 2.86126 80.4973 2.6768C80.3512 2.49234 80.3512 2.19341 80.4973 2.00895Z"
                    fill="white" />
                <path fill-rule="evenodd" clip-rule="evenodd"
                    d="M53.2134 -0.160681C53.2863 -0.25308 53.405 -0.25308 53.4779 -0.160681C53.5508 -0.0682827 53.5508 0.0811863 53.4779 0.173245C53.405 0.265304 53.2863 0.265644 53.2134 0.173245C53.1405 0.0811863 53.1405 -0.0686225 53.2134 -0.160681Z"
                    fill="white" />
                <path fill-rule="evenodd" clip-rule="evenodd"
                    d="M67.8176 22.986C67.8905 22.894 68.0092 22.894 68.0821 22.986C68.1553 23.0781 68.1553 23.2279 68.0821 23.32C68.0089 23.412 67.8905 23.412 67.8176 23.32C67.7444 23.2276 67.7444 23.0781 67.8176 22.986Z"
                    fill="white" />
                <path fill-rule="evenodd" clip-rule="evenodd"
                    d="M111.984 55.1875C112.057 55.0951 112.175 55.0951 112.248 55.1875C112.322 55.2795 112.322 55.4293 112.248 55.5214C112.175 55.6138 112.057 55.6138 111.984 55.5214C111.911 55.429 111.911 55.2795 111.984 55.1875Z"
                    fill="white" />
                <path fill-rule="evenodd" clip-rule="evenodd"
                    d="M104.849 55.4233C104.922 55.3309 105.04 55.3309 105.113 55.4233C105.187 55.5154 105.187 55.6652 105.113 55.7572C105.04 55.8496 104.922 55.8496 104.849 55.7572C104.776 55.6652 104.776 55.5154 104.849 55.4233Z"
                    fill="white" />
                <path fill-rule="evenodd" clip-rule="evenodd"
                    d="M60.6823 36.6899C60.7553 36.5975 60.8739 36.5975 60.9469 36.6899C61.0201 36.782 61.0201 36.9318 60.9469 37.0238C60.8739 37.1162 60.7553 37.1162 60.6823 37.0238C60.6091 36.9318 60.6091 36.782 60.6823 36.6899Z"
                    fill="white" />
                <path fill-rule="evenodd" clip-rule="evenodd"
                    d="M57.3569 -0.378455C57.4299 -0.470854 57.5485 -0.470854 57.6215 -0.378455C57.6944 -0.286056 57.6944 -0.136587 57.6215 -0.0445281C57.5485 0.0475309 57.4299 0.0478706 57.3569 -0.0445281C57.284 -0.136587 57.284 -0.286396 57.3569 -0.378455Z"
                    fill="white" />
                <path fill-rule="evenodd" clip-rule="evenodd"
                    d="M52.0642 3.76774C52.2103 3.58328 52.4471 3.58328 52.5932 3.76774C52.7394 3.9522 52.7394 4.25113 52.5932 4.43559C52.4471 4.62005 52.2103 4.62005 52.0642 4.43559C51.9181 4.25113 51.9181 3.9522 52.0642 3.76774Z"
                    fill="white" />
                <path fill-rule="evenodd" clip-rule="evenodd"
                    d="M63.9441 19.4323C64.0902 19.2478 64.327 19.2478 64.4731 19.4323C64.6192 19.6167 64.6192 19.9157 64.4731 20.1001C64.327 20.2846 64.0902 20.2846 63.9441 20.1001C63.7979 19.9157 63.7979 19.6167 63.9441 19.4323Z"
                    fill="white" />
                <path fill-rule="evenodd" clip-rule="evenodd"
                    d="M98.9807 19.9045C99.1268 19.72 99.3636 19.72 99.5097 19.9045C99.6559 20.0889 99.6559 20.3879 99.5097 20.5723C99.3636 20.7568 99.1268 20.7568 98.9807 20.5723C98.8346 20.3879 98.8346 20.0889 98.9807 19.9045Z"
                    fill="white" />
                <path fill-rule="evenodd" clip-rule="evenodd"
                    d="M48.0359 36.2868C48.182 36.1023 48.4188 36.1023 48.5649 36.2868C48.711 36.4712 48.711 36.7702 48.5649 36.9546C48.4188 37.1391 48.182 37.1391 48.0359 36.9546C47.8897 36.7702 47.8897 36.4712 48.0359 36.2868Z"
                    fill="white" />
                <path fill-rule="evenodd" clip-rule="evenodd"
                    d="M54.8967 39.631C55.0428 39.4466 55.2796 39.4466 55.4258 39.631C55.5719 39.8155 55.5719 40.1144 55.4258 40.2989C55.2796 40.4833 55.0428 40.4833 54.8967 40.2989C54.7506 40.1144 54.7506 39.8155 54.8967 39.631Z"
                    fill="white" />
                <path fill-rule="evenodd" clip-rule="evenodd"
                    d="M104.155 76.5675C104.301 76.3831 104.538 76.3831 104.684 76.5675C104.83 76.752 104.83 77.0509 104.684 77.2354C104.538 77.4199 104.301 77.4199 104.155 77.2354C104.009 77.0509 104.009 76.752 104.155 76.5675Z"
                    fill="white" />
                <path fill-rule="evenodd" clip-rule="evenodd"
                    d="M39.9348 24.5964C40.0809 24.4119 40.3177 24.4119 40.4638 24.5964C40.61 24.7808 40.61 25.0797 40.4638 25.2642C40.3177 25.4487 40.0809 25.4487 39.9348 25.2642C39.7887 25.0797 39.7887 24.7808 39.9348 24.5964Z"
                    fill="white" />
            </g>
            <path d="M215 104H-92V179H215V104Z" fill="url(#paint6_linear_2322_92360)" />
            <path fill-rule="evenodd" clip-rule="evenodd"
                d="M50.6386 8.75263C50.9735 7.97374 51.0227 7.8329 51.4985 7.68438C51.8043 7.58914 52.1106 7.54475 52.4164 7.44628C52.9941 7.26064 53.6179 7.49027 54.0248 8.29781C54.3149 8.8733 54.3556 9.69981 54.1187 10.3976C53.8591 11.1631 53.0932 11.4795 52.6516 11.6434C52.1639 11.8246 51.5916 11.6942 51.1152 11.5126C50.8003 11.3928 50.3357 11.3645 50.1805 10.7301C50.0444 10.174 50.283 8.05849 50.7593 8.30184L50.6386 8.75263Z"
                fill="#95B6F7" />
            <path fill-rule="evenodd" clip-rule="evenodd"
                d="M61.0495 40.275C61.3558 40.1391 62.2567 39.5421 62.4946 40.5225C62.5495 40.7492 62.5363 41.4807 62.5071 41.7063C62.4257 42.335 62.262 42.201 62.056 42.3457C61.8836 42.4667 61.9112 42.63 61.7019 42.5611C61.5263 42.5034 61.2654 42.3331 61.1145 42.0972C60.932 41.8124 60.5835 40.7459 61.028 40.7454L61.0495 40.5351V40.275Z"
                fill="#66A1F7" />
        </g>
        <path
            d="M63.8576 30.6153L73.9926 12.2075L70.5096 32.3286C69.8577 36.097 73.3636 39.2536 77.0432 38.2103L105.508 30.138L84.1734 44.1025C80.6188 46.4296 81.2097 51.8073 85.1842 53.3059L106.594 61.3811L84.2269 60.9887C80.3191 60.92 77.739 65.0311 79.5001 68.5208L90.2937 89.9076L72.285 75.6586C69.2277 73.2399 64.6947 74.9265 63.9626 78.7551L59.5938 101.59L55.3128 73.9749C54.7563 70.384 50.7789 68.4607 47.6185 70.2542L43.1142 72.8094L44.441 64.8326C44.9745 61.6264 42.4642 58.7237 39.214 58.7886L18.2979 59.2067L37.9369 52.4086C41.7397 51.0924 42.6646 46.1366 39.593 43.5374L21.8296 28.5067L44.1336 37.8342C47.6529 39.3061 51.5053 36.6077 51.3239 32.7963L51.0786 27.6343L55.8101 31.9468C58.2928 34.209 62.2368 33.5551 63.8576 30.6133V30.6153Z"
            fill="#F55252" />
        <path
            d="M63.1115 33.5656L71.3108 18.6724L68.9703 37.02C68.4425 40.0687 71.2793 42.623 74.2564 41.7782L98.2528 33.3079L80.0245 46.545C77.1486 48.4273 77.6268 52.7789 80.8425 53.9912L98.164 60.5248L80.0675 60.2069C76.9052 60.1516 74.8186 63.4771 76.2427 66.3006L84.9756 83.6039L70.4049 72.0753C67.9318 70.1186 64.2646 71.4826 63.6718 74.5809L60.1373 93.0555L56.6734 70.7132C56.2228 67.8087 53.0052 66.2519 50.448 67.7027L46.8037 69.7702L47.8766 63.3158C48.308 60.7214 46.2778 58.3733 43.6481 58.4258L26.7256 58.7647L42.6153 53.2648C45.6927 52.1996 46.441 48.1906 43.9545 46.0869L29.5834 33.9264L47.6284 41.4728C50.4757 42.664 53.5931 40.4801 53.4462 37.397L53.2476 33.221L57.0762 36.7107C59.0845 38.5415 62.2763 38.0127 63.1096 33.5637L63.1115 33.5656Z"
            fill="#F7906F" />
        <path
            d="M63.2143 42.5901L69.2993 28.0586L66.8357 43.5226C66.4807 45.5739 68.3897 47.2929 70.3922 46.7241L89.9797 38.5573L74.2742 49.9312C72.3395 51.1979 72.6611 54.1253 74.825 54.9414L92.367 59.2377L74.3038 59.1241C72.1762 59.0869 70.7712 61.3243 71.7305 63.2247L77.6064 74.8678L67.8017 67.1105C66.137 65.7933 63.6696 66.7115 63.2706 68.7962L60.2315 87.5542L58.562 66.1942C58.2595 64.2393 56.0937 63.1922 54.3736 64.1687L48.1416 67.5105L52.6441 61.2174C52.9342 59.4716 51.5683 57.8918 49.7987 57.9272L33.6655 57.3287L49.1038 54.4537C51.1741 53.7368 51.6781 51.0394 50.0048 49.6239L37.9599 38.7157L52.477 46.5188C54.3927 47.3197 56.4907 45.8507 56.3915 43.7765L55.4599 37.7612L58.8341 43.3145C60.1856 44.5459 62.3333 44.1908 63.2153 42.5882L63.2143 42.5901Z"
            fill="#F7B86F" />
        <path
            d="M63.1073 50.8379L65.8944 44.1821L64.7662 51.2646C64.604 52.2038 65.4783 52.9913 66.3956 52.7307L75.3661 48.99L68.1729 54.1997C67.2861 54.7801 67.4341 56.1211 68.4248 56.4944L76.459 58.4616L68.1862 58.4101C67.2117 58.3929 66.5683 59.418 67.0074 60.2876L69.6982 65.6204L65.2081 62.0677C64.4455 61.4645 63.3154 61.8854 63.1331 62.8399L61.7414 71.4315L60.9768 61.6487C60.8384 60.7534 59.8467 60.2742 59.0582 60.7209L56.2043 62.251L58.266 59.3693C58.3987 58.5695 57.7735 57.846 56.9631 57.8622L49.5742 57.5882L56.6452 56.272C57.5931 55.9436 57.8241 54.7085 57.0576 54.0604L51.5415 49.0644L58.1896 52.6381C59.0668 53.0047 60.028 52.3327 59.9822 51.382L59.5555 48.6273L61.1009 51.171C61.7194 51.7352 62.7035 51.572 63.1073 50.8389V50.8379Z"
            fill="white" stroke="#F7E96F" stroke-width="0.976" stroke-miterlimit="10" />
        <mask id="mask0_2322_92360" style="mask-type:alpha" maskUnits="userSpaceOnUse" x="12" y="16"
            width="94" height="85">
            <path opacity="0.7"
                d="M14.9492 78.7956C14.9492 78.7956 12.5939 77.4449 12.2258 80.8749C11.8559 84.3112 19.2081 99.7356 22.6168 100.413C22.6168 100.413 24.5207 101.508 24.8842 98.0695L27.5476 96.6258C27.5476 96.6258 28.5392 97.709 29.3848 96.8414C30.2413 95.9841 29.9197 94.6347 29.9197 94.6347L34.0866 92.9899C34.0866 92.9899 52.3532 95.3104 54.5652 94.7252C56.7833 94.1313 58.8839 92.7935 60.4446 90.6285C62.0074 88.4676 65.3044 83.3477 65.3044 83.3477C65.3044 83.3477 66.5267 80.5585 66.1198 79.0615C65.7128 77.5646 65.8991 77.1621 65.8991 77.1621L67.8769 70.5337C67.8769 70.5337 67.973 69.9647 68.7418 70.2587C69.5086 70.5592 71.7931 71.033 72.532 70.5356C73.2792 70.0337 75.4607 67.3329 75.4607 67.3329C75.4607 67.3329 76.437 65.5923 75.6317 64.1066C74.8265 62.621 73.6549 59.7133 73.6549 59.7133C73.6549 59.7133 78.2221 61.7819 79.0787 61.1237C79.9308 60.4572 80.5665 57.8891 82.1575 57.8397C83.7482 57.7797 89.3799 59.5834 93.341 58.8524C97.2957 58.1194 102.484 55.921 103.969 53.9958C105.46 52.079 105.669 48.7349 105.669 48.7349C105.669 48.7349 102.61 35.4307 96.6015 29.3894C90.5924 23.3375 81.0332 15.9795 78.918 16.9322C76.8005 17.8808 73.867 17.145 69.6321 22.7732C65.3972 28.4014 66.7635 27.5693 66.4292 28.445C66.1018 29.3332 65.6424 39.6882 65.5762 40.1332C65.5142 40.576 63.6511 39.7553 63.2444 40.6864L62.8377 41.6176C62.8377 41.6176 62.0195 40.8443 61.8165 41.9719C61.6085 43.0807 61.2388 46.3285 59.9433 46.9231C58.6522 47.5259 51.0317 47.1071 50.5989 47.234C50.1642 47.3673 48.2548 52.4404 48.2548 52.4404C48.2548 52.4404 37.7028 49.9762 36.4289 50.9789C35.1464 51.9756 30.081 59.0662 29.1688 59.2538C28.2631 59.4432 26.957 58.536 26.4518 60.2205C25.9466 61.905 23.8817 74.3523 23.8817 74.3523C23.8817 74.3523 21.231 76.1875 21.428 75.9838C21.6227 75.776 19.9634 74.9632 18.8733 75.7479C17.7836 76.5432 17.9721 77.4479 17.9721 77.4479L14.953 78.7828L14.9492 78.7956Z"
                fill="#93C8C9" />
            <g style="mix-blend-mode:multiply" opacity="0.4">
                <g style="mix-blend-mode:multiply">
                    <path
                        d="M20.2579 88.6753C22.8621 94.1662 23.9961 99.0735 22.791 99.6458C21.5814 100.21 18.4991 96.2346 15.8972 90.7479C13.2975 85.2654 12.1636 80.358 13.3686 79.7857C14.576 79.2176 17.6605 83.197 20.2579 88.6753Z"
                        fill="#909696" />
                </g>
                <g style="mix-blend-mode:multiply">
                    <path
                        d="M15.7189 79.2979C15.7189 79.2979 22.7538 85.9192 24.8919 97.7131C24.8919 97.7131 23.9917 85.9546 15.7189 79.2979Z"
                        fill="#C0C8C7" />
                </g>
                <g style="mix-blend-mode:multiply">
                    <path
                        d="M18.7315 77.5626C18.7315 77.5626 22.0222 78.4105 25.17 85.521C28.3087 92.6149 27.6074 96.7429 27.6074 96.7429C27.6074 96.7429 28.9068 90.3656 24.4933 83.1484C24.4933 83.1484 21.3059 77.2781 18.7315 77.5626Z"
                        fill="#C0C8C7" />
                </g>
                <g style="mix-blend-mode:multiply">
                    <path
                        d="M21.1846 75.9908C21.1846 75.9908 24.4004 76.8199 27.4681 83.7528C30.5403 90.694 29.8524 94.7176 29.8524 94.7176C29.8524 94.7176 31.1249 88.4897 26.8101 81.4347C26.8101 81.4347 23.7082 75.7122 21.1846 75.9908Z"
                        fill="#C0C8C7" />
                </g>
                <g style="mix-blend-mode:multiply">
                    <path
                        d="M24.6177 74.4745C24.6177 74.4745 27.8714 75.1645 31.2315 81.9605C34.5939 88.7606 34.0898 92.8248 34.0898 92.8248C34.0898 92.8248 35.0871 86.5465 30.4774 79.6838C30.4774 79.6838 27.1296 74.0944 24.6219 74.4723L24.6177 74.4745Z"
                        fill="#C0C8C7" />
                </g>
                <g style="mix-blend-mode:multiply">
                    <path
                        d="M32.7251 62.2808C32.7251 62.2808 50.2107 69.5089 55.6549 90.9538C55.6549 90.9538 52.9357 70.0594 32.7251 62.2808Z"
                        fill="#C0C8C7" />
                </g>
                <g style="mix-blend-mode:multiply">
                    <path
                        d="M48.2896 52.5249C48.2896 52.5249 52.7872 54.6544 54.4124 56.9066C56.0421 59.167 65.5916 76.9738 65.5916 76.9738C65.5916 76.9738 57.2075 59.4467 55.7772 57.186C54.351 54.923 48.2896 52.5249 48.2896 52.5249Z"
                        fill="#C0C8C7" />
                </g>
                <g style="mix-blend-mode:multiply">
                    <path
                        d="M62.8637 41.6971C62.8637 41.6971 67.8787 70.3687 67.926 70.645C67.9711 70.9172 66.8088 52.517 62.8637 41.6971Z"
                        fill="#C0C8C7" />
                </g>
                <g style="mix-blend-mode:multiply">
                    <path
                        d="M72.3023 52.3756C72.3023 52.3756 69.5917 53.5429 73.2995 59.6273L74.0006 60.3636L72.5506 55.0721C72.5506 55.0721 72.969 53.2276 73.2024 53.1011C73.44 52.9723 75.2837 52.2749 75.2837 52.2749C75.2837 52.2749 73.4129 51.0618 72.3023 52.3756Z"
                        fill="#C0C8C7" />
                </g>
                <g style="mix-blend-mode:multiply">
                    <path
                        d="M65.606 40.2104C65.606 40.2104 68.7853 41.2211 69.6237 42.3898C70.4621 43.5585 73.3759 47.4417 75.862 49.2326C75.862 49.2326 81.8012 51.7833 85.1434 52.9053C85.1434 52.9053 76.7723 49.2407 74.5878 46.8819C72.4014 44.5295 69.9078 41.4215 69.9078 41.4215L65.606 40.2104Z"
                        fill="#C0C8C7" />
                </g>
                <g style="mix-blend-mode:multiply">
                    <path
                        d="M77.16 19.8718C77.16 19.8718 81.0404 21.6188 83.0353 25.2991C85.0301 28.9794 84.0244 35.8985 88.5956 39.2878C93.1671 42.6877 97.6669 42.5728 99.8353 49.1896C99.8353 49.1896 100.033 44.3316 95.1302 41.6236C90.2167 38.9159 87.9804 38.7099 86.3751 34.6243C84.7635 30.5367 85.6235 26.5223 82.4167 23.4018C79.2058 20.2836 77.1618 19.8654 77.1618 19.8654L77.16 19.8718Z"
                        fill="#C0C8C7" />
                </g>
                <g style="mix-blend-mode:multiply">
                    <path
                        d="M75.222 20.3246C75.222 20.3246 72.7391 21.0665 76.2855 30.6734C79.8263 40.2996 89.3618 48.6392 89.9039 48.8037C89.9039 48.8037 74.7128 33.6614 75.222 20.3246Z"
                        fill="#C0C8C7" />
                </g>
            </g>
            <g style="mix-blend-mode:multiply" opacity="0.4">
                <path
                    d="M96.5948 29.3968C90.585 23.3438 81.025 15.9841 78.9097 16.9368C76.7922 17.8854 73.8586 17.1493 69.6239 22.7779C65.3892 28.4066 66.7556 27.5744 66.4214 28.4502C66.094 29.3385 65.6352 39.6947 65.5691 40.1398C65.5071 40.5827 63.6438 39.7618 63.2372 40.693L62.8306 41.6242C62.8306 41.6242 62.0123 40.8508 61.8093 41.9786C61.6014 43.0875 61.2319 46.3356 59.9363 46.9302C58.6453 47.533 51.0245 47.1136 50.5917 47.2405C50.157 47.3738 48.2478 52.4474 48.2478 52.4474C48.2478 52.4474 37.6953 49.9821 36.4215 50.9849C35.139 51.9817 30.0738 59.0729 29.1616 59.2604C28.2558 59.4498 26.9496 58.5423 26.4445 60.227C25.9394 61.9117 23.8753 74.3604 23.8753 74.3604C23.8753 74.3604 21.2246 76.1957 21.4216 75.992C21.6163 75.7841 19.9569 74.9712 18.8668 75.7559C17.7771 76.5512 17.9656 77.456 17.9656 77.456L14.9466 78.7909C14.9466 78.7909 12.5911 77.4398 12.2233 80.8702C11.8535 84.3069 19.2071 99.7338 22.616 100.412C22.616 100.412 24.5199 101.507 24.8832 98.0679L27.5467 96.6242C27.5467 96.6242 28.5384 97.7075 29.384 96.8399C30.2405 95.9826 29.9188 94.633 29.9188 94.633L34.0857 92.9882C34.0857 92.9882 52.3532 95.3103 54.5652 94.7252C56.7834 94.1313 58.884 92.7934 60.4445 90.6283C62.0073 88.4672 65.3041 83.3469 65.3041 83.3469C65.3041 83.3469 66.5262 80.5575 66.1192 79.0603C65.7121 77.5631 65.8983 77.1606 65.8983 77.1606L67.8758 70.5315C67.8758 70.5315 67.9719 69.9625 68.7407 70.2565C69.5075 70.5571 71.7922 71.0311 72.531 70.5337C73.2782 70.0318 75.4596 67.3308 75.4596 67.3308C75.4596 67.3308 76.4359 65.59 75.6305 64.1041C74.8251 62.6183 73.6532 59.7102 73.6532 59.7102C73.6532 59.7102 78.2207 61.7793 79.0773 61.1211C79.9294 60.4546 80.5649 57.8861 82.156 57.8368C83.7468 57.7769 89.3788 59.5813 93.34 58.8504C97.2948 58.1177 102.483 55.9194 103.968 53.994C105.459 52.077 105.668 48.7325 105.668 48.7325C105.668 48.7325 102.608 35.4265 96.5985 29.384L96.5948 29.3968ZM21.8558 89.289C21.9682 89.7451 21.3244 89.9701 21.0995 89.5751C19.4618 86.6233 18.1704 83.3654 15.5955 81.0724C15.4318 80.9296 15.449 80.7425 15.5463 80.6037C15.508 80.5329 15.4673 80.458 15.4238 80.3577C15.2404 79.9994 15.6418 79.6257 15.9895 79.8196C19.0652 81.5341 21.0261 86.077 21.8558 89.289ZM24.4296 83.5213C25.1652 85.0773 25.7765 88.0954 22.9789 87.3017C22.0779 87.0523 21.4403 85.6371 21.0166 84.9351C20.0472 83.2959 19.1463 81.4848 17.4531 80.4801C17.2455 80.3558 17.2235 80.1361 17.3137 79.9741C16.8432 79.0067 17.7584 78.2576 19.2913 78.1806C21.4406 78.0765 23.6692 81.9195 24.4296 83.5213ZM26.3363 83.7856C26.2911 84.0901 26.0125 84.2627 25.7278 84.1154C24.7271 83.6024 24.3206 82.6435 23.7732 81.7232C23.0012 80.4184 21.9425 79.2314 20.764 78.2709C20.6466 78.1837 20.6236 78.0616 20.6436 77.9592C20.5057 77.7647 20.3903 77.5418 20.306 77.2967C20.2333 77.083 20.4126 76.8566 20.6084 76.8097C23.4902 76.147 26.6754 81.297 26.3363 83.7856ZM32.0155 84.3636C32.4098 85.5984 32.4899 86.562 31.8205 87.6949C31.4539 88.2921 30.8742 88.1378 30.449 87.7813C29.7595 87.1858 29.3433 85.9305 28.8586 85.1755C28.2756 84.2691 27.7176 83.3492 27.1884 82.4028C26.0432 80.3796 24.907 78.373 23.1122 76.8526C22.9576 76.7265 22.9543 76.5613 23.0243 76.4318C22.5769 74.0841 25.9847 75.5756 26.8802 76.4418C29.01 78.4807 31.1221 81.5415 32.0155 84.3636ZM50.0786 83.9209C49.6596 86.819 46.5403 86.7651 44.198 86.8015C41.8364 86.8323 39.4045 86.8527 37.0528 86.6627C35.6006 86.5506 34.3806 86.2695 33.3814 85.1525C31.9926 83.5952 31.649 81.3097 30.4445 79.6148C29.1575 77.7977 27.0246 76.1212 26.2102 74.0318C25.6434 72.5781 26.3005 70.4773 26.5662 68.9977C26.9895 66.6843 27.5494 64.4045 27.7662 62.0684C27.7655 62.0473 27.7694 62.0344 27.7709 62.0174C27.7765 61.9282 27.795 61.8428 27.796 61.7453C27.8138 61.5095 28.001 61.3973 28.1914 61.3803C30.4287 59.7475 38.7261 66.7576 39.7758 67.6695C42.9903 70.4558 45.6694 73.6077 47.7871 77.2956C48.8459 79.1395 50.3983 81.6852 50.0786 83.9209ZM53.5847 67.3572C53.3377 69.2197 52.9969 71.0683 52.6112 72.9037C52.4161 73.8172 52.3934 75.9242 51.5132 76.509C51.0109 76.8459 50.5324 76.6099 50.154 76.1903C48.9412 74.8283 47.8463 73.3755 46.5922 72.0468C43.4543 68.745 40.1341 65.7736 36.3222 63.268C34.6105 62.1495 31.9393 60.6141 32.9397 58.1818C33.6474 56.4627 34.9831 55.1464 35.9749 53.6233C36.1745 52.8474 36.5178 51.9289 37.2149 51.8419C38.5306 51.6726 39.6683 52.4183 40.8712 52.8864C44.2096 54.2001 47.4676 55.9128 50.2559 58.1816C53.4369 60.7869 54.1143 63.3599 53.5953 67.3569L53.5847 67.3572ZM61.471 50.7563C61.7011 51.8971 61.5142 53.0646 61.5899 54.219C61.6962 55.7284 61.8552 57.2254 61.8998 58.7305C61.9564 60.6654 62.9159 62.9132 62.2221 64.797C62.1274 65.0799 61.7585 65.2152 61.5426 64.9661C60.0694 63.2929 59.3255 61.2837 58.3685 59.3092C57.2687 57.0514 55.9279 55.6026 53.7647 54.4273C52.5344 53.7694 51.1632 53.0803 50.452 51.818C49.88 50.7926 50.5862 49.1605 50.8845 48.1587C50.9476 47.9468 51.1192 47.8754 51.2871 47.8867C51.8925 47.5908 52.453 47.8686 53.1015 48.0502C54.4245 48.4316 55.7848 48.5235 57.1485 48.7213C58.4801 48.9096 61.1241 49.0219 61.4729 50.7499L61.471 50.7563ZM70.1098 49.5416C69.4327 51.8741 70.5583 53.8811 70.5138 56.1669C70.4776 58.1197 69.6291 59.8774 69.23 61.7577C69.1608 62.1075 68.6319 62.1465 68.4903 61.8356C67.3097 59.3092 66.8732 56.2556 66.2844 53.5376C65.6914 50.8219 65.1199 48.1161 64.5503 45.4038C64.3136 44.4498 64.1042 43.4863 63.8841 42.5232C63.7901 42.1111 64.2796 41.8996 64.5677 42.1527C65.5831 43.0509 66.5373 44.0253 67.5879 44.899C68.3439 45.5178 69.5245 46.084 70.1422 46.8854C70.908 47.8704 70.4303 48.4417 70.1033 49.5397L70.1098 49.5416ZM93.0398 47.3925C93.1188 47.5381 93.1112 47.763 92.9645 47.8802C89.8013 50.2625 84.1073 50.0749 80.575 48.7317C78.3464 47.8934 75.5055 46.8808 73.8094 45.1346C73.6009 44.9191 73.4095 44.7052 73.2282 44.4803C72.721 44.1414 72.2832 43.7217 72.0158 43.1289C71.8923 42.8512 71.7964 42.5748 71.6985 42.3047C71.6138 42.1783 71.5291 42.0519 71.4399 41.9172C70.7916 40.96 69.9596 40.3502 69.0592 39.7935C67.45 39.4811 66.4549 38.7496 66.7481 36.8729C67.0642 34.7899 67.354 32.6781 67.7447 30.6031C67.7695 29.475 67.8634 28.3148 68.3775 27.363C69.2806 25.6565 70.811 24.3908 71.844 22.7646C71.9006 22.6801 71.9813 22.6202 72.0695 22.5939C72.1079 22.5354 72.1422 22.4791 72.187 22.4225C72.3294 22.2376 72.6521 22.1165 72.8317 22.3584C74.0747 23.9948 74.7132 25.9589 75.659 27.7833C75.423 26.3927 75.2986 24.9793 75.3398 23.573C75.3226 23.5015 75.3058 23.4406 75.3015 23.3729C75.2856 23.2739 75.3082 23.1863 75.3478 23.1002C75.3514 23.0174 75.3513 22.9475 75.3572 22.8689C75.3736 22.5908 75.7115 22.3484 75.9741 22.5345C77.9832 23.9926 80.1619 25.5148 81.6813 27.5022C83.0775 29.3517 83.3964 31.3329 83.9816 33.5466C84.4499 35.296 85.0165 37.3959 86.6805 38.4163C87.6567 39.0234 88.7665 39.4989 89.6618 40.2252C90.0518 40.5469 90.3707 40.8964 90.6354 41.2753C91.1056 41.715 91.4236 42.232 91.473 42.8406C92.0614 44.3041 92.3564 45.9427 93.0459 47.3838L93.0398 47.3925ZM99.8045 40.064C99.862 40.2697 99.7039 40.4954 99.5041 40.5445C97.4853 41.0087 95.4456 40.2403 93.5239 39.7095C91.4072 39.1175 89.3608 38.0782 87.9161 36.3681C86.2951 34.4519 85.8112 31.8279 85.1724 29.4655C85.0524 29.0352 84.9592 28.5849 84.86 28.1432C84.0012 26.4493 83.1878 24.5209 81.8626 23.1606C80.8032 22.0817 79.554 21.2295 78.5378 20.1109C78.2585 19.8046 78.5513 19.3498 78.9466 19.4424C83.8413 20.6126 88.0214 23.8772 91.3863 27.5082C93.1775 29.4398 94.7731 31.4881 96.2647 33.6629C97.6497 35.6908 99.1014 37.6825 99.8045 40.064Z"
                    fill="#81C5DD" />
            </g>
            <g style="mix-blend-mode:screen" opacity="0.7">
                <path opacity="0.8"
                    d="M31.0869 63.3398C30.5886 64.6291 30.0707 65.902 29.6454 67.2165C28.9531 69.3119 28.5989 71.4938 28.0413 73.6187C28.736 74.353 29.4427 75.07 30.1784 75.7606C31.5332 72.7883 32.8037 69.77 33.7718 66.6515C33.7754 66.5686 33.7579 66.4865 33.7445 66.4021C32.8622 65.3812 31.9711 64.3542 31.0847 63.3356L31.0869 63.3398Z"
                    fill="white" />
                <path opacity="0.8"
                    d="M36.9913 62.1752C37.1708 62.2775 37.3564 62.371 37.5355 62.4627C37.5721 62.4806 37.6126 62.4856 37.653 62.4906C39.7004 60.4479 41.308 58.0613 42.9476 55.6842C41.3501 54.7167 39.733 53.8029 37.9582 53.1849C36.6874 55.6155 35.4966 58.0944 33.9745 60.3701C34.0019 60.4307 34.0336 60.489 34.063 60.5432C35.0297 61.1031 36.0022 61.6437 36.9833 62.1904C36.9871 62.1775 36.9959 62.1836 36.9955 62.173L36.9913 62.1752Z"
                    fill="white" />
                <path opacity="0.8"
                    d="M58.5279 50.5237C56.6156 49.8508 54.6972 49.1866 52.6795 48.9861C52.3423 50.0155 51.9949 51.0558 51.559 52.0524C51.6205 52.1162 51.6836 52.1629 51.7535 52.2221C52.941 52.7216 54.1874 53.0813 55.3501 53.6644C55.5961 53.7899 55.8402 53.9219 56.0752 54.0371C56.7045 52.7308 57.5683 51.5885 58.5321 50.5214L58.5279 50.5237Z"
                    fill="white" />
                <path opacity="0.8"
                    d="M68.4296 50.5054C68.5398 49.9226 68.6737 49.3539 68.8076 48.7852C68.8199 48.7084 68.8232 48.615 68.8355 48.5382C68.9438 47.7731 68.906 47.4646 68.3376 46.9531C67.2773 46.0017 66.323 44.8581 65.2426 43.9392C65.1705 43.8758 65.1023 43.8696 65.0414 43.8865C65.4123 45.5459 65.758 47.2082 66.0824 48.8712C66.1849 49.1499 66.2939 49.4305 66.3984 49.7029C66.4929 50.3149 66.5935 50.9183 66.688 51.5304C66.7285 51.7942 66.7588 52.0689 66.7872 52.3501C67.0199 53.4858 67.272 54.6273 67.5342 55.7578C67.55 55.7869 67.5575 55.8206 67.5733 55.8498C67.5982 55.8957 67.6249 55.9351 67.6555 55.9616C67.8026 54.1239 68.0737 52.3161 68.4232 50.5035L68.4296 50.5054Z"
                    fill="white" />
                <path opacity="0.8"
                    d="M70.4553 28.1671C70.2412 29.5828 70.0868 31.0092 69.8946 32.4453C69.6406 34.3841 69.4584 36.3163 69.3931 38.2553C69.6129 38.4219 69.9487 38.5042 70.4538 38.5108C72.5692 38.5235 71.6713 40.5579 72.2963 42.0094C74.1491 42.7415 75.9716 43.6465 77.8678 44.2796C77.4847 41.7424 77.2221 39.1885 77.0673 36.6247C76.2068 34.7885 75.2561 32.9849 74.5294 31.087C73.7583 29.0676 73.3462 26.9344 72.6864 24.8816C71.9136 25.953 71.1737 27.0551 70.4553 28.1671Z"
                    fill="white" />
                <path opacity="0.8"
                    d="M77.5078 25.3307C77.3582 27.0943 77.9135 29.193 78.4848 30.7545C78.7146 31.2879 78.9633 31.8163 79.2197 32.3191C79.4236 32.9042 79.6805 33.4875 80.0164 34.0874C81.3755 36.5053 82.8462 38.8304 84.43 41.1157C84.4926 41.2112 84.5512 41.2496 84.6241 41.2748C84.6172 40.297 84.5346 39.3388 84.3904 38.3763C84.0142 37.5232 83.6272 36.6599 83.3242 35.7726C82.7628 34.1302 82.512 32.3841 81.8397 30.7856C81.692 30.4235 81.509 30.086 81.3112 29.751C80.1272 28.2034 78.8526 26.7372 77.5097 25.3243L77.5078 25.3307Z"
                    fill="white" />
                <path opacity="0.8"
                    d="M90.8702 29.8975C90.6887 29.4135 90.5099 28.9442 90.3658 28.4992C90.0876 27.6578 89.1554 27.1816 88.4926 26.705C87.3797 25.8954 86.4492 24.9546 85.4061 24.0748C85.2294 23.928 85.0628 23.9589 84.946 24.0816C85.7361 26.0368 86.5736 28.0095 86.9771 30.0772C87.2452 31.4472 87.467 32.8314 87.7223 34.1976C88.9773 34.7522 90.3064 35.1049 91.6427 35.4214C91.1246 33.6099 90.9637 31.7612 90.8741 29.8846L90.8702 29.8975Z"
                    fill="white" />
                <path opacity="0.8"
                    d="M20.6606 79.6999C20.2698 79.367 19.6527 78.925 19.2275 79.4736C18.8535 79.9675 19.0468 80.553 19.3339 81.0229C19.5622 81.3845 20.2279 82.2046 20.7966 82.3386C20.9752 82.479 21.1733 82.5658 21.358 82.5088C21.8935 82.3426 21.882 81.6747 21.7405 81.2445C21.5506 80.6356 21.143 80.1124 20.6606 79.6999Z"
                    fill="white" />
                <path opacity="0.8"
                    d="M23.4571 78.1845C23.1532 77.783 22.5834 77.3584 22.2672 77.9989C22.0326 78.4712 22.2203 79.0166 22.561 79.3766C22.8686 79.6952 23.3448 80.0464 23.8069 79.8445C24.0141 79.7591 24.1597 79.4807 24.1504 79.2646C24.147 78.8404 23.9052 78.2651 23.4571 78.1845Z"
                    fill="white" />
                <path opacity="0.8"
                    d="M28.6482 79.3657C28.3802 78.9609 28.0891 78.5633 27.7541 78.184C27.1562 77.4889 26.465 77.0493 25.7329 76.5941C25.5458 76.3882 25.3157 76.2918 25.0273 76.1677C24.5235 75.9447 24.2141 77.0453 24.6088 77.3059C25.4922 77.9109 26.2644 78.3606 26.9716 79.2175C27.8089 80.225 28.4639 81.3638 29.349 82.34C29.1844 81.3399 28.9373 80.3468 28.644 79.368L28.6482 79.3657Z"
                    fill="white" />
                <path opacity="0.5"
                    d="M17.3159 81.7277C17.2567 81.6681 17.1829 81.8106 17.2312 81.8599C17.6447 82.3045 17.9073 82.8685 18.2772 83.3421C18.3836 83.4786 18.5132 83.2303 18.442 83.1287C18.1031 82.6329 17.7598 82.1288 17.314 81.7341L17.3159 81.7277Z"
                    fill="white" />
            </g>
        </mask>
        <g mask="url(#mask0_2322_92360)">
            <path fill-rule="evenodd" clip-rule="evenodd"
                d="M52.677 47.9769C52.592 47.9755 52.5083 47.9741 52.4261 47.9727C51.2765 47.9532 50.4185 47.9386 50.2814 47.9788C50.264 47.9841 50.2443 47.9973 50.2225 48.0178C49.7186 48.4619 48.0144 52.9692 47.9333 53.1843C47.7008 53.1301 37.3709 50.7323 36.1115 51.7237C36.1027 51.7305 36.0939 51.7376 36.0848 51.7449C35.5057 52.2085 34.2058 53.8334 32.8555 55.5212C31.5004 57.215 30.0946 58.9721 29.316 59.6823C29.1146 59.8652 28.9558 59.9771 28.8514 59.9986C28.5835 60.0546 28.2806 60.0147 27.9738 59.9743C27.4736 59.9085 26.9628 59.8412 26.5763 60.186C26.3951 60.3447 26.2407 60.5925 26.127 60.9718C25.6272 62.6386 23.6015 74.842 23.5585 75.1011C23.4377 75.1846 21.4439 76.5637 21.139 76.7284L21.1118 76.7271C21.2973 76.5169 19.6433 75.7099 18.5559 76.4927C18.3428 76.6482 18.1786 76.8079 18.0523 76.9642C17.553 77.5763 17.637 78.1383 17.6472 78.196L14.6356 79.5276L14.6338 79.5336L14.6291 79.5357C14.6291 79.5357 12.2736 78.1846 11.9058 81.615C11.7005 83.5232 13.8761 89.1277 16.4356 93.8517C18.4859 97.6364 20.7828 100.856 22.2993 101.158C22.2993 101.158 24.2032 102.253 24.5667 98.8143L27.2301 97.3706C27.2301 97.3706 27.2537 97.3964 27.2968 97.4369C27.2922 97.4707 27.2893 97.4878 27.2893 97.4878C27.2893 97.4878 27.2927 97.4711 27.2985 97.4385C27.5367 97.6618 28.3539 98.3181 29.0673 97.5863C29.9238 96.729 29.6022 95.3796 29.6022 95.3796L33.7691 93.7347C33.7691 93.7347 50.0262 95.7999 53.724 95.5424C53.9459 95.527 54.1225 95.5032 54.2477 95.47C56.4658 94.8761 58.5665 93.5383 60.1271 91.3733C61.6899 89.2124 64.9869 84.0925 64.9869 84.0925C64.9869 84.0925 66.2092 81.3033 65.8023 79.8064C65.3953 78.3094 65.5817 77.9069 65.5817 77.9069L67.5594 71.2785C67.5594 71.2785 67.5637 71.2532 67.5777 71.2159L67.6081 71.3901C67.6113 71.4096 67.6083 71.3325 67.5984 71.1685C67.673 71.0197 67.8801 70.7955 68.4243 71.0036C68.9509 71.2099 70.1936 71.498 71.1596 71.4971L72.8734 59.9875L57.8986 62.0299L61.919 50.3216L53.3779 50.6274L52.677 47.9769Z"
                fill="white" />
        </g>
        <mask id="mask1_2322_92360" style="mask-type:alpha" maskUnits="userSpaceOnUse" x="9" y="35"
            width="103" height="55">
            <path opacity="0.7"
                d="M15.897 53.9995C15.897 53.9995 14.6417 51.5919 12.4822 54.2821C10.3177 56.9766 8.19253 73.9309 10.698 76.3395C10.698 76.3395 11.7111 78.288 13.8712 75.5884L16.8927 75.8087C16.8927 75.8087 17.1437 77.2556 18.3236 76.981C19.5072 76.7208 19.964 75.411 19.964 75.411L24.3601 76.2726C24.3601 76.2726 38.4925 88.0765 40.6709 88.7764C42.8591 89.4722 45.3496 89.4782 47.8313 88.4964C50.3127 87.5194 55.85 84.9853 55.85 84.9853C55.85 84.9853 58.3834 83.2954 58.8478 81.8153C59.3123 80.3352 59.6862 80.0967 59.6862 80.0967L64.926 75.5809C64.926 75.5809 65.3137 75.1535 65.8026 75.8157C66.2864 76.4821 67.9549 78.1131 68.8453 78.0926C69.7452 78.0728 73.0388 76.9745 73.0388 76.9745C73.0388 76.9745 74.7995 76.0351 74.9224 74.3497C75.0453 72.6644 75.6265 69.5839 75.6265 69.5839C75.6265 69.5839 78.3575 73.7886 79.4338 73.6962C80.5108 73.5944 82.4309 71.7744 83.7975 72.5907C85.1695 73.3979 88.9397 77.9536 92.6698 79.4738C96.3955 80.9889 101.95 81.935 104.239 81.1148C106.528 80.304 108.508 77.6007 108.508 77.6007C108.508 77.6007 113.105 64.7469 111.303 56.4191C109.505 48.0822 105.422 36.7311 103.127 36.3929C100.832 36.0499 98.7586 33.8485 92.1572 36.3049C85.5559 38.7613 87.1553 38.7972 86.4016 39.3545C85.6469 39.9259 79.6765 48.3988 79.3808 48.738C79.0898 49.0774 77.9632 47.3816 77.1187 47.9465L76.2741 48.5114C76.2741 48.5114 76.002 47.419 75.2229 48.2592C74.45 49.0808 72.3874 51.6167 70.9757 51.4188C69.5633 51.2304 63.3714 46.7685 62.9385 46.642C62.5006 46.5199 58.157 49.7627 58.157 49.7627C58.157 49.7627 50.5992 41.9977 48.9857 42.1553C47.3682 42.3031 39.2789 45.5433 38.4095 45.2094C37.5446 44.8805 36.9339 43.4122 35.6001 44.5584C34.2663 45.7046 25.8156 55.074 25.8156 55.074C25.8156 55.074 22.5936 55.1902 22.8693 55.1249C23.1454 55.0549 22.1862 53.4757 20.8451 53.5487C19.4986 53.6309 19.1694 54.4944 19.1694 54.4944L15.9071 53.9907L15.897 53.9995Z"
                fill="#93C8C9" />
            <g style="mix-blend-mode:multiply" opacity="0.4">
                <g style="mix-blend-mode:multiply">
                    <path
                        d="M15.0403 65.1825C14.2727 71.2109 12.5816 75.9551 11.2581 75.7873C9.93531 75.6101 9.48301 70.6002 10.2502 64.5765C11.0171 58.5575 12.7083 53.8133 14.0317 53.9811C15.3549 54.1536 15.8068 59.1682 15.0403 65.1825Z"
                        fill="#909696" />
                </g>
                <g style="mix-blend-mode:multiply">
                    <path
                        d="M16.2737 54.8374C16.2737 54.8374 18.6279 64.207 14.0691 75.2924C14.0691 75.2924 19.6513 64.9043 16.2737 54.8374Z"
                        fill="#C0C8C7" />
                </g>
                <g style="mix-blend-mode:multiply">
                    <path
                        d="M19.7469 55.0005C19.7469 55.0005 22.061 57.489 20.8779 65.1746C19.6962 72.8413 16.8797 75.9396 16.8797 75.9396C16.8797 75.9396 21.4127 71.2695 21.5874 62.8116C21.5874 62.8116 22.0684 56.149 19.7469 55.0005Z"
                        fill="#C0C8C7" />
                </g>
                <g style="mix-blend-mode:multiply">
                    <path
                        d="M22.6603 54.9994C22.6603 54.9994 24.9215 57.4317 23.7667 64.9245C22.6112 72.4268 19.8623 75.4444 19.8623 75.4444C19.8623 75.4444 24.2922 70.8856 24.4625 62.6175C24.4625 62.6175 24.9359 56.1256 22.6603 54.9994Z"
                        fill="#C0C8C7" />
                </g>
                <g style="mix-blend-mode:multiply">
                    <path
                        d="M26.3692 55.5738C26.3692 55.5738 28.7372 57.9093 27.9026 65.4445C27.0676 72.9843 24.4516 76.1353 24.4516 76.1353C24.4516 76.1353 28.6768 71.3857 28.4951 63.1204C28.4951 63.1204 28.6896 56.6081 26.374 55.5741L26.3692 55.5738Z"
                        fill="#C0C8C7" />
                </g>
                <g style="mix-blend-mode:multiply">
                    <path
                        d="M39.772 49.6758C39.772 49.6758 50.6003 65.1916 43.6218 86.1873C43.6218 86.1873 52.5984 67.1245 39.772 49.6758Z"
                        fill="#C0C8C7" />
                </g>
                <g style="mix-blend-mode:multiply">
                    <path
                        d="M58.1406 49.8525C58.1406 49.8525 60.7801 54.0711 60.9344 56.8442C61.088 59.6266 59.5288 79.7721 59.5288 79.7721C59.5288 79.7721 61.9187 60.4905 61.9332 57.8154C61.9523 55.1406 58.1406 49.8525 58.1406 49.8525Z"
                        fill="#C0C8C7" />
                </g>
                <g style="mix-blend-mode:multiply">
                    <path
                        d="M76.2524 48.5922C76.2524 48.5922 65.0158 75.4427 64.9066 75.7009C64.7978 75.9544 73.7407 59.8316 76.2524 48.5922Z"
                        fill="#C0C8C7" />
                </g>
                <g style="mix-blend-mode:multiply">
                    <path
                        d="M78.4434 62.6747C78.4434 62.6747 75.5311 62.1961 75.373 69.3195L75.5664 70.3176L77.1985 65.0795C77.1985 65.0795 78.5455 63.7517 78.8103 63.771C79.0798 63.7906 81.0085 64.1975 81.0085 64.1975C81.0085 64.1975 80.0871 62.1671 78.4434 62.6747Z"
                        fill="#C0C8C7" />
                </g>
                <g style="mix-blend-mode:multiply">
                    <path
                        d="M79.3638 48.8193C79.3638 48.8193 81.4964 51.3848 81.5723 52.8212C81.6482 54.2575 82.0082 59.099 83.1362 61.9477C83.1362 61.9477 86.7627 67.2983 88.9724 70.0453C88.9724 70.0453 83.8985 62.4454 83.3307 59.281C82.7578 56.1209 82.3336 52.1589 82.3336 52.1589L79.3638 48.8193Z"
                        fill="#C0C8C7" />
                </g>
                <g style="mix-blend-mode:multiply">
                    <path
                        d="M100.062 37.9207C100.062 37.9207 102.388 41.4843 102.083 45.6594C101.779 49.8345 97.2009 55.1193 99.223 60.4385C101.24 65.7668 105.091 68.0964 103.35 74.8381C103.35 74.8381 106.136 70.8535 103.467 65.9292C100.789 60.9995 99.0165 59.6201 99.8677 55.3137C100.714 51.0023 103.603 48.0852 102.585 43.7281C101.563 39.3707 100.067 37.9164 100.067 37.9164L100.062 37.9207Z"
                        fill="#C0C8C7" />
                </g>
                <g style="mix-blend-mode:multiply">
                    <path
                        d="M98.1848 37.2567C98.1848 37.2567 95.6937 36.5427 93.5003 46.5456C91.2916 56.5617 94.8253 68.7268 95.1932 69.1576C95.1932 69.1576 90.5646 48.2139 98.1848 37.2567Z"
                        fill="#C0C8C7" />
                </g>
            </g>
            <g style="mix-blend-mode:multiply" opacity="0.4">
                <path
                    d="M111.293 56.4217C109.496 48.0835 105.413 36.7306 103.118 36.3923C100.823 36.0494 98.7492 33.8476 92.1478 36.3044C85.5464 38.7613 87.1459 38.7972 86.3922 39.3546C85.6374 39.9262 79.6669 48.4005 79.3712 48.7397C79.0802 49.0792 77.9536 47.3832 77.1091 47.9482L76.2645 48.5131C76.2645 48.5131 75.9924 47.4206 75.2133 48.2609C74.4403 49.0827 72.3777 51.6189 70.966 51.4211C69.5537 51.2326 63.3618 46.7701 62.929 46.6436C62.491 46.5215 58.1473 49.7649 58.1473 49.7649C58.1473 49.7649 50.5896 41.9987 48.9761 42.1563C47.3586 42.3042 39.2692 45.545 38.3999 45.211C37.5349 44.8821 36.9242 43.4136 35.5904 44.56C34.2566 45.7064 25.8058 55.0774 25.8058 55.0774C25.8058 55.0774 22.5839 55.1937 22.8596 55.1283C23.1357 55.0583 22.1764 53.4789 20.8353 53.552C19.4888 53.6341 19.1596 54.4978 19.1596 54.4978L15.8973 53.9941C15.8973 53.9941 14.6421 51.5861 12.4826 54.2767C10.3181 56.9717 8.19268 73.9288 10.6981 76.3378C10.6981 76.3378 11.7111 78.2866 13.8712 75.5866L16.8928 75.8069C16.8928 75.8069 17.1438 77.254 18.3237 76.9792C19.5074 76.719 19.9642 75.409 19.9642 75.409L24.3603 76.2707C24.3603 76.2707 38.4925 88.0764 40.6709 88.7764C42.8592 89.4723 45.3497 89.4782 47.8314 88.4962C50.3127 87.519 55.8502 84.9845 55.8502 84.9845C55.8502 84.9845 58.3835 83.2943 58.848 81.8139C59.3125 80.3336 59.6864 80.095 59.6864 80.095L64.9263 75.5784C64.9263 75.5784 65.314 75.151 65.8028 75.8132C66.2866 76.4798 67.9551 78.1109 68.8455 78.0904C69.7454 78.0706 73.0389 76.9722 73.0389 76.9722C73.0389 76.9722 74.7998 76.0326 74.9227 74.3469C75.0456 72.6613 75.6268 69.5803 75.6268 69.5803C75.6268 69.5803 78.3577 73.7857 79.434 73.6933C80.511 73.5915 82.4312 71.771 83.7977 72.5875C85.1697 73.3948 88.9399 77.9513 92.67 79.4717C96.3957 80.987 101.95 81.9331 104.24 81.1128C106.528 80.3018 108.508 77.5981 108.508 77.5981C108.508 77.5981 113.106 64.7421 111.303 56.413L111.293 56.4217ZM16.0553 66.5608C15.904 67.0055 15.2405 66.8479 15.2641 66.3939C15.4765 63.025 16.1457 59.5849 15.2136 56.2654C15.1527 56.0569 15.2681 55.9086 15.4249 55.8441C15.4308 55.7638 15.437 55.6789 15.4543 55.571C15.493 55.1703 16.0326 55.072 16.221 55.4227C17.8867 58.5252 17.0885 63.4084 16.0553 66.5608ZM21.3329 63.0913C21.1134 64.7983 20.0008 67.6697 18.0727 65.4927C17.4484 64.7969 17.6745 63.2612 17.6963 62.4416C17.7637 60.5383 17.9816 58.5273 17.0974 56.7683C16.9896 56.5515 17.0895 56.3547 17.2528 56.2669C17.3782 55.1986 18.5529 55.0612 19.8854 55.8229C21.7516 56.8941 21.5563 61.3323 21.3329 63.0913ZM22.7962 64.342C22.5939 64.574 22.2662 64.5691 22.1058 64.2916C21.5397 63.32 21.7144 62.2932 21.7497 61.223C21.8031 59.7079 21.5515 58.1374 21.0769 56.693C21.0251 56.5563 21.0715 56.441 21.1436 56.3656C21.1324 56.1274 21.1554 55.8775 21.2165 55.6256C21.2705 55.4064 21.5437 55.3124 21.7337 55.3785C24.5181 56.3743 24.4236 62.429 22.7962 64.342ZM27.2673 67.891C26.9336 69.1436 26.4814 69.9983 25.3068 70.5914C24.6761 70.8967 24.271 70.4542 24.1052 69.9247C23.8456 69.0513 24.172 67.7698 24.1709 66.8725C24.1686 65.7949 24.1948 64.7192 24.2594 63.6369C24.3859 61.3155 24.511 59.013 23.8193 56.7648C23.7571 56.5751 23.8434 56.4342 23.9722 56.3629C24.8613 54.1446 26.927 57.2382 27.2141 58.4506C27.9084 61.316 28.0367 65.0326 27.2673 67.891ZM42.7183 77.2581C40.8027 79.4728 38.2047 77.7454 36.2125 76.5131C34.2071 75.2657 32.148 73.9715 30.2699 72.5435C29.1074 71.666 28.2314 70.7714 27.9923 69.292C27.6624 67.2316 28.6054 65.1216 28.5049 63.0446C28.4008 60.8203 27.5086 58.2584 27.9494 56.0596C28.2558 54.5297 29.942 53.1148 30.9636 52.0121C32.5675 50.292 34.2684 48.674 35.7106 46.8235C35.7214 46.8053 35.7316 46.7965 35.7421 46.783C35.7949 46.7109 35.8564 46.649 35.9099 46.5674C36.052 46.3784 36.2703 46.3848 36.4397 46.4732C39.2044 46.3045 42.4122 56.6822 42.8045 58.0162C44.0092 62.0961 44.566 66.1952 44.3608 70.4428C44.2583 72.5666 44.193 75.5476 42.7183 77.2581ZM54.6023 65.1992C53.39 66.6345 52.1062 68.0076 50.7917 69.3453C50.1348 70.0094 48.9796 71.7717 47.923 71.7896C47.3183 71.8024 47.0426 71.3456 46.9502 70.7883C46.6632 68.9873 46.5245 67.1734 46.1848 65.3781C45.3225 60.9055 44.1286 56.6128 42.2694 52.4472C41.4309 50.5823 40.0092 47.8489 42.1633 46.3399C43.6862 45.2737 45.5209 44.8853 47.1774 44.1375C47.7639 43.5916 48.5483 43.0033 49.1823 43.3058C50.3816 43.8727 50.9377 45.1142 51.6983 46.157C53.8014 49.0635 55.6216 52.2626 56.7465 55.6769C58.0206 59.5862 57.2038 62.1184 54.6114 65.2046L54.6023 65.1992ZM70.1954 55.4708C69.774 56.5556 68.9871 57.4381 68.4284 58.4511C67.704 59.7796 67.0307 61.126 66.2567 62.4177C65.261 64.0777 64.857 66.4881 63.257 67.7005C63.0246 67.8877 62.641 67.8027 62.5935 67.4765C62.255 65.273 62.712 63.1798 62.9707 61.0009C63.2619 58.5064 62.9139 56.5633 61.7259 54.4071C61.0445 53.1897 60.2613 51.8699 60.343 50.4234C60.4142 49.2514 61.889 48.2576 62.6804 47.5748C62.8478 47.4304 63.0308 47.4628 63.1661 47.5628C63.8355 47.6401 64.1577 48.1762 64.606 48.6789C65.5145 49.7135 66.6105 50.5244 67.6524 51.4263C68.6723 52.3028 70.8384 53.8231 70.2004 55.4665L70.1954 55.4708ZM78.1257 59.106C76.2977 60.7053 76.1635 63.0024 74.8935 64.9035C73.81 66.5286 72.1477 67.5513 70.7977 68.9196C70.5507 69.1769 70.0843 68.9246 70.1328 68.5863C70.5007 65.8221 71.7797 63.0151 72.7493 60.4086C73.7142 57.8018 74.692 55.2148 75.6748 52.6236C75.9899 51.6924 76.333 50.7681 76.667 49.8384C76.8101 49.4406 77.3363 49.5264 77.4425 49.8949C77.8133 51.1988 78.0914 52.534 78.5051 53.8363C78.8082 54.765 79.4971 55.8785 79.5852 56.8865C79.699 58.129 78.9887 58.3525 78.1212 59.1009L78.1257 59.106ZM98.5955 69.6602C98.5834 69.8255 98.4558 70.0108 98.269 70.0304C94.3205 70.3311 89.6264 67.1027 87.3759 64.0668C85.951 62.1592 84.1045 59.7746 83.6177 57.3894C83.5583 57.0955 83.5124 56.8121 83.481 56.525C83.2366 55.9661 83.0942 55.3766 83.1887 54.7332C83.2344 54.4327 83.3027 54.1481 83.3659 53.8679C83.3627 53.7158 83.3595 53.5637 83.357 53.4021C83.3272 52.2465 82.9553 51.2842 82.4972 50.33C81.3105 49.1991 80.8668 48.0465 82.1257 46.6241C83.5151 45.0403 84.8979 43.4181 86.3457 41.8813C86.975 40.9446 87.6796 40.0181 88.6258 39.4938C90.3065 38.5436 92.2778 38.3028 94.0246 37.4903C94.1179 37.4497 94.2182 37.4427 94.3067 37.4682C94.3706 37.4396 94.4297 37.4107 94.498 37.3872C94.7176 37.3083 95.0547 37.3803 95.0756 37.6809C95.2399 39.7292 94.7187 41.7276 94.5314 43.774C95.0825 42.4756 95.7398 41.2182 96.5329 40.0561C96.557 39.9867 96.5756 39.9263 96.6085 39.867C96.6485 39.775 96.7147 39.7134 96.7945 39.6622C96.8422 39.5945 96.8798 39.5355 96.9272 39.4725C97.091 39.2471 97.5062 39.2252 97.627 39.5236C98.5328 41.8348 99.5468 44.2916 99.7548 46.7846C99.9334 49.0951 99.1337 50.9355 98.4328 53.1154C97.8839 54.8411 97.2288 56.9151 98.0799 58.6718C98.5747 59.7094 99.253 60.7083 99.6152 61.8027C99.7703 62.2839 99.8504 62.7502 99.869 63.212C100.028 63.8359 100.017 64.4427 99.7304 64.9819C99.4368 66.5317 98.8017 68.0708 98.6053 69.6562L98.5955 69.6602ZM108.244 67.136C108.182 67.3403 107.927 67.4451 107.732 67.3787C105.782 66.6811 104.478 64.9342 103.146 63.451C101.683 61.811 100.519 59.8323 100.225 57.6131C99.893 55.1253 100.9 52.6545 101.636 50.3205C101.767 49.8933 101.932 49.4639 102.086 49.0385C102.276 47.1489 102.631 45.0862 102.249 43.226C101.938 41.7461 101.346 40.3548 101.093 38.8649C101.023 38.4563 101.515 38.2311 101.798 38.5223C105.289 42.1471 107.049 47.1504 107.925 52.0227C108.392 54.6153 108.631 57.2007 108.715 59.8365C108.787 62.2911 108.936 64.7513 108.244 67.136Z"
                    fill="#81C5DD" />
            </g>
            <g style="mix-blend-mode:screen" opacity="0.7">
                <path opacity="0.8"
                    d="M37.8216 49.6851C36.7067 50.5022 35.5842 51.295 34.5172 52.1726C32.8043 53.5641 31.3295 55.2106 29.7141 56.6994C29.9032 57.6924 30.1118 58.6774 30.3589 59.6556C33.1026 57.883 35.8001 56.0261 38.297 53.9218C38.3447 53.854 38.3742 53.7753 38.4085 53.697C38.2159 52.3615 38.0192 51.0162 37.8219 49.6803L37.8216 49.6851Z"
                    fill="white" />
                <path opacity="0.8"
                    d="M43.4221 51.8881C43.5181 52.071 43.6239 52.2498 43.7253 52.4236C43.7466 52.4584 43.7779 52.4845 43.8093 52.5105C46.635 51.8942 49.2757 50.751 51.9384 49.6332C51.1146 47.957 50.2456 46.3155 49.0841 44.838C46.7032 46.1998 44.3637 47.6454 41.8547 48.7411C41.8452 48.807 41.8404 48.8732 41.8359 48.9346C42.3482 49.9274 42.8757 50.9071 43.4072 51.8965C43.4173 51.8877 43.4214 51.8976 43.4269 51.8884L43.4221 51.8881Z"
                    fill="white" />
                <path opacity="0.8"
                    d="M67.8418 53.6884C66.5941 52.0906 65.3366 50.4968 63.7455 49.2399C62.9065 49.925 62.0529 50.6138 61.1484 51.2181C61.1659 51.305 61.1939 51.3783 61.2208 51.4658C61.9515 52.5269 62.8072 53.5019 63.472 54.6199C63.6115 54.8582 63.7459 55.101 63.8817 55.3248C65.116 54.5639 66.4594 54.0677 67.8466 53.6887L67.8418 53.6884Z"
                    fill="white" />
                <path opacity="0.8"
                    d="M76.1907 59.0118C76.5977 58.5804 77.0171 58.1737 77.4366 57.767C77.4883 57.7089 77.5415 57.632 77.5932 57.574C78.097 56.988 78.2316 56.7079 78.0286 55.9706C77.6487 54.5976 77.4617 53.1199 77.0472 51.7635C77.0207 51.6713 76.9667 51.6293 76.9062 51.6106C76.3239 53.2081 75.7186 54.7944 75.0951 56.3699C75.0312 56.6599 74.9717 56.955 74.9128 57.2407C74.6624 57.8071 74.4217 58.3695 74.1712 58.9359C74.0631 59.18 73.9405 59.4277 73.8128 59.6798C73.3964 60.7618 72.9932 61.8589 72.6045 62.9524C72.6021 62.9855 72.5902 63.0179 72.5878 63.051C72.584 63.103 72.5853 63.1507 72.5967 63.1895C73.7115 61.7212 74.9146 60.3448 76.1863 59.0068L76.1907 59.0118Z"
                    fill="white" />
                <path opacity="0.8"
                    d="M89.9419 41.2916C88.9982 42.3684 88.0991 43.4865 87.1629 44.5923C85.9035 46.0881 84.7082 47.6171 83.6077 49.2149C83.7029 49.4737 83.9414 49.724 84.3632 50.002C86.1378 51.1534 84.2847 52.3825 84.0284 53.9419C85.194 55.5575 86.2408 57.3024 87.4964 58.858C88.5419 56.5147 89.6978 54.2223 90.9499 51.9796C91.2153 49.9692 91.3872 47.9378 91.7985 45.9475C92.238 43.831 93.0412 41.8123 93.5925 39.7278C92.364 40.2133 91.1465 40.7425 89.9419 41.2916Z"
                    fill="white" />
                <path opacity="0.8"
                    d="M97.4102 42.7055C96.3334 44.1101 95.6693 46.1769 95.3085 47.8001C95.2144 48.3731 95.1389 48.9523 95.0837 49.5139C94.94 50.1166 94.8418 50.7464 94.8012 51.4327C94.6421 54.2019 94.6268 56.953 94.7285 59.7317C94.7296 59.8459 94.7583 59.9097 94.8061 59.9703C95.3275 59.1432 95.7747 58.2916 96.1722 57.4032C96.3154 56.482 96.4549 55.5462 96.6782 54.6356C97.0911 52.9497 97.8214 51.344 98.1171 49.6353C98.1879 49.2507 98.2158 48.8677 98.2299 48.4789C98.0673 46.5372 97.7844 44.6152 97.4153 42.7011L97.4102 42.7055Z"
                    fill="white" />
                <path opacity="0.8"
                    d="M106.201 53.7569C106.31 53.2514 106.412 52.7597 106.531 52.3073C106.75 51.4486 106.222 50.545 105.921 49.7863C105.42 48.5043 105.144 47.2102 104.739 45.9068C104.67 45.6879 104.513 45.6241 104.348 45.6644C103.96 47.7371 103.601 49.85 102.826 51.809C102.313 53.1073 101.753 54.3927 101.232 55.6809C101.99 56.8247 102.919 57.8384 103.874 58.8254C104.414 57.0205 105.275 55.3768 106.212 53.7481L106.201 53.7569Z"
                    fill="white" />
                <path opacity="0.8"
                    d="M20.2195 57.841C20.0699 57.35 19.7885 56.645 19.1346 56.8778C18.5533 57.0921 18.4004 57.6894 18.3888 58.2399C18.3861 58.6676 18.5045 59.7172 18.9113 60.1366C18.9859 60.3512 19.1059 60.5311 19.2923 60.5827C19.8329 60.7314 20.1833 60.1628 20.2961 59.7242C20.4645 59.1091 20.4034 58.4486 20.2195 57.841Z"
                    fill="white" />
                <path opacity="0.8"
                    d="M23.3915 58.0727C23.352 57.5707 23.1011 56.9059 22.4895 57.2748C22.0372 57.5461 21.9012 58.1066 21.9941 58.5935C22.0812 59.0276 22.2929 59.5802 22.791 59.6593C23.0115 59.6992 23.2843 59.5432 23.393 59.3562C23.6188 58.9972 23.7254 58.3822 23.3915 58.0727Z"
                    fill="white" />
                <path opacity="0.8"
                    d="M27.1262 61.8669C27.1188 61.3815 27.0881 60.8897 27.0104 60.3896C26.8817 59.4819 26.5366 58.7389 26.1656 57.9608C26.119 57.6865 25.9771 57.4812 25.8012 57.2212C25.4972 56.7617 24.6432 57.5218 24.8351 57.9541C25.2528 58.94 25.6607 59.7351 25.7942 60.8381C25.9561 62.1381 25.8937 63.4502 26.1126 64.7496C26.5133 63.8187 26.8406 62.849 27.1214 61.8665L27.1262 61.8669Z"
                    fill="white" />
                <path opacity="0.5"
                    d="M16.3086 57.745C16.2908 57.6629 16.1518 57.7431 16.1659 57.8107C16.2744 58.408 16.1914 59.0247 16.2476 59.6229C16.2636 59.7952 16.5067 59.6561 16.5014 59.5321C16.4834 58.9319 16.4661 58.3221 16.3035 57.7494L16.3086 57.745Z"
                    fill="white" />
            </g>
        </mask>
        <g mask="url(#mask1_2322_92360)">
            <path fill-rule="evenodd" clip-rule="evenodd"
                d="M68.5094 78.1622L76.1589 69.3932L62.4463 63.0386L72.1455 55.3461L64.7875 50.9982L65.6264 48.3882C67.6929 49.7607 70.7119 51.7503 71.645 51.8748C71.8002 51.8965 71.9632 51.8852 72.1315 51.8468C73.303 51.5726 74.7277 49.993 75.5397 49.0927L75.5397 49.0927L75.5399 49.0924L75.5402 49.0921C75.6716 48.9464 75.787 48.8185 75.8826 48.7168C76.0692 48.5156 76.2266 48.4252 76.3583 48.4041C76.7639 48.3294 76.928 48.9096 76.9423 48.9634L77.7784 48.4041C77.8657 48.3457 77.956 48.3115 78.0481 48.2966C78.4886 48.2192 78.9709 48.5908 79.3594 48.8901C79.6184 49.0896 79.8357 49.2571 79.971 49.2378C79.9977 49.232 80.021 49.2184 80.0405 49.1956C80.123 49.101 80.6473 48.373 81.3768 47.3601L81.377 47.3599L81.377 47.3598C83.2622 44.7423 86.5174 40.2226 87.0615 39.8106C87.2349 39.6823 87.2837 39.5817 87.3366 39.4728C87.5133 39.1085 87.7348 38.6519 92.8171 36.7604C95.5282 35.7514 97.4756 35.5281 98.9883 35.6392C100.291 35.7335 101.272 36.076 102.14 36.3791C102.722 36.5822 103.253 36.7676 103.796 36.8488C106.091 37.187 110.173 48.5338 111.971 56.8702L111.972 56.8689C112.422 58.9479 112.473 61.3088 112.297 63.6815C111.767 70.8153 109.177 78.0567 109.177 78.0567C109.177 78.0567 107.197 80.7599 104.909 81.5707C102.619 82.391 97.0648 81.4449 93.3391 79.9298C90.8426 78.9123 88.3282 76.5352 86.5267 74.8321C85.6366 73.9905 84.9205 73.3136 84.4668 73.0466C83.5828 72.5186 82.4673 73.0936 81.4981 73.5932C80.969 73.866 80.4835 74.1162 80.1031 74.1522C79.1585 74.2333 76.9394 71.0045 76.4104 70.2131L76.2358 70.7735L76.1978 70.5771C76.047 71.4209 75.7624 73.0885 75.6343 74.3289C75.6172 74.4957 75.6028 74.6547 75.592 74.8029C75.59 74.8301 75.5876 74.8571 75.5848 74.8839C75.4143 76.5201 73.7081 77.4305 73.7081 77.4305C73.7081 77.4305 70.4145 78.5287 69.5146 78.5485C69.2357 78.5549 68.8806 78.3994 68.5094 78.1622Z"
                fill="white" />
        </g>
    </g>
    <defs>
        <linearGradient id="paint0_linear_2322_92360" x1="354" y1="412" x2="354" y2="0"
            gradientUnits="userSpaceOnUse">
            <stop stop-color="#295DC2" />
            <stop offset="0.143" stop-color="#2D67D7" />
            <stop offset="0.403" stop-color="#2D67D7" />
            <stop offset="0.578" stop-color="#3C74DF" />
            <stop offset="1" stop-color="#2452AC" />
        </linearGradient>
        <linearGradient id="paint1_linear_2322_92360" x1="33.7942" y1="146.415" x2="33.7942"
            y2="-66.0391" gradientUnits="userSpaceOnUse">
            <stop />
            <stop offset="0.213" stop-color="#000003" />
            <stop offset="0.41" stop-color="#02030E" />
            <stop offset="0.6" stop-color="#060721" />
            <stop offset="0.787" stop-color="#0B0D3B" />
            <stop offset="0.969" stop-color="#11145D" />
            <stop offset="1" stop-color="#131664" />
        </linearGradient>
        <linearGradient id="paint2_linear_2322_92360" x1="37.9243" y1="142.07" x2="37.9243"
            y2="-63.4321" gradientUnits="userSpaceOnUse">
            <stop />
            <stop offset="0.213" stop-color="#000003" />
            <stop offset="0.41" stop-color="#02030E" />
            <stop offset="0.6" stop-color="#060721" />
            <stop offset="0.787" stop-color="#0B0D3B" />
            <stop offset="0.969" stop-color="#11145D" />
            <stop offset="1" stop-color="#131664" />
        </linearGradient>
        <linearGradient id="paint3_linear_2322_92360" x1="9.87425" y1="145.546" x2="9.87425"
            y2="-59.9565" gradientUnits="userSpaceOnUse">
            <stop />
            <stop offset="0.213" stop-color="#000003" />
            <stop offset="0.41" stop-color="#02030E" />
            <stop offset="0.6" stop-color="#060721" />
            <stop offset="0.787" stop-color="#0B0D3B" />
            <stop offset="0.969" stop-color="#11145D" />
            <stop offset="1" stop-color="#131664" />
        </linearGradient>
        <linearGradient id="paint4_linear_2322_92360" x1="65.9741" y1="159.014" x2="65.9741"
            y2="-47.7915" gradientUnits="userSpaceOnUse">
            <stop />
            <stop offset="0.213" stop-color="#000003" />
            <stop offset="0.41" stop-color="#02030E" />
            <stop offset="0.6" stop-color="#060721" />
            <stop offset="0.787" stop-color="#0B0D3B" />
            <stop offset="0.969" stop-color="#11145D" />
            <stop offset="1" stop-color="#131664" />
        </linearGradient>
        <linearGradient id="paint5_linear_2322_92360" x1="40.3335" y1="156.842" x2="40.3335"
            y2="-48.6602" gradientUnits="userSpaceOnUse">
            <stop />
            <stop offset="0.213" stop-color="#000003" />
            <stop offset="0.41" stop-color="#02030E" />
            <stop offset="0.6" stop-color="#060721" />
            <stop offset="0.787" stop-color="#0B0D3B" />
            <stop offset="0.969" stop-color="#11145D" />
            <stop offset="1" stop-color="#131664" />
        </linearGradient>
        <linearGradient id="paint6_linear_2322_92360" x1="73.8901" y1="104" x2="73.8902" y2="164"
            gradientUnits="userSpaceOnUse">
            <stop stop-color="#2D67D7" />
            <stop offset="0.992" stop-color="#29ADFB" />
        </linearGradient>
        <clipPath id="clip0_2322_92360">
            <rect width="124" height="124" rx="12" fill="white" />
        </clipPath>
        <clipPath id="clip1_2322_92360">
            <rect width="307" height="179" fill="white" transform="translate(-92)" />
        </clipPath>
    </defs>
</svg>
