<svg width="124" height="124" viewBox="0 0 124 124" fill="none" xmlns="http://www.w3.org/2000/svg">
<g clip-path="url(#clip0_2322_92361)">
<rect width="124" height="124" rx="12" fill="white"/>
<rect width="124" height="124" fill="#F0F5FF"/>
<g clip-path="url(#clip1_2322_92361)">
<rect x="-92" width="892" height="412" fill="url(#paint0_linear_2322_92361)"/>
<path style="mix-blend-mode:screen" fill-rule="evenodd" clip-rule="evenodd" d="M43.9028 -66.0391L-44.8486 146.415L67.2489 143.458L112.437 -66.0391H43.9028Z" fill="url(#paint1_linear_2322_92361)"/>
<path style="mix-blend-mode:screen" fill-rule="evenodd" clip-rule="evenodd" d="M60.7436 -63.4321L-16.2827 142.07H24.538L92.131 -63.4321H60.7436Z" fill="url(#paint2_linear_2322_92361)"/>
<path style="mix-blend-mode:screen" fill-rule="evenodd" clip-rule="evenodd" d="M46.7071 -59.9565L-30.3936 145.546L-23.4437 143.097L50.1423 -59.7682L46.7071 -59.9565Z" fill="url(#paint3_linear_2322_92361)"/>
<path style="mix-blend-mode:screen" fill-rule="evenodd" clip-rule="evenodd" d="M93.887 -47.7915L33.6221 158.974L38.3312 159.014L98.3261 -47.1263L93.887 -47.7915Z" fill="url(#paint4_linear_2322_92361)"/>
<path style="mix-blend-mode:screen" fill-rule="evenodd" clip-rule="evenodd" d="M63.0121 -48.6602L-8.71094 153.916L26.6809 156.842L89.3776 -45.883L63.0121 -48.6602Z" fill="url(#paint5_linear_2322_92361)"/>
<g style="mix-blend-mode:soft-light">
<path fill-rule="evenodd" clip-rule="evenodd" d="M1.48608 95.3983C1.48608 95.9516 1.13087 96.4004 0.692505 96.4004C0.25414 96.4004 -0.101074 95.9516 -0.101074 95.3983C-0.101074 94.8449 0.254409 94.3965 0.692505 94.3965C1.1306 94.3965 1.48608 94.8452 1.48608 95.3983Z" fill="white"/>
<path fill-rule="evenodd" clip-rule="evenodd" d="M47.3576 42.5459C47.7959 41.9925 48.5066 41.9925 48.945 42.5459C49.3834 43.0993 49.3834 43.9964 48.945 44.5498C48.5066 45.1032 47.7959 45.1032 47.3576 44.5498C46.9192 43.9964 46.9192 43.0993 47.3576 42.5459Z" fill="white"/>
<path fill-rule="evenodd" clip-rule="evenodd" d="M8.17789 25.8306C8.61626 25.2772 9.32695 25.2772 9.76532 25.8306C10.2037 26.3839 10.2037 27.2811 9.76532 27.8344C9.32695 28.3878 8.61626 28.3878 8.17789 27.8344C7.73953 27.2811 7.73953 26.3839 8.17789 25.8306Z" fill="white"/>
<path fill-rule="evenodd" clip-rule="evenodd" d="M40.2764 25.3755C40.5865 24.9842 41.0889 24.9842 41.3989 25.3755C41.7089 25.7669 41.7089 26.4011 41.3989 26.7924C41.0889 27.1838 40.5865 27.1838 40.2764 26.7924C39.9664 26.4011 39.9664 25.7669 40.2764 25.3755Z" fill="white"/>
<path fill-rule="evenodd" clip-rule="evenodd" d="M54.6822 64.7925C54.9922 64.4012 55.4946 64.4012 55.8046 64.7925C56.1146 65.1839 56.1146 65.8181 55.8046 66.2094C55.4946 66.6008 54.9922 66.6008 54.6822 66.2094C54.3722 65.8181 54.3722 65.1839 54.6822 64.7925Z" fill="white"/>
<path fill-rule="evenodd" clip-rule="evenodd" d="M18.439 39.459C18.749 39.0677 19.2514 39.0677 19.5615 39.459C19.8715 39.8504 19.8715 40.4846 19.5615 40.8759C19.2514 41.2673 18.749 41.2673 18.439 40.8759C18.129 40.4846 18.129 39.8504 18.439 39.459Z" fill="white"/>
<path fill-rule="evenodd" clip-rule="evenodd" d="M52.3329 78.4533C52.5605 78.1659 52.93 78.1659 53.1576 78.4533C53.3853 78.7407 53.3853 79.2071 53.1576 79.4945C52.93 79.7819 52.5605 79.7819 52.3329 79.4945C52.1052 79.2071 52.1052 78.7411 52.3329 78.4533Z" fill="white"/>
<path fill-rule="evenodd" clip-rule="evenodd" d="M43.278 45.2824C43.4242 45.0979 43.661 45.0979 43.8071 45.2824C43.9532 45.4668 43.9532 45.7658 43.8071 45.9502C43.661 46.1347 43.4242 46.1347 43.278 45.9502C43.1319 45.7658 43.1319 45.4668 43.278 45.2824Z" fill="white"/>
<path fill-rule="evenodd" clip-rule="evenodd" d="M56.1833 67.3551C56.3294 67.1707 56.5663 67.1707 56.7124 67.3551C56.8585 67.5396 56.8585 67.8385 56.7124 68.023C56.5663 68.2075 56.3294 68.2075 56.1833 68.023C56.0372 67.8385 56.0372 67.5396 56.1833 67.3551Z" fill="white"/>
<path fill-rule="evenodd" clip-rule="evenodd" d="M106.105 74.8102C106.251 74.6258 106.488 74.6258 106.634 74.8102C106.78 74.9947 106.78 75.2936 106.634 75.4781C106.488 75.6625 106.251 75.6625 106.105 75.4781C105.959 75.2936 105.959 74.9947 106.105 74.8102Z" fill="white"/>
<path fill-rule="evenodd" clip-rule="evenodd" d="M101.126 72.5324C101.272 72.3479 101.509 72.3479 101.655 72.5324C101.801 72.7168 101.801 73.0158 101.655 73.2002C101.509 73.3847 101.272 73.3847 101.126 73.2002C100.98 73.0158 100.98 72.7168 101.126 72.5324Z" fill="white"/>
<path fill-rule="evenodd" clip-rule="evenodd" d="M51.9416 60.9992C52.0145 60.9072 52.1332 60.9072 52.2061 60.9992C52.2793 61.0916 52.2793 61.2411 52.2061 61.3331C52.1332 61.4255 52.0145 61.4255 51.9416 61.3331C51.8684 61.2411 51.8684 61.0913 51.9416 60.9992Z" fill="white"/>
<path fill-rule="evenodd" clip-rule="evenodd" d="M66.5464 84.1455C66.6196 84.0531 66.738 84.0531 66.8109 84.1455C66.8838 84.2375 66.8838 84.3873 66.8109 84.4794C66.738 84.5715 66.6193 84.5715 66.5464 84.4794C66.4735 84.387 66.4735 84.2375 66.5464 84.1455Z" fill="white"/>
<path fill-rule="evenodd" clip-rule="evenodd" d="M3.69532 21.4672C3.76852 21.3748 3.88692 21.3748 3.95985 21.4672C4.03277 21.5596 4.03277 21.7091 3.95985 21.8012C3.88665 21.8932 3.76825 21.8932 3.69532 21.8012C3.62239 21.7088 3.62239 21.5593 3.69532 21.4672Z" fill="white"/>
<path fill-rule="evenodd" clip-rule="evenodd" d="M100.065 76.4064C100.138 76.3144 100.256 76.3144 100.329 76.4064C100.402 76.4985 100.402 76.6483 100.329 76.7404C100.256 76.8328 100.138 76.8328 100.065 76.7404C99.9915 76.6483 99.9915 76.4985 100.065 76.4064Z" fill="white"/>
<path fill-rule="evenodd" clip-rule="evenodd" d="M50.7927 64.9279C50.9388 64.7434 51.1756 64.7434 51.3217 64.9279C51.4679 65.1124 51.4679 65.4113 51.3217 65.5957C51.1756 65.7802 50.9388 65.7802 50.7927 65.5957C50.6466 65.4113 50.6466 65.1124 50.7927 64.9279Z" fill="white"/>
<path fill-rule="evenodd" clip-rule="evenodd" d="M62.6726 80.592C62.8187 80.4075 63.0555 80.4075 63.2016 80.592C63.3478 80.7764 63.3478 81.0754 63.2016 81.2598C63.0555 81.4443 62.8187 81.4443 62.6726 81.2598C62.5265 81.0754 62.5265 80.7764 62.6726 80.592Z" fill="white"/>
<path fill-rule="evenodd" clip-rule="evenodd" d="M53.6252 100.791C53.7713 100.606 54.0081 100.606 54.1543 100.791C54.3004 100.975 54.3004 101.274 54.1543 101.459C54.0081 101.643 53.7713 101.643 53.6252 101.459C53.4791 101.274 53.4791 100.975 53.6252 100.791Z" fill="white"/>
<path fill-rule="evenodd" clip-rule="evenodd" d="M38.6628 85.7565C38.8089 85.572 39.0457 85.572 39.1919 85.7565C39.338 85.941 39.338 86.2399 39.1919 86.4244C39.0457 86.6088 38.8089 86.6088 38.6628 86.4244C38.5167 86.2399 38.5167 85.941 38.6628 85.7565Z" fill="white"/>
<path fill-rule="evenodd" clip-rule="evenodd" d="M91.8786 68.376C92.3169 67.8226 93.0276 67.8226 93.466 68.376C93.9044 68.9293 93.9044 69.8265 93.466 70.3799C93.0276 70.9332 92.3169 70.9332 91.8786 70.3799C91.4402 69.8265 91.4402 68.9293 91.8786 68.376Z" fill="white"/>
<path fill-rule="evenodd" clip-rule="evenodd" d="M114.619 47.8555C115.057 47.3021 115.768 47.3021 116.206 47.8555C116.645 48.4088 116.645 49.306 116.206 49.8594C115.768 50.4127 115.057 50.4127 114.619 49.8594C114.18 49.306 114.18 48.4088 114.619 47.8555Z" fill="white"/>
<path fill-rule="evenodd" clip-rule="evenodd" d="M77.6584 88.331C78.0967 87.7777 78.8074 87.7777 79.2458 88.331C79.6841 88.8844 79.6841 89.7816 79.2458 90.335C78.8074 90.8883 78.0967 90.8883 77.6584 90.335C77.22 89.7816 77.22 88.8844 77.6584 88.331Z" fill="white"/>
<path fill-rule="evenodd" clip-rule="evenodd" d="M81.1374 103.066C81.5757 102.513 82.2864 102.513 82.7248 103.066C83.1632 103.62 83.1632 104.517 82.7248 105.07C82.2864 105.624 81.5757 105.624 81.1374 105.07C80.699 104.517 80.699 103.62 81.1374 103.066Z" fill="white"/>
<path fill-rule="evenodd" clip-rule="evenodd" d="M122.657 33.0035C122.967 32.6121 123.469 32.6121 123.779 33.0035C124.089 33.3948 124.089 34.029 123.779 34.4204C123.469 34.8117 122.967 34.8117 122.657 34.4204C122.347 34.029 122.347 33.3948 122.657 33.0035Z" fill="white"/>
<path fill-rule="evenodd" clip-rule="evenodd" d="M62.96 65.2896C63.27 64.8983 63.7724 64.8983 64.0824 65.2896C64.3925 65.6809 64.3925 66.3152 64.0824 66.7065C63.7724 67.0978 63.27 67.0978 62.96 66.7065C62.65 66.3152 62.65 65.6809 62.96 65.2896Z" fill="white"/>
<path fill-rule="evenodd" clip-rule="evenodd" d="M79.162 99.8786C79.3896 99.5912 79.7591 99.5912 79.9867 99.8786C80.2144 100.166 80.2144 100.632 79.9867 100.92C79.7591 101.207 79.3896 101.207 79.162 100.92C78.9343 100.632 78.9343 100.166 79.162 99.8786Z" fill="white"/>
<path fill-rule="evenodd" clip-rule="evenodd" d="M87.7995 71.113C87.9457 70.9285 88.1825 70.9285 88.3286 71.113C88.4747 71.2974 88.4747 71.5963 88.3286 71.7808C88.1825 71.9653 87.9457 71.9653 87.7995 71.7808C87.6534 71.5963 87.6534 71.2974 87.7995 71.113Z" fill="white"/>
<path fill-rule="evenodd" clip-rule="evenodd" d="M82.0031 99.3034C82.1493 99.1189 82.3861 99.1189 82.5322 99.3034C82.6783 99.4878 82.6783 99.7868 82.5322 99.9712C82.3861 100.156 82.1493 100.156 82.0031 99.9712C81.857 99.7868 81.857 99.4878 82.0031 99.3034Z" fill="white"/>
<path fill-rule="evenodd" clip-rule="evenodd" d="M1.93918 13.7643C2.0853 13.5799 2.32211 13.5799 2.46823 13.7643C2.61436 13.9488 2.61436 14.2477 2.46823 14.4322C2.32211 14.6166 2.0853 14.6166 1.93918 14.4322C1.79306 14.2477 1.79306 13.9488 1.93918 13.7643Z" fill="white"/>
<path fill-rule="evenodd" clip-rule="evenodd" d="M68.3752 89.7072C68.5213 89.5227 68.7581 89.5227 68.9043 89.7072C69.0504 89.8916 69.0504 90.1906 68.9043 90.375C68.7581 90.5595 68.5213 90.5595 68.3752 90.375C68.2291 90.1906 68.2291 89.8916 68.3752 89.7072Z" fill="white"/>
<path fill-rule="evenodd" clip-rule="evenodd" d="M66.9204 94.4897C66.9933 94.3973 67.112 94.3973 67.1849 94.4897C67.2579 94.5821 67.2579 94.7316 67.1849 94.8236C67.112 94.9157 66.9933 94.916 66.9204 94.8236C66.8475 94.7316 66.8475 94.5818 66.9204 94.4897Z" fill="white"/>
<path fill-rule="evenodd" clip-rule="evenodd" d="M72.0508 90.163C72.124 90.0707 72.2424 90.0707 72.3153 90.163C72.3885 90.2551 72.3885 90.4046 72.3153 90.497C72.2424 90.5894 72.1237 90.5894 72.0508 90.497C71.9779 90.4046 71.9779 90.2551 72.0508 90.163Z" fill="white"/>
<path fill-rule="evenodd" clip-rule="evenodd" d="M38.2336 48.4265C38.3065 48.3344 38.4252 48.3344 38.4981 48.4265C38.5713 48.5189 38.5713 48.6683 38.4981 48.7604C38.4252 48.8528 38.3065 48.8528 38.2336 48.7604C38.1604 48.6683 38.1604 48.5185 38.2336 48.4265Z" fill="white"/>
<path fill-rule="evenodd" clip-rule="evenodd" d="M80.6763 102.275C80.7495 102.183 80.8679 102.183 80.9408 102.275C81.0137 102.367 81.014 102.517 80.9408 102.609C80.8679 102.701 80.7492 102.701 80.6763 102.609C80.6034 102.517 80.6034 102.367 80.6763 102.275Z" fill="white"/>
<path fill-rule="evenodd" clip-rule="evenodd" d="M79.4424 98.7619C79.5156 98.6699 79.634 98.6699 79.7069 98.7619C79.7799 98.8543 79.7799 99.0038 79.7069 99.0959C79.6337 99.1879 79.5153 99.1879 79.4424 99.0959C79.3695 99.0038 79.3695 98.854 79.4424 98.7619Z" fill="white"/>
<path fill-rule="evenodd" clip-rule="evenodd" d="M72.4797 98.3586C72.6258 98.1741 72.8626 98.1741 73.0088 98.3586C73.1549 98.543 73.1549 98.842 73.0088 99.0264C72.8626 99.2109 72.6258 99.2109 72.4797 99.0264C72.3336 98.842 72.3336 98.543 72.4797 98.3586Z" fill="white"/>
<path fill-rule="evenodd" clip-rule="evenodd" d="M77.4392 98.8312C77.5853 98.6468 77.8221 98.6468 77.9682 98.8312C78.1144 99.0157 78.1144 99.3146 77.9682 99.499C77.8221 99.6835 77.5853 99.6835 77.4392 99.499C77.2931 99.3146 77.2931 99.0157 77.4392 98.8312Z" fill="white"/>
<path fill-rule="evenodd" clip-rule="evenodd" d="M5.76584 38.3366C5.91196 38.1521 6.14877 38.1521 6.29489 38.3366C6.44102 38.521 6.44102 38.82 6.29489 39.0044C6.14877 39.1889 5.91196 39.1889 5.76584 39.0044C5.61972 38.82 5.61972 38.521 5.76584 38.3366Z" fill="white"/>
<path fill-rule="evenodd" clip-rule="evenodd" d="M0.786349 36.0588C0.932471 35.8743 1.16928 35.8743 1.3154 36.0588C1.46152 36.2432 1.46152 36.5421 1.3154 36.7269C1.16928 36.9114 0.932471 36.9114 0.786349 36.7269C0.640227 36.5425 0.640227 36.2436 0.786349 36.0588Z" fill="white"/>
<path fill-rule="evenodd" clip-rule="evenodd" d="M-0.275182 39.9333C-0.202255 39.8412 -0.0835815 39.8412 -0.0106553 39.9333C0.0625401 40.0257 0.0625401 40.1752 -0.0106553 40.2672C-0.0835815 40.3596 -0.202255 40.3596 -0.275182 40.2672C-0.348377 40.1752 -0.348377 40.0254 -0.275182 39.9333Z" fill="white"/>
<path fill-rule="evenodd" clip-rule="evenodd" d="M18.1602 99.9307C18.4702 99.5394 18.9727 99.5394 19.2827 99.9307C19.5927 100.322 19.5927 100.956 19.2827 101.348C18.9727 101.739 18.4702 101.739 18.1602 101.348C17.8502 100.956 17.8502 100.322 18.1602 99.9307Z" fill="white"/>
<path fill-rule="evenodd" clip-rule="evenodd" d="M15.8109 113.592C16.0385 113.304 16.408 113.304 16.6357 113.592C16.8633 113.879 16.8633 114.345 16.6357 114.633C16.408 114.92 16.0385 114.92 15.8109 114.633C15.5832 114.345 15.5832 113.879 15.8109 113.592Z" fill="white"/>
<path fill-rule="evenodd" clip-rule="evenodd" d="M19.6609 102.493C19.807 102.309 20.0438 102.309 20.1899 102.493C20.336 102.678 20.336 102.977 20.1899 103.161C20.0438 103.346 19.807 103.346 19.6609 103.161C19.5147 102.977 19.5147 102.678 19.6609 102.493Z" fill="white"/>
<path fill-rule="evenodd" clip-rule="evenodd" d="M25.6037 94.3229C25.7499 94.1385 25.9867 94.1385 26.1328 94.3229C26.2789 94.5074 26.2789 94.8063 26.1328 94.9908C25.9867 95.1752 25.7499 95.1752 25.6037 94.9908C25.4576 94.8063 25.4576 94.5074 25.6037 94.3229Z" fill="white"/>
<path fill-rule="evenodd" clip-rule="evenodd" d="M7.5842 29.4992C7.73032 29.3147 7.96713 29.3147 8.11325 29.4992C8.25937 29.6836 8.25937 29.9826 8.11325 30.167C7.96713 30.3515 7.73032 30.3515 7.5842 30.167C7.43808 29.9826 7.43808 29.6836 7.5842 29.4992Z" fill="white"/>
<path fill-rule="evenodd" clip-rule="evenodd" d="M20.6247 92.0446C20.7708 91.8601 21.0076 91.8601 21.1538 92.0446C21.2999 92.2291 21.2999 92.528 21.1538 92.7124C21.0076 92.8969 20.7708 92.8969 20.6247 92.7124C20.4786 92.528 20.4786 92.2291 20.6247 92.0446Z" fill="white"/>
<path fill-rule="evenodd" clip-rule="evenodd" d="M15.4194 96.1369C15.4926 96.0449 15.611 96.0449 15.684 96.1369C15.7572 96.2293 15.7572 96.3788 15.684 96.4709C15.611 96.5633 15.4924 96.5633 15.4194 96.4709C15.3465 96.3785 15.3465 96.2293 15.4194 96.1369Z" fill="white"/>
<path fill-rule="evenodd" clip-rule="evenodd" d="M8.26124 115.57C8.33416 115.477 8.45284 115.477 8.52576 115.57C8.59869 115.662 8.59869 115.811 8.52576 115.903C8.45257 115.996 8.33416 115.996 8.26124 115.903C8.18831 115.811 8.18831 115.662 8.26124 115.57Z" fill="white"/>
<path fill-rule="evenodd" clip-rule="evenodd" d="M30.0239 119.284C30.0969 119.191 30.2155 119.191 30.2885 119.284C30.3614 119.376 30.3614 119.526 30.2885 119.618C30.2153 119.71 30.0969 119.71 30.0239 119.618C29.951 119.526 29.951 119.376 30.0239 119.284Z" fill="white"/>
<path fill-rule="evenodd" clip-rule="evenodd" d="M19.563 95.9196C19.6362 95.8276 19.7546 95.8276 19.8275 95.9196C19.9005 96.0117 19.9007 96.1615 19.8275 96.2536C19.7543 96.3456 19.6359 96.3456 19.563 96.2536C19.4901 96.1612 19.4901 96.0117 19.563 95.9196Z" fill="white"/>
<path fill-rule="evenodd" clip-rule="evenodd" d="M14.2702 100.066C14.4164 99.8811 14.6532 99.8811 14.7993 100.066C14.9454 100.25 14.9454 100.549 14.7993 100.733C14.6532 100.918 14.4164 100.918 14.2702 100.733C14.1241 100.549 14.1241 100.25 14.2702 100.066Z" fill="white"/>
<path fill-rule="evenodd" clip-rule="evenodd" d="M26.1506 115.73C26.2967 115.546 26.5335 115.546 26.6797 115.73C26.8258 115.915 26.8258 116.214 26.6797 116.398C26.5335 116.582 26.2967 116.582 26.1506 116.398C26.0045 116.214 26.0045 115.915 26.1506 115.73Z" fill="white"/>
<path fill-rule="evenodd" clip-rule="evenodd" d="M121.813 9.48405C121.959 9.29959 122.196 9.29959 122.342 9.48405C122.488 9.6685 122.488 9.96744 122.342 10.1519C122.196 10.3364 121.959 10.3364 121.813 10.1519C121.667 9.96744 121.667 9.6685 121.813 9.48405Z" fill="white"/>
<path fill-rule="evenodd" clip-rule="evenodd" d="M83.1838 111.587C83.3299 111.402 83.5667 111.402 83.7129 111.587C83.859 111.771 83.859 112.07 83.7129 112.254C83.5667 112.439 83.3299 112.439 83.1838 112.254C83.0377 112.07 83.0377 111.771 83.1838 111.587Z" fill="white"/>
<path fill-rule="evenodd" clip-rule="evenodd" d="M37.8879 16.0762C38.3262 15.5228 39.0369 15.5228 39.4753 16.0762C39.9136 16.6295 39.9136 17.5267 39.4753 18.0801C39.0369 18.6334 38.3262 18.6334 37.8879 18.0801C37.4495 17.5267 37.4495 16.6295 37.8879 16.0762Z" fill="white"/>
<path fill-rule="evenodd" clip-rule="evenodd" d="M55.9537 3.63286C56.2637 3.24152 56.7661 3.24152 57.0761 3.63286C57.3861 4.02419 57.3861 4.65841 57.0761 5.04975C56.7661 5.44108 56.2637 5.44108 55.9537 5.04975C55.6437 4.65841 55.6437 4.02419 55.9537 3.63286Z" fill="white"/>
<path fill-rule="evenodd" clip-rule="evenodd" d="M53.6048 17.2937C53.8325 17.0063 54.202 17.0063 54.4296 17.2937C54.6573 17.5811 54.6573 18.0475 54.4296 18.3349C54.202 18.6222 53.8325 18.6222 53.6048 18.3349C53.3772 18.0475 53.3772 17.5811 53.6048 17.2937Z" fill="white"/>
<path fill-rule="evenodd" clip-rule="evenodd" d="M58.2704 31.7038C58.498 31.4164 58.8675 31.4164 59.0951 31.7038C59.3228 31.9912 59.3228 32.4573 59.0951 32.745C58.8675 33.0324 58.498 33.0324 58.2704 32.745C58.0427 32.4576 58.0427 31.9915 58.2704 31.7038Z" fill="white"/>
<path fill-rule="evenodd" clip-rule="evenodd" d="M57.4548 6.19547C57.6009 6.01101 57.8377 6.01101 57.9839 6.19547C58.13 6.37993 58.13 6.67887 57.9839 6.86333C57.8377 7.04778 57.6009 7.04778 57.4548 6.86333C57.3087 6.67887 57.3087 6.37993 57.4548 6.19547Z" fill="white"/>
<path fill-rule="evenodd" clip-rule="evenodd" d="M38.7536 12.3127C38.8998 12.1282 39.1366 12.1282 39.2827 12.3127C39.4288 12.4971 39.4288 12.7961 39.2827 12.9805C39.1366 13.165 38.8998 13.165 38.7536 12.9805C38.6075 12.7961 38.6075 12.4971 38.7536 12.3127Z" fill="white"/>
<path fill-rule="evenodd" clip-rule="evenodd" d="M80.4973 2.00895C80.6434 1.82449 80.8802 1.82449 81.0263 2.00895C81.1725 2.19341 81.1725 2.49234 81.0263 2.6768C80.8802 2.86126 80.6434 2.86126 80.4973 2.6768C80.3512 2.49234 80.3512 2.19341 80.4973 2.00895Z" fill="white"/>
<path fill-rule="evenodd" clip-rule="evenodd" d="M53.2134 -0.160681C53.2863 -0.25308 53.405 -0.25308 53.4779 -0.160681C53.5508 -0.0682827 53.5508 0.0811863 53.4779 0.173245C53.405 0.265304 53.2863 0.265644 53.2134 0.173245C53.1405 0.0811863 53.1405 -0.0686225 53.2134 -0.160681Z" fill="white"/>
<path fill-rule="evenodd" clip-rule="evenodd" d="M67.8176 22.986C67.8905 22.894 68.0092 22.894 68.0821 22.986C68.1553 23.0781 68.1553 23.2279 68.0821 23.32C68.0089 23.412 67.8905 23.412 67.8176 23.32C67.7444 23.2276 67.7444 23.0781 67.8176 22.986Z" fill="white"/>
<path fill-rule="evenodd" clip-rule="evenodd" d="M111.984 55.1875C112.057 55.0951 112.175 55.0951 112.248 55.1875C112.322 55.2795 112.322 55.4293 112.248 55.5214C112.175 55.6138 112.057 55.6138 111.984 55.5214C111.911 55.429 111.911 55.2795 111.984 55.1875Z" fill="white"/>
<path fill-rule="evenodd" clip-rule="evenodd" d="M104.849 55.4233C104.922 55.3309 105.04 55.3309 105.113 55.4233C105.187 55.5154 105.187 55.6652 105.113 55.7572C105.04 55.8496 104.922 55.8496 104.849 55.7572C104.776 55.6652 104.776 55.5154 104.849 55.4233Z" fill="white"/>
<path fill-rule="evenodd" clip-rule="evenodd" d="M60.6823 36.6899C60.7553 36.5975 60.8739 36.5975 60.9469 36.6899C61.0201 36.782 61.0201 36.9318 60.9469 37.0238C60.8739 37.1162 60.7553 37.1162 60.6823 37.0238C60.6091 36.9318 60.6091 36.782 60.6823 36.6899Z" fill="white"/>
<path fill-rule="evenodd" clip-rule="evenodd" d="M57.3569 -0.378455C57.4299 -0.470854 57.5485 -0.470854 57.6215 -0.378455C57.6944 -0.286056 57.6944 -0.136587 57.6215 -0.0445281C57.5485 0.0475309 57.4299 0.0478706 57.3569 -0.0445281C57.284 -0.136587 57.284 -0.286396 57.3569 -0.378455Z" fill="white"/>
<path fill-rule="evenodd" clip-rule="evenodd" d="M52.0642 3.76774C52.2103 3.58328 52.4471 3.58328 52.5932 3.76774C52.7394 3.9522 52.7394 4.25113 52.5932 4.43559C52.4471 4.62005 52.2103 4.62005 52.0642 4.43559C51.9181 4.25113 51.9181 3.9522 52.0642 3.76774Z" fill="white"/>
<path fill-rule="evenodd" clip-rule="evenodd" d="M63.9441 19.4323C64.0902 19.2478 64.327 19.2478 64.4731 19.4323C64.6192 19.6167 64.6192 19.9157 64.4731 20.1001C64.327 20.2846 64.0902 20.2846 63.9441 20.1001C63.7979 19.9157 63.7979 19.6167 63.9441 19.4323Z" fill="white"/>
<path fill-rule="evenodd" clip-rule="evenodd" d="M98.9807 19.9045C99.1268 19.72 99.3636 19.72 99.5097 19.9045C99.6559 20.0889 99.6559 20.3879 99.5097 20.5723C99.3636 20.7568 99.1268 20.7568 98.9807 20.5723C98.8346 20.3879 98.8346 20.0889 98.9807 19.9045Z" fill="white"/>
<path fill-rule="evenodd" clip-rule="evenodd" d="M48.0359 36.2868C48.182 36.1023 48.4188 36.1023 48.5649 36.2868C48.711 36.4712 48.711 36.7702 48.5649 36.9546C48.4188 37.1391 48.182 37.1391 48.0359 36.9546C47.8897 36.7702 47.8897 36.4712 48.0359 36.2868Z" fill="white"/>
<path fill-rule="evenodd" clip-rule="evenodd" d="M54.8967 39.631C55.0428 39.4466 55.2796 39.4466 55.4258 39.631C55.5719 39.8155 55.5719 40.1144 55.4258 40.2989C55.2796 40.4833 55.0428 40.4833 54.8967 40.2989C54.7506 40.1144 54.7506 39.8155 54.8967 39.631Z" fill="white"/>
<path fill-rule="evenodd" clip-rule="evenodd" d="M104.155 76.5675C104.301 76.3831 104.538 76.3831 104.684 76.5675C104.83 76.752 104.83 77.0509 104.684 77.2354C104.538 77.4199 104.301 77.4199 104.155 77.2354C104.009 77.0509 104.009 76.752 104.155 76.5675Z" fill="white"/>
<path fill-rule="evenodd" clip-rule="evenodd" d="M39.9348 24.5964C40.0809 24.4119 40.3177 24.4119 40.4638 24.5964C40.61 24.7808 40.61 25.0797 40.4638 25.2642C40.3177 25.4487 40.0809 25.4487 39.9348 25.2642C39.7887 25.0797 39.7887 24.7808 39.9348 24.5964Z" fill="white"/>
</g>
<path d="M215 104H-92V179H215V104Z" fill="url(#paint6_linear_2322_92361)"/>
<path fill-rule="evenodd" clip-rule="evenodd" d="M50.6386 8.75263C50.9735 7.97374 51.0227 7.8329 51.4985 7.68438C51.8043 7.58914 52.1106 7.54475 52.4164 7.44628C52.9941 7.26064 53.6179 7.49027 54.0248 8.29781C54.3149 8.8733 54.3556 9.69981 54.1187 10.3976C53.8591 11.1631 53.0932 11.4795 52.6516 11.6434C52.1639 11.8246 51.5916 11.6942 51.1152 11.5126C50.8003 11.3928 50.3357 11.3645 50.1805 10.7301C50.0444 10.174 50.283 8.05849 50.7593 8.30184L50.6386 8.75263Z" fill="#95B6F7"/>
<path fill-rule="evenodd" clip-rule="evenodd" d="M61.0495 40.275C61.3558 40.1391 62.2567 39.5421 62.4946 40.5225C62.5495 40.7492 62.5363 41.4807 62.5071 41.7063C62.4257 42.335 62.262 42.201 62.056 42.3457C61.8836 42.4667 61.9112 42.63 61.7019 42.5611C61.5263 42.5034 61.2654 42.3331 61.1145 42.0972C60.932 41.8124 60.5835 40.7459 61.028 40.7454L61.0495 40.5351V40.275Z" fill="#66A1F7"/>
</g>
<path d="M46.0259 51.2988C45.7705 51.5693 48.9292 51.1852 49.2714 52.5722C49.6139 53.9591 48.1137 55.1197 48.1137 55.1197L56.2925 54.949C56.2925 54.949 50.4119 52.2749 54.2256 51.1896C54.2256 51.1896 48.2351 48.9589 46.0259 51.2988Z" fill="#EC7E1C"/>
<path d="M49.1866 73.7339C48.8716 73.4726 52.1233 73.6051 52.1655 72.1244C52.2076 70.6437 50.4511 69.5568 50.4511 69.5568L58.6924 69.0385C58.6924 69.0385 53.3744 72.3387 57.4354 73.1494C57.4354 73.1494 51.9104 75.9947 49.1866 73.7339Z" fill="#EC7E1C"/>
<path d="M17.8173 69.4368C19.443 69.4368 20.761 68.1188 20.761 66.493C20.761 64.8673 19.443 63.5493 17.8173 63.5493C16.1915 63.5493 14.8735 64.8673 14.8735 66.493C14.8735 68.1188 16.1915 69.4368 17.8173 69.4368Z" fill="#55A7F9"/>
<path d="M17.9012 64.2312C17.9008 64.2683 17.8589 64.3056 17.7872 64.3409C17.7513 64.3585 17.7079 64.3758 17.6582 64.3921C17.6335 64.4009 17.6067 64.4068 17.5793 64.4174C17.5521 64.4285 17.5233 64.4396 17.4933 64.4506C17.4337 64.4738 17.3673 64.4905 17.2997 64.5172C17.2328 64.5466 17.1615 64.5746 17.0871 64.6028C17.0167 64.641 16.9405 64.6739 16.865 64.7137C16.8285 64.7362 16.7912 64.7583 16.753 64.7803C16.7339 64.7912 16.7147 64.8022 16.6954 64.8132L16.6406 64.8525C16.6033 64.878 16.5665 64.9032 16.5301 64.9282C16.4963 64.9564 16.4625 64.9839 16.4287 65.0105C16.412 65.0239 16.3945 65.0363 16.3786 65.0501C16.3631 65.0645 16.3477 65.0788 16.3325 65.0929C16.3015 65.1208 16.2712 65.1481 16.2414 65.175C16.1279 65.2881 16.026 65.3953 15.9431 65.4914C15.7744 65.6818 15.6666 65.812 15.5947 65.79C15.5245 65.7698 15.5098 65.5747 15.6149 65.2992C15.6661 65.1611 15.7519 65.0065 15.8692 64.8478C15.8993 64.8088 15.9333 64.7712 15.9671 64.7318C15.9844 64.7124 16.0018 64.6928 16.0193 64.673C16.0376 64.6539 16.0579 64.6363 16.0776 64.6177C16.118 64.5813 16.1589 64.5444 16.2004 64.507C16.2452 64.4733 16.2919 64.4405 16.3392 64.4073C16.3629 64.3909 16.3865 64.3747 16.4099 64.3585C16.4345 64.3441 16.4597 64.3312 16.4844 64.3178C16.5341 64.292 16.5833 64.2666 16.6317 64.2416C16.7309 64.1979 16.8311 64.1667 16.9246 64.1349C17.0211 64.1134 17.1134 64.0969 17.1991 64.083C17.2852 64.0718 17.3667 64.0749 17.4396 64.0742C17.4763 64.0747 17.511 64.0756 17.5436 64.0773C17.5763 64.0796 17.6072 64.0871 17.6358 64.0924C17.6931 64.1042 17.7419 64.1174 17.7814 64.1318C17.8604 64.1607 17.9018 64.1943 17.9013 64.2314L17.9012 64.2312Z" fill="#88C0F8"/>
<path d="M13.1694 63.2397C14.2818 63.2397 15.1835 62.3379 15.1835 61.2255C15.1835 60.1132 14.2818 59.2114 13.1694 59.2114C12.057 59.2114 11.1553 60.1132 11.1553 61.2255C11.1553 62.3379 12.057 63.2397 13.1694 63.2397Z" fill="#55A7F9"/>
<path d="M13.2266 59.6777C13.2262 59.7031 13.1976 59.7286 13.1485 59.7528C13.124 59.7649 13.0943 59.7766 13.0603 59.7878C13.0434 59.7938 13.0251 59.7979 13.0063 59.8051C12.9877 59.8127 12.968 59.8203 12.9475 59.8278C12.9067 59.8437 12.8613 59.8551 12.815 59.8734C12.7692 59.8935 12.7205 59.9127 12.6695 59.932C12.6213 59.9581 12.5692 59.9806 12.5176 60.0079C12.4926 60.0233 12.4671 60.0384 12.441 60.0534C12.4279 60.0609 12.4147 60.0684 12.4016 60.076L12.364 60.1028C12.3385 60.1203 12.3133 60.1375 12.2885 60.1546C12.2653 60.1739 12.2422 60.1927 12.219 60.2109C12.2076 60.2201 12.1957 60.2286 12.1847 60.238C12.1741 60.2479 12.1636 60.2576 12.1532 60.2673C12.132 60.2864 12.1113 60.3051 12.0909 60.3235C12.0133 60.4009 11.9435 60.4742 11.8868 60.54C11.7714 60.6703 11.6976 60.7593 11.6484 60.7442C11.6004 60.7305 11.5903 60.5969 11.6623 60.4084C11.6973 60.3139 11.756 60.2082 11.8362 60.0996C11.8569 60.0729 11.8801 60.0472 11.9032 60.0203C11.9151 60.007 11.927 59.9935 11.9389 59.98C11.9515 59.967 11.9653 59.9549 11.9788 59.9422C12.0064 59.9173 12.0344 59.892 12.0629 59.8664C12.0935 59.8434 12.1255 59.8209 12.1578 59.7982C12.174 59.787 12.1902 59.7759 12.2062 59.7649C12.223 59.755 12.2403 59.7461 12.2572 59.737C12.2912 59.7193 12.3248 59.702 12.3579 59.6848C12.4258 59.6549 12.4944 59.6336 12.5583 59.6119C12.6244 59.5971 12.6875 59.5858 12.7462 59.5763C12.8051 59.5687 12.8608 59.5708 12.9107 59.5703C12.9358 59.5706 12.9595 59.5713 12.9819 59.5724C13.0043 59.574 13.0254 59.5792 13.0449 59.5828C13.0842 59.5908 13.1175 59.5998 13.1446 59.6097C13.1986 59.6295 13.227 59.6525 13.2266 59.6779L13.2266 59.6777Z" fill="#88C0F8"/>
<path d="M3.95428 65.3784C4.69814 64.6584 4.71748 63.4716 3.99747 62.7278C3.27746 61.9839 2.09075 61.9646 1.34689 62.6846C0.603023 63.4046 0.583682 64.5913 1.30369 65.3352C2.0237 66.079 3.21041 66.0984 3.95428 65.3784Z" fill="#55A7F9"/>
<path d="M1.68743 62.9593C1.70365 62.9765 1.70099 63.0121 1.68382 63.06C1.67524 63.0839 1.663 63.111 1.6475 63.1405C1.64011 63.1555 1.63044 63.17 1.62261 63.187C1.61506 63.2042 1.60683 63.222 1.59793 63.2403C1.58099 63.2773 1.55798 63.3144 1.53886 63.3566C1.52126 63.3996 1.50107 63.444 1.47952 63.4899C1.46419 63.5385 1.44392 63.5873 1.42702 63.639C1.42029 63.6654 1.41299 63.6921 1.40524 63.719C1.40137 63.7325 1.39741 63.746 1.3935 63.7596L1.38578 63.8018C1.38002 63.83 1.37435 63.8579 1.36876 63.8854C1.36578 63.9133 1.36248 63.9409 1.35878 63.968C1.35712 63.9815 1.35461 63.9949 1.35343 64.0083C1.35269 64.0218 1.35199 64.0351 1.35129 64.0483C1.34946 64.0748 1.34771 64.1007 1.34597 64.1262C1.34414 64.2282 1.34498 64.3224 1.34961 64.4031C1.35677 64.5649 1.36505 64.6722 1.32242 64.694C1.28139 64.7158 1.18823 64.6331 1.11431 64.4605C1.07657 64.3746 1.04734 64.2659 1.03074 64.1413C1.02728 64.1101 1.02615 64.0779 1.0242 64.0449C1.02351 64.0284 1.02278 64.0117 1.02201 63.9949C1.02196 63.978 1.0234 63.961 1.0242 63.9438C1.02657 63.9093 1.02895 63.8742 1.03138 63.8387C1.03693 63.8035 1.04378 63.7678 1.05071 63.7317C1.0543 63.7137 1.05792 63.6958 1.0615 63.678C1.06632 63.6605 1.07214 63.6434 1.07752 63.6264C1.08887 63.5926 1.10009 63.5592 1.11115 63.5263C1.1372 63.4623 1.16924 63.4037 1.19793 63.3478C1.23255 63.2951 1.26747 63.2467 1.30052 63.2024C1.33499 63.1592 1.37365 63.1245 1.40671 63.0919C1.42367 63.0759 1.43997 63.0609 1.45565 63.0473C1.47161 63.0338 1.48908 63.0236 1.50451 63.0133C1.53595 62.9933 1.56411 62.9778 1.58858 62.9669C1.63752 62.9451 1.67137 62.9421 1.68755 62.9593L1.68743 62.9593Z" fill="#88C0F8"/>
<path d="M7.72888 66.5902C7.89032 67.2621 8.56585 67.6759 9.23772 67.5144C9.90959 67.353 10.3234 66.6775 10.1619 66.0056C10.0005 65.3337 9.32497 64.9199 8.6531 65.0814C7.98124 65.2428 7.56745 65.9183 7.72888 66.5902Z" fill="#55A7F9"/>
<path d="M9.88891 66.108C9.87354 66.1115 9.85398 66.0979 9.83227 66.0717C9.82141 66.0587 9.80999 66.0425 9.79832 66.0235C9.79222 66.0142 9.78712 66.0037 9.78002 65.9935C9.7727 65.9833 9.76528 65.9725 9.75777 65.9612C9.74224 65.9389 9.72875 65.9131 9.71098 65.8878C9.69222 65.8631 9.67357 65.8364 9.6545 65.8084C9.63174 65.7831 9.61058 65.7549 9.58661 65.7277C9.57371 65.7148 9.56086 65.7016 9.548 65.688C9.54158 65.6812 9.53513 65.6743 9.52865 65.6675L9.507 65.6487C9.49276 65.6358 9.47867 65.6231 9.46474 65.6106C9.4497 65.5994 9.435 65.5881 9.42066 65.5768C9.41344 65.5713 9.40659 65.5653 9.39929 65.5601C9.39182 65.5551 9.3844 65.5501 9.37703 65.5453C9.36246 65.5352 9.34814 65.5254 9.33404 65.5158C9.27606 65.4801 9.22165 65.4486 9.1737 65.4239C9.07825 65.3731 9.01374 65.3415 9.01571 65.3096C9.01707 65.2786 9.09626 65.2531 9.22055 65.2692C9.28271 65.2766 9.35511 65.2967 9.43235 65.3295C9.45144 65.338 9.47037 65.3483 9.48997 65.3584C9.49972 65.3636 9.50955 65.3689 9.51947 65.3741C9.52918 65.3798 9.53848 65.3864 9.5481 65.3927C9.56714 65.4058 9.58646 65.4191 9.60606 65.4325C9.62444 65.4477 9.64263 65.4637 9.66103 65.4799C9.67017 65.4881 9.67922 65.4963 9.68821 65.5043C9.69662 65.513 9.70447 65.5222 9.71245 65.5311C9.72804 65.5491 9.74341 65.5668 9.75857 65.5844C9.78648 65.621 9.80933 65.6594 9.83173 65.6948C9.85023 65.7326 9.86621 65.7691 9.88046 65.8031C9.89362 65.8376 9.90043 65.8716 9.90796 65.9016C9.91142 65.9168 9.91446 65.9313 9.917 65.9449C9.91932 65.9587 9.91926 65.9722 9.91992 65.9845C9.92075 66.0094 9.92014 66.0308 9.91809 66.0486C9.914 66.0841 9.90423 66.1046 9.88885 66.108L9.88891 66.108Z" fill="#88C0F8"/>
<path d="M1.79622 68.4791C1.93251 69.0463 2.50282 69.3956 3.07003 69.2593C3.63725 69.1231 3.98658 68.5527 3.85029 67.9855C3.714 67.4183 3.1437 67.069 2.57648 67.2053C2.00927 67.3416 1.65993 67.9119 1.79622 68.4791Z" fill="#55A7F9"/>
<path d="M3.61932 68.0717C3.60634 68.0746 3.58982 68.0631 3.5715 68.0411C3.56233 68.03 3.55269 68.0163 3.54283 68.0004C3.53768 67.9925 3.53338 67.9836 3.52739 67.975C3.52121 67.9664 3.51495 67.9573 3.5086 67.9477C3.49549 67.9289 3.48411 67.9071 3.4691 67.8858C3.45326 67.8649 3.43752 67.8424 3.42142 67.8188C3.4022 67.7974 3.38434 67.7736 3.36411 67.7506C3.35321 67.7398 3.34236 67.7286 3.33151 67.7171C3.32609 67.7114 3.32065 67.7056 3.31517 67.6998L3.29689 67.6839C3.28487 67.6731 3.27298 67.6623 3.26122 67.6517C3.24852 67.6423 3.23611 67.6328 3.22401 67.6232C3.21791 67.6185 3.21212 67.6135 3.20596 67.6091C3.19965 67.6049 3.19339 67.6007 3.18717 67.5966C3.17487 67.5881 3.16278 67.5798 3.15088 67.5717C3.10193 67.5416 3.056 67.515 3.01551 67.4941C2.93493 67.4513 2.88047 67.4245 2.88213 67.3976C2.88328 67.3714 2.95013 67.35 3.05507 67.3635C3.10754 67.3698 3.16867 67.3868 3.23387 67.4144C3.24999 67.4217 3.26597 67.4304 3.28252 67.4388C3.29075 67.4432 3.29905 67.4477 3.30742 67.4521C3.31562 67.4569 3.32347 67.4625 3.33159 67.4678C3.34767 67.4789 3.36398 67.49 3.38053 67.5014C3.39604 67.5142 3.4114 67.5277 3.42693 67.5414C3.43465 67.5483 3.44229 67.5552 3.44988 67.5621C3.45698 67.5694 3.4636 67.5771 3.47034 67.5846C3.4835 67.5998 3.49648 67.6148 3.50928 67.6296C3.53284 67.6606 3.55213 67.6929 3.57104 67.7229C3.58666 67.7547 3.60015 67.7855 3.61219 67.8143C3.6233 67.8434 3.62904 67.8721 3.6354 67.8975C3.63832 67.9103 3.64088 67.9225 3.64303 67.934C3.64499 67.9456 3.64494 67.957 3.6455 67.9674C3.6462 67.9884 3.64568 68.0065 3.64396 68.0215C3.6405 68.0515 3.63225 68.0688 3.61926 68.0717L3.61932 68.0717Z" fill="#88C0F8"/>
<path d="M26.0231 62.6196H39.3586C39.6977 62.6196 39.9727 62.8971 39.9727 63.2394C39.9727 63.5816 39.6977 63.8591 39.3586 63.8591H26.0231C25.6839 63.8591 25.409 63.5816 25.409 63.2394C25.409 62.8971 25.6839 62.6196 26.0231 62.6196Z" fill="#DD761A"/>
<path d="M30.157 60.4507H31.5059C31.7324 60.4507 31.916 60.6197 31.916 60.8283V65.6507C31.916 65.8592 31.7324 66.0283 31.5059 66.0283H30.157C29.9306 66.0283 29.747 65.8592 29.747 65.6507V60.8283C29.747 60.6197 29.9306 60.4507 30.157 60.4507Z" fill="#F7D41E"/>
<path d="M31.6309 59.8311H33.7506C34.1065 59.8311 34.395 60.0377 34.395 60.2925V66.1866C34.395 66.4415 34.1065 66.6481 33.7506 66.6481H31.6309C31.275 66.6481 30.9865 66.4415 30.9865 66.1866V60.2925C30.9865 60.0377 31.275 59.8311 31.6309 59.8311Z" fill="#F7D41E"/>
<path d="M23.8597 57.9557C23.8597 56.9379 24.6921 56.1128 25.7189 56.1128C26.7457 56.1128 27.5781 56.9379 27.5781 57.9557C27.5781 58.775 27.0385 61.8974 26.2926 63.0848C27.0386 64.2721 27.5781 67.3945 27.5781 68.2138C27.5781 69.2316 26.7457 70.0567 25.7189 70.0567C24.6921 70.0567 23.8597 69.2316 23.8597 68.2138C23.8597 67.3945 24.3993 64.2721 25.1452 63.0848C24.3992 61.8974 23.8597 58.775 23.8597 57.9557Z" fill="#F7D41E"/>
<path d="M33.044 60.5962C33.044 60.5962 34.27 56.4368 32.7457 53.4829C32.0938 52.2195 31.5372 51.3824 31.1135 50.8385C30.8135 50.4529 31.1136 49.8945 31.6009 49.9301C32.9607 50.0294 35.0118 50.3948 36.2776 51.6354C38.3018 53.6202 39.2498 54.6048 42.2233 53.8513C45.1967 53.0978 35.4562 60.8437 33.044 60.5962Z" fill="#EC923A"/>
<path d="M33.1412 64.4652C33.1412 64.4652 34.5753 68.5576 33.2019 71.5846C32.6142 72.8792 32.1006 73.7434 31.7051 74.308C31.4247 74.7084 31.7527 75.2507 32.2376 75.1905C33.5909 75.0227 35.6208 74.5547 36.8224 73.2517C38.7441 71.1673 39.6412 70.1362 42.6487 70.7389C45.6561 71.3418 35.5382 64.0963 33.1412 64.4652Z" fill="#EC923A"/>
<path d="M38.1458 63.5068C41.8406 66.9535 63.137 70.5993 70.4159 64.8499C71.0009 63.8473 71.3054 62.7855 71.2777 61.6917C71.1364 56.0913 62.3853 51.769 51.7316 52.0376C46.1152 52.1791 41.0919 53.5686 37.6172 55.6711C36.4569 58.0023 35.664 61.1914 38.1458 63.5068Z" fill="#FD9D3F"/>
<path d="M70.416 64.8495C63.1368 70.5989 41.8407 66.9531 38.1459 63.5065C35.6641 61.1911 36.4573 58.0023 37.6176 55.6709C34.5013 57.5568 32.6303 60.0158 32.6969 62.664C32.8382 68.2644 41.5893 72.5867 52.243 72.3181C60.8156 72.1019 68.0065 68.979 70.416 64.8495Z" fill="#DD761A"/>
<path fill-rule="evenodd" clip-rule="evenodd" d="M53.8778 50.3159C50.6387 50.4034 47.3993 50.4905 44.1599 50.5782C44.432 51.1767 44.8398 51.5775 45.2961 51.6359L53.91 51.4336C54.8733 51.4099 55.6553 51.4538 56.4069 51.2199C56.4217 51.2153 56.4366 51.2107 56.4512 51.2057C57.1822 50.9673 58.8106 49.7269 59.2703 49.0435C59.4055 48.843 59.4736 48.6542 59.4708 48.4843C59.4713 48.5854 59.4002 48.6986 59.264 48.8198C58.7968 49.2351 57.1543 49.9984 56.4213 50.1503C55.6536 50.3091 54.8602 50.2897 53.878 50.3162L53.8778 50.3159Z" fill="#EE7E1E" style="mix-blend-mode:multiply"/>
<path fill-rule="evenodd" clip-rule="evenodd" d="M45.039 47.5343L45.0067 46.7985L45.0068 46.7979C44.7561 46.8359 44.4907 46.8867 44.2313 46.9441C43.9749 47.0011 43.7226 47.0651 43.4932 47.1304C43.2228 47.2069 42.9934 47.4614 42.8377 47.8201C42.6832 48.1759 42.6007 48.6388 42.6226 49.138C42.6446 49.6371 42.7675 50.0892 42.9525 50.4304C43.1388 50.774 43.3899 51.0076 43.6657 51.0604C43.8998 51.1056 44.1567 51.1467 44.4174 51.1806C44.6811 51.2151 44.9495 51.2428 45.2029 51.2596L45.1389 49.8011L45.1049 49.0281C45.0828 48.5304 45.0609 48.0322 45.039 47.5343Z" fill="#FD9D3F" style="mix-blend-mode:screen"/>
<path fill-rule="evenodd" clip-rule="evenodd" d="M44.3392 46.9213C43.8978 47.3707 43.5821 48.1876 43.5334 49.0984C43.4881 49.9465 43.6836 50.6928 44.0302 51.1246C44.157 51.1448 44.2871 51.1636 44.4183 51.181C44.6817 51.2157 44.9504 51.2431 45.2038 51.26C45.171 50.5157 45.1384 49.7718 45.1058 49.0285C45.0732 48.2852 45.0403 47.5415 45.0075 46.7988C44.7913 46.8312 44.5644 46.8737 44.3398 46.9214L44.3392 46.9213Z" fill="#CA670F" style="mix-blend-mode:multiply"/>
<path fill-rule="evenodd" clip-rule="evenodd" d="M45.4654 51.6409C45.4542 51.6418 45.4427 51.6422 45.4312 51.6427C44.5715 51.6619 43.8473 50.4586 43.8136 48.9544C43.7801 47.4506 44.4496 46.2161 45.3093 46.1969L53.7489 45.8448C54.7307 45.8041 55.5209 45.721 56.2989 45.9265C57.0425 46.1226 58.7396 47.2672 59.2378 47.9232C59.3861 48.1182 59.4652 48.3055 59.4702 48.477C59.4749 48.6488 59.4071 48.8401 59.2702 49.0435C58.8105 49.7268 57.1821 50.9672 56.4511 51.2057C55.6861 51.4555 54.892 51.4098 53.9096 51.4338L45.4653 51.6415L45.4654 51.6409Z" fill="#FD9D3F"/>
<g opacity="0.7">
<path fill-rule="evenodd" clip-rule="evenodd" d="M45.276 46.1983L45.2824 46.198L45.3022 46.1972L45.3104 46.1968L53.7503 45.8445C53.8981 45.8383 54.0416 45.8312 54.1813 45.8243C54.9696 45.7851 55.6392 45.7518 56.3004 45.9262C57.044 46.1223 58.7413 47.2672 59.2392 47.9229C59.3818 48.1109 59.4607 48.2914 59.4705 48.4578C59.4695 48.4437 59.4678 48.4295 59.4654 48.4152C59.4663 48.4221 59.4671 48.4289 59.4678 48.4357C59.4692 48.4443 59.4702 48.453 59.4706 48.4615L59.4709 48.4684C59.4709 48.4683 59.4707 48.4683 59.4701 48.4684C59.4702 48.4713 59.4703 48.4742 59.4704 48.4771C59.4751 48.6489 59.4072 48.8402 59.2704 49.0436C58.8106 49.7269 57.1823 50.9673 56.4513 51.2058C55.8284 51.4092 55.1863 51.4167 54.4389 51.4254C54.2684 51.4274 54.0923 51.4295 53.9097 51.4339L45.4654 51.6417L45.4655 51.6411C45.4543 51.6419 45.4429 51.6423 45.4314 51.6428L45.4314 51.6428C44.5717 51.6621 43.8474 50.4587 43.8137 48.9545C43.8122 48.8862 43.8121 48.8185 43.8134 48.7513C43.8231 48.2203 43.9207 47.7293 44.0819 47.3221C44.083 47.3221 44.0841 47.3221 44.0852 47.322C44.3375 46.6913 44.7439 46.2639 45.2155 46.204C45.2355 46.2014 45.2557 46.1995 45.276 46.1983Z" fill="#FD9D3F" style="mix-blend-mode:screen"/>
</g>
<path fill-rule="evenodd" clip-rule="evenodd" d="M46.8089 46.1347C46.809 46.1347 46.809 46.1347 46.809 46.1347L46.8094 46.1344L46.8525 46.1324L48.3458 46.0703C47.5026 46.1348 46.8533 47.3633 46.8867 48.8533C46.9198 50.3401 47.6202 51.5359 48.4632 51.5679L46.9223 51.6058C46.0821 51.5761 45.3834 50.3854 45.3503 48.9045C45.3458 48.7027 45.3538 48.5058 45.3732 48.316C45.3538 48.5058 45.3457 48.7027 45.3502 48.9045C45.3831 50.3851 46.082 51.5761 46.9222 51.6058L45.4658 51.6416L45.4314 51.643C44.5717 51.6622 43.8472 50.4585 43.8137 48.9547C43.7799 47.4511 44.4498 46.2164 45.3095 46.1972L46.8089 46.1347Z" fill="#DD761A"/>
<path fill-rule="evenodd" clip-rule="evenodd" d="M46.6035 74.4923L46.5711 73.7565L46.5712 73.7559C46.3206 73.794 46.0551 73.8447 45.7958 73.9021C45.5393 73.9591 45.287 74.0232 45.0577 74.0884C44.7872 74.1649 44.5578 74.4194 44.4022 74.7781C44.2476 75.1339 44.1651 75.5968 44.1871 76.096C44.209 76.5951 44.3319 77.0472 44.517 77.3884C44.7032 77.732 44.9544 77.9656 45.2302 78.0184C45.4643 78.0636 45.7212 78.1047 45.9819 78.1386C46.2456 78.1731 46.514 78.2008 46.7673 78.2176L46.7033 76.7591L46.6694 75.9861C46.6473 75.4884 46.6254 74.9902 46.6035 74.4923Z" fill="#FD9D3F" style="mix-blend-mode:screen"/>
<path fill-rule="evenodd" clip-rule="evenodd" d="M45.9036 73.8789C45.4622 74.3282 45.1465 75.1452 45.0979 76.0559C45.0525 76.904 45.2481 77.6503 45.5946 78.0821C45.7214 78.1023 45.8515 78.1211 45.9827 78.1385C46.2461 78.1732 46.5149 78.2006 46.7682 78.2175C46.7354 77.4732 46.7029 76.7293 46.6702 75.986C46.6376 75.2427 46.6047 74.499 46.572 73.7563C46.3558 73.7887 46.1289 73.8312 45.9042 73.879L45.9036 73.8789Z" fill="#CA670F" style="mix-blend-mode:multiply"/>
<path fill-rule="evenodd" clip-rule="evenodd" d="M47.0298 78.5989C47.0186 78.5998 47.0072 78.6002 46.9957 78.6007C46.136 78.6199 45.4117 77.4166 45.378 75.9124C45.3446 74.4086 46.0141 73.1741 46.8738 73.1549L55.3133 72.8028C56.2952 72.7621 57.0854 72.679 57.8634 72.8845C58.607 73.0806 60.304 74.2252 60.8022 74.8812C60.9505 75.0762 61.0297 75.2635 61.0347 75.435C61.0394 75.6068 60.9715 75.7981 60.8347 76.0015C60.375 76.6848 58.7466 77.9252 58.0156 78.1637C57.2506 78.4135 56.4565 78.3678 55.474 78.3918L47.0298 78.5996L47.0298 78.5989Z" fill="#FD9D3F"/>
<g opacity="0.7">
<path fill-rule="evenodd" clip-rule="evenodd" d="M46.8405 73.1563L46.8468 73.156L46.8667 73.1552L46.8749 73.1548L55.3148 72.8025C55.4626 72.7963 55.606 72.7892 55.7457 72.7823C56.534 72.7431 57.2037 72.7098 57.8648 72.8842C58.6084 73.0803 60.3057 74.2253 60.8037 74.8809C60.9462 75.0689 61.0251 75.2494 61.0349 75.4158C61.034 75.4017 61.0323 75.3875 61.0299 75.3732C61.0308 75.3801 61.0315 75.3869 61.0322 75.3937C61.0337 75.4024 61.0346 75.411 61.0351 75.4195L61.0353 75.4264C61.0354 75.4263 61.0351 75.4263 61.0345 75.4264C61.0346 75.4293 61.0347 75.4322 61.0348 75.4352C61.0395 75.6069 60.9717 75.7982 60.8348 76.0016C60.3751 76.6849 58.7467 77.9253 58.0157 78.1638C57.3929 78.3672 56.7508 78.3747 56.0034 78.3834C55.8328 78.3854 55.6567 78.3875 55.4742 78.3919L47.0299 78.5997L47.03 78.5991C47.0188 78.5999 47.0073 78.6003 46.9959 78.6008L46.9958 78.6008C46.1361 78.6201 45.4119 77.4167 45.3782 75.9125C45.3766 75.8442 45.3766 75.7765 45.3779 75.7093C45.3876 75.1783 45.4851 74.6873 45.6463 74.2802C45.6474 74.2801 45.6485 74.2801 45.6496 74.28C45.9019 73.6493 46.3084 73.2219 46.7799 73.162C46.8 73.1594 46.8202 73.1575 46.8405 73.1563Z" fill="#FD9D3F" style="mix-blend-mode:screen"/>
</g>
<path fill-rule="evenodd" clip-rule="evenodd" d="M48.3734 73.0927C48.3734 73.0927 48.3735 73.0927 48.3735 73.0927L48.3739 73.0924L48.417 73.0905L49.9102 73.0283C49.067 73.0928 48.4178 74.3213 48.4511 75.8113C48.4843 77.2981 49.1847 78.494 50.0276 78.5259L48.4868 78.5638C47.6466 78.5341 46.9479 77.3434 46.9148 75.8625C46.9103 75.6636 46.918 75.4695 46.9368 75.2822C46.918 75.4695 46.9102 75.6636 46.9147 75.8625C46.9475 77.3431 47.6465 78.5341 48.4867 78.5638L47.0303 78.5996L46.9958 78.601C46.1361 78.6202 45.4116 77.4165 45.3782 75.9127C45.3444 74.4091 46.0142 73.1744 46.8739 73.1552L48.3734 73.0927Z" fill="#DD761A"/>
<path fill-rule="evenodd" clip-rule="evenodd" d="M47.2359 50.4955C46.7231 50.5093 46.2103 50.5231 45.6976 50.5368C45.9721 51.14 46.3835 51.5435 46.8432 51.5993L48.3974 51.5627C47.9312 51.5118 47.514 51.1056 47.2359 50.4955Z" fill="#DD761A" style="mix-blend-mode:multiply"/>
<path d="M58.2548 67.578C61.3352 67.578 63.8324 65.0808 63.8324 62.0004C63.8324 58.92 61.3352 56.4229 58.2548 56.4229C55.1744 56.4229 52.6772 58.92 52.6772 62.0004C52.6772 65.0808 55.1744 67.578 58.2548 67.578Z" fill="#F3F8FF"/>
<path d="M58.2544 66.5191C60.75 66.5191 62.773 64.4961 62.773 62.0005C62.773 59.505 60.75 57.4819 58.2544 57.4819C55.7589 57.4819 53.7358 59.505 53.7358 62.0005C53.7358 64.4961 55.7589 66.5191 58.2544 66.5191Z" fill="#99B6FF"/>
<g style="mix-blend-mode:multiply">
<path d="M62.773 62.0002C62.773 64.4963 60.7503 66.5192 58.2541 66.5192C56.2864 66.5192 54.6132 65.261 53.9937 63.5052C54.8101 64.6659 56.1615 65.4253 57.6897 65.4253C60.1848 65.4253 62.2086 63.4014 62.2086 60.9063C62.2086 60.381 62.1185 59.8759 61.9534 59.4067C62.4701 60.1407 62.773 61.0345 62.773 62.0003V62.0002Z" fill="#99B6FF"/>
</g>
<path d="M58.3837 58.5281C58.383 58.585 58.3187 58.6423 58.2086 58.6965C58.1536 58.7235 58.087 58.75 58.0107 58.775C57.9728 58.7886 57.9316 58.7976 57.8896 58.8139C57.8477 58.831 57.8037 58.8479 57.7576 58.8648C57.6661 58.9005 57.5642 58.9261 57.4603 58.9671C57.3577 59.0122 57.2483 59.0551 57.134 59.0985C57.0259 59.1571 56.909 59.2076 56.7931 59.2688C56.7372 59.3033 56.6798 59.3372 56.6212 59.3709C56.592 59.3877 56.5624 59.4045 56.5328 59.4215L56.4487 59.4817C56.3915 59.5209 56.3349 59.5596 56.2791 59.5979C56.2271 59.6413 56.1752 59.6835 56.1234 59.7242C56.0978 59.7449 56.0709 59.7639 56.0464 59.7851C56.0226 59.8072 55.9991 59.8291 55.9757 59.8508C55.9282 59.8935 55.8817 59.9355 55.8358 59.9769C55.6617 60.1504 55.5053 60.3149 55.378 60.4624C55.1191 60.7548 54.9535 60.9546 54.8432 60.9208C54.7355 60.8898 54.7129 60.5903 54.8743 60.1674C54.9528 59.9554 55.0845 59.7181 55.2646 59.4745C55.3108 59.4147 55.363 59.3569 55.4149 59.2966C55.4414 59.2667 55.4681 59.2366 55.4949 59.2062C55.5231 59.1769 55.5542 59.1499 55.5844 59.1214C55.6464 59.0655 55.7092 59.0089 55.773 58.9514C55.8417 58.8997 55.9134 58.8493 55.986 58.7984C56.0224 58.7732 56.0586 58.7483 56.0946 58.7235C56.1322 58.7014 56.171 58.6815 56.2089 58.661C56.2853 58.6214 56.3607 58.5824 56.435 58.544C56.5873 58.4769 56.7411 58.429 56.8845 58.3803C57.0328 58.3472 57.1744 58.3219 57.3059 58.3005C57.4381 58.2834 57.5632 58.2882 57.6752 58.2871C57.7314 58.2878 57.7847 58.2893 57.8347 58.2919C57.885 58.2953 57.9323 58.307 57.9763 58.315C58.0643 58.3331 58.1391 58.3533 58.1997 58.3755C58.321 58.4199 58.3846 58.4715 58.3838 58.5284L58.3837 58.5281Z" fill="#C7DAFF"/>
<path d="M58.2546 57.2133C58.4179 57.2133 58.5502 57.0809 58.5502 56.9177C58.5502 56.7544 58.4179 56.6221 58.2546 56.6221C58.0913 56.6221 57.959 56.7544 57.959 56.9177C57.959 57.0809 58.0913 57.2133 58.2546 57.2133Z" fill="#ADC0E0"/>
<path d="M58.2546 66.7876C58.0913 66.7876 57.959 66.9199 57.959 67.0832C57.959 67.2465 58.0913 67.3788 58.2546 67.3788C58.4179 67.3788 58.5502 67.2465 58.5502 67.0832C58.5502 66.9199 58.4179 66.7876 58.2546 66.7876Z" fill="#ADC0E0"/>
<path d="M53.1721 61.7046C53.0088 61.7046 52.8765 61.8369 52.8765 62.0002C52.8765 62.1635 53.0088 62.2958 53.1721 62.2958C53.3353 62.2958 53.4677 62.1635 53.4677 62.0002C53.4677 61.8369 53.3353 61.7046 53.1721 61.7046Z" fill="#ADC0E0"/>
<path d="M63.3376 61.7046C63.1743 61.7046 63.042 61.8369 63.042 62.0002C63.042 62.1635 63.1743 62.2958 63.3376 62.2958C63.5009 62.2958 63.6332 62.1635 63.6332 62.0002C63.6332 61.8369 63.5009 61.7046 63.3376 61.7046Z" fill="#ADC0E0"/>
<path d="M54.4519 58.1975C54.3364 58.313 54.3364 58.5002 54.4519 58.6156C54.5674 58.7311 54.7545 58.7311 54.87 58.6156C54.9855 58.5001 54.9855 58.313 54.87 58.1975C54.7545 58.082 54.5674 58.082 54.4519 58.1975Z" fill="#ADC0E0"/>
<path d="M61.6399 65.3859C61.5243 65.5015 61.5243 65.6885 61.6399 65.804C61.7554 65.9195 61.9424 65.9195 62.0579 65.804C62.1735 65.6885 62.1735 65.5015 62.0579 65.3859C61.9424 65.2704 61.7554 65.2704 61.6399 65.3859Z" fill="#ADC0E0"/>
<path d="M54.4519 65.3859C54.3364 65.5015 54.3364 65.6885 54.4519 65.804C54.5674 65.9195 54.7545 65.9195 54.87 65.804C54.9855 65.6885 54.9855 65.5015 54.87 65.3859C54.7545 65.2704 54.5674 65.2704 54.4519 65.3859Z" fill="#ADC0E0"/>
<path d="M61.6399 58.1974C61.5243 58.3129 61.5243 58.5 61.6399 58.6155C61.7554 58.731 61.9424 58.731 62.0579 58.6155C62.1735 58.5 62.1735 58.3128 62.0579 58.1974C61.9424 58.082 61.7554 58.0819 61.6399 58.1974Z" fill="#ADC0E0"/>
<path d="M45.786 61.1237C43.1874 57.1434 37.8555 57.2318 34.5254 60.2183C32.4864 62.0458 31.4281 64.6636 30.2623 67.0743C28.9288 69.8274 27.5952 72.5804 26.2596 75.3322C26.0649 75.7347 25.9482 76.1358 25.8974 76.5278C12.5285 89.3808 -2.43068 100.408 -18.712 109.311C-22.7366 111.511 -19.5112 117.884 -15.484 115.68C2.3504 105.928 18.7621 93.7081 33.189 79.3677C37.1345 79.0912 40.5348 76.3164 43.2374 73.5508C46.4712 70.2411 48.5983 65.4313 45.786 61.1237Z" fill="#3A285B"/>
</g>
<defs>
<linearGradient id="paint0_linear_2322_92361" x1="354" y1="412" x2="354" y2="0" gradientUnits="userSpaceOnUse">
<stop stop-color="#295DC2"/>
<stop offset="0.143" stop-color="#2D67D7"/>
<stop offset="0.403" stop-color="#2D67D7"/>
<stop offset="0.578" stop-color="#3C74DF"/>
<stop offset="1" stop-color="#2452AC"/>
</linearGradient>
<linearGradient id="paint1_linear_2322_92361" x1="33.7942" y1="146.415" x2="33.7942" y2="-66.0391" gradientUnits="userSpaceOnUse">
<stop/>
<stop offset="0.213" stop-color="#000003"/>
<stop offset="0.41" stop-color="#02030E"/>
<stop offset="0.6" stop-color="#060721"/>
<stop offset="0.787" stop-color="#0B0D3B"/>
<stop offset="0.969" stop-color="#11145D"/>
<stop offset="1" stop-color="#131664"/>
</linearGradient>
<linearGradient id="paint2_linear_2322_92361" x1="37.9243" y1="142.07" x2="37.9243" y2="-63.4321" gradientUnits="userSpaceOnUse">
<stop/>
<stop offset="0.213" stop-color="#000003"/>
<stop offset="0.41" stop-color="#02030E"/>
<stop offset="0.6" stop-color="#060721"/>
<stop offset="0.787" stop-color="#0B0D3B"/>
<stop offset="0.969" stop-color="#11145D"/>
<stop offset="1" stop-color="#131664"/>
</linearGradient>
<linearGradient id="paint3_linear_2322_92361" x1="9.87425" y1="145.546" x2="9.87425" y2="-59.9565" gradientUnits="userSpaceOnUse">
<stop/>
<stop offset="0.213" stop-color="#000003"/>
<stop offset="0.41" stop-color="#02030E"/>
<stop offset="0.6" stop-color="#060721"/>
<stop offset="0.787" stop-color="#0B0D3B"/>
<stop offset="0.969" stop-color="#11145D"/>
<stop offset="1" stop-color="#131664"/>
</linearGradient>
<linearGradient id="paint4_linear_2322_92361" x1="65.9741" y1="159.014" x2="65.9741" y2="-47.7915" gradientUnits="userSpaceOnUse">
<stop/>
<stop offset="0.213" stop-color="#000003"/>
<stop offset="0.41" stop-color="#02030E"/>
<stop offset="0.6" stop-color="#060721"/>
<stop offset="0.787" stop-color="#0B0D3B"/>
<stop offset="0.969" stop-color="#11145D"/>
<stop offset="1" stop-color="#131664"/>
</linearGradient>
<linearGradient id="paint5_linear_2322_92361" x1="40.3335" y1="156.842" x2="40.3335" y2="-48.6602" gradientUnits="userSpaceOnUse">
<stop/>
<stop offset="0.213" stop-color="#000003"/>
<stop offset="0.41" stop-color="#02030E"/>
<stop offset="0.6" stop-color="#060721"/>
<stop offset="0.787" stop-color="#0B0D3B"/>
<stop offset="0.969" stop-color="#11145D"/>
<stop offset="1" stop-color="#131664"/>
</linearGradient>
<linearGradient id="paint6_linear_2322_92361" x1="73.8901" y1="104" x2="73.8902" y2="164" gradientUnits="userSpaceOnUse">
<stop stop-color="#2D67D7"/>
<stop offset="0.992" stop-color="#29ADFB"/>
</linearGradient>
<clipPath id="clip0_2322_92361">
<rect width="124" height="124" rx="12" fill="white"/>
</clipPath>
<clipPath id="clip1_2322_92361">
<rect width="307" height="179" fill="white" transform="translate(-92)"/>
</clipPath>
</defs>
</svg>
