<svg fill="none" height="142" viewBox="0 0 234 142" width="234" xmlns="http://www.w3.org/2000/svg">
    <path
        d="M148.535 36.4628C147.71 37.3358 157.904 36.0964 159.009 40.5725C160.114 45.0482 155.273 48.7937 155.273 48.7937L181.667 48.2428C181.667 48.2428 162.689 39.613 174.997 36.1105C174.997 36.1105 155.664 28.9115 148.535 36.4628Z"
        fill="#EC7E1C" />
    <path
        d="M158.735 108.866C157.719 108.023 168.212 108.451 168.349 103.672C168.485 98.8937 162.816 95.386 162.816 95.386L189.413 93.7134C189.413 93.7134 172.25 104.364 185.356 106.98C185.356 106.98 167.526 116.162 158.735 108.866Z"
        fill="#EC7E1C" />
    <path
        d="M57.5 94.999C62.7467 94.999 67 90.7457 67 85.499C67 80.2523 62.7467 75.999 57.5 75.999C52.2533 75.999 48 80.2523 48 85.499C48 90.7457 52.2533 94.999 57.5 94.999Z"
        fill="#55A7F9" />
    <path
        d="M57.7711 78.1991C57.7696 78.3188 57.6344 78.4391 57.4031 78.553C57.2874 78.61 57.1473 78.6655 56.987 78.7181C56.9073 78.7466 56.8207 78.7656 56.7324 78.7999C56.6443 78.8358 56.5517 78.8715 56.4547 78.9069C56.2625 78.982 56.0481 79.0358 55.8297 79.1221C55.6139 79.2168 55.384 79.3071 55.1438 79.3983C54.9165 79.5215 54.6708 79.6277 54.4271 79.7563C54.3094 79.8288 54.1888 79.9001 54.0657 79.9709C54.0041 80.0063 53.9419 80.0417 53.8798 80.0774L53.7028 80.204C53.5826 80.2863 53.4637 80.3677 53.3463 80.4483C53.237 80.5395 53.128 80.6281 53.0189 80.7138C52.9651 80.7573 52.9087 80.7973 52.8572 80.8419C52.8071 80.8882 52.7576 80.9343 52.7084 80.98C52.6086 81.0698 52.5108 81.1581 52.4144 81.245C52.0484 81.6098 51.7195 81.9557 51.4519 82.2659C50.9075 82.8805 50.5594 83.3005 50.3275 83.2295C50.101 83.1644 50.0536 82.5346 50.3928 81.6455C50.5579 81.1998 50.8347 80.7009 51.2134 80.1887C51.3106 80.063 51.4203 79.9416 51.5293 79.8147C51.5851 79.752 51.6413 79.6887 51.6976 79.6248C51.7569 79.5632 51.8222 79.5062 51.8858 79.4464C52.0162 79.329 52.1482 79.2099 52.2823 79.089C52.4268 78.9803 52.5775 78.8744 52.73 78.7674C52.8066 78.7144 52.8828 78.662 52.9585 78.61C53.0376 78.5634 53.119 78.5216 53.1987 78.4785C53.3593 78.3953 53.5178 78.3133 53.6741 78.2325C53.9943 78.0915 54.3177 77.9908 54.6193 77.8883C54.9309 77.8187 55.2287 77.7655 55.5052 77.7206C55.7831 77.6846 56.0461 77.6947 56.2815 77.6924C56.3997 77.6938 56.5117 77.697 56.617 77.7024C56.7226 77.7096 56.8221 77.7341 56.9145 77.7511C57.0995 77.7891 57.2569 77.8316 57.3844 77.8783C57.6393 77.9715 57.7731 78.08 57.7714 78.1997L57.7711 78.1991Z"
        fill="#88C0F8" />
    <path
        d="M42.5 74.999C46.0899 74.999 49 72.0889 49 68.499C49 64.9092 46.0899 61.999 42.5 61.999C38.9101 61.999 36 64.9092 36 68.499C36 72.0889 38.9101 74.999 42.5 74.999Z"
        fill="#55A7F9" />
    <path
        d="M42.6854 63.5044C42.6844 63.5863 42.5919 63.6686 42.4336 63.7466C42.3545 63.7855 42.2586 63.8235 42.149 63.8596C42.0944 63.879 42.0352 63.892 41.9747 63.9155C41.9145 63.9401 41.8511 63.9645 41.7847 63.9887C41.6532 64.0401 41.5066 64.0769 41.3571 64.136C41.2095 64.2007 41.0522 64.2625 40.8878 64.325C40.7323 64.4092 40.5642 64.4818 40.3974 64.5698C40.3169 64.6195 40.2344 64.6683 40.1502 64.7167C40.108 64.7409 40.0655 64.7651 40.023 64.7896L39.9019 64.8762C39.8196 64.9325 39.7383 64.9882 39.658 65.0433C39.5832 65.1057 39.5086 65.1664 39.4339 65.225C39.3971 65.2548 39.3585 65.2821 39.3233 65.3126C39.289 65.3443 39.2552 65.3758 39.2215 65.4071C39.1532 65.4686 39.0863 65.529 39.0203 65.5884C38.7699 65.8381 38.5449 66.0747 38.3618 66.2869C37.9893 66.7075 37.7511 66.9949 37.5924 66.9463C37.4375 66.9018 37.405 66.4708 37.6371 65.8625C37.7501 65.5575 37.9395 65.2162 38.1986 64.8657C38.2651 64.7797 38.3401 64.6966 38.4148 64.6098C38.4529 64.5669 38.4913 64.5236 38.5299 64.4799C38.5705 64.4378 38.6152 64.3988 38.6587 64.3578C38.7479 64.2775 38.8382 64.196 38.93 64.1133C39.0288 64.0389 39.1319 63.9665 39.2363 63.8932C39.2887 63.857 39.3408 63.8212 39.3926 63.7855C39.4467 63.7536 39.5025 63.7251 39.557 63.6956C39.6668 63.6387 39.7753 63.5826 39.8822 63.5272C40.1013 63.4308 40.3226 63.3619 40.5289 63.2918C40.7421 63.2441 40.9459 63.2077 41.1351 63.177C41.3253 63.1524 41.5052 63.1593 41.6662 63.1577C41.7471 63.1587 41.8237 63.1609 41.8958 63.1646C41.968 63.1695 42.0362 63.1863 42.0993 63.1979C42.2259 63.2239 42.3336 63.253 42.4208 63.2849C42.5953 63.3487 42.6868 63.4229 42.6856 63.5048L42.6854 63.5044Z"
        fill="#88C0F8" />
    <path
        d="M12.7613 81.9006C15.1619 79.577 15.2243 75.7473 12.9007 73.3467C10.5771 70.946 6.7473 70.8836 4.34669 73.2073C1.94608 75.5309 1.88366 79.3606 4.20729 81.7612C6.53091 84.1619 10.3607 84.2243 12.7613 81.9006Z"
        fill="#55A7F9" />
    <path
        d="M5.44512 74.0943C5.49747 74.1497 5.48886 74.2646 5.43348 74.4192C5.40579 74.4965 5.36626 74.584 5.31625 74.679C5.2924 74.7274 5.26118 74.7744 5.23593 74.8292C5.21157 74.8846 5.18498 74.942 5.15629 75.0011C5.10161 75.1206 5.02736 75.2402 4.96566 75.3764C4.90885 75.5153 4.84367 75.6584 4.77414 75.8066C4.72468 75.9636 4.65926 76.121 4.60472 76.2877C4.58298 76.373 4.55943 76.4591 4.53443 76.546C4.52193 76.5895 4.50917 76.6332 4.49653 76.677L4.47164 76.8133C4.45305 76.9043 4.43474 76.9941 4.41671 77.083C4.40708 77.1731 4.39643 77.262 4.3845 77.3495C4.37913 77.3932 4.37104 77.4365 4.36722 77.4797C4.36483 77.5231 4.36258 77.5661 4.36033 77.6088C4.3544 77.6941 4.34876 77.7778 4.34314 77.8603C4.33726 78.1893 4.33996 78.4932 4.35489 78.7536C4.37799 79.2759 4.40474 79.6223 4.26716 79.6925C4.13475 79.763 3.83409 79.4959 3.59555 78.9388C3.47373 78.6618 3.37942 78.3109 3.32585 77.9089C3.31466 77.8083 3.31104 77.7042 3.30474 77.5978C3.3025 77.5444 3.30014 77.4906 3.29765 77.4364C3.2975 77.3819 3.30216 77.327 3.30475 77.2714C3.31239 77.16 3.32007 77.047 3.3279 76.9323C3.34582 76.8186 3.36791 76.7034 3.39028 76.5868C3.40186 76.5287 3.41355 76.471 3.42511 76.4137C3.44067 76.3573 3.45945 76.3021 3.4768 76.2471C3.51343 76.1379 3.54966 76.0302 3.58533 75.924C3.66942 75.7177 3.77279 75.5284 3.8654 75.348C3.97713 75.1781 4.08983 75.0219 4.19646 74.8789C4.30771 74.7393 4.43249 74.6274 4.53916 74.5222C4.59391 74.4704 4.64652 74.4223 4.69712 74.3782C4.74862 74.3347 4.80501 74.3018 4.85479 74.2687C4.95626 74.2041 5.04713 74.1539 5.1261 74.1188C5.28403 74.0485 5.39329 74.0389 5.44551 74.0944L5.44512 74.0943Z"
        fill="#88C0F8" />
    <path
        d="M24.9433 85.8127C25.4643 87.9809 27.6444 89.3163 29.8126 88.7953C31.9809 88.2743 33.3163 86.0942 32.7953 83.926C32.2743 81.7577 30.0942 80.4223 27.9259 80.9433C25.7577 81.4643 24.4223 83.6444 24.9433 85.8127Z"
        fill="#55A7F9" />
    <path
        d="M31.913 84.2563C31.8634 84.2676 31.8003 84.2237 31.7302 84.1394C31.6952 84.0972 31.6584 84.0448 31.6207 83.9838C31.601 83.9537 31.5845 83.9198 31.5616 83.8867C31.538 83.8539 31.5141 83.8192 31.4898 83.7826C31.4397 83.7106 31.3962 83.6274 31.3388 83.5457C31.2783 83.4659 31.2181 83.3799 31.1566 83.2897C31.0831 83.2079 31.0148 83.1169 30.9375 83.029C30.8958 82.9876 30.8543 82.9448 30.8129 82.901C30.7921 82.879 30.7713 82.8569 30.7504 82.8347L30.6805 82.7742C30.6346 82.7326 30.5891 82.6916 30.5442 82.6511C30.4956 82.615 30.4482 82.5787 30.4019 82.5421C30.3786 82.5242 30.3565 82.5049 30.3329 82.488C30.3088 82.4719 30.2849 82.4561 30.2611 82.4403C30.2141 82.4079 30.1679 82.3763 30.1224 82.3451C29.9353 82.23 29.7597 82.1285 29.6049 82.0487C29.2969 81.8847 29.0887 81.7826 29.095 81.6797C29.0994 81.5796 29.355 81.4975 29.7561 81.5494C29.9567 81.5734 30.1904 81.6382 30.4396 81.7439C30.5012 81.7716 30.5623 81.8048 30.6256 81.8373C30.657 81.8541 30.6888 81.871 30.7208 81.888C30.7521 81.9064 30.7821 81.9277 30.8132 81.948C30.8746 81.9902 30.937 82.033 31.0002 82.0764C31.0595 82.1253 31.1183 82.1771 31.1776 82.2295C31.2071 82.2559 31.2363 82.2822 31.2654 82.3083C31.2925 82.3363 31.3178 82.3658 31.3436 82.3945C31.3939 82.4526 31.4435 82.51 31.4924 82.5665C31.5825 82.6848 31.6562 82.8085 31.7285 82.9229C31.7882 83.0448 31.8398 83.1626 31.8858 83.2724C31.9283 83.3837 31.9502 83.4934 31.9745 83.5904C31.9857 83.6394 31.9955 83.686 32.0037 83.7301C32.0112 83.7744 32.011 83.818 32.0131 83.8578C32.0158 83.9381 32.0138 84.0073 32.0072 84.0646C31.994 84.1793 31.9625 84.2453 31.9128 84.2565L31.913 84.2563Z"
        fill="#88C0F8" />
    <path
        d="M5.79639 91.9073C6.23623 93.7378 8.07673 94.8651 9.90725 94.4253C11.7378 93.9855 12.8651 92.145 12.4253 90.3145C11.9855 88.4839 10.145 87.3566 8.31445 87.7964C6.48393 88.2362 5.35656 90.0767 5.79639 91.9073Z"
        fill="#55A7F9" />
    <path
        d="M11.6805 90.5932C11.6387 90.6028 11.5854 90.5657 11.5262 90.4945C11.4966 90.4589 11.4655 90.4147 11.4337 90.3632C11.4171 90.3378 11.4032 90.3091 11.3839 90.2812C11.3639 90.2535 11.3437 90.2242 11.3232 90.1933C11.2809 90.1325 11.2442 90.0622 11.1958 89.9933C11.1446 89.9259 11.0938 89.8533 11.0419 89.7771C10.9799 89.7081 10.9222 89.6313 10.8569 89.5571C10.8218 89.5221 10.7867 89.486 10.7517 89.449C10.7342 89.4305 10.7167 89.4117 10.699 89.3931L10.64 89.3419C10.6012 89.3069 10.5628 89.2722 10.5249 89.238C10.4839 89.2075 10.4438 89.1769 10.4048 89.1461C10.3851 89.1309 10.3664 89.1146 10.3466 89.1004C10.3262 89.0868 10.306 89.0734 10.2859 89.06C10.2462 89.0327 10.2072 89.006 10.1688 88.9797C10.0108 88.8826 9.86258 88.7968 9.73193 88.7295C9.47187 88.591 9.29612 88.5048 9.30148 88.4179C9.30518 88.3335 9.52095 88.2641 9.85958 88.3079C10.0289 88.3282 10.2262 88.3829 10.4366 88.4721C10.4886 88.4955 10.5402 88.5236 10.5936 88.551C10.6202 88.5652 10.647 88.5795 10.674 88.5938C10.7004 88.6093 10.7258 88.6273 10.752 88.6445C10.8039 88.6801 10.8565 88.7162 10.9099 88.7529C10.96 88.7941 11.0095 88.8379 11.0597 88.8821C11.0846 88.9044 11.1092 88.9266 11.1337 88.9486C11.1566 88.9723 11.178 88.9972 11.1998 89.0214C11.2422 89.0704 11.2841 89.1189 11.3254 89.1666C11.4015 89.2665 11.4637 89.3709 11.5247 89.4675C11.5752 89.5704 11.6187 89.6699 11.6575 89.7626C11.6934 89.8565 11.7119 89.9491 11.7324 90.031C11.7419 90.0724 11.7501 90.1117 11.7571 90.1489C11.7634 90.1864 11.7632 90.2232 11.765 90.2568C11.7673 90.3245 11.7656 90.383 11.7601 90.4314C11.7489 90.5282 11.7223 90.5839 11.6804 90.5934L11.6805 90.5932Z"
        fill="#88C0F8" />
    <path
        d="M83.9818 72.999H127.018C128.113 72.999 129 73.8944 129 74.999C129 76.1037 128.113 76.999 127.018 76.999H83.9818C82.8872 76.999 82 76.1037 82 74.999C82 73.8944 82.8872 72.999 83.9818 72.999Z"
        fill="#DD761A" />
    <path
        d="M97.3234 65.999H101.677C102.407 65.999 103 66.5446 103 67.2176V82.7805C103 83.4535 102.407 83.999 101.677 83.999H97.3234C96.5925 83.999 96 83.4535 96 82.7805V67.2176C96 66.5446 96.5925 65.999 97.3234 65.999Z"
        fill="#F7D41E" />
    <path
        d="M102.08 63.999H108.92C110.069 63.999 111 64.6658 111 65.4882V84.5098C111 85.3323 110.069 85.999 108.92 85.999H102.08C100.931 85.999 100 85.3323 100 84.5098V65.4882C100 64.6658 100.931 63.999 102.08 63.999Z"
        fill="#F7D41E" />
    <path
        d="M77 57.9464C77 54.6617 79.6863 51.999 83 51.999C86.3137 51.999 89 54.6617 89 57.9464C89 60.5906 87.2586 70.6671 84.8515 74.499C87.259 78.3309 89 88.4075 89 91.0516C89 94.3363 86.3137 96.999 83 96.999C79.6863 96.999 77 94.3363 77 91.0516C77 88.4075 78.7414 78.3309 81.1485 74.499C78.741 70.6671 77 60.5906 77 57.9464Z"
        fill="#F7D41E" />
    <path
        d="M106.64 66.4686C106.64 66.4686 110.596 53.0453 105.677 43.5125C103.573 39.435 101.777 36.7336 100.41 34.9782C99.4414 33.7341 100.41 31.932 101.983 32.0469C106.371 32.3673 112.99 33.5463 117.075 37.5501C123.608 43.9553 126.667 47.1331 136.263 44.7014C145.859 42.2697 114.424 67.2672 106.64 66.4686Z"
        fill="#EC923A" />
    <path
        d="M106.953 78.954C106.953 78.954 111.582 92.1609 107.149 101.93C105.253 106.108 103.595 108.896 102.319 110.719C101.414 112.011 102.473 113.761 104.037 113.566C108.405 113.025 114.956 111.515 118.833 107.31C125.035 100.583 127.93 97.2554 137.636 99.2003C147.342 101.146 114.689 77.7631 106.953 78.954Z"
        fill="#EC923A" />
    <path
        d="M123.105 75.8609C135.029 86.984 203.757 98.7499 227.248 80.1953C229.136 76.9598 230.118 73.5331 230.029 70.0031C229.573 51.9294 201.331 37.9806 166.95 38.8474C148.824 39.304 132.613 43.7884 121.399 50.5736C117.655 58.0968 115.096 68.3887 123.105 75.8609Z"
        fill="#FD9D3F" />
    <path
        d="M227.248 80.1948C203.756 98.7493 135.029 86.9835 123.105 75.8605C115.096 68.3882 117.656 58.0974 121.4 50.5733C111.343 56.6596 105.305 64.5953 105.52 73.1417C105.976 91.2153 134.218 105.164 168.599 104.297C196.265 103.6 219.471 93.5214 227.248 80.1948Z"
        fill="#DD761A" />
    <path style="mix-blend-mode:multiply" clip-rule="evenodd"
        d="M173.874 33.2918C163.421 33.5741 152.967 33.8554 142.513 34.1385C143.391 36.0699 144.707 37.3633 146.18 37.5517L173.978 36.899C177.087 36.8224 179.611 36.9642 182.036 36.2093C182.084 36.1944 182.132 36.1796 182.179 36.1636C184.539 35.394 189.794 31.391 191.277 29.1857C191.714 28.5386 191.933 27.9292 191.924 27.3808C191.926 27.7074 191.696 28.0725 191.257 28.4636C189.749 29.8039 184.449 32.2673 182.083 32.7574C179.605 33.27 177.045 33.2073 173.875 33.2929L173.874 33.2918Z"
        fill="#EE7E1E" fill-rule="evenodd" />
    <path style="mix-blend-mode:screen" clip-rule="evenodd"
        d="M145.352 24.3143L145.247 21.9402L145.247 21.9382C144.438 22.0612 143.582 22.2248 142.745 22.4103C141.917 22.5941 141.103 22.8008 140.363 23.0114C139.49 23.2583 138.75 24.0796 138.247 25.2373C137.749 26.3856 137.482 27.8794 137.553 29.4903C137.624 31.1012 138.021 32.56 138.618 33.6613C139.219 34.7702 140.029 35.5238 140.92 35.6943C141.675 35.8401 142.504 35.9728 143.345 36.0824C144.196 36.1935 145.063 36.2829 145.88 36.3373C145.812 34.7716 145.743 33.2055 145.674 31.64L145.674 31.6342L145.674 31.6308L145.564 29.1358C145.493 27.5296 145.422 25.9222 145.352 24.3155L145.352 24.315L145.352 24.3143Z"
        fill="#FD9D3F" fill-rule="evenodd" />
    <path style="mix-blend-mode:multiply" clip-rule="evenodd"
        d="M143.092 22.3359C141.668 23.7859 140.649 26.4226 140.492 29.3618C140.345 32.0987 140.976 34.507 142.095 35.9007C142.504 35.9658 142.924 36.0265 143.347 36.0827C144.197 36.1946 145.065 36.2832 145.882 36.3376C145.776 33.9357 145.671 31.5349 145.566 29.1361C145.461 26.7373 145.355 24.3373 145.249 21.9405C144.551 22.0449 143.819 22.1821 143.094 22.3362L143.092 22.3359Z"
        fill="#CA670F" fill-rule="evenodd" />
    <path clip-rule="evenodd" d="M146.727 37.5677C146.691 37.5704 146.654 37.5719 146.616 37.5734C143.842 37.6355 141.505 33.7521 141.396 28.8978C141.288 24.0446 143.449 20.0607 146.223 19.9986L173.459 18.8624C176.628 18.7309 179.178 18.4628 181.689 19.1259C184.089 19.7588 189.565 23.4527 191.173 25.5699C191.652 26.1992 191.907 26.8037 191.923 27.3571C191.938 27.9114 191.719 28.5288 191.278 29.1852C189.794 31.3904 184.539 35.3934 182.18 36.1631C179.711 36.9693 177.148 36.8218 173.978 36.8993L146.726 37.5697L146.727 37.5677Z"
        fill="#FD9D3F"
        fill-rule="evenodd" />
    <g opacity="0.7">
        <path style="mix-blend-mode:screen" clip-rule="evenodd"
            d="M146.115 20.0028L146.136 20.0019C146.157 20.0008 146.178 19.9999 146.199 19.9993L146.226 19.9982L173.463 18.8612C173.94 18.8412 174.403 18.8182 174.854 18.7958C177.398 18.6694 179.559 18.5621 181.693 19.1247C184.093 19.7576 189.57 23.4526 191.177 25.5686C191.637 26.1753 191.892 26.7578 191.923 27.2947C191.92 27.2498 191.915 27.2046 191.908 27.1591C191.91 27.1811 191.913 27.2031 191.915 27.225C191.92 27.2525 191.923 27.2798 191.924 27.3068C191.924 27.3138 191.925 27.3219 191.925 27.3288C191.925 27.3288 191.924 27.3288 191.922 27.3288C191.923 27.3383 191.923 27.3478 191.923 27.3572C191.938 27.9115 191.719 28.5289 191.278 29.1852C189.794 31.3905 184.539 35.3935 182.18 36.1631C180.17 36.8195 178.098 36.8437 175.686 36.8719H175.686C175.135 36.8783 174.567 36.8849 173.978 36.8994L146.726 37.5698L146.727 37.5678C146.691 37.5704 146.654 37.572 146.617 37.5735L146.616 37.5735C143.842 37.6356 141.505 33.7521 141.396 28.8978C141.391 28.702 141.391 28.5076 141.394 28.3148C141.417 26.5732 141.734 24.9623 142.261 23.6298C142.265 23.6297 142.268 23.6295 142.272 23.6294C143.085 21.5969 144.394 20.2184 145.913 20.0221C145.98 20.0133 146.047 20.0069 146.115 20.0028Z"
            fill="#FD9D3F" fill-rule="evenodd" />
    </g>
    <path clip-rule="evenodd" d="M151.062 19.7979C151.062 19.7979 151.062 19.7979 151.062 19.7979L151.063 19.797L151.203 19.7906L156.022 19.5901C153.3 19.7982 151.205 23.7629 151.313 28.5713C151.42 33.3696 153.68 37.2288 156.4 37.3319L151.428 37.4541C148.716 37.3584 146.461 33.5159 146.355 28.7365C146.34 28.0925 146.365 27.4637 146.426 26.8572C146.821 22.9474 148.708 19.9632 151.062 19.7979ZM151.062 19.7979C148.708 19.9629 146.821 22.9467 146.426 26.8572C146.365 27.4637 146.34 28.0925 146.354 28.7365C146.46 33.5148 148.716 37.3584 151.427 37.4542L146.727 37.5697L146.616 37.5743C143.842 37.6363 141.504 33.7518 141.396 28.8986C141.287 24.0462 143.448 20.0615 146.223 19.9994L151.062 19.7979Z"
        fill="#DD761A"
        fill-rule="evenodd" />
    <path style="mix-blend-mode:screen" clip-rule="evenodd"
        d="M150.4 111.313L150.296 108.939L150.296 108.937C149.487 109.06 148.63 109.224 147.794 109.409C146.966 109.593 146.152 109.8 145.411 110.01C144.539 110.257 143.798 111.079 143.296 112.236C142.797 113.385 142.531 114.878 142.602 116.489C142.673 118.1 143.069 119.559 143.666 120.66C144.268 121.769 145.078 122.523 145.968 122.693C146.724 122.839 147.553 122.972 148.394 123.081C149.245 123.192 150.111 123.282 150.929 123.336C150.86 121.771 150.792 120.204 150.723 118.639L150.722 118.633L150.722 118.63L150.613 116.135C150.541 114.529 150.471 112.921 150.4 111.315L150.4 111.314L150.4 111.313Z"
        fill="#FD9D3F" fill-rule="evenodd" />
    <path style="mix-blend-mode:multiply" clip-rule="evenodd"
        d="M148.141 109.335C146.716 110.785 145.697 113.422 145.54 116.361C145.394 119.098 146.025 121.506 147.143 122.9C147.553 122.965 147.972 123.025 148.396 123.082C149.246 123.194 150.113 123.282 150.931 123.337C150.825 120.935 150.72 118.534 150.615 116.135C150.509 113.736 150.403 111.336 150.298 108.939C149.6 109.044 148.867 109.181 148.143 109.335L148.141 109.335Z"
        fill="#CA670F" fill-rule="evenodd" />
    <path clip-rule="evenodd" d="M151.775 124.567C151.739 124.569 151.702 124.571 151.665 124.572C148.891 124.635 146.553 120.751 146.445 115.897C146.337 111.044 148.497 107.06 151.272 106.998L178.508 105.861C181.677 105.73 184.227 105.462 186.737 106.125C189.137 106.758 194.614 110.452 196.222 112.569C196.7 113.198 196.956 113.803 196.972 114.356C196.987 114.91 196.768 115.528 196.326 116.184C194.843 118.389 189.588 122.392 187.229 123.162C184.76 123.968 182.197 123.821 179.026 123.898L151.775 124.569L151.775 124.567Z"
        fill="#FD9D3F"
        fill-rule="evenodd" />
    <g opacity="0.7">
        <path style="mix-blend-mode:screen" clip-rule="evenodd"
            d="M151.164 107.002L151.184 107.001C151.206 107 151.227 106.999 151.248 106.998L151.275 106.997L178.512 105.86C178.989 105.84 179.452 105.817 179.903 105.795C182.447 105.668 184.608 105.561 186.741 106.124C189.141 106.757 194.619 110.452 196.226 112.568C196.686 113.174 196.94 113.757 196.972 114.294C196.969 114.249 196.964 114.204 196.956 114.158C196.959 114.18 196.961 114.202 196.963 114.224C196.968 114.252 196.971 114.279 196.973 114.306C196.972 114.313 196.973 114.321 196.973 114.328C196.973 114.328 196.973 114.328 196.971 114.328C196.971 114.337 196.972 114.347 196.972 114.356C196.987 114.911 196.768 115.528 196.326 116.184C194.843 118.39 189.588 122.393 187.229 123.162C185.218 123.819 183.146 123.843 180.734 123.871H180.734C180.184 123.877 179.616 123.884 179.026 123.898L151.775 124.569L151.775 124.567C151.739 124.569 151.702 124.571 151.665 124.573L151.665 124.573C148.891 124.635 146.553 120.751 146.444 115.897C146.44 115.701 146.439 115.507 146.442 115.314C146.466 113.572 146.782 111.961 147.31 110.629C147.313 110.629 147.317 110.629 147.321 110.628C148.134 108.596 149.443 107.217 150.962 107.021C151.029 107.012 151.096 107.006 151.164 107.002Z"
            fill="#FD9D3F" fill-rule="evenodd" />
    </g>
    <path clip-rule="evenodd" d="M156.11 106.797C156.111 106.797 156.111 106.797 156.111 106.797L156.112 106.796L156.251 106.79L161.07 106.589C158.349 106.797 156.254 110.762 156.361 115.57C156.468 120.369 158.729 124.228 161.449 124.331L156.476 124.453C153.765 124.357 151.51 120.515 151.403 115.735C151.389 115.092 151.414 114.463 151.475 113.856C151.869 109.946 153.757 106.962 156.11 106.797ZM156.11 106.797C153.757 106.962 151.87 109.946 151.475 113.856C151.414 114.463 151.388 115.091 151.403 115.736C151.509 120.514 153.765 124.357 156.476 124.453L151.776 124.569L151.665 124.573C148.89 124.635 146.552 120.751 146.444 115.898C146.335 111.045 148.497 107.061 151.271 106.998L156.11 106.797Z"
        fill="#DD761A"
        fill-rule="evenodd" />
    <path style="mix-blend-mode:multiply" clip-rule="evenodd"
        d="M152.44 33.8714C150.786 33.9159 149.131 33.9604 147.476 34.0049C148.362 35.9513 149.69 37.2534 151.173 37.4335L156.189 37.3156C154.684 37.1513 153.338 35.8405 152.44 33.8714Z"
        fill="#DD761A" fill-rule="evenodd" />
    <path
        d="M188 89C197.941 89 206 80.9411 206 71C206 61.0589 197.941 53 188 53C178.059 53 170 61.0589 170 71C170 80.9411 178.059 89 188 89Z"
        fill="#F3F8FF" />
    <path
        d="M188 85.5828C196.054 85.5828 202.582 79.054 202.582 71.0004C202.582 62.9467 196.054 56.418 188 56.418C179.946 56.418 173.418 62.9467 173.418 71.0004C173.418 79.054 179.946 85.5828 188 85.5828Z"
        fill="#99B6FF" />
    <g style="mix-blend-mode:multiply">
        <path
            d="M202.582 70.9994C202.582 79.0549 196.055 85.5832 187.999 85.5832C181.649 85.5832 176.249 81.5229 174.25 75.8564C176.885 79.6022 181.246 82.053 186.178 82.053C194.23 82.053 200.761 75.5216 200.761 67.4692C200.761 65.7741 200.47 64.1439 199.937 62.6299C201.605 64.9985 202.582 67.8831 202.582 70.9999V70.9994Z"
            fill="#99B6FF" />
    </g>
    <path
        d="M188.416 59.7944C188.414 59.9781 188.206 60.1627 187.851 60.3376C187.674 60.4251 187.459 60.5103 187.213 60.5911C187.09 60.6349 186.957 60.664 186.822 60.7166C186.687 60.7718 186.544 60.8265 186.396 60.8809C186.1 60.9961 185.771 61.0787 185.436 61.2112C185.105 61.3565 184.752 61.4952 184.383 61.6352C184.034 61.8243 183.657 61.9872 183.283 62.1846C183.102 62.2959 182.917 62.4055 182.728 62.5141C182.634 62.5685 182.538 62.6228 182.443 62.6776L182.171 62.8719C181.987 62.9982 181.804 63.1232 181.624 63.2469C181.456 63.3869 181.289 63.5229 181.122 63.6545C181.039 63.7212 180.952 63.7826 180.873 63.851C180.797 63.9222 180.721 63.9928 180.645 64.0631C180.492 64.2009 180.342 64.3364 180.194 64.4698C179.632 65.0298 179.127 65.5607 178.716 66.0369C177.881 66.9803 177.346 67.6251 176.99 67.516C176.643 67.4162 176.57 66.4494 177.091 65.0846C177.344 64.4005 177.769 63.6347 178.35 62.8485C178.499 62.6555 178.668 62.4691 178.835 62.2743C178.921 62.178 179.007 62.0809 179.093 61.9828C179.184 61.8883 179.285 61.8009 179.382 61.709C179.582 61.5288 179.785 61.3459 179.991 61.1604C180.213 60.9935 180.444 60.831 180.678 60.6667C180.796 60.5854 180.913 60.505 181.029 60.4251C181.15 60.3535 181.275 60.2895 181.398 60.2232C181.644 60.0956 181.887 59.9697 182.127 59.8456C182.619 59.6292 183.115 59.4746 183.578 59.3174C184.056 59.2105 184.514 59.1288 184.938 59.0599C185.365 59.0047 185.768 59.0201 186.13 59.0166C186.311 59.0188 186.483 59.0237 186.645 59.032C186.807 59.0431 186.96 59.0806 187.101 59.1067C187.385 59.165 187.627 59.2304 187.823 59.3019C188.214 59.445 188.419 59.6115 188.417 59.7953L188.416 59.7944Z"
        fill="#C7DAFF" />
    <path
        d="M188 55.5515C188.527 55.5515 188.954 55.1244 188.954 54.5975C188.954 54.0707 188.527 53.6436 188 53.6436C187.473 53.6436 187.046 54.0707 187.046 54.5975C187.046 55.1244 187.473 55.5515 188 55.5515Z"
        fill="#ADC0E0" />
    <path
        d="M188 86.4492C187.473 86.4492 187.046 86.8763 187.046 87.4032C187.046 87.9301 187.473 88.3572 188 88.3572C188.527 88.3572 188.954 87.9301 188.954 87.4032C188.954 86.8763 188.527 86.4492 188 86.4492Z"
        fill="#ADC0E0" />
    <path
        d="M171.597 70.0459C171.07 70.0459 170.643 70.473 170.643 70.9999C170.643 71.5268 171.07 71.9539 171.597 71.9539C172.124 71.9539 172.551 71.5268 172.551 70.9999C172.551 70.473 172.124 70.0459 171.597 70.0459Z"
        fill="#ADC0E0" />
    <path
        d="M204.403 70.0459C203.876 70.0459 203.449 70.473 203.449 70.9999C203.449 71.5268 203.876 71.9539 204.403 71.9539C204.93 71.9539 205.357 71.5268 205.357 70.9999C205.357 70.473 204.93 70.0459 204.403 70.0459Z"
        fill="#ADC0E0" />
    <path
        d="M175.727 58.7268C175.354 59.0996 175.354 59.7038 175.727 60.0761C176.099 60.4489 176.703 60.4489 177.076 60.0761C177.449 59.7034 177.449 59.0996 177.076 58.7268C176.703 58.3541 176.099 58.3541 175.727 58.7268Z"
        fill="#ADC0E0" />
    <path
        d="M198.924 81.9251C198.551 82.2978 198.551 82.9016 198.924 83.2744C199.297 83.6471 199.901 83.6471 200.273 83.2744C200.646 82.9016 200.646 82.2978 200.273 81.9251C199.901 81.5523 199.297 81.5523 198.924 81.9251Z"
        fill="#ADC0E0" />
    <path
        d="M175.727 81.9251C175.354 82.2978 175.354 82.9016 175.727 83.2744C176.1 83.6471 176.704 83.6471 177.076 83.2744C177.449 82.9016 177.449 82.2978 177.076 81.9251C176.704 81.5523 176.1 81.5523 175.727 81.9251Z"
        fill="#ADC0E0" />
    <path
        d="M198.924 58.7276C198.551 59.1004 198.551 59.7042 198.924 60.077C199.297 60.4497 199.901 60.4497 200.273 60.077C200.646 59.7042 200.646 59.1 200.273 58.7276C199.901 58.3553 199.297 58.3549 198.924 58.7276Z"
        fill="#ADC0E0" />
</svg>
