<svg width="24" height="24" viewBox="0 0 24 24" fill="none" xmlns="http://www.w3.org/2000/svg">
<path d="M18.3903 7.16294C18.8394 6.9774 19.3737 7.22214 19.6734 7.60478C19.9731 7.98742 20.0918 8.4769 20.2034 8.94978C20.3041 9.37862 20.4059 9.81649 20.3644 10.2551C20.2893 11.0445 19.7062 11.7622 18.9484 11.9979C18.6957 12.0766 17.8686 12.9866 16.6356 13.2035C14.8767 13.5133 13.7149 12.6032 13.5167 12.5541C13.2733 12.4939 13.0683 12.3343 12.873 12.1773C12.361 11.7654 11.8281 11.2958 11.6823 10.655C11.5797 10.2049 11.6877 9.73022 11.8711 9.30679C12.2299 8.47727 12.9008 7.77047 13.7441 7.44487C14.3655 7.20518 15.0457 7.17667 15.7114 7.15104C16.4627 7.12216 17.2137 7.09328 17.965 7.0644" fill="#119620"/>
<path d="M9.33979 14.8537C9.33979 14.8537 9.81491 15.9547 10.077 16.2824C10.3391 16.6102 11.5955 17.7365 11.5955 17.7365L11.7067 16.7813C11.7067 16.7813 10.7543 16.2781 10.433 16.0164C10.1117 15.7543 9.66399 14.8458 9.66399 14.8458C9.66399 14.8458 9.26758 14.0805 9.14988 14.0798C9.03218 14.079 9.33979 14.8537 9.33979 14.8537Z" fill="#983801"/>
<path d="M10.4971 15.0441C10.0744 15.5412 9.27215 15.6596 8.72374 15.3058C8.56597 15.204 8.42878 15.0694 8.25873 14.9903C7.93236 14.838 7.53342 14.9106 7.21101 14.7503C6.85648 14.5741 6.68426 14.1572 6.64924 13.7626C6.64058 13.6637 6.59509 13.2945 6.8507 13.0212C7.13772 12.7144 7.51284 12.7479 7.8995 12.5848C8.28617 12.4213 8.72735 12.3574 9.12955 12.4776C9.33281 12.5386 9.52235 12.6447 9.73103 12.6833C9.86172 12.7075 9.99711 12.7046 10.126 12.7375C10.3415 12.7923 10.5221 12.944 10.6564 13.1208C11.0676 13.6637 11.0553 14.4864 10.6286 15.017" fill="#119620"/>
<path d="M13.5168 12.5538C13.5168 12.5538 13.1077 14.1879 13.3128 16.2849C13.5179 18.3818 15.0541 23.0911 14.9696 24H10.0996C10.0996 24 10.47 22.7254 10.5375 21.1349C10.6592 18.2695 10.5415 14.2096 10.783 13.5284C11.1589 12.469 13.5168 12.5538 13.5168 12.5538Z" fill="#7C2D00"/>
<path d="M16.1392 12.7124C16.1392 12.7124 15.6395 14.0535 15.3471 14.4599C15.0546 14.8664 13.2451 16.8608 13.2451 16.8608L13.1426 15.357C13.1426 15.357 14.5394 14.4957 14.9066 14.1643C15.2738 13.8326 15.7521 12.7225 15.7521 12.7225" fill="#7C2D00"/>
<path d="M18.5703 5.21203C18.202 4.54964 17.8341 3.88725 17.4659 3.22486C17.2648 2.86316 17.0586 2.49496 16.7554 2.2134C15.9001 1.41961 14.5632 1.53079 13.4739 1.11061C12.6396 0.788617 11.924 0.141025 11.0377 0.0204588C9.98128 -0.12321 8.99385 0.515721 8.11943 1.12505C7.73095 1.39578 7.33562 1.67301 7.05149 2.05168C6.51896 2.76172 6.45687 3.7165 6.52402 4.60126C6.54351 4.85972 6.57312 5.1189 6.64641 5.36761C6.87891 6.15454 7.53924 6.75918 8.28045 7.11186C9.02165 7.46417 9.84481 7.59881 10.6568 7.71866C11.6709 7.8681 12.6963 8.00167 13.7187 7.9273C14.7412 7.85294 15.7712 7.55694 16.5788 6.92523C16.7499 6.79131 16.9261 6.58952 16.8586 6.38304" fill="#15BB28"/>
<path style="mix-blend-mode:multiply" opacity="0.25" fill-rule="evenodd" clip-rule="evenodd" d="M13.268 14.5022C13.2456 14.5151 13.2232 14.5281 13.2007 14.541C13.0059 14.6532 12.8109 14.7656 12.6099 14.8627C12.0041 15.1544 11.302 15.2949 10.6367 15.2269C10.6593 14.3882 10.6998 13.7615 10.7823 13.5289C11.1582 12.4694 13.5161 12.5542 13.5161 12.5542C13.5161 12.5542 13.3215 13.3317 13.268 14.5022Z" fill="#15BB28"/>
<path d="M4.39031 8.17886C4.78239 8.81959 4.39248 9.62529 4.66867 10.527C4.9954 11.6042 5.60447 11.7829 6.22906 12.2016C6.82621 12.6015 7.58907 12.6633 8.19814 13.0434C8.70972 13.3643 9.06895 13.8635 9.55454 14.2198C10.4355 14.8678 11.6868 14.8165 12.6695 14.3422C13.2421 14.0649 13.7624 13.6563 14.3852 13.5152C14.7906 13.4239 15.2163 13.4524 15.6217 13.3636C16.1102 13.2553 16.56 12.9737 16.8669 12.5828C17.2785 12.059 17.4496 11.35 17.9547 10.9172C18.4981 10.449 19.3913 10.1368 20.0299 8.5882C20.4581 7.55075 20.0491 5.75129 19.5819 5.1517C19.2768 4.55501 18.6609 4.18284 18.036 3.9482C17.411 3.71357 16.7496 3.5829 16.1384 3.31108C15.0798 2.83459 14.2397 1.95453 13.1696 1.50006C11.6922 0.871957 9.93363 1.16218 8.55953 1.99279C8.15806 2.23392 7.7797 2.5209 7.35476 2.72088C6.74064 3.00677 4.66614 3.62404 4.14011 5.54047C3.84118 6.63604 4.06574 7.64461 4.39103 8.17886H4.39031Z" fill="#15BB28"/>
<path style="mix-blend-mode:multiply" opacity="0.25" d="M4.92211 7.37093C4.93619 7.30054 4.94702 7.22979 4.97591 7.16229C5.16473 6.71828 5.63877 6.4786 6.07634 6.27573C6.17238 6.23133 6.27419 6.18548 6.37961 6.19379C6.4594 6.20028 6.53305 6.23674 6.60381 6.2732C6.95004 6.45261 7.29086 6.65656 7.55586 6.94245C7.80461 7.21066 7.97791 7.54167 8.22738 7.8088C8.60791 8.21598 9.19459 8.45639 9.73687 8.32716C10.1058 8.23908 10.4163 7.99759 10.7579 7.83226C11.216 7.61026 11.7395 7.52651 12.2439 7.59438C12.3497 7.60882 12.4558 7.62976 12.5515 7.67704C12.7804 7.79003 12.9118 8.02971 13.0551 8.24053C13.4021 8.75239 13.9064 9.13647 14.4726 9.3823C15.769 9.03504 17.5753 9.48662 18.736 8.30334C20.0527 6.96123 19.5823 5.15092 19.5823 5.15092C20.0494 5.75051 20.4585 7.54998 20.0303 8.58742C19.3916 10.136 18.4981 10.4483 17.9551 10.9165C17.4504 11.3493 17.2792 12.0582 16.8677 12.582C16.5608 12.9729 16.1109 13.2545 15.6224 13.3628C15.217 13.4516 14.7913 13.4231 14.3859 13.5144C13.7631 13.6555 13.2429 14.0642 12.6703 14.3414C11.6875 14.8157 10.4362 14.867 9.55526 14.219C9.06967 13.8631 8.71081 13.3639 8.19886 13.0426C7.5898 12.6629 6.82693 12.6008 6.22978 12.2008C5.60519 11.7821 4.99613 11.6034 4.66939 10.5262C4.39356 9.62451 4.78312 8.81918 4.39103 8.17808C4.06574 7.64383 3.84118 6.6349 4.14011 5.5397C4.1921 6.50856 4.4423 6.96989 4.92211 7.37021V7.37093Z" fill="#13A824"/>
</svg>
