<svg width="124" height="124" viewBox="0 0 124 124" fill="none" xmlns="http://www.w3.org/2000/svg">
<g clip-path="url(#clip0_2320_143444)">
<rect width="124" height="124" rx="12" fill="white"/>
<rect width="124" height="124" fill="#D9D9D9"/>
<path d="M127 -10.9853V95.9487H-12V-10.9853C-12 -10.9853 49.8977 -1.03788 71.8843 -1.03788C93.8709 -1.03788 113.977 -15.9578 127 -10.9853Z" fill="#8CDF96"/>
<path d="M127 107.877L-12 95.9487V124.426H127V107.877Z" fill="#8CDF96"/>
<path d="M127 19.5751V36.0458C115.242 37.5251 59.9334 44.4303 47.6599 44.4303C36.0372 44.4303 -0.850039 48.8707 -12 50.2522V11.1787C-0.273445 11.8373 40.8483 14.3879 68.0687 19.0407C93.6113 23.419 118.123 20.8063 127 19.5751Z" fill="#A2E7AA"/>
<path d="M127 64.184V108.325L-12 96.3408V71.8803C0.19191 69.6169 80.2106 54.9445 90.4688 57.2436C99.6776 59.3067 120.238 62.9891 127 64.1816V64.184Z" fill="#A2E7AA"/>
<path d="M31.786 84.1237C29.1874 80.1434 23.8555 80.2318 20.5254 83.2183C18.4864 85.0458 17.4281 87.6636 16.2623 90.0743C14.9288 92.8274 13.5952 95.5804 12.2596 98.3322C12.0649 98.7347 11.9482 99.1358 11.8974 99.5278C-1.47155 112.381 -16.4307 123.408 -32.712 132.311C-36.7366 134.511 -33.5112 140.884 -29.484 138.68C-11.6496 128.928 4.76209 116.708 19.189 102.368C23.1345 102.091 26.5348 99.3164 29.2374 96.5508C32.4712 93.2411 34.5983 88.4313 31.786 84.1237Z" fill="#3A285B"/>
<path d="M111.956 35.6039C111.874 35.9338 111.672 36.2183 111.457 36.4821C109.64 38.6586 106.72 39.4531 103.989 40.137C101.754 40.6922 99.5018 41.5116 97.2429 41.8549C94.6692 42.2473 92.4309 41.7194 89.9256 41.7194C87.1977 41.0184 84.7404 39.6229 81.9714 39.0538C80.9891 38.8488 72.9154 38.0752 73.0007 35.77C73.0075 35.4748 73.1512 35.1555 73.456 34.8122C73.7881 34.4374 74.2398 34.2014 74.6815 33.9724C77.9501 32.2854 80.7907 31.5182 84.3777 31.0741C91.1954 30.2375 98.1262 29.4046 104.893 30.5882C107.309 31.0116 109.736 31.6853 111.345 33.705C111.547 33.9585 111.732 34.25 111.855 34.5517C111.988 34.8918 112.046 35.2495 111.957 35.6034L111.956 35.6039Z" fill="#6A2F02"/>
<path d="M112.033 35.7701C111.95 36.0802 111.748 36.3476 111.533 36.5954C109.716 38.6408 106.796 39.3874 104.065 40.0301C101.83 40.5519 99.5776 41.3219 97.3187 41.6446C94.7449 42.0133 92.5065 41.5172 90.0012 41.5172C87.2732 40.8584 84.8158 39.547 82.0468 39.0122C81.0645 38.8195 72.9905 38.0925 73.0758 35.9262C73.0964 35.9623 73.1238 35.998 73.1512 36.0306C73.7228 36.6928 74.4656 37.159 75.3348 37.3907C75.9516 37.556 76.5795 37.5551 77.1804 37.7225C77.8634 37.9129 78.4519 38.0908 79.1797 37.9969C79.7331 37.9255 80.2633 37.7355 80.8154 37.6551C82.811 37.3642 84.7675 38.523 86.7828 38.413C86.4219 38.4699 86.274 38.9343 86.4273 39.2509C86.5806 39.5674 86.9215 39.7575 87.25 39.9109C89.4929 40.9597 91.7437 40.8319 94.1646 40.9137C96.3468 40.9871 99.386 41.2559 101.263 39.9879C101.456 39.857 101.659 39.6692 101.627 39.4453C101.615 39.3661 101.576 39.2796 101.622 39.2126C101.644 39.1809 101.68 39.1622 101.716 39.1452C102.38 38.8339 103.177 38.9104 103.871 38.666C105.18 38.2051 106.577 38.0903 107.928 37.6294C108.522 37.9238 109.328 37.7407 109.719 37.2233C109.838 37.065 109.92 36.8846 110.023 36.7163C110.271 36.3102 110.654 36.1215 110.975 35.7919C111.251 35.5079 111.419 35.1666 111.742 34.9083C111.8 34.8627 111.865 34.817 111.93 34.7809C112.064 35.1005 112.122 35.4375 112.033 35.7701Z" fill="#9F7B45"/>
<path d="M101.652 36.3542C101.671 36.4287 101.68 36.504 101.699 36.5785C99.1853 35.4476 96.7673 33.3542 95.0757 31.2142C94.6549 31.943 93.8334 32.3265 93.2498 32.9437C90.6215 35.6542 87.4581 37.2897 83.7017 37.9999C85.499 36.0089 85.8427 34.1398 85.9864 31.4953C83.6922 32.832 81.6569 33.5422 79 33.8689C82.7374 30.7758 85.4419 26.5136 86.6366 21.8688C86.6937 21.8502 86.7508 21.8502 86.8089 21.8316C90.4692 21.0273 93.9771 20.8133 97.5613 21.2517C98.7179 21.3922 99.8745 21.5979 101.05 21.8781C101.069 22.028 101.098 22.1769 101.136 22.3174C102.188 27.4202 106.565 32.2521 111 35.0743C108.085 34.271 104.329 34.1863 101.414 33.383C101.27 34.4199 101.461 35.3461 101.653 36.3551L101.652 36.3542Z" fill="#602A00"/>
<path d="M101.535 36.4572C100.422 35.5932 99.7937 34.2599 99.3002 32.9462C98.0713 29.7167 96.4549 24.8537 97.3648 21.3988C97.3745 21.3614 97.3841 21.324 97.3938 21.2856C98.5648 21.4268 99.7359 21.6335 100.926 21.9149C100.945 22.0654 100.974 22.215 101.013 22.3562C102.078 27.482 106.51 32.3356 111 35.1706C108.049 34.3637 104.246 34.2786 101.294 33.4717C101.149 34.5133 101.342 35.4436 101.535 36.4572Z" fill="#482001"/>
<path d="M100.833 21.9286C100.833 22.087 100.71 22.2886 100.359 22.5102C100.018 22.7256 99.5119 22.927 98.8683 23.0991C97.5842 23.4424 95.7991 23.6572 93.8196 23.6572C91.84 23.6572 90.0549 23.4424 88.7708 23.0991C88.1273 22.927 87.6209 22.7256 87.2802 22.5102C86.9295 22.2886 86.8064 22.087 86.8064 21.9286C86.8064 21.7701 86.9295 21.5686 87.2802 21.3469C87.6209 21.1315 88.1273 20.9301 88.7708 20.7581C90.0549 20.4147 91.84 20.2 93.8196 20.2C95.7991 20.2 97.5842 20.4147 98.8683 20.7581C99.5119 20.9301 100.018 21.1315 100.359 21.3469C100.71 21.5686 100.833 21.7701 100.833 21.9286Z" fill="#AD501A" stroke="#602A00" stroke-width="0.4"/>
<path d="M98.9965 21.9286C98.9965 21.9411 98.9915 21.9723 98.9423 22.024C98.8922 22.0767 98.8084 22.1371 98.6832 22.2008C98.4334 22.3279 98.0589 22.4482 97.5795 22.5513C96.624 22.757 95.2945 22.8858 93.8194 22.8858C92.3444 22.8858 91.0149 22.757 90.0594 22.5513C89.58 22.4482 89.2054 22.3279 88.9556 22.2008C88.8304 22.1371 88.7466 22.0767 88.6966 22.024C88.6473 21.9723 88.6424 21.9411 88.6424 21.9286C88.6424 21.9162 88.6473 21.885 88.6966 21.8332C88.7466 21.7806 88.8304 21.7202 88.9556 21.6565C89.2054 21.5294 89.58 21.4091 90.0594 21.3059C91.0149 21.1003 92.3444 20.9715 93.8194 20.9715C95.2945 20.9715 96.624 21.1003 97.5795 21.3059C98.0589 21.4091 98.4334 21.5294 98.6832 21.6565C98.8084 21.7202 98.8922 21.7806 98.9423 21.8332C98.9915 21.885 98.9965 21.9162 98.9965 21.9286Z" stroke="#602A00" stroke-width="0.4"/>
<path d="M96.2606 21.8534C96.3164 21.8842 96.3486 21.9104 96.3652 21.9285C96.3486 21.9467 96.3164 21.9728 96.2606 22.0036C96.1443 22.0678 95.9629 22.132 95.7215 22.1883C95.242 22.3002 94.5694 22.3714 93.8195 22.3714C93.0696 22.3714 92.3971 22.3002 91.9175 22.1883C91.6762 22.132 91.4947 22.0678 91.3785 22.0036C91.3227 21.9728 91.2904 21.9467 91.2738 21.9285C91.2904 21.9104 91.3227 21.8842 91.3785 21.8534C91.4947 21.7892 91.6762 21.725 91.9175 21.6687C92.3971 21.5568 93.0696 21.4856 93.8195 21.4856C94.5694 21.4856 95.242 21.5568 95.7215 21.6687C95.9629 21.725 96.1443 21.7892 96.2606 21.8534Z" stroke="#602A00" stroke-width="0.4"/>
<path d="M90.376 101.296C90.2386 101.848 89.9003 102.325 89.54 102.766C86.4989 106.408 81.6131 107.738 77.0427 108.882C73.3022 109.812 69.5336 111.183 65.7534 111.757C61.4464 112.414 57.7006 111.53 53.5081 111.53C48.9431 110.357 44.8307 108.022 40.197 107.07C38.5531 106.727 25.0419 105.432 25.1847 101.574C25.1962 101.08 25.4367 100.546 25.9467 99.9715C26.5025 99.3443 27.2584 98.9494 27.9975 98.5661C33.4674 95.743 38.221 94.4592 44.2238 93.7159C55.633 92.3159 67.2315 90.9221 78.5552 92.9028C82.5988 93.6113 86.66 94.7387 89.3521 98.1186C89.6904 98.5429 89.9996 99.0307 90.2058 99.5356C90.4295 100.105 90.5264 100.703 90.3775 101.296L90.376 101.296Z" fill="#6A2F02"/>
<path d="M90.5035 101.575C90.366 102.093 90.0278 102.541 89.6674 102.956C86.6263 106.379 81.7404 107.628 77.1699 108.704C73.4293 109.577 69.6606 110.865 65.8803 111.405C61.5732 112.022 57.8273 111.192 53.6347 111.192C49.0696 110.09 44.9571 107.895 40.3233 107C38.6794 106.678 25.1679 105.461 25.3107 101.836C25.345 101.896 25.3909 101.956 25.4367 102.01C26.3934 103.119 27.6364 103.899 29.0909 104.287C30.1232 104.563 31.1739 104.562 32.1794 104.842C33.3225 105.161 34.3074 105.458 35.5252 105.301C36.4514 105.182 37.3386 104.864 38.2625 104.729C41.6022 104.242 44.8762 106.181 48.2487 105.997C47.6448 106.093 47.3974 106.87 47.654 107.4C47.9105 107.929 48.4809 108.247 49.0306 108.504C52.7842 110.259 56.5507 110.045 60.602 110.182C64.254 110.305 69.3398 110.755 72.481 108.633C72.8048 108.414 73.143 108.1 73.0896 107.725C73.0705 107.592 73.0056 107.448 73.082 107.336C73.1178 107.282 73.1789 107.251 73.2384 107.223C74.3502 106.702 75.6833 106.83 76.8454 106.421C79.036 105.65 81.3731 105.457 83.6355 104.686C84.6281 105.179 85.978 104.872 86.6316 104.006C86.8309 103.742 86.9676 103.44 87.1401 103.158C87.5563 102.478 88.1968 102.163 88.7336 101.611C89.1963 101.136 89.4766 100.565 90.0171 100.132C90.1141 100.056 90.2233 99.9796 90.3317 99.9192C90.5554 100.454 90.6524 101.018 90.5035 101.575Z" fill="#9F7B45"/>
<path d="M73.1317 102.552C73.1636 102.676 73.1795 102.802 73.2113 102.927C69.004 101.034 64.9576 97.5312 62.1268 93.9501C61.4226 95.1698 60.0478 95.8115 59.0712 96.8443C54.6728 101.38 49.379 104.117 43.0928 105.306C46.1005 101.974 46.6757 98.8459 46.9162 94.4205C43.0769 96.6574 39.6709 97.8459 35.2246 98.3926C41.479 93.2164 46.0049 86.0837 48.0042 78.3108C48.0998 78.2797 48.1954 78.2796 48.2925 78.2485C54.4179 76.9026 60.2884 76.5444 66.2863 77.2781C68.2219 77.5133 70.1574 77.8575 72.1249 78.3264C72.1567 78.5772 72.2046 78.8264 72.2683 79.0616C74.0286 87.6009 81.3535 95.6869 88.7756 100.41C83.8977 99.0655 77.6114 98.9238 72.7334 97.5795C72.4929 99.3148 72.8131 100.865 73.1333 102.553L73.1317 102.552Z" fill="#602A00"/>
<path d="M72.9365 102.725C71.0735 101.279 70.0218 99.0475 69.196 96.849C67.1395 91.4445 64.4345 83.3064 65.9572 77.5248C65.9733 77.4622 65.9895 77.3996 66.0056 77.3354C67.9653 77.5717 69.925 77.9175 71.917 78.3885C71.9493 78.6404 71.9977 78.8908 72.0623 79.127C73.8446 87.7048 81.2609 95.8273 88.7757 100.572C83.8368 99.2212 77.4721 99.0787 72.5332 97.7284C72.2897 99.4715 72.6123 101.028 72.9365 102.725Z" fill="#482001"/>
<path d="M71.8955 78.411C71.8955 78.7488 71.6365 79.1212 71.04 79.4982C70.4534 79.869 69.5914 80.2104 68.5083 80.5C66.3451 81.0783 63.3456 81.4385 60.0245 81.4385C56.7035 81.4385 53.704 81.0783 51.5408 80.5C50.4577 80.2104 49.5956 79.869 49.0091 79.4982C48.4126 79.1212 48.1536 78.7488 48.1536 78.411C48.1536 78.0732 48.4126 77.7009 49.0091 77.3238C49.5956 76.953 50.4577 76.6117 51.5408 76.3221C53.704 75.7437 56.7035 75.3836 60.0245 75.3836C63.3456 75.3836 66.3451 75.7437 68.5083 76.3221C69.5914 76.6117 70.4534 76.953 71.04 77.3238C71.6365 77.7009 71.8955 78.0732 71.8955 78.411Z" fill="#AD501A" stroke="#602A00" stroke-width="0.4"/>
<path d="M68.823 78.4116C68.823 78.4778 68.7927 78.5615 68.6953 78.664C68.597 78.7674 68.442 78.8767 68.2252 78.9871C67.7921 79.2074 67.1525 79.4116 66.3454 79.5853C64.7346 79.932 62.4997 80.148 60.0247 80.148C57.5497 80.148 55.3148 79.932 53.704 79.5853C52.8969 79.4116 52.2573 79.2074 51.8242 78.9871C51.6074 78.8767 51.4524 78.7674 51.3541 78.664C51.2567 78.5615 51.2264 78.4778 51.2264 78.4116C51.2264 78.3453 51.2567 78.2616 51.3541 78.1591C51.4524 78.0557 51.6074 77.9464 51.8242 77.8361C52.2573 77.6157 52.8969 77.4115 53.704 77.2378C55.3148 76.8911 57.5497 76.6751 60.0247 76.6751C62.4997 76.6751 64.7346 76.8911 66.3454 77.2378C67.1525 77.4115 67.7921 77.6157 68.2252 77.8361C68.442 77.9464 68.597 78.0557 68.6953 78.1591C68.7927 78.2616 68.823 78.3453 68.823 78.4116Z" stroke="#602A00" stroke-width="0.4"/>
<path d="M64.4338 78.4113C64.4338 78.4236 64.4293 78.4511 64.3898 78.4962C64.3491 78.5426 64.2801 78.5969 64.175 78.6549C63.9649 78.7708 63.6476 78.8817 63.2384 78.9772C62.4232 79.1675 61.287 79.2871 60.0249 79.2871C58.7628 79.2871 57.6266 79.1675 56.8114 78.9772C56.4022 78.8817 56.0849 78.7708 55.8748 78.6549C55.7697 78.5969 55.7007 78.5426 55.66 78.4962C55.6205 78.4511 55.616 78.4236 55.616 78.4113C55.616 78.3989 55.6205 78.3714 55.66 78.3263C55.7007 78.2799 55.7697 78.2256 55.8748 78.1676C56.0849 78.0517 56.4022 77.9408 56.8114 77.8453C57.6266 77.655 58.7628 77.5354 60.0249 77.5354C61.287 77.5354 62.4232 77.655 63.2384 77.8453C63.6476 77.9408 63.9649 78.0517 64.175 78.1676C64.2801 78.2256 64.3491 78.2799 64.3898 78.3263C64.4293 78.3714 64.4338 78.3989 64.4338 78.4113Z" stroke="#602A00" stroke-width="0.4"/>
</g>
<defs>
<clipPath id="clip0_2320_143444">
<rect width="124" height="124" rx="12" fill="white"/>
</clipPath>
</defs>
</svg>
