<svg width="124" height="124" viewBox="0 0 124 124" fill="none" xmlns="http://www.w3.org/2000/svg">
<g clip-path="url(#clip0_2246_95382)">
<rect width="124" height="124" rx="12" fill="white"/>
<rect width="124" height="124" fill="#F0F5FF"/>
<g filter="url(#filter0_d_2246_95382)">
<path fill-rule="evenodd" clip-rule="evenodd" d="M25 74C31.6274 74 37 68.6274 37 62C37 55.3726 31.6274 50 25 50C18.3726 50 13 55.3726 13 62C13 68.6274 18.3726 74 25 74ZM26.4219 55.8744C26.4219 54.9497 25.6765 54.2 24.7571 54.2C23.8376 54.2 23.0923 54.9497 23.0923 55.8744L22.6048 62.5181C22.5625 63.0952 22.8022 63.6573 23.2491 64.0288L28.158 68.1096C28.8082 68.7635 29.8622 68.7635 30.5124 68.1096C31.1625 67.4557 31.1625 66.3955 30.5124 65.7416L26.5961 61.8026C26.4845 61.6904 26.4219 61.5389 26.4219 61.3812V55.8744Z" fill="#D49DD6"/>
</g>
<path d="M52.348 70.22C51.292 70.22 50.3827 70.0733 49.62 69.78C48.872 69.472 48.2487 69.054 47.75 68.526C47.266 67.9833 46.8993 67.36 46.65 66.656C46.4153 65.9373 46.276 65.1747 46.232 64.368C46.2173 63.972 46.2027 63.532 46.188 63.048C46.188 62.5493 46.188 62.0507 46.188 61.552C46.2027 61.0533 46.2173 60.5987 46.232 60.188C46.2613 59.3813 46.4007 58.626 46.65 57.922C46.914 57.218 47.2953 56.602 47.794 56.074C48.2927 55.546 48.916 55.1353 49.664 54.842C50.4267 54.534 51.3213 54.38 52.348 54.38C53.3747 54.38 54.262 54.534 55.01 54.842C55.758 55.1353 56.3813 55.546 56.88 56.074C57.3787 56.602 57.7527 57.218 58.002 57.922C58.266 58.626 58.42 59.3813 58.464 60.188C58.4787 60.5987 58.486 61.0533 58.486 61.552C58.5007 62.0507 58.5007 62.5493 58.486 63.048C58.486 63.532 58.4787 63.972 58.464 64.368C58.42 65.1747 58.2733 65.9373 58.024 66.656C57.7747 67.36 57.4007 67.9833 56.902 68.526C56.418 69.054 55.7947 69.472 55.032 69.78C54.284 70.0733 53.3893 70.22 52.348 70.22ZM52.348 67.36C53.1987 67.36 53.822 67.0813 54.218 66.524C54.614 65.9667 54.8267 65.2113 54.856 64.258C54.8707 63.8327 54.878 63.3927 54.878 62.938C54.8927 62.4833 54.8927 62.0287 54.878 61.574C54.878 61.1193 54.8707 60.694 54.856 60.298C54.8267 59.3887 54.614 58.648 54.218 58.076C53.822 57.504 53.1987 57.2107 52.348 57.196C51.4827 57.2107 50.852 57.504 50.456 58.076C50.0747 58.648 49.8693 59.3887 49.84 60.298C49.8253 60.694 49.8107 61.1193 49.796 61.574C49.796 62.0287 49.796 62.4833 49.796 62.938C49.8107 63.3927 49.8253 63.8327 49.84 64.258C49.8693 65.2113 50.082 65.9667 50.478 66.524C50.874 67.0813 51.4973 67.36 52.348 67.36ZM68.1433 70.22C67.0873 70.22 66.178 70.0733 65.4153 69.78C64.6673 69.472 64.044 69.054 63.5453 68.526C63.0613 67.9833 62.6946 67.36 62.4453 66.656C62.2106 65.9373 62.0713 65.1747 62.0273 64.368C62.0126 63.972 61.998 63.532 61.9833 63.048C61.9833 62.5493 61.9833 62.0507 61.9833 61.552C61.998 61.0533 62.0126 60.5987 62.0273 60.188C62.0566 59.3813 62.196 58.626 62.4453 57.922C62.7093 57.218 63.0906 56.602 63.5893 56.074C64.088 55.546 64.7113 55.1353 65.4593 54.842C66.222 54.534 67.1166 54.38 68.1433 54.38C69.17 54.38 70.0573 54.534 70.8053 54.842C71.5533 55.1353 72.1766 55.546 72.6753 56.074C73.174 56.602 73.548 57.218 73.7973 57.922C74.0613 58.626 74.2153 59.3813 74.2593 60.188C74.274 60.5987 74.2813 61.0533 74.2813 61.552C74.296 62.0507 74.296 62.5493 74.2813 63.048C74.2813 63.532 74.274 63.972 74.2593 64.368C74.2153 65.1747 74.0686 65.9373 73.8193 66.656C73.57 67.36 73.196 67.9833 72.6973 68.526C72.2133 69.054 71.59 69.472 70.8273 69.78C70.0793 70.0733 69.1846 70.22 68.1433 70.22ZM68.1433 67.36C68.994 67.36 69.6173 67.0813 70.0133 66.524C70.4093 65.9667 70.622 65.2113 70.6513 64.258C70.666 63.8327 70.6733 63.3927 70.6733 62.938C70.688 62.4833 70.688 62.0287 70.6733 61.574C70.6733 61.1193 70.666 60.694 70.6513 60.298C70.622 59.3887 70.4093 58.648 70.0133 58.076C69.6173 57.504 68.994 57.2107 68.1433 57.196C67.278 57.2107 66.6473 57.504 66.2513 58.076C65.87 58.648 65.6646 59.3887 65.6353 60.298C65.6206 60.694 65.606 61.1193 65.5913 61.574C65.5913 62.0287 65.5913 62.4833 65.5913 62.938C65.606 63.3927 65.6206 63.8327 65.6353 64.258C65.6646 65.2113 65.8773 65.9667 66.2733 66.524C66.6693 67.0813 67.2926 67.36 68.1433 67.36ZM78.4606 62.3C78.2993 62.3 78.1673 62.2487 78.0646 62.146C77.962 62.0433 77.9106 61.9113 77.9106 61.75V59.396C77.9106 59.2347 77.962 59.1027 78.0646 59C78.1673 58.8973 78.2993 58.846 78.4606 58.846H80.9246C81.086 58.846 81.218 58.8973 81.3206 59C81.4233 59.1027 81.4746 59.2347 81.4746 59.396V61.75C81.4746 61.9113 81.4233 62.0433 81.3206 62.146C81.218 62.2487 81.086 62.3 80.9246 62.3H78.4606ZM78.4606 70C78.2993 70 78.1673 69.9487 78.0646 69.846C77.962 69.7433 77.9106 69.6113 77.9106 69.45V67.096C77.9106 66.9347 77.962 66.8027 78.0646 66.7C78.1673 66.5973 78.2993 66.546 78.4606 66.546H80.9246C81.086 66.546 81.218 66.5973 81.3206 66.7C81.4233 66.8027 81.4746 66.9347 81.4746 67.096V69.45C81.4746 69.6113 81.4233 69.7433 81.3206 69.846C81.218 69.9487 81.086 70 80.9246 70H78.4606ZM91.2691 70.22C90.2131 70.22 89.3038 70.0733 88.5411 69.78C87.7931 69.472 87.1698 69.054 86.6711 68.526C86.1871 67.9833 85.8204 67.36 85.5711 66.656C85.3364 65.9373 85.1971 65.1747 85.1531 64.368C85.1384 63.972 85.1238 63.532 85.1091 63.048C85.1091 62.5493 85.1091 62.0507 85.1091 61.552C85.1238 61.0533 85.1384 60.5987 85.1531 60.188C85.1824 59.3813 85.3218 58.626 85.5711 57.922C85.8351 57.218 86.2164 56.602 86.7151 56.074C87.2138 55.546 87.8371 55.1353 88.5851 54.842C89.3478 54.534 90.2424 54.38 91.2691 54.38C92.2958 54.38 93.1831 54.534 93.9311 54.842C94.6791 55.1353 95.3024 55.546 95.8011 56.074C96.2998 56.602 96.6738 57.218 96.9231 57.922C97.1871 58.626 97.3411 59.3813 97.3851 60.188C97.3998 60.5987 97.4071 61.0533 97.4071 61.552C97.4218 62.0507 97.4218 62.5493 97.4071 63.048C97.4071 63.532 97.3998 63.972 97.3851 64.368C97.3411 65.1747 97.1944 65.9373 96.9451 66.656C96.6958 67.36 96.3218 67.9833 95.8231 68.526C95.3391 69.054 94.7158 69.472 93.9531 69.78C93.2051 70.0733 92.3104 70.22 91.2691 70.22ZM91.2691 67.36C92.1198 67.36 92.7431 67.0813 93.1391 66.524C93.5351 65.9667 93.7478 65.2113 93.7771 64.258C93.7918 63.8327 93.7991 63.3927 93.7991 62.938C93.8138 62.4833 93.8138 62.0287 93.7991 61.574C93.7991 61.1193 93.7918 60.694 93.7771 60.298C93.7478 59.3887 93.5351 58.648 93.1391 58.076C92.7431 57.504 92.1198 57.2107 91.2691 57.196C90.4038 57.2107 89.7731 57.504 89.3771 58.076C88.9958 58.648 88.7904 59.3887 88.7611 60.298C88.7464 60.694 88.7318 61.1193 88.7171 61.574C88.7171 62.0287 88.7171 62.4833 88.7171 62.938C88.7318 63.3927 88.7464 63.8327 88.7611 64.258C88.7904 65.2113 89.0031 65.9667 89.3991 66.524C89.7951 67.0813 90.4184 67.36 91.2691 67.36ZM105.81 70C105.664 70 105.532 69.9487 105.414 69.846C105.312 69.7433 105.26 69.6113 105.26 69.45V58.516L102.092 60.958C101.96 61.0607 101.821 61.0973 101.674 61.068C101.542 61.0387 101.425 60.958 101.322 60.826L100.222 59.396C100.134 59.264 100.098 59.1247 100.112 58.978C100.142 58.8313 100.222 58.714 100.354 58.626L105.37 54.754C105.458 54.6953 105.539 54.6587 105.612 54.644C105.7 54.6147 105.796 54.6 105.898 54.6H108.23C108.377 54.6 108.502 54.6513 108.604 54.754C108.707 54.8567 108.758 54.9887 108.758 55.15V69.45C108.758 69.6113 108.707 69.7433 108.604 69.846C108.502 69.9487 108.377 70 108.23 70H105.81Z" fill="#BB3A29"/>
</g>
<defs>
<filter id="filter0_d_2246_95382" x="13" y="50" width="24" height="25" filterUnits="userSpaceOnUse" color-interpolation-filters="sRGB">
<feFlood flood-opacity="0" result="BackgroundImageFix"/>
<feColorMatrix in="SourceAlpha" type="matrix" values="0 0 0 0 0 0 0 0 0 0 0 0 0 0 0 0 0 0 127 0" result="hardAlpha"/>
<feOffset dy="1"/>
<feComposite in2="hardAlpha" operator="out"/>
<feColorMatrix type="matrix" values="0 0 0 0 0.670909 0 0 0 0 0.505135 0 0 0 0 0.676937 0 0 0 1 0"/>
<feBlend mode="normal" in2="BackgroundImageFix" result="effect1_dropShadow_2246_95382"/>
<feBlend mode="normal" in="SourceGraphic" in2="effect1_dropShadow_2246_95382" result="shape"/>
</filter>
<clipPath id="clip0_2246_95382">
<rect width="124" height="124" rx="12" fill="white"/>
</clipPath>
</defs>
</svg>
