<svg width="64" height="64" viewBox="0 0 64 64" fill="none" xmlns="http://www.w3.org/2000/svg">
<g clip-path="url(#clip0_2600_112605)">
<rect width="64" height="64" fill="#F0F5FF"/>
<path d="M66.0645 -5.66966V49.5221H-3.61279V-5.66966C-3.61279 -5.66966 27.415 -0.535491 38.4364 -0.535491C49.4578 -0.535491 59.5367 -8.23612 66.0645 -5.66966Z" fill="#8CDF96"/>
<path d="M66.0646 55.6785L-3.61279 49.522V64.2199H66.0646V55.6785Z" fill="#8CDF96"/>
<path d="M66.0646 10.1037V18.6046C60.1706 19.3682 32.4457 22.9321 26.2933 22.9321C20.4671 22.9321 1.97642 25.2239 -3.61279 25.937V5.77002C2.26545 6.10991 22.8788 7.4264 36.5238 9.82781C49.3277 12.0876 61.6148 10.7391 66.0646 10.1037Z" fill="#A2E7AA"/>
<path d="M66.0646 32.8924V55.6751L-3.61279 49.4895V36.8647C2.49872 35.6965 42.6102 28.1237 47.7524 29.3103C52.3685 30.3751 62.6752 32.2757 66.0646 32.8912V32.8924Z" fill="#A2E7AA"/>
<path d="M34.0612 63.5058C34.0612 63.5058 33.8678 63.3242 33.5796 63.3326C33.5796 63.3326 33.4723 63.2473 33.4214 63.2686C33.4214 63.2686 33.4689 63.2517 33.3278 63.0376L32.6443 40.3505L32.4831 34.9985H32.1487H32.0005H31.6961L30.8516 63.0335C30.8105 63.1029 30.7498 63.2208 30.7217 63.3526C30.7217 63.3526 30.2588 63.4822 30.1106 63.7756C30.1106 63.7756 30.1026 63.7821 30.0937 63.7914C30.0535 63.8335 29.9943 63.9339 30.5606 63.7667C30.5606 63.7667 30.7284 63.8807 31.2779 63.8166C31.2779 63.8166 31.0938 64.0472 31.3224 63.9315C31.5509 63.8157 31.8919 63.8816 31.8919 63.8816C31.8919 63.8816 32.0455 63.9231 32.1832 63.88C32.1832 63.88 32.1665 64.0964 32.3412 63.9455C32.4244 63.8737 32.4548 63.8451 32.4645 63.8342C32.497 63.8567 32.7458 64.0239 32.826 63.9157L32.8499 63.8622C32.8499 63.8622 32.9643 63.9346 33.239 63.8778C33.5136 63.821 33.595 63.8516 33.595 63.8516C33.595 63.8516 33.7139 63.899 33.668 63.7044C33.668 63.7044 33.8003 63.6406 33.9795 63.6517C34.213 63.7158 34.0612 63.5058 34.0612 63.5058Z" fill="#7A4A23"/>
<path d="M31.6723 51.6722C31.6723 51.6722 27.0878 51.8621 27.7049 47.4316L26.5594 47.7977C26.5594 47.7977 26.1345 51.7995 31.6236 52.6645L31.6723 51.6722Z" fill="#7A4A23"/>
<path d="M31.4497 54.2811C31.4497 54.2811 27.8638 53.1189 29.6035 49.8817L28.6166 49.8369C28.6166 49.8369 27.1471 52.7986 31.1289 55.0319L31.4497 54.2811Z" fill="#7A4A23"/>
<path d="M29.0476 52.5841C29.0476 52.5841 26.5532 53.1316 26.4626 50.644L25.8704 50.9552C25.8704 50.9552 26.0246 53.1896 29.1168 53.1326L29.0476 52.5841Z" fill="#7A4A23"/>
<path d="M32.6897 54.2811C32.6897 54.2811 36.2756 53.1189 34.5359 49.8817L35.5228 49.8369C35.5228 49.8369 36.9707 52.755 33.0979 54.9823C33.0691 54.9989 33.0399 55.0154 33.0105 55.0319L32.6897 54.2811Z" fill="#7A4A23"/>
<path d="M35.0915 52.5843C35.0915 52.5843 37.7543 52.7649 37.8449 50.2773L38.4117 50.4865C38.4117 50.4865 38.1145 53.1899 35.0222 53.1328L35.0915 52.5843Z" fill="#7A4A23"/>
<path d="M28.9627 42.9684C28.8418 42.9123 28.7146 42.8883 28.5899 42.8912C28.7463 42.7172 28.8423 42.488 28.8423 42.2356C28.8423 41.6933 28.4026 41.2536 27.8603 41.2536C27.7468 41.2536 27.6382 41.2739 27.5367 41.3094C27.3556 40.8653 26.9199 40.5522 26.4107 40.5522C25.7393 40.5522 25.195 41.0965 25.195 41.768C25.195 41.905 25.218 42.0367 25.2598 42.1597C25.1931 42.1483 25.1246 42.1421 25.0546 42.1421C24.3832 42.1421 23.8389 42.6864 23.8389 43.3579C23.8389 43.8332 24.1119 44.2446 24.5096 44.4445C24.0019 44.6906 23.6519 45.2107 23.6519 45.8128C23.6519 46.652 24.3323 47.3325 25.1716 47.3325C25.3191 47.3325 25.4614 47.311 25.5963 47.2719C25.7733 47.7704 26.249 48.1274 26.8082 48.1274C27.4684 48.1274 28.0121 47.6298 28.0854 46.9893C28.6998 46.8925 29.1696 46.3608 29.1696 45.7193C29.1696 45.2029 28.8651 44.7579 28.4261 44.5533C28.8039 44.6376 29.2024 44.4516 29.372 44.0861C29.5676 43.6645 29.3844 43.164 28.9627 42.9684Z" fill="#0F5130"/>
<path d="M25.1954 41.767C25.1954 41.9041 25.2184 42.0357 25.2603 42.1587C25.1936 42.1473 25.1251 42.1411 25.0552 42.1411C24.3837 42.1411 23.8394 42.6854 23.8394 43.3569C23.8394 43.8323 24.1124 44.2437 24.5101 44.4435C24.0024 44.6896 23.6523 45.2098 23.6523 45.8118C23.6523 46.6511 24.3327 47.3315 25.1721 47.3315C25.3195 47.3315 25.4619 47.3101 25.5968 47.2709C25.7739 47.7694 26.2494 48.1264 26.8086 48.1264C27.4688 48.1264 28.0125 47.6288 28.0859 46.9883C28.7002 46.8915 29.1701 46.3598 29.1701 45.7183C29.1701 45.202 28.8656 44.757 28.4265 44.5524C28.8043 44.6366 29.2029 44.4507 29.3725 44.0852C29.5681 43.6635 29.3848 43.1631 28.9631 42.9674C28.8423 42.9114 28.715 42.8874 28.5903 42.8902C28.7467 42.7163 28.8427 42.487 28.8427 42.2347C28.8427 41.6923 28.4031 41.2527 27.8608 41.2527C27.7472 41.2527 27.6386 41.2729 27.5372 41.3084C27.3561 40.8643 26.9203 40.5513 26.4112 40.5513C25.7398 40.5513 25.1954 41.0956 25.1954 41.767ZM28.5423 42.5465C28.4214 42.4905 28.2942 42.4665 28.1694 42.4694C28.3259 42.2954 28.4219 42.0661 28.4219 41.8138C28.4219 41.2714 27.9822 40.8318 27.4399 40.8318C27.3263 40.8318 27.2178 40.852 27.1163 40.8875C26.9352 40.4435 26.4994 40.1304 25.9903 40.1304C25.3189 40.1304 24.7746 40.6747 24.7746 41.3461C24.7746 41.4833 24.7976 41.6148 24.8394 41.7378C24.7727 41.7265 24.7042 41.7203 24.6343 41.7203C23.9628 41.7203 23.4185 42.2645 23.4185 42.936C23.4185 43.4114 23.6915 43.8228 24.0892 44.0226C23.5815 44.2687 23.2314 44.7889 23.2314 45.3909C23.2314 46.2302 23.9119 46.9107 24.7512 46.9107C24.8987 46.9107 25.0411 46.8892 25.1759 46.85C25.353 47.3485 25.8286 47.7056 26.3878 47.7056C27.048 47.7056 27.5916 47.208 27.665 46.5674C28.2793 46.4706 28.7492 45.9389 28.7492 45.2974C28.7492 44.7811 28.4447 44.336 28.0056 44.1315C28.3835 44.2157 28.782 44.0298 28.9516 43.6643C29.1472 43.2426 28.964 42.7422 28.5423 42.5465Z" fill="#20774D"/>
<path d="M34.6509 33.4442C34.5015 33.3748 34.3441 33.3452 34.1898 33.3488C34.3833 33.1336 34.502 32.8499 34.502 32.5378C34.502 31.8669 33.9582 31.3231 33.2874 31.3231C33.1469 31.3231 33.0126 31.3482 32.8871 31.392C32.6631 30.8428 32.1241 30.4556 31.4943 30.4556C30.6638 30.4556 29.9905 31.1288 29.9905 31.9594C29.9905 32.1289 30.019 32.2917 30.0707 32.4438C29.9882 32.4298 29.9035 32.4221 29.817 32.4221C28.9865 32.4221 28.3131 33.0954 28.3131 33.9259C28.3131 34.514 28.6508 35.0228 29.1427 35.2701C28.5148 35.5744 28.0818 36.2178 28.0818 36.9625C28.0818 38.0007 28.9234 38.8423 29.9616 38.8423C30.144 38.8423 30.3202 38.8158 30.487 38.7673C30.706 39.3839 31.2942 39.8256 31.986 39.8256C32.8026 39.8256 33.4751 39.2101 33.5658 38.4178C34.3257 38.2981 34.9069 37.6404 34.9069 36.8468C34.9069 36.2081 34.5303 35.6577 33.9872 35.4046C34.4545 35.5088 34.9475 35.2789 35.1572 34.8268C35.3992 34.3052 35.1725 33.6862 34.6509 33.4442Z" fill="#0A4225"/>
<path d="M29.9908 31.9599C29.9908 32.1295 30.0193 32.2923 30.071 32.4444C29.9885 32.4304 29.9038 32.4227 29.8173 32.4227C28.9867 32.4227 28.3134 33.0959 28.3134 33.9265C28.3134 34.5145 28.6512 35.0234 29.143 35.2706C28.5151 35.575 28.0821 36.2184 28.0821 36.9631C28.0821 38.0012 28.9237 38.8429 29.9619 38.8429C30.1443 38.8429 30.3205 38.8164 30.4873 38.7679C30.7063 39.3845 31.2945 39.8262 31.9862 39.8262C32.8029 39.8262 33.4753 39.2106 33.5661 38.4184C34.326 38.2986 34.9072 37.6409 34.9072 36.8474C34.9072 36.2087 34.5306 35.6583 33.9875 35.4052C34.4548 35.5094 34.9478 35.2795 35.1576 34.8273C35.3995 34.3057 35.1728 33.6867 34.6512 33.4447C34.5017 33.3754 34.3444 33.3457 34.1901 33.3493C34.3836 33.1341 34.5023 32.8504 34.5023 32.5383C34.5023 31.8675 33.9585 31.3237 33.2876 31.3237C33.1472 31.3237 33.0129 31.3487 32.8874 31.3926C32.6634 30.8433 32.1244 30.4561 31.4947 30.4561C30.6641 30.4561 29.9908 31.1294 29.9908 31.9599ZM34.1307 32.9242C33.9812 32.8549 33.8239 32.8252 33.6696 32.8288C33.863 32.6136 33.9818 32.3299 33.9818 32.0178C33.9818 31.347 33.4379 30.8031 32.7671 30.8031C32.6267 30.8031 32.4924 30.8282 32.3669 30.8721C32.1429 30.3228 31.6039 29.9355 30.9741 29.9355C30.1435 29.9355 29.4703 30.6089 29.4703 31.4394C29.4703 31.609 29.4988 31.7718 29.5505 31.9239C29.4679 31.9098 29.3832 31.9021 29.2967 31.9021C28.4662 31.9021 27.7929 32.5754 27.7929 33.406C27.7929 33.994 28.1306 34.5029 28.6225 34.7501C27.9946 35.0545 27.5615 35.6979 27.5615 36.4425C27.5615 37.4807 28.4031 38.3223 29.4413 38.3223C29.6238 38.3223 29.7999 38.2958 29.9667 38.2474C30.1857 38.864 30.774 39.3056 31.4657 39.3056C32.2823 39.3056 32.9548 38.6901 33.0455 37.8978C33.8055 37.7781 34.3866 37.1204 34.3866 36.3269C34.3866 35.6882 34.01 35.1378 33.4669 34.8847C33.9343 34.9889 34.4273 34.7589 34.637 34.3068C34.879 33.7852 34.6523 33.1662 34.1307 32.9242Z" fill="#0D5130"/>
<path d="M31.0826 38.3045C31.3246 38.1144 31.4806 37.8199 31.4806 37.4883C31.4806 36.9149 31.0158 36.4501 30.4424 36.4501C30.2059 36.4501 29.9887 36.5301 29.8142 36.6631C29.8256 36.5936 29.8317 36.5224 29.8317 36.4501C29.8317 35.6406 29.0935 34.9844 28.1828 34.9844C27.4057 34.9844 26.7546 35.4623 26.5802 36.1054C26.4089 36.0142 26.2111 35.9615 25.9999 35.9615C25.3504 35.9615 24.8239 36.4537 24.8239 37.0608C24.8239 37.3313 24.9289 37.5787 25.1023 37.7702C24.5117 37.9914 24.0911 38.5609 24.0911 39.2288C24.0911 40.0888 24.7883 40.786 25.6484 40.786C25.6956 40.786 25.7423 40.7836 25.7884 40.7795C26.0169 41.3556 26.5788 41.7632 27.2362 41.7632C27.7866 41.7632 28.2698 41.4775 28.5468 41.0466C28.6341 41.0753 28.7271 41.0915 28.824 41.0915C29.1909 41.0915 29.5056 40.8684 29.64 40.5505C29.8675 40.6988 30.144 40.786 30.4424 40.786C31.2181 40.786 31.847 40.1982 31.847 39.4731C31.847 38.9636 31.5363 38.5221 31.0826 38.3045Z" fill="#177950"/>
<path d="M26.5802 36.1054C26.4088 36.0143 26.2111 35.9615 25.9999 35.9615C25.3504 35.9615 24.8239 36.4536 24.8239 37.0608C24.8239 37.3313 24.9289 37.5787 25.1023 37.7701C24.5116 37.9914 24.0911 38.5609 24.0911 39.2288C24.0911 40.0888 24.7883 40.7861 25.6483 40.7861C25.6956 40.7861 25.7423 40.7836 25.7884 40.7795C26.0169 41.3555 26.5787 41.7632 27.2362 41.7632C27.7866 41.7632 28.2697 41.4775 28.5467 41.0465C28.6341 41.0753 28.7271 41.0914 28.8239 41.0914C29.1908 41.0914 29.5056 40.8684 29.64 40.5505C29.8675 40.6988 30.144 40.7861 30.4423 40.7861C31.2181 40.7861 31.8469 40.1982 31.8469 39.473C31.8469 38.9635 31.5363 38.5221 31.0826 38.3045C31.3245 38.1144 31.4805 37.8198 31.4805 37.4883C31.4805 36.9149 31.0158 36.4501 30.4423 36.4501C30.2059 36.4501 29.9887 36.53 29.8141 36.6631C29.8255 36.5935 29.8316 36.5224 29.8316 36.4501C29.8316 35.6406 29.0934 34.9844 28.1828 34.9844C27.4057 34.9844 26.7546 35.4623 26.5802 36.1054ZM30.4099 38.0493C30.6286 37.8776 30.7696 37.6113 30.7696 37.3116C30.7696 36.7934 30.3495 36.3733 29.8313 36.3733C29.6176 36.3733 29.4212 36.4456 29.2635 36.5659C29.2738 36.503 29.2793 36.4387 29.2793 36.3733C29.2793 35.6417 28.6122 35.0487 27.7891 35.0487C27.0868 35.0487 26.4984 35.4806 26.3407 36.0618C26.1858 35.9795 26.0071 35.9318 25.8162 35.9318C25.2293 35.9318 24.7534 36.3766 24.7534 36.9253C24.7534 37.1698 24.8483 37.3934 25.005 37.5664C24.4711 37.7664 24.0911 38.281 24.0911 38.8847C24.0911 39.662 24.7212 40.2922 25.4985 40.2922C25.5412 40.2922 25.5834 40.2899 25.6251 40.2862C25.8316 40.8069 26.3394 41.1753 26.9336 41.1753C27.431 41.1753 27.8678 40.917 28.1181 40.5275C28.197 40.5536 28.2811 40.5682 28.3687 40.5682C28.7002 40.5682 28.9846 40.3665 29.1061 40.0792C29.3117 40.2133 29.5616 40.2922 29.8313 40.2922C30.5324 40.2922 31.1008 39.7608 31.1008 39.1055C31.1008 38.645 30.82 38.2461 30.4099 38.0493Z" fill="#1F8F61"/>
<path d="M40.4773 42.9684C40.3564 42.9123 40.2292 42.8883 40.1044 42.8912C40.2609 42.7172 40.3569 42.488 40.3569 42.2356C40.3569 41.6933 39.9172 41.2536 39.3749 41.2536C39.2614 41.2536 39.1528 41.2739 39.0513 41.3094C38.8702 40.8653 38.4345 40.5522 37.9253 40.5522C37.2539 40.5522 36.7096 41.0965 36.7096 41.768C36.7096 41.905 36.7326 42.0367 36.7744 42.1597C36.7077 42.1483 36.6392 42.1421 36.5693 42.1421C35.8978 42.1421 35.3535 42.6864 35.3535 43.3579C35.3535 43.8332 35.6265 44.2446 36.0242 44.4445C35.5166 44.6906 35.1665 45.2107 35.1665 45.8128C35.1665 46.652 35.8469 47.3325 36.6862 47.3325C36.8337 47.3325 36.9761 47.311 37.111 47.2719C37.288 47.7704 37.7636 48.1274 38.3228 48.1274C38.983 48.1274 39.5266 47.6298 39.6 46.9893C40.2143 46.8925 40.6842 46.3608 40.6842 45.7193C40.6842 45.2029 40.3798 44.7579 39.9407 44.5533C40.3185 44.6376 40.717 44.4516 40.8865 44.0861C41.0822 43.6645 40.8989 43.164 40.4773 42.9684Z" fill="#0F5130"/>
<path d="M36.7101 41.767C36.7101 41.9041 36.7331 42.0357 36.775 42.1587C36.7082 42.1473 36.6398 42.1411 36.5698 42.1411C35.8983 42.1411 35.354 42.6854 35.354 43.3569C35.354 43.8323 35.627 44.2437 36.0247 44.4435C35.517 44.6896 35.167 45.2098 35.167 45.8118C35.167 46.6511 35.8474 47.3315 36.6867 47.3315C36.8342 47.3315 36.9766 47.3101 37.1114 47.2709C37.2885 47.7694 37.764 48.1264 38.3233 48.1264C38.9835 48.1264 39.5271 47.6288 39.6005 46.9883C40.2149 46.8915 40.6847 46.3598 40.6847 45.7183C40.6847 45.202 40.3802 44.757 39.9412 44.5524C40.319 44.6366 40.7176 44.4507 40.8871 44.0852C41.0827 43.6635 40.8994 43.1631 40.4778 42.9674C40.3569 42.9114 40.2297 42.8874 40.105 42.8902C40.2614 42.7163 40.3574 42.487 40.3574 42.2347C40.3574 41.6923 39.9177 41.2527 39.3754 41.2527C39.2618 41.2527 39.1533 41.2729 39.0518 41.3084C38.8708 40.8643 38.435 40.5513 37.9259 40.5513C37.2544 40.5513 36.7101 41.0956 36.7101 41.767ZM40.0569 42.5465C39.9361 42.4905 39.8088 42.4665 39.6841 42.4694C39.8405 42.2954 39.9365 42.0661 39.9365 41.8138C39.9365 41.2714 39.4969 40.8318 38.9545 40.8318C38.841 40.8318 38.7324 40.852 38.6309 40.8875C38.4499 40.4435 38.0141 40.1304 37.505 40.1304C36.8335 40.1304 36.2892 40.6747 36.2892 41.3461C36.2892 41.4833 36.3122 41.6148 36.3541 41.7378C36.2873 41.7265 36.2189 41.7203 36.1489 41.7203C35.4774 41.7203 34.9332 42.2645 34.9332 42.936C34.9332 43.4114 35.2062 43.8228 35.6038 44.0226C35.0962 44.2687 34.7461 44.7889 34.7461 45.3909C34.7461 46.2302 35.4265 46.9107 36.2658 46.9107C36.4133 46.9107 36.5557 46.8892 36.6906 46.85C36.8676 47.3485 37.3432 47.7056 37.9024 47.7056C38.5626 47.7056 39.1063 47.208 39.1796 46.5674C39.794 46.4706 40.2638 45.9389 40.2638 45.2974C40.2638 44.7811 39.9594 44.336 39.5203 44.1315C39.8981 44.2157 40.2967 44.0298 40.4662 43.6643C40.6619 43.2426 40.4786 42.7422 40.0569 42.5465Z" fill="#1F8F61"/>
<path d="M39.6068 35.5396C39.4194 35.4527 39.2221 35.4155 39.0287 35.4199C39.2712 35.1502 39.4201 34.7946 39.4201 34.4033C39.4201 33.5623 38.7383 32.8806 37.8974 32.8806C37.7213 32.8806 37.553 32.912 37.3956 32.967C37.1149 32.2784 36.4391 31.793 35.6496 31.793C34.6085 31.793 33.7644 32.637 33.7644 33.6782C33.7644 33.8908 33.8001 34.0949 33.865 34.2855C33.7615 34.268 33.6553 34.2583 33.5469 34.2583C32.5057 34.2583 31.6616 35.1023 31.6616 36.1435C31.6616 36.8807 32.085 37.5186 32.7016 37.8285C31.9145 38.2101 31.3716 39.0167 31.3716 39.9502C31.3716 41.2517 32.4267 42.3067 33.7281 42.3067C33.9569 42.3067 34.1777 42.2735 34.3868 42.2127C34.6613 42.9857 35.3988 43.5394 36.2659 43.5394C37.2897 43.5394 38.1327 42.7678 38.2465 41.7746C39.1991 41.6245 39.9277 40.8 39.9277 39.8052C39.9277 39.0045 39.4555 38.3145 38.7747 37.9972C39.3606 38.1279 39.9786 37.8396 40.2415 37.2728C40.5448 36.619 40.2607 35.843 39.6068 35.5396Z" fill="#0E5130"/>
<path d="M33.7644 33.6789C33.7644 33.8915 33.8001 34.0956 33.865 34.2863C33.7615 34.2687 33.6553 34.259 33.5469 34.259C32.5057 34.259 31.6617 35.103 31.6617 36.1442C31.6617 36.8814 32.085 37.5194 32.7017 37.8293C31.9145 38.2108 31.3716 39.0175 31.3716 39.9509C31.3716 41.2525 32.4267 42.3075 33.7282 42.3075C33.9569 42.3075 34.1777 42.2743 34.3868 42.2135C34.6613 42.9865 35.3988 43.5401 36.2659 43.5401C37.2896 43.5401 38.1327 42.7686 38.2465 41.7753C39.1991 41.6252 39.9277 40.8007 39.9277 39.8059C39.9277 39.0053 39.4555 38.3153 38.7747 37.998C39.3605 38.1286 39.9785 37.8403 40.2415 37.2735C40.5449 36.6197 40.2607 35.8437 39.6068 35.5403C39.4194 35.4534 39.2221 35.4162 39.0287 35.4207C39.2712 35.151 39.4201 34.7954 39.4201 34.4041C39.4201 33.5631 38.7384 32.8813 37.8974 32.8813C37.7213 32.8813 37.553 32.9127 37.3956 32.9677C37.1148 32.2792 36.4391 31.7937 35.6496 31.7937C34.6084 31.7937 33.7644 32.6378 33.7644 33.6789ZM38.9542 34.8878C38.7668 34.8008 38.5696 34.7636 38.3761 34.7681C38.6186 34.4984 38.7675 34.1427 38.7675 33.7515C38.7675 32.9105 38.0858 32.2288 37.2448 32.2288C37.0687 32.2288 36.9004 32.2602 36.743 32.3151C36.4623 31.6266 35.7865 31.1411 34.997 31.1411C33.9559 31.1411 33.1118 31.9852 33.1118 33.0264C33.1118 33.2389 33.1475 33.443 33.2124 33.6337C33.1089 33.6161 33.0028 33.6064 32.8943 33.6064C31.8531 33.6064 31.0091 34.4505 31.0091 35.4916C31.0091 36.2288 31.4324 36.8668 32.0491 37.1767C31.2619 37.5582 30.719 38.3649 30.719 39.2983C30.719 40.5998 31.7741 41.6549 33.0756 41.6549C33.3043 41.6549 33.5251 41.6217 33.7342 41.5609C34.0087 42.3339 34.7462 42.8875 35.6133 42.8875C36.6371 42.8875 37.4801 42.116 37.5939 41.1227C38.5465 40.9726 39.2751 40.1481 39.2751 39.1533C39.2751 38.3527 38.8029 37.6627 38.1221 37.3454C38.708 37.476 39.326 37.1877 39.5889 36.621C39.8922 35.9671 39.6081 35.1911 38.9542 34.8878Z" fill="#20774D"/>
<path d="M36.9099 39.5992C36.6627 39.4845 36.4025 39.4355 36.1473 39.4414C36.4672 39.0856 36.6637 38.6164 36.6637 38.1002C36.6637 36.9908 35.7643 36.0915 34.6549 36.0915C34.4226 36.0915 34.2005 36.133 33.993 36.2055C33.6226 35.2972 32.7312 34.6567 31.6897 34.6567C30.3161 34.6567 29.2027 35.7702 29.2027 37.1437C29.2027 37.4241 29.2498 37.6934 29.3354 37.9449C29.1989 37.9217 29.0588 37.9089 28.9157 37.9089C27.5422 37.9089 26.4288 39.0224 26.4288 40.3959C26.4288 41.3684 26.9873 42.2099 27.8007 42.6188C26.7623 43.1221 26.0461 44.1862 26.0461 45.4177C26.0461 47.1346 27.438 48.5264 29.1549 48.5264C29.4566 48.5264 29.7479 48.4826 30.0237 48.4024C30.3859 49.4221 31.3588 50.1526 32.5027 50.1526C33.8532 50.1526 34.9653 49.1347 35.1153 47.8244C36.372 47.6264 37.3332 46.5387 37.3332 45.2264C37.3332 44.1702 36.7104 43.2599 35.8122 42.8413C36.5851 43.0136 37.4004 42.6334 37.7473 41.8857C38.1474 41.0232 37.7726 39.9994 36.9099 39.5992Z" fill="#0E5130"/>
<path d="M29.203 37.1428C29.203 37.4232 29.2501 37.6925 29.3356 37.944C29.1991 37.9208 29.0591 37.908 28.916 37.908C27.5425 37.908 26.429 39.0215 26.429 40.395C26.429 41.3675 26.9875 42.209 27.801 42.6179C26.7626 43.1212 26.0464 44.1853 26.0464 45.4168C26.0464 47.1337 27.4383 48.5255 29.1552 48.5255C29.4568 48.5255 29.7482 48.4817 30.024 48.4015C30.3862 49.4212 31.3591 50.1516 32.503 50.1516C33.8535 50.1516 34.9656 49.1338 35.1157 47.8235C36.3724 47.6255 37.3335 46.5378 37.3335 45.2255C37.3335 44.1693 36.7107 43.259 35.8125 42.8404C36.5854 43.0127 37.4006 42.6325 37.7475 41.8848C38.1477 41.0222 37.7728 39.9986 36.9102 39.5984C36.6631 39.4837 36.4028 39.4346 36.1476 39.4405C36.4675 39.0847 36.6639 38.6155 36.6639 38.0993C36.6639 36.9899 35.7646 36.0906 34.6552 36.0906C34.4229 36.0906 34.2008 36.1321 33.9932 36.2046C33.6229 35.2962 32.7314 34.6558 31.6899 34.6558C30.3164 34.6558 29.203 35.7693 29.203 37.1428ZM36.0494 38.7374C35.8022 38.6228 35.5419 38.5737 35.2867 38.5796C35.6067 38.2238 35.8031 37.7546 35.8031 37.2384C35.8031 36.129 34.9037 35.2297 33.7943 35.2297C33.562 35.2297 33.3399 35.2711 33.1324 35.3437C32.762 34.4353 31.8706 33.7949 30.8291 33.7949C29.4556 33.7949 28.3421 34.9084 28.3421 36.2819C28.3421 36.5623 28.3892 36.8316 28.4748 37.0831C28.3383 37.0599 28.1982 37.0471 28.0551 37.0471C26.6817 37.0471 25.5682 38.1606 25.5682 39.5341C25.5682 40.5066 26.1267 41.3481 26.9402 41.757C25.9017 42.2603 25.1855 43.3244 25.1855 44.5559C25.1855 46.2728 26.5774 47.6646 28.2943 47.6646C28.596 47.6646 28.8873 47.6208 29.1632 47.5407C29.5253 48.5604 30.4982 49.2907 31.6421 49.2907C32.9926 49.2907 34.1048 48.2729 34.2548 46.9626C35.5115 46.7646 36.4726 45.6769 36.4726 44.3646C36.4726 43.3083 35.8498 42.3981 34.9517 41.9795C35.7245 42.1519 36.5398 41.7716 36.8867 41.0239C37.2869 40.1613 36.912 39.1376 36.0494 38.7374Z" fill="#13623E"/>
<path d="M38.6839 47.3641C38.9259 47.174 39.0819 46.8795 39.0819 46.5479C39.0819 45.9744 38.6171 45.5097 38.0437 45.5097C37.8072 45.5097 37.59 45.5896 37.4154 45.7227C37.4269 45.6531 37.433 45.582 37.433 45.5097C37.433 44.7002 36.6948 44.0439 35.7841 44.0439C35.007 44.0439 34.356 44.5219 34.1815 45.165C34.0101 45.0738 33.8124 45.0211 33.6012 45.0211C32.9517 45.0211 32.4252 45.5133 32.4252 46.1204C32.4252 46.3909 32.5303 46.6382 32.7036 46.8298C32.1129 47.051 31.6924 47.6205 31.6924 48.2883C31.6924 49.1484 32.3896 49.8457 33.2497 49.8457C33.2969 49.8457 33.3436 49.8432 33.3897 49.8391C33.6182 50.4152 34.1801 50.8228 34.8375 50.8228C35.3879 50.8228 35.8711 50.5371 36.1481 50.1061C36.2354 50.1349 36.3284 50.151 36.4253 50.151C36.7922 50.151 37.1069 49.9279 37.2413 49.6101C37.4688 49.7584 37.7453 49.8457 38.0437 49.8457C38.8194 49.8457 39.4483 49.2578 39.4483 48.5327C39.4483 48.0232 39.1376 47.5817 38.6839 47.3641Z" fill="#0F5130"/>
<path d="M34.1815 45.1635C34.0102 45.0723 33.8124 45.0196 33.6012 45.0196C32.9517 45.0196 32.4252 45.5117 32.4252 46.1189C32.4252 46.3894 32.5303 46.6368 32.7036 46.8283C32.1129 47.0495 31.6924 47.619 31.6924 48.2868C31.6924 49.1469 32.3896 49.8441 33.2497 49.8441C33.297 49.8441 33.3436 49.8417 33.3898 49.8375C33.6183 50.4136 34.1801 50.8213 34.8375 50.8213C35.3879 50.8213 35.8711 50.5356 36.1481 50.1046C36.2354 50.1334 36.3284 50.1495 36.4253 50.1495C36.7922 50.1495 37.1069 49.9264 37.2413 49.6086C37.4688 49.7569 37.7453 49.8441 38.0437 49.8441C38.8194 49.8441 39.4483 49.2563 39.4483 48.5312C39.4483 48.0216 39.1377 47.5802 38.684 47.3626C38.9259 47.1725 39.0819 46.8779 39.0819 46.5463C39.0819 45.9729 38.6171 45.5082 38.0437 45.5082C37.8073 45.5082 37.59 45.5881 37.4154 45.7212C37.4269 45.6516 37.4331 45.5805 37.4331 45.5082C37.4331 44.6987 36.6948 44.0425 35.7841 44.0425C35.0071 44.0425 34.3559 44.5204 34.1815 45.1635ZM38.0113 47.1074C38.2299 46.9356 38.371 46.6694 38.371 46.3697C38.371 45.8515 37.9508 45.4314 37.4326 45.4314C37.2189 45.4314 37.0225 45.5037 36.8648 45.624C36.8752 45.5611 36.8807 45.4968 36.8807 45.4314C36.8807 44.6998 36.2135 44.1068 35.3904 44.1068C34.6881 44.1068 34.0997 44.5387 33.942 45.1199C33.7872 45.0375 33.6085 44.9899 33.4176 44.9899C32.8306 44.9899 32.3547 45.4347 32.3547 45.9834C32.3547 46.2279 32.4496 46.4514 32.6063 46.6245C32.0725 46.8244 31.6924 47.3391 31.6924 47.9428C31.6924 48.7201 32.3225 49.3503 33.0998 49.3503C33.1426 49.3503 33.1847 49.348 33.2265 49.3443C33.4329 49.865 33.9407 50.2333 34.535 50.2333C35.0323 50.2333 35.4691 49.9751 35.7194 49.5857C35.7983 49.6116 35.8824 49.6262 35.97 49.6262C36.3015 49.6262 36.586 49.4246 36.7074 49.1373C36.9131 49.2714 37.1629 49.3503 37.4326 49.3503C38.1338 49.3503 38.7022 48.819 38.7021 48.1636C38.7022 47.7031 38.4213 47.3041 38.0113 47.1074Z" fill="#20774D"/>
<path d="M30.8782 47.9124C31.1202 47.7223 31.2762 47.4278 31.2762 47.0962C31.2762 46.5228 30.8114 46.058 30.238 46.058C30.0016 46.058 29.7844 46.138 29.6098 46.2711C29.6212 46.2015 29.6273 46.1304 29.6273 46.058C29.6273 45.2486 28.8891 44.5923 27.9785 44.5923C27.2014 44.5923 26.5503 45.0703 26.3758 45.7133C26.2045 45.6222 26.0068 45.5695 25.7955 45.5695C25.1461 45.5695 24.6196 46.0616 24.6196 46.6687C24.6196 46.9393 24.7246 47.1866 24.898 47.3781C24.3073 47.5994 23.8867 48.1688 23.8867 48.8367C23.8867 49.6967 24.584 50.394 25.444 50.394C25.4912 50.394 25.5379 50.3915 25.5841 50.3874C25.8125 50.9635 26.3744 51.3711 27.0318 51.3711C27.5822 51.3711 28.0655 51.0854 28.3425 50.6545C28.4297 50.6832 28.5228 50.6993 28.6197 50.6993C28.9865 50.6993 29.3013 50.4763 29.4356 50.1584C29.6632 50.3067 29.9396 50.394 30.238 50.394C31.0138 50.394 31.6427 49.8061 31.6427 49.081C31.6427 48.5715 31.332 48.13 30.8782 47.9124Z" fill="#177950"/>
<path d="M26.3762 45.7133C26.2049 45.6221 26.0072 45.5694 25.7959 45.5694C25.1465 45.5694 24.62 46.0616 24.62 46.6687C24.62 46.9392 24.725 47.1866 24.8983 47.3781C24.3077 47.5993 23.8871 48.1688 23.8871 48.8367C23.8871 49.6967 24.5844 50.394 25.4444 50.394C25.4916 50.394 25.5383 50.3915 25.5845 50.3874C25.8129 50.9635 26.3748 51.3711 27.0323 51.3711C27.5826 51.3711 28.0659 51.0854 28.3428 50.6544C28.4301 50.6832 28.5232 50.6993 28.6201 50.6993C28.9869 50.6993 29.3016 50.4763 29.436 50.1584C29.6635 50.3067 29.94 50.394 30.2384 50.394C31.0142 50.394 31.6431 49.8061 31.6431 49.081C31.6431 48.5715 31.3324 48.13 30.8786 47.9124C31.1206 47.7223 31.2766 47.4277 31.2766 47.0961C31.2766 46.5228 30.8118 46.058 30.2384 46.058C30.002 46.058 29.7847 46.1379 29.6102 46.271C29.6216 46.2014 29.6277 46.1304 29.6277 46.058C29.6277 45.2485 28.8895 44.5923 27.9788 44.5923C27.2018 44.5923 26.5507 45.0702 26.3762 45.7133ZM30.2063 47.6749C30.4261 47.5044 30.5687 47.2391 30.5706 46.9394C30.5739 46.4212 30.1564 45.9985 29.6382 45.9952C29.4245 45.9939 29.2277 46.0649 29.0692 46.1842C29.0799 46.1214 29.0859 46.0572 29.0862 45.9918C29.0908 45.2602 28.4273 44.663 27.6043 44.6578C26.902 44.6535 26.3108 45.0817 26.1496 45.662C25.9953 45.5786 25.8168 45.5298 25.6259 45.5286C25.039 45.5249 24.5604 45.9667 24.5569 46.5155C24.5554 46.76 24.6489 46.9841 24.8045 47.1582C24.2694 47.3548 23.8861 47.8671 23.8824 48.4707C23.8775 49.248 24.5037 49.882 25.281 49.8869C25.3237 49.8872 25.3659 49.8852 25.4076 49.8818C25.6109 50.4037 26.1163 50.7753 26.7105 50.779C27.2079 50.7821 27.6463 50.5266 27.8991 50.1387C27.9778 50.1652 28.0617 50.1803 28.1493 50.1808C28.4809 50.1829 28.7666 49.9831 28.8898 49.6966C29.0946 49.8319 29.344 49.9123 29.6137 49.914C30.3148 49.9184 30.8864 49.3906 30.8906 48.7353C30.8934 48.2748 30.6152 47.8741 30.2063 47.6749Z" fill="#1F8F61"/>
<path d="M42.6759 49.5862C42.9178 49.3961 43.0738 49.1015 43.0738 48.77C43.0738 48.1966 42.609 47.7318 42.0356 47.7318C41.7992 47.7318 41.582 47.8117 41.4074 47.9448C41.4188 47.8752 41.425 47.8041 41.425 47.7318C41.425 46.9223 40.6867 46.2661 39.7761 46.2661C38.999 46.2661 38.3479 46.7441 38.1734 47.3871C38.0021 47.296 37.8044 47.2432 37.5932 47.2432C36.9437 47.2432 36.4172 47.7354 36.4172 48.3425C36.4172 48.613 36.5222 48.8603 36.6956 49.0518C36.1049 49.2731 35.6843 49.8426 35.6843 50.5105C35.6843 51.3705 36.3815 52.0677 37.2416 52.0677C37.2889 52.0677 37.3355 52.0653 37.3817 52.0612C37.6102 52.6373 38.172 53.0448 38.8294 53.0448C39.3798 53.0448 39.8631 52.7592 40.1401 52.3282C40.2274 52.357 40.3204 52.3731 40.4172 52.3731C40.7841 52.3731 41.0988 52.15 41.2333 51.8322C41.4608 51.9805 41.7373 52.0677 42.0356 52.0677C42.8114 52.0677 43.4403 51.4799 43.4403 50.7547C43.4403 50.2452 43.1296 49.8038 42.6759 49.5862Z" fill="#0E5130"/>
<path d="M38.1739 47.3876C38.0025 47.2965 37.8048 47.2437 37.5936 47.2437C36.9441 47.2437 36.4176 47.7359 36.4176 48.343C36.4176 48.6135 36.5226 48.8608 36.696 49.0523C36.1053 49.2736 35.6848 49.8431 35.6848 50.511C35.6848 51.3711 36.382 52.0683 37.242 52.0683C37.2893 52.0683 37.3359 52.0658 37.3821 52.0617C37.6105 52.6378 38.1724 53.0454 38.8298 53.0454C39.3802 53.0454 39.8635 52.7597 40.1405 52.3287C40.2278 52.3574 40.3208 52.3736 40.4177 52.3736C40.7845 52.3736 41.0992 52.1506 41.2336 51.8327C41.4612 51.981 41.7376 52.0683 42.036 52.0683C42.8118 52.0683 43.4407 51.4804 43.4407 50.7552C43.4407 50.2457 43.13 49.8043 42.6762 49.5867C42.9183 49.3966 43.0742 49.102 43.0742 48.7705C43.0742 48.1971 42.6094 47.7323 42.036 47.7323C41.7996 47.7323 41.5823 47.8122 41.4078 47.9453C41.4192 47.8757 41.4253 47.8047 41.4253 47.7323C41.4253 46.9228 40.6871 46.2666 39.7765 46.2666C38.9994 46.2666 38.3483 46.7445 38.1739 47.3876ZM42.0039 49.3491C42.2237 49.1787 42.3663 48.9134 42.3682 48.6137C42.3715 48.0955 41.954 47.6728 41.4358 47.6696C41.2221 47.6682 41.0253 47.7392 40.8668 47.8585C40.8775 47.7957 40.8835 47.7315 40.8838 47.6661C40.8885 46.9345 40.225 46.3373 39.4019 46.3321C38.6996 46.3277 38.1085 46.756 37.9472 47.3362C37.7929 47.2529 37.6145 47.2041 37.4236 47.2029C36.8366 47.1992 36.358 47.6411 36.3545 48.1897C36.353 48.4342 36.4465 48.6583 36.6022 48.8324C36.0671 49.029 35.6837 49.5413 35.68 50.145C35.6751 50.9223 36.3013 51.5564 37.0786 51.5612C37.1213 51.5615 37.1635 51.5595 37.2052 51.556C37.4085 52.078 37.9139 52.4496 38.5082 52.4533C39.0055 52.4564 39.4439 52.2009 39.6967 51.813C39.7754 51.8394 39.8594 51.8546 39.9469 51.8551C40.2785 51.8572 40.5642 51.6573 40.6875 51.3708C40.8922 51.5062 41.1416 51.5866 41.4113 51.5883C42.1124 51.5926 42.6841 51.0649 42.6882 50.4096C42.6911 49.9491 42.4128 49.5484 42.0039 49.3491Z" fill="#13623E"/>
<path d="M28.6744 49.5862C28.9164 49.3961 29.0723 49.1015 29.0723 48.77C29.0723 48.1966 28.6075 47.7318 28.0342 47.7318C27.7977 47.7318 27.5805 47.8117 27.4059 47.9448C27.4173 47.8752 27.4235 47.8041 27.4235 47.7318C27.4235 46.9223 26.6852 46.2661 25.7746 46.2661C24.9975 46.2661 24.3464 46.7441 24.1719 47.3871C24.0006 47.296 23.8029 47.2432 23.5916 47.2432C22.9422 47.2432 22.4157 47.7354 22.4157 48.3425C22.4157 48.613 22.5207 48.8603 22.6941 49.0518C22.1034 49.2731 21.6829 49.8426 21.6829 50.5105C21.6829 51.3705 22.38 52.0677 23.2401 52.0677C23.2873 52.0677 23.334 52.0653 23.3802 52.0612C23.6087 52.6373 24.1705 53.0448 24.8279 53.0448C25.3783 53.0448 25.8616 52.7592 26.1386 52.3282C26.2259 52.357 26.3189 52.3731 26.4158 52.3731C26.7827 52.3731 27.0974 52.15 27.2318 51.8322C27.4593 51.9805 27.7358 52.0677 28.0342 52.0677C28.8099 52.0677 29.4387 51.4799 29.4387 50.7547C29.4387 50.2452 29.1281 49.8038 28.6744 49.5862Z" fill="#0E5130"/>
<path d="M24.1714 47.3876C24.0001 47.2965 23.8023 47.2437 23.5911 47.2437C22.9416 47.2437 22.4151 47.7359 22.4151 48.343C22.4151 48.6135 22.5201 48.8608 22.6935 49.0523C22.1029 49.2736 21.6823 49.8431 21.6823 50.511C21.6823 51.3711 22.3795 52.0683 23.2396 52.0683C23.2868 52.0683 23.3335 52.0658 23.3797 52.0617C23.6081 52.6378 24.17 53.0454 24.8274 53.0454C25.3778 53.0454 25.861 52.7597 26.138 52.3287C26.2253 52.3574 26.3183 52.3736 26.4152 52.3736C26.7821 52.3736 27.0968 52.1506 27.2312 51.8327C27.4587 51.981 27.7352 52.0683 28.0336 52.0683C28.8094 52.0683 29.4382 51.4804 29.4382 50.7552C29.4382 50.2457 29.1276 49.8043 28.6738 49.5867C28.9158 49.3966 29.0718 49.102 29.0718 48.7705C29.0718 48.1971 28.607 47.7323 28.0336 47.7323C27.7972 47.7323 27.5799 47.8122 27.4053 47.9453C27.4167 47.8757 27.4229 47.8047 27.4229 47.7323C27.4229 46.9228 26.6847 46.2666 25.774 46.2666C24.997 46.2666 24.3458 46.7445 24.1714 47.3876ZM28.0015 49.3491C28.2213 49.1787 28.3639 48.9134 28.3658 48.6137C28.3691 48.0955 27.9516 47.6728 27.4334 47.6696C27.2197 47.6682 27.0229 47.7392 26.8644 47.8585C26.8751 47.7957 26.881 47.7315 26.8814 47.6661C26.886 46.9345 26.2225 46.3373 25.3995 46.3321C24.6972 46.3277 24.106 46.756 23.9448 47.3362C23.7904 47.2529 23.612 47.2041 23.4211 47.2029C22.8342 47.1992 22.3555 47.6411 22.3521 48.1897C22.3506 48.4342 22.4441 48.6583 22.5997 48.8324C22.0646 49.029 21.6813 49.5413 21.6775 50.145C21.6727 50.9223 22.2989 51.5564 23.0762 51.5612C23.1189 51.5615 23.1611 51.5595 23.2028 51.556C23.406 52.078 23.9115 52.4496 24.5057 52.4533C25.0031 52.4564 25.4415 52.2009 25.6942 51.813C25.773 51.8394 25.8569 51.8546 25.9445 51.8551C26.2761 51.8572 26.5617 51.6573 26.685 51.3708C26.8898 51.5062 27.1392 51.5866 27.4089 51.5883C28.11 51.5926 28.6817 51.0649 28.6857 50.4096C28.6886 49.9491 28.4103 49.5484 28.0015 49.3491Z" fill="#13623E"/>
<path d="M28.6744 49.5862C28.9164 49.3961 29.0723 49.1015 29.0723 48.77C29.0723 48.1966 28.6075 47.7318 28.0342 47.7318C27.7977 47.7318 27.5805 47.8117 27.4059 47.9448C27.4173 47.8752 27.4235 47.8041 27.4235 47.7318C27.4235 46.9223 26.6852 46.2661 25.7746 46.2661C24.9975 46.2661 24.3464 46.7441 24.1719 47.3871C24.0006 47.296 23.8029 47.2432 23.5916 47.2432C22.9422 47.2432 22.4157 47.7354 22.4157 48.3425C22.4157 48.613 22.5207 48.8603 22.6941 49.0518C22.1034 49.2731 21.6829 49.8426 21.6829 50.5105C21.6829 51.3705 22.38 52.0677 23.2401 52.0677C23.2873 52.0677 23.334 52.0653 23.3802 52.0612C23.6087 52.6373 24.1705 53.0448 24.8279 53.0448C25.3783 53.0448 25.8616 52.7592 26.1386 52.3282C26.2259 52.357 26.3189 52.3731 26.4158 52.3731C26.7827 52.3731 27.0974 52.15 27.2318 51.8322C27.4593 51.9805 27.7358 52.0677 28.0342 52.0677C28.8099 52.0677 29.4387 51.4799 29.4387 50.7547C29.4387 50.2452 29.1281 49.8038 28.6744 49.5862Z" fill="#0E5130"/>
<path d="M24.1714 47.3876C24.0001 47.2965 23.8023 47.2437 23.5911 47.2437C22.9416 47.2437 22.4151 47.7359 22.4151 48.343C22.4151 48.6135 22.5201 48.8608 22.6935 49.0523C22.1029 49.2736 21.6823 49.8431 21.6823 50.511C21.6823 51.3711 22.3795 52.0683 23.2396 52.0683C23.2868 52.0683 23.3335 52.0658 23.3797 52.0617C23.6081 52.6378 24.17 53.0454 24.8274 53.0454C25.3778 53.0454 25.861 52.7597 26.138 52.3287C26.2253 52.3574 26.3183 52.3736 26.4152 52.3736C26.7821 52.3736 27.0968 52.1506 27.2312 51.8327C27.4587 51.981 27.7352 52.0683 28.0336 52.0683C28.8094 52.0683 29.4382 51.4804 29.4382 50.7552C29.4382 50.2457 29.1276 49.8043 28.6738 49.5867C28.9158 49.3966 29.0718 49.102 29.0718 48.7705C29.0718 48.1971 28.607 47.7323 28.0336 47.7323C27.7972 47.7323 27.5799 47.8122 27.4053 47.9453C27.4167 47.8757 27.4229 47.8047 27.4229 47.7323C27.4229 46.9228 26.6847 46.2666 25.774 46.2666C24.997 46.2666 24.3458 46.7445 24.1714 47.3876ZM28.0015 49.3491C28.2213 49.1787 28.3639 48.9134 28.3658 48.6137C28.3691 48.0955 27.9516 47.6728 27.4334 47.6696C27.2197 47.6682 27.0229 47.7392 26.8644 47.8585C26.8751 47.7957 26.881 47.7315 26.8814 47.6661C26.886 46.9345 26.2225 46.3373 25.3995 46.3321C24.6972 46.3277 24.106 46.756 23.9448 47.3362C23.7904 47.2529 23.612 47.2041 23.4211 47.2029C22.8342 47.1992 22.3555 47.6411 22.3521 48.1897C22.3506 48.4342 22.4441 48.6583 22.5997 48.8324C22.0646 49.029 21.6813 49.5413 21.6775 50.145C21.6727 50.9223 22.2989 51.5564 23.0762 51.5612C23.1189 51.5615 23.1611 51.5595 23.2028 51.556C23.406 52.078 23.9115 52.4496 24.5057 52.4533C25.0031 52.4564 25.4415 52.2009 25.6942 51.813C25.773 51.8394 25.8569 51.8546 25.9445 51.8551C26.2761 51.8572 26.5617 51.6573 26.685 51.3708C26.8898 51.5062 27.1392 51.5866 27.4089 51.5883C28.11 51.5926 28.6817 51.0649 28.6857 50.4096C28.6886 49.9491 28.4103 49.5484 28.0015 49.3491Z" fill="#13623E"/>
<path d="M34.6262 50.8735C34.8184 50.7224 34.9423 50.4885 34.9423 50.2251C34.9423 49.7697 34.573 49.4005 34.1176 49.4005C33.9299 49.4005 33.7573 49.464 33.6186 49.5697C33.6277 49.5145 33.6326 49.458 33.6326 49.4005C33.6326 48.7575 33.0462 48.2363 32.3228 48.2363C31.7056 48.2363 31.1884 48.6159 31.0499 49.1267C30.9138 49.0544 30.7568 49.0124 30.589 49.0124C30.0731 49.0124 29.6549 49.4033 29.6549 49.8856C29.6549 50.1004 29.7383 50.2969 29.876 50.449C29.4068 50.6248 29.0728 51.0771 29.0728 51.6076C29.0728 52.2908 29.6266 52.8446 30.3098 52.8446C30.3473 52.8446 30.3844 52.8426 30.421 52.8393C30.6025 53.2969 31.0487 53.6207 31.5709 53.6207C32.0081 53.6207 32.392 53.3938 32.612 53.0515C32.6813 53.0743 32.7552 53.0871 32.8322 53.0871C33.1236 53.0871 33.3735 52.9099 33.4803 52.6575C33.661 52.7752 33.8806 52.8446 34.1176 52.8446C34.7338 52.8446 35.2333 52.3776 35.2333 51.8016C35.2333 51.3969 34.9866 51.0463 34.6262 50.8735Z" fill="#0F5130"/>
<path d="M31.4697 49.5476C31.3336 49.4753 31.1766 49.4333 31.0087 49.4333C30.4929 49.4333 30.0747 49.8242 30.0747 50.3065C30.0747 50.5214 30.1581 50.7178 30.2958 50.87C29.8267 51.0457 29.4926 51.498 29.4926 52.0285C29.4926 52.7117 30.0464 53.2655 30.7295 53.2655C30.7671 53.2655 30.8041 53.2635 30.8408 53.2602C31.0223 53.7178 31.4686 54.0416 31.9908 54.0416C32.4279 54.0416 32.8118 53.8147 33.0318 53.4724C33.1011 53.4952 33.175 53.508 33.252 53.508C33.5434 53.508 33.7934 53.3308 33.9001 53.0784C34.0808 53.1961 34.3004 53.2655 34.5375 53.2655C35.1536 53.2655 35.6531 52.7985 35.6531 52.2226C35.6531 51.8178 35.4064 51.4673 35.046 51.2944C35.2382 51.1433 35.3621 50.9094 35.3621 50.646C35.3621 50.1906 34.9929 49.8214 34.5375 49.8214C34.3496 49.8214 34.1771 49.8849 34.0384 49.9906C34.0475 49.9354 34.0524 49.8789 34.0524 49.8214C34.0524 49.1784 33.466 48.6572 32.7427 48.6572C32.1254 48.6572 31.6083 49.0368 31.4697 49.5476ZM34.5119 51.1057C34.6864 50.9703 34.7998 50.7596 34.8013 50.5215C34.8038 50.1099 34.4723 49.7742 34.0607 49.7716C33.891 49.7705 33.7346 49.8269 33.6087 49.9217C33.6172 49.8718 33.6219 49.8208 33.6222 49.7688C33.6259 49.1878 33.0989 48.7133 32.4451 48.7093C31.8873 48.7058 31.4177 49.046 31.2896 49.5068C31.1671 49.4407 31.0253 49.4019 30.8737 49.4009C30.4075 49.398 30.0273 49.749 30.0246 50.1848C30.0234 50.379 30.0976 50.557 30.2213 50.6953C29.7963 50.8514 29.4918 51.2584 29.4888 51.7378C29.4849 52.3552 29.9823 52.8589 30.5997 52.8627C30.6336 52.8629 30.6671 52.8614 30.7003 52.8586C30.8617 53.2732 31.2632 53.5683 31.7352 53.5713C32.1302 53.5738 32.4785 53.3708 32.6792 53.0627C32.7418 53.0838 32.8085 53.0957 32.8781 53.0962C33.1414 53.0979 33.3683 52.9391 33.4662 52.7115C33.6289 52.819 33.827 52.8829 34.0412 52.8843C34.5981 52.8877 35.0522 52.4685 35.0554 51.948C35.0577 51.5822 34.8367 51.264 34.5119 51.1057Z" fill="#13623E"/>
</g>
<defs>
<clipPath id="clip0_2600_112605">
<rect width="64" height="64" rx="12" fill="white"/>
</clipPath>
</defs>
</svg>
