<svg width="124" height="124" viewBox="0 0 124 124" fill="none" xmlns="http://www.w3.org/2000/svg">
<g clip-path="url(#clip0_2246_95383)">
<rect width="124" height="124" rx="12" fill="white"/>
<rect width="124" height="124" fill="#D9D9D9"/>
<rect width="129" height="138" fill="#D0D3E0"/>
<g clip-path="url(#clip1_2246_95383)">
<mask id="mask0_2246_95383" style="mask-type:luminance" maskUnits="userSpaceOnUse" x="-184" y="0" width="492" height="194">
<path d="M307.807 0H-183.807V194H307.807V0Z" fill="white"/>
</mask>
<g mask="url(#mask0_2246_95383)">
<path d="M-182.492 173.561H-164.473V179.261H-182.492V173.561ZM-162.042 173.561H-143.987V179.261H-162.042V173.561ZM-141.592 173.561H-123.501V179.261H-141.592V173.561ZM-121.143 173.561H-103.015V179.261H-121.143V173.561ZM-100.694 173.561H-82.5281V179.261H-100.694V173.561ZM-80.2442 173.561H-62.042V179.261H-80.2442V173.561ZM-59.7948 173.561H-41.5555V179.261H-59.7948V173.561ZM-39.3453 173.561H-21.0695V179.261H-39.3453V173.561ZM-18.8959 173.561H-0.583001V179.261H-18.8959V173.561ZM1.5536 173.561H19.9035V179.261H1.5536V173.561ZM22.0029 173.561H40.3897V179.261H22.0029V173.561ZM42.4525 173.561H60.876V179.261H42.4525V173.561ZM63.1244 173.561H81.5481V179.261H63.1244V173.561ZM83.6109 173.561H101.998V179.261H83.6109V173.561ZM104.097 173.561H122.447V179.261H104.097V173.561ZM124.583 173.561H142.896V179.261H124.583V173.561ZM145.07 173.561H163.346V179.261H145.07V173.561ZM165.556 173.561H183.795V179.261H165.556V173.561ZM186.042 173.561H204.245V179.261H186.042V173.561ZM206.529 173.561H224.694V179.261H206.529V173.561ZM227.015 173.561H245.144V179.261H227.015V173.561ZM247.501 173.561H265.593V179.261H247.501V173.561ZM267.988 173.561H286.042V179.261H267.988V173.561ZM288.474 173.561H306.492V179.261H288.474V173.561ZM-182.49 157.192H-164.472V162.893H-182.49V157.192ZM-162.04 157.192H-143.986V162.893H-162.04V157.192ZM-141.591 157.192H-123.499V162.893H-141.591V157.192ZM-121.141 157.192H-103.013V162.893H-121.141V157.192ZM-100.692 157.192H-82.5266V162.893H-100.692V157.192ZM-80.2424 157.192H-62.0402V162.893H-80.2424V157.192ZM-59.7932 157.192H-41.5539V162.893H-59.7932V157.192ZM-39.3437 157.192H-21.0676V162.893H-39.3437V157.192ZM-18.8942 157.192H-0.581187V162.893H-18.8942V157.192ZM1.55541 157.192H19.9051V162.893H1.55541V157.192ZM22.0045 157.192H40.3912V162.893H22.0045V157.192ZM42.4541 157.192H60.8776V162.893H42.4541V157.192ZM63.1228 157.192H81.5465V162.893H63.1228V157.192ZM83.6093 157.192H101.996V162.893H83.6093V157.192ZM104.096 157.192H122.445V162.893H104.096V157.192ZM124.582 157.192H142.895V162.893H124.582V157.192ZM145.068 157.192H163.344V162.893H145.068V157.192ZM165.554 157.192H183.794V162.893H165.554V157.192ZM186.041 157.192H204.243V162.893H186.041V157.192ZM206.527 157.192H224.692V162.893H206.527V157.192ZM227.013 157.192H245.142V162.893H227.013V157.192ZM247.5 157.192H265.591V162.893H247.5V157.192ZM267.986 157.192H286.041V162.893H267.986V157.192ZM288.472 157.192H306.49V162.893H288.472V157.192ZM-182.488 140.824H-164.47V146.525H-182.488V140.824ZM-162.039 140.824H-143.984V146.525H-162.039V140.824ZM-141.589 140.824H-123.498V146.525H-141.589V140.824ZM-121.14 140.824H-103.011V146.525H-121.14V140.824ZM-100.69 140.824H-82.5248V146.525H-100.69V140.824ZM-80.241 140.824H-62.0386V146.525H-80.241V140.824ZM-59.7915 140.824H-41.5521V146.525H-59.7915V140.824ZM-39.3421 140.824H-21.066V146.525H-39.3421V140.824ZM-18.8926 140.824H-0.579557V146.525H-18.8926V140.824ZM1.55683 140.824H19.9067V146.525H1.55683V140.824ZM22.0063 140.824H40.3928V146.525H22.0063V140.824ZM42.4557 140.824H60.8794V146.525H42.4557V140.824ZM63.1212 140.824H81.5449V146.525H63.1212V140.824ZM83.6074 140.824H101.994V146.525H83.6074V140.824ZM104.094 140.824H122.444V146.525H104.094V140.824ZM124.58 140.824H142.893V146.525H124.58V140.824ZM145.066 140.824H163.343V146.525H145.066V140.824ZM165.553 140.824H183.792V146.525H165.553V140.824ZM186.039 140.824H204.241V146.525H186.039V140.824ZM206.525 140.824H224.691V146.525H206.525V140.824ZM227.012 140.824H245.14V146.525H227.012V140.824ZM247.498 140.824H265.59V146.525H247.498V140.824ZM267.984 140.824H286.039V146.525H267.984V140.824ZM288.471 140.824H306.489V146.525H288.471V140.824ZM-182.486 124.456H-164.468V130.156H-182.486V124.456ZM-162.037 124.456H-143.982V130.156H-162.037V124.456ZM-141.588 124.456H-123.496V130.156H-141.588V124.456ZM-121.138 124.456H-103.009V130.156H-121.138V124.456ZM-100.689 124.456H-82.5234V130.156H-100.689V124.456ZM-80.2394 124.456H-62.0369V130.156H-80.2394V124.456ZM-59.7897 124.456H-41.5507V130.156H-59.7897V124.456ZM-39.3405 124.456H-21.0642V130.156H-39.3405V124.456ZM-18.891 124.456H-0.57815V130.156H-18.891V124.456ZM1.55866 124.456H19.9083V130.156H1.55866V124.456ZM22.0079 124.456H40.3946V130.156H22.0079V124.456ZM42.4574 124.456H60.8811V130.156H42.4574V124.456ZM63.1196 124.456H81.543V130.156H63.1196V124.456ZM83.6056 124.456H101.993V130.156H83.6056V124.456ZM104.092 124.456H122.442V130.156H104.092V124.456ZM124.578 124.456H142.891V130.156H124.578V124.456ZM145.065 124.456H163.341V130.156H145.065V124.456ZM165.551 124.456H183.79V130.156H165.551V124.456ZM186.037 124.456H204.24V130.156H186.037V124.456ZM206.524 124.456H224.689V130.156H206.524V124.456ZM227.01 124.456H245.139V130.156H227.01V124.456ZM247.496 124.456H265.588V130.156H247.496V124.456ZM267.983 124.456H286.037V130.156H267.983V124.456ZM288.469 124.456H306.487V130.156H288.469V124.456ZM-182.485 108.088H-164.467V113.788H-182.485V108.088ZM-162.035 108.088H-143.98V113.788H-162.035V108.088ZM-141.586 108.088H-123.494V113.788H-141.586V108.088ZM-121.136 108.088H-103.008V113.788H-121.136V108.088ZM-100.687 108.088H-82.5216V113.788H-100.687V108.088ZM-80.2376 108.088H-62.0353V113.788H-80.2376V108.088ZM-59.7881 108.088H-41.5489V113.788H-59.7881V108.088ZM-39.3386 108.088H-21.0624V113.788H-39.3386V108.088ZM-18.8894 108.088H-0.576323V113.788H-18.8894V108.088ZM1.56028 108.088H19.9099V113.788H1.56028V108.088ZM22.0097 108.088H40.3964V113.788H22.0097V108.088ZM42.459 108.088H60.8827V113.788H42.459V108.088ZM63.118 108.088H81.5414V113.788H63.118V108.088ZM83.604 108.088H101.991V113.788H83.604V108.088ZM104.09 108.088H122.44V113.788H104.09V108.088ZM124.577 108.088H142.89V113.788H124.577V108.088ZM145.063 108.088H163.339V113.788H145.063V108.088ZM165.549 108.088H183.789V113.788H165.549V108.088ZM186.036 108.088H204.238V113.788H186.036V108.088ZM206.522 108.088H224.687V113.788H206.522V108.088ZM227.008 108.088H245.137V113.788H227.008V108.088ZM247.495 108.088H265.587V113.788H247.495V108.088ZM267.981 108.088H286.036V113.788H267.981V108.088ZM288.467 108.088H306.485V113.788H288.467V108.088ZM-182.483 91.7197H-164.465V97.42H-182.483V91.7197ZM-162.034 91.7197H-143.979V97.42H-162.034V91.7197ZM-141.584 91.7197H-123.493V97.42H-141.584V91.7197ZM-121.135 91.7197H-103.006V97.42H-121.135V91.7197ZM-100.685 91.7197H-82.5198V97.42H-100.685V91.7197ZM-80.2359 91.7197H-62.0335V97.42H-80.2359V91.7197ZM-59.7863 91.7197H-41.5472V97.42H-59.7863V91.7197ZM-39.337 91.7197H-21.0608V97.42H-39.337V91.7197ZM-18.8876 91.7197H-0.574509V97.42H-18.8876V91.7197ZM1.56189 91.7197H19.9116V97.42H1.56189V91.7197ZM22.0115 91.7197H40.398V97.42H22.0115V91.7197ZM42.4608 91.7197H60.8843V97.42H42.4608V91.7197ZM63.1163 91.7197H81.5398V97.42H63.1163V91.7197ZM83.6024 91.7197H101.989V97.42H83.6024V91.7197ZM104.089 91.7197H122.439V97.42H104.089V91.7197ZM124.575 91.7197H142.888V97.42H124.575V91.7197ZM145.061 91.7197H163.337V97.42H145.061V91.7197ZM165.548 91.7197H183.787V97.42H165.548V91.7197ZM186.034 91.7197H204.236V97.42H186.034V91.7197ZM206.521 91.7197H224.686V97.42H206.521V91.7197ZM227.007 91.7197H245.135V97.42H227.007V91.7197ZM247.493 91.7197H265.585V97.42H247.493V91.7197ZM267.979 91.7197H286.034V97.42H267.979V91.7197ZM288.466 91.7197H306.484V97.42H288.466V91.7197ZM-182.481 75.3512H-164.463V81.0517H-182.481V75.3512ZM-162.032 75.3512H-143.977V81.0517H-162.032V75.3512ZM-141.583 75.3512H-123.491V81.0517H-141.583V75.3512ZM-121.133 75.3512H-103.004V81.0517H-121.133V75.3512ZM-100.684 75.3512H-82.5179V81.0517H-100.684V75.3512ZM-80.2343 75.3512H-62.0319V81.0517H-80.2343V75.3512ZM-59.7847 75.3512H-41.5456V81.0517H-59.7847V75.3512ZM-39.3352 75.3512H-21.0592V81.0517H-39.3352V75.3512ZM-18.886 75.3512H-0.573089V81.0517H-18.886V75.3512ZM1.56351 75.3512H19.9132V81.0517H1.56351V75.3512ZM22.0132 75.3512H40.3996V81.0517H22.0132V75.3512ZM42.4624 75.3512H60.8861V81.0517H42.4624V75.3512ZM63.1145 75.3512H81.538V81.0517H63.1145V75.3512ZM83.601 75.3512H101.987V81.0517H83.601V75.3512ZM104.087 75.3512H122.437V81.0517H104.087V75.3512ZM124.573 75.3512H142.886V81.0517H124.573V75.3512ZM145.06 75.3512H163.336V81.0517H145.06V75.3512ZM165.546 75.3512H183.785V81.0517H165.546V75.3512ZM186.032 75.3512H204.235V81.0517H186.032V75.3512ZM206.519 75.3512H224.684V81.0517H206.519V75.3512ZM227.005 75.3512H245.134V81.0517H227.005V75.3512ZM247.491 75.3512H265.583V81.0517H247.491V75.3512ZM267.978 75.3512H286.033V81.0517H267.978V75.3512ZM288.464 75.3512H306.482V81.0517H288.464V75.3512ZM-182.48 58.9831H-164.462V64.6835H-182.48V58.9831ZM-162.03 58.9831H-143.976V64.6835H-162.03V58.9831ZM-141.581 58.9831H-123.489V64.6835H-141.581V58.9831ZM-121.131 58.9831H-103.003V64.6835H-121.131V58.9831ZM-100.682 58.9831H-82.5165V64.6835H-100.682V58.9831ZM-80.2327 58.9831H-62.0305V64.6835H-80.2327V58.9831ZM-59.783 58.9831H-41.544V64.6835H-59.783V58.9831ZM-39.3336 58.9831H-21.0575V64.6835H-39.3336V58.9831ZM-18.8843 58.9831H-0.571275V64.6835H-18.8843V58.9831ZM1.56532 58.9831H19.915V64.6835H1.56532V58.9831ZM22.0148 58.9831H40.4015V64.6835H22.0148V58.9831ZM42.464 58.9831H60.8875V64.6835H42.464V58.9831ZM63.1129 58.9831H81.5364V64.6835H63.1129V58.9831ZM83.5992 58.9831H101.986V64.6835H83.5992V58.9831ZM104.085 58.9831H122.435V64.6835H104.085V58.9831ZM124.572 58.9831H142.885V64.6835H124.572V58.9831ZM145.058 58.9831H163.334V64.6835H145.058V58.9831ZM165.544 58.9831H183.784V64.6835H165.544V58.9831ZM186.031 58.9831H204.233V64.6835H186.031V58.9831ZM206.517 58.9831H224.683V64.6835H206.517V58.9831ZM227.003 58.9831H245.132V64.6835H227.003V58.9831ZM247.489 58.9831H265.581V64.6835H247.489V58.9831ZM267.976 58.9831H286.031V64.6835H267.976V58.9831ZM288.462 58.9831H306.48V64.6835H288.462V58.9831ZM-182.478 42.615H-164.46V48.3153H-182.478V42.615ZM-162.029 42.615H-143.974V48.3153H-162.029V42.615ZM-141.579 42.615H-123.487V48.3153H-141.579V42.615ZM-121.13 42.615H-103.001V48.3153H-121.13V42.615ZM-100.68 42.615H-82.5147V48.3153H-100.68V42.615ZM-80.2309 42.615H-62.0287V48.3153H-80.2309V42.615ZM-59.7814 42.615H-41.5422V48.3153H-59.7814V42.615ZM-39.332 42.615H-21.0557V48.3153H-39.332V42.615ZM-18.8825 42.615H-0.569448V48.3153H-18.8825V42.615ZM1.56694 42.615H19.9166V48.3153H1.56694V42.615ZM22.0162 42.615H40.4031V48.3153H22.0162V42.615ZM42.4658 42.615H60.8893V48.3153H42.4658V42.615ZM63.1111 42.615H81.5348V48.3153H63.1111V42.615ZM83.5975 42.615H101.984V48.3153H83.5975V42.615ZM104.084 42.615H122.433V48.3153H104.084V42.615ZM124.57 42.615H142.883V48.3153H124.57V42.615ZM145.056 42.615H163.333V48.3153H145.056V42.615ZM165.543 42.615H183.782V48.3153H165.543V42.615ZM186.029 42.615H204.231V48.3153H186.029V42.615ZM206.515 42.615H224.681V48.3153H206.515V42.615ZM227.002 42.615H245.13V48.3153H227.002V42.615ZM247.488 42.615H265.58V48.3153H247.488V42.615ZM267.974 42.615H286.029V48.3153H267.974V42.615ZM288.461 42.615H306.479V48.3153H288.461V42.615ZM-182.476 26.2467H-164.458V31.9472H-182.476V26.2467ZM-162.027 26.2467H-143.972V31.9472H-162.027V26.2467ZM-141.577 26.2467H-123.486V31.9472H-141.577V26.2467ZM-121.128 26.2467H-103V31.9472H-121.128V26.2467ZM-100.679 26.2467H-82.5133V31.9472H-100.679V26.2467ZM-80.2293 26.2467H-62.0268V31.9472H-80.2293V26.2467ZM-59.7798 26.2467H-41.5406V31.9472H-59.7798V26.2467ZM-39.3303 26.2467H-21.0541V31.9472H-39.3303V26.2467ZM-18.8809 26.2467H-0.568041V31.9472H-18.8809V26.2467ZM1.56856 26.2467H19.9182V31.9472H1.56856V26.2467ZM22.018 26.2467H40.4047V31.9472H22.018V26.2467ZM42.4675 26.2467H60.891V31.9472H42.4675V26.2467ZM63.1094 26.2467H81.5329V31.9472H63.1094V26.2467ZM83.5957 26.2467H101.983V31.9472H83.5957V26.2467ZM104.082 26.2467H122.432V31.9472H104.082V26.2467ZM124.568 26.2467H142.882V31.9472H124.568V26.2467ZM145.055 26.2467H163.331V31.9472H145.055V26.2467ZM165.541 26.2467H183.78V31.9472H165.541V26.2467ZM186.027 26.2467H204.23V31.9472H186.027V26.2467ZM206.514 26.2467H224.679V31.9472H206.514V26.2467ZM227 26.2467H245.129V31.9472H227V26.2467ZM247.486 26.2467H265.578V31.9472H247.486V26.2467ZM267.973 26.2467H286.028V31.9472H267.973V26.2467ZM288.459 26.2467H306.477V31.9472H288.459V26.2467ZM-182.475 9.87843H-164.457V15.5788H-182.475V9.87843ZM-162.025 9.87843H-143.97V15.5788H-162.025V9.87843ZM-141.576 9.87843H-123.484V15.5788H-141.576V9.87843ZM-121.127 9.87843H-102.998V15.5788H-121.127V9.87843ZM-100.677 9.87843H-82.5115V15.5788H-100.677V9.87843ZM-80.2277 9.87843H-62.0252V15.5788H-80.2277V9.87843ZM-59.7782 9.87843H-41.5389V15.5788H-59.7782V9.87843ZM-39.3287 9.87843H-21.0527V15.5788H-39.3287V9.87843ZM-18.8791 9.87843H-0.566214V15.5788H-18.8791V9.87843ZM1.57017 9.87843H19.92V15.5788H1.57017V9.87843ZM22.0196 9.87843H40.4063V15.5788H22.0196V9.87843ZM42.4693 9.87843H60.8928V15.5788H42.4693V9.87843ZM63.1078 9.87843H81.5313V15.5788H63.1078V9.87843ZM83.5943 9.87843H101.981V15.5788H83.5943V9.87843ZM104.08 9.87843H122.43V15.5788H104.08V9.87843ZM124.567 9.87843H142.88V15.5788H124.567V9.87843ZM145.053 9.87843H163.329V15.5788H145.053V9.87843ZM165.539 9.87843H183.779V15.5788H165.539V9.87843ZM186.026 9.87843H204.228V15.5788H186.026V9.87843ZM206.512 9.87843H224.677V15.5788H206.512V9.87843ZM226.998 9.87843H245.127V15.5788H226.998V9.87843ZM247.485 9.87843H265.576V15.5788H247.485V9.87843ZM267.971 9.87843H286.026V15.5788H267.971V9.87843ZM288.457 9.87843H306.475V15.5788H288.457V9.87843ZM-183.807 0V1.6942H-175.564V7.39455H-183.807V18.0625H-175.564V23.7628H-183.807V34.4306H-175.564V40.1309H-183.807V50.7989H-175.564V56.4992H-183.807V67.1672H-175.564V72.8673H-183.807V83.5353H-175.564V89.2356H-183.807V99.9036H-175.564V105.604H-183.807V116.272H-175.564V121.972H-183.807V132.64H-175.564V138.34H-183.807V149.008H-175.564V154.709H-183.807V165.376H-175.564V171.077H-183.807V181.745H-175.564V187.445H-183.807V194H-182.493V189.929H-164.475V194H-162.044V189.929H-143.989V194H-141.594V189.929H-123.503V194H-121.145V189.929H-103.016V194H-100.696V189.929H-82.5299V194H-80.2458V189.929H-62.0436V194H-59.7966V189.929H-41.5573V194H-39.3469V189.929H-21.0709V194H-18.8975V189.929H-0.584816V194H1.55178V189.929H19.9016V194H22.0012V189.929H40.3881V194H42.4509V189.929H60.8744V194H63.1262V189.929H81.5497V194H83.6125V189.929H101.999V194H104.099V189.929H122.448V194H124.585V189.929H142.898V194H145.072V189.929H163.348V194H165.558V189.929H183.797V194H186.044V189.929H204.246V194H206.53V189.929H224.696V194H227.017V189.929H245.145V194H247.503V189.929H265.595V194H267.989V189.929H286.044V194H288.476V189.929H306.494V194H307.807V187.445H299.564V181.745H307.807V171.077H299.564V165.376H307.807V154.709H299.564V149.008H307.807V138.34H299.564V132.64H307.807V121.972H299.564V116.272H307.807V105.604H299.564V99.9036H307.807V89.2356H299.564V83.5353H307.807V72.8673H299.564V67.1672H307.807V56.4992H299.564V50.7989H307.807V40.1309H299.564V34.4306H307.807V23.7628H299.564V18.0625H307.807V7.39471H299.564V1.69437H307.807V0H-183.807Z" fill="#E7C8E8"/>
<path d="M71.8129 50.7988H52.188V56.4992H71.8129V50.7988Z" fill="#EDD6EE"/>
<mask id="mask1_2246_95383" style="mask-type:luminance" maskUnits="userSpaceOnUse" x="-184" y="0" width="492" height="194">
<path d="M307.807 0H-183.807V194H307.807V0Z" fill="white"/>
</mask>
<g mask="url(#mask1_2246_95383)">
<path d="M52.188 116.272V121.972H71.8129V116.272H52.188Z" fill="#EDD6EE"/>
<path d="M31.7383 116.272V121.972H50.1249V116.272H31.7383Z" fill="#EDD6EE"/>
<path d="M73.8755 116.272V121.972H92.2622V116.272H73.8755Z" fill="#EDD6EE"/>
<path d="M11.2891 116.272V121.972H29.6389V116.272H11.2891Z" fill="#EDD6EE"/>
<path d="M94.3618 116.272V121.972H112.712V116.272H94.3618Z" fill="#EDD6EE"/>
<path d="M-9.16064 116.272V121.972H9.15221V116.272H-9.16064Z" fill="#EDD6EE"/>
<path d="M114.848 116.272V121.972H133.161V116.272H114.848Z" fill="#EDD6EE"/>
<path d="M52.188 99.9038V105.604H71.8129V99.9038H52.188Z" fill="#EDD6EE"/>
<path d="M31.7383 99.9038V105.604H50.1249V99.9038H31.7383Z" fill="#EDD6EE"/>
<path d="M73.8755 99.9038V105.604H92.2622V99.9038H73.8755Z" fill="#EDD6EE"/>
<path d="M11.2891 99.9038V105.604H29.6389V99.9038H11.2891Z" fill="#EDD6EE"/>
<path d="M94.3618 99.9038V105.604H112.712V99.9038H94.3618Z" fill="#EDD6EE"/>
<path d="M-9.16064 99.9038V105.604H9.15221V99.9038H-9.16064Z" fill="#EDD6EE"/>
<path d="M114.848 99.9038V105.604H133.161V99.9038H114.848Z" fill="#EDD6EE"/>
<path d="M71.8129 83.5356H52.188V89.236H71.8129V83.5356Z" fill="#EDD6EE"/>
<path d="M50.1249 83.5356H31.7383V89.236H50.1249V83.5356Z" fill="#EDD6EE"/>
<path d="M92.2622 83.5356H73.8755V89.236H92.2622V83.5356Z" fill="#EDD6EE"/>
<path d="M29.6389 83.5356H11.2891V89.236H29.6389V83.5356Z" fill="#EDD6EE"/>
<path d="M112.712 83.5356H94.3618V89.236H112.712V83.5356Z" fill="#EDD6EE"/>
<path d="M9.15221 83.5356H-9.16064V89.236H9.15221V83.5356Z" fill="#EDD6EE"/>
<path d="M133.161 83.5356H114.848V89.236H133.161V83.5356Z" fill="#EDD6EE"/>
<path d="M71.8129 67.167H52.188V72.8673H71.8129V67.167Z" fill="#EDD6EE"/>
<path d="M50.1249 67.167H31.7383V72.8673H50.1249V67.167Z" fill="#EDD6EE"/>
<path d="M92.2622 67.167H73.8755V72.8673H92.2622V67.167Z" fill="#EDD6EE"/>
<path d="M29.6389 67.167H11.2891V72.8673H29.6389V67.167Z" fill="#EDD6EE"/>
<path d="M112.712 67.167H94.3618V72.8673H112.712V67.167Z" fill="#EDD6EE"/>
<path d="M9.15221 67.167H-9.16064V72.8673H9.15221V67.167Z" fill="#EDD6EE"/>
<path d="M133.161 67.167H114.848V72.8673H133.161V67.167Z" fill="#EDD6EE"/>
<path d="M50.1249 50.7988H31.7383V56.4992H50.1249V50.7988Z" fill="#EDD6EE"/>
<path d="M92.2622 50.7988H73.8755V56.4992H92.2622V50.7988Z" fill="#EDD6EE"/>
<path d="M29.6389 50.7988H11.2891V56.4992H29.6389V50.7988Z" fill="#EDD6EE"/>
<path d="M112.712 50.7988H94.3618V56.4992H112.712V50.7988Z" fill="#EDD6EE"/>
<path d="M9.15221 50.7988H-9.16064V56.4992H9.15221V50.7988Z" fill="#EDD6EE"/>
<path d="M133.161 50.7988H114.848V56.4992H133.161V50.7988Z" fill="#EDD6EE"/>
<path d="M52.188 34.4307V40.131H71.8129V34.4307H52.188Z" fill="#EDD6EE"/>
<path d="M31.7383 34.4307V40.131H50.1249V34.4307H31.7383Z" fill="#EDD6EE"/>
<path d="M73.8755 34.4307V40.131H92.2622V34.4307H73.8755Z" fill="#EDD6EE"/>
<path d="M11.2891 34.4307V40.131H29.6389V34.4307H11.2891Z" fill="#EDD6EE"/>
<path d="M94.3618 34.4307V40.131H112.712V34.4307H94.3618Z" fill="#EDD6EE"/>
<path d="M-9.16064 34.4307V40.131H9.15221V34.4307H-9.16064Z" fill="#EDD6EE"/>
<path d="M114.848 34.4307V40.131H133.161V34.4307H114.848Z" fill="#EDD6EE"/>
<path d="M71.8129 18.0625H52.188V23.7628H71.8129V18.0625Z" fill="#EDD6EE"/>
<path d="M50.1249 18.0625H31.7383V23.7628H50.1249V18.0625Z" fill="#EDD6EE"/>
<path d="M92.2622 18.0625H73.8755V23.7628H92.2622V18.0625Z" fill="#EDD6EE"/>
<path d="M29.6389 18.0625H11.2891V23.7628H29.6389V18.0625Z" fill="#EDD6EE"/>
<path d="M112.712 18.0625H94.3618V23.7628H112.712V18.0625Z" fill="#EDD6EE"/>
<path d="M9.15221 18.0625H-9.16064V23.7628H9.15221V18.0625Z" fill="#EDD6EE"/>
<path d="M133.161 18.0625H114.848V23.7628H133.161V18.0625Z" fill="#EDD6EE"/>
<path d="M52.188 1.69434V7.39468H71.8129V1.69434H52.188Z" fill="#EDD6EE"/>
<path d="M50.1249 1.69434H31.7383V7.39468H50.1249V1.69434Z" fill="#EDD6EE"/>
<path d="M92.2622 1.69434H73.8755V7.39468H92.2622V1.69434Z" fill="#EDD6EE"/>
<path d="M29.6389 1.69434H11.2891V7.39468H29.6389V1.69434Z" fill="#EDD6EE"/>
<path d="M112.711 1.69434H94.3613V7.39468H112.711V1.69434Z" fill="#EDD6EE"/>
<path d="M9.15221 1.69434H-9.16064V7.39468H9.15221V1.69434Z" fill="#EDD6EE"/>
<path d="M133.161 1.69434H114.848V7.39468H133.161V1.69434Z" fill="#EDD6EE"/>
<path d="M52.188 116.272V121.972H71.8129V116.272H52.188Z" fill="#EDD6EE"/>
<path d="M50.1249 116.272H31.7383V121.972H50.1249V116.272Z" fill="#EDD6EE"/>
<path d="M92.2622 116.272H73.8755V121.972H92.2622V116.272Z" fill="#EDD6EE"/>
<path d="M29.6389 116.272H11.2891V121.972H29.6389V116.272Z" fill="#EDD6EE"/>
<path d="M112.711 116.272H94.3613V121.972H112.711V116.272Z" fill="#EDD6EE"/>
<path d="M9.15221 116.272H-9.16064V121.972H9.15221V116.272Z" fill="#EDD6EE"/>
<path d="M133.161 116.272H114.848V121.972H133.161V116.272Z" fill="#EDD6EE"/>
<path d="M52.188 99.9038V105.604H71.8129V99.9038H52.188Z" fill="#EDD6EE"/>
<path d="M50.1249 99.9038H31.7383V105.604H50.1249V99.9038Z" fill="#EDD6EE"/>
<path d="M92.2622 99.9038H73.8755V105.604H92.2622V99.9038Z" fill="#EDD6EE"/>
<path d="M29.6389 99.9038H11.2891V105.604H29.6389V99.9038Z" fill="#EDD6EE"/>
<path d="M112.711 99.9038H94.3613V105.604H112.711V99.9038Z" fill="#EDD6EE"/>
<path d="M9.15221 99.9038H-9.16064V105.604H9.15221V99.9038Z" fill="#EDD6EE"/>
<path d="M133.161 99.9038H114.848V105.604H133.161V99.9038Z" fill="#EDD6EE"/>
<path d="M71.8129 83.5356H52.188V89.236H71.8129V83.5356Z" fill="#EDD6EE"/>
<path d="M50.1249 83.5356H31.7383V89.236H50.1249V83.5356Z" fill="#EDD6EE"/>
<path d="M92.2622 83.5356H73.8755V89.236H92.2622V83.5356Z" fill="#EDD6EE"/>
<path d="M29.6389 83.5356H11.2891V89.236H29.6389V83.5356Z" fill="#EDD6EE"/>
<path d="M112.711 83.5356H94.3613V89.236H112.711V83.5356Z" fill="#EDD6EE"/>
<path d="M9.15221 83.5356H-9.16064V89.236H9.15221V83.5356Z" fill="#EDD6EE"/>
<path d="M133.161 83.5356H114.848V89.236H133.161V83.5356Z" fill="#EDD6EE"/>
<path d="M71.8129 67.167H52.188V72.8673H71.8129V67.167Z" fill="#EDD6EE"/>
<path d="M50.1249 67.167H31.7383V72.8673H50.1249V67.167Z" fill="#EDD6EE"/>
<path d="M92.2622 67.167H73.8755V72.8673H92.2622V67.167Z" fill="#EDD6EE"/>
<path d="M29.6389 67.167H11.2891V72.8673H29.6389V67.167Z" fill="#EDD6EE"/>
<path d="M112.711 67.167H94.3613V72.8673H112.711V67.167Z" fill="#EDD6EE"/>
<path d="M9.15221 67.167H-9.16064V72.8673H9.15221V67.167Z" fill="#EDD6EE"/>
<path d="M133.161 67.167H114.848V72.8673H133.161V67.167Z" fill="#EDD6EE"/>
<path d="M71.8129 50.7988H52.188V56.4992H71.8129V50.7988Z" fill="#EDD6EE"/>
<path d="M50.1249 50.7988H31.7383V56.4992H50.1249V50.7988Z" fill="#EDD6EE"/>
<path d="M92.2622 50.7988H73.8755V56.4992H92.2622V50.7988Z" fill="#EDD6EE"/>
<path d="M29.6389 50.7988H11.2891V56.4992H29.6389V50.7988Z" fill="#EDD6EE"/>
<path d="M112.711 50.7988H94.3613V56.4992H112.711V50.7988Z" fill="#EDD6EE"/>
<path d="M9.15221 50.7988H-9.16064V56.4992H9.15221V50.7988Z" fill="#EDD6EE"/>
<path d="M133.161 50.7988H114.848V56.4992H133.161V50.7988Z" fill="#EDD6EE"/>
<path d="M52.188 34.4307V40.131H71.8129V34.4307H52.188Z" fill="#EDD6EE"/>
<path d="M50.1249 34.4307H31.7383V40.131H50.1249V34.4307Z" fill="#EDD6EE"/>
<path d="M92.2622 34.4307H73.8755V40.131H92.2622V34.4307Z" fill="#EDD6EE"/>
<path d="M29.6389 34.4307H11.2891V40.131H29.6389V34.4307Z" fill="#EDD6EE"/>
<path d="M112.711 34.4307H94.3613V40.131H112.711V34.4307Z" fill="#EDD6EE"/>
<path d="M9.15221 34.4307H-9.16064V40.131H9.15221V34.4307Z" fill="#EDD6EE"/>
<path d="M133.161 34.4307H114.848V40.131H133.161V34.4307Z" fill="#EDD6EE"/>
<path d="M71.8129 18.0625H52.188V23.7628H71.8129V18.0625Z" fill="#EDD6EE"/>
<path d="M50.1249 18.0625H31.7383V23.7628H50.1249V18.0625Z" fill="#EDD6EE"/>
<path d="M92.2622 18.0625H73.8755V23.7628H92.2622V18.0625Z" fill="#EDD6EE"/>
<path d="M29.6389 18.0625H11.2891V23.7628H29.6389V18.0625Z" fill="#EDD6EE"/>
<path d="M112.711 18.0625H94.3613V23.7628H112.711V18.0625Z" fill="#EDD6EE"/>
<path d="M9.15221 18.0625H-9.16064V23.7628H9.15221V18.0625Z" fill="#EDD6EE"/>
<path d="M133.161 18.0625H114.848V23.7628H133.161V18.0625Z" fill="#EDD6EE"/>
<path d="M52.188 1.69434V7.39468H71.8129V1.69434H52.188Z" fill="#EDD6EE"/>
<path d="M50.1249 1.69434H31.7383V7.39468H50.1249V1.69434Z" fill="#EDD6EE"/>
<path d="M92.2622 1.69434H73.8755V7.39468H92.2622V1.69434Z" fill="#EDD6EE"/>
<path d="M29.6389 1.69434H11.2891V7.39468H29.6389V1.69434Z" fill="#EDD6EE"/>
<path d="M112.712 1.69434H94.3618V7.39468H112.712V1.69434Z" fill="#EDD6EE"/>
<path d="M9.15271 1.69434H-9.16016V7.39468H9.15271V1.69434Z" fill="#EDD6EE"/>
<path d="M133.161 1.69434H114.848V7.39468H133.161V1.69434Z" fill="#EDD6EE"/>
<path d="M60.8825 108.088H42.459V113.788H60.8825V108.088Z" fill="#EDD6EE"/>
<path d="M81.5416 108.088H63.1182V113.788H81.5416V108.088Z" fill="#EDD6EE"/>
<path d="M40.3964 108.088H22.0098V113.788H40.3964V108.088Z" fill="#EDD6EE"/>
<path d="M101.991 108.088H83.604V113.788H101.991V108.088Z" fill="#EDD6EE"/>
<path d="M19.9099 108.088H1.56006V113.788H19.9099V108.088Z" fill="#EDD6EE"/>
<path d="M122.44 108.088H104.09V113.788H122.44V108.088Z" fill="#EDD6EE"/>
<path d="M60.8844 91.7192H42.4609V97.4196H60.8844V91.7192Z" fill="#EDD6EE"/>
<path d="M81.5397 91.7192H63.1162V97.4196H81.5397V91.7192Z" fill="#EDD6EE"/>
<path d="M40.3979 91.7192H22.0112V97.4196H40.3979V91.7192Z" fill="#EDD6EE"/>
<path d="M101.989 91.7192H83.6025V97.4196H101.989V91.7192Z" fill="#EDD6EE"/>
<path d="M19.9119 91.7192H1.56201V97.4196H19.9119V91.7192Z" fill="#EDD6EE"/>
<path d="M122.439 91.7192H104.089V97.4196H122.439V91.7192Z" fill="#EDD6EE"/>
<path d="M60.8859 75.3511H42.4624V81.0514H60.8859V75.3511Z" fill="#EDD6EE"/>
<path d="M81.5377 75.3511H63.1143V81.0514H81.5377V75.3511Z" fill="#EDD6EE"/>
<path d="M40.3994 75.3511H22.0127V81.0514H40.3994V75.3511Z" fill="#EDD6EE"/>
<path d="M101.987 75.3511H83.6006V81.0514H101.987V75.3511Z" fill="#EDD6EE"/>
<path d="M19.9133 75.3511H1.56348V81.0514H19.9133V75.3511Z" fill="#EDD6EE"/>
<path d="M122.437 75.3511H104.087V81.0514H122.437V75.3511Z" fill="#EDD6EE"/>
<path d="M60.8873 58.9829H42.4639V64.6833H60.8873V58.9829Z" fill="#EDD6EE"/>
<path d="M81.5363 58.9829H63.1128V64.6833H81.5363V58.9829Z" fill="#EDD6EE"/>
<path d="M40.4013 58.9829H22.0146V64.6833H40.4013V58.9829Z" fill="#EDD6EE"/>
<path d="M101.986 58.9829H83.5991V64.6833H101.986V58.9829Z" fill="#EDD6EE"/>
<path d="M19.9153 58.9829H1.56543V64.6833H19.9153V58.9829Z" fill="#EDD6EE"/>
<path d="M122.435 58.9829H104.085V64.6833H122.435V58.9829Z" fill="#EDD6EE"/>
<path d="M60.8893 42.6147H42.4658V48.3151H60.8893V42.6147Z" fill="#EDD6EE"/>
<path d="M81.5348 42.6147H63.1113V48.3151H81.5348V42.6147Z" fill="#EDD6EE"/>
<path d="M40.4028 42.6147H22.0161V48.3151H40.4028V42.6147Z" fill="#EDD6EE"/>
<path d="M101.984 42.6147H83.5977V48.3151H101.984V42.6147Z" fill="#EDD6EE"/>
<path d="M19.9168 42.6147H1.56689V48.3151H19.9168V42.6147Z" fill="#EDD6EE"/>
<path d="M122.434 42.6147H104.084V48.3151H122.434V42.6147Z" fill="#EDD6EE"/>
<path d="M60.8908 26.2466H42.4673V31.9469H60.8908V26.2466Z" fill="#EDD6EE"/>
<path d="M81.5329 26.2466H63.1094V31.9469H81.5329V26.2466Z" fill="#EDD6EE"/>
<path d="M40.4047 26.2466H22.0181V31.9469H40.4047V26.2466Z" fill="#EDD6EE"/>
<path d="M101.982 26.2466H83.5957V31.9469H101.982V26.2466Z" fill="#EDD6EE"/>
<path d="M19.918 26.2466H1.56836V31.9469H19.918V26.2466Z" fill="#EDD6EE"/>
<path d="M122.432 26.2466H104.082V31.9469H122.432V26.2466Z" fill="#EDD6EE"/>
<path d="M60.8927 9.87842H42.4692V15.5788H60.8927V9.87842Z" fill="#EDD6EE"/>
<path d="M81.5314 9.87842H63.1079V15.5788H81.5314V9.87842Z" fill="#EDD6EE"/>
<path d="M40.4062 9.87842H22.0195V15.5788H40.4062V9.87842Z" fill="#EDD6EE"/>
<path d="M101.981 9.87842H83.5942V15.5788H101.981V9.87842Z" fill="#EDD6EE"/>
<path d="M19.9202 9.87842H1.57031V15.5788H19.9202V9.87842Z" fill="#EDD6EE"/>
<path d="M122.43 9.87842H104.08V15.5788H122.43V9.87842Z" fill="#EDD6EE"/>
</g>
</g>
</g>
<path d="M94.2499 54.0752H29.0332V79.8585H94.2499V54.0752Z" fill="url(#paint0_linear_2246_95383)"/>
<path d="M30.5498 82.1341V51.8008H25.9998V82.1341H30.5498Z" fill="url(#paint1_linear_2246_95383)"/>
<path d="M30.5497 79.8594L30.5497 54.076H32.0664V79.8594H30.5497Z" fill="#DCAF71"/>
<path d="M94.249 51.7995V82.1328H98.799V51.7995H94.249Z" fill="url(#paint2_linear_2246_95383)"/>
<path d="M94.2491 54.0742V79.8576H92.7324V54.0742H94.2491Z" fill="#DCAF71"/>
<path opacity="0.41" d="M34.2982 62.8524C34.7068 62.9956 35.2585 62.9881 35.7645 62.9754C47.5129 62.6777 59.3008 62.7354 71.0339 63.1483C72.1048 63.1859 73.2464 63.2197 74.1851 62.9704C75.1237 62.7212 75.6719 62.0708 74.9802 61.6781C74.4198 61.36 73.4102 61.3679 72.5428 61.3978C65.0667 61.6564 57.5392 61.5737 50.0959 61.1508C46.2976 60.9351 42.7128 60.76 38.9162 61.0577C37.8875 61.1384 31.4662 61.8605 34.2984 62.8526L34.2982 62.8524Z" fill="white"/>
<path d="M49.5083 -28.4501L49.5083 36.7666H75.2916V-28.4501H49.5083Z" fill="url(#paint3_linear_2246_95383)"/>
<path d="M77.5672 35.2505H47.2339V39.8005H77.5672V35.2505Z" fill="url(#paint4_linear_2246_95383)"/>
<path d="M75.2925 35.2506H49.5091V33.7339H75.2925V35.2506Z" fill="#DCAF71"/>
<path opacity="0.41" d="M58.2855 31.5012C58.4287 31.0925 58.4212 30.5408 58.4085 30.0349C58.1108 18.2864 58.1685 6.49854 58.5814 -5.23459C58.619 -6.30553 58.6528 -7.44708 58.4035 -8.38574C58.1543 -9.3244 57.5039 -9.87261 57.1112 -9.18084C56.7931 -8.62048 56.801 -7.6109 56.8309 -6.74344C57.0895 0.732572 57.0068 8.2601 56.5839 15.7034C56.3682 19.5018 56.1931 23.0865 56.4908 26.8831C56.5715 27.9118 57.2937 34.3331 58.2857 31.5009L58.2855 31.5012Z" fill="white"/>
<path d="M49.5078 100.2C49.5078 119.884 65.465 135.841 85.1495 135.841V110.15C85.1495 110.15 80.2484 110.118 78.0425 107.987C75.1993 105.24 75.1993 100.2 75.1993 100.2H49.5078Z" fill="url(#paint5_linear_2246_95383)"/>
<path d="M86.667 107.783V138.117H91.217V107.783H86.667Z" fill="url(#paint6_linear_2246_95383)"/>
<path d="M86.6671 110.058V135.841H85.1504V110.058H86.6671Z" fill="#DCAF71"/>
<path d="M47.2331 98.6826H77.5664V94.1326H47.2331V98.6826Z" fill="url(#paint7_linear_2246_95383)"/>
<path d="M49.5078 98.6826H75.2911V100.199H49.5078V98.6826Z" fill="#DCAF71"/>
<path opacity="0.41" d="M61.0298 123.844C61.3756 124.207 61.7213 124.571 62.0671 124.934C62.8304 125.736 63.6862 126.587 64.7859 126.718C64.8384 126.725 64.8951 126.729 64.9413 126.703C64.9937 126.673 65.02 126.613 65.0354 126.555C65.2595 125.712 64.0923 125.039 63.5914 124.569C63.0617 124.072 62.7878 123.499 62.3503 122.947C62.0561 122.576 61.34 121.954 60.8187 122.181C60.0246 122.527 60.6626 123.458 61.0298 123.844Z" fill="white"/>
<path d="M59.786 71.1237C57.1874 67.1434 51.8555 67.2318 48.5254 70.2183C46.4864 72.0458 45.4281 74.6636 44.2623 77.0743C42.9288 79.8274 41.5952 82.5804 40.2596 85.3322C40.0649 85.7347 39.9482 86.1358 39.8974 86.5278C26.5285 99.3809 11.5693 110.408 -4.71203 119.311C-8.73659 121.511 -5.5112 127.884 -1.48404 125.68C16.3504 115.928 32.7621 103.708 47.189 89.3677C51.1345 89.0912 54.5348 86.3164 57.2374 83.5508C60.4712 80.2411 62.5983 75.4313 59.786 71.1237Z" fill="#3A285B"/>
</g>
<defs>
<linearGradient id="paint0_linear_2246_95383" x1="61.6415" y1="54.0752" x2="61.6415" y2="79.8585" gradientUnits="userSpaceOnUse">
<stop stop-color="#E1BC70"/>
<stop offset="0.164488" stop-color="#E4C98C"/>
<stop offset="0.398864" stop-color="#EADDBB"/>
<stop offset="0.653069" stop-color="#EADEBC"/>
<stop offset="0.840985" stop-color="#E4C98C"/>
<stop offset="1" stop-color="#E1BC70"/>
</linearGradient>
<linearGradient id="paint1_linear_2246_95383" x1="28.2748" y1="82.1341" x2="28.2748" y2="51.8008" gradientUnits="userSpaceOnUse">
<stop stop-color="#E1BC70"/>
<stop offset="0.164488" stop-color="#E4C98C"/>
<stop offset="0.398864" stop-color="#EADDBB"/>
<stop offset="0.653069" stop-color="#EADEBC"/>
<stop offset="0.840985" stop-color="#E4C98C"/>
<stop offset="1" stop-color="#E1BC70"/>
</linearGradient>
<linearGradient id="paint2_linear_2246_95383" x1="96.524" y1="51.7995" x2="96.524" y2="82.1328" gradientUnits="userSpaceOnUse">
<stop stop-color="#E1BC70"/>
<stop offset="0.164488" stop-color="#E4C98C"/>
<stop offset="0.398864" stop-color="#EADDBB"/>
<stop offset="0.653069" stop-color="#EADEBC"/>
<stop offset="0.840985" stop-color="#E4C98C"/>
<stop offset="1" stop-color="#E1BC70"/>
</linearGradient>
<linearGradient id="paint3_linear_2246_95383" x1="49.5083" y1="4.15826" x2="75.2916" y2="4.15827" gradientUnits="userSpaceOnUse">
<stop stop-color="#E1BC70"/>
<stop offset="0.164488" stop-color="#E4C98C"/>
<stop offset="0.398864" stop-color="#EADDBB"/>
<stop offset="0.653069" stop-color="#EADEBC"/>
<stop offset="0.840985" stop-color="#E4C98C"/>
<stop offset="1" stop-color="#E1BC70"/>
</linearGradient>
<linearGradient id="paint4_linear_2246_95383" x1="77.5672" y1="37.5255" x2="47.2339" y2="37.5255" gradientUnits="userSpaceOnUse">
<stop stop-color="#E1BC70"/>
<stop offset="0.164488" stop-color="#E4C98C"/>
<stop offset="0.398864" stop-color="#EADDBB"/>
<stop offset="0.653069" stop-color="#EADEBC"/>
<stop offset="0.840985" stop-color="#E4C98C"/>
<stop offset="1" stop-color="#E1BC70"/>
</linearGradient>
<linearGradient id="paint5_linear_2246_95383" x1="61.6411" y1="125.225" x2="77.9453" y2="104.37" gradientUnits="userSpaceOnUse">
<stop stop-color="#E1BC70"/>
<stop offset="0.164488" stop-color="#E4C98C"/>
<stop offset="0.398864" stop-color="#EADDBB"/>
<stop offset="0.653069" stop-color="#EADEBC"/>
<stop offset="0.840985" stop-color="#E4C98C"/>
<stop offset="1" stop-color="#E1BC70"/>
</linearGradient>
<linearGradient id="paint6_linear_2246_95383" x1="88.942" y1="107.783" x2="88.942" y2="138.117" gradientUnits="userSpaceOnUse">
<stop stop-color="#E1BC70"/>
<stop offset="0.164488" stop-color="#E4C98C"/>
<stop offset="0.398864" stop-color="#EADDBB"/>
<stop offset="0.653069" stop-color="#EADEBC"/>
<stop offset="0.840985" stop-color="#E4C98C"/>
<stop offset="1" stop-color="#E1BC70"/>
</linearGradient>
<linearGradient id="paint7_linear_2246_95383" x1="47.2331" y1="96.4076" x2="77.5664" y2="96.4076" gradientUnits="userSpaceOnUse">
<stop stop-color="#E1BC70"/>
<stop offset="0.164488" stop-color="#E4C98C"/>
<stop offset="0.398864" stop-color="#EADDBB"/>
<stop offset="0.653069" stop-color="#EADEBC"/>
<stop offset="0.840985" stop-color="#E4C98C"/>
<stop offset="1" stop-color="#E1BC70"/>
</linearGradient>
<clipPath id="clip0_2246_95383">
<rect width="124" height="124" rx="12" fill="white"/>
</clipPath>
<clipPath id="clip1_2246_95383">
<rect width="491.614" height="194" fill="white" transform="translate(-183.807)"/>
</clipPath>
</defs>
</svg>
