<svg width="64" height="65" viewBox="0 0 64 65" fill="none" xmlns="http://www.w3.org/2000/svg">
    <g clip-path="url(#clip0_2535_56280)">
        <rect y="0.317871" width="64" height="64" rx="12" fill="#E4D7CD" />
        <path d="M31.9196 0.317871H31.1013V24.0482H31.9196V0.317871Z" fill="#606060" />
        <path d="M33.2416 15.4131H29.9897V17.4809H33.2416V15.4131Z" fill="#606060" />
        <ellipse cx="31.5556" cy="25.2282" rx="6.90998" ry="6.73033"
            transform="rotate(-180 31.5556 25.2282)" fill="#FDDF76" />
        <path
            d="M31.5556 14.5017C30.9617 14.5017 30.4534 14.7076 30.0305 15.1195C29.7898 15.354 29.6176 15.6154 29.5139 15.9038H28.3165C28.0106 15.9038 27.7542 16.0046 27.5472 16.2062C27.3403 16.4077 27.2368 16.6575 27.2368 16.9555C27.2368 17.2534 27.3403 17.5032 27.5472 17.7047C27.7542 17.9063 28.0106 18.0071 28.3165 18.0071H34.7946C35.1005 18.0071 35.3569 17.9063 35.5639 17.7047C35.7708 17.5032 35.8743 17.2534 35.8743 16.9555C35.8743 16.6575 35.7708 16.4077 35.5639 16.2062C35.3569 16.0046 35.1005 15.9038 34.7946 15.9038H33.5972C33.4935 15.6154 33.3213 15.354 33.0806 15.1195C32.6577 14.7076 32.1494 14.5017 31.5556 14.5017Z"
            fill="#606060" />
        <path
            d="M27.5472 17.9589C27.7542 17.7573 28.0106 17.6565 28.3165 17.6565H34.7946C35.1005 17.6565 35.3569 17.7573 35.5639 17.9589C35.7708 18.1604 35.8743 18.4102 35.8743 18.7082C35.8743 19.0061 35.7708 19.2559 35.5639 19.4574C35.3569 19.659 35.1005 19.7598 34.7946 19.7598H28.3165C28.0106 19.7598 27.7542 19.659 27.5472 19.4574C27.3403 19.2559 27.2368 19.0061 27.2368 18.7082C27.2368 18.4102 27.3403 18.1604 27.5472 17.9589Z"
            fill="#606060" />
        <path opacity="0.61"
            d="M27.8886 29.4578C27.6514 29.277 27.4234 29.0811 27.2506 28.8455C26.9729 28.4671 26.8526 28.004 26.83 27.5465C26.8233 27.4104 26.8264 27.2674 26.8967 27.1479C27.0084 26.9579 27.2784 26.8764 27.5022 26.9366C27.726 26.9967 27.8983 27.1761 27.9783 27.3795C28.0516 27.5659 28.0558 27.7693 28.1054 27.9623C28.2079 28.3608 28.5022 28.6987 28.8527 28.947C29.2034 29.1952 29.6102 29.3642 30.0146 29.5269C30.3145 29.6476 30.7032 29.8291 30.625 30.1934C30.56 30.4963 30.3074 30.5342 30.0268 30.487C29.2388 30.3546 28.4981 29.9224 27.8885 29.4578H27.8886Z"
            fill="white" />
        <path
            d="M35.5934 51.0719C35.6579 50.5318 35.2602 50.0315 34.705 49.9546C34.1499 49.8776 33.6476 50.2531 33.5831 50.7933L35.5934 51.0719ZM33.5831 50.7933L32.6943 58.238L34.7046 58.5167L35.5934 51.0719L33.5831 50.7933Z"
            fill="#3A285B" />
        <path
            d="M30.0274 50.8526C30.1211 50.3151 29.7538 49.7849 29.2072 49.6684C28.6606 49.5518 28.1415 49.8931 28.0479 50.4306L30.0274 50.8526ZM26.9588 54.5659L27.5575 55.3907L27.5575 55.3907L26.9588 54.5659ZM29.0377 50.6416C28.0479 50.4306 28.0479 50.4303 28.048 50.4301C28.048 50.4301 28.048 50.4299 28.048 50.4298C28.0481 50.4296 28.0481 50.4294 28.0481 50.4293C28.0482 50.429 28.0482 50.4289 28.0482 50.429C28.0482 50.4292 28.048 50.43 28.0477 50.4314C28.0472 50.4343 28.0462 50.4398 28.0447 50.4476C28.0417 50.4634 28.0367 50.4888 28.0296 50.5228C28.0155 50.5909 27.9929 50.6928 27.961 50.8198C27.8967 51.0753 27.7961 51.4258 27.6518 51.8047C27.348 52.6024 26.9122 53.359 26.3601 53.7412L27.5575 55.3907C28.592 54.6746 29.1957 53.469 29.5346 52.5791C29.7117 52.1142 29.8333 51.6896 29.911 51.3808C29.95 51.2258 29.9783 51.0983 29.9972 51.0075C30.0067 50.9621 30.0138 50.9257 30.0188 50.8995C30.0213 50.8864 30.0232 50.8759 30.0247 50.868C30.0254 50.8641 30.026 50.8608 30.0264 50.8583C30.0267 50.857 30.0269 50.8559 30.027 50.8549C30.0271 50.8544 30.0272 50.854 30.0273 50.8536C30.0273 50.8534 30.0273 50.8532 30.0274 50.8531C30.0274 50.8528 30.0274 50.8526 29.0377 50.6416ZM26.3601 53.7412C25.7674 54.1514 24.6601 54.4139 23.5435 54.5547C23.014 54.6215 22.5294 54.6557 22.177 54.6732C22.0014 54.6819 21.8599 54.6863 21.7636 54.6886C21.7155 54.6897 21.6789 54.6903 21.6549 54.6906C21.643 54.6908 21.6343 54.6909 21.6289 54.6909C21.6262 54.6909 21.6244 54.6909 21.6234 54.6909C21.6229 54.6909 21.6227 54.691 21.6226 54.691C21.6226 54.691 21.6226 54.691 21.6227 54.691C21.6227 54.691 21.6229 54.6909 21.6229 54.6909C21.623 54.6909 21.6231 54.6909 21.6701 55.6867C21.7171 56.6825 21.7173 56.6825 21.7174 56.6825C21.7175 56.6825 21.7177 56.6825 21.7179 56.6825C21.7182 56.6825 21.7185 56.6825 21.719 56.6825C21.7198 56.6825 21.7209 56.6825 21.7222 56.6825C21.7248 56.6825 21.7282 56.6825 21.7326 56.6825C21.7413 56.6824 21.7534 56.6823 21.7688 56.6821C21.7997 56.6817 21.8437 56.681 21.8995 56.6796C22.0111 56.677 22.17 56.672 22.3648 56.6623C22.7534 56.6431 23.2903 56.6053 23.8824 56.5306C25.0092 56.3885 26.5462 56.0906 27.5575 55.3907L26.3601 53.7412Z"
            fill="#3A285B" />
        <path
            d="M23.9222 57.634C24.2461 58.1975 24.5106 58.8095 24.586 59.4589C24.6614 60.1081 24.5308 60.8009 24.1335 61.314C23.7362 61.827 23.0495 62.1222 22.4317 61.9533C21.7805 61.7751 21.3433 61.1589 21.0289 60.5495C20.2634 59.0657 19.9035 57.3724 19.9501 55.6947C19.9645 55.1798 20.0261 54.6383 20.3224 54.2213C20.6727 53.7283 21.311 53.5009 21.9038 53.5622C22.4966 53.6236 23.0421 53.9407 23.486 54.3217C23.4654 55.412 23.5718 56.5046 23.922 57.6339L23.9222 57.634Z"
            fill="#9C93AD" />
        <path
            d="M24.2032 57.6877C24.5271 58.2512 24.7916 58.8632 24.867 59.5126C24.9424 60.1618 24.8118 60.8547 24.4145 61.3677C24.0172 61.8807 23.3305 62.176 22.7127 62.007C22.0615 61.8289 21.6243 61.2126 21.3099 60.6032C20.5445 59.1194 20.1845 57.4261 20.2311 55.7484C20.2455 55.2335 20.3071 54.6921 20.6034 54.275C20.9537 53.782 21.592 53.5546 22.1848 53.6159C22.7776 53.6773 23.3231 53.9944 23.767 54.3754C23.7464 55.4657 23.8528 56.5583 24.203 57.6876L24.2032 57.6877Z"
            fill="white" />
        <path
            d="M25.9967 55.5399C26.0556 55.9515 26.1148 56.3675 26.0764 56.7798C26.0382 57.1923 25.8931 57.6071 25.5951 57.8971C25.2972 58.1871 24.8286 58.3271 24.4328 58.1744C23.9906 58.0041 23.7476 57.5387 23.5967 57.0973C23.3414 56.3497 23.2335 55.5561 23.281 54.7736C23.3055 54.3719 23.3886 53.9389 23.6953 53.6753C24.0063 53.4081 24.4912 53.3897 24.8692 53.5673C25.2474 53.7449 25.525 54.089 25.6953 54.4642C25.8657 54.8394 25.9544 55.2455 25.9967 55.5399Z"
            fill="#E1DDE8" />
        <path
            d="M35.4943 58.5024C36.1032 58.2992 36.7461 58.1655 37.3847 58.2282C38.0231 58.2908 38.6596 58.5678 39.0672 59.0723C39.4748 59.5769 39.6122 60.3236 39.3192 60.9032C39.0103 61.5141 38.3268 61.8189 37.6758 62.0028C36.091 62.4506 34.3912 62.4501 32.7926 62.0478C32.3021 61.9242 31.796 61.7481 31.459 61.3645C31.0607 60.9109 30.978 60.2269 31.1625 59.6494C31.3471 59.0719 31.7668 58.5958 32.2262 58.2344C33.2671 58.4862 34.3372 58.6118 35.4942 58.5025L35.4943 58.5024Z"
            fill="#9C93AD" />
        <path
            d="M35.6056 58.2343C36.2146 58.0311 36.8574 57.8974 37.496 57.9601C38.1344 58.0227 38.771 58.2997 39.1785 58.8043C39.5861 59.3088 39.7236 60.0555 39.4305 60.6351C39.1216 61.246 38.4381 61.5509 37.7872 61.7348C36.2023 62.1826 34.5026 62.182 32.904 61.7797C32.4134 61.6562 31.9073 61.48 31.5703 61.0964C31.172 60.6429 31.0893 59.9588 31.2739 59.3813C31.4584 58.8038 31.8781 58.3277 32.3375 57.9663C33.3785 58.2181 34.4485 58.3438 35.6055 58.2345L35.6056 58.2343Z"
            fill="white" />
        <path
            d="M33.9267 55.9922C34.3338 56.0208 34.7452 56.0501 35.1324 56.1757C35.5198 56.3013 35.8866 56.5338 36.1015 56.8921C36.3163 57.2504 36.3512 57.7468 36.1209 58.1087C35.8637 58.5131 35.366 58.6565 34.9108 58.7132C34.14 58.8089 33.3563 58.7481 32.6161 58.5348C32.2362 58.4252 31.8387 58.2506 31.651 57.8892C31.4607 57.5227 31.546 57.0358 31.7964 56.6969C32.0469 56.3579 32.4357 56.1543 32.8315 56.0642C33.2274 55.9741 33.6355 55.9718 33.9267 55.9922Z"
            fill="#E1DDE8" />
        <path
            d="M39.0566 40.2227C40.7815 40.4138 42.4548 40.9509 43.9737 41.8051C44.3551 42.0196 44.7156 42.2896 45.1166 42.4652C45.5073 42.6363 45.8868 42.5946 46.2982 42.6331C46.6485 42.666 46.9735 42.7966 47.1811 43.0981C47.3548 43.3505 47.4213 43.6968 47.2443 43.9684C46.9946 44.3517 46.4927 44.3521 46.1077 44.2199C45.6531 44.0637 45.2952 43.7253 45.0683 43.3005C45.0225 43.2147 45.0282 43.1326 45.0639 43.0647C44.435 42.8425 43.8831 42.3905 43.2918 42.0867C42.6723 41.7683 42.0257 41.5035 41.3633 41.2934C40.5947 41.0496 39.8067 40.8866 39.0067 40.7979C38.6444 40.7578 38.6935 40.1822 39.0567 40.2224L39.0566 40.2227ZM46.4464 43.2746C46.4878 43.283 46.5297 43.2899 46.5723 43.2955C46.4949 43.2518 46.4051 43.2286 46.3129 43.2158C46.3575 43.2349 46.4021 43.2548 46.4464 43.2746Z"
            fill="#3A285B" />
        <path
            d="M34.7544 52.5514C39.8258 50.5668 42.3381 44.7659 40.3657 39.5947C38.3933 34.4235 32.6832 31.8403 27.6118 33.825C22.5404 35.8096 20.0281 41.6105 22.0005 46.7817C23.9729 51.9528 29.683 54.536 34.7544 52.5514Z"
            fill="#28AEFB" />
        <path
            d="M31.3368 45.7777C31.0744 45.7435 30.8407 45.5951 30.6061 45.4808C30.4874 45.4229 30.3654 45.3706 30.2368 45.341C30.1 45.3096 29.9657 45.3133 29.8271 45.3253C29.6718 45.3388 29.5245 45.3472 29.3761 45.2892C29.2537 45.2413 29.1389 45.1708 29.009 45.1447C28.7259 45.0877 28.5808 45.3157 28.421 45.507C28.3328 45.6124 28.2249 45.6937 28.0837 45.6965C27.9616 45.6989 27.8429 45.6541 27.7312 45.6076C27.4773 45.5019 27.2489 45.3884 26.9675 45.4009C26.683 45.4137 26.3189 45.513 26.0822 45.2903C25.9522 45.1678 25.9561 44.9876 25.9982 44.8261C26.0401 44.6661 26.1045 44.5079 26.1992 44.373C26.2841 44.2522 26.4083 44.1368 26.5641 44.1427C26.6941 44.1476 26.8186 44.2363 26.9393 44.1447C26.9925 44.1043 27.0237 44.0445 27.0652 43.9933C27.105 43.9439 27.1559 43.9071 27.2137 43.8821C27.3241 43.8345 27.4543 43.836 27.5672 43.8753C27.6803 43.9148 27.7726 43.9923 27.8227 44.1037C27.846 44.1554 27.9289 44.1274 27.916 44.0714C27.8144 43.6289 27.914 43.172 28.005 42.7375C28.0901 42.3314 28.2219 41.8769 28.6052 41.6634C28.802 41.5537 28.9911 41.58 29.2051 41.5964C29.3664 41.6086 29.5421 41.5921 29.6556 41.4613C29.8311 41.259 29.7572 40.9301 29.5949 40.7427C29.5522 40.6933 29.5023 40.6548 29.4471 40.6211C29.3698 40.5741 29.2546 40.5192 29.2153 40.4312C29.1693 40.3284 29.2914 40.2881 29.3638 40.2607C29.4342 40.234 29.5025 40.2008 29.5429 40.1334C29.6127 40.0171 29.5637 39.8708 29.4904 39.7693C29.39 39.6302 29.2397 39.5817 29.0832 39.5361C28.901 39.4829 28.7508 39.4205 28.6478 39.2498C28.5672 39.116 28.5068 38.9515 28.3718 38.8624C28.237 38.7735 28.0843 38.803 27.9428 38.8553C27.8026 38.907 27.629 39.0132 27.4799 38.9337C27.3908 38.8862 27.3338 38.7932 27.2458 38.7431C27.1793 38.7052 27.1027 38.6942 27.0297 38.7174C26.881 38.7647 26.7833 38.9235 26.7646 39.0749C26.7345 39.3181 26.9081 39.536 27.0226 39.7317C27.0475 39.7741 27.0719 39.8204 27.0925 39.8689C27.1207 40.012 27.123 40.16 27.0996 40.3037C27.0979 40.3064 27.0972 40.3095 27.0954 40.3122C27.0858 40.3271 27.0855 40.3419 27.0901 40.3548C27.0688 40.4571 27.0352 40.5563 26.9855 40.6479C26.943 40.7262 26.8851 40.8043 26.8018 40.8403C26.7254 40.8733 26.6268 40.8677 26.5712 40.7983C26.5111 40.7232 26.5016 40.6104 26.4777 40.5195C26.4558 40.4356 26.4301 40.3504 26.3877 40.2744C26.3471 40.2017 26.2919 40.1384 26.2211 40.095C26.1438 40.0475 26.0556 40.0225 25.9787 39.9743C25.8474 39.892 25.7504 39.763 25.695 39.6175C25.6396 39.4723 25.628 39.3061 25.6726 39.1568C25.7137 39.0193 25.8006 38.9011 25.8959 38.7973C26.0794 38.5977 26.3155 38.432 26.4457 38.1872C26.5072 38.0718 26.5474 37.9338 26.524 37.8016C26.4978 37.6532 26.3857 37.5339 26.2295 37.5678C26.1371 37.5877 26.0485 37.6389 25.9639 37.68C25.8654 37.728 25.7681 37.779 25.6726 37.8328C25.5807 37.8847 25.4905 37.9392 25.4016 37.9964C25.3132 38.0532 25.2248 38.1131 25.1269 38.1523C24.9393 38.2275 24.7448 38.172 24.5503 38.176C24.3484 38.1799 24.1558 38.2423 23.958 38.2758C23.53 38.3484 23.0821 38.2596 22.7011 38.0473C22.2068 38.8979 21.8381 39.8207 21.6079 40.7834C21.6895 40.8975 21.7576 41.0208 21.8131 41.1343C21.9275 41.3684 22.0315 41.6089 22.1929 41.8149C22.3458 42.0097 22.5351 42.1718 22.6841 42.3698C23.0126 42.8064 23.1063 43.3664 23.2676 43.8775C23.4254 44.3779 23.6799 44.8244 23.9939 45.2402C24.1526 45.4503 24.3223 45.6516 24.4945 45.8503C24.5892 45.9597 24.7613 46.2351 24.9408 46.147C25.0915 46.073 25.0197 45.8696 24.9488 45.7632C24.8013 45.5413 24.63 45.3327 24.4713 45.119C24.338 44.9396 24.1306 44.6419 24.3383 44.4356C24.5194 44.2555 24.7852 44.5394 24.8983 44.6735C25.0579 44.8624 25.1695 45.0934 25.2175 45.3375C25.2565 45.5357 25.2587 45.7481 25.3498 45.9323C25.4371 46.1087 25.5994 46.1812 25.7879 46.1602C25.9968 46.1371 26.2025 46.0716 26.4068 46.0237C26.6056 45.9772 26.8092 45.9348 27.0144 45.9375C27.2221 45.9403 27.4102 45.997 27.5872 46.1079C27.7379 46.2023 27.885 46.3217 28.0593 46.3673C28.2396 46.4144 28.3828 46.3423 28.5413 46.264C28.6074 46.2314 28.7014 46.178 28.7766 46.2116C28.8935 46.264 28.8416 46.4183 28.8059 46.5068C28.7687 46.5991 28.7233 46.6862 28.6993 46.7836C28.676 46.8778 28.6652 46.9749 28.6683 47.0721C28.6744 47.2666 28.7289 47.4612 28.8313 47.6266C28.9421 47.8055 29.0975 47.9122 29.2625 48.0339C29.361 48.1065 29.4485 48.1887 29.4855 48.3102C29.5135 48.4021 29.5299 48.5078 29.6129 48.5672C29.6964 48.627 29.7973 48.6034 29.892 48.6126C29.9884 48.6219 30.0795 48.6598 30.1593 48.7152C30.5699 49.0006 30.5797 49.5502 30.633 50.001C30.6829 50.4226 30.8141 50.8273 31.0265 51.1941C31.2315 51.5479 31.5025 51.8607 31.8217 52.1122C32.1303 52.3554 32.5115 52.5725 32.8977 52.6496C33.0426 52.6785 33.2668 52.6592 33.2887 52.471C33.3085 52.3 33.1283 52.2345 33.0012 52.1862C32.9088 52.1511 32.8071 52.1185 32.7443 52.0358C32.6736 51.9428 32.6563 51.8173 32.6401 51.7045C32.6122 51.5118 32.5842 51.3363 32.4326 51.2006C32.3362 51.1145 32.2093 51.0756 32.1 51.1413C32.0051 51.0346 32.1563 50.8583 32.2224 50.7761C32.3139 50.6625 32.3554 50.5537 32.3357 50.4053C32.3252 50.326 32.31 50.2506 32.3299 50.1713C32.3462 50.1067 32.378 50.0475 32.4123 49.9911C32.4813 49.8777 32.5637 49.7719 32.6105 49.6459C32.7121 49.3724 32.6433 49.0725 32.5996 48.794C32.5586 48.5322 32.5384 48.1944 32.7457 47.996C32.9404 47.8096 33.255 47.8181 33.4307 47.6041C33.5914 47.4082 33.5135 47.1655 33.4138 46.9607C33.3577 46.8454 33.2922 46.7326 33.2538 46.6095C33.207 46.4601 33.2315 46.3394 33.289 46.1977C33.3389 46.0749 33.3719 45.9531 33.3301 45.8221C33.2934 45.7076 33.213 45.6112 33.1167 45.543C32.5443 45.1384 31.9298 45.8547 31.3373 45.7774L31.3368 45.7777Z"
            fill="#42D576" />
        <path
            d="M40.3092 41.0977C40.2032 41.1483 40.087 41.1758 39.9695 41.1606C39.8479 41.1449 39.7418 41.0805 39.648 41.0032C39.5371 40.912 39.4371 40.806 39.3342 40.7058C39.2257 40.6003 39.1173 40.4949 39.0088 40.3894C38.9002 40.2839 38.7916 40.1786 38.6833 40.073C38.6173 40.0087 38.5547 39.9325 38.531 39.8406C38.5027 39.7306 38.5858 39.6726 38.6855 39.725C38.7754 39.7724 38.8459 39.8638 38.9105 39.9409C39.0389 40.0943 39.1529 40.2622 39.2994 40.3989C39.4355 40.5258 39.6002 40.6167 39.789 40.6061C40.0324 40.5926 40.2303 40.4139 40.3599 40.2167C40.4146 40.1334 40.4588 40.0468 40.4967 39.9583C40.4554 39.8368 40.4126 39.7155 40.3664 39.5945C39.4367 37.1573 37.6766 35.2952 35.5445 34.2151C35.5282 34.2344 35.5108 34.2527 35.4912 34.2681C35.3564 34.3744 35.1855 34.318 35.0292 34.339C34.7155 34.3812 34.5025 34.657 34.3843 34.9345C34.2586 35.2295 34.2435 35.5529 34.1897 35.8659C34.163 36.0214 34.1261 36.177 34.0606 36.3207C34.0005 36.4523 33.9114 36.5624 33.8157 36.6684C33.6366 36.8664 33.3998 37.095 33.4662 37.3925C33.472 37.4186 33.4979 37.4389 33.5248 37.4326C33.811 37.3653 34.0974 37.2979 34.3837 37.2304C34.5249 37.1972 34.6693 37.17 34.8085 37.1289C34.9028 37.1011 34.9891 37.0513 35.0393 36.9626C35.1256 36.81 35.0915 36.6163 35.0527 36.454C35.0288 36.3545 34.9974 36.2569 34.9767 36.1566C34.9496 36.0256 34.9371 35.892 34.9402 35.7584C34.9432 35.6282 34.9718 35.0744 35.214 35.2703C35.4041 35.4241 35.2527 35.7107 35.2709 35.9121C35.2883 36.1047 35.4154 36.2693 35.6176 36.2363C35.6738 36.2271 35.7323 36.2094 35.7808 36.2502C35.8254 36.2876 35.8444 36.3496 35.8421 36.4066C35.837 36.5304 35.7571 36.6469 35.7007 36.7521C35.5738 36.9887 35.4387 37.2238 35.2548 37.4198C35.0701 37.6166 34.8523 37.7768 34.6531 37.9575C34.4858 38.1091 34.3289 38.2803 34.2235 38.4833C34.1287 38.6661 34.0509 38.9126 34.1229 39.1175C34.1415 39.1704 34.1709 39.2162 34.2134 39.2525C34.2569 39.2897 34.3171 39.3107 34.3539 39.3555C34.4331 39.452 34.3457 39.5958 34.2567 39.6477C34.1405 39.7155 33.9945 39.7101 33.865 39.7228C33.7576 39.7332 33.6481 39.758 33.5573 39.8197C33.3986 39.9275 33.3682 40.1266 33.4736 40.2855C33.5813 40.4478 33.7707 40.532 33.9593 40.5268C34.4367 40.5135 34.777 40.1058 34.9519 39.6921C35.0502 39.4595 35.1124 39.2134 35.1845 38.9714C35.2155 38.8669 35.2546 38.719 35.3649 38.674C35.4511 38.639 35.5263 38.6915 35.5772 38.7604C35.6327 38.8356 35.6659 38.9281 35.6891 39.0182C35.6958 39.0441 35.7201 39.0647 35.7477 39.0583C35.922 39.0182 36.0136 38.8558 36.1253 38.7301C36.1771 38.672 36.2424 38.6085 36.3258 38.6161C36.4238 38.6251 36.4879 38.7193 36.5454 38.7902C36.676 38.9509 36.8451 39.0478 37.05 39.0696C37.2766 39.0936 37.4991 39.0205 37.6881 38.8967C37.7916 38.8289 37.8864 38.7483 37.9737 38.6599C38.0426 38.5901 38.1631 38.4081 38.2785 38.4765C38.3666 38.5287 38.3964 38.6653 38.4067 38.76C38.4186 38.8679 38.4019 38.9779 38.3668 39.0797C38.2895 39.3039 38.1215 39.4755 37.9157 39.5824C37.6829 39.7032 37.4356 39.7259 37.1793 39.7441C37.0648 39.7521 36.9474 39.7712 36.8506 39.838C36.7542 39.9045 36.6977 40.0194 36.5927 40.0738C36.3657 40.1917 36.1111 40.0328 35.9315 39.8966C35.8359 39.8243 35.7429 39.7446 35.6378 39.6864C35.5631 39.6451 35.4729 39.6365 35.4146 39.7092C35.36 39.7778 35.3624 39.8741 35.3406 39.9555C35.3145 40.0536 35.2395 40.1154 35.1547 40.1623C34.9822 40.2574 34.8003 40.3134 34.6465 40.443C34.501 40.5657 34.3871 40.7229 34.3042 40.8952C34.1316 41.2535 34.0922 41.6809 34.1813 42.0695C34.2069 42.1808 34.2484 42.2872 34.2799 42.3967C34.3167 42.524 34.3236 42.6422 34.2994 42.7722C34.2788 42.8823 34.2545 42.9893 34.2673 43.1024C34.2792 43.2082 34.3201 43.3098 34.3777 43.3983C34.6111 43.758 35.0651 43.9126 35.4723 43.8941C35.6828 43.8846 35.8907 43.8331 36.0799 43.739C36.2816 43.6385 36.4349 43.4892 36.5901 43.3277C36.7416 43.1701 36.9172 43.0102 37.1501 43.0401C37.24 43.0516 37.3296 43.095 37.3726 43.1803C37.4201 43.2747 37.4038 43.3892 37.4067 43.4912C37.4093 43.5826 37.4214 43.6774 37.4816 43.7499C37.5504 43.8329 37.6581 43.848 37.7405 43.9103C37.9239 44.0486 37.86 44.351 37.8521 44.5481C37.8312 45.0624 38.1429 45.462 38.5108 45.7798C38.7094 45.9515 38.9228 46.1051 39.1133 46.2865C39.2631 46.4292 39.4059 46.6031 39.6313 46.5838C39.8243 46.5672 39.9949 46.4256 40.0875 46.2585C40.2036 46.0489 40.2305 45.8076 40.2892 45.5783C40.3497 45.342 40.4392 45.1132 40.5562 44.9002C40.6145 44.7942 40.6815 44.6952 40.7486 44.595C40.7995 44.5191 40.8426 44.4308 40.8204 44.3365C40.7762 44.1479 40.5077 44.0935 40.5318 43.881C40.5515 43.7071 40.6752 43.5395 40.5672 43.3686C40.5112 43.28 40.4192 43.2284 40.3377 43.1677C40.2516 43.1036 40.1896 43.02 40.1636 42.9137C40.1121 42.7024 40.1842 42.4709 40.3021 42.2968C40.476 42.0399 40.7322 41.8424 40.905 41.5912C40.8601 41.3173 40.8036 41.0436 40.7355 40.7707C40.6094 40.9005 40.4707 41.0204 40.3089 41.0975L40.3092 41.0977Z"
            fill="#42D576" />
        <path fill-rule="evenodd" clip-rule="evenodd"
            d="M39.9398 38.4778C40.0137 38.6716 40.0813 38.8662 40.1427 39.0615C40.143 39.062 40.1433 39.0626 40.1435 39.0632C41.7202 44.0796 39.2099 49.5245 34.329 51.4346C29.2576 53.4192 23.5474 50.836 21.5749 45.6649C19.6024 40.4938 22.1146 34.6929 27.186 32.7083C29.1273 31.9486 31.1622 31.8582 33.0452 32.3261C31.1621 31.8581 29.1271 31.9485 27.1857 32.7082C22.1143 34.6928 19.6021 40.4937 21.5746 45.6648C21.6481 45.8575 21.7268 46.0467 21.8105 46.2321C21.8719 46.4273 21.9395 46.6219 22.0134 46.8157C23.9859 51.9868 29.696 54.57 34.7674 52.5854C39.8388 50.6007 42.351 44.7998 40.3786 39.6287C40.3053 39.4366 40.2269 39.2481 40.1435 39.0632C40.082 38.8674 40.0142 38.6722 39.9401 38.4779C38.7689 35.4075 36.2799 33.2494 33.3893 32.4183C36.2798 33.2495 38.7686 35.4075 39.9398 38.4778Z"
            fill="#1B84BF" fill-opacity="0.4" />
        <path
            d="M28.4643 33.5361C28.4626 33.5382 28.4614 33.5406 28.4598 33.5427C28.2807 33.7809 28.0669 34.0107 28.0072 34.315C27.9923 34.3908 27.9881 34.4746 27.937 34.5362C27.8992 34.5816 27.8452 34.6103 27.7928 34.6343C27.6872 34.6827 27.57 34.7106 27.4755 34.7811C27.3829 34.85 27.3393 34.9671 27.3796 35.0797C27.4314 35.2246 27.5741 35.2951 27.7141 35.3194C27.8709 35.3466 28.0267 35.3419 28.1815 35.3865C28.3274 35.4286 28.4664 35.494 28.5907 35.583C28.8532 35.771 29.0141 36.0529 29.0278 36.3804C29.0422 36.7281 28.9326 37.0654 28.93 37.4122C28.9274 37.741 29.0196 38.0665 29.2993 38.2593C29.4225 38.344 29.562 38.3995 29.6964 38.4622C29.7611 38.4925 29.8249 38.5246 29.8855 38.5632C29.9606 38.6113 30.026 38.6718 30.0966 38.7258C30.2107 38.8133 30.3584 38.8835 30.5021 38.8327C30.6284 38.7879 30.6874 38.6592 30.6846 38.5292C30.6815 38.3771 30.6163 38.2312 30.5316 38.1079C30.4823 38.0362 30.4232 37.9736 30.3574 37.9176C30.2929 37.863 30.2198 37.8156 30.167 37.7479C30.0591 37.6094 30.1131 37.4276 30.2112 37.3012C30.3201 37.1607 30.481 37.073 30.6115 36.956C30.7288 36.8507 30.8272 36.723 30.8994 36.5817C30.9726 36.4383 31.0008 36.288 31.0479 36.1357C31.0742 36.0505 31.1147 35.9842 31.1816 35.926C31.2415 35.8737 31.3059 35.8285 31.3556 35.7652C31.4355 35.6631 31.4692 35.5301 31.4686 35.4009C31.4671 35.0709 31.2801 34.8053 31.1426 34.52C31.0623 34.3534 31.0089 34.1805 31.025 33.9936C31.0387 33.8364 31.0897 33.6861 31.1366 33.537C31.1758 33.4128 31.2127 33.2864 31.2305 33.1568C30.3125 33.1478 29.3821 33.2711 28.4642 33.5363L28.4643 33.5361Z"
            fill="#42D576" />
        <path
            d="M28.2844 43.028C28.2815 43.0262 28.2773 43.0262 28.2723 43.0274C28.2691 43.0252 28.2636 43.0246 28.2546 43.0269C28.1088 43.0652 27.9706 43.1503 27.8504 43.2484C27.6727 43.3742 27.5329 43.5421 27.5399 43.7736C27.5401 43.7787 27.5459 43.7795 27.5544 43.778C27.5547 43.7804 27.5542 43.7827 27.5546 43.785C27.5593 43.8183 27.5715 43.849 27.5869 43.8779C27.6312 43.9975 27.7388 44.0813 27.8608 44.1161C28.0248 44.1628 28.1996 44.1227 28.3559 44.067C28.6316 43.9689 28.9915 43.7477 28.996 43.4085C29.0005 43.0636 28.5509 42.9608 28.2845 43.0281L28.2844 43.028Z"
            fill="#F9D1E1" />
        <path
            d="M37.7082 39.4538C37.9537 39.6878 38.3633 39.5779 38.6262 39.4439C38.7753 39.368 38.9261 39.2676 39.0074 39.1145C39.0679 39.0005 39.0832 38.8629 39.0287 38.7466C39.0188 38.7151 39.0054 38.6846 38.985 38.6578C38.9836 38.6559 38.9815 38.6546 38.98 38.6529C38.987 38.6477 38.9905 38.6428 38.987 38.6391C38.8265 38.4722 38.609 38.4575 38.3948 38.5001C38.2407 38.5199 38.0832 38.5619 37.9541 38.6423C37.946 38.6473 37.9426 38.6517 37.942 38.6556C37.9375 38.6584 37.9347 38.6615 37.934 38.6649C37.6996 38.8136 37.4587 39.216 37.7082 39.4538L37.7082 39.4538Z"
            fill="#F9D1E1" />
        <path
            d="M27.9724 43.4502C27.9678 43.4418 27.9618 43.4349 27.9552 43.4291C27.9481 43.4102 27.9303 43.3965 27.9095 43.4006C27.8808 43.4062 27.852 43.4183 27.8268 43.4336C27.7966 43.4521 27.7708 43.4745 27.7483 43.5022C27.7461 43.505 27.7449 43.5084 27.7439 43.5118C27.7354 43.5228 27.7289 43.5351 27.727 43.5493C27.7242 43.5725 27.7341 43.6001 27.755 43.6118C27.7552 43.6119 27.7555 43.6119 27.7558 43.6121C27.7628 43.6255 27.7768 43.6348 27.7926 43.6316C27.8274 43.6246 27.8623 43.6151 27.8955 43.6019C27.9259 43.5898 27.956 43.5704 27.9716 43.5404C27.9858 43.513 27.9877 43.4778 27.9723 43.4501L27.9724 43.4502Z"
            fill="white" />
        <path
            d="M38.6805 38.642C38.6609 38.607 38.6208 38.6029 38.5857 38.612C38.5836 38.6117 38.5813 38.6111 38.5793 38.6109C38.5331 38.6058 38.4854 38.6198 38.4498 38.65C38.4458 38.6534 38.443 38.6575 38.4409 38.6618C38.4246 38.6691 38.4174 38.6934 38.4254 38.7089C38.4266 38.7114 38.4284 38.713 38.43 38.715C38.4307 38.7188 38.431 38.7225 38.4324 38.7263C38.441 38.749 38.4622 38.7668 38.4848 38.7739C38.5085 38.7813 38.5329 38.779 38.5563 38.7718C38.565 38.7691 38.5735 38.7656 38.5821 38.7624C38.6023 38.7611 38.622 38.7562 38.6397 38.746C38.6472 38.7417 38.6542 38.7361 38.6607 38.7298C38.6703 38.7233 38.6774 38.7144 38.6808 38.7027C38.6899 38.6838 38.692 38.6624 38.6804 38.6419L38.6805 38.642Z"
            fill="white" />
        <path
            d="M32.8113 39.3888C32.8182 39.1936 32.7774 39.0198 32.7064 38.8528C32.6853 38.8035 32.6786 38.7575 32.7107 38.71C32.7691 38.6235 32.8687 38.6187 32.9176 38.708C32.9905 38.8408 33.0357 38.9861 33.0543 39.1364C33.0727 39.2851 33.0815 39.4341 33.0637 39.5861C33.0453 39.742 32.9914 39.8801 32.9094 40.0067C32.7891 40.1922 32.6138 40.3015 32.3959 40.3074C32.2939 40.3101 32.1874 40.2736 32.0887 40.2382C31.9105 40.1743 31.7698 40.0511 31.6552 39.902C31.5771 39.8005 31.5109 39.6887 31.4472 39.5769C31.4198 39.5287 31.4073 39.4698 31.3977 39.4139C31.3869 39.3511 31.4138 39.3049 31.457 39.2891C31.5231 39.2652 31.5904 39.2849 31.6243 39.3426C31.6421 39.3731 31.6524 39.4083 31.6672 39.4407C31.7429 39.6063 31.8496 39.7486 31.9839 39.869C32.1109 39.9829 32.2557 40.0474 32.4299 40.0312C32.5438 40.0206 32.6294 39.9691 32.6918 39.8708C32.7878 39.7195 32.8245 39.5546 32.8114 39.3886L32.8113 39.3888Z"
            fill="#2C2854" />
        <path
            d="M36.4455 38.7616C36.4415 38.753 36.4348 38.7447 36.4338 38.7358C36.4138 38.56 36.3525 38.3953 36.281 38.2333C36.1992 38.048 36.0865 37.8803 35.9546 37.723C35.7845 37.5201 35.5764 37.3598 35.3334 37.2397C35.199 37.1733 35.0558 37.1248 34.905 37.1082C34.6637 37.0815 34.4293 37.1035 34.2176 37.2303C34.207 37.2366 34.1946 37.2405 34.1832 37.2455C34.046 37.3412 33.9349 37.4587 33.848 37.5964C33.8294 37.6358 33.8091 37.6747 33.7923 37.7148C33.7336 37.8542 33.702 37.9986 33.6883 38.1482C33.6766 38.2764 33.6885 38.4019 33.705 38.5282C33.7062 38.5375 33.7045 38.5473 33.7042 38.5568C33.7154 38.6098 33.7265 38.6628 33.7377 38.7158C33.7431 38.7292 33.7496 38.7423 33.7537 38.756C33.8482 39.0809 34.0115 39.372 34.248 39.6257C34.4466 39.8387 34.6817 40.0052 34.9654 40.1084C35.1354 40.1703 35.3116 40.1984 35.4927 40.1848C35.7224 40.1675 35.9235 40.0857 36.0915 39.935C36.1891 39.8474 36.2641 39.7455 36.3227 39.632C36.3327 39.6127 36.344 39.594 36.3547 39.5749C36.3891 39.4772 36.4239 39.3794 36.439 39.277C36.4584 39.1463 36.472 39.0155 36.4539 38.8834C36.4485 38.8431 36.4483 38.8022 36.4455 38.7616Z"
            fill="white" />
        <path fill-rule="evenodd" clip-rule="evenodd"
            d="M35.2734 37.4081C35.2197 37.5527 35.2469 37.7542 35.3586 37.9346C35.5193 38.1941 35.7941 38.3114 35.9723 38.1967C35.9937 38.183 36.0128 38.1665 36.0294 38.1476C36.3903 38.8034 36.3095 39.5566 35.8316 39.8641C35.3325 40.1853 34.5891 39.8987 34.1713 39.224C33.7535 38.5494 33.8194 37.7421 34.3185 37.4209C34.5943 37.2435 34.9446 37.2515 35.2734 37.4081Z"
            fill="#2C2854" />
        <path
            d="M30.3092 38.9359C30.2708 38.8854 30.2336 38.8338 30.1939 38.7845C29.9268 38.453 29.5927 38.248 29.197 38.1642C28.8396 38.0886 28.4927 38.1334 28.1594 38.2929C27.7821 38.4735 27.4974 38.7653 27.3034 39.1612C27.2109 39.3502 27.1483 39.5515 27.1223 39.7646C27.1103 39.8633 27.1005 39.963 27.0996 40.0624C27.0986 40.183 27.1096 40.3036 27.1306 40.4225C27.1351 40.4481 27.1368 40.4742 27.1398 40.5002C27.145 40.5147 27.1513 40.5286 27.155 40.5435C27.1929 40.6955 27.2443 40.8417 27.3131 40.9802C27.3371 41.0284 27.3624 41.0759 27.387 41.1236C27.4033 41.1463 27.42 41.1685 27.4357 41.1915C27.742 41.6398 28.1482 41.9025 28.6566 41.9757C28.6681 41.9773 28.6791 41.9835 28.6903 41.9874C28.7215 41.9878 28.7528 41.9873 28.784 41.9886C28.8802 41.9928 28.9762 41.9928 29.0717 41.9764C29.1381 41.9649 29.2046 41.9546 29.271 41.9438C29.2869 41.9381 29.3026 41.9312 29.3188 41.9265C29.6525 41.8287 29.9381 41.6425 30.1714 41.3646C30.401 41.0911 30.5456 40.7698 30.6077 40.4044C30.6355 40.2408 30.6419 40.0758 30.6316 39.9107C30.6234 39.78 30.6019 39.6506 30.5667 39.5246C30.5597 39.4997 30.5552 39.474 30.5495 39.4486C30.5437 39.4344 30.5373 39.4205 30.5322 39.4061C30.495 39.2988 30.4534 39.1937 30.3996 39.0949C30.3703 39.0413 30.3394 38.9889 30.3092 38.9359Z"
            fill="white" />
        <path fill-rule="evenodd" clip-rule="evenodd"
            d="M27.5783 39.3343C27.7681 39.3897 27.9295 39.5556 27.9858 39.7804C28.0669 40.1042 27.8992 40.4275 27.6112 40.5025C27.5768 40.5114 27.5423 40.5164 27.5079 40.5177C27.7586 41.2965 28.5476 41.7578 29.3199 41.5569C30.1263 41.347 30.6091 40.4943 30.3982 39.6524C30.1873 38.8104 29.3626 38.2981 28.5562 38.508C28.1106 38.6239 27.7639 38.9361 27.5783 39.3343Z"
            fill="#2C2854" />
        <path
            d="M22.8661 44.2506C21.2935 45.1314 19.9048 46.3212 18.7868 47.7508C18.5061 48.1098 18.2668 48.5132 17.9523 48.843C17.6457 49.1644 17.2672 49.2783 16.8893 49.4817C16.5676 49.6549 16.3081 49.9111 16.2272 50.2826C16.1595 50.5936 16.2307 50.9508 16.5054 51.138C16.8928 51.4024 17.3722 51.1994 17.6884 50.9174C18.0617 50.5844 18.2718 50.1168 18.3233 49.6199C18.3336 49.5195 18.2962 49.4436 18.2358 49.3933C18.7498 48.9267 19.101 48.2722 19.5473 47.7431C20.015 47.1886 20.5294 46.6743 21.0801 46.2056C21.7191 45.6619 22.4082 45.1874 23.1375 44.7789C23.4678 44.5939 23.197 44.065 22.866 44.2504L22.8661 44.2506ZM16.9973 50.1534C16.9611 50.1782 16.9237 50.2017 16.8853 50.2243C16.9422 50.1512 17.0189 50.0927 17.102 50.0432C17.0667 50.0795 17.0319 50.1165 16.9973 50.1534Z"
            fill="#3A285B" />
        <path
            d="M25.2665 51.179C24.4988 50.2895 23.9246 49.3846 23.4851 48.2027C21.5521 43.0037 24.0142 37.1715 28.9844 35.1762C32.4366 33.7903 36.1908 34.62 38.8098 36.9982C36.2005 33.9746 31.9865 32.7745 28.1461 34.3162C23.1759 36.3116 20.7138 42.1437 22.6468 47.3427C23.2372 48.9307 24.1148 50.1333 25.2665 51.179Z"
            fill="white" />
    </g>
    <defs>
        <clipPath id="clip0_2535_56280">
            <rect y="0.317871" width="64" height="64" rx="12" fill="white" />
        </clipPath>
    </defs>
</svg>
