<svg xmlns="http://www.w3.org/2000/svg" width="124" height="124" fill="none"><g clip-path="url(#a)"><rect width="124" height="124" fill="#fff" rx="12"/><path fill="#D9D9D9" d="M0 0h124v124H0z"/><g clip-path="url(#b)"><mask id="c" width="270" height="124" x="-73" y="0" maskUnits="userSpaceOnUse" style="mask-type:luminance"><path fill="#fff" d="M196.233 0H-72.233v124h268.466V0Z"/></mask><g mask="url(#c)"><path fill="#F4E8D5" d="M67.359 105.705H56.642v3.643h10.717v-3.643Z"/><path fill="#EDDABB" d="M-71.515 110.936h9.84v3.643h-9.84v-3.643Zm11.168 0h9.86v3.643h-9.86v-3.643Zm11.167 0h9.88v3.643h-9.88v-3.643Zm11.167 0h9.9v3.643h-9.9v-3.643Zm11.167 0h9.92v3.643h-9.92v-3.643Zm11.168 0h9.94v3.643h-9.94v-3.643Zm11.167 0h9.96v3.643h-9.96v-3.643Zm11.167 0h9.98v3.643h-9.98v-3.643Zm11.168 0h10v3.643h-10v-3.643Zm11.167 0h10.02v3.643h-10.02v-3.643Zm11.167 0h10.04v3.643h-10.04v-3.643Zm11.167 0h10.061v3.643h-10.06v-3.643Zm11.289 0h10.061v3.643H62.614v-3.643Zm11.188 0h10.04v3.643h-10.04v-3.643Zm11.187 0h10.02v3.643H84.99v-3.643Zm11.187 0h10.001v3.643h-10v-3.643Zm11.188 0h9.98v3.643h-9.98v-3.643Zm11.187 0h9.96v3.643h-9.96v-3.643Zm11.187 0h9.941v3.643h-9.941v-3.643Zm11.188 0h9.92v3.643h-9.92v-3.643Zm11.187 0h9.9v3.643h-9.9v-3.643Zm11.188 0h9.879v3.643h-9.879v-3.643Zm11.187 0h9.86v3.643h-9.86v-3.643Zm11.187 0h9.84v3.643h-9.84v-3.643Zm-257.189-10.462h9.84v3.643h-9.84v-3.643Zm11.167 0h9.86v3.643h-9.86v-3.643Zm11.168 0h9.88v3.643h-9.88v-3.643Zm11.167 0h9.9v3.643h-9.9v-3.643Zm11.167 0h9.92v3.643h-9.92v-3.643Zm11.168 0h9.94v3.643h-9.94v-3.643Zm11.167 0h9.96v3.643h-9.96v-3.643Zm11.167 0h9.98v3.643h-9.98v-3.643Zm11.167 0h10v3.643h-10v-3.643Zm11.168 0h10.02v3.643h-10.02v-3.643Zm11.167 0h10.04v3.643H40.16v-3.643Zm11.167 0h10.061v3.643h-10.06v-3.643Zm11.287 0h10.061v3.643h-10.06v-3.643Zm11.188 0h10.04v3.643h-10.04v-3.643Zm11.187 0h10.02v3.643h-10.02v-3.643Zm11.187 0h10.001v3.643h-10v-3.643Zm11.188 0h9.98v3.643h-9.98v-3.643Zm11.187 0h9.96v3.643h-9.96v-3.643Zm11.188 0h9.94v3.643h-9.94v-3.643Zm11.187 0h9.92v3.643h-9.92v-3.643Zm11.187 0h9.9v3.643h-9.9v-3.643Zm11.188 0h9.88v3.643h-9.88v-3.643Zm11.187 0h9.86v3.643h-9.86v-3.643Zm11.188 0h9.839v3.643h-9.839v-3.643ZM-71.513 90.011h9.84v3.644h-9.84V90.01Zm11.167 0h9.86v3.644h-9.86V90.01Zm11.168 0h9.88v3.644h-9.88V90.01Zm11.167 0h9.9v3.644h-9.9V90.01Zm11.167 0h9.92v3.644h-9.92V90.01Zm11.167 0h9.94v3.644h-9.94V90.01Zm11.168 0h9.96v3.644h-9.96V90.01Zm11.167 0h9.98v3.644h-9.98V90.01Zm11.167 0h10v3.644h-10V90.01Zm11.168 0h10.02v3.644h-10.02V90.01Zm11.167 0H50.2v3.644H40.16V90.01Zm11.167 0h10.061v3.644H51.327V90.01Zm11.285 0h10.061v3.644h-10.06V90.01Zm11.188 0h10.04v3.644H73.8V90.01Zm11.187 0h10.02v3.644h-10.02V90.01Zm11.188 0h10v3.644h-10V90.01Zm11.187 0h9.98v3.644h-9.98V90.01Zm11.187 0h9.961v3.644h-9.961V90.01Zm11.188 0h9.94v3.644h-9.94V90.01Zm11.187 0h9.92v3.644h-9.92V90.01Zm11.187 0h9.9v3.644h-9.9V90.01Zm11.188 0h9.88v3.644h-9.88V90.01Zm11.187 0h9.86v3.644h-9.86V90.01Zm11.188 0h9.839v3.644h-9.839V90.01ZM-71.512 79.55h9.84v3.644h-9.84v-3.644Zm11.167 0h9.86v3.644h-9.86v-3.644Zm11.168 0h9.88v3.644h-9.88v-3.644Zm11.167 0h9.9v3.644h-9.9v-3.644Zm11.167 0h9.92v3.644h-9.92v-3.644Zm11.167 0h9.94v3.644h-9.94v-3.644Zm11.168 0h9.96v3.644h-9.96v-3.644Zm11.167 0h9.98v3.644H6.66v-3.644Zm11.167 0h10v3.644h-10v-3.644Zm11.168 0h10.02v3.644h-10.02v-3.644Zm11.167 0H50.2v3.644h-10.04v-3.644Zm11.167 0h10.06v3.644h-10.06v-3.644Zm11.283 0h10.061v3.644h-10.06v-3.644Zm11.188 0h10.04v3.644H73.8v-3.644Zm11.187 0h10.02v3.644h-10.02v-3.644Zm11.188 0h10v3.644h-10v-3.644Zm11.187 0h9.98v3.644h-9.98v-3.644Zm11.187 0h9.961v3.644h-9.961v-3.644Zm11.188 0h9.94v3.644h-9.94v-3.644Zm11.187 0h9.92v3.644h-9.92v-3.644Zm11.187 0h9.9v3.644h-9.9v-3.644Zm11.188 0h9.88v3.644h-9.88v-3.644Zm11.187 0h9.86v3.644h-9.86v-3.644Zm11.188 0h9.839v3.644h-9.839v-3.644ZM-71.511 69.087h9.84v3.644h-9.84v-3.644Zm11.167 0h9.86v3.644h-9.86v-3.644Zm11.168 0h9.88v3.644h-9.88v-3.644Zm11.167 0h9.9v3.644h-9.9v-3.644Zm11.167 0h9.92v3.644h-9.92v-3.644Zm11.167 0h9.94v3.644h-9.94v-3.644Zm11.168 0h9.96v3.644h-9.96v-3.644Zm11.167 0h9.98v3.644H6.66v-3.644Zm11.167 0h10v3.644h-10v-3.644Zm11.167 0h10.021v3.644h-10.02v-3.644Zm11.168 0h10.04v3.644h-10.04v-3.644Zm11.167 0h10.06v3.644H51.33v-3.644Zm11.282 0h10.06v3.644h-10.06v-3.644Zm11.187 0h10.04v3.644h-10.04v-3.644Zm11.187 0h10.021v3.644h-10.02v-3.644Zm11.188 0h10v3.644h-10v-3.644Zm11.187 0h9.98v3.644h-9.98v-3.644Zm11.187 0h9.961v3.644h-9.961v-3.644Zm11.188 0h9.94v3.644h-9.94v-3.644Zm11.187 0h9.92v3.644h-9.92v-3.644Zm11.188 0h9.899v3.644h-9.899v-3.644Zm11.187 0h9.88v3.644h-9.88v-3.644Zm11.187 0h9.86v3.644h-9.86v-3.644Zm11.188 0h9.839v3.644h-9.839v-3.644ZM-71.51 58.625h9.84v3.644h-9.84v-3.644Zm11.167 0h9.86v3.644h-9.86v-3.644Zm11.167 0h9.88v3.644h-9.88v-3.644Zm11.168 0h9.9v3.644h-9.9v-3.644Zm11.167 0h9.92v3.644h-9.92v-3.644Zm11.167 0h9.94v3.644h-9.94v-3.644Zm11.168 0h9.96v3.644h-9.96v-3.644Zm11.167 0h9.98v3.644h-9.98v-3.644Zm11.167 0h10v3.644h-10v-3.644Zm11.167 0h10.02v3.644h-10.02v-3.644Zm11.168 0h10.04v3.644h-10.04v-3.644Zm11.167 0h10.06v3.644H51.33v-3.644Zm11.28 0h10.06v3.644H62.61v-3.644Zm11.187 0h10.04v3.644h-10.04v-3.644Zm11.187 0h10.02v3.644h-10.02v-3.644Zm11.188 0h10v3.644h-10v-3.644Zm11.187 0h9.981v3.644h-9.981v-3.644Zm11.188 0h9.96v3.644h-9.96v-3.644Zm11.187 0h9.94v3.644h-9.94v-3.644Zm11.187 0h9.92v3.644h-9.92v-3.644Zm11.188 0h9.9v3.644h-9.9v-3.644Zm11.187 0h9.88v3.644h-9.88v-3.644Zm11.188 0h9.859v3.644h-9.859v-3.644Zm11.187 0h9.839v3.644h-9.839v-3.644Zm-257.18-10.462h9.84v3.643h-9.84v-3.643Zm11.167 0h9.86v3.643h-9.86v-3.643Zm11.167 0h9.88v3.643h-9.88v-3.643Zm11.168 0h9.9v3.643h-9.9v-3.643Zm11.167 0h9.92v3.643h-9.92v-3.643Zm11.167 0h9.94v3.643h-9.94v-3.643Zm11.167 0h9.96v3.643h-9.96v-3.643Zm11.168 0h9.98v3.643h-9.98v-3.643Zm11.167 0h10v3.643h-10v-3.643Zm11.167 0h10.02v3.643h-10.02v-3.643Zm11.168 0h10.04v3.643h-10.04v-3.643Zm11.167 0h10.06v3.643h-10.06v-3.643Zm11.278 0h10.06v3.643H62.61v-3.643Zm11.187 0h10.04v3.643h-10.04v-3.643Zm11.188 0h10.02v3.643h-10.02v-3.643Zm11.187 0h10v3.643h-10v-3.643Zm11.187 0h9.981v3.643h-9.981v-3.643Zm11.188 0h9.96v3.643h-9.96v-3.643Zm11.187 0h9.94v3.643h-9.94v-3.643Zm11.187 0h9.92v3.643h-9.92v-3.643Zm11.188 0h9.9v3.643h-9.9v-3.643Zm11.187 0h9.88v3.643h-9.88v-3.643Zm11.188 0h9.859v3.643h-9.859v-3.643Zm11.187 0h9.84v3.643h-9.84v-3.643ZM-71.508 37.7h9.84v3.643h-9.84V37.7Zm11.167 0h9.86v3.643h-9.86V37.7Zm11.167 0h9.88v3.643h-9.88V37.7Zm11.167 0h9.9v3.643h-9.9V37.7Zm11.168 0h9.92v3.643h-9.92V37.7Zm11.167 0h9.94v3.643h-9.94V37.7Zm11.167 0h9.96v3.643h-9.96V37.7Zm11.168 0h9.98v3.643h-9.98V37.7Zm11.167 0h10v3.643h-10V37.7Zm11.167 0h10.02v3.643h-10.02V37.7Zm11.167 0h10.041v3.643h-10.04V37.7Zm11.168 0h10.06v3.643h-10.06V37.7Zm11.276 0h10.06v3.643h-10.06V37.7Zm11.187 0h10.04v3.643h-10.04V37.7Zm11.188 0h10.02v3.643h-10.02V37.7Zm11.187 0h10v3.643h-10V37.7Zm11.187 0h9.981v3.643h-9.981V37.7Zm11.188 0h9.96v3.643h-9.96V37.7Zm11.187 0h9.94v3.643h-9.94V37.7Zm11.188 0h9.92v3.643h-9.92V37.7Zm11.187 0h9.9v3.643h-9.9V37.7Zm11.187 0h9.88v3.643h-9.88V37.7Zm11.188 0h9.859v3.643h-9.859V37.7Zm11.187 0h9.84v3.643h-9.84V37.7ZM-71.507 27.237h9.84v3.644h-9.84v-3.644Zm11.167 0h9.86v3.644h-9.86v-3.644Zm11.167 0h9.88v3.644h-9.88v-3.644Zm11.167 0h9.9v3.644h-9.9v-3.644Zm11.168 0h9.92v3.644h-9.92v-3.644Zm11.167 0h9.94v3.644h-9.94v-3.644Zm11.167 0h9.96v3.644h-9.96v-3.644Zm11.167 0h9.981v3.644h-9.98v-3.644Zm11.168 0h10v3.644h-10v-3.644Zm11.167 0h10.02v3.644h-10.02v-3.644Zm11.167 0h10.041v3.644h-10.04v-3.644Zm11.168 0h10.06v3.644h-10.06v-3.644Zm11.274 0h10.06v3.644h-10.06v-3.644Zm11.187 0h10.041v3.644h-10.04v-3.644Zm11.188 0h10.02v3.644h-10.02v-3.644Zm11.187 0h10.001v3.644H96.169v-3.644Zm11.187 0h9.981v3.644h-9.981v-3.644Zm11.188 0h9.96v3.644h-9.96v-3.644Zm11.187 0h9.94v3.644h-9.94v-3.644Zm11.188 0h9.92v3.644h-9.92v-3.644Zm11.187 0h9.9v3.644h-9.9v-3.644Zm11.187 0h9.88v3.644h-9.88v-3.644Zm11.188 0h9.859v3.644h-9.859v-3.644Zm11.187 0h9.84v3.644h-9.84v-3.644ZM-71.506 16.776h9.839v3.644h-9.84v-3.644Zm11.167 0h9.86v3.644h-9.86v-3.644Zm11.167 0h9.88v3.644h-9.88v-3.644Zm11.167 0h9.9v3.644h-9.9v-3.644Zm11.168 0h9.92v3.644h-9.92v-3.644Zm11.167 0h9.94v3.644h-9.94v-3.644Zm11.167 0h9.96v3.644h-9.96v-3.644Zm11.167 0h9.98v3.644h-9.98v-3.644Zm11.168 0h10v3.644h-10v-3.644Zm11.167 0h10.02v3.644H29v-3.644Zm11.167 0h10.041v3.644h-10.04v-3.644Zm11.167 0h10.061v3.644h-10.06v-3.644Zm11.273 0h10.06v3.644h-10.06v-3.644Zm11.187 0h10.041v3.644h-10.04v-3.644Zm11.188 0H95v3.644h-10.02v-3.644Zm11.187 0h10.001v3.644h-10v-3.644Zm11.187 0h9.981v3.644h-9.981v-3.644Zm11.188 0h9.96v3.644h-9.96v-3.644Zm11.187 0h9.94v3.644h-9.94v-3.644Zm11.188 0h9.92v3.644h-9.92v-3.644Zm11.187 0h9.9v3.644h-9.9v-3.644Zm11.188 0h9.879v3.644h-9.879v-3.644Zm11.187 0h9.86v3.644h-9.86v-3.644Zm11.187 0h9.84v3.644h-9.84v-3.644ZM-71.506 6.314h9.84v3.644h-9.84V6.314Zm11.168 0h9.86v3.644h-9.86V6.314Zm11.167 0h9.88v3.644h-9.88V6.314Zm11.167 0h9.9v3.644h-9.9V6.314Zm11.167 0h9.92v3.644h-9.92V6.314Zm11.168 0h9.94v3.644h-9.94V6.314Zm11.167 0h9.96v3.644h-9.96V6.314Zm11.167 0h9.98v3.644h-9.98V6.314Zm11.168 0h10v3.644h-10V6.314Zm11.167 0h10.02v3.644H29V6.314Zm11.167 0h10.04v3.644h-10.04V6.314Zm11.167 0h10.061v3.644h-10.06V6.314Zm11.271 0h10.06v3.644h-10.06V6.314Zm11.188 0h10.04v3.644h-10.04V6.314Zm11.187 0H95v3.644H84.98V6.314Zm11.187 0h10.001v3.644h-10V6.314Zm11.188 0h9.98v3.644h-9.98V6.314Zm11.187 0h9.96v3.644h-9.96V6.314Zm11.187 0h9.941v3.644h-9.941V6.314Zm11.188 0h9.92v3.644h-9.92V6.314Zm11.187 0h9.9v3.644h-9.9V6.314Zm11.188 0h9.879v3.644h-9.879V6.314Zm11.187 0h9.86v3.644h-9.86V6.314Zm11.187 0h9.84v3.644h-9.84V6.314ZM-72.233 0v1.083h4.501v3.643h-4.5v6.82h4.5v3.643h-4.5v6.818h4.5v3.644h-4.5v6.818h4.5v3.644h-4.5v6.819h4.5v3.643h-4.5v6.819h4.5v3.643h-4.5v6.819h4.5v3.643h-4.5v6.819h4.5v3.644h-4.5v6.818h4.5v3.644h-4.5v6.818h4.5v3.644h-4.5v6.818h4.5v3.644h-4.5v6.819h4.5v3.643h-4.5V124h.716v-2.602h9.84V124h1.328v-2.602h9.86V124h1.307v-2.602h9.88V124h1.287v-2.602h9.9V124h1.267v-2.602h9.92V124h1.248v-2.602h9.94V124h1.227v-2.602h9.96V124h1.207v-2.602h9.98V124h1.188v-2.602h10V124h1.167v-2.602h10.02V124h1.147v-2.602h10.04V124h1.127v-2.602h10.061V124h1.23v-2.602h10.06V124h1.127v-2.602h10.041V124h1.147v-2.602h10.02V124h1.167v-2.602h10.001V124h1.187v-2.602h9.98V124h1.207v-2.602h9.96V124h1.227v-2.602h9.941V124h1.247v-2.602h9.92V124h1.267v-2.602h9.9V124h1.288v-2.602h9.879V124h1.308v-2.602h9.86V124h1.327v-2.602h9.84V124h.717v-4.19h-4.501v-3.643h4.501v-6.819h-4.501v-3.644h4.501v-6.818h-4.501v-3.644h4.501v-6.818h-4.501V84.78h4.501v-6.819h-4.501v-3.643h4.501v-6.819h-4.501v-3.643h4.501v-6.819h-4.501v-3.643h4.501v-6.819h-4.501v-3.643h4.501v-6.82h-4.501V32.47h4.501v-6.818h-4.501v-3.644h4.501V15.19h-4.501v-3.644h4.501V4.727h-4.501V1.083h4.501V0H-72.233Z"/><path fill="#F4E8D5" d="M67.359 32.47H56.642v3.643h10.717V32.47ZM67.359 105.705H56.642v3.643h10.717v-3.643Z"/><mask id="d" width="270" height="124" x="-73" y="0" maskUnits="userSpaceOnUse" style="mask-type:luminance"><path fill="#fff" d="M196.233 0H-72.233v124h268.466V0Z"/></mask><g fill="#F4E8D5" mask="url(#d)"><path d="M10.765 116.167H.805v3.644h9.96v-3.644ZM123.195 116.167h-9.961v3.644h9.961v-3.644ZM21.953 105.705h-9.98v3.643h9.98v-3.643ZM112.028 105.705h-9.981v3.643h9.981v-3.643ZM67.359 84.78H56.642v3.644h10.717V84.78ZM23.14 95.242v3.644h10v-3.644h-10ZM90.86 95.242v3.644h10v-3.644h-10ZM44.328 95.243h-10.02v3.643h10.02v-3.643ZM89.693 95.243h-10.02v3.643h10.02v-3.643ZM55.515 95.243h-10.04v3.643h10.04v-3.643ZM78.526 95.243h-10.04v3.643h10.04v-3.643ZM55.515 84.78h-10.04v3.644h10.04V84.78ZM78.526 84.78H68.485v3.644h10.04V84.78ZM44.328 84.78h-10.02v3.644h10.02V84.78ZM89.693 84.78h-10.02v3.644h10.02V84.78ZM33.14 84.78h-10v3.644h10V84.78ZM100.86 84.78h-10v3.644h10V84.78ZM21.953 84.78h-9.98v3.644h9.98V84.78ZM112.028 84.78h-9.981v3.644h9.981V84.78ZM11.973 95.242v3.644h9.98v-3.644h-9.98ZM102.047 95.242v3.644h9.981v-3.644h-9.981ZM33.14 105.705h-10v3.643h10v-3.643ZM100.86 105.705h-10v3.643h10v-3.643ZM44.328 105.705h-10.02v3.643h10.02v-3.643ZM89.693 105.705h-10.02v3.643h10.02v-3.643ZM55.515 105.705h-10.04v3.643h10.04v-3.643ZM78.526 105.705h-10.04v3.643h10.04v-3.643ZM56.642 95.242v3.644h10.717v-3.644H56.642ZM56.642 74.318v3.643h10.717v-3.643H56.642ZM45.475 74.318v3.643h10.04v-3.643h-10.04ZM68.485 74.318v3.643h10.04v-3.643h-10.04ZM34.307 74.318v3.643h10.02v-3.643h-10.02ZM79.672 74.318v3.643h10.021v-3.643h-10.02ZM23.14 74.318v3.643h10v-3.643h-10ZM90.86 74.318v3.643h10v-3.643h-10ZM11.973 74.318v3.643h9.98v-3.643h-9.98ZM102.047 74.318v3.643h9.981v-3.643h-9.981ZM.805 74.318v3.643h9.96v-3.643H.805ZM113.234 74.318v3.643h9.961v-3.643h-9.961ZM10.765 84.78H.805v3.644h9.96V84.78ZM123.195 84.78h-9.961v3.644h9.961V84.78ZM.805 95.242v3.644h9.96v-3.644H.805ZM113.234 95.242v3.644h9.961v-3.644h-9.961ZM10.765 105.705H.805v3.643h9.96v-3.643ZM123.195 105.705h-9.961v3.643h9.961v-3.643ZM21.953 116.167h-9.98v3.644h9.98v-3.644ZM112.028 116.167h-9.981v3.644h9.981v-3.644ZM33.14 116.167h-10v3.644h10v-3.644ZM100.86 116.167h-10v3.644h10v-3.644ZM44.328 116.167h-10.02v3.644h10.02v-3.644ZM89.693 116.167h-10.02v3.644h10.02v-3.644ZM55.515 116.167h-10.04v3.644h10.04v-3.644ZM78.526 116.167h-10.04v3.644h10.04v-3.644ZM56.642 63.856v3.643h10.717v-3.643H56.642ZM45.475 63.856v3.643h10.04v-3.643h-10.04ZM68.485 63.856v3.643h10.04v-3.643h-10.04ZM34.307 63.856v3.643h10.02v-3.643h-10.02ZM79.672 63.856v3.643h10.021v-3.643h-10.02ZM23.14 63.856v3.643h10v-3.643h-10ZM90.86 63.856v3.643h10v-3.643h-10ZM11.973 63.856v3.643h9.98v-3.643h-9.98ZM102.047 63.856v3.643h9.981v-3.643h-9.981ZM.805 63.856v3.643h9.96v-3.643H.805ZM113.234 63.856v3.643h9.961v-3.643h-9.961ZM67.359 116.167H56.642v3.644h10.717v-3.644ZM67.359 53.394H56.642v3.644h10.717v-3.644ZM55.515 53.394h-10.04v3.644h10.04v-3.644ZM78.526 53.394H68.485v3.644h10.04v-3.644ZM44.328 53.394h-10.02v3.644h10.02v-3.644ZM89.693 53.394h-10.02v3.644h10.02v-3.644ZM33.14 53.394h-10v3.644h10v-3.644ZM100.86 53.394h-10v3.644h10v-3.644ZM21.953 53.394h-9.98v3.644h9.98v-3.644ZM112.028 53.394h-9.981v3.644h9.981v-3.644ZM10.765 53.394H.805v3.644h9.96v-3.644ZM123.195 53.394h-9.961v3.644h9.961v-3.644ZM67.359 42.932H56.642v3.643h10.717v-3.643ZM55.515 42.932h-10.04v3.643h10.04v-3.643ZM78.526 42.932H68.485v3.643h10.04v-3.643ZM44.328 42.932h-10.02v3.643h10.02v-3.643ZM89.693 42.932h-10.02v3.643h10.02v-3.643ZM33.14 42.932h-10v3.643h10v-3.643ZM100.86 42.932h-10v3.643h10v-3.643ZM21.953 42.932h-9.98v3.643h9.98v-3.643ZM112.028 42.932h-9.981v3.643h9.981v-3.643ZM10.765 42.932H.805v3.643h9.96v-3.643ZM123.195 42.932h-9.961v3.643h9.961v-3.643ZM55.515 32.47h-10.04v3.643h10.04V32.47ZM78.526 32.47H68.485v3.643h10.04V32.47ZM44.328 32.47h-10.02v3.643h10.02V32.47ZM89.693 32.47h-10.02v3.643h10.02V32.47ZM33.14 32.47h-10v3.643h10V32.47ZM100.86 32.47h-10v3.643h10V32.47ZM21.953 32.47h-9.98v3.643h9.98V32.47ZM112.028 32.47h-9.981v3.643h9.981V32.47ZM10.765 32.47H.805v3.643h9.96V32.47ZM123.195 32.47h-9.961v3.643h9.961V32.47ZM56.642 22.007v3.644h10.717v-3.644H56.642ZM45.475 22.007v3.644h10.04v-3.644h-10.04ZM68.485 22.007v3.644h10.04v-3.644h-10.04ZM34.307 22.007v3.644h10.02v-3.644h-10.02ZM79.672 22.007v3.644h10.021v-3.644h-10.02ZM23.14 22.007v3.644h10v-3.644h-10ZM90.86 22.007v3.644h10v-3.644h-10ZM11.973 22.007v3.644h9.98v-3.644h-9.98ZM102.047 22.007v3.644h9.981v-3.644h-9.981ZM.805 22.007v3.644h9.96v-3.644H.805ZM113.234 22.007v3.644h9.961v-3.644h-9.961ZM67.359 11.545H56.642v3.643h10.717v-3.643ZM55.515 11.545h-10.04v3.643h10.04v-3.643ZM78.526 11.545H68.485v3.643h10.04v-3.643ZM44.328 11.545h-10.02v3.643h10.02v-3.643ZM89.693 11.545h-10.02v3.643h10.02v-3.643ZM33.14 11.545h-10v3.643h10v-3.643ZM100.86 11.545h-10v3.643h10v-3.643ZM21.953 11.545h-9.98v3.643h9.98v-3.643ZM112.028 11.545h-9.981v3.643h9.981v-3.643ZM10.765 11.545H.805v3.643h9.96v-3.643ZM123.195 11.545h-9.961v3.643h9.961v-3.643ZM56.642 1.083v3.644h10.717V1.083H56.642ZM55.515 1.083h-10.04v3.644h10.04V1.083ZM78.526 1.083h-10.04v3.644h10.04V1.083ZM44.328 1.083h-10.02v3.644h10.02V1.083ZM89.693 1.083h-10.02v3.644h10.02V1.083ZM33.14 1.083h-10v3.644h10V1.083ZM100.86 1.083h-10v3.644h10V1.083ZM21.953 1.083h-9.98v3.644h9.98V1.083ZM112.028 1.083h-9.981v3.644h9.981V1.083ZM10.765 1.083H.805v3.644h9.96V1.083ZM123.195 1.083h-9.96v3.644h9.96V1.083Z"/><path d="M67.359 116.167H56.642v3.644h10.717v-3.644ZM55.515 116.167h-10.04v3.644h10.04v-3.644ZM78.526 116.167H68.485v3.644h10.04v-3.644ZM44.328 116.167h-10.02v3.644h10.02v-3.644ZM89.693 116.167h-10.02v3.644h10.02v-3.644ZM33.14 116.167h-10v3.644h10v-3.644ZM100.86 116.167h-10v3.644h10v-3.644ZM21.953 116.167h-9.98v3.644h9.98v-3.644ZM112.028 116.167h-9.981v3.644h9.981v-3.644ZM10.765 116.167H.805v3.644h9.96v-3.644ZM123.195 116.167h-9.96v3.644h9.96v-3.644ZM55.515 105.705h-10.04v3.643h10.04v-3.643ZM78.526 105.705H68.485v3.643h10.04v-3.643ZM44.328 105.705h-10.02v3.643h10.02v-3.643ZM89.693 105.705h-10.02v3.643h10.02v-3.643ZM33.14 105.705h-10v3.643h10v-3.643ZM100.86 105.705h-10v3.643h10v-3.643ZM21.953 105.705h-9.98v3.643h9.98v-3.643ZM112.028 105.705h-9.981v3.643h9.981v-3.643ZM10.765 105.705H.805v3.643h9.96v-3.643ZM123.195 105.705h-9.96v3.643h9.96v-3.643ZM56.642 95.242v3.644h10.717v-3.644H56.642ZM55.515 95.243h-10.04v3.643h10.04v-3.643ZM78.526 95.243H68.485v3.643h10.04v-3.643ZM44.328 95.243h-10.02v3.643h10.02v-3.643ZM89.693 95.243h-10.02v3.643h10.02v-3.643ZM33.14 95.243h-10v3.643h10v-3.643ZM100.86 95.243h-10v3.643h10v-3.643ZM21.953 95.243h-9.98v3.643h9.98v-3.643ZM112.028 95.243h-9.981v3.643h9.981v-3.643ZM10.765 95.243H.805v3.643h9.96v-3.643ZM123.195 95.243h-9.96v3.643h9.96v-3.643ZM67.359 84.78H56.642v3.644h10.717V84.78ZM55.515 84.78h-10.04v3.644h10.04V84.78ZM78.526 84.78h-10.04v3.644h10.04V84.78ZM44.328 84.78h-10.02v3.644h10.02V84.78ZM89.693 84.78h-10.02v3.644h10.02V84.78ZM33.14 84.78h-10v3.644h10V84.78ZM100.86 84.78h-10v3.644h10V84.78ZM21.953 84.78h-9.98v3.644h9.98V84.78ZM112.028 84.78h-9.981v3.644h9.981V84.78ZM10.765 84.78H.805v3.644h9.96V84.78ZM123.195 84.78h-9.96v3.644h9.96V84.78ZM56.642 74.318v3.643h10.717v-3.643H56.642ZM55.515 74.318h-10.04v3.644h10.04v-3.644ZM78.526 74.318h-10.04v3.644h10.04v-3.644ZM44.328 74.318h-10.02v3.644h10.02v-3.644ZM89.693 74.318h-10.02v3.644h10.02v-3.644ZM33.14 74.318h-10v3.644h10v-3.644ZM100.86 74.318h-10v3.644h10v-3.644ZM21.953 74.318h-9.98v3.644h9.98v-3.644ZM112.028 74.318h-9.981v3.644h9.981v-3.644ZM10.765 74.318H.805v3.644h9.96v-3.644ZM123.195 74.318h-9.96v3.644h9.96v-3.644ZM56.642 63.856v3.643h10.717v-3.643H56.642ZM55.515 63.856h-10.04v3.643h10.04v-3.643ZM78.526 63.856h-10.04v3.643h10.04v-3.643ZM44.328 63.856h-10.02v3.643h10.02v-3.643ZM89.693 63.856h-10.02v3.643h10.02v-3.643ZM33.14 63.856h-10v3.643h10v-3.643ZM100.86 63.856h-10v3.643h10v-3.643ZM21.953 63.856h-9.98v3.643h9.98v-3.643ZM112.028 63.856h-9.981v3.643h9.981v-3.643ZM10.765 63.856H.805v3.643h9.96v-3.643ZM123.195 63.856h-9.96v3.643h9.96v-3.643ZM67.359 53.394H56.642v3.644h10.717v-3.644ZM55.515 53.394h-10.04v3.644h10.04v-3.644ZM78.526 53.394h-10.04v3.644h10.04v-3.644ZM44.328 53.394h-10.02v3.644h10.02v-3.644ZM89.693 53.394h-10.02v3.644h10.02v-3.644ZM33.14 53.394h-10v3.644h10v-3.644ZM100.86 53.394h-10v3.644h10v-3.644ZM21.953 53.394h-9.98v3.644h9.98v-3.644ZM112.028 53.394h-9.981v3.644h9.981v-3.644ZM10.765 53.394H.805v3.644h9.96v-3.644ZM123.195 53.394h-9.96v3.644h9.96v-3.644ZM67.359 42.932H56.642v3.643h10.717v-3.643ZM55.515 42.932h-10.04v3.643h10.04v-3.643ZM78.526 42.932h-10.04v3.643h10.04v-3.643ZM44.328 42.932h-10.02v3.643h10.02v-3.643ZM89.693 42.932h-10.02v3.643h10.02v-3.643ZM33.14 42.932h-10v3.643h10v-3.643ZM100.86 42.932h-10v3.643h10v-3.643ZM21.953 42.932h-9.98v3.643h9.98v-3.643ZM112.028 42.932h-9.981v3.643h9.981v-3.643ZM10.765 42.932H.805v3.643h9.96v-3.643ZM123.195 42.932h-9.96v3.643h9.96v-3.643ZM67.359 32.47H56.642v3.643h10.717V32.47ZM55.515 32.47h-10.04v3.643h10.04V32.47ZM78.526 32.47h-10.04v3.643h10.04V32.47ZM44.328 32.47h-10.02v3.643h10.02V32.47ZM89.693 32.47h-10.02v3.643h10.02V32.47ZM33.14 32.47h-10v3.643h10V32.47ZM100.86 32.47h-10v3.643h10V32.47ZM21.953 32.47h-9.98v3.643h9.98V32.47ZM112.028 32.47h-9.981v3.643h9.981V32.47ZM10.765 32.47H.805v3.643h9.96V32.47ZM123.195 32.47h-9.96v3.643h9.96V32.47ZM56.642 22.007v3.644h10.717v-3.644H56.642ZM55.515 22.007h-10.04v3.644h10.04v-3.644ZM78.526 22.007h-10.04v3.644h10.04v-3.644ZM44.328 22.007h-10.02v3.644h10.02v-3.644ZM89.693 22.007h-10.02v3.644h10.02v-3.644ZM33.14 22.007h-10v3.644h10v-3.644ZM100.86 22.007h-10v3.644h10v-3.644ZM21.953 22.007h-9.98v3.644h9.98v-3.644ZM112.028 22.007h-9.981v3.644h9.981v-3.644ZM10.765 22.007H.805v3.644h9.96v-3.644ZM123.195 22.007h-9.96v3.644h9.96v-3.644ZM67.359 11.545H56.642v3.643h10.717v-3.643ZM55.515 11.545h-10.04v3.643h10.04v-3.643ZM78.526 11.545h-10.04v3.643h10.04v-3.643ZM44.328 11.545h-10.02v3.643h10.02v-3.643ZM89.693 11.545h-10.02v3.643h10.02v-3.643ZM33.14 11.545h-10v3.643h10v-3.643ZM100.86 11.545h-10v3.643h10v-3.643ZM21.953 11.545h-9.98v3.643h9.98v-3.643ZM112.028 11.545h-9.981v3.643h9.981v-3.643ZM10.765 11.545H.805v3.643h9.96v-3.643ZM123.195 11.545h-9.96v3.643h9.96v-3.643ZM56.642 1.083v3.644h10.717V1.083H56.642ZM55.515 1.083h-10.04v3.644h10.04V1.083ZM78.526 1.083H68.485v3.644h10.04V1.083ZM44.328 1.083h-10.02v3.644h10.02V1.083ZM89.693 1.083h-10.02v3.644h10.02V1.083ZM33.14 1.083h-10v3.644h10V1.083ZM100.86 1.083h-10v3.644h10V1.083ZM21.953 1.083h-9.98v3.644h9.98V1.083ZM112.028 1.083h-9.981v3.644h9.981V1.083ZM10.765 1.083H.805v3.644h9.96V1.083ZM123.195 1.083h-9.961v3.644h9.961V1.083ZM61.385 121.398h-10.06V124h10.06v-2.602ZM72.676 121.398h-10.06V124h10.06v-2.602ZM50.198 121.398h-10.04V124h10.04v-2.602ZM83.843 121.398h-10.04V124h10.04v-2.602ZM39.01 121.398H28.99V124h10.02v-2.602ZM95.01 121.398H84.99V124h10.02v-2.602ZM27.823 121.398h-10V124h10v-2.602ZM106.178 121.398h-10V124h10v-2.602ZM16.636 121.398h-9.98V124h9.98v-2.602ZM117.345 121.398h-9.98V124h9.98v-2.602ZM5.448 121.398h-9.96V124h9.96v-2.602ZM128.512 121.398h-9.96V124h9.96v-2.602ZM61.386 110.936h-10.06v3.643h10.06v-3.643ZM72.675 110.936h-10.06v3.643h10.06v-3.643ZM50.199 110.936h-10.04v3.643h10.04v-3.643ZM83.842 110.936h-10.04v3.643h10.04v-3.643ZM39.011 110.936h-10.02v3.643h10.02v-3.643ZM95.01 110.936H84.989v3.643h10.02v-3.643ZM27.824 110.936h-10v3.643h10v-3.643ZM106.177 110.936h-10v3.643h10v-3.643ZM16.637 110.936h-9.98v3.643h9.98v-3.643ZM117.344 110.936h-9.98v3.643h9.98v-3.643ZM5.45 110.936h-9.961v3.643h9.96v-3.643ZM128.511 110.936h-9.96v3.643h9.96v-3.643ZM61.387 100.474h-10.06v3.643h10.06v-3.643ZM72.674 100.474h-10.06v3.643h10.06v-3.643ZM50.2 100.474H40.159v3.643h10.04v-3.643ZM83.842 100.474H73.8v3.643h10.04v-3.643ZM39.012 100.474h-10.02v3.643h10.02v-3.643ZM95.008 100.474h-10.02v3.643h10.02v-3.643ZM27.825 100.474h-10v3.643h10v-3.643ZM106.176 100.474h-10v3.643h10v-3.643ZM16.638 100.474h-9.98v3.643h9.98v-3.643ZM117.343 100.474h-9.98v3.643h9.98v-3.643ZM5.45 100.474h-9.96v3.643h9.96v-3.643ZM128.511 100.474h-9.961v3.643h9.961v-3.643ZM61.388 90.011h-10.06v3.644h10.06V90.01ZM72.673 90.011h-10.06v3.644h10.06V90.01ZM50.2 90.011H40.16v3.644H50.2V90.01ZM83.84 90.011H73.8v3.644h10.04V90.01ZM39.013 90.011h-10.02v3.644h10.02V90.01ZM95.008 90.011h-10.02v3.644h10.02V90.01ZM27.826 90.011h-10v3.644h10V90.01ZM106.175 90.011h-10v3.644h10V90.01ZM16.639 90.011h-9.98v3.644h9.98V90.01ZM117.342 90.011h-9.98v3.644h9.98V90.01ZM5.451 90.011h-9.96v3.644h9.96V90.01ZM128.51 90.011h-9.961v3.644h9.961V90.01ZM61.389 79.55h-10.06v3.643h10.06v-3.644ZM72.672 79.55h-10.06v3.643h10.06v-3.644ZM50.202 79.55H40.16v3.643H50.2v-3.644ZM83.84 79.55H73.799v3.643h10.04v-3.644ZM39.014 79.55h-10.02v3.643h10.02v-3.644ZM95.007 79.55h-10.02v3.643h10.02v-3.644ZM27.827 79.55h-10v3.643h10v-3.644ZM106.174 79.55h-10v3.643h10v-3.644ZM16.64 79.55H6.658v3.643h9.98v-3.644ZM117.341 79.55h-9.98v3.643h9.98v-3.644ZM5.452 79.55h-9.96v3.643h9.96v-3.644ZM128.509 79.55h-9.961v3.643h9.961v-3.644ZM61.39 69.087H51.33v3.643h10.06v-3.643ZM72.671 69.087h-10.06v3.643h10.06v-3.643ZM50.202 69.087h-10.04v3.643h10.04v-3.643ZM83.839 69.087H73.798v3.643h10.04v-3.643ZM39.015 69.087h-10.02v3.643h10.02v-3.643ZM95.006 69.087h-10.02v3.643h10.02v-3.643ZM27.828 69.087h-10v3.643h10v-3.643ZM106.173 69.087h-10v3.643h10v-3.643ZM16.64 69.087H6.66v3.643h9.98v-3.643ZM117.34 69.087h-9.98v3.643h9.98v-3.643ZM5.453 69.087h-9.96v3.643h9.96v-3.643ZM128.508 69.087h-9.961v3.643h9.961v-3.643ZM61.39 58.625H51.33v3.644h10.06v-3.644ZM72.67 58.625H62.61v3.644h10.06v-3.644ZM50.203 58.625h-10.04v3.644h10.04v-3.644ZM83.838 58.625H73.797v3.644h10.04v-3.644ZM39.016 58.625h-10.02v3.644h10.02v-3.644ZM95.005 58.625h-10.02v3.644h10.02v-3.644ZM27.829 58.625h-10v3.644h10v-3.644ZM106.172 58.625h-10v3.644h10v-3.644ZM16.641 58.625h-9.98v3.644h9.98v-3.644ZM117.339 58.625h-9.98v3.644h9.98v-3.644ZM5.454 58.625h-9.96v3.644h9.96v-3.644ZM128.507 58.625h-9.961v3.644h9.961v-3.644ZM61.392 48.163H51.33v3.643h10.06v-3.643ZM72.67 48.163H62.607v3.643H72.67v-3.643ZM50.204 48.163h-10.04v3.643h10.04v-3.643ZM83.837 48.163H73.796v3.643h10.04v-3.643ZM39.017 48.163h-10.02v3.643h10.02v-3.643ZM95.004 48.163h-10.02v3.643h10.02v-3.643ZM27.83 48.163h-10v3.643h10v-3.643ZM106.171 48.163h-10v3.643h10v-3.643ZM16.642 48.163h-9.98v3.643h9.98v-3.643ZM117.339 48.163h-9.981v3.643h9.981v-3.643ZM5.455 48.163h-9.96v3.643h9.96v-3.643ZM128.506 48.163h-9.961v3.643h9.961v-3.643ZM61.392 37.7h-10.06v3.644h10.06v-3.643ZM72.669 37.7H62.608v3.644h10.06v-3.643ZM50.205 37.7h-10.04v3.644h10.04v-3.643ZM83.836 37.7H73.795v3.644h10.04v-3.643ZM39.018 37.7h-10.02v3.644h10.02v-3.643ZM95.003 37.7h-10.02v3.644h10.02v-3.643ZM27.83 37.7h-10v3.644h10v-3.643ZM106.171 37.7H96.17v3.644h10.001v-3.643ZM16.643 37.7h-9.98v3.644h9.98v-3.643ZM117.338 37.7h-9.981v3.644h9.981v-3.643ZM5.455 37.7h-9.96v3.644h9.96v-3.643ZM128.505 37.7h-9.96v3.644h9.96v-3.643ZM61.393 27.238h-10.06v3.644h10.06v-3.644ZM72.668 27.238H62.607v3.644h10.06v-3.644ZM50.206 27.238H40.165v3.644h10.04v-3.644ZM83.835 27.238h-10.04v3.644h10.04v-3.644ZM39.019 27.238H28.998v3.644h10.02v-3.644ZM95.002 27.238h-10.02v3.644h10.02v-3.644ZM27.831 27.238h-10v3.644h10v-3.644ZM106.17 27.238H96.169v3.644h10.001v-3.644ZM16.644 27.238h-9.98v3.644h9.98v-3.644ZM117.337 27.238h-9.981v3.644h9.981v-3.644ZM5.456 27.238h-9.96v3.644h9.96v-3.644ZM128.504 27.238h-9.96v3.644h9.96v-3.644ZM61.394 16.776h-10.06v3.644h10.06v-3.644ZM72.667 16.776H62.606v3.644h10.06v-3.644ZM50.207 16.776H40.166v3.644h10.04v-3.644ZM83.834 16.776H73.793v3.644h10.04v-3.644ZM39.02 16.776H28.999v3.644h10.02v-3.644ZM95.001 16.776h-10.02v3.644H95v-3.644ZM27.832 16.776h-10v3.644h10v-3.644ZM106.168 16.776h-10v3.644h10v-3.644ZM16.645 16.776h-9.98v3.644h9.98v-3.644ZM117.336 16.776h-9.981v3.644h9.981v-3.644ZM5.457 16.776h-9.96v3.644h9.96v-3.644ZM128.503 16.776h-9.96v3.644h9.96v-3.644ZM61.395 6.314h-10.06v3.643h10.06V6.314ZM72.666 6.314H62.605v3.643h10.06V6.314ZM50.208 6.314H40.167v3.643h10.04V6.314ZM83.833 6.314h-10.04v3.643h10.04V6.314ZM39.02 6.314H29v3.643h10.02V6.314ZM95 6.314H84.98v3.643H95V6.314ZM27.833 6.314h-10v3.643h10V6.314ZM106.167 6.314h-10v3.643h10V6.314ZM16.645 6.314h-9.98v3.643h9.98V6.314ZM117.335 6.314h-9.981v3.643h9.981V6.314ZM5.458 6.314h-9.96v3.643h9.96V6.314ZM128.502 6.314h-9.96v3.643h9.96V6.314Z"/></g></g></g><path fill="#F76FB7" d="M36.406 42.898c-2.86 3.275.896 10.06 4.618 11.36-.693 1.156-1.421 3.4-.108 4.754 3.053.424 4.25-3.33 5.74-2.248-1.016 3.237-.223 5.979.236 7.12.625 1.555 2.179 3.781 3.921 4.081 1.812.312 3.144-1.142 4.39-2.376 2.19-2.165 6.073-8.346 5.378-9.187-1.774-2.147-3.421-3.484-5.518-5.037-.025-.572.21-2.832-.015-3.53-1.683-1.528-2.534-1.053-5.13-.733-.482-1.965-1.637-6.056-3.206-7.19-2.46-1.776-8.799 1.261-10.306 2.986Z"/><path fill="#F552A8" d="M52.58 58.565c-1.213 1.081-4.443 4.602-3.402 7.952.7 2.258 3.124 2.148 5.738.644 1.38-.795 4.59-3.803 5.816-6.562 1.047-2.355.567-5.088-2.402-5.09-2.008 0-4.52 1.962-5.75 3.056Z"/><path fill="#F99BCD" d="M53.026 59.144c-1 .892-3.66 3.791-2.803 6.55.578 1.86 2.574 1.77 4.727.53 1.136-.654 3.782-3.133 4.791-5.404.863-1.94.468-4.191-1.979-4.191-1.654 0-3.724 1.613-4.736 2.515Z"/><path fill="#953266" d="M56.785 58.887c-.31.277-1.137 1.177-.871 2.035.18.578.8.55 1.469.166.354-.203 1.176-.974 1.488-1.68.268-.602.145-1.302-.614-1.303-.515 0-1.157.502-1.472.782Z"/><path fill="#F552A8" d="M40.916 59.014s.098-2.952 4.114-6.172c4.016-3.222 4.394-4.087 4.394-4.087s-6.262 2.302-8.399 5.504c-2.137 3.2-.108 4.754-.108 4.754h-.001ZM51.254 52.04s2.26 1.376 4.668 2.423c-1.219-2.802-4.668-2.424-4.668-2.424ZM37.435 45.004s3.337-2.05 5.75-1.743c2.37.301 3.984 2.547 3.984 2.547s-.943-4.283-4.363-3.997c-3.42.286-5.37 3.193-5.37 3.193h-.001Z"/><g clip-path="url(#e)"><path fill="#11831D" fill-rule="evenodd" d="M36.013 71.343h51.522l-4.809 61.576a4.773 4.773 0 0 1-4.757 4.404H45.578a4.773 4.773 0 0 1-4.757-4.404l-4.808-61.576Z" clip-rule="evenodd"/><path fill="#0F7219" fill-rule="evenodd" d="m86.944 78.921-50.658-4.084-.273-3.494h51.523l-.593 7.578Z" clip-rule="evenodd"/><path fill="#11831D" fill-rule="evenodd" d="M89.543 71.323A3.321 3.321 0 0 0 86.223 68H37.32A3.321 3.321 0 0 0 34 71.323v.006a3.322 3.322 0 0 0 3.32 3.324h48.903a3.322 3.322 0 0 0 3.32-3.324v-.006Z" clip-rule="evenodd"/><path fill="#D7D8D5" d="m59.835 101.182-4.051-2.154c.873-1.92 1.762-3.418 2.568-4.562.39-.3 1.067-.43 1.352-.51 1.349-.383 3.628.373 3.628.373l-3.497 6.853Z"/><path fill="#fff" d="m67.823 98.942-3.954 2.338c-.376-.697-.698-1.383-1.04-2.036-.74-1.409-.971-1.98-1.895-3.105-.427-.52-1.405-1.466-2.549-1.701 1.213-1.032 3.291-.838 4.27-.693 1.552.233 2.758.711 3.298 1.737.142.27 1.805 3.499 1.87 3.46Z"/><path fill="#fff" d="m67.04 102.412-4.528-1.158 3.4-1.53 2.837-1.275-1.71 3.963Z"/><path fill="#D7D8D5" d="m66.939 104.585 3.811-2.457c1.01 1.789 2.164 3.18 2.767 4.442.071.488-.147 1.144-.215 1.431-.325 1.365-2.099 2.987-2.099 2.987l-4.264-6.403Z"/><path fill="#fff" d="m64.988 112.656-.105-4.596c.79.012 1.546.066 2.282.086 1.59.043 2.2.119 3.632-.138.661-.118 1.965-.51 2.728-1.395.307 1.564-.877 3.285-1.483 4.068-.96 1.242-1.966 2.062-3.124 2.032-.305-.007-3.932-.132-3.93-.057Z"/><path fill="#fff" d="m62.347 110.277 3.221-3.389-.327 3.717-.274 3.101-2.62-3.429Z"/><path fill="#D7D8D5" d="m59.305 108.745-.018 4.447c-2.137.071-3.823.191-5.21.016-.448-.204-.88-.742-1.085-.955-.97-1.013-1.374-3.383-1.374-3.383l7.687-.125Z"/><path fill="#fff" d="m53.58 102.735 3.918 2.399c-.438.658-.892 1.265-1.307 1.875-.896 1.314-1.291 1.787-1.85 3.132-.258.62-.634 1.929-.305 3.051-1.48-.588-2.284-2.516-2.614-3.45-.524-1.48-.667-2.771-.016-3.73.17-.252 2.239-3.238 2.175-3.277Z"/><path fill="#fff" d="m57.01 101.799 1.102 4.546-2.945-2.287-2.456-1.909 4.298-.35ZM68.455 82.04c0-.35.144-.635.432-.854.291-.22.672-.33 1.141-.33.473 0 .86.116 1.157.346.302.23.453.47.453.72 0 .03-.012.058-.036.082a.098.098 0 0 1-.072.03h-1.029a.316.316 0 0 1-.216-.087.38.38 0 0 0-.262-.087c-.164 0-.247.048-.247.144 0 .051.04.094.119.128.082.035.233.066.452.093.511.065.875.185 1.09.36.22.171.33.434.33.787 0 .35-.161.636-.484.859-.319.22-.737.329-1.255.329-.517 0-.924-.106-1.219-.32-.294-.212-.442-.47-.442-.776 0-.03.01-.056.031-.077a.114.114 0 0 1 .082-.036h.977c.073 0 .151.034.237.103.09.069.21.103.365.103.257 0 .386-.048.386-.144 0-.062-.046-.108-.139-.139a2.857 2.857 0 0 0-.525-.103c-.884-.116-1.326-.494-1.326-1.131ZM64.491 82.04c0-.35.144-.635.432-.854.292-.22.672-.33 1.142-.33.473 0 .859.116 1.157.346.302.23.453.47.453.72 0 .03-.012.058-.036.082a.099.099 0 0 1-.072.03h-1.029a.317.317 0 0 1-.216-.087.38.38 0 0 0-.262-.087c-.165 0-.247.048-.247.144 0 .051.04.094.118.128.082.035.233.066.453.093.51.065.874.185 1.09.36.22.171.33.434.33.787 0 .35-.162.636-.484.859-.319.22-.737.329-1.255.329-.518 0-.924-.106-1.219-.32-.295-.212-.442-.47-.442-.776a.113.113 0 0 1 .113-.113h.977c.072 0 .15.034.237.103.089.069.21.103.365.103.257 0 .385-.048.385-.144 0-.062-.046-.108-.138-.139a2.861 2.861 0 0 0-.525-.103c-.885-.116-1.327-.494-1.327-1.131ZM61.415 80.909h1.116c.124 0 .2.056.232.17l1.147 3.28c.003.01.005.028.005.052 0 .02-.012.043-.036.067a.105.105 0 0 1-.078.03h-.951c-.103 0-.17-.042-.2-.128l-.124-.34H61.42l-.123.34c-.031.086-.098.129-.2.129h-.952a.123.123 0 0 1-.082-.031c-.021-.024-.031-.046-.031-.067 0-.024.001-.041.005-.052l1.147-3.28c.03-.114.108-.17.231-.17Zm.268 2.129h.58l-.292-.957-.288.957ZM58.003 83.454h1.425c.037 0 .07.014.097.042.028.027.041.06.041.097v.777c0 .037-.013.07-.04.097a.133.133 0 0 1-.098.042h-2.592a.133.133 0 0 1-.098-.041.134.134 0 0 1-.041-.098v-3.323c0-.037.014-.07.04-.097a.134.134 0 0 1 .099-.041h1.028c.038 0 .07.013.098.04.027.028.041.06.041.099v2.406ZM54.318 82.338h1.415c.037 0 .07.014.097.041.028.028.041.06.041.098v.668c0 .453-.16.803-.483 1.05-.322.243-.753.365-1.29.365-.536 0-.957-.118-1.266-.355-.309-.24-.463-.598-.463-1.075v-.864c0-.456.158-.804.473-1.044.316-.243.736-.365 1.26-.365.528 0 .955.111 1.28.334.327.22.49.49.49.813 0 .03-.013.058-.037.082a.105.105 0 0 1-.077.03h-1.136c-.069 0-.119-.018-.15-.056-.068-.089-.12-.14-.154-.154a.598.598 0 0 0-.216-.046c-.264 0-.396.128-.396.386v.874c0 .291.14.437.422.437.288 0 .432-.124.432-.37h-.242a.134.134 0 0 1-.097-.041.134.134 0 0 1-.042-.098v-.571c0-.038.014-.07.042-.098a.134.134 0 0 1 .097-.04Z"/></g><g filter="url(#f)"><path fill="#EB5757" d="M56.944 49.833a1.402 1.402 0 0 0-1.94.05l-1.121 1.12a1.402 1.402 0 0 0-.05 1.941A215.08 215.08 0 0 0 58.623 58a214.813 214.813 0 0 0-4.79 5.056 1.402 1.402 0 0 0 .05 1.941l1.12 1.12a1.402 1.402 0 0 0 1.941.05A214.599 214.599 0 0 0 62 61.377a214.599 214.599 0 0 0 5.056 4.79 1.402 1.402 0 0 0 1.941-.05l1.12-1.12a1.402 1.402 0 0 0 .05-1.941A214.599 214.599 0 0 0 65.377 58a215.08 215.08 0 0 0 4.79-5.056 1.402 1.402 0 0 0-.05-1.94l-1.12-1.121a1.402 1.402 0 0 0-1.94-.05A214.836 214.836 0 0 0 62 54.623a215.08 215.08 0 0 0-5.056-4.79Z"/></g></g><defs><clipPath id="a"><rect width="124" height="124" fill="#fff" rx="12"/></clipPath><clipPath id="b"><path fill="#fff" d="M-72.233 0h268.466v124H-72.233z"/></clipPath><clipPath id="e"><path fill="#fff" d="M34 68h55.543v72H34z"/></clipPath><filter id="f" width="17.067" height="18.067" x="53.467" y="49.467" color-interpolation-filters="sRGB" filterUnits="userSpaceOnUse"><feFlood flood-opacity="0" result="BackgroundImageFix"/><feColorMatrix in="SourceAlpha" result="hardAlpha" values="0 0 0 0 0 0 0 0 0 0 0 0 0 0 0 0 0 0 127 0"/><feOffset dy="1"/><feComposite in2="hardAlpha" operator="out"/><feColorMatrix values="0 0 0 0 0.937972 0 0 0 0 0.642551 0 0 0 0 0.642551 0 0 0 1 0"/><feBlend in2="BackgroundImageFix" result="effect1_dropShadow_2322_97074"/><feBlend in="SourceGraphic" in2="effect1_dropShadow_2322_97074" result="shape"/></filter></defs></svg>