<svg width="124" height="124" viewBox="0 0 124 124" fill="none" xmlns="http://www.w3.org/2000/svg">
<g clip-path="url(#clip0_2320_143445)">
<rect width="124" height="124" rx="12" fill="white"/>
<rect width="124" height="124" fill="#F0F5FF"/>
<path d="M128 -10.9853V95.9487H-7V-10.9853C-7 -10.9853 53.1164 -1.03788 74.4703 -1.03788C95.8242 -1.03788 115.352 -15.9578 128 -10.9853Z" fill="#8CDF96"/>
<path d="M128 107.877L-7 95.9487V124.426H128V107.877Z" fill="#8CDF96"/>
<path d="M128 19.5751V36.0458C116.58 37.5251 62.8633 44.4303 50.9431 44.4303C39.6548 44.4303 3.8291 48.8707 -7 50.2522V11.1787C4.3891 11.8373 44.3275 14.3879 70.7646 19.0407C95.5721 23.419 119.378 20.8063 128 19.5751Z" fill="#A2E7AA"/>
<path d="M128 63.7284V107.87L-7 95.8852V71.4247C4.84106 69.1614 82.557 54.4889 92.52 56.7881C101.464 58.8511 121.433 62.5335 128 63.726V63.7284Z" fill="#A2E7AA"/>
<path d="M78.5486 77.6654C79.7829 77.1554 81.2514 77.8281 82.0749 78.8797C82.8985 79.9313 83.2249 81.2765 83.5315 82.5761C83.8084 83.7547 84.0882 84.9581 83.9741 86.1635C83.7677 88.3331 82.1652 90.3053 80.0825 90.9532C79.388 91.1694 77.1148 93.6705 73.7263 94.2667C68.8922 95.1179 65.6992 92.6169 65.1545 92.4819C64.4857 92.3163 63.9221 91.8778 63.3853 91.4462C61.9784 90.3143 60.5138 89.0236 60.113 87.2627C59.8312 86.0256 60.1279 84.721 60.6319 83.5573C61.6182 81.2775 63.4617 79.335 65.7796 78.4402C67.4872 77.7814 69.3566 77.7031 71.1862 77.6326C73.2511 77.5533 75.3149 77.4739 77.3797 77.3945" fill="#119620"/>
<path d="M53.6772 98.8023C53.6772 98.8023 54.983 101.828 55.7033 102.729C56.4237 103.63 59.8766 106.725 59.8766 106.725L60.1822 104.1C60.1822 104.1 57.5648 102.717 56.6817 101.998C55.7986 101.278 54.5682 98.7805 54.5682 98.7805C54.5682 98.7805 53.4788 96.6773 53.1553 96.6753C52.8318 96.6733 53.6772 98.8023 53.6772 98.8023Z" fill="#983801"/>
<path d="M56.8542 99.3256C55.6923 100.692 53.4876 101.017 51.9804 100.045C51.5468 99.7651 51.1697 99.3951 50.7024 99.1778C49.8054 98.7592 48.709 98.9586 47.823 98.5181C46.8486 98.034 46.3753 96.8881 46.2791 95.8038C46.2552 95.5319 46.1302 94.5171 46.8327 93.7661C47.6215 92.9228 48.6525 93.0151 49.7151 92.5667C50.7778 92.1172 51.9903 91.9416 53.0957 92.272C53.6543 92.4397 54.1752 92.7313 54.7487 92.8375C55.1079 92.904 55.48 92.896 55.8342 92.9863C56.4266 93.1371 56.9227 93.5538 57.2918 94.0399C58.4219 95.5319 58.3882 97.7929 57.2154 99.2512" fill="#119620"/>
<path d="M65.1546 92.4815C65.1546 92.4815 64.0304 96.9726 64.594 102.736C65.1576 108.498 69.3795 121.441 69.1473 123.939H55.7632C55.7632 123.939 56.7812 120.436 56.9668 116.065C57.3011 108.19 56.9777 97.0321 57.6415 95.1601C58.6744 92.2484 65.1546 92.4815 65.1546 92.4815Z" fill="#7C2D00"/>
<path d="M72.36 92.917C72.36 92.917 70.9868 96.6025 70.183 97.7196C69.3793 98.8367 64.4063 104.318 64.4063 104.318L64.1245 100.185C64.1245 100.185 67.9634 97.8178 68.9725 96.9071C69.9816 95.9954 71.2963 92.9448 71.2963 92.9448" fill="#7C2D00"/>
<path d="M79.0448 72.3042C78.0327 70.4837 77.0216 68.6633 76.0095 66.8428C75.4569 65.8488 74.8903 64.8369 74.0568 64.063C71.7062 61.8815 68.032 62.187 65.0385 61.0323C62.7454 60.1473 60.7788 58.3676 58.3429 58.0362C55.4397 57.6414 52.7259 59.3973 50.3227 61.072C49.2551 61.816 48.1686 62.5779 47.3877 63.6186C45.9242 65.57 45.7535 68.194 45.9381 70.6256C45.9917 71.3359 46.073 72.0482 46.2744 72.7318C46.9134 74.8945 48.7282 76.5562 50.7653 77.5254C52.8023 78.4937 55.0646 78.8638 57.2961 79.1931C60.0833 79.6038 62.9012 79.9709 65.7112 79.7665C68.5212 79.5622 71.352 78.7487 73.5716 77.0125C74.0419 76.6445 74.5261 76.0899 74.3406 75.5225" fill="#15BB28"/>
<path style="mix-blend-mode:multiply" opacity="0.25" fill-rule="evenodd" clip-rule="evenodd" d="M64.4728 97.835C64.411 97.8705 64.3492 97.9061 64.2874 97.9417C63.7519 98.2503 63.2161 98.559 62.6636 98.8259C60.9987 99.6276 59.0694 100.014 57.2412 99.8268C57.3031 97.5219 57.4147 95.7995 57.6414 95.1601C58.6743 92.2484 65.1545 92.4815 65.1545 92.4815C65.1545 92.4815 64.6197 94.6181 64.4728 97.835Z" fill="#15BB28"/>
<path d="M40.0746 80.4579C41.1522 82.2188 40.0806 84.4331 40.8396 86.9113C41.7376 89.8716 43.4115 90.3627 45.1281 91.5135C46.7692 92.6127 48.8658 92.7824 50.5397 93.827C51.9457 94.709 52.9329 96.081 54.2675 97.0602C56.6885 98.841 60.1276 98.7001 62.8284 97.3965C64.4021 96.6346 65.8319 95.5116 67.5435 95.1237C68.6577 94.8727 69.8276 94.951 70.9418 94.707C72.2843 94.4094 73.5206 93.6356 74.364 92.5611C75.4952 91.1216 75.9655 89.1732 77.3536 87.9837C78.8469 86.697 81.3017 85.8389 83.0569 81.5829C84.2337 78.7317 83.1095 73.7862 81.8256 72.1384C80.9872 70.4985 79.2944 69.4756 77.5769 68.8308C75.8593 68.186 74.0416 67.8268 72.3617 67.0798C69.4525 65.7703 67.1436 63.3516 64.2026 62.1026C60.1424 60.3764 55.3093 61.174 51.5329 63.4567C50.4295 64.1194 49.3897 64.9081 48.2218 65.4577C46.534 66.2435 40.8327 67.9399 39.387 73.2068C38.5655 76.2178 39.1826 78.9896 40.0766 80.4579H40.0746Z" fill="#15BB28"/>
<path style="mix-blend-mode:multiply" opacity="0.25" d="M41.5342 78.2375C41.5729 78.044 41.6027 77.8496 41.6821 77.664C42.201 76.4438 43.5038 75.7851 44.7064 75.2275C44.9703 75.1055 45.2501 74.9795 45.5399 75.0023C45.7591 75.0202 45.9616 75.1204 46.156 75.2206C47.1076 75.7136 48.0442 76.2742 48.7725 77.0599C49.4562 77.797 49.9325 78.7067 50.6181 79.4408C51.6639 80.5599 53.2763 81.2206 54.7666 80.8655C55.7806 80.6234 56.634 79.9597 57.5726 79.5053C58.8317 78.8952 60.2705 78.665 61.6566 78.8516C61.9473 78.8912 62.2391 78.9488 62.502 79.0787C63.1311 79.3893 63.4922 80.048 63.8862 80.6274C64.8397 82.0341 66.2258 83.0897 67.7816 83.7653C71.3447 82.8109 76.3088 84.052 79.4989 80.8C83.1175 77.1115 81.8246 72.1362 81.8246 72.1362C83.1086 73.7841 84.2328 78.7295 83.056 81.5807C81.3007 85.8367 78.845 86.6949 77.3527 87.9816C75.9655 89.1711 75.4952 91.1195 74.3641 92.559C73.5207 93.6334 72.2844 94.4072 70.9419 94.7049C69.8276 94.9489 68.6578 94.8705 67.5435 95.1215C65.8319 95.5094 64.4021 96.6324 62.8284 97.3944C60.1276 98.6979 56.6885 98.8388 54.2675 97.0581C52.9329 96.0799 51.9467 94.7078 50.5397 93.8249C48.8658 92.7812 46.7692 92.6106 45.1281 91.5114C43.4115 90.3606 41.7376 89.8695 40.8397 86.9092C40.0816 84.431 41.1522 82.2177 40.0747 80.4557C39.1807 78.9875 38.5635 76.2146 39.3851 73.2047C39.528 75.8674 40.2156 77.1353 41.5342 78.2355V78.2375Z" fill="#13A824"/>
<path fill-rule="evenodd" clip-rule="evenodd" d="M35.6161 123.927C31.1893 123.501 29.667 118.167 30.0593 115.179C30.4382 112.304 33.9075 115.932 34.199 118.727C34.199 118.727 33.285 110.672 35.4282 110.954C37.5707 111.236 37.2896 119.626 37.2896 119.626C37.2896 119.626 39.2961 111.645 40.8611 114.171C42.0537 116.095 39.2836 124.278 35.6161 123.927Z" fill="#119620"/>
<path fill-rule="evenodd" clip-rule="evenodd" d="M24.6161 123.927C20.1893 123.501 18.667 118.167 19.0593 115.179C19.4382 112.304 22.9075 115.932 23.199 118.727C23.199 118.727 22.285 110.672 24.4282 110.954C26.5707 111.236 26.2896 119.626 26.2896 119.626C26.2896 119.626 28.2961 111.645 29.8611 114.171C31.0537 116.095 28.2836 124.278 24.6161 123.927Z" fill="#119620"/>
<path fill-rule="evenodd" clip-rule="evenodd" d="M44.891 123.767C41.5611 123.471 40.416 119.753 40.7111 117.67C40.9961 115.665 43.6058 118.194 43.825 120.143C43.825 120.143 43.1375 114.528 44.7497 114.725C46.3612 114.921 46.1498 120.769 46.1498 120.769C46.1498 120.769 47.6591 115.206 48.8363 116.967C49.7334 118.308 47.6497 124.012 44.891 123.767Z" fill="#119620"/>
<path fill-rule="evenodd" clip-rule="evenodd" d="M54.6639 123.927C50.2372 123.501 48.7148 118.167 49.1071 115.179C49.4861 112.304 52.9554 115.932 53.2468 118.727C53.2468 118.727 52.3329 110.672 54.4761 110.954C56.6185 111.236 56.3374 119.626 56.3374 119.626C56.3374 119.626 58.3439 111.645 59.909 114.171C61.1016 116.095 58.3314 124.278 54.6639 123.927Z" fill="#119620"/>
<path fill-rule="evenodd" clip-rule="evenodd" d="M63.9388 123.767C60.609 123.471 59.4639 119.753 59.7589 117.67C60.044 115.665 62.6536 118.194 62.8729 120.143C62.8729 120.143 62.1854 114.528 63.7975 114.725C65.4091 114.921 65.1976 120.769 65.1976 120.769C65.1976 120.769 66.707 115.206 67.8842 116.967C68.7813 118.308 66.6976 124.012 63.9388 123.767Z" fill="#119620"/>
<path fill-rule="evenodd" clip-rule="evenodd" d="M71.9356 123.767C68.9085 123.471 67.8675 119.753 68.1357 117.67C68.3949 115.665 70.7673 118.194 70.9666 120.143C70.9666 120.143 70.3416 114.528 71.8072 114.725C73.2722 114.921 73.08 120.769 73.08 120.769C73.08 120.769 74.4521 115.206 75.5223 116.967C76.3379 118.308 74.4436 124.012 71.9356 123.767Z" fill="#119620"/>
<path fill-rule="evenodd" clip-rule="evenodd" d="M90.2213 123.767C87.1941 123.471 86.1531 119.753 86.4214 117.67C86.6805 115.665 89.0529 118.194 89.2522 120.143C89.2522 120.143 88.6272 114.528 90.0928 114.725C91.5579 114.921 91.3657 120.769 91.3657 120.769C91.3657 120.769 92.7378 115.206 93.808 116.967C94.6235 118.308 92.7292 124.012 90.2213 123.767Z" fill="#119620"/>
<path fill-rule="evenodd" clip-rule="evenodd" d="M97.8404 123.992C94.8133 123.695 93.7723 119.977 94.0405 117.895C94.2997 115.89 96.6721 118.419 96.8714 120.367C96.8714 120.367 96.2464 114.753 97.712 114.949C99.177 115.146 98.9848 120.994 98.9848 120.994C98.9848 120.994 100.357 115.431 101.427 117.192C102.243 118.533 100.348 124.237 97.8404 123.992Z" fill="#119620"/>
<path fill-rule="evenodd" clip-rule="evenodd" d="M81.3304 123.927C76.9037 123.501 75.3813 118.167 75.7736 115.179C76.1526 112.304 79.6219 115.932 79.9133 118.727C79.9133 118.727 78.9994 110.672 81.1426 110.954C83.285 111.236 83.0039 119.626 83.0039 119.626C83.0039 119.626 85.0104 111.645 86.5755 114.171C87.7681 116.095 84.9979 124.278 81.3304 123.927Z" fill="#119620"/>
</g>
<defs>
<clipPath id="clip0_2320_143445">
<rect width="124" height="124" rx="12" fill="white"/>
</clipPath>
</defs>
</svg>
