<svg width="102" height="102" viewBox="0 0 102 102" fill="none" xmlns="http://www.w3.org/2000/svg">
<rect y="31" width="6" height="40" fill="#CDAA5F"/>
<rect x="31" y="102" width="6" height="40" transform="rotate(-90 31 102)" fill="#CDAA5F"/>
<rect x="6" y="34" width="2" height="34" fill="#B59653"/>
<rect x="34" y="96" width="2" height="34" transform="rotate(-90 34 96)" fill="#B59653"/>
<path opacity="0.41" d="M35.3922 46.7012C35.7331 47.0743 36.0227 47.4948 36.0623 48.0175C36.0775 48.2168 35.999 48.4976 35.7166 48.6319C35.5626 48.7051 35.4041 48.7027 35.274 48.6796C34.8207 48.5989 34.5604 48.3151 34.3139 48.044C33.3926 47.0314 32.3715 46.0434 30.8166 45.573C30.5876 45.5036 30.3398 45.4412 30.2155 45.2848C29.9362 44.9332 30.5302 44.4705 31.0904 44.459C31.6252 44.448 32.1661 44.7278 32.5747 44.8788C33.72 45.3023 34.6786 45.9204 35.3921 46.7015L35.3922 46.7012Z" fill="#FFF3D9"/>
<path fill-rule="evenodd" clip-rule="evenodd" d="M67.8493 94C67.9492 92.6788 68 91.3449 68 90C68 59.0721 41.1371 34 8 34V68.1294C8.84456 68.0439 9.7025 68 10.5714 68C23.5896 68 34.1429 77.8497 34.1429 90C34.1429 91.366 34.0095 92.7029 33.7542 94H67.8493Z" fill="#CDAA5F"/>
<path opacity="0.44" d="M49.8637 54.0219C50.1143 54.4608 50.3044 54.9346 50.2281 55.4533C50.1991 55.651 50.0608 55.9077 49.7558 55.9766C49.5895 56.0142 49.4353 55.9771 49.3135 55.9259C48.889 55.7476 48.6975 55.4135 48.5166 55.0948C47.8404 53.9045 47.0614 52.7162 45.6479 51.9155C45.4398 51.7975 45.2118 51.6822 45.1249 51.5023C44.9297 51.0979 45.6109 50.7771 46.1599 50.889C46.6841 50.9958 47.1503 51.3876 47.5156 51.6247C48.5398 52.2897 49.3392 53.1033 49.8635 54.0222L49.8637 54.0219Z" fill="#FFF3D9"/>
</svg>
