<svg width="892" height="412" viewBox="0 0 892 412" fill="none" xmlns="http://www.w3.org/2000/svg">
<g clip-path="url(#clip0_2410_106996)">
<mask id="mask0_2410_106996" style="mask-type:luminance" maskUnits="userSpaceOnUse" x="0" y="0" width="892" height="352">
<path d="M892 0H0V352H892V0Z" fill="white"/>
</mask>
<g mask="url(#mask0_2410_106996)">
<path d="M463.804 300.065H428.196V310.408H463.804V300.065Z" fill="#EDD6EE"/>
<path d="M2.38621 314.914H35.079V325.257H2.38621V314.914ZM39.4904 314.914H72.2496V325.257H39.4904V314.914ZM76.5949 314.914H109.421V325.257H76.5949V314.914ZM113.699 314.914H146.592V325.257H113.699V314.914ZM150.803 314.914H183.763V325.257H150.803V314.914ZM187.907 314.914H220.934V325.257H187.907V314.914ZM225.011 314.914H258.105V325.257H225.011V314.914ZM262.115 314.914H295.276V325.257H262.115V314.914ZM299.22 314.914H332.447V325.257H299.22V314.914ZM336.324 314.914H369.618V325.257H336.324V314.914ZM373.427 314.914H406.789V325.257H373.427V314.914ZM410.532 314.914H443.96V325.257H410.532V314.914ZM448.04 314.914H481.468V325.257H448.04V314.914ZM485.211 314.914H518.573V325.257H485.211V314.914ZM522.382 314.914H555.676V325.257H522.382V314.914ZM559.553 314.914H592.781V325.257H559.553V314.914ZM596.724 314.914H629.885V325.257H596.724V314.914ZM633.895 314.914H666.989V325.257H633.895V314.914ZM671.066 314.914H704.093V325.257H671.066V314.914ZM708.237 314.914H741.198V325.257H708.237V314.914ZM745.409 314.914H778.302V325.257H745.409V314.914ZM782.579 314.914H815.405V325.257H782.579V314.914ZM819.75 314.914H852.51V325.257H819.75V314.914ZM856.921 314.914H889.614V325.257H856.921V314.914ZM2.38914 285.215H35.082V295.558H2.38914V285.215ZM39.4933 285.215H72.2525V295.558H39.4933V285.215ZM76.5975 285.215H109.424V295.558H76.5975V285.215ZM113.702 285.215H146.595V295.558H113.702V285.215ZM150.806 285.215H183.766V295.558H150.806V285.215ZM187.91 285.215H220.937V295.558H187.91V285.215ZM225.014 285.215H258.108V295.558H225.014V285.215ZM262.118 285.215H295.279V295.558H262.118V285.215ZM299.222 285.215H332.45V295.558H299.222V285.215ZM336.327 285.215H369.621V295.558H336.327V285.215ZM373.43 285.215H406.792V295.558H373.43V285.215ZM410.535 285.215H443.963V295.558H410.535V285.215ZM448.037 285.215H481.465V295.558H448.037V285.215ZM485.208 285.215H518.57V295.558H485.208V285.215ZM522.379 285.215H555.673V295.558H522.379V285.215ZM559.55 285.215H592.778V295.558H559.55V285.215ZM596.721 285.215H629.882V295.558H596.721V285.215ZM633.892 285.215H666.986V295.558H633.892V285.215ZM671.063 285.215H704.09V295.558H671.063V285.215ZM708.234 285.215H741.194V295.558H708.234V285.215ZM745.405 285.215H778.298V295.558H745.405V285.215ZM782.577 285.215H815.403V295.558H782.577V285.215ZM819.747 285.215H852.507V295.558H819.747V285.215ZM856.918 285.215H889.611V295.558H856.918V285.215ZM2.39244 255.516H35.0853V265.859H2.39244V255.516ZM39.4962 255.516H72.2555V265.859H39.4962V255.516ZM76.6004 255.516H109.427V265.859H76.6004V255.516ZM113.705 255.516H146.598V265.859H113.705V255.516ZM150.809 255.516H183.769V265.859H150.809V255.516ZM187.913 255.516H220.94V265.859H187.913V255.516ZM225.017 255.516H258.111V265.859H225.017V255.516ZM262.121 255.516H295.282V265.859H262.121V255.516ZM299.225 255.516H332.453V265.859H299.225V255.516ZM336.33 255.516H369.624V265.859H336.33V255.516ZM373.434 255.516H406.795V265.859H373.434V255.516ZM410.538 255.516H443.966V265.859H410.538V255.516ZM448.034 255.516H481.462V265.859H448.034V255.516ZM485.205 255.516H518.566V265.859H485.205V255.516ZM522.376 255.516H555.67V265.859H522.376V255.516ZM559.547 255.516H592.774V265.859H559.547V255.516ZM596.718 255.516H629.879V265.859H596.718V255.516ZM633.889 255.516H666.983V265.859H633.889V255.516ZM671.06 255.516H704.087V265.859H671.06V255.516ZM708.231 255.516H741.191V265.859H708.231V255.516ZM745.402 255.516H778.295V265.859H745.402V255.516ZM782.573 255.516H815.4V265.859H782.573V255.516ZM819.744 255.516H852.504V265.859H819.744V255.516ZM856.915 255.516H889.608V265.859H856.915V255.516ZM2.39538 225.817H35.0882V236.16H2.39538V225.817ZM39.4992 225.817H72.2588V236.16H39.4992V225.817ZM76.6037 225.817H109.43V236.16H76.6037V225.817ZM113.708 225.817H146.601V236.16H113.708V225.817ZM150.812 225.817H183.772V236.16H150.812V225.817ZM187.916 225.817H220.943V236.16H187.916V225.817ZM225.02 225.817H258.114V236.16H225.02V225.817ZM262.124 225.817H295.285V236.16H262.124V225.817ZM299.228 225.817H332.456V236.16H299.228V225.817ZM336.333 225.817H369.627V236.16H336.333V225.817ZM373.437 225.817H406.798V236.16H373.437V225.817ZM410.541 225.817H443.969V236.16H410.541V225.817ZM448.031 225.817H481.459V236.16H448.031V225.817ZM485.202 225.817H518.563V236.16H485.202V225.817ZM522.373 225.817H555.668V236.16H522.373V225.817ZM559.544 225.817H592.771V236.16H559.544V225.817ZM596.715 225.817H629.876V236.16H596.715V225.817ZM633.886 225.817H666.98V236.16H633.886V225.817ZM671.057 225.817H704.084V236.16H671.057V225.817ZM708.228 225.817H741.188V236.16H708.228V225.817ZM745.399 225.817H778.293V236.16H745.399V225.817ZM782.57 225.817H815.397V236.16H782.57V225.817ZM819.741 225.817H852.5V236.16H819.741V225.817ZM856.913 225.817H889.605V236.16H856.913V225.817ZM2.39868 196.118H35.0911V206.461H2.39868V196.118ZM39.5025 196.118H72.2621V206.461H39.5025V196.118ZM76.6066 196.118H109.433V206.461H76.6066V196.118ZM113.711 196.118H146.604V206.461H113.711V196.118ZM150.815 196.118H183.775V206.461H150.815V196.118ZM187.919 196.118H220.946V206.461H187.919V196.118ZM225.023 196.118H258.117V206.461H225.023V196.118ZM262.127 196.118H295.289V206.461H262.127V196.118ZM299.231 196.118H332.459V206.461H299.231V196.118ZM336.336 196.118H369.63V206.461H336.336V196.118ZM373.44 196.118H406.801V206.461H373.44V196.118ZM410.544 196.118H443.972V206.461H410.544V196.118ZM448.028 196.118H481.456V206.461H448.028V196.118ZM485.199 196.118H518.56V206.461H485.199V196.118ZM522.37 196.118H555.665V206.461H522.37V196.118ZM559.541 196.118H592.769V206.461H559.541V196.118ZM596.712 196.118H629.873V206.461H596.712V196.118ZM633.883 196.118H666.977V206.461H633.883V196.118ZM671.054 196.118H704.081V206.461H671.054V196.118ZM708.225 196.118H741.185V206.461H708.225V196.118ZM745.396 196.118H778.289V206.461H745.396V196.118ZM782.567 196.118H815.394V206.461H782.567V196.118ZM819.738 196.118H852.498V206.461H819.738V196.118ZM856.91 196.118H889.602V206.461H856.91V196.118ZM2.40162 166.419H35.0941V176.762H2.40162V166.419ZM39.5058 166.419H72.265V176.762H39.5058V166.419ZM76.6096 166.419H109.436V176.762H76.6096V166.419ZM113.714 166.419H146.607V176.762H113.714V166.419ZM150.818 166.419H183.778V176.762H150.818V166.419ZM187.922 166.419H220.949V176.762H187.922V166.419ZM225.027 166.419H258.12V176.762H225.027V166.419ZM262.13 166.419H295.291V176.762H262.13V166.419ZM299.235 166.419H332.462V176.762H299.235V166.419ZM336.339 166.419H369.633V176.762H336.339V166.419ZM373.443 166.419H406.804V176.762H373.443V166.419ZM410.547 166.419H443.975V176.762H410.547V166.419ZM448.025 166.419H481.453V176.762H448.025V166.419ZM485.196 166.419H518.557V176.762H485.196V166.419ZM522.367 166.419H555.661V176.762H522.367V166.419ZM559.538 166.419H592.765V176.762H559.538V166.419ZM596.709 166.419H629.87V176.762H596.709V166.419ZM633.88 166.419H666.974V176.762H633.88V166.419ZM671.051 166.419H704.078V176.762H671.051V166.419ZM708.223 166.419H741.182V176.762H708.223V166.419ZM745.393 166.419H778.287V176.762H745.393V166.419ZM782.564 166.419H815.39V176.762H782.564V166.419ZM819.735 166.419H852.495V176.762H819.735V166.419ZM856.906 166.419H889.599V176.762H856.906V166.419ZM2.40455 136.72H35.097V147.063H2.40455V136.72ZM39.5087 136.72H72.268V147.063H39.5087V136.72ZM76.6125 136.72H109.439V147.063H76.6125V136.72ZM113.717 136.72H146.61V147.063H113.717V136.72ZM150.821 136.72H183.782V147.063H150.821V136.72ZM187.925 136.72H220.952V147.063H187.925V136.72ZM225.03 136.72H258.123V147.063H225.03V136.72ZM262.134 136.72H295.294V147.063H262.134V136.72ZM299.238 136.72H332.465V147.063H299.238V136.72ZM336.342 136.72H369.636V147.063H336.342V136.72ZM373.446 136.72H406.807V147.063H373.446V136.72ZM410.55 136.72H443.979V147.063H410.55V136.72ZM448.022 136.72H481.45V147.063H448.022V136.72ZM485.193 136.72H518.554V147.063H485.193V136.72ZM522.364 136.72H555.658V147.063H522.364V136.72ZM559.535 136.72H592.762V147.063H559.535V136.72ZM596.706 136.72H629.867V147.063H596.706V136.72ZM633.877 136.72H666.971V147.063H633.877V136.72ZM671.048 136.72H704.075V147.063H671.048V136.72ZM708.219 136.72H741.179V147.063H708.219V136.72ZM745.39 136.72H778.283V147.063H745.39V136.72ZM782.561 136.72H815.388V147.063H782.561V136.72ZM819.732 136.72H852.492V147.063H819.732V136.72ZM856.903 136.72H889.596V147.063H856.903V136.72ZM2.40712 107.021H35.0999V117.364H2.40712V107.021ZM39.5117 107.021H72.2709V117.364H39.5117V107.021ZM76.6158 107.021H109.442V117.364H76.6158V107.021ZM113.72 107.021H146.613V117.364H113.72V107.021ZM150.824 107.021H183.784V117.364H150.824V107.021ZM187.928 107.021H220.955V117.364H187.928V107.021ZM225.032 107.021H258.126V117.364H225.032V107.021ZM262.137 107.021H295.297V117.364H262.137V107.021ZM299.24 107.021H332.468V117.364H299.24V107.021ZM336.345 107.021H369.639V117.364H336.345V107.021ZM373.449 107.021H406.811V117.364H373.449V107.021ZM410.553 107.021H443.981V117.364H410.553V107.021ZM448.019 107.021H481.447V117.364H448.019V107.021ZM485.19 107.021H518.551V117.364H485.19V107.021ZM522.361 107.021H555.655V117.364H522.361V107.021ZM559.532 107.021H592.76V117.364H559.532V107.021ZM596.703 107.021H629.863V117.364H596.703V107.021ZM633.874 107.021H666.968V117.364H633.874V107.021ZM671.045 107.021H704.072V117.364H671.045V107.021ZM708.216 107.021H741.176V117.364H708.216V107.021ZM745.387 107.021H778.28V117.364H745.387V107.021ZM782.558 107.021H815.384V117.364H782.558V107.021ZM819.729 107.021H852.489V117.364H819.729V107.021ZM856.9 107.021H889.593V117.364H856.9V107.021ZM2.41042 77.3221H35.1032V87.6649H2.41042V77.3221ZM39.5146 77.3221H72.2742V87.6649H39.5146V77.3221ZM76.6188 77.3221H109.445V87.6649H76.6188V77.3221ZM113.723 77.3221H146.616V87.6649H113.723V77.3221ZM150.827 77.3221H183.787V87.6649H150.827V77.3221ZM187.931 77.3221H220.958V87.6649H187.931V77.3221ZM225.035 77.3221H258.129V87.6649H225.035V77.3221ZM262.14 77.3221H295.301V87.6649H262.14V77.3221ZM299.244 77.3221H332.472V87.6649H299.244V77.3221ZM336.348 77.3221H369.642V87.6649H336.348V77.3221ZM373.452 77.3221H406.813V87.6649H373.452V77.3221ZM410.556 77.3221H443.984V87.6649H410.556V77.3221ZM448.016 77.3221H481.444V87.6649H448.016V77.3221ZM485.187 77.3221H518.548V87.6649H485.187V77.3221ZM522.358 77.3221H555.652V87.6649H522.358V77.3221ZM559.529 77.3221H592.757V87.6649H559.529V77.3221ZM596.7 77.3221H629.861V87.6649H596.7V77.3221ZM633.871 77.3221H666.965V87.6649H633.871V77.3221ZM671.042 77.3221H704.069V87.6649H671.042V77.3221ZM708.213 77.3221H741.173V87.6649H708.213V77.3221ZM745.384 77.3221H778.277V87.6649H745.384V77.3221ZM782.555 77.3221H815.381V87.6649H782.555V77.3221ZM819.726 77.3221H852.485V87.6649H819.726V77.3221ZM856.897 77.3221H889.59V87.6649H856.897V77.3221ZM2.41373 47.6229H35.1062V57.9661H2.41373V47.6229ZM39.5175 47.6229H72.2768V57.9661H39.5175V47.6229ZM76.6221 47.6229H109.448V57.9661H76.6221V47.6229ZM113.726 47.6229H146.619V57.9661H113.726V47.6229ZM150.83 47.6229H183.79V57.9661H150.83V47.6229ZM187.934 47.6229H220.961V57.9661H187.934V47.6229ZM225.038 47.6229H258.132V57.9661H225.038V47.6229ZM262.143 47.6229H295.304V57.9661H262.143V47.6229ZM299.247 47.6229H332.474V57.9661H299.247V47.6229ZM336.351 47.6229H369.645V57.9661H336.351V47.6229ZM373.455 47.6229H406.816V57.9661H373.455V47.6229ZM410.559 47.6229H443.987V57.9661H410.559V47.6229ZM448.013 47.6229H481.441V57.9661H448.013V47.6229ZM485.184 47.6229H518.545V57.9661H485.184V47.6229ZM522.355 47.6229H555.649V57.9661H522.355V47.6229ZM559.526 47.6229H592.754V57.9661H559.526V47.6229ZM596.697 47.6229H629.858V57.9661H596.697V47.6229ZM633.868 47.6229H666.962V57.9661H633.868V47.6229ZM671.039 47.6229H704.066V57.9661H671.039V47.6229ZM708.21 47.6229H741.17V57.9661H708.21V47.6229ZM745.381 47.6229H778.274V57.9661H745.381V47.6229ZM782.552 47.6229H815.378V57.9661H782.552V47.6229ZM819.723 47.6229H852.483V57.9661H819.723V47.6229ZM856.894 47.6229H889.587V57.9661H856.894V47.6229ZM2.4163 17.9237H35.1091V28.2666H2.4163V17.9237ZM39.5208 17.9237H72.2801V28.2666H39.5208V17.9237ZM76.625 17.9237H109.451V28.2666H76.625V17.9237ZM113.729 17.9237H146.622V28.2666H113.729V17.9237ZM150.833 17.9237H183.793V28.2666H150.833V17.9237ZM187.937 17.9237H220.964V28.2666H187.937V17.9237ZM225.041 17.9237H258.135V28.2666H225.041V17.9237ZM262.145 17.9237H295.306V28.2666H262.145V17.9237ZM299.25 17.9237H332.477V28.2666H299.25V17.9237ZM336.354 17.9237H369.648V28.2666H336.354V17.9237ZM373.458 17.9237H406.819V28.2666H373.458V17.9237ZM410.562 17.9237H443.991V28.2666H410.562V17.9237ZM448.01 17.9237H481.438V28.2666H448.01V17.9237ZM485.181 17.9237H518.542V28.2666H485.181V17.9237ZM522.352 17.9237H555.646V28.2666H522.352V17.9237ZM559.523 17.9237H592.75V28.2666H559.523V17.9237ZM596.694 17.9237H629.855V28.2666H596.694V17.9237ZM633.865 17.9237H666.959V28.2666H633.865V17.9237ZM671.036 17.9237H704.063V28.2666H671.036V17.9237ZM708.207 17.9237H741.167V28.2666H708.207V17.9237ZM745.378 17.9237H778.271V28.2666H745.378V17.9237ZM782.549 17.9237H815.375V28.2666H782.549V17.9237ZM819.72 17.9237H852.479V28.2666H819.72V17.9237ZM856.891 17.9237H889.583V28.2666H856.891V17.9237ZM0 0V3.07402H14.9553V13.4169H0V32.7732H14.9553V43.1161H0V62.472H14.9553V72.8149H0V92.1712H14.9553V102.514H0V121.87H14.9553V132.213H0V151.569H14.9553V161.912H0V181.268H14.9553V191.611H0V210.967H14.9553V221.31H0V240.666H14.9553V251.009H0V270.365H14.9553V280.708H0V300.064H14.9553V310.408H0V329.763H14.9553V340.106H0V352H2.38327V344.613H35.0757V352H39.4874V344.613H72.2467V352H76.5916V344.613H109.418V352H113.695V344.613H146.589V352H150.8V344.613H183.76V352H187.904V344.613H220.931V352H225.008V344.613H258.102V352H262.112V344.613H295.273V352H299.217V344.613H332.444V352H336.32V344.613H369.615V352H373.425V344.613H406.786V352H410.529V344.613H443.957V352H448.043V344.613H481.471V352H485.214V344.613H518.576V352H522.385V344.613H555.679V352H559.556V344.613H592.784V352H596.727V344.613H629.888V352H633.898V344.613H666.992V352H671.069V344.613H704.096V352H708.24V344.613H741.2V352H745.411V344.613H778.305V352H782.582V344.613H815.409V352H819.754V344.613H852.513V352H856.925V344.613H889.617V352H892V340.106H877.044V329.763H892V310.408H877.044V300.064H892V280.708H877.044V270.365H892V251.009H877.044V240.666H892V221.31H877.044V210.967H892V191.611H877.044V181.268H892V161.912H877.044V151.569H892V132.213H877.044V121.87H892V102.514H877.044V92.1712H892V72.8149H877.044V62.472H892V43.1161H877.044V32.7732H892V13.4172H877.044V3.07432H892V0H0Z" fill="#E7C8E8"/>
<path d="M463.804 92.1715H428.196V102.514H463.804V92.1715Z" fill="#EDD6EE"/>
<path d="M463.804 300.065H428.196V310.408H463.804V300.065Z" fill="#EDD6EE"/>
<mask id="mask1_2410_106996" style="mask-type:luminance" maskUnits="userSpaceOnUse" x="0" y="0" width="892" height="352">
<path d="M892 0H0V352H892V0Z" fill="white"/>
</mask>
<g mask="url(#mask1_2410_106996)">
<path d="M275.769 329.764H242.675V340.107H275.769V329.764Z" fill="#EDD6EE"/>
<path d="M649.325 329.764H616.231V340.107H649.325V329.764Z" fill="#EDD6EE"/>
<path d="M312.94 300.065H279.779V310.408H312.94V300.065Z" fill="#EDD6EE"/>
<path d="M612.221 300.065H579.06V310.408H612.221V300.065Z" fill="#EDD6EE"/>
<path d="M463.804 240.667H428.196V251.01H463.804V240.667Z" fill="#EDD6EE"/>
<path d="M316.884 270.365V280.708H350.111V270.365H316.884Z" fill="#EDD6EE"/>
<path d="M541.889 270.365V280.708H575.116V270.365H541.889Z" fill="#EDD6EE"/>
<path d="M387.282 270.366H353.988V280.709H387.282V270.366Z" fill="#EDD6EE"/>
<path d="M538.012 270.366H504.718V280.709H538.012V270.366Z" fill="#EDD6EE"/>
<path d="M424.453 270.366H391.092V280.709H424.453V270.366Z" fill="#EDD6EE"/>
<path d="M500.908 270.366H467.547V280.709H500.908V270.366Z" fill="#EDD6EE"/>
<path d="M424.453 240.667H391.092V251.01H424.453V240.667Z" fill="#EDD6EE"/>
<path d="M500.908 240.667H467.547V251.01H500.908V240.667Z" fill="#EDD6EE"/>
<path d="M387.282 240.667H353.988V251.01H387.282V240.667Z" fill="#EDD6EE"/>
<path d="M538.013 240.667H504.718V251.01H538.013V240.667Z" fill="#EDD6EE"/>
<path d="M350.111 240.667H316.884V251.01H350.111V240.667Z" fill="#EDD6EE"/>
<path d="M575.116 240.667H541.889V251.01H575.116V240.667Z" fill="#EDD6EE"/>
<path d="M312.94 240.667H279.779V251.01H312.94V240.667Z" fill="#EDD6EE"/>
<path d="M612.221 240.667H579.06V251.01H612.221V240.667Z" fill="#EDD6EE"/>
<path d="M279.779 270.365V280.708H312.94V270.365H279.779Z" fill="#EDD6EE"/>
<path d="M579.06 270.365V280.708H612.221V270.365H579.06Z" fill="#EDD6EE"/>
<path d="M350.111 300.065H316.884V310.408H350.111V300.065Z" fill="#EDD6EE"/>
<path d="M575.116 300.065H541.889V310.408H575.116V300.065Z" fill="#EDD6EE"/>
<path d="M387.282 300.065H353.988V310.408H387.282V300.065Z" fill="#EDD6EE"/>
<path d="M538.012 300.065H504.718V310.408H538.012V300.065Z" fill="#EDD6EE"/>
<path d="M424.453 300.065H391.092V310.408H424.453V300.065Z" fill="#EDD6EE"/>
<path d="M500.908 300.065H467.547V310.408H500.908V300.065Z" fill="#EDD6EE"/>
<path d="M428.196 270.365V280.708H463.804V270.365H428.196Z" fill="#EDD6EE"/>
<path d="M428.196 210.967V221.31H463.804V210.967H428.196Z" fill="#EDD6EE"/>
<path d="M391.092 210.967V221.31H424.453V210.967H391.092Z" fill="#EDD6EE"/>
<path d="M467.547 210.967V221.31H500.908V210.967H467.547Z" fill="#EDD6EE"/>
<path d="M353.988 210.967V221.31H387.282V210.967H353.988Z" fill="#EDD6EE"/>
<path d="M504.718 210.967V221.31H538.013V210.967H504.718Z" fill="#EDD6EE"/>
<path d="M316.884 210.967V221.31H350.111V210.967H316.884Z" fill="#EDD6EE"/>
<path d="M541.889 210.967V221.31H575.116V210.967H541.889Z" fill="#EDD6EE"/>
<path d="M279.779 210.967V221.31H312.94V210.967H279.779Z" fill="#EDD6EE"/>
<path d="M579.06 210.967V221.31H612.221V210.967H579.06Z" fill="#EDD6EE"/>
<path d="M242.675 210.967V221.31H275.769V210.967H242.675Z" fill="#EDD6EE"/>
<path d="M616.231 210.967V221.31H649.325V210.967H616.231Z" fill="#EDD6EE"/>
<path d="M275.769 240.667H242.675V251.01H275.769V240.667Z" fill="#EDD6EE"/>
<path d="M649.325 240.667H616.231V251.01H649.325V240.667Z" fill="#EDD6EE"/>
<path d="M242.675 270.365V280.708H275.769V270.365H242.675Z" fill="#EDD6EE"/>
<path d="M616.231 270.365V280.708H649.325V270.365H616.231Z" fill="#EDD6EE"/>
<path d="M275.769 300.065H242.675V310.408H275.769V300.065Z" fill="#EDD6EE"/>
<path d="M649.325 300.065H616.231V310.408H649.325V300.065Z" fill="#EDD6EE"/>
<path d="M312.94 329.764H279.779V340.107H312.94V329.764Z" fill="#EDD6EE"/>
<path d="M612.221 329.764H579.06V340.107H612.221V329.764Z" fill="#EDD6EE"/>
<path d="M350.111 329.764H316.884V340.107H350.111V329.764Z" fill="#EDD6EE"/>
<path d="M575.116 329.764H541.889V340.107H575.116V329.764Z" fill="#EDD6EE"/>
<path d="M387.282 329.764H353.988V340.107H387.282V329.764Z" fill="#EDD6EE"/>
<path d="M538.012 329.764H504.718V340.107H538.012V329.764Z" fill="#EDD6EE"/>
<path d="M424.453 329.764H391.092V340.107H424.453V329.764Z" fill="#EDD6EE"/>
<path d="M500.908 329.764H467.547V340.107H500.908V329.764Z" fill="#EDD6EE"/>
<path d="M428.196 181.269V191.611H463.804V181.269H428.196Z" fill="#EDD6EE"/>
<path d="M391.092 181.269V191.611H424.453V181.269H391.092Z" fill="#EDD6EE"/>
<path d="M467.547 181.269V191.611H500.908V181.269H467.547Z" fill="#EDD6EE"/>
<path d="M353.988 181.269V191.611H387.282V181.269H353.988Z" fill="#EDD6EE"/>
<path d="M504.718 181.269V191.611H538.013V181.269H504.718Z" fill="#EDD6EE"/>
<path d="M316.884 181.269V191.611H350.111V181.269H316.884Z" fill="#EDD6EE"/>
<path d="M541.889 181.269V191.611H575.116V181.269H541.889Z" fill="#EDD6EE"/>
<path d="M279.779 181.269V191.611H312.94V181.269H279.779Z" fill="#EDD6EE"/>
<path d="M579.06 181.269V191.611H612.221V181.269H579.06Z" fill="#EDD6EE"/>
<path d="M242.675 181.269V191.611H275.769V181.269H242.675Z" fill="#EDD6EE"/>
<path d="M616.231 181.269V191.611H649.325V181.269H616.231Z" fill="#EDD6EE"/>
<path d="M205.571 181.269V191.611H238.598V181.269H205.571Z" fill="#EDD6EE"/>
<path d="M653.402 181.269V191.611H686.429V181.269H653.402Z" fill="#EDD6EE"/>
<path d="M205.571 210.967V221.31H238.598V210.967H205.571Z" fill="#EDD6EE"/>
<path d="M653.402 210.967V221.31H686.429V210.967H653.402Z" fill="#EDD6EE"/>
<path d="M238.598 240.667H205.571V251.01H238.598V240.667Z" fill="#EDD6EE"/>
<path d="M686.429 240.667H653.402V251.01H686.429V240.667Z" fill="#EDD6EE"/>
<path d="M205.571 270.365V280.708H238.598V270.365H205.571Z" fill="#EDD6EE"/>
<path d="M653.402 270.365V280.708H686.429V270.365H653.402Z" fill="#EDD6EE"/>
<path d="M238.598 300.065H205.571V310.408H238.598V300.065Z" fill="#EDD6EE"/>
<path d="M686.429 300.065H653.402V310.408H686.429V300.065Z" fill="#EDD6EE"/>
<path d="M238.598 329.764H205.571V340.107H238.598V329.764Z" fill="#EDD6EE"/>
<path d="M686.429 329.764H653.402V340.107H686.429V329.764Z" fill="#EDD6EE"/>
<path d="M463.804 329.764H428.196V340.107H463.804V329.764Z" fill="#EDD6EE"/>
<path d="M463.804 151.569H428.196V161.912H463.804V151.569Z" fill="#EDD6EE"/>
<path d="M424.453 151.569H391.092V161.912H424.453V151.569Z" fill="#EDD6EE"/>
<path d="M500.908 151.569H467.547V161.912H500.908V151.569Z" fill="#EDD6EE"/>
<path d="M387.282 151.569H353.988V161.912H387.282V151.569Z" fill="#EDD6EE"/>
<path d="M538.013 151.569H504.718V161.912H538.013V151.569Z" fill="#EDD6EE"/>
<path d="M350.111 151.569H316.884V161.912H350.111V151.569Z" fill="#EDD6EE"/>
<path d="M575.116 151.569H541.889V161.912H575.116V151.569Z" fill="#EDD6EE"/>
<path d="M312.94 151.569H279.779V161.912H312.94V151.569Z" fill="#EDD6EE"/>
<path d="M612.221 151.569H579.06V161.912H612.221V151.569Z" fill="#EDD6EE"/>
<path d="M275.769 151.569H242.675V161.912H275.769V151.569Z" fill="#EDD6EE"/>
<path d="M649.325 151.569H616.231V161.912H649.325V151.569Z" fill="#EDD6EE"/>
<path d="M238.598 151.569H205.571V161.912H238.598V151.569Z" fill="#EDD6EE"/>
<path d="M686.429 151.569H653.402V161.912H686.429V151.569Z" fill="#EDD6EE"/>
<path d="M201.427 151.569H168.467V161.912H201.427V151.569Z" fill="#EDD6EE"/>
<path d="M723.533 151.569H690.573V161.912H723.533V151.569Z" fill="#EDD6EE"/>
<path d="M168.467 181.269V191.611H201.427V181.269H168.467Z" fill="#EDD6EE"/>
<path d="M690.573 181.269V191.611H723.533V181.269H690.573Z" fill="#EDD6EE"/>
<path d="M168.467 210.967V221.31H201.427V210.967H168.467Z" fill="#EDD6EE"/>
<path d="M690.573 210.967V221.31H723.533V210.967H690.573Z" fill="#EDD6EE"/>
<path d="M201.427 240.667H168.467V251.01H201.427V240.667Z" fill="#EDD6EE"/>
<path d="M723.533 240.667H690.573V251.01H723.533V240.667Z" fill="#EDD6EE"/>
<path d="M168.467 270.365V280.708H201.427V270.365H168.467Z" fill="#EDD6EE"/>
<path d="M690.573 270.365V280.708H723.533V270.365H690.573Z" fill="#EDD6EE"/>
<path d="M201.427 300.065H168.467V310.408H201.427V300.065Z" fill="#EDD6EE"/>
<path d="M723.533 300.065H690.573V310.408H723.533V300.065Z" fill="#EDD6EE"/>
<path d="M201.427 329.764H168.467V340.107H201.427V329.764Z" fill="#EDD6EE"/>
<path d="M723.533 329.764H690.573V340.107H723.533V329.764Z" fill="#EDD6EE"/>
<path d="M463.804 121.87H428.196V132.213H463.804V121.87Z" fill="#EDD6EE"/>
<path d="M424.453 121.87H391.092V132.213H424.453V121.87Z" fill="#EDD6EE"/>
<path d="M500.908 121.87H467.547V132.213H500.908V121.87Z" fill="#EDD6EE"/>
<path d="M387.282 121.87H353.988V132.213H387.282V121.87Z" fill="#EDD6EE"/>
<path d="M538.013 121.87H504.718V132.213H538.013V121.87Z" fill="#EDD6EE"/>
<path d="M350.111 121.87H316.884V132.213H350.111V121.87Z" fill="#EDD6EE"/>
<path d="M575.116 121.87H541.889V132.213H575.116V121.87Z" fill="#EDD6EE"/>
<path d="M312.94 121.87H279.779V132.213H312.94V121.87Z" fill="#EDD6EE"/>
<path d="M612.221 121.87H579.06V132.213H612.221V121.87Z" fill="#EDD6EE"/>
<path d="M275.769 121.87H242.675V132.213H275.769V121.87Z" fill="#EDD6EE"/>
<path d="M649.325 121.87H616.231V132.213H649.325V121.87Z" fill="#EDD6EE"/>
<path d="M238.598 121.87H205.571V132.213H238.598V121.87Z" fill="#EDD6EE"/>
<path d="M686.429 121.87H653.402V132.213H686.429V121.87Z" fill="#EDD6EE"/>
<path d="M201.427 121.87H168.467V132.213H201.427V121.87Z" fill="#EDD6EE"/>
<path d="M723.533 121.87H690.573V132.213H723.533V121.87Z" fill="#EDD6EE"/>
<path d="M164.256 121.87H131.363V132.213H164.256V121.87Z" fill="#EDD6EE"/>
<path d="M760.637 121.87H727.744V132.213H760.637V121.87Z" fill="#EDD6EE"/>
<path d="M164.256 151.569H131.363V161.912H164.256V151.569Z" fill="#EDD6EE"/>
<path d="M760.637 151.569H727.744V161.912H760.637V151.569Z" fill="#EDD6EE"/>
<path d="M131.363 181.269V191.611H164.256V181.269H131.363Z" fill="#EDD6EE"/>
<path d="M727.744 181.269V191.611H760.637V181.269H727.744Z" fill="#EDD6EE"/>
<path d="M131.363 210.967V221.31H164.256V210.967H131.363Z" fill="#EDD6EE"/>
<path d="M727.744 210.967V221.31H760.637V210.967H727.744Z" fill="#EDD6EE"/>
<path d="M164.256 240.667H131.363V251.01H164.256V240.667Z" fill="#EDD6EE"/>
<path d="M760.637 240.667H727.744V251.01H760.637V240.667Z" fill="#EDD6EE"/>
<path d="M131.363 270.365V280.708H164.256V270.365H131.363Z" fill="#EDD6EE"/>
<path d="M727.744 270.365V280.708H760.637V270.365H727.744Z" fill="#EDD6EE"/>
<path d="M164.256 300.065H131.363V310.408H164.256V300.065Z" fill="#EDD6EE"/>
<path d="M760.637 300.065H727.744V310.408H760.637V300.065Z" fill="#EDD6EE"/>
<path d="M164.256 329.764H131.363V340.107H164.256V329.764Z" fill="#EDD6EE"/>
<path d="M760.637 329.764H727.744V340.107H760.637V329.764Z" fill="#EDD6EE"/>
<path d="M424.453 92.1715H391.092V102.514H424.453V92.1715Z" fill="#EDD6EE"/>
<path d="M500.908 92.1715H467.547V102.514H500.908V92.1715Z" fill="#EDD6EE"/>
<path d="M387.282 92.1715H353.988V102.514H387.282V92.1715Z" fill="#EDD6EE"/>
<path d="M538.013 92.1715H504.718V102.514H538.013V92.1715Z" fill="#EDD6EE"/>
<path d="M350.111 92.1715H316.884V102.514H350.111V92.1715Z" fill="#EDD6EE"/>
<path d="M575.116 92.1715H541.889V102.514H575.116V92.1715Z" fill="#EDD6EE"/>
<path d="M312.94 92.1715H279.779V102.514H312.94V92.1715Z" fill="#EDD6EE"/>
<path d="M612.221 92.1715H579.06V102.514H612.221V92.1715Z" fill="#EDD6EE"/>
<path d="M275.769 92.1715H242.675V102.514H275.769V92.1715Z" fill="#EDD6EE"/>
<path d="M649.325 92.1715H616.231V102.514H649.325V92.1715Z" fill="#EDD6EE"/>
<path d="M238.598 92.1715H205.571V102.514H238.598V92.1715Z" fill="#EDD6EE"/>
<path d="M686.429 92.1715H653.402V102.514H686.429V92.1715Z" fill="#EDD6EE"/>
<path d="M201.427 92.1715H168.467V102.514H201.427V92.1715Z" fill="#EDD6EE"/>
<path d="M723.533 92.1715H690.573V102.514H723.533V92.1715Z" fill="#EDD6EE"/>
<path d="M164.256 92.1715H131.363V102.514H164.256V92.1715Z" fill="#EDD6EE"/>
<path d="M760.637 92.1715H727.744V102.514H760.637V92.1715Z" fill="#EDD6EE"/>
<path d="M127.085 92.1715H94.2586V102.514H127.085V92.1715Z" fill="#EDD6EE"/>
<path d="M797.742 92.1715H764.915V102.514H797.742V92.1715Z" fill="#EDD6EE"/>
<path d="M127.085 121.87H94.2586V132.213H127.085V121.87Z" fill="#EDD6EE"/>
<path d="M797.742 121.87H764.915V132.213H797.742V121.87Z" fill="#EDD6EE"/>
<path d="M127.085 151.569H94.2586V161.912H127.085V151.569Z" fill="#EDD6EE"/>
<path d="M797.742 151.569H764.915V161.912H797.742V151.569Z" fill="#EDD6EE"/>
<path d="M94.2586 181.269V191.611H127.085V181.269H94.2586Z" fill="#EDD6EE"/>
<path d="M764.915 181.269V191.611H797.741V181.269H764.915Z" fill="#EDD6EE"/>
<path d="M94.2586 210.967V221.31H127.085V210.967H94.2586Z" fill="#EDD6EE"/>
<path d="M764.915 210.967V221.31H797.741V210.967H764.915Z" fill="#EDD6EE"/>
<path d="M127.085 240.667H94.2586V251.01H127.085V240.667Z" fill="#EDD6EE"/>
<path d="M797.742 240.667H764.915V251.01H797.742V240.667Z" fill="#EDD6EE"/>
<path d="M94.2586 270.365V280.708H127.085V270.365H94.2586Z" fill="#EDD6EE"/>
<path d="M764.915 270.365V280.708H797.741V270.365H764.915Z" fill="#EDD6EE"/>
<path d="M127.085 300.065H94.2586V310.408H127.085V300.065Z" fill="#EDD6EE"/>
<path d="M797.742 300.065H764.915V310.408H797.742V300.065Z" fill="#EDD6EE"/>
<path d="M127.085 329.764H94.2586V340.107H127.085V329.764Z" fill="#EDD6EE"/>
<path d="M797.742 329.764H764.915V340.107H797.742V329.764Z" fill="#EDD6EE"/>
<path d="M428.196 62.4723V72.8152H463.804V62.4723H428.196Z" fill="#EDD6EE"/>
<path d="M391.092 62.4723V72.8152H424.453V62.4723H391.092Z" fill="#EDD6EE"/>
<path d="M467.547 62.4723V72.8152H500.908V62.4723H467.547Z" fill="#EDD6EE"/>
<path d="M353.988 62.4723V72.8152H387.282V62.4723H353.988Z" fill="#EDD6EE"/>
<path d="M504.718 62.4723V72.8152H538.013V62.4723H504.718Z" fill="#EDD6EE"/>
<path d="M316.884 62.4723V72.8152H350.111V62.4723H316.884Z" fill="#EDD6EE"/>
<path d="M541.889 62.4723V72.8152H575.116V62.4723H541.889Z" fill="#EDD6EE"/>
<path d="M279.779 62.4723V72.8152H312.94V62.4723H279.779Z" fill="#EDD6EE"/>
<path d="M579.06 62.4723V72.8152H612.221V62.4723H579.06Z" fill="#EDD6EE"/>
<path d="M242.675 62.4723V72.8152H275.769V62.4723H242.675Z" fill="#EDD6EE"/>
<path d="M616.231 62.4723V72.8152H649.325V62.4723H616.231Z" fill="#EDD6EE"/>
<path d="M205.571 62.4723V72.8152H238.598V62.4723H205.571Z" fill="#EDD6EE"/>
<path d="M653.402 62.4723V72.8152H686.429V62.4723H653.402Z" fill="#EDD6EE"/>
<path d="M168.467 62.4723V72.8152H201.427V62.4723H168.467Z" fill="#EDD6EE"/>
<path d="M690.573 62.4723V72.8152H723.533V62.4723H690.573Z" fill="#EDD6EE"/>
<path d="M131.363 62.4723V72.8152H164.256V62.4723H131.363Z" fill="#EDD6EE"/>
<path d="M727.744 62.4723V72.8152H760.637V62.4723H727.744Z" fill="#EDD6EE"/>
<path d="M94.2586 62.4723V72.8152H127.085V62.4723H94.2586Z" fill="#EDD6EE"/>
<path d="M764.915 62.4723V72.8152H797.741V62.4723H764.915Z" fill="#EDD6EE"/>
<path d="M57.1545 62.4723V72.8152H89.9141V62.4723H57.1545Z" fill="#EDD6EE"/>
<path d="M802.086 62.4723V72.8152H834.846V62.4723H802.086Z" fill="#EDD6EE"/>
<path d="M89.9141 92.1715H57.1545V102.514H89.9141V92.1715Z" fill="#EDD6EE"/>
<path d="M834.846 92.1715H802.086V102.514H834.846V92.1715Z" fill="#EDD6EE"/>
<path d="M89.9141 121.87H57.1545V132.213H89.9141V121.87Z" fill="#EDD6EE"/>
<path d="M834.846 121.87H802.086V132.213H834.846V121.87Z" fill="#EDD6EE"/>
<path d="M89.9141 151.569H57.1545V161.912H89.9141V151.569Z" fill="#EDD6EE"/>
<path d="M834.846 151.569H802.086V161.912H834.846V151.569Z" fill="#EDD6EE"/>
<path d="M57.1545 181.269V191.611H89.9141V181.269H57.1545Z" fill="#EDD6EE"/>
<path d="M802.086 181.269V191.611H834.846V181.269H802.086Z" fill="#EDD6EE"/>
<path d="M57.1545 210.967V221.31H89.9141V210.967H57.1545Z" fill="#EDD6EE"/>
<path d="M802.086 210.967V221.31H834.846V210.967H802.086Z" fill="#EDD6EE"/>
<path d="M89.9141 240.667H57.1545V251.01H89.9141V240.667Z" fill="#EDD6EE"/>
<path d="M834.846 240.667H802.086V251.01H834.846V240.667Z" fill="#EDD6EE"/>
<path d="M57.1545 270.365V280.708H89.9141V270.365H57.1545Z" fill="#EDD6EE"/>
<path d="M802.086 270.365V280.708H834.846V270.365H802.086Z" fill="#EDD6EE"/>
<path d="M89.9141 300.065H57.1545V310.408H89.9141V300.065Z" fill="#EDD6EE"/>
<path d="M834.846 300.065H802.086V310.408H834.846V300.065Z" fill="#EDD6EE"/>
<path d="M89.9141 329.764H57.1545V340.107H89.9141V329.764Z" fill="#EDD6EE"/>
<path d="M834.846 329.764H802.086V340.107H834.846V329.764Z" fill="#EDD6EE"/>
<path d="M463.804 32.7732H428.196V43.1161H463.804V32.7732Z" fill="#EDD6EE"/>
<path d="M424.453 32.7732H391.092V43.1161H424.453V32.7732Z" fill="#EDD6EE"/>
<path d="M500.908 32.7732H467.547V43.1161H500.908V32.7732Z" fill="#EDD6EE"/>
<path d="M387.282 32.7732H353.988V43.1161H387.282V32.7732Z" fill="#EDD6EE"/>
<path d="M538.013 32.7732H504.718V43.1161H538.013V32.7732Z" fill="#EDD6EE"/>
<path d="M350.111 32.7732H316.884V43.1161H350.111V32.7732Z" fill="#EDD6EE"/>
<path d="M575.116 32.7732H541.889V43.1161H575.116V32.7732Z" fill="#EDD6EE"/>
<path d="M312.94 32.7732H279.779V43.1161H312.94V32.7732Z" fill="#EDD6EE"/>
<path d="M612.221 32.7732H579.06V43.1161H612.221V32.7732Z" fill="#EDD6EE"/>
<path d="M275.769 32.7732H242.675V43.1161H275.769V32.7732Z" fill="#EDD6EE"/>
<path d="M649.325 32.7732H616.231V43.1161H649.325V32.7732Z" fill="#EDD6EE"/>
<path d="M238.598 32.7732H205.571V43.1161H238.598V32.7732Z" fill="#EDD6EE"/>
<path d="M686.429 32.7732H653.402V43.1161H686.429V32.7732Z" fill="#EDD6EE"/>
<path d="M201.427 32.7732H168.467V43.1161H201.427V32.7732Z" fill="#EDD6EE"/>
<path d="M723.533 32.7732H690.573V43.1161H723.533V32.7732Z" fill="#EDD6EE"/>
<path d="M164.256 32.7732H131.363V43.1161H164.256V32.7732Z" fill="#EDD6EE"/>
<path d="M760.637 32.7732H727.744V43.1161H760.637V32.7732Z" fill="#EDD6EE"/>
<path d="M127.085 32.7732H94.2586V43.1161H127.085V32.7732Z" fill="#EDD6EE"/>
<path d="M797.742 32.7732H764.915V43.1161H797.742V32.7732Z" fill="#EDD6EE"/>
<path d="M89.9141 32.7732H57.1545V43.1161H89.9141V32.7732Z" fill="#EDD6EE"/>
<path d="M834.846 32.7732H802.086V43.1161H834.846V32.7732Z" fill="#EDD6EE"/>
<path d="M52.7431 32.7732H20.0503V43.1161H52.7431V32.7732Z" fill="#EDD6EE"/>
<path d="M871.95 32.7732H839.257V43.1161H871.95V32.7732Z" fill="#EDD6EE"/>
<path d="M20.0503 62.4723V72.8152H52.7431V62.4723H20.0503Z" fill="#EDD6EE"/>
<path d="M839.257 62.4723V72.8152H871.95V62.4723H839.257Z" fill="#EDD6EE"/>
<path d="M52.7431 92.1715H20.0503V102.514H52.7431V92.1715Z" fill="#EDD6EE"/>
<path d="M871.95 92.1715H839.257V102.514H871.95V92.1715Z" fill="#EDD6EE"/>
<path d="M52.7431 121.87H20.0503V132.213H52.7431V121.87Z" fill="#EDD6EE"/>
<path d="M871.95 121.87H839.257V132.213H871.95V121.87Z" fill="#EDD6EE"/>
<path d="M52.7431 151.569H20.0503V161.912H52.7431V151.569Z" fill="#EDD6EE"/>
<path d="M871.95 151.569H839.257V161.912H871.95V151.569Z" fill="#EDD6EE"/>
<path d="M20.0503 181.269V191.611H52.7431V181.269H20.0503Z" fill="#EDD6EE"/>
<path d="M839.257 181.269V191.611H871.95V181.269H839.257Z" fill="#EDD6EE"/>
<path d="M20.0503 210.967V221.31H52.7431V210.967H20.0503Z" fill="#EDD6EE"/>
<path d="M839.257 210.967V221.31H871.95V210.967H839.257Z" fill="#EDD6EE"/>
<path d="M52.7431 240.667H20.0503V251.01H52.7431V240.667Z" fill="#EDD6EE"/>
<path d="M871.95 240.667H839.257V251.01H871.95V240.667Z" fill="#EDD6EE"/>
<path d="M20.0503 270.365V280.708H52.7431V270.365H20.0503Z" fill="#EDD6EE"/>
<path d="M839.257 270.365V280.708H871.95V270.365H839.257Z" fill="#EDD6EE"/>
<path d="M52.7431 300.065H20.0503V310.408H52.7431V300.065Z" fill="#EDD6EE"/>
<path d="M871.95 300.065H839.257V310.408H871.95V300.065Z" fill="#EDD6EE"/>
<path d="M52.7431 329.764H20.0503V340.107H52.7431V329.764Z" fill="#EDD6EE"/>
<path d="M871.95 329.764H839.257V340.107H871.95V329.764Z" fill="#EDD6EE"/>
<path d="M428.196 3.07432V13.4172H463.804V3.07432H428.196Z" fill="#EDD6EE"/>
<path d="M424.453 3.07432H391.092V13.4172H424.453V3.07432Z" fill="#EDD6EE"/>
<path d="M500.908 3.07432H467.547V13.4172H500.908V3.07432Z" fill="#EDD6EE"/>
<path d="M387.282 3.07432H353.988V13.4172H387.282V3.07432Z" fill="#EDD6EE"/>
<path d="M538.012 3.07432H504.718V13.4172H538.012V3.07432Z" fill="#EDD6EE"/>
<path d="M350.111 3.07432H316.884V13.4172H350.111V3.07432Z" fill="#EDD6EE"/>
<path d="M575.116 3.07432H541.889V13.4172H575.116V3.07432Z" fill="#EDD6EE"/>
<path d="M312.94 3.07432H279.779V13.4172H312.94V3.07432Z" fill="#EDD6EE"/>
<path d="M612.221 3.07432H579.06V13.4172H612.221V3.07432Z" fill="#EDD6EE"/>
<path d="M275.769 3.07432H242.675V13.4172H275.769V3.07432Z" fill="#EDD6EE"/>
<path d="M649.325 3.07432H616.231V13.4172H649.325V3.07432Z" fill="#EDD6EE"/>
<path d="M238.598 3.07432H205.571V13.4172H238.598V3.07432Z" fill="#EDD6EE"/>
<path d="M686.429 3.07432H653.402V13.4172H686.429V3.07432Z" fill="#EDD6EE"/>
<path d="M201.427 3.07432H168.467V13.4172H201.427V3.07432Z" fill="#EDD6EE"/>
<path d="M723.533 3.07432H690.573V13.4172H723.533V3.07432Z" fill="#EDD6EE"/>
<path d="M164.256 3.07432H131.363V13.4172H164.256V3.07432Z" fill="#EDD6EE"/>
<path d="M760.637 3.07432H727.744V13.4172H760.637V3.07432Z" fill="#EDD6EE"/>
<path d="M127.085 3.07432H94.2586V13.4172H127.085V3.07432Z" fill="#EDD6EE"/>
<path d="M797.741 3.07432H764.915V13.4172H797.741V3.07432Z" fill="#EDD6EE"/>
<path d="M89.9141 3.07432H57.1545V13.4172H89.9141V3.07432Z" fill="#EDD6EE"/>
<path d="M834.845 3.07432H802.086V13.4172H834.845V3.07432Z" fill="#EDD6EE"/>
<path d="M52.7431 3.07432H20.0503V13.4172H52.7431V3.07432Z" fill="#EDD6EE"/>
<path d="M871.95 3.07432H839.257V13.4172H871.95V3.07432Z" fill="#EDD6EE"/>
<path d="M463.804 329.764H428.196V340.107H463.804V329.764Z" fill="#EDD6EE"/>
<path d="M424.453 329.764H391.092V340.107H424.453V329.764Z" fill="#EDD6EE"/>
<path d="M500.908 329.764H467.547V340.107H500.908V329.764Z" fill="#EDD6EE"/>
<path d="M387.282 329.764H353.988V340.107H387.282V329.764Z" fill="#EDD6EE"/>
<path d="M538.013 329.764H504.718V340.107H538.013V329.764Z" fill="#EDD6EE"/>
<path d="M350.111 329.764H316.884V340.107H350.111V329.764Z" fill="#EDD6EE"/>
<path d="M575.116 329.764H541.889V340.107H575.116V329.764Z" fill="#EDD6EE"/>
<path d="M312.94 329.764H279.779V340.107H312.94V329.764Z" fill="#EDD6EE"/>
<path d="M612.221 329.764H579.06V340.107H612.221V329.764Z" fill="#EDD6EE"/>
<path d="M275.769 329.764H242.675V340.107H275.769V329.764Z" fill="#EDD6EE"/>
<path d="M649.325 329.764H616.231V340.107H649.325V329.764Z" fill="#EDD6EE"/>
<path d="M238.598 329.764H205.571V340.107H238.598V329.764Z" fill="#EDD6EE"/>
<path d="M686.429 329.764H653.402V340.107H686.429V329.764Z" fill="#EDD6EE"/>
<path d="M201.427 329.764H168.467V340.107H201.427V329.764Z" fill="#EDD6EE"/>
<path d="M723.533 329.764H690.573V340.107H723.533V329.764Z" fill="#EDD6EE"/>
<path d="M164.256 329.764H131.363V340.107H164.256V329.764Z" fill="#EDD6EE"/>
<path d="M760.637 329.764H727.744V340.107H760.637V329.764Z" fill="#EDD6EE"/>
<path d="M127.085 329.764H94.2586V340.107H127.085V329.764Z" fill="#EDD6EE"/>
<path d="M797.741 329.764H764.915V340.107H797.741V329.764Z" fill="#EDD6EE"/>
<path d="M89.9141 329.764H57.1545V340.107H89.9141V329.764Z" fill="#EDD6EE"/>
<path d="M834.845 329.764H802.086V340.107H834.845V329.764Z" fill="#EDD6EE"/>
<path d="M52.7431 329.764H20.0503V340.107H52.7431V329.764Z" fill="#EDD6EE"/>
<path d="M871.95 329.764H839.257V340.107H871.95V329.764Z" fill="#EDD6EE"/>
<path d="M424.453 300.065H391.092V310.408H424.453V300.065Z" fill="#EDD6EE"/>
<path d="M500.908 300.065H467.547V310.408H500.908V300.065Z" fill="#EDD6EE"/>
<path d="M387.282 300.065H353.988V310.408H387.282V300.065Z" fill="#EDD6EE"/>
<path d="M538.013 300.065H504.718V310.408H538.013V300.065Z" fill="#EDD6EE"/>
<path d="M350.111 300.065H316.884V310.408H350.111V300.065Z" fill="#EDD6EE"/>
<path d="M575.116 300.065H541.889V310.408H575.116V300.065Z" fill="#EDD6EE"/>
<path d="M312.94 300.065H279.779V310.408H312.94V300.065Z" fill="#EDD6EE"/>
<path d="M612.221 300.065H579.06V310.408H612.221V300.065Z" fill="#EDD6EE"/>
<path d="M275.769 300.065H242.675V310.408H275.769V300.065Z" fill="#EDD6EE"/>
<path d="M649.325 300.065H616.231V310.408H649.325V300.065Z" fill="#EDD6EE"/>
<path d="M238.598 300.065H205.571V310.408H238.598V300.065Z" fill="#EDD6EE"/>
<path d="M686.429 300.065H653.402V310.408H686.429V300.065Z" fill="#EDD6EE"/>
<path d="M201.427 300.065H168.467V310.408H201.427V300.065Z" fill="#EDD6EE"/>
<path d="M723.533 300.065H690.573V310.408H723.533V300.065Z" fill="#EDD6EE"/>
<path d="M164.256 300.065H131.363V310.408H164.256V300.065Z" fill="#EDD6EE"/>
<path d="M760.637 300.065H727.744V310.408H760.637V300.065Z" fill="#EDD6EE"/>
<path d="M127.085 300.065H94.2586V310.408H127.085V300.065Z" fill="#EDD6EE"/>
<path d="M797.741 300.065H764.915V310.408H797.741V300.065Z" fill="#EDD6EE"/>
<path d="M89.9141 300.065H57.1545V310.408H89.9141V300.065Z" fill="#EDD6EE"/>
<path d="M834.845 300.065H802.086V310.408H834.845V300.065Z" fill="#EDD6EE"/>
<path d="M52.7431 300.065H20.0503V310.408H52.7431V300.065Z" fill="#EDD6EE"/>
<path d="M871.95 300.065H839.257V310.408H871.95V300.065Z" fill="#EDD6EE"/>
<path d="M428.196 270.365V280.708H463.804V270.365H428.196Z" fill="#EDD6EE"/>
<path d="M424.453 270.366H391.092V280.709H424.453V270.366Z" fill="#EDD6EE"/>
<path d="M500.908 270.366H467.547V280.709H500.908V270.366Z" fill="#EDD6EE"/>
<path d="M387.282 270.366H353.988V280.709H387.282V270.366Z" fill="#EDD6EE"/>
<path d="M538.013 270.366H504.718V280.709H538.013V270.366Z" fill="#EDD6EE"/>
<path d="M350.111 270.366H316.884V280.709H350.111V270.366Z" fill="#EDD6EE"/>
<path d="M575.116 270.366H541.889V280.709H575.116V270.366Z" fill="#EDD6EE"/>
<path d="M312.94 270.366H279.779V280.709H312.94V270.366Z" fill="#EDD6EE"/>
<path d="M612.221 270.366H579.06V280.709H612.221V270.366Z" fill="#EDD6EE"/>
<path d="M275.769 270.366H242.675V280.709H275.769V270.366Z" fill="#EDD6EE"/>
<path d="M649.325 270.366H616.231V280.709H649.325V270.366Z" fill="#EDD6EE"/>
<path d="M238.598 270.366H205.571V280.709H238.598V270.366Z" fill="#EDD6EE"/>
<path d="M686.429 270.366H653.402V280.709H686.429V270.366Z" fill="#EDD6EE"/>
<path d="M201.427 270.366H168.467V280.709H201.427V270.366Z" fill="#EDD6EE"/>
<path d="M723.533 270.366H690.573V280.709H723.533V270.366Z" fill="#EDD6EE"/>
<path d="M164.256 270.366H131.363V280.709H164.256V270.366Z" fill="#EDD6EE"/>
<path d="M760.637 270.366H727.744V280.709H760.637V270.366Z" fill="#EDD6EE"/>
<path d="M127.085 270.366H94.2586V280.709H127.085V270.366Z" fill="#EDD6EE"/>
<path d="M797.741 270.366H764.915V280.709H797.741V270.366Z" fill="#EDD6EE"/>
<path d="M89.9141 270.366H57.1545V280.709H89.9141V270.366Z" fill="#EDD6EE"/>
<path d="M834.845 270.366H802.086V280.709H834.845V270.366Z" fill="#EDD6EE"/>
<path d="M52.7431 270.366H20.0503V280.709H52.7431V270.366Z" fill="#EDD6EE"/>
<path d="M871.95 270.366H839.257V280.709H871.95V270.366Z" fill="#EDD6EE"/>
<path d="M463.804 240.667H428.196V251.01H463.804V240.667Z" fill="#EDD6EE"/>
<path d="M424.453 240.667H391.092V251.01H424.453V240.667Z" fill="#EDD6EE"/>
<path d="M500.908 240.667H467.547V251.01H500.908V240.667Z" fill="#EDD6EE"/>
<path d="M387.282 240.667H353.988V251.01H387.282V240.667Z" fill="#EDD6EE"/>
<path d="M538.012 240.667H504.718V251.01H538.012V240.667Z" fill="#EDD6EE"/>
<path d="M350.111 240.667H316.884V251.01H350.111V240.667Z" fill="#EDD6EE"/>
<path d="M575.116 240.667H541.889V251.01H575.116V240.667Z" fill="#EDD6EE"/>
<path d="M312.94 240.667H279.779V251.01H312.94V240.667Z" fill="#EDD6EE"/>
<path d="M612.221 240.667H579.06V251.01H612.221V240.667Z" fill="#EDD6EE"/>
<path d="M275.769 240.667H242.675V251.01H275.769V240.667Z" fill="#EDD6EE"/>
<path d="M649.325 240.667H616.231V251.01H649.325V240.667Z" fill="#EDD6EE"/>
<path d="M238.598 240.667H205.571V251.01H238.598V240.667Z" fill="#EDD6EE"/>
<path d="M686.429 240.667H653.402V251.01H686.429V240.667Z" fill="#EDD6EE"/>
<path d="M201.427 240.667H168.467V251.01H201.427V240.667Z" fill="#EDD6EE"/>
<path d="M723.533 240.667H690.573V251.01H723.533V240.667Z" fill="#EDD6EE"/>
<path d="M164.256 240.667H131.363V251.01H164.256V240.667Z" fill="#EDD6EE"/>
<path d="M760.637 240.667H727.744V251.01H760.637V240.667Z" fill="#EDD6EE"/>
<path d="M127.085 240.667H94.2586V251.01H127.085V240.667Z" fill="#EDD6EE"/>
<path d="M797.741 240.667H764.915V251.01H797.741V240.667Z" fill="#EDD6EE"/>
<path d="M89.9141 240.667H57.1545V251.01H89.9141V240.667Z" fill="#EDD6EE"/>
<path d="M834.845 240.667H802.086V251.01H834.845V240.667Z" fill="#EDD6EE"/>
<path d="M52.7431 240.667H20.0503V251.01H52.7431V240.667Z" fill="#EDD6EE"/>
<path d="M871.95 240.667H839.257V251.01H871.95V240.667Z" fill="#EDD6EE"/>
<path d="M428.196 210.967V221.31H463.804V210.967H428.196Z" fill="#EDD6EE"/>
<path d="M424.453 210.968H391.092V221.311H424.453V210.968Z" fill="#EDD6EE"/>
<path d="M500.908 210.968H467.547V221.311H500.908V210.968Z" fill="#EDD6EE"/>
<path d="M387.282 210.968H353.988V221.311H387.282V210.968Z" fill="#EDD6EE"/>
<path d="M538.012 210.968H504.718V221.311H538.012V210.968Z" fill="#EDD6EE"/>
<path d="M350.111 210.968H316.884V221.311H350.111V210.968Z" fill="#EDD6EE"/>
<path d="M575.116 210.968H541.889V221.311H575.116V210.968Z" fill="#EDD6EE"/>
<path d="M312.94 210.968H279.779V221.311H312.94V210.968Z" fill="#EDD6EE"/>
<path d="M612.221 210.968H579.06V221.311H612.221V210.968Z" fill="#EDD6EE"/>
<path d="M275.769 210.968H242.675V221.311H275.769V210.968Z" fill="#EDD6EE"/>
<path d="M649.325 210.968H616.231V221.311H649.325V210.968Z" fill="#EDD6EE"/>
<path d="M238.598 210.968H205.571V221.311H238.598V210.968Z" fill="#EDD6EE"/>
<path d="M686.429 210.968H653.402V221.311H686.429V210.968Z" fill="#EDD6EE"/>
<path d="M201.427 210.968H168.467V221.311H201.427V210.968Z" fill="#EDD6EE"/>
<path d="M723.533 210.968H690.573V221.311H723.533V210.968Z" fill="#EDD6EE"/>
<path d="M164.256 210.968H131.363V221.311H164.256V210.968Z" fill="#EDD6EE"/>
<path d="M760.637 210.968H727.744V221.311H760.637V210.968Z" fill="#EDD6EE"/>
<path d="M127.085 210.968H94.2586V221.311H127.085V210.968Z" fill="#EDD6EE"/>
<path d="M797.741 210.968H764.915V221.311H797.741V210.968Z" fill="#EDD6EE"/>
<path d="M89.9141 210.968H57.1545V221.311H89.9141V210.968Z" fill="#EDD6EE"/>
<path d="M834.845 210.968H802.086V221.311H834.845V210.968Z" fill="#EDD6EE"/>
<path d="M52.7431 210.968H20.0503V221.311H52.7431V210.968Z" fill="#EDD6EE"/>
<path d="M871.95 210.968H839.257V221.311H871.95V210.968Z" fill="#EDD6EE"/>
<path d="M428.196 181.269V191.611H463.804V181.269H428.196Z" fill="#EDD6EE"/>
<path d="M424.453 181.269H391.092V191.611H424.453V181.269Z" fill="#EDD6EE"/>
<path d="M500.908 181.269H467.547V191.611H500.908V181.269Z" fill="#EDD6EE"/>
<path d="M387.282 181.269H353.988V191.611H387.282V181.269Z" fill="#EDD6EE"/>
<path d="M538.012 181.269H504.718V191.611H538.012V181.269Z" fill="#EDD6EE"/>
<path d="M350.111 181.269H316.884V191.611H350.111V181.269Z" fill="#EDD6EE"/>
<path d="M575.116 181.269H541.889V191.611H575.116V181.269Z" fill="#EDD6EE"/>
<path d="M312.94 181.269H279.779V191.611H312.94V181.269Z" fill="#EDD6EE"/>
<path d="M612.221 181.269H579.06V191.611H612.221V181.269Z" fill="#EDD6EE"/>
<path d="M275.769 181.269H242.675V191.611H275.769V181.269Z" fill="#EDD6EE"/>
<path d="M649.325 181.269H616.231V191.611H649.325V181.269Z" fill="#EDD6EE"/>
<path d="M238.598 181.269H205.571V191.611H238.598V181.269Z" fill="#EDD6EE"/>
<path d="M686.429 181.269H653.402V191.611H686.429V181.269Z" fill="#EDD6EE"/>
<path d="M201.427 181.269H168.467V191.611H201.427V181.269Z" fill="#EDD6EE"/>
<path d="M723.533 181.269H690.573V191.611H723.533V181.269Z" fill="#EDD6EE"/>
<path d="M164.256 181.269H131.363V191.611H164.256V181.269Z" fill="#EDD6EE"/>
<path d="M760.637 181.269H727.744V191.611H760.637V181.269Z" fill="#EDD6EE"/>
<path d="M127.085 181.269H94.2586V191.611H127.085V181.269Z" fill="#EDD6EE"/>
<path d="M797.741 181.269H764.915V191.611H797.741V181.269Z" fill="#EDD6EE"/>
<path d="M89.9141 181.269H57.1545V191.611H89.9141V181.269Z" fill="#EDD6EE"/>
<path d="M834.845 181.269H802.086V191.611H834.845V181.269Z" fill="#EDD6EE"/>
<path d="M52.7431 181.269H20.0503V191.611H52.7431V181.269Z" fill="#EDD6EE"/>
<path d="M871.95 181.269H839.257V191.611H871.95V181.269Z" fill="#EDD6EE"/>
<path d="M463.804 151.569H428.196V161.912H463.804V151.569Z" fill="#EDD6EE"/>
<path d="M424.453 151.569H391.092V161.912H424.453V151.569Z" fill="#EDD6EE"/>
<path d="M500.908 151.569H467.547V161.912H500.908V151.569Z" fill="#EDD6EE"/>
<path d="M387.282 151.569H353.988V161.912H387.282V151.569Z" fill="#EDD6EE"/>
<path d="M538.012 151.569H504.718V161.912H538.012V151.569Z" fill="#EDD6EE"/>
<path d="M350.111 151.569H316.884V161.912H350.111V151.569Z" fill="#EDD6EE"/>
<path d="M575.116 151.569H541.889V161.912H575.116V151.569Z" fill="#EDD6EE"/>
<path d="M312.94 151.569H279.779V161.912H312.94V151.569Z" fill="#EDD6EE"/>
<path d="M612.221 151.569H579.06V161.912H612.221V151.569Z" fill="#EDD6EE"/>
<path d="M275.769 151.569H242.675V161.912H275.769V151.569Z" fill="#EDD6EE"/>
<path d="M649.325 151.569H616.231V161.912H649.325V151.569Z" fill="#EDD6EE"/>
<path d="M238.598 151.569H205.571V161.912H238.598V151.569Z" fill="#EDD6EE"/>
<path d="M686.429 151.569H653.402V161.912H686.429V151.569Z" fill="#EDD6EE"/>
<path d="M201.427 151.569H168.467V161.912H201.427V151.569Z" fill="#EDD6EE"/>
<path d="M723.533 151.569H690.573V161.912H723.533V151.569Z" fill="#EDD6EE"/>
<path d="M164.256 151.569H131.363V161.912H164.256V151.569Z" fill="#EDD6EE"/>
<path d="M760.637 151.569H727.744V161.912H760.637V151.569Z" fill="#EDD6EE"/>
<path d="M127.085 151.569H94.2586V161.912H127.085V151.569Z" fill="#EDD6EE"/>
<path d="M797.741 151.569H764.915V161.912H797.741V151.569Z" fill="#EDD6EE"/>
<path d="M89.9141 151.569H57.1545V161.912H89.9141V151.569Z" fill="#EDD6EE"/>
<path d="M834.845 151.569H802.086V161.912H834.845V151.569Z" fill="#EDD6EE"/>
<path d="M52.7431 151.569H20.0503V161.912H52.7431V151.569Z" fill="#EDD6EE"/>
<path d="M871.95 151.569H839.257V161.912H871.95V151.569Z" fill="#EDD6EE"/>
<path d="M463.804 121.87H428.196V132.213H463.804V121.87Z" fill="#EDD6EE"/>
<path d="M424.453 121.87H391.092V132.213H424.453V121.87Z" fill="#EDD6EE"/>
<path d="M500.908 121.87H467.547V132.213H500.908V121.87Z" fill="#EDD6EE"/>
<path d="M387.282 121.87H353.988V132.213H387.282V121.87Z" fill="#EDD6EE"/>
<path d="M538.012 121.87H504.718V132.213H538.012V121.87Z" fill="#EDD6EE"/>
<path d="M350.111 121.87H316.884V132.213H350.111V121.87Z" fill="#EDD6EE"/>
<path d="M575.116 121.87H541.889V132.213H575.116V121.87Z" fill="#EDD6EE"/>
<path d="M312.94 121.87H279.779V132.213H312.94V121.87Z" fill="#EDD6EE"/>
<path d="M612.221 121.87H579.06V132.213H612.221V121.87Z" fill="#EDD6EE"/>
<path d="M275.769 121.87H242.675V132.213H275.769V121.87Z" fill="#EDD6EE"/>
<path d="M649.325 121.87H616.231V132.213H649.325V121.87Z" fill="#EDD6EE"/>
<path d="M238.598 121.87H205.571V132.213H238.598V121.87Z" fill="#EDD6EE"/>
<path d="M686.429 121.87H653.402V132.213H686.429V121.87Z" fill="#EDD6EE"/>
<path d="M201.427 121.87H168.467V132.213H201.427V121.87Z" fill="#EDD6EE"/>
<path d="M723.533 121.87H690.573V132.213H723.533V121.87Z" fill="#EDD6EE"/>
<path d="M164.256 121.87H131.363V132.213H164.256V121.87Z" fill="#EDD6EE"/>
<path d="M760.637 121.87H727.744V132.213H760.637V121.87Z" fill="#EDD6EE"/>
<path d="M127.085 121.87H94.2586V132.213H127.085V121.87Z" fill="#EDD6EE"/>
<path d="M797.741 121.87H764.915V132.213H797.741V121.87Z" fill="#EDD6EE"/>
<path d="M89.9141 121.87H57.1545V132.213H89.9141V121.87Z" fill="#EDD6EE"/>
<path d="M834.845 121.87H802.086V132.213H834.845V121.87Z" fill="#EDD6EE"/>
<path d="M52.7431 121.87H20.0503V132.213H52.7431V121.87Z" fill="#EDD6EE"/>
<path d="M871.95 121.87H839.257V132.213H871.95V121.87Z" fill="#EDD6EE"/>
<path d="M463.804 92.1715H428.196V102.514H463.804V92.1715Z" fill="#EDD6EE"/>
<path d="M424.453 92.1715H391.092V102.514H424.453V92.1715Z" fill="#EDD6EE"/>
<path d="M500.908 92.1715H467.547V102.514H500.908V92.1715Z" fill="#EDD6EE"/>
<path d="M387.282 92.1715H353.988V102.514H387.282V92.1715Z" fill="#EDD6EE"/>
<path d="M538.012 92.1715H504.718V102.514H538.012V92.1715Z" fill="#EDD6EE"/>
<path d="M350.111 92.1715H316.884V102.514H350.111V92.1715Z" fill="#EDD6EE"/>
<path d="M575.116 92.1715H541.889V102.514H575.116V92.1715Z" fill="#EDD6EE"/>
<path d="M312.94 92.1715H279.779V102.514H312.94V92.1715Z" fill="#EDD6EE"/>
<path d="M612.221 92.1715H579.06V102.514H612.221V92.1715Z" fill="#EDD6EE"/>
<path d="M275.769 92.1715H242.675V102.514H275.769V92.1715Z" fill="#EDD6EE"/>
<path d="M649.325 92.1715H616.231V102.514H649.325V92.1715Z" fill="#EDD6EE"/>
<path d="M238.598 92.1715H205.571V102.514H238.598V92.1715Z" fill="#EDD6EE"/>
<path d="M686.429 92.1715H653.402V102.514H686.429V92.1715Z" fill="#EDD6EE"/>
<path d="M201.427 92.1715H168.467V102.514H201.427V92.1715Z" fill="#EDD6EE"/>
<path d="M723.533 92.1715H690.573V102.514H723.533V92.1715Z" fill="#EDD6EE"/>
<path d="M164.256 92.1715H131.363V102.514H164.256V92.1715Z" fill="#EDD6EE"/>
<path d="M760.637 92.1715H727.744V102.514H760.637V92.1715Z" fill="#EDD6EE"/>
<path d="M127.085 92.1715H94.2586V102.514H127.085V92.1715Z" fill="#EDD6EE"/>
<path d="M797.741 92.1715H764.915V102.514H797.741V92.1715Z" fill="#EDD6EE"/>
<path d="M89.9141 92.1715H57.1545V102.514H89.9141V92.1715Z" fill="#EDD6EE"/>
<path d="M834.845 92.1715H802.086V102.514H834.845V92.1715Z" fill="#EDD6EE"/>
<path d="M52.7431 92.1715H20.0503V102.514H52.7431V92.1715Z" fill="#EDD6EE"/>
<path d="M871.95 92.1715H839.257V102.514H871.95V92.1715Z" fill="#EDD6EE"/>
<path d="M428.196 62.4723V72.8152H463.804V62.4723H428.196Z" fill="#EDD6EE"/>
<path d="M424.453 62.4723H391.092V72.8152H424.453V62.4723Z" fill="#EDD6EE"/>
<path d="M500.908 62.4723H467.547V72.8152H500.908V62.4723Z" fill="#EDD6EE"/>
<path d="M387.282 62.4723H353.988V72.8152H387.282V62.4723Z" fill="#EDD6EE"/>
<path d="M538.012 62.4723H504.718V72.8152H538.012V62.4723Z" fill="#EDD6EE"/>
<path d="M350.111 62.4723H316.884V72.8152H350.111V62.4723Z" fill="#EDD6EE"/>
<path d="M575.116 62.4723H541.889V72.8152H575.116V62.4723Z" fill="#EDD6EE"/>
<path d="M312.94 62.4723H279.779V72.8152H312.94V62.4723Z" fill="#EDD6EE"/>
<path d="M612.221 62.4723H579.06V72.8152H612.221V62.4723Z" fill="#EDD6EE"/>
<path d="M275.769 62.4723H242.675V72.8152H275.769V62.4723Z" fill="#EDD6EE"/>
<path d="M649.325 62.4723H616.231V72.8152H649.325V62.4723Z" fill="#EDD6EE"/>
<path d="M238.598 62.4723H205.571V72.8152H238.598V62.4723Z" fill="#EDD6EE"/>
<path d="M686.429 62.4723H653.402V72.8152H686.429V62.4723Z" fill="#EDD6EE"/>
<path d="M201.427 62.4723H168.467V72.8152H201.427V62.4723Z" fill="#EDD6EE"/>
<path d="M723.533 62.4723H690.573V72.8152H723.533V62.4723Z" fill="#EDD6EE"/>
<path d="M164.256 62.4723H131.363V72.8152H164.256V62.4723Z" fill="#EDD6EE"/>
<path d="M760.637 62.4723H727.744V72.8152H760.637V62.4723Z" fill="#EDD6EE"/>
<path d="M127.085 62.4723H94.2586V72.8152H127.085V62.4723Z" fill="#EDD6EE"/>
<path d="M797.741 62.4723H764.915V72.8152H797.741V62.4723Z" fill="#EDD6EE"/>
<path d="M89.9141 62.4723H57.1545V72.8152H89.9141V62.4723Z" fill="#EDD6EE"/>
<path d="M834.845 62.4723H802.086V72.8152H834.845V62.4723Z" fill="#EDD6EE"/>
<path d="M52.7431 62.4723H20.0503V72.8152H52.7431V62.4723Z" fill="#EDD6EE"/>
<path d="M871.95 62.4723H839.257V72.8152H871.95V62.4723Z" fill="#EDD6EE"/>
<path d="M463.804 32.7732H428.196V43.1161H463.804V32.7732Z" fill="#EDD6EE"/>
<path d="M424.453 32.7732H391.092V43.1161H424.453V32.7732Z" fill="#EDD6EE"/>
<path d="M500.908 32.7732H467.547V43.1161H500.908V32.7732Z" fill="#EDD6EE"/>
<path d="M387.282 32.7732H353.988V43.1161H387.282V32.7732Z" fill="#EDD6EE"/>
<path d="M538.012 32.7732H504.718V43.1161H538.012V32.7732Z" fill="#EDD6EE"/>
<path d="M350.111 32.7732H316.884V43.1161H350.111V32.7732Z" fill="#EDD6EE"/>
<path d="M575.116 32.7732H541.889V43.1161H575.116V32.7732Z" fill="#EDD6EE"/>
<path d="M312.94 32.7732H279.779V43.1161H312.94V32.7732Z" fill="#EDD6EE"/>
<path d="M612.221 32.7732H579.06V43.1161H612.221V32.7732Z" fill="#EDD6EE"/>
<path d="M275.769 32.7732H242.675V43.1161H275.769V32.7732Z" fill="#EDD6EE"/>
<path d="M649.325 32.7732H616.231V43.1161H649.325V32.7732Z" fill="#EDD6EE"/>
<path d="M238.598 32.7732H205.571V43.1161H238.598V32.7732Z" fill="#EDD6EE"/>
<path d="M686.429 32.7732H653.402V43.1161H686.429V32.7732Z" fill="#EDD6EE"/>
<path d="M201.427 32.7732H168.467V43.1161H201.427V32.7732Z" fill="#EDD6EE"/>
<path d="M723.533 32.7732H690.573V43.1161H723.533V32.7732Z" fill="#EDD6EE"/>
<path d="M164.256 32.7732H131.363V43.1161H164.256V32.7732Z" fill="#EDD6EE"/>
<path d="M760.637 32.7732H727.744V43.1161H760.637V32.7732Z" fill="#EDD6EE"/>
<path d="M127.085 32.7732H94.2586V43.1161H127.085V32.7732Z" fill="#EDD6EE"/>
<path d="M797.741 32.7732H764.915V43.1161H797.741V32.7732Z" fill="#EDD6EE"/>
<path d="M89.9141 32.7732H57.1545V43.1161H89.9141V32.7732Z" fill="#EDD6EE"/>
<path d="M834.845 32.7732H802.086V43.1161H834.845V32.7732Z" fill="#EDD6EE"/>
<path d="M52.7431 32.7732H20.0503V43.1161H52.7431V32.7732Z" fill="#EDD6EE"/>
<path d="M871.95 32.7732H839.257V43.1161H871.95V32.7732Z" fill="#EDD6EE"/>
<path d="M428.196 3.07432V13.4172H463.804V3.07432H428.196Z" fill="#EDD6EE"/>
<path d="M424.453 3.07432H391.092V13.4172H424.453V3.07432Z" fill="#EDD6EE"/>
<path d="M500.908 3.07432H467.547V13.4172H500.908V3.07432Z" fill="#EDD6EE"/>
<path d="M387.282 3.07432H353.988V13.4172H387.282V3.07432Z" fill="#EDD6EE"/>
<path d="M538.013 3.07432H504.718V13.4172H538.013V3.07432Z" fill="#EDD6EE"/>
<path d="M350.111 3.07432H316.884V13.4172H350.111V3.07432Z" fill="#EDD6EE"/>
<path d="M575.116 3.07432H541.889V13.4172H575.116V3.07432Z" fill="#EDD6EE"/>
<path d="M312.94 3.07432H279.779V13.4172H312.94V3.07432Z" fill="#EDD6EE"/>
<path d="M612.221 3.07432H579.06V13.4172H612.221V3.07432Z" fill="#EDD6EE"/>
<path d="M275.769 3.07432H242.675V13.4172H275.769V3.07432Z" fill="#EDD6EE"/>
<path d="M649.325 3.07432H616.231V13.4172H649.325V3.07432Z" fill="#EDD6EE"/>
<path d="M238.598 3.07432H205.571V13.4172H238.598V3.07432Z" fill="#EDD6EE"/>
<path d="M686.429 3.07432H653.402V13.4172H686.429V3.07432Z" fill="#EDD6EE"/>
<path d="M201.427 3.07432H168.467V13.4172H201.427V3.07432Z" fill="#EDD6EE"/>
<path d="M723.533 3.07432H690.573V13.4172H723.533V3.07432Z" fill="#EDD6EE"/>
<path d="M164.256 3.07432H131.363V13.4172H164.256V3.07432Z" fill="#EDD6EE"/>
<path d="M760.637 3.07432H727.744V13.4172H760.637V3.07432Z" fill="#EDD6EE"/>
<path d="M127.085 3.07432H94.2586V13.4172H127.085V3.07432Z" fill="#EDD6EE"/>
<path d="M797.742 3.07432H764.915V13.4172H797.742V3.07432Z" fill="#EDD6EE"/>
<path d="M89.9141 3.07432H57.1545V13.4172H89.9141V3.07432Z" fill="#EDD6EE"/>
<path d="M834.846 3.07432H802.086V13.4172H834.846V3.07432Z" fill="#EDD6EE"/>
<path d="M52.7431 3.07432H20.0503V13.4172H52.7431V3.07432Z" fill="#EDD6EE"/>
<path d="M871.95 3.07432H839.257V13.4172H871.95V3.07432Z" fill="#EDD6EE"/>
<path d="M14.9557 329.764H0V340.107H14.9557V329.764Z" fill="#EDD6EE"/>
<path d="M892 329.764H877.045V340.107H892V329.764Z" fill="#EDD6EE"/>
<path d="M14.9557 300.065H0V310.408H14.9557V300.065Z" fill="#EDD6EE"/>
<path d="M892 300.065H877.045V310.408H892V300.065Z" fill="#EDD6EE"/>
<path d="M14.9557 270.365H0V280.708H14.9557V270.365Z" fill="#EDD6EE"/>
<path d="M892 270.365H877.045V280.708H892V270.365Z" fill="#EDD6EE"/>
<path d="M14.9557 240.667H0V251.01H14.9557V240.667Z" fill="#EDD6EE"/>
<path d="M892 240.667H877.045V251.01H892V240.667Z" fill="#EDD6EE"/>
<path d="M14.9557 210.967H0V221.31H14.9557V210.967Z" fill="#EDD6EE"/>
<path d="M892 210.967H877.045V221.31H892V210.967Z" fill="#EDD6EE"/>
<path d="M14.9557 181.269H0V191.611H14.9557V181.269Z" fill="#EDD6EE"/>
<path d="M892 181.269H877.045V191.611H892V181.269Z" fill="#EDD6EE"/>
<path d="M14.9557 151.569H0V161.912H14.9557V151.569Z" fill="#EDD6EE"/>
<path d="M892 151.569H877.045V161.912H892V151.569Z" fill="#EDD6EE"/>
<path d="M14.9557 121.87H0V132.213H14.9557V121.87Z" fill="#EDD6EE"/>
<path d="M892 121.87H877.045V132.213H892V121.87Z" fill="#EDD6EE"/>
<path d="M14.9557 92.1715H0V102.514H14.9557V92.1715Z" fill="#EDD6EE"/>
<path d="M892 92.1715H877.045V102.514H892V92.1715Z" fill="#EDD6EE"/>
<path d="M14.9557 62.4723H0V72.8152H14.9557V62.4723Z" fill="#EDD6EE"/>
<path d="M892 62.4723H877.045V72.8152H892V62.4723Z" fill="#EDD6EE"/>
<path d="M14.9557 32.7735H0V43.1164H14.9557V32.7735Z" fill="#EDD6EE"/>
<path d="M892 32.7735H877.045V43.1164H892V32.7735Z" fill="#EDD6EE"/>
<path d="M14.9557 3.07432H0V13.4172H14.9557V3.07432Z" fill="#EDD6EE"/>
<path d="M892 3.07432H877.045V13.4172H892V3.07432Z" fill="#EDD6EE"/>
<path d="M443.957 344.613H410.529V352H443.957V344.613Z" fill="#EDD6EE"/>
<path d="M481.471 344.613H448.043V352H481.471V344.613Z" fill="#EDD6EE"/>
<path d="M406.786 344.613H373.425V352H406.786V344.613Z" fill="#EDD6EE"/>
<path d="M518.575 344.613H485.214V352H518.575V344.613Z" fill="#EDD6EE"/>
<path d="M369.615 344.613H336.321V352H369.615V344.613Z" fill="#EDD6EE"/>
<path d="M555.68 344.613H522.385V352H555.68V344.613Z" fill="#EDD6EE"/>
<path d="M332.444 344.613H299.217V352H332.444V344.613Z" fill="#EDD6EE"/>
<path d="M592.783 344.613H559.556V352H592.783V344.613Z" fill="#EDD6EE"/>
<path d="M295.273 344.613H262.112V352H295.273V344.613Z" fill="#EDD6EE"/>
<path d="M629.888 344.613H596.727V352H629.888V344.613Z" fill="#EDD6EE"/>
<path d="M258.102 344.613H225.008V352H258.102V344.613Z" fill="#EDD6EE"/>
<path d="M666.992 344.613H633.898V352H666.992V344.613Z" fill="#EDD6EE"/>
<path d="M220.931 344.613H187.904V352H220.931V344.613Z" fill="#EDD6EE"/>
<path d="M704.096 344.613H671.069V352H704.096V344.613Z" fill="#EDD6EE"/>
<path d="M183.76 344.613H150.8V352H183.76V344.613Z" fill="#EDD6EE"/>
<path d="M741.201 344.613H708.24V352H741.201V344.613Z" fill="#EDD6EE"/>
<path d="M146.589 344.613H113.696V352H146.589V344.613Z" fill="#EDD6EE"/>
<path d="M778.305 344.613H745.411V352H778.305V344.613Z" fill="#EDD6EE"/>
<path d="M109.418 344.613H76.5916V352H109.418V344.613Z" fill="#EDD6EE"/>
<path d="M815.408 344.613H782.582V352H815.408V344.613Z" fill="#EDD6EE"/>
<path d="M72.247 344.613H39.4874V352H72.247V344.613Z" fill="#EDD6EE"/>
<path d="M852.513 344.613H819.753V352H852.513V344.613Z" fill="#EDD6EE"/>
<path d="M35.0758 344.613H2.3833V352H35.0758V344.613Z" fill="#EDD6EE"/>
<path d="M889.617 344.613H856.925V352H889.617V344.613Z" fill="#EDD6EE"/>
<path d="M443.96 314.914H410.532V325.257H443.96V314.914Z" fill="#EDD6EE"/>
<path d="M481.468 314.914H448.04V325.257H481.468V314.914Z" fill="#EDD6EE"/>
<path d="M406.789 314.914H373.428V325.257H406.789V314.914Z" fill="#EDD6EE"/>
<path d="M518.573 314.914H485.211V325.257H518.573V314.914Z" fill="#EDD6EE"/>
<path d="M369.618 314.914H336.323V325.257H369.618V314.914Z" fill="#EDD6EE"/>
<path d="M555.677 314.914H522.382V325.257H555.677V314.914Z" fill="#EDD6EE"/>
<path d="M332.447 314.914H299.22V325.257H332.447V314.914Z" fill="#EDD6EE"/>
<path d="M592.781 314.914H559.553V325.257H592.781V314.914Z" fill="#EDD6EE"/>
<path d="M295.276 314.914H262.115V325.257H295.276V314.914Z" fill="#EDD6EE"/>
<path d="M629.885 314.914H596.724V325.257H629.885V314.914Z" fill="#EDD6EE"/>
<path d="M258.105 314.914H225.011V325.257H258.105V314.914Z" fill="#EDD6EE"/>
<path d="M666.989 314.914H633.895V325.257H666.989V314.914Z" fill="#EDD6EE"/>
<path d="M220.934 314.914H187.907V325.257H220.934V314.914Z" fill="#EDD6EE"/>
<path d="M704.093 314.914H671.066V325.257H704.093V314.914Z" fill="#EDD6EE"/>
<path d="M183.763 314.914H150.803V325.257H183.763V314.914Z" fill="#EDD6EE"/>
<path d="M741.197 314.914H708.237V325.257H741.197V314.914Z" fill="#EDD6EE"/>
<path d="M146.592 314.914H113.699V325.257H146.592V314.914Z" fill="#EDD6EE"/>
<path d="M778.301 314.914H745.408V325.257H778.301V314.914Z" fill="#EDD6EE"/>
<path d="M109.421 314.914H76.5949V325.257H109.421V314.914Z" fill="#EDD6EE"/>
<path d="M815.405 314.914H782.579V325.257H815.405V314.914Z" fill="#EDD6EE"/>
<path d="M72.25 314.914H39.4904V325.257H72.25V314.914Z" fill="#EDD6EE"/>
<path d="M852.51 314.914H819.75V325.257H852.51V314.914Z" fill="#EDD6EE"/>
<path d="M35.0791 314.914H2.38623V325.257H35.0791V314.914Z" fill="#EDD6EE"/>
<path d="M889.614 314.914H856.921V325.257H889.614V314.914Z" fill="#EDD6EE"/>
<path d="M443.963 285.215H410.535V295.558H443.963V285.215Z" fill="#EDD6EE"/>
<path d="M481.465 285.215H448.037V295.558H481.465V285.215Z" fill="#EDD6EE"/>
<path d="M406.792 285.215H373.431V295.558H406.792V285.215Z" fill="#EDD6EE"/>
<path d="M518.57 285.215H485.208V295.558H518.57V285.215Z" fill="#EDD6EE"/>
<path d="M369.621 285.215H336.327V295.558H369.621V285.215Z" fill="#EDD6EE"/>
<path d="M555.674 285.215H522.379V295.558H555.674V285.215Z" fill="#EDD6EE"/>
<path d="M332.45 285.215H299.222V295.558H332.45V285.215Z" fill="#EDD6EE"/>
<path d="M592.777 285.215H559.55V295.558H592.777V285.215Z" fill="#EDD6EE"/>
<path d="M295.279 285.215H262.118V295.558H295.279V285.215Z" fill="#EDD6EE"/>
<path d="M629.882 285.215H596.721V295.558H629.882V285.215Z" fill="#EDD6EE"/>
<path d="M258.108 285.215H225.014V295.558H258.108V285.215Z" fill="#EDD6EE"/>
<path d="M666.986 285.215H633.892V295.558H666.986V285.215Z" fill="#EDD6EE"/>
<path d="M220.937 285.215H187.91V295.558H220.937V285.215Z" fill="#EDD6EE"/>
<path d="M704.09 285.215H671.063V295.558H704.09V285.215Z" fill="#EDD6EE"/>
<path d="M183.766 285.215H150.806V295.558H183.766V285.215Z" fill="#EDD6EE"/>
<path d="M741.195 285.215H708.234V295.558H741.195V285.215Z" fill="#EDD6EE"/>
<path d="M146.595 285.215H113.702V295.558H146.595V285.215Z" fill="#EDD6EE"/>
<path d="M778.298 285.215H745.405V295.558H778.298V285.215Z" fill="#EDD6EE"/>
<path d="M109.424 285.215H76.5975V295.558H109.424V285.215Z" fill="#EDD6EE"/>
<path d="M815.403 285.215H782.577V295.558H815.403V285.215Z" fill="#EDD6EE"/>
<path d="M72.2529 285.215H39.4937V295.558H72.2529V285.215Z" fill="#EDD6EE"/>
<path d="M852.507 285.215H819.747V295.558H852.507V285.215Z" fill="#EDD6EE"/>
<path d="M35.082 285.215H2.38916V295.558H35.082V285.215Z" fill="#EDD6EE"/>
<path d="M889.611 285.215H856.918V295.558H889.611V285.215Z" fill="#EDD6EE"/>
<path d="M443.966 255.516H410.538V265.859H443.966V255.516Z" fill="#EDD6EE"/>
<path d="M481.462 255.516H448.034V265.859H481.462V255.516Z" fill="#EDD6EE"/>
<path d="M406.795 255.516H373.434V265.859H406.795V255.516Z" fill="#EDD6EE"/>
<path d="M518.566 255.516H485.205V265.859H518.566V255.516Z" fill="#EDD6EE"/>
<path d="M369.624 255.516H336.33V265.859H369.624V255.516Z" fill="#EDD6EE"/>
<path d="M555.671 255.516H522.376V265.859H555.671V255.516Z" fill="#EDD6EE"/>
<path d="M332.453 255.516H299.226V265.859H332.453V255.516Z" fill="#EDD6EE"/>
<path d="M592.775 255.516H559.547V265.859H592.775V255.516Z" fill="#EDD6EE"/>
<path d="M295.282 255.516H262.122V265.859H295.282V255.516Z" fill="#EDD6EE"/>
<path d="M629.879 255.516H596.718V265.859H629.879V255.516Z" fill="#EDD6EE"/>
<path d="M258.111 255.516H225.017V265.859H258.111V255.516Z" fill="#EDD6EE"/>
<path d="M666.983 255.516H633.889V265.859H666.983V255.516Z" fill="#EDD6EE"/>
<path d="M220.94 255.516H187.913V265.859H220.94V255.516Z" fill="#EDD6EE"/>
<path d="M704.087 255.516H671.06V265.859H704.087V255.516Z" fill="#EDD6EE"/>
<path d="M183.769 255.516H150.809V265.859H183.769V255.516Z" fill="#EDD6EE"/>
<path d="M741.191 255.516H708.231V265.859H741.191V255.516Z" fill="#EDD6EE"/>
<path d="M146.598 255.516H113.705V265.859H146.598V255.516Z" fill="#EDD6EE"/>
<path d="M778.296 255.516H745.402V265.859H778.296V255.516Z" fill="#EDD6EE"/>
<path d="M109.427 255.516H76.6004V265.859H109.427V255.516Z" fill="#EDD6EE"/>
<path d="M815.4 255.516H782.573V265.859H815.4V255.516Z" fill="#EDD6EE"/>
<path d="M72.2558 255.516H39.4966V265.859H72.2558V255.516Z" fill="#EDD6EE"/>
<path d="M852.504 255.516H819.745V265.859H852.504V255.516Z" fill="#EDD6EE"/>
<path d="M35.0849 255.516H2.39246V265.859H35.0849V255.516Z" fill="#EDD6EE"/>
<path d="M889.608 255.516H856.916V265.859H889.608V255.516Z" fill="#EDD6EE"/>
<path d="M443.969 225.817H410.541V236.16H443.969V225.817Z" fill="#EDD6EE"/>
<path d="M481.459 225.817H448.031V236.16H481.459V225.817Z" fill="#EDD6EE"/>
<path d="M406.798 225.817H373.437V236.16H406.798V225.817Z" fill="#EDD6EE"/>
<path d="M518.563 225.817H485.202V236.16H518.563V225.817Z" fill="#EDD6EE"/>
<path d="M369.627 225.817H336.333V236.16H369.627V225.817Z" fill="#EDD6EE"/>
<path d="M555.668 225.817H522.373V236.16H555.668V225.817Z" fill="#EDD6EE"/>
<path d="M332.456 225.817H299.228V236.16H332.456V225.817Z" fill="#EDD6EE"/>
<path d="M592.772 225.817H559.544V236.16H592.772V225.817Z" fill="#EDD6EE"/>
<path d="M295.285 225.817H262.124V236.16H295.285V225.817Z" fill="#EDD6EE"/>
<path d="M629.876 225.817H596.715V236.16H629.876V225.817Z" fill="#EDD6EE"/>
<path d="M258.114 225.817H225.02V236.16H258.114V225.817Z" fill="#EDD6EE"/>
<path d="M666.98 225.817H633.886V236.16H666.98V225.817Z" fill="#EDD6EE"/>
<path d="M220.943 225.817H187.916V236.16H220.943V225.817Z" fill="#EDD6EE"/>
<path d="M704.084 225.817H671.057V236.16H704.084V225.817Z" fill="#EDD6EE"/>
<path d="M183.772 225.817H150.812V236.16H183.772V225.817Z" fill="#EDD6EE"/>
<path d="M741.188 225.817H708.228V236.16H741.188V225.817Z" fill="#EDD6EE"/>
<path d="M146.601 225.817H113.708V236.16H146.601V225.817Z" fill="#EDD6EE"/>
<path d="M778.292 225.817H745.399V236.16H778.292V225.817Z" fill="#EDD6EE"/>
<path d="M109.43 225.817H76.6037V236.16H109.43V225.817Z" fill="#EDD6EE"/>
<path d="M815.397 225.817H782.57V236.16H815.397V225.817Z" fill="#EDD6EE"/>
<path d="M72.2588 225.817H39.4991V236.16H72.2588V225.817Z" fill="#EDD6EE"/>
<path d="M852.501 225.817H819.741V236.16H852.501V225.817Z" fill="#EDD6EE"/>
<path d="M35.0878 225.817H2.39539V236.16H35.0878V225.817Z" fill="#EDD6EE"/>
<path d="M889.605 225.817H856.912V236.16H889.605V225.817Z" fill="#EDD6EE"/>
<path d="M443.972 196.118H410.544V206.461H443.972V196.118Z" fill="#EDD6EE"/>
<path d="M481.456 196.118H448.028V206.461H481.456V196.118Z" fill="#EDD6EE"/>
<path d="M406.801 196.118H373.44V206.461H406.801V196.118Z" fill="#EDD6EE"/>
<path d="M518.56 196.118H485.199V206.461H518.56V196.118Z" fill="#EDD6EE"/>
<path d="M369.63 196.118H336.336V206.461H369.63V196.118Z" fill="#EDD6EE"/>
<path d="M555.665 196.118H522.37V206.461H555.665V196.118Z" fill="#EDD6EE"/>
<path d="M332.459 196.118H299.231V206.461H332.459V196.118Z" fill="#EDD6EE"/>
<path d="M592.769 196.118H559.541V206.461H592.769V196.118Z" fill="#EDD6EE"/>
<path d="M295.288 196.118H262.127V206.461H295.288V196.118Z" fill="#EDD6EE"/>
<path d="M629.873 196.118H596.712V206.461H629.873V196.118Z" fill="#EDD6EE"/>
<path d="M258.117 196.118H225.023V206.461H258.117V196.118Z" fill="#EDD6EE"/>
<path d="M666.977 196.118H633.883V206.461H666.977V196.118Z" fill="#EDD6EE"/>
<path d="M220.946 196.118H187.919V206.461H220.946V196.118Z" fill="#EDD6EE"/>
<path d="M704.081 196.118H671.054V206.461H704.081V196.118Z" fill="#EDD6EE"/>
<path d="M183.775 196.118H150.815V206.461H183.775V196.118Z" fill="#EDD6EE"/>
<path d="M741.185 196.118H708.225V206.461H741.185V196.118Z" fill="#EDD6EE"/>
<path d="M146.604 196.118H113.711V206.461H146.604V196.118Z" fill="#EDD6EE"/>
<path d="M778.289 196.118H745.396V206.461H778.289V196.118Z" fill="#EDD6EE"/>
<path d="M109.433 196.118H76.6066V206.461H109.433V196.118Z" fill="#EDD6EE"/>
<path d="M815.394 196.118H782.567V206.461H815.394V196.118Z" fill="#EDD6EE"/>
<path d="M72.2617 196.118H39.5021V206.461H72.2617V196.118Z" fill="#EDD6EE"/>
<path d="M852.498 196.118H819.738V206.461H852.498V196.118Z" fill="#EDD6EE"/>
<path d="M35.0908 196.118H2.39832V206.461H35.0908V196.118Z" fill="#EDD6EE"/>
<path d="M889.602 196.118H856.909V206.461H889.602V196.118Z" fill="#EDD6EE"/>
<path d="M443.975 166.419H410.547V176.762H443.975V166.419Z" fill="#EDD6EE"/>
<path d="M481.453 166.419H448.025V176.762H481.453V166.419Z" fill="#EDD6EE"/>
<path d="M406.804 166.419H373.443V176.762H406.804V166.419Z" fill="#EDD6EE"/>
<path d="M518.557 166.419H485.196V176.762H518.557V166.419Z" fill="#EDD6EE"/>
<path d="M369.633 166.419H336.339V176.762H369.633V166.419Z" fill="#EDD6EE"/>
<path d="M555.661 166.419H522.367V176.762H555.661V166.419Z" fill="#EDD6EE"/>
<path d="M332.462 166.419H299.235V176.762H332.462V166.419Z" fill="#EDD6EE"/>
<path d="M592.766 166.419H559.538V176.762H592.766V166.419Z" fill="#EDD6EE"/>
<path d="M295.291 166.419H262.13V176.762H295.291V166.419Z" fill="#EDD6EE"/>
<path d="M629.87 166.419H596.709V176.762H629.87V166.419Z" fill="#EDD6EE"/>
<path d="M258.12 166.419H225.027V176.762H258.12V166.419Z" fill="#EDD6EE"/>
<path d="M666.974 166.419H633.88V176.762H666.974V166.419Z" fill="#EDD6EE"/>
<path d="M220.949 166.419H187.922V176.762H220.949V166.419Z" fill="#EDD6EE"/>
<path d="M704.078 166.419H671.051V176.762H704.078V166.419Z" fill="#EDD6EE"/>
<path d="M183.778 166.419H150.818V176.762H183.778V166.419Z" fill="#EDD6EE"/>
<path d="M741.182 166.419H708.222V176.762H741.182V166.419Z" fill="#EDD6EE"/>
<path d="M146.607 166.419H113.713V176.762H146.607V166.419Z" fill="#EDD6EE"/>
<path d="M778.287 166.419H745.393V176.762H778.287V166.419Z" fill="#EDD6EE"/>
<path d="M109.436 166.419H76.6096V176.762H109.436V166.419Z" fill="#EDD6EE"/>
<path d="M815.39 166.419H782.564V176.762H815.39V166.419Z" fill="#EDD6EE"/>
<path d="M72.265 166.419H39.5054V176.762H72.265V166.419Z" fill="#EDD6EE"/>
<path d="M852.495 166.419H819.735V176.762H852.495V166.419Z" fill="#EDD6EE"/>
<path d="M35.0937 166.419H2.40125V176.762H35.0937V166.419Z" fill="#EDD6EE"/>
<path d="M889.599 166.419H856.906V176.762H889.599V166.419Z" fill="#EDD6EE"/>
<path d="M443.978 136.72H410.55V147.063H443.978V136.72Z" fill="#EDD6EE"/>
<path d="M481.45 136.72H448.022V147.063H481.45V136.72Z" fill="#EDD6EE"/>
<path d="M406.807 136.72H373.446V147.063H406.807V136.72Z" fill="#EDD6EE"/>
<path d="M518.554 136.72H485.193V147.063H518.554V136.72Z" fill="#EDD6EE"/>
<path d="M369.636 136.72H336.342V147.063H369.636V136.72Z" fill="#EDD6EE"/>
<path d="M555.658 136.72H522.364V147.063H555.658V136.72Z" fill="#EDD6EE"/>
<path d="M332.465 136.72H299.237V147.063H332.465V136.72Z" fill="#EDD6EE"/>
<path d="M592.762 136.72H559.535V147.063H592.762V136.72Z" fill="#EDD6EE"/>
<path d="M295.294 136.72H262.133V147.063H295.294V136.72Z" fill="#EDD6EE"/>
<path d="M629.867 136.72H596.706V147.063H629.867V136.72Z" fill="#EDD6EE"/>
<path d="M258.123 136.72H225.03V147.063H258.123V136.72Z" fill="#EDD6EE"/>
<path d="M666.971 136.72H633.877V147.063H666.971V136.72Z" fill="#EDD6EE"/>
<path d="M220.952 136.72H187.925V147.063H220.952V136.72Z" fill="#EDD6EE"/>
<path d="M704.075 136.72H671.048V147.063H704.075V136.72Z" fill="#EDD6EE"/>
<path d="M183.781 136.72H150.821V147.063H183.781V136.72Z" fill="#EDD6EE"/>
<path d="M741.179 136.72H708.219V147.063H741.179V136.72Z" fill="#EDD6EE"/>
<path d="M146.61 136.72H113.717V147.063H146.61V136.72Z" fill="#EDD6EE"/>
<path d="M778.283 136.72H745.39V147.063H778.283V136.72Z" fill="#EDD6EE"/>
<path d="M109.439 136.72H76.6129V147.063H109.439V136.72Z" fill="#EDD6EE"/>
<path d="M815.388 136.72H782.561V147.063H815.388V136.72Z" fill="#EDD6EE"/>
<path d="M72.268 136.72H39.5087V147.063H72.268V136.72Z" fill="#EDD6EE"/>
<path d="M852.492 136.72H819.732V147.063H852.492V136.72Z" fill="#EDD6EE"/>
<path d="M35.097 136.72H2.40454V147.063H35.097V136.72Z" fill="#EDD6EE"/>
<path d="M889.596 136.72H856.903V147.063H889.596V136.72Z" fill="#EDD6EE"/>
<path d="M443.981 107.021H410.553V117.364H443.981V107.021Z" fill="#EDD6EE"/>
<path d="M481.447 107.021H448.019V117.364H481.447V107.021Z" fill="#EDD6EE"/>
<path d="M406.81 107.021H373.449V117.364H406.81V107.021Z" fill="#EDD6EE"/>
<path d="M518.551 107.021H485.19V117.364H518.551V107.021Z" fill="#EDD6EE"/>
<path d="M369.64 107.021H336.345V117.364H369.64V107.021Z" fill="#EDD6EE"/>
<path d="M555.655 107.021H522.361V117.364H555.655V107.021Z" fill="#EDD6EE"/>
<path d="M332.468 107.021H299.24V117.364H332.468V107.021Z" fill="#EDD6EE"/>
<path d="M592.76 107.021H559.532V117.364H592.76V107.021Z" fill="#EDD6EE"/>
<path d="M295.297 107.021H262.137V117.364H295.297V107.021Z" fill="#EDD6EE"/>
<path d="M629.863 107.021H596.703V117.364H629.863V107.021Z" fill="#EDD6EE"/>
<path d="M258.126 107.021H225.032V117.364H258.126V107.021Z" fill="#EDD6EE"/>
<path d="M666.968 107.021H633.874V117.364H666.968V107.021Z" fill="#EDD6EE"/>
<path d="M220.955 107.021H187.928V117.364H220.955V107.021Z" fill="#EDD6EE"/>
<path d="M704.072 107.021H671.045V117.364H704.072V107.021Z" fill="#EDD6EE"/>
<path d="M183.784 107.021H150.824V117.364H183.784V107.021Z" fill="#EDD6EE"/>
<path d="M741.176 107.021H708.216V117.364H741.176V107.021Z" fill="#EDD6EE"/>
<path d="M146.613 107.021H113.72V117.364H146.613V107.021Z" fill="#EDD6EE"/>
<path d="M778.28 107.021H745.387V117.364H778.28V107.021Z" fill="#EDD6EE"/>
<path d="M109.442 107.021H76.6158V117.364H109.442V107.021Z" fill="#EDD6EE"/>
<path d="M815.385 107.021H782.558V117.364H815.385V107.021Z" fill="#EDD6EE"/>
<path d="M72.2709 107.021H39.5117V117.364H72.2709V107.021Z" fill="#EDD6EE"/>
<path d="M852.489 107.021H819.729V117.364H852.489V107.021Z" fill="#EDD6EE"/>
<path d="M35.0999 107.021H2.4071V117.364H35.0999V107.021Z" fill="#EDD6EE"/>
<path d="M889.592 107.021H856.9V117.364H889.592V107.021Z" fill="#EDD6EE"/>
<path d="M443.984 77.3217H410.556V87.6646H443.984V77.3217Z" fill="#EDD6EE"/>
<path d="M481.444 77.3217H448.016V87.6646H481.444V77.3217Z" fill="#EDD6EE"/>
<path d="M406.813 77.3217H373.452V87.6646H406.813V77.3217Z" fill="#EDD6EE"/>
<path d="M518.548 77.3217H485.187V87.6646H518.548V77.3217Z" fill="#EDD6EE"/>
<path d="M369.643 77.3217H336.348V87.6646H369.643V77.3217Z" fill="#EDD6EE"/>
<path d="M555.653 77.3217H522.358V87.6646H555.653V77.3217Z" fill="#EDD6EE"/>
<path d="M332.471 77.3217H299.243V87.6646H332.471V77.3217Z" fill="#EDD6EE"/>
<path d="M592.757 77.3217H559.529V87.6646H592.757V77.3217Z" fill="#EDD6EE"/>
<path d="M295.3 77.3217H262.14V87.6646H295.3V77.3217Z" fill="#EDD6EE"/>
<path d="M629.861 77.3217H596.7V87.6646H629.861V77.3217Z" fill="#EDD6EE"/>
<path d="M258.129 77.3217H225.035V87.6646H258.129V77.3217Z" fill="#EDD6EE"/>
<path d="M666.965 77.3217H633.871V87.6646H666.965V77.3217Z" fill="#EDD6EE"/>
<path d="M220.958 77.3217H187.931V87.6646H220.958V77.3217Z" fill="#EDD6EE"/>
<path d="M704.069 77.3217H671.042V87.6646H704.069V77.3217Z" fill="#EDD6EE"/>
<path d="M183.787 77.3217H150.827V87.6646H183.787V77.3217Z" fill="#EDD6EE"/>
<path d="M741.173 77.3217H708.213V87.6646H741.173V77.3217Z" fill="#EDD6EE"/>
<path d="M146.616 77.3217H113.723V87.6646H146.616V77.3217Z" fill="#EDD6EE"/>
<path d="M778.277 77.3217H745.384V87.6646H778.277V77.3217Z" fill="#EDD6EE"/>
<path d="M109.445 77.3217H76.6188V87.6646H109.445V77.3217Z" fill="#EDD6EE"/>
<path d="M815.382 77.3217H782.555V87.6646H815.382V77.3217Z" fill="#EDD6EE"/>
<path d="M72.2742 77.3217H39.5146V87.6646H72.2742V77.3217Z" fill="#EDD6EE"/>
<path d="M852.485 77.3217H819.726V87.6646H852.485V77.3217Z" fill="#EDD6EE"/>
<path d="M35.1029 77.3217H2.4104V87.6646H35.1029V77.3217Z" fill="#EDD6EE"/>
<path d="M889.59 77.3217H856.897V87.6646H889.59V77.3217Z" fill="#EDD6EE"/>
<path d="M443.987 47.6229H410.559V57.9658H443.987V47.6229Z" fill="#EDD6EE"/>
<path d="M481.441 47.6229H448.013V57.9658H481.441V47.6229Z" fill="#EDD6EE"/>
<path d="M406.816 47.6229H373.455V57.9658H406.816V47.6229Z" fill="#EDD6EE"/>
<path d="M518.545 47.6229H485.184V57.9658H518.545V47.6229Z" fill="#EDD6EE"/>
<path d="M369.645 47.6229H336.351V57.9658H369.645V47.6229Z" fill="#EDD6EE"/>
<path d="M555.649 47.6229H522.355V57.9658H555.649V47.6229Z" fill="#EDD6EE"/>
<path d="M332.474 47.6229H299.247V57.9658H332.474V47.6229Z" fill="#EDD6EE"/>
<path d="M592.753 47.6229H559.526V57.9658H592.753V47.6229Z" fill="#EDD6EE"/>
<path d="M295.303 47.6229H262.143V57.9658H295.303V47.6229Z" fill="#EDD6EE"/>
<path d="M629.857 47.6229H596.697V57.9658H629.857V47.6229Z" fill="#EDD6EE"/>
<path d="M258.132 47.6229H225.038V57.9658H258.132V47.6229Z" fill="#EDD6EE"/>
<path d="M666.962 47.6229H633.868V57.9658H666.962V47.6229Z" fill="#EDD6EE"/>
<path d="M220.961 47.6229H187.934V57.9658H220.961V47.6229Z" fill="#EDD6EE"/>
<path d="M704.066 47.6229H671.039V57.9658H704.066V47.6229Z" fill="#EDD6EE"/>
<path d="M183.79 47.6229H150.83V57.9658H183.79V47.6229Z" fill="#EDD6EE"/>
<path d="M741.17 47.6229H708.21V57.9658H741.17V47.6229Z" fill="#EDD6EE"/>
<path d="M146.619 47.6229H113.726V57.9658H146.619V47.6229Z" fill="#EDD6EE"/>
<path d="M778.274 47.6229H745.381V57.9658H778.274V47.6229Z" fill="#EDD6EE"/>
<path d="M109.448 47.6229H76.6217V57.9658H109.448V47.6229Z" fill="#EDD6EE"/>
<path d="M815.378 47.6229H782.552V57.9658H815.378V47.6229Z" fill="#EDD6EE"/>
<path d="M72.2771 47.6226H39.5175V57.9655H72.2771V47.6226Z" fill="#EDD6EE"/>
<path d="M852.483 47.6226H819.723V57.9655H852.483V47.6226Z" fill="#EDD6EE"/>
<path d="M35.1058 47.6226H2.41333V57.9655H35.1058V47.6226Z" fill="#EDD6EE"/>
<path d="M889.587 47.6226H856.894V57.9655H889.587V47.6226Z" fill="#EDD6EE"/>
<path d="M443.99 17.9238H410.562V28.2666H443.99V17.9238Z" fill="#EDD6EE"/>
<path d="M481.438 17.9238H448.01V28.2666H481.438V17.9238Z" fill="#EDD6EE"/>
<path d="M406.819 17.9238H373.458V28.2666H406.819V17.9238Z" fill="#EDD6EE"/>
<path d="M518.542 17.9238H485.181V28.2666H518.542V17.9238Z" fill="#EDD6EE"/>
<path d="M369.648 17.9238H336.354V28.2666H369.648V17.9238Z" fill="#EDD6EE"/>
<path d="M555.646 17.9238H522.352V28.2666H555.646V17.9238Z" fill="#EDD6EE"/>
<path d="M332.477 17.9238H299.25V28.2666H332.477V17.9238Z" fill="#EDD6EE"/>
<path d="M592.75 17.9238H559.523V28.2666H592.75V17.9238Z" fill="#EDD6EE"/>
<path d="M295.306 17.9238H262.145V28.2666H295.306V17.9238Z" fill="#EDD6EE"/>
<path d="M629.855 17.9238H596.694V28.2666H629.855V17.9238Z" fill="#EDD6EE"/>
<path d="M258.135 17.9238H225.041V28.2666H258.135V17.9238Z" fill="#EDD6EE"/>
<path d="M666.959 17.9238H633.865V28.2666H666.959V17.9238Z" fill="#EDD6EE"/>
<path d="M220.964 17.9238H187.937V28.2666H220.964V17.9238Z" fill="#EDD6EE"/>
<path d="M704.063 17.9238H671.036V28.2666H704.063V17.9238Z" fill="#EDD6EE"/>
<path d="M183.793 17.9238H150.833V28.2666H183.793V17.9238Z" fill="#EDD6EE"/>
<path d="M741.167 17.9238H708.207V28.2666H741.167V17.9238Z" fill="#EDD6EE"/>
<path d="M146.622 17.9238H113.729V28.2666H146.622V17.9238Z" fill="#EDD6EE"/>
<path d="M778.271 17.9238H745.378V28.2666H778.271V17.9238Z" fill="#EDD6EE"/>
<path d="M109.451 17.9238H76.6246V28.2666H109.451V17.9238Z" fill="#EDD6EE"/>
<path d="M815.376 17.9238H782.549V28.2666H815.376V17.9238Z" fill="#EDD6EE"/>
<path d="M72.2804 17.9238H39.5208V28.2666H72.2804V17.9238Z" fill="#EDD6EE"/>
<path d="M852.48 17.9238H819.72V28.2666H852.48V17.9238Z" fill="#EDD6EE"/>
<path d="M35.1091 17.9238H2.41669V28.2666H35.1091V17.9238Z" fill="#EDD6EE"/>
<path d="M889.584 17.9238H856.891V28.2666H889.584V17.9238Z" fill="#EDD6EE"/>
</g>
</g>
</g>
<rect y="358" width="892" height="54" fill="#EDD6EE"/>
<path d="M892 352H0V360.312H892V352Z" fill="#E7C8E8"/>
<path d="M892 357.84H0V360.313H892V357.84Z" fill="#EDD6EE"/>
<g style="mix-blend-mode:multiply" opacity="0.3">
<path d="M892 352H0V354.941H892V352Z" fill="#E7C8E8"/>
</g>
<g style="mix-blend-mode:multiply">
<path d="M887.505 362.075C886.011 362.174 884.546 362.26 883.077 362.335C871.225 361.847 858.502 361.686 846.267 361.745C843.637 361.756 840.994 361.783 838.314 361.815C834.331 361.679 830.303 361.576 826.253 361.564C818.142 361.537 810.281 361.618 802.419 361.905C792.631 362.269 783.196 362.768 773.849 363.295C750.273 363.704 730.134 363.245 707.016 362.452C689.741 361.865 672.058 361.923 654.882 362.538C647.882 362.789 641.02 363.1 634.203 363.423C633.437 363.383 632.692 363.333 631.926 363.288C617.685 362.452 602.973 361.576 587.092 361.634C572.46 361.693 558.414 362.24 544.41 362.768C540.144 362.929 535.828 363.087 531.471 363.234C522.507 363.53 513.384 363.753 504.17 363.749C489.688 363.74 475.413 363.286 461.721 362.687C432.081 361.393 402.858 359.479 370.867 360.132C344.977 360.665 321.9 362.31 297.583 363.496C279.829 363.916 262.096 364.341 244.188 364.614H243.78C230.093 364.386 216.267 363.957 202.5 364.189C196.158 364.298 190.053 364.51 184.093 364.781C183.968 364.781 183.835 364.781 183.71 364.774C163.776 364.562 144.003 364.144 124.481 363.591C114.555 363.304 104.688 362.99 94.862 362.655C85.4024 362.335 76.0011 361.971 66.3709 361.745C49.2705 361.343 31.7622 361.295 14.6492 361.722C9.85493 361.377 4.95243 361.058 0 360.767V412H892V361.734C890.518 361.847 889.045 361.971 887.51 362.073L887.505 362.075Z" fill="#4DBBFC"/>
</g>
<path d="M887.511 364.08C875.16 364.911 863.517 364.797 850.525 364.301C842.655 363.994 834.513 363.597 826.247 363.572C818.145 363.543 810.291 363.624 802.421 363.915C773.141 364.995 747.198 367.357 716.558 367.831C701.738 368.06 686.555 367.915 672.123 367.395C658.159 366.899 645.128 366.084 631.94 365.306C617.689 364.457 602.985 363.584 587.085 363.645C572.465 363.699 558.421 364.255 544.418 364.777C531.346 365.265 517.847 365.775 504.167 365.764C489.687 365.755 475.416 365.301 461.716 364.7C432.068 363.393 402.857 361.476 370.856 362.134C343.085 362.705 318.571 364.571 292.252 365.775C278.492 366.397 264.473 366.883 249.817 366.719C234.153 366.547 218.289 365.941 202.497 366.209C173.761 366.69 150.067 369.29 121.712 369.957C108.544 370.27 95.8249 370.164 83.3657 369.487C71.0425 368.823 60.3757 367.693 49.5529 366.676C34.1969 365.238 17.5606 363.792 0 362.764V373.442C15.6441 374.107 29.3916 375.5 44.7917 376.267C62.3962 377.141 81.2971 377.279 99.0938 376.433C123.396 375.28 144.778 373.034 170.128 372.276C180.723 371.958 192.25 371.872 202.253 372.532C215.576 373.411 228.327 374.636 243.771 373.774C256.979 373.041 267.73 371.682 280.009 370.722C287.607 370.125 296.677 369.56 305.664 369.889C317.991 370.336 324.84 371.786 333.735 372.893C342.897 374.037 353.66 374.978 366.055 375.312C388.485 375.916 410.935 374.772 432.176 373.923C443.823 373.467 456.927 372.773 469.23 372.923C482.257 373.077 493.88 373.901 506.42 374.325C521.712 374.842 537.492 374.906 552.736 374.316C567.247 373.76 580.619 372.816 593.826 371.852C615.584 370.261 637.686 368.873 662.592 369.975C688.683 371.135 711.077 373.669 738.236 374.418C754.428 374.87 769.464 374.488 783.272 373.274C792.334 372.48 801.032 371.899 811.835 372.446C817.929 372.75 823.134 373.34 828.571 373.808C834.569 374.325 840.931 374.693 847.949 374.881C862.78 375.282 878.965 375.06 892 373.978V363.733C890.532 363.854 889.067 363.974 887.523 364.078L887.511 364.08Z" fill="url(#paint0_linear_2410_106996)"/>
<g style="mix-blend-mode:screen">
<path d="M846.948 407.568C815.496 407.944 783.788 407.259 753.164 406.441C719.872 405.559 686.68 404.459 652.579 404.115C635.726 403.946 619.026 403.968 602.33 404.317C586.558 404.652 571.15 405.173 555.874 405.743C524.982 406.894 494.534 408.097 462.11 408.43C427.749 408.782 393.016 408.555 359.156 407.784C342.752 407.407 326.571 406.932 310.735 406.292C295.387 405.672 280.28 404.971 264.872 404.376C231.835 403.098 198.511 402.599 164.126 403.358C132.234 404.059 102.486 405.529 71.6023 406.641C51.6932 407.356 31.32 407.948 10.6307 408.222C7.15383 408.275 3.58492 408.307 0 408.335V409.264C14.6998 409.272 29.4915 408.951 43.6912 408.521C66.661 407.812 88.8187 406.795 111.609 406.013C138.475 405.091 167.363 404.636 195.294 404.679C225.074 404.725 254.281 405.513 283.056 406.377C341.615 408.137 400.526 410.375 461.678 409.947C491.27 409.737 520.325 408.996 548.6 407.948C562.724 407.419 576.691 406.835 590.543 406.213C603.942 405.612 617.786 405.145 632.086 405.008C660.257 404.735 687.028 405.668 713.174 406.825C742.53 408.125 773.386 409.155 804.87 409.23C827.415 409.282 851.078 408.98 872.651 408.164C879.137 407.919 885.734 407.608 892 407.229V406.385C877.292 406.942 862.352 407.392 846.952 407.572L846.948 407.568Z" fill="#A7DDFD"/>
</g>
<defs>
<linearGradient id="paint0_linear_2410_106996" x1="445.992" y1="346.507" x2="445.992" y2="388.717" gradientUnits="userSpaceOnUse">
<stop stop-color="white"/>
<stop offset="1" stop-color="#83CFFD"/>
</linearGradient>
<clipPath id="clip0_2410_106996">
<rect width="892" height="352" fill="white"/>
</clipPath>
</defs>
</svg>
