<svg width="58" height="58" viewBox="0 0 58 58" fill="none" xmlns="http://www.w3.org/2000/svg">
<path d="M55 50C55 24.0428 33.9576 3 8 3V36.8789C8 36.8789 14.4629 36.9202 17.3719 39.7309C21.1211 43.3539 21.1211 50 21.1211 50H55Z" fill="#E4C788"/>
<rect width="6" height="40" fill="#E4C788"/>
<rect x="18" y="58" width="6" height="40" transform="rotate(-90 18 58)" fill="#E4C788"/>
<rect x="6" y="3" width="2" height="34" fill="#DCAF71"/>
<rect x="21" y="52" width="2" height="34" transform="rotate(-90 21 52)" fill="#DCAF71"/>
<path opacity="0.41" d="M35.3922 15.7012C35.7331 16.0743 36.0227 16.4948 36.0623 17.0175C36.0775 17.2168 35.999 17.4976 35.7166 17.6319C35.5626 17.7051 35.4041 17.7027 35.274 17.6796C34.8207 17.5989 34.5604 17.3151 34.3139 17.044C33.3926 16.0314 32.3715 15.0434 30.8166 14.573C30.5876 14.5036 30.3398 14.4412 30.2155 14.2848C29.9362 13.9332 30.5302 13.4705 31.0904 13.459C31.6252 13.448 32.1661 13.7278 32.5747 13.8788C33.72 14.3023 34.6786 14.9204 35.3921 15.7015L35.3922 15.7012Z" fill="white"/>
</svg>
