<svg width="102" height="50" viewBox="0 0 102 50" fill="none" xmlns="http://www.w3.org/2000/svg">
<rect x="8" y="8" width="86" height="34" fill="#E4C788"/>
<rect x="94" y="8" width="2" height="34" fill="#DCAF71"/>
<rect x="6" y="8" width="2" height="34" fill="#DCAF71"/>
<rect y="5" width="6" height="40" fill="#E4C788"/>
<rect x="96" y="5" width="6" height="40" fill="#E4C788"/>
<rect x="96" y="5" width="6" height="40" fill="#E4C788"/>
<ellipse cx="36" cy="14" rx="22" ry="1" fill="#F1E6CA"/>
<path d="M48.7104 5H54.2808L53.1667 16.8834H49.4532L48.7104 5Z" fill="#376BB7"/>
<path d="M43.7119 27.2798L46.0953 30.1276L37.57 38.4205L34.2276 33.9643L43.7119 27.2798Z" fill="#376BB7"/>
<path d="M56.624 30.1912L58.5928 27.0425L68.5546 32.4067L66.1748 36.8614L56.624 30.1912Z" fill="#376BB7"/>
<path fill-rule="evenodd" clip-rule="evenodd" d="M51 48C64.2548 48 75 37.2548 75 24C75 10.7452 64.2548 0 51 0C37.7452 0 27 10.7452 27 24C27 37.2548 37.7452 48 51 48ZM51 43C61.4934 43 70 34.4934 70 24C70 13.5066 61.4934 5 51 5C40.5066 5 32 13.5066 32 24C32 34.4934 40.5066 43 51 43Z" fill="#4F87D8"/>
<path fill-rule="evenodd" clip-rule="evenodd" d="M50.9557 47.7074C64.2106 47.7074 74.9557 36.9623 74.9557 23.7074C74.9557 20.2525 74.2257 16.9681 72.9115 14C74.8504 17.4632 75.9557 21.4562 75.9557 25.7074C75.9557 38.9623 65.2106 49.7074 51.9557 49.7074C42.1558 49.7074 33.7278 43.8338 30 35.4149C34.1065 42.7495 41.9521 47.7074 50.9557 47.7074Z" fill="#376BB7"/>
<path fill-rule="evenodd" clip-rule="evenodd" d="M67.4747 14.5286C64.5725 7.74956 57.8409 3 50 3C39.5066 3 31 11.5066 31 22C31 25.4489 31.9189 28.6832 33.5253 31.4714C32.5435 29.1781 32 26.6525 32 24C32 13.5066 40.5066 5 51 5C58.0445 5 64.1936 8.83373 67.4747 14.5286Z" fill="#376BB7"/>
<circle cx="50.5" cy="23.5" r="8.5" fill="#4F87D8"/>
<path fill-rule="evenodd" clip-rule="evenodd" d="M48.9271 30.4271C53.6215 30.4271 57.4271 26.6215 57.4271 21.9271C57.4271 20.0905 56.8446 18.3899 55.8542 17C58.0168 18.541 59.4271 21.0693 59.4271 23.9271C59.4271 28.6215 55.6215 32.4271 50.9271 32.4271C48.0693 32.4271 45.541 31.0168 44 28.8542C45.3899 29.8446 47.0905 30.4271 48.9271 30.4271Z" fill="#376BB7"/>
<path opacity="0.41" d="M43.1214 22.6449C42.9842 23.3124 42.9224 24.0034 43.1598 24.6556C43.2503 24.9042 43.4756 25.1902 43.8236 25.1687C44.0133 25.157 44.1676 25.0518 44.2829 24.94C44.6849 24.5505 44.7901 24.0422 44.8886 23.558C45.2569 21.7491 45.7363 19.9052 47.0126 18.3369C47.2005 18.1058 47.4106 17.8711 47.4498 17.6033C47.5379 17.0014 46.7109 16.8305 46.1554 17.1785C45.625 17.5108 45.2424 18.1955 44.9215 18.6405C44.0221 19.888 43.4086 21.248 43.1216 22.6453L43.1214 22.6449Z" fill="white"/>
<path opacity="0.41" d="M29.1214 16.6449C28.9842 17.3124 28.9224 18.0034 29.1598 18.6556C29.2503 18.9042 29.4756 19.1902 29.8236 19.1687C30.0133 19.157 30.1676 19.0518 30.2829 18.94C30.6849 18.5505 30.7901 18.0422 30.8886 17.558C31.2569 15.7491 31.7363 13.9052 33.0126 12.3369C33.2005 12.1058 33.4106 11.8711 33.4498 11.6033C33.5379 11.0014 32.7109 10.8305 32.1554 11.1785C31.625 11.5108 31.2424 12.1955 30.9215 12.6405C30.0221 13.888 29.4086 15.248 29.1216 16.6453L29.1214 16.6449Z" fill="white"/>
<path opacity="0.41" d="M69.4887 37.0358C69.1362 37.3981 68.7334 37.7118 68.214 37.782C68.0159 37.8089 67.731 37.747 67.5803 37.4729C67.4982 37.3235 67.4913 37.1651 67.5067 37.0339C67.5607 36.5766 67.8287 36.3001 68.0849 36.0381C69.0417 35.0591 69.9681 33.9817 70.3465 32.4019C70.4023 32.1692 70.45 31.9182 70.5989 31.785C70.9335 31.4854 71.4302 32.0513 71.4746 32.6098C71.517 33.1431 71.2694 33.6995 71.1426 34.1162C70.787 35.2844 70.2263 36.2776 69.4883 37.0358L69.4887 37.0358Z" fill="white"/>
</svg>
