<svg width="102" height="102" viewBox="0 0 102 102" fill="none" xmlns="http://www.w3.org/2000/svg">
<rect x="8" y="34" width="86" height="34" fill="#E4C788"/>
<rect x="94" y="34" width="2" height="34" fill="#DCAF71"/>
<rect x="6" y="34" width="2" height="34" fill="#DCAF71"/>
<rect y="31" width="6" height="40" fill="#E4C788"/>
<rect x="96" y="31" width="6" height="40" fill="#E4C788"/>
<ellipse cx="36" cy="40" rx="22" ry="1" fill="#F1E6CA"/>
<path d="M48.7104 36H54.2808L53.1667 47.8834H49.4532L48.7104 36Z" fill="#376BB7"/>
<path d="M43.7119 58.2798L46.0953 61.1276L37.57 69.4205L34.2276 64.9643L43.7119 58.2798Z" fill="#376BB7"/>
<path d="M56.624 61.1912L58.5928 58.0425L68.5546 63.4067L66.1748 67.8614L56.624 61.1912Z" fill="#376BB7"/>
<path fill-rule="evenodd" clip-rule="evenodd" d="M51 79C64.2548 79 75 68.2548 75 55C75 41.7452 64.2548 31 51 31C37.7452 31 27 41.7452 27 55C27 68.2548 37.7452 79 51 79ZM51 74C61.4934 74 70 65.4934 70 55C70 44.5066 61.4934 36 51 36C40.5066 36 32 44.5066 32 55C32 65.4934 40.5066 74 51 74Z" fill="#4F87D8"/>
<path fill-rule="evenodd" clip-rule="evenodd" d="M50.9556 78.7069C64.2104 78.7069 74.9556 67.9618 74.9556 54.7069C74.9556 51.252 74.2256 47.9676 72.9113 44.9995C74.8503 48.4627 75.9556 52.4557 75.9556 56.7069C75.9556 69.9618 65.2104 80.7069 51.9556 80.7069C42.1557 80.7069 33.7277 74.8333 29.9999 66.4144C34.1064 73.749 41.952 78.7069 50.9556 78.7069Z" fill="#376BB7"/>
<path fill-rule="evenodd" clip-rule="evenodd" d="M67.4747 45.5286C64.5725 38.7496 57.8409 34 50 34C39.5066 34 31 42.5066 31 53C31 56.4489 31.9189 59.6832 33.5253 62.4714C32.5435 60.1781 32 57.6525 32 55C32 44.5066 40.5066 36 51 36C58.0445 36 64.1936 39.8337 67.4747 45.5286Z" fill="#376BB7"/>
<circle cx="50.5" cy="54.5" r="8.5" fill="#4F87D8"/>
<path fill-rule="evenodd" clip-rule="evenodd" d="M48.9271 61.4271C53.6215 61.4271 57.4271 57.6215 57.4271 52.9271C57.4271 51.0905 56.8446 49.3899 55.8542 48C58.0168 49.541 59.4271 52.0693 59.4271 54.9271C59.4271 59.6215 55.6215 63.4271 50.9271 63.4271C48.0693 63.4271 45.541 62.0168 44 59.8542C45.3899 60.8446 47.0905 61.4271 48.9271 61.4271Z" fill="#376BB7"/>
<path opacity="0.41" d="M43.1214 53.6449C42.9842 54.3124 42.9224 55.0034 43.1598 55.6556C43.2503 55.9042 43.4756 56.1902 43.8236 56.1687C44.0133 56.157 44.1676 56.0518 44.2829 55.94C44.6849 55.5505 44.7901 55.0422 44.8886 54.558C45.2569 52.7491 45.7363 50.9052 47.0126 49.3369C47.2005 49.1058 47.4106 48.8711 47.4498 48.6033C47.5379 48.0014 46.7109 47.8305 46.1554 48.1785C45.625 48.5108 45.2424 49.1955 44.9215 49.6405C44.0221 50.888 43.4086 52.248 43.1216 53.6453L43.1214 53.6449Z" fill="white"/>
<path opacity="0.41" d="M29.1214 47.6449C28.9842 48.3124 28.9224 49.0034 29.1598 49.6556C29.2503 49.9042 29.4756 50.1902 29.8236 50.1687C30.0133 50.157 30.1676 50.0518 30.2829 49.94C30.6849 49.5505 30.7901 49.0422 30.8886 48.558C31.2569 46.7491 31.7363 44.9052 33.0126 43.3369C33.2005 43.1058 33.4106 42.8711 33.4498 42.6033C33.5379 42.0014 32.7109 41.8305 32.1554 42.1785C31.625 42.5108 31.2424 43.1955 30.9215 43.6405C30.0221 44.888 29.4086 46.248 29.1216 47.6453L29.1214 47.6449Z" fill="white"/>
<path opacity="0.41" d="M69.4885 68.0368C69.136 68.399 68.7333 68.7128 68.2138 68.783C68.0158 68.8098 67.7308 68.748 67.5802 68.4739C67.4981 68.3245 67.4912 68.1661 67.5066 68.0349C67.5606 67.5776 67.8286 67.3011 68.0848 67.0391C69.0416 66.06 69.968 64.9827 70.3464 63.4028C70.4022 63.1702 70.4499 62.9192 70.5988 62.7859C70.9334 62.4864 71.4301 63.0523 71.4745 63.6108C71.5169 64.1441 71.2693 64.7005 71.1425 65.1172C70.7869 66.2854 70.2262 67.2786 69.4882 68.0367L69.4885 68.0368Z" fill="white"/>
</svg>
