<svg width="892" height="412" viewBox="0 0 892 412" fill="none" xmlns="http://www.w3.org/2000/svg">
    <g clip-path="url(#clip0_2132_83921)">
        <rect width="892" height="412" fill="#D9F1F2" />
        <path
            d="M891.999 3.06424V326H0V3.06424C0 3.06424 397.214 33.1051 538.308 33.1051C679.401 33.1051 808.43 -11.9525 891.999 3.06424Z"
            fill="#8CDF96" />
        <path d="M892 362.023L0 326V412H892V362.023Z" fill="#8CDF96" />
        <path
            d="M892 95.3568V145.097C816.545 149.565 461.616 170.418 382.853 170.418C308.267 170.418 71.5523 183.828 0 188V70C75.2524 71.9888 339.142 79.6917 513.822 93.7428C677.736 106.965 835.034 99.0749 892 95.3568Z"
            fill="#A2E7AA" />
        <path
            d="M892 228.695V362L0 325.807V251.938C78.2387 245.103 591.74 200.793 657.569 207.736C716.665 213.966 848.609 225.087 892 228.688V228.695Z"
            fill="#A2E7AA" />
        <path
            d="M168.956 395.604C168.874 395.934 168.672 396.218 168.457 396.482C166.64 398.659 163.72 399.453 160.989 400.137C158.754 400.692 156.502 401.512 154.243 401.855C151.669 402.247 149.431 401.719 146.926 401.719C144.198 401.018 141.74 399.623 138.971 399.054C137.989 398.849 129.915 398.075 130.001 395.77C130.008 395.475 130.151 395.156 130.456 394.812C130.788 394.437 131.24 394.201 131.681 393.972C134.95 392.285 137.791 391.518 141.378 391.074C148.195 390.237 155.126 389.405 161.893 390.588C164.309 391.012 166.736 391.685 168.345 393.705C168.547 393.959 168.732 394.25 168.855 394.552C168.988 394.892 169.046 395.249 168.957 395.603L168.956 395.604Z"
            fill="url(#paint0_linear_2132_83921)" />
        <path
            d="M169.033 395.77C168.95 396.08 168.748 396.348 168.533 396.596C166.716 398.641 163.796 399.388 161.065 400.03C158.83 400.552 156.578 401.322 154.319 401.645C151.745 402.014 149.507 401.517 147.001 401.517C144.273 400.859 141.816 399.547 139.047 399.012C138.064 398.82 129.991 398.093 130.076 395.926C130.096 395.963 130.124 395.998 130.151 396.031C130.723 396.693 131.466 397.159 132.335 397.391C132.952 397.556 133.579 397.555 134.18 397.723C134.863 397.913 135.452 398.091 136.18 397.997C136.733 397.926 137.263 397.736 137.815 397.655C139.811 397.364 141.767 398.523 143.783 398.413C143.422 398.47 143.274 398.935 143.427 399.251C143.581 399.568 143.921 399.758 144.25 399.911C146.493 400.96 148.744 400.832 151.165 400.914C153.347 400.987 156.386 401.256 158.263 399.988C158.456 399.857 158.659 399.669 158.627 399.446C158.615 399.366 158.576 399.28 158.622 399.213C158.644 399.181 158.68 399.162 158.716 399.145C159.38 398.834 160.177 398.911 160.871 398.666C162.18 398.205 163.577 398.091 164.928 397.63C165.522 397.924 166.328 397.741 166.719 397.224C166.838 397.065 166.92 396.885 167.023 396.717C167.271 396.31 167.654 396.122 167.975 395.792C168.251 395.508 168.419 395.167 168.742 394.909C168.8 394.863 168.865 394.817 168.93 394.781C169.064 395.101 169.122 395.438 169.033 395.77Z"
            fill="#9F7B45" />
        <path
            d="M158.652 396.354C158.671 396.429 158.68 396.504 158.699 396.578C156.185 395.447 153.767 393.354 152.076 391.214C151.655 391.943 150.833 392.326 150.25 392.944C147.621 395.654 144.458 397.29 140.702 398C142.499 396.009 142.843 394.14 142.986 391.495C140.692 392.832 138.657 393.542 136 393.869C139.737 390.776 142.442 386.513 143.637 381.869C143.694 381.85 143.751 381.85 143.809 381.831C147.469 381.027 150.977 380.813 154.561 381.252C155.718 381.392 156.874 381.598 158.05 381.878C158.069 382.028 158.098 382.177 158.136 382.317C159.188 387.42 163.565 392.252 168 395.074C165.085 394.271 161.329 394.186 158.414 393.383C158.27 394.42 158.461 395.346 158.653 396.355L158.652 396.354Z"
            fill="#602A00" />
        <path
            d="M158.535 396.457C157.422 395.593 156.794 394.26 156.3 392.946C155.071 389.717 153.455 384.854 154.365 381.399C154.374 381.362 154.384 381.324 154.394 381.286C155.565 381.427 156.736 381.634 157.926 381.915C157.945 382.066 157.974 382.215 158.013 382.356C159.078 387.482 163.51 392.336 168 395.171C165.049 394.364 161.246 394.279 158.294 393.472C158.149 394.513 158.342 395.444 158.535 396.457Z"
            fill="#482001" />
        <path
            d="M157.833 381.929C157.833 382.087 157.71 382.289 157.359 382.51C157.018 382.726 156.512 382.927 155.868 383.099C154.584 383.442 152.799 383.657 150.82 383.657C148.84 383.657 147.055 383.442 145.771 383.099C145.127 382.927 144.621 382.726 144.28 382.51C143.93 382.289 143.806 382.087 143.806 381.929C143.806 381.77 143.93 381.569 144.28 381.347C144.621 381.132 145.127 380.93 145.771 380.758C147.055 380.415 148.84 380.2 150.82 380.2C152.799 380.2 154.584 380.415 155.868 380.758C156.512 380.93 157.018 381.132 157.359 381.347C157.71 381.569 157.833 381.77 157.833 381.929Z"
            fill="#AD501A" stroke="#602A00" stroke-width="0.4" />
        <path
            d="M155.996 381.929C155.996 381.941 155.992 381.972 155.942 382.024C155.892 382.077 155.808 382.137 155.683 382.201C155.433 382.328 155.059 382.448 154.58 382.551C153.624 382.757 152.294 382.886 150.819 382.886C149.344 382.886 148.015 382.757 147.059 382.551C146.58 382.448 146.205 382.328 145.956 382.201C145.83 382.137 145.747 382.077 145.697 382.024C145.647 381.972 145.642 381.941 145.642 381.929C145.642 381.916 145.647 381.885 145.697 381.833C145.747 381.781 145.83 381.72 145.956 381.657C146.205 381.529 146.58 381.409 147.059 381.306C148.015 381.1 149.344 380.972 150.819 380.972C152.294 380.972 153.624 381.1 154.58 381.306C155.059 381.409 155.433 381.529 155.683 381.657C155.808 381.72 155.892 381.781 155.942 381.833C155.992 381.885 155.996 381.916 155.996 381.929Z"
            stroke="#602A00" stroke-width="0.4" />
        <path
            d="M153.261 381.854C153.316 381.884 153.349 381.91 153.365 381.929C153.349 381.947 153.316 381.973 153.261 382.004C153.144 382.068 152.963 382.132 152.722 382.188C152.242 382.3 151.569 382.371 150.82 382.371C150.07 382.371 149.397 382.3 148.918 382.188C148.676 382.132 148.495 382.068 148.378 382.004C148.323 381.973 148.29 381.947 148.274 381.929C148.29 381.91 148.323 381.884 148.378 381.854C148.495 381.789 148.676 381.725 148.918 381.669C149.397 381.557 150.07 381.486 150.82 381.486C151.569 381.486 152.242 381.557 152.722 381.669C152.963 381.725 153.144 381.789 153.261 381.854Z"
            stroke="#602A00" stroke-width="0.4" />
        <path
            d="M266.956 101.604C266.874 101.934 266.672 102.218 266.457 102.482C264.64 104.659 261.72 105.453 258.989 106.137C256.754 106.692 254.502 107.512 252.243 107.855C249.669 108.247 247.431 107.719 244.926 107.719C242.198 107.018 239.74 105.623 236.971 105.054C235.989 104.849 227.915 104.075 228.001 101.77C228.008 101.475 228.151 101.156 228.456 100.812C228.788 100.437 229.24 100.201 229.681 99.9724C232.95 98.2854 235.791 97.5182 239.378 97.0741C246.195 96.2375 253.126 95.4046 259.893 96.5882C262.309 97.0116 264.736 97.6853 266.345 99.705C266.547 99.9585 266.732 100.25 266.855 100.552C266.988 100.892 267.046 101.249 266.957 101.603L266.956 101.604Z"
            fill="url(#paint1_linear_2132_83921)" />
        <path
            d="M267.033 101.77C266.95 102.08 266.748 102.348 266.533 102.596C264.716 104.641 261.796 105.388 259.065 106.03C256.83 106.552 254.578 107.322 252.319 107.645C249.745 108.014 247.507 107.517 245.001 107.517C242.273 106.859 239.816 105.547 237.047 105.012C236.064 104.82 227.991 104.093 228.076 101.926C228.096 101.963 228.124 101.998 228.151 102.031C228.723 102.693 229.466 103.159 230.335 103.391C230.952 103.556 231.579 103.555 232.18 103.723C232.863 103.913 233.452 104.091 234.18 103.997C234.733 103.926 235.263 103.736 235.815 103.655C237.811 103.364 239.767 104.523 241.783 104.413C241.422 104.47 241.274 104.935 241.427 105.251C241.581 105.568 241.921 105.758 242.25 105.911C244.493 106.96 246.744 106.832 249.165 106.914C251.347 106.987 254.386 107.256 256.263 105.988C256.456 105.857 256.659 105.669 256.627 105.446C256.615 105.366 256.576 105.28 256.622 105.213C256.644 105.181 256.68 105.162 256.716 105.145C257.38 104.834 258.177 104.911 258.871 104.666C260.18 104.205 261.577 104.091 262.928 103.63C263.522 103.924 264.328 103.741 264.719 103.224C264.838 103.065 264.92 102.885 265.023 102.717C265.271 102.31 265.654 102.122 265.975 101.792C266.251 101.508 266.419 101.167 266.742 100.909C266.8 100.863 266.865 100.817 266.93 100.781C267.064 101.101 267.122 101.438 267.033 101.77Z"
            fill="#9F7B45" />
        <path
            d="M256.652 102.354C256.671 102.429 256.68 102.504 256.699 102.578C254.185 101.447 251.767 99.354 250.076 97.2141C249.655 97.9429 248.833 98.3264 248.25 98.9435C245.621 101.654 242.458 103.29 238.702 104C240.499 102.009 240.843 100.14 240.986 97.4952C238.692 98.8319 236.657 99.5421 234 99.8688C237.737 96.7757 240.442 92.5135 241.637 87.8687C241.694 87.8501 241.751 87.8501 241.809 87.8314C245.469 87.0272 248.977 86.8131 252.561 87.2516C253.718 87.3921 254.874 87.5978 256.05 87.878C256.069 88.0279 256.098 88.1768 256.136 88.3173C257.188 93.4201 261.565 98.252 266 101.074C263.085 100.271 259.329 100.186 256.414 99.3829C256.27 100.42 256.461 101.346 256.653 102.355L256.652 102.354Z"
            fill="#602A00" />
        <path
            d="M256.535 102.457C255.422 101.593 254.794 100.26 254.3 98.9463C253.071 95.7168 251.455 90.8538 252.365 87.3989C252.374 87.3615 252.384 87.3241 252.394 87.2858C253.565 87.427 254.736 87.6336 255.926 87.915C255.945 88.0656 255.974 88.2152 256.013 88.3563C257.078 93.4821 261.51 98.3358 266 101.171C263.049 100.364 259.246 100.279 256.294 99.4718C256.149 100.513 256.342 101.444 256.535 102.457Z"
            fill="#482001" />
        <path
            d="M255.833 87.9286C255.833 88.087 255.71 88.2886 255.359 88.5102C255.018 88.7256 254.512 88.927 253.868 89.0991C252.584 89.4424 250.799 89.6572 248.82 89.6572C246.84 89.6572 245.055 89.4424 243.771 89.0991C243.127 88.927 242.621 88.7256 242.28 88.5102C241.93 88.2886 241.806 88.087 241.806 87.9286C241.806 87.7701 241.93 87.5686 242.28 87.3469C242.621 87.1315 243.127 86.9301 243.771 86.7581C245.055 86.4147 246.84 86.2 248.82 86.2C250.799 86.2 252.584 86.4147 253.868 86.7581C254.512 86.9301 255.018 87.1315 255.359 87.3469C255.71 87.5686 255.833 87.7701 255.833 87.9286Z"
            fill="#AD501A" stroke="#602A00" stroke-width="0.4" />
        <path
            d="M253.996 87.9288C253.996 87.9412 253.992 87.9724 253.942 88.0241C253.892 88.0768 253.808 88.1372 253.683 88.2009C253.433 88.328 253.059 88.4483 252.58 88.5515C251.624 88.7571 250.294 88.8859 248.819 88.8859C247.344 88.8859 246.015 88.7571 245.059 88.5515C244.58 88.4483 244.205 88.328 243.956 88.2009C243.83 88.1372 243.747 88.0768 243.697 88.0241C243.647 87.9724 243.642 87.9412 243.642 87.9288C243.642 87.9163 243.647 87.8851 243.697 87.8334C243.747 87.7807 243.83 87.7203 243.956 87.6566C244.205 87.5295 244.58 87.4092 245.059 87.3061C246.015 87.1004 247.344 86.9716 248.819 86.9716C250.294 86.9716 251.624 87.1004 252.58 87.3061C253.059 87.4092 253.433 87.5295 253.683 87.6566C253.808 87.7203 253.892 87.7807 253.942 87.8334C253.992 87.8851 253.996 87.9163 253.996 87.9288Z"
            stroke="#602A00" stroke-width="0.4" />
        <path
            d="M251.261 87.8535C251.316 87.8843 251.349 87.9105 251.365 87.9286C251.349 87.9468 251.316 87.973 251.261 88.0038C251.144 88.0679 250.963 88.1321 250.722 88.1884C250.242 88.3004 249.569 88.3715 248.82 88.3715C248.07 88.3715 247.397 88.3004 246.918 88.1884C246.676 88.1321 246.495 88.0679 246.378 88.0038C246.323 87.973 246.29 87.9468 246.274 87.9286C246.29 87.9105 246.323 87.8843 246.378 87.8535C246.495 87.7894 246.676 87.7252 246.918 87.6688C247.397 87.5569 248.07 87.4858 248.82 87.4858C249.569 87.4858 250.242 87.5569 250.722 87.6688C250.963 87.7252 251.144 87.7894 251.261 87.8535Z"
            stroke="#602A00" stroke-width="0.4" />
        <path
            d="M364.956 297.604C364.874 297.934 364.672 298.218 364.457 298.482C362.64 300.659 359.72 301.453 356.989 302.137C354.754 302.692 352.502 303.512 350.243 303.855C347.669 304.247 345.431 303.719 342.926 303.719C340.198 303.018 337.74 301.623 334.971 301.054C333.989 300.849 325.915 300.075 326.001 297.77C326.008 297.475 326.151 297.156 326.456 296.812C326.788 296.437 327.24 296.201 327.681 295.972C330.95 294.285 333.791 293.518 337.378 293.074C344.195 292.237 351.126 291.405 357.893 292.588C360.309 293.012 362.736 293.685 364.345 295.705C364.547 295.959 364.732 296.25 364.855 296.552C364.988 296.892 365.046 297.249 364.957 297.603L364.956 297.604Z"
            fill="url(#paint2_linear_2132_83921)" />
        <path
            d="M365.033 297.77C364.95 298.08 364.748 298.348 364.533 298.596C362.716 300.641 359.796 301.388 357.065 302.03C354.83 302.552 352.578 303.322 350.319 303.645C347.745 304.014 345.507 303.517 343.001 303.517C340.273 302.859 337.816 301.547 335.047 301.012C334.064 300.82 325.991 300.093 326.076 297.926C326.096 297.963 326.124 297.998 326.151 298.031C326.723 298.693 327.466 299.159 328.335 299.391C328.952 299.556 329.579 299.555 330.18 299.723C330.863 299.913 331.452 300.091 332.18 299.997C332.733 299.926 333.263 299.736 333.815 299.655C335.811 299.364 337.767 300.523 339.783 300.413C339.422 300.47 339.274 300.935 339.427 301.251C339.581 301.568 339.921 301.758 340.25 301.911C342.493 302.96 344.744 302.832 347.165 302.914C349.347 302.987 352.386 303.256 354.263 301.988C354.456 301.857 354.659 301.669 354.627 301.446C354.615 301.366 354.576 301.28 354.622 301.213C354.644 301.181 354.68 301.162 354.716 301.145C355.38 300.834 356.177 300.911 356.871 300.666C358.18 300.205 359.577 300.091 360.928 299.63C361.522 299.924 362.328 299.741 362.719 299.224C362.838 299.065 362.92 298.885 363.023 298.717C363.271 298.31 363.654 298.122 363.975 297.792C364.251 297.508 364.419 297.167 364.742 296.909C364.8 296.863 364.865 296.817 364.93 296.781C365.064 297.101 365.122 297.438 365.033 297.77Z"
            fill="#9F7B45" />
        <path
            d="M354.652 298.354C354.671 298.429 354.68 298.504 354.699 298.578C352.185 297.447 349.767 295.354 348.076 293.214C347.655 293.943 346.833 294.326 346.25 294.944C343.621 297.654 340.458 299.29 336.702 300C338.499 298.009 338.843 296.14 338.986 293.495C336.692 294.832 334.657 295.542 332 295.869C335.737 292.776 338.442 288.513 339.637 283.869C339.694 283.85 339.751 283.85 339.809 283.831C343.469 283.027 346.977 282.813 350.561 283.252C351.718 283.392 352.874 283.598 354.05 283.878C354.069 284.028 354.098 284.177 354.136 284.317C355.188 289.42 359.565 294.252 364 297.074C361.085 296.271 357.329 296.186 354.414 295.383C354.27 296.42 354.461 297.346 354.653 298.355L354.652 298.354Z"
            fill="#602A00" />
        <path
            d="M354.535 298.457C353.422 297.593 352.794 296.26 352.3 294.946C351.071 291.717 349.455 286.854 350.365 283.399C350.374 283.362 350.384 283.324 350.394 283.286C351.565 283.427 352.736 283.634 353.926 283.915C353.945 284.066 353.974 284.215 354.013 284.356C355.078 289.482 359.51 294.336 364 297.171C361.049 296.364 357.246 296.279 354.294 295.472C354.149 296.513 354.342 297.444 354.535 298.457Z"
            fill="#482001" />
        <path
            d="M353.833 283.929C353.833 284.087 353.71 284.289 353.359 284.51C353.018 284.726 352.512 284.927 351.868 285.099C350.584 285.442 348.799 285.657 346.82 285.657C344.84 285.657 343.055 285.442 341.771 285.099C341.127 284.927 340.621 284.726 340.28 284.51C339.93 284.289 339.806 284.087 339.806 283.929C339.806 283.77 339.93 283.569 340.28 283.347C340.621 283.132 341.127 282.93 341.771 282.758C343.055 282.415 344.84 282.2 346.82 282.2C348.799 282.2 350.584 282.415 351.868 282.758C352.512 282.93 353.018 283.132 353.359 283.347C353.71 283.569 353.833 283.77 353.833 283.929Z"
            fill="#AD501A" stroke="#602A00" stroke-width="0.4" />
        <path
            d="M351.996 283.929C351.996 283.941 351.992 283.972 351.942 284.024C351.892 284.077 351.808 284.137 351.683 284.201C351.433 284.328 351.059 284.448 350.58 284.551C349.624 284.757 348.294 284.886 346.819 284.886C345.344 284.886 344.015 284.757 343.059 284.551C342.58 284.448 342.205 284.328 341.956 284.201C341.83 284.137 341.747 284.077 341.697 284.024C341.647 283.972 341.642 283.941 341.642 283.929C341.642 283.916 341.647 283.885 341.697 283.833C341.747 283.781 341.83 283.72 341.956 283.657C342.205 283.529 342.58 283.409 343.059 283.306C344.015 283.1 345.344 282.972 346.819 282.972C348.294 282.972 349.624 283.1 350.58 283.306C351.059 283.409 351.433 283.529 351.683 283.657C351.808 283.72 351.892 283.781 351.942 283.833C351.992 283.885 351.996 283.916 351.996 283.929Z"
            stroke="#602A00" stroke-width="0.4" />
        <path
            d="M349.261 283.854C349.316 283.884 349.349 283.91 349.365 283.929C349.349 283.947 349.316 283.973 349.261 284.004C349.144 284.068 348.963 284.132 348.722 284.188C348.242 284.3 347.569 284.371 346.82 284.371C346.07 284.371 345.397 284.3 344.918 284.188C344.676 284.132 344.495 284.068 344.378 284.004C344.323 283.973 344.29 283.947 344.274 283.929C344.29 283.91 344.323 283.884 344.378 283.854C344.495 283.789 344.676 283.725 344.918 283.669C345.397 283.557 346.07 283.486 346.82 283.486C347.569 283.486 348.242 283.557 348.722 283.669C348.963 283.725 349.144 283.789 349.261 283.854Z"
            stroke="#602A00" stroke-width="0.4" />
        <path
            d="M560.956 199.604C560.874 199.934 560.672 200.218 560.457 200.482C558.64 202.659 555.72 203.453 552.989 204.137C550.754 204.692 548.502 205.512 546.243 205.855C543.669 206.247 541.431 205.719 538.926 205.719C536.198 205.018 533.74 203.623 530.971 203.054C529.989 202.849 521.915 202.075 522.001 199.77C522.008 199.475 522.151 199.156 522.456 198.812C522.788 198.437 523.24 198.201 523.681 197.972C526.95 196.285 529.791 195.518 533.378 195.074C540.195 194.237 547.126 193.405 553.893 194.588C556.309 195.012 558.736 195.685 560.345 197.705C560.547 197.959 560.732 198.25 560.855 198.552C560.988 198.892 561.046 199.249 560.957 199.603L560.956 199.604Z"
            fill="url(#paint3_linear_2132_83921)" />
        <path
            d="M561.033 199.77C560.95 200.08 560.748 200.348 560.533 200.596C558.716 202.641 555.796 203.388 553.065 204.03C550.83 204.552 548.578 205.322 546.319 205.645C543.745 206.014 541.507 205.517 539.001 205.517C536.273 204.859 533.816 203.547 531.047 203.012C530.064 202.82 521.991 202.093 522.076 199.926C522.096 199.963 522.124 199.998 522.151 200.031C522.723 200.693 523.466 201.159 524.335 201.391C524.952 201.556 525.579 201.555 526.18 201.723C526.863 201.913 527.452 202.091 528.18 201.997C528.733 201.926 529.263 201.736 529.815 201.655C531.811 201.364 533.767 202.523 535.783 202.413C535.422 202.47 535.274 202.935 535.427 203.251C535.581 203.568 535.921 203.758 536.25 203.911C538.493 204.96 540.744 204.832 543.165 204.914C545.347 204.987 548.386 205.256 550.263 203.988C550.456 203.857 550.659 203.669 550.627 203.446C550.615 203.366 550.576 203.28 550.622 203.213C550.644 203.181 550.68 203.162 550.716 203.145C551.38 202.834 552.177 202.911 552.871 202.666C554.18 202.205 555.577 202.091 556.928 201.63C557.522 201.924 558.328 201.741 558.719 201.224C558.838 201.065 558.92 200.885 559.023 200.717C559.271 200.31 559.654 200.122 559.975 199.792C560.251 199.508 560.419 199.167 560.742 198.909C560.8 198.863 560.865 198.817 560.93 198.781C561.064 199.101 561.122 199.438 561.033 199.77Z"
            fill="#9F7B45" />
        <path
            d="M550.652 200.354C550.671 200.429 550.68 200.504 550.699 200.578C548.185 199.447 545.767 197.354 544.076 195.214C543.655 195.943 542.833 196.326 542.25 196.944C539.621 199.654 536.458 201.29 532.702 202C534.499 200.009 534.843 198.14 534.986 195.495C532.692 196.832 530.657 197.542 528 197.869C531.737 194.776 534.442 190.513 535.637 185.869C535.694 185.85 535.751 185.85 535.809 185.831C539.469 185.027 542.977 184.813 546.561 185.252C547.718 185.392 548.874 185.598 550.05 185.878C550.069 186.028 550.098 186.177 550.136 186.317C551.188 191.42 555.565 196.252 560 199.074C557.085 198.271 553.329 198.186 550.414 197.383C550.27 198.42 550.461 199.346 550.653 200.355L550.652 200.354Z"
            fill="#602A00" />
        <path
            d="M550.535 200.457C549.422 199.593 548.794 198.26 548.3 196.946C547.071 193.717 545.455 188.854 546.365 185.399C546.374 185.362 546.384 185.324 546.394 185.286C547.565 185.427 548.736 185.634 549.926 185.915C549.945 186.066 549.974 186.215 550.013 186.356C551.078 191.482 555.51 196.336 560 199.171C557.049 198.364 553.246 198.279 550.294 197.472C550.149 198.513 550.342 199.444 550.535 200.457Z"
            fill="#482001" />
        <path
            d="M549.833 185.929C549.833 186.087 549.71 186.289 549.359 186.51C549.018 186.726 548.512 186.927 547.868 187.099C546.584 187.442 544.799 187.657 542.82 187.657C540.84 187.657 539.055 187.442 537.771 187.099C537.127 186.927 536.621 186.726 536.28 186.51C535.93 186.289 535.806 186.087 535.806 185.929C535.806 185.77 535.93 185.569 536.28 185.347C536.621 185.132 537.127 184.93 537.771 184.758C539.055 184.415 540.84 184.2 542.82 184.2C544.799 184.2 546.584 184.415 547.868 184.758C548.512 184.93 549.018 185.132 549.359 185.347C549.71 185.569 549.833 185.77 549.833 185.929Z"
            fill="#AD501A" stroke="#602A00" stroke-width="0.4" />
        <path
            d="M547.996 185.929C547.996 185.941 547.992 185.972 547.942 186.024C547.892 186.077 547.808 186.137 547.683 186.201C547.433 186.328 547.059 186.448 546.58 186.551C545.624 186.757 544.294 186.886 542.819 186.886C541.344 186.886 540.015 186.757 539.059 186.551C538.58 186.448 538.205 186.328 537.956 186.201C537.83 186.137 537.747 186.077 537.697 186.024C537.647 185.972 537.642 185.941 537.642 185.929C537.642 185.916 537.647 185.885 537.697 185.833C537.747 185.781 537.83 185.72 537.956 185.657C538.205 185.529 538.58 185.409 539.059 185.306C540.015 185.1 541.344 184.972 542.819 184.972C544.294 184.972 545.624 185.1 546.58 185.306C547.059 185.409 547.433 185.529 547.683 185.657C547.808 185.72 547.892 185.781 547.942 185.833C547.992 185.885 547.996 185.916 547.996 185.929Z"
            stroke="#602A00" stroke-width="0.4" />
        <path
            d="M545.261 185.854C545.316 185.884 545.349 185.91 545.365 185.929C545.349 185.947 545.316 185.973 545.261 186.004C545.144 186.068 544.963 186.132 544.722 186.188C544.242 186.3 543.569 186.371 542.82 186.371C542.07 186.371 541.397 186.3 540.918 186.188C540.676 186.132 540.495 186.068 540.378 186.004C540.323 185.973 540.29 185.947 540.274 185.929C540.29 185.91 540.323 185.884 540.378 185.854C540.495 185.789 540.676 185.725 540.918 185.669C541.397 185.557 542.07 185.486 542.82 185.486C543.569 185.486 544.242 185.557 544.722 185.669C544.963 185.725 545.144 185.789 545.261 185.854Z"
            stroke="#602A00" stroke-width="0.4" />
        <path
            d="M756.956 297.604C756.874 297.934 756.672 298.218 756.457 298.482C754.64 300.659 751.72 301.453 748.989 302.137C746.754 302.692 744.502 303.512 742.243 303.855C739.669 304.247 737.431 303.719 734.926 303.719C732.198 303.018 729.74 301.623 726.971 301.054C725.989 300.849 717.915 300.075 718.001 297.77C718.008 297.475 718.151 297.156 718.456 296.812C718.788 296.437 719.24 296.201 719.681 295.972C722.95 294.285 725.791 293.518 729.378 293.074C736.195 292.237 743.126 291.405 749.893 292.588C752.309 293.012 754.736 293.685 756.345 295.705C756.547 295.959 756.732 296.25 756.855 296.552C756.988 296.892 757.046 297.249 756.957 297.603L756.956 297.604Z"
            fill="url(#paint4_linear_2132_83921)" />
        <path
            d="M757.033 297.77C756.95 298.08 756.748 298.348 756.533 298.596C754.716 300.641 751.796 301.388 749.065 302.03C746.83 302.552 744.578 303.322 742.319 303.645C739.745 304.014 737.507 303.517 735.001 303.517C732.273 302.859 729.816 301.547 727.047 301.012C726.064 300.82 717.991 300.093 718.076 297.926C718.096 297.963 718.124 297.998 718.151 298.031C718.723 298.693 719.466 299.159 720.335 299.391C720.952 299.556 721.579 299.555 722.18 299.723C722.863 299.913 723.452 300.091 724.18 299.997C724.733 299.926 725.263 299.736 725.815 299.655C727.811 299.364 729.767 300.523 731.783 300.413C731.422 300.47 731.274 300.935 731.427 301.251C731.581 301.568 731.921 301.758 732.25 301.911C734.493 302.96 736.744 302.832 739.165 302.914C741.347 302.987 744.386 303.256 746.263 301.988C746.456 301.857 746.659 301.669 746.627 301.446C746.615 301.366 746.576 301.28 746.622 301.213C746.644 301.181 746.68 301.162 746.716 301.145C747.38 300.834 748.177 300.911 748.871 300.666C750.18 300.205 751.577 300.091 752.928 299.63C753.522 299.924 754.328 299.741 754.719 299.224C754.838 299.065 754.92 298.885 755.023 298.717C755.271 298.31 755.654 298.122 755.975 297.792C756.251 297.508 756.419 297.167 756.742 296.909C756.8 296.863 756.865 296.817 756.93 296.781C757.064 297.101 757.122 297.438 757.033 297.77Z"
            fill="#9F7B45" />
        <path
            d="M746.652 298.354C746.671 298.429 746.68 298.504 746.699 298.578C744.185 297.447 741.767 295.354 740.076 293.214C739.655 293.943 738.833 294.326 738.25 294.944C735.621 297.654 732.458 299.29 728.702 300C730.499 298.009 730.843 296.14 730.986 293.495C728.692 294.832 726.657 295.542 724 295.869C727.737 292.776 730.442 288.513 731.637 283.869C731.694 283.85 731.751 283.85 731.809 283.831C735.469 283.027 738.977 282.813 742.561 283.252C743.718 283.392 744.874 283.598 746.05 283.878C746.069 284.028 746.098 284.177 746.136 284.317C747.188 289.42 751.565 294.252 756 297.074C753.085 296.271 749.329 296.186 746.414 295.383C746.27 296.42 746.461 297.346 746.653 298.355L746.652 298.354Z"
            fill="#602A00" />
        <path
            d="M746.535 298.457C745.422 297.593 744.794 296.26 744.3 294.946C743.071 291.717 741.455 286.854 742.365 283.399C742.374 283.362 742.384 283.324 742.394 283.286C743.565 283.427 744.736 283.634 745.926 283.915C745.945 284.066 745.974 284.215 746.013 284.356C747.078 289.482 751.51 294.336 756 297.171C753.049 296.364 749.246 296.279 746.294 295.472C746.149 296.513 746.342 297.444 746.535 298.457Z"
            fill="#482001" />
        <path
            d="M745.833 283.929C745.833 284.087 745.71 284.289 745.359 284.51C745.018 284.726 744.512 284.927 743.868 285.099C742.584 285.442 740.799 285.657 738.82 285.657C736.84 285.657 735.055 285.442 733.771 285.099C733.127 284.927 732.621 284.726 732.28 284.51C731.93 284.289 731.806 284.087 731.806 283.929C731.806 283.77 731.93 283.569 732.28 283.347C732.621 283.132 733.127 282.93 733.771 282.758C735.055 282.415 736.84 282.2 738.82 282.2C740.799 282.2 742.584 282.415 743.868 282.758C744.512 282.93 745.018 283.132 745.359 283.347C745.71 283.569 745.833 283.77 745.833 283.929Z"
            fill="#AD501A" stroke="#602A00" stroke-width="0.4" />
        <path
            d="M743.996 283.929C743.996 283.941 743.992 283.972 743.942 284.024C743.892 284.077 743.808 284.137 743.683 284.201C743.433 284.328 743.059 284.448 742.58 284.551C741.624 284.757 740.294 284.886 738.819 284.886C737.344 284.886 736.015 284.757 735.059 284.551C734.58 284.448 734.205 284.328 733.956 284.201C733.83 284.137 733.747 284.077 733.697 284.024C733.647 283.972 733.642 283.941 733.642 283.929C733.642 283.916 733.647 283.885 733.697 283.833C733.747 283.781 733.83 283.72 733.956 283.657C734.205 283.529 734.58 283.409 735.059 283.306C736.015 283.1 737.344 282.972 738.819 282.972C740.294 282.972 741.624 283.1 742.58 283.306C743.059 283.409 743.433 283.529 743.683 283.657C743.808 283.72 743.892 283.781 743.942 283.833C743.992 283.885 743.996 283.916 743.996 283.929Z"
            stroke="#602A00" stroke-width="0.4" />
        <path
            d="M741.261 283.854C741.316 283.884 741.349 283.91 741.365 283.929C741.349 283.947 741.316 283.973 741.261 284.004C741.144 284.068 740.963 284.132 740.722 284.188C740.242 284.3 739.569 284.371 738.82 284.371C738.07 284.371 737.397 284.3 736.918 284.188C736.676 284.132 736.495 284.068 736.378 284.004C736.323 283.973 736.29 283.947 736.274 283.929C736.29 283.91 736.323 283.884 736.378 283.854C736.495 283.789 736.676 283.725 736.918 283.669C737.397 283.557 738.07 283.486 738.82 283.486C739.569 283.486 740.242 283.557 740.722 283.669C740.963 283.725 741.144 283.789 741.261 283.854Z"
            stroke="#602A00" stroke-width="0.4" />
    </g>
    <defs>
        <linearGradient id="paint0_linear_2132_83921" x1="149.5" y1="390" x2="149.5" y2="402"
            gradientUnits="userSpaceOnUse">
            <stop stop-color="#602A00" />
            <stop offset="1" stop-color="#9F7B45" />
        </linearGradient>
        <linearGradient id="paint1_linear_2132_83921" x1="247.5" y1="96" x2="247.5" y2="108"
            gradientUnits="userSpaceOnUse">
            <stop stop-color="#602A00" />
            <stop offset="1" stop-color="#9F7B45" />
        </linearGradient>
        <linearGradient id="paint2_linear_2132_83921" x1="345.5" y1="292" x2="345.5" y2="304"
            gradientUnits="userSpaceOnUse">
            <stop stop-color="#602A00" />
            <stop offset="1" stop-color="#9F7B45" />
        </linearGradient>
        <linearGradient id="paint3_linear_2132_83921" x1="541.5" y1="194" x2="541.5" y2="206"
            gradientUnits="userSpaceOnUse">
            <stop stop-color="#602A00" />
            <stop offset="1" stop-color="#9F7B45" />
        </linearGradient>
        <linearGradient id="paint4_linear_2132_83921" x1="737.5" y1="292" x2="737.5" y2="304"
            gradientUnits="userSpaceOnUse">
            <stop stop-color="#602A00" />
            <stop offset="1" stop-color="#9F7B45" />
        </linearGradient>
        <clipPath id="clip0_2132_83921">
            <rect width="892" height="412" fill="white" />
        </clipPath>
    </defs>
</svg>
