<svg width="892" height="412" viewBox="0 0 892 412" fill="none" xmlns="http://www.w3.org/2000/svg">
<g clip-path="url(#clip0_2320_143056)">
<rect width="892" height="412" fill="#D9F1F2"/>
<path d="M891.999 3.06424V326H0V3.06424C0 3.06424 397.214 33.1051 538.308 33.1051C679.402 33.1051 808.43 -11.9525 891.999 3.06424Z" fill="#8CDF96"/>
<path d="M892 362.023L0 326V412H892V362.023Z" fill="#8CDF96"/>
<path d="M892 95.3568V145.097C816.545 149.565 461.616 170.418 382.853 170.418C308.267 170.418 71.5523 183.828 0 188V70C75.2524 71.9888 339.142 79.6917 513.822 93.7428C677.736 106.965 835.034 99.0749 892 95.3568Z" fill="#A2E7AA"/>
<path d="M892 228.695V362L0 325.807V251.938C78.2387 245.103 591.74 200.793 657.569 207.736C716.665 213.966 848.609 225.087 892 228.688V228.695Z" fill="#A2E7AA"/>
</g>
<defs>
<clipPath id="clip0_2320_143056">
<rect width="892" height="412" fill="white"/>
</clipPath>
</defs>
</svg>
