<svg width="892" height="412" viewBox="0 0 892 412" fill="none" xmlns="http://www.w3.org/2000/svg">
<g clip-path="url(#clip0_2322_94778)">
<rect width="892" height="412" fill="#E7C78A"/>
<g clip-path="url(#clip1_2322_94778)">
<mask id="mask0_2322_94778" style="mask-type:luminance" maskUnits="userSpaceOnUse" x="0" y="0" width="892" height="412">
<path d="M892 0H0V412H892V0Z" fill="white"/>
</mask>
<g mask="url(#mask0_2322_94778)">
<path d="M463.804 351.212H428.196V363.318H463.804V351.212Z" fill="#F4E8D5"/>
<path d="M2.38621 368.593H35.079V380.699H2.38621V368.593ZM39.4904 368.593H72.2496V380.699H39.4904V368.593ZM76.5949 368.593H109.421V380.699H76.5949V368.593ZM113.699 368.593H146.592V380.699H113.699V368.593ZM150.803 368.593H183.763V380.699H150.803V368.593ZM187.907 368.593H220.934V380.699H187.907V368.593ZM225.011 368.593H258.105V380.699H225.011V368.593ZM262.115 368.593H295.276V380.699H262.115V368.593ZM299.22 368.593H332.447V380.699H299.22V368.593ZM336.324 368.593H369.618V380.699H336.324V368.593ZM373.427 368.593H406.789V380.699H373.427V368.593ZM410.532 368.593H443.96V380.699H410.532V368.593ZM448.04 368.593H481.468V380.699H448.04V368.593ZM485.211 368.593H518.573V380.699H485.211V368.593ZM522.382 368.593H555.676V380.699H522.382V368.593ZM559.553 368.593H592.781V380.699H559.553V368.593ZM596.724 368.593H629.885V380.699H596.724V368.593ZM633.895 368.593H666.989V380.699H633.895V368.593ZM671.066 368.593H704.093V380.699H671.066V368.593ZM708.237 368.593H741.198V380.699H708.237V368.593ZM745.409 368.593H778.302V380.699H745.409V368.593ZM782.579 368.593H815.405V380.699H782.579V368.593ZM819.75 368.593H852.51V380.699H819.75V368.593ZM856.921 368.593H889.614V380.699H856.921V368.593ZM2.38914 333.831H35.082V345.937H2.38914V333.831ZM39.4933 333.831H72.2525V345.937H39.4933V333.831ZM76.5975 333.831H109.424V345.937H76.5975V333.831ZM113.702 333.831H146.595V345.937H113.702V333.831ZM150.806 333.831H183.766V345.937H150.806V333.831ZM187.91 333.831H220.937V345.937H187.91V333.831ZM225.014 333.831H258.108V345.937H225.014V333.831ZM262.118 333.831H295.279V345.937H262.118V333.831ZM299.222 333.831H332.45V345.937H299.222V333.831ZM336.327 333.831H369.621V345.937H336.327V333.831ZM373.43 333.831H406.792V345.937H373.43V333.831ZM410.535 333.831H443.963V345.937H410.535V333.831ZM448.037 333.831H481.465V345.937H448.037V333.831ZM485.208 333.831H518.57V345.937H485.208V333.831ZM522.379 333.831H555.673V345.937H522.379V333.831ZM559.55 333.831H592.778V345.937H559.55V333.831ZM596.721 333.831H629.882V345.937H596.721V333.831ZM633.892 333.831H666.986V345.937H633.892V333.831ZM671.063 333.831H704.09V345.937H671.063V333.831ZM708.234 333.831H741.194V345.937H708.234V333.831ZM745.405 333.831H778.298V345.937H745.405V333.831ZM782.577 333.831H815.403V345.937H782.577V333.831ZM819.747 333.831H852.507V345.937H819.747V333.831ZM856.918 333.831H889.611V345.937H856.918V333.831ZM2.39244 299.07H35.0853V311.176H2.39244V299.07ZM39.4962 299.07H72.2555V311.176H39.4962V299.07ZM76.6004 299.07H109.427V311.176H76.6004V299.07ZM113.705 299.07H146.598V311.176H113.705V299.07ZM150.809 299.07H183.769V311.176H150.809V299.07ZM187.913 299.07H220.94V311.176H187.913V299.07ZM225.017 299.07H258.111V311.176H225.017V299.07ZM262.121 299.07H295.282V311.176H262.121V299.07ZM299.225 299.07H332.453V311.176H299.225V299.07ZM336.33 299.07H369.624V311.176H336.33V299.07ZM373.434 299.07H406.795V311.176H373.434V299.07ZM410.538 299.07H443.966V311.176H410.538V299.07ZM448.034 299.07H481.462V311.176H448.034V299.07ZM485.205 299.07H518.566V311.176H485.205V299.07ZM522.376 299.07H555.67V311.176H522.376V299.07ZM559.547 299.07H592.774V311.176H559.547V299.07ZM596.718 299.07H629.879V311.176H596.718V299.07ZM633.889 299.07H666.983V311.176H633.889V299.07ZM671.06 299.07H704.087V311.176H671.06V299.07ZM708.231 299.07H741.191V311.176H708.231V299.07ZM745.402 299.07H778.295V311.176H745.402V299.07ZM782.573 299.07H815.4V311.176H782.573V299.07ZM819.744 299.07H852.504V311.176H819.744V299.07ZM856.915 299.07H889.608V311.176H856.915V299.07ZM2.39538 264.308H35.0882V276.415H2.39538V264.308ZM39.4992 264.308H72.2588V276.415H39.4992V264.308ZM76.6037 264.308H109.43V276.415H76.6037V264.308ZM113.708 264.308H146.601V276.415H113.708V264.308ZM150.812 264.308H183.772V276.415H150.812V264.308ZM187.916 264.308H220.943V276.415H187.916V264.308ZM225.02 264.308H258.114V276.415H225.02V264.308ZM262.124 264.308H295.285V276.415H262.124V264.308ZM299.228 264.308H332.456V276.415H299.228V264.308ZM336.333 264.308H369.627V276.415H336.333V264.308ZM373.437 264.308H406.798V276.415H373.437V264.308ZM410.541 264.308H443.969V276.415H410.541V264.308ZM448.031 264.308H481.459V276.415H448.031V264.308ZM485.202 264.308H518.563V276.415H485.202V264.308ZM522.373 264.308H555.668V276.415H522.373V264.308ZM559.544 264.308H592.771V276.415H559.544V264.308ZM596.715 264.308H629.876V276.415H596.715V264.308ZM633.886 264.308H666.98V276.415H633.886V264.308ZM671.057 264.308H704.084V276.415H671.057V264.308ZM708.228 264.308H741.188V276.415H708.228V264.308ZM745.399 264.308H778.293V276.415H745.399V264.308ZM782.57 264.308H815.397V276.415H782.57V264.308ZM819.741 264.308H852.5V276.415H819.741V264.308ZM856.913 264.308H889.605V276.415H856.913V264.308ZM2.39868 229.547H35.0911V241.653H2.39868V229.547ZM39.5025 229.547H72.2621V241.653H39.5025V229.547ZM76.6066 229.547H109.433V241.653H76.6066V229.547ZM113.711 229.547H146.604V241.653H113.711V229.547ZM150.815 229.547H183.775V241.653H150.815V229.547ZM187.919 229.547H220.946V241.653H187.919V229.547ZM225.023 229.547H258.117V241.653H225.023V229.547ZM262.127 229.547H295.289V241.653H262.127V229.547ZM299.231 229.547H332.459V241.653H299.231V229.547ZM336.336 229.547H369.63V241.653H336.336V229.547ZM373.44 229.547H406.801V241.653H373.44V229.547ZM410.544 229.547H443.972V241.653H410.544V229.547ZM448.028 229.547H481.456V241.653H448.028V229.547ZM485.199 229.547H518.56V241.653H485.199V229.547ZM522.37 229.547H555.665V241.653H522.37V229.547ZM559.541 229.547H592.769V241.653H559.541V229.547ZM596.712 229.547H629.873V241.653H596.712V229.547ZM633.883 229.547H666.977V241.653H633.883V229.547ZM671.054 229.547H704.081V241.653H671.054V229.547ZM708.225 229.547H741.185V241.653H708.225V229.547ZM745.396 229.547H778.289V241.653H745.396V229.547ZM782.567 229.547H815.394V241.653H782.567V229.547ZM819.738 229.547H852.498V241.653H819.738V229.547ZM856.91 229.547H889.602V241.653H856.91V229.547ZM2.40162 194.786H35.0941V206.892H2.40162V194.786ZM39.5058 194.786H72.265V206.892H39.5058V194.786ZM76.6096 194.786H109.436V206.892H76.6096V194.786ZM113.714 194.786H146.607V206.892H113.714V194.786ZM150.818 194.786H183.778V206.892H150.818V194.786ZM187.922 194.786H220.949V206.892H187.922V194.786ZM225.027 194.786H258.12V206.892H225.027V194.786ZM262.13 194.786H295.291V206.892H262.13V194.786ZM299.235 194.786H332.462V206.892H299.235V194.786ZM336.339 194.786H369.633V206.892H336.339V194.786ZM373.443 194.786H406.804V206.892H373.443V194.786ZM410.547 194.786H443.975V206.892H410.547V194.786ZM448.025 194.786H481.453V206.892H448.025V194.786ZM485.196 194.786H518.557V206.892H485.196V194.786ZM522.367 194.786H555.661V206.892H522.367V194.786ZM559.538 194.786H592.765V206.892H559.538V194.786ZM596.709 194.786H629.87V206.892H596.709V194.786ZM633.88 194.786H666.974V206.892H633.88V194.786ZM671.051 194.786H704.078V206.892H671.051V194.786ZM708.223 194.786H741.182V206.892H708.223V194.786ZM745.393 194.786H778.287V206.892H745.393V194.786ZM782.564 194.786H815.39V206.892H782.564V194.786ZM819.735 194.786H852.495V206.892H819.735V194.786ZM856.906 194.786H889.599V206.892H856.906V194.786ZM2.40455 160.024H35.097V172.13H2.40455V160.024ZM39.5087 160.024H72.268V172.13H39.5087V160.024ZM76.6125 160.024H109.439V172.13H76.6125V160.024ZM113.717 160.024H146.61V172.13H113.717V160.024ZM150.821 160.024H183.782V172.13H150.821V160.024ZM187.925 160.024H220.952V172.13H187.925V160.024ZM225.03 160.024H258.123V172.13H225.03V160.024ZM262.134 160.024H295.294V172.13H262.134V160.024ZM299.238 160.024H332.465V172.13H299.238V160.024ZM336.342 160.024H369.636V172.13H336.342V160.024ZM373.446 160.024H406.807V172.13H373.446V160.024ZM410.55 160.024H443.979V172.13H410.55V160.024ZM448.022 160.024H481.45V172.13H448.022V160.024ZM485.193 160.024H518.554V172.13H485.193V160.024ZM522.364 160.024H555.658V172.13H522.364V160.024ZM559.535 160.024H592.762V172.13H559.535V160.024ZM596.706 160.024H629.867V172.13H596.706V160.024ZM633.877 160.024H666.971V172.13H633.877V160.024ZM671.048 160.024H704.075V172.13H671.048V160.024ZM708.219 160.024H741.179V172.13H708.219V160.024ZM745.39 160.024H778.283V172.13H745.39V160.024ZM782.561 160.024H815.388V172.13H782.561V160.024ZM819.732 160.024H852.492V172.13H819.732V160.024ZM856.903 160.024H889.596V172.13H856.903V160.024ZM2.40712 125.263H35.0999V137.369H2.40712V125.263ZM39.5117 125.263H72.2709V137.369H39.5117V125.263ZM76.6158 125.263H109.442V137.369H76.6158V125.263ZM113.72 125.263H146.613V137.369H113.72V125.263ZM150.824 125.263H183.784V137.369H150.824V125.263ZM187.928 125.263H220.955V137.369H187.928V125.263ZM225.032 125.263H258.126V137.369H225.032V125.263ZM262.137 125.263H295.297V137.369H262.137V125.263ZM299.24 125.263H332.468V137.369H299.24V125.263ZM336.345 125.263H369.639V137.369H336.345V125.263ZM373.449 125.263H406.811V137.369H373.449V125.263ZM410.553 125.263H443.981V137.369H410.553V125.263ZM448.019 125.263H481.447V137.369H448.019V125.263ZM485.19 125.263H518.551V137.369H485.19V125.263ZM522.361 125.263H555.655V137.369H522.361V125.263ZM559.532 125.263H592.76V137.369H559.532V125.263ZM596.703 125.263H629.863V137.369H596.703V125.263ZM633.874 125.263H666.968V137.369H633.874V125.263ZM671.045 125.263H704.072V137.369H671.045V125.263ZM708.216 125.263H741.176V137.369H708.216V125.263ZM745.387 125.263H778.28V137.369H745.387V125.263ZM782.558 125.263H815.384V137.369H782.558V125.263ZM819.729 125.263H852.489V137.369H819.729V125.263ZM856.9 125.263H889.593V137.369H856.9V125.263ZM2.41042 90.5019H35.1032V102.608H2.41042V90.5019ZM39.5146 90.5019H72.2742V102.608H39.5146V90.5019ZM76.6188 90.5019H109.445V102.608H76.6188V90.5019ZM113.723 90.5019H146.616V102.608H113.723V90.5019ZM150.827 90.5019H183.787V102.608H150.827V90.5019ZM187.931 90.5019H220.958V102.608H187.931V90.5019ZM225.035 90.5019H258.129V102.608H225.035V90.5019ZM262.14 90.5019H295.301V102.608H262.14V90.5019ZM299.244 90.5019H332.472V102.608H299.244V90.5019ZM336.348 90.5019H369.642V102.608H336.348V90.5019ZM373.452 90.5019H406.813V102.608H373.452V90.5019ZM410.556 90.5019H443.984V102.608H410.556V90.5019ZM448.016 90.5019H481.444V102.608H448.016V90.5019ZM485.187 90.5019H518.548V102.608H485.187V90.5019ZM522.358 90.5019H555.652V102.608H522.358V90.5019ZM559.529 90.5019H592.757V102.608H559.529V90.5019ZM596.7 90.5019H629.861V102.608H596.7V90.5019ZM633.871 90.5019H666.965V102.608H633.871V90.5019ZM671.042 90.5019H704.069V102.608H671.042V90.5019ZM708.213 90.5019H741.173V102.608H708.213V90.5019ZM745.384 90.5019H778.277V102.608H745.384V90.5019ZM782.555 90.5019H815.381V102.608H782.555V90.5019ZM819.726 90.5019H852.485V102.608H819.726V90.5019ZM856.897 90.5019H889.59V102.608H856.897V90.5019ZM2.41373 55.7404H35.1062V67.8467H2.41373V55.7404ZM39.5175 55.7404H72.2768V67.8467H39.5175V55.7404ZM76.6221 55.7404H109.448V67.8467H76.6221V55.7404ZM113.726 55.7404H146.619V67.8467H113.726V55.7404ZM150.83 55.7404H183.79V67.8467H150.83V55.7404ZM187.934 55.7404H220.961V67.8467H187.934V55.7404ZM225.038 55.7404H258.132V67.8467H225.038V55.7404ZM262.143 55.7404H295.304V67.8467H262.143V55.7404ZM299.247 55.7404H332.474V67.8467H299.247V55.7404ZM336.351 55.7404H369.645V67.8467H336.351V55.7404ZM373.455 55.7404H406.816V67.8467H373.455V55.7404ZM410.559 55.7404H443.987V67.8467H410.559V55.7404ZM448.013 55.7404H481.441V67.8467H448.013V55.7404ZM485.184 55.7404H518.545V67.8467H485.184V55.7404ZM522.355 55.7404H555.649V67.8467H522.355V55.7404ZM559.526 55.7404H592.754V67.8467H559.526V55.7404ZM596.697 55.7404H629.858V67.8467H596.697V55.7404ZM633.868 55.7404H666.962V67.8467H633.868V55.7404ZM671.039 55.7404H704.066V67.8467H671.039V55.7404ZM708.21 55.7404H741.17V67.8467H708.21V55.7404ZM745.381 55.7404H778.274V67.8467H745.381V55.7404ZM782.552 55.7404H815.378V67.8467H782.552V55.7404ZM819.723 55.7404H852.483V67.8467H819.723V55.7404ZM856.894 55.7404H889.587V67.8467H856.894V55.7404ZM2.4163 20.9789H35.1091V33.0848H2.4163V20.9789ZM39.5208 20.9789H72.2801V33.0848H39.5208V20.9789ZM76.625 20.9789H109.451V33.0848H76.625V20.9789ZM113.729 20.9789H146.622V33.0848H113.729V20.9789ZM150.833 20.9789H183.793V33.0848H150.833V20.9789ZM187.937 20.9789H220.964V33.0848H187.937V20.9789ZM225.041 20.9789H258.135V33.0848H225.041V20.9789ZM262.145 20.9789H295.306V33.0848H262.145V20.9789ZM299.25 20.9789H332.477V33.0848H299.25V20.9789ZM336.354 20.9789H369.648V33.0848H336.354V20.9789ZM373.458 20.9789H406.819V33.0848H373.458V20.9789ZM410.562 20.9789H443.991V33.0848H410.562V20.9789ZM448.01 20.9789H481.438V33.0848H448.01V20.9789ZM485.181 20.9789H518.542V33.0848H485.181V20.9789ZM522.352 20.9789H555.646V33.0848H522.352V20.9789ZM559.523 20.9789H592.75V33.0848H559.523V20.9789ZM596.694 20.9789H629.855V33.0848H596.694V20.9789ZM633.865 20.9789H666.959V33.0848H633.865V20.9789ZM671.036 20.9789H704.063V33.0848H671.036V20.9789ZM708.207 20.9789H741.167V33.0848H708.207V20.9789ZM745.378 20.9789H778.271V33.0848H745.378V20.9789ZM782.549 20.9789H815.375V33.0848H782.549V20.9789ZM819.72 20.9789H852.479V33.0848H819.72V20.9789ZM856.891 20.9789H889.583V33.0848H856.891V20.9789ZM0 0V3.598H14.9553V15.7039H0V38.3595H14.9553V50.4654H0V73.1207H14.9553V85.2265H0V107.882H14.9553V119.988H0V142.644H14.9553V154.749H0V177.405H14.9553V189.511H0V212.166H14.9553V224.272H0V246.927H14.9553V259.033H0V281.689H14.9553V293.795H0V316.45H14.9553V328.556H0V351.212H14.9553V363.318H0V385.973H14.9553V398.079H0V412H2.38327V403.354H35.0757V412H39.4874V403.354H72.2467V412H76.5916V403.354H109.418V412H113.695V403.354H146.589V412H150.8V403.354H183.76V412H187.904V403.354H220.931V412H225.008V403.354H258.102V412H262.112V403.354H295.273V412H299.217V403.354H332.444V412H336.32V403.354H369.615V412H373.425V403.354H406.786V412H410.529V403.354H443.957V412H448.043V403.354H481.471V412H485.214V403.354H518.576V412H522.385V403.354H555.679V412H559.556V403.354H592.784V412H596.727V403.354H629.888V412H633.898V403.354H666.992V412H671.069V403.354H704.096V412H708.24V403.354H741.2V412H745.411V403.354H778.305V412H782.582V403.354H815.409V412H819.754V403.354H852.513V412H856.925V403.354H889.617V412H892V398.079H877.044V385.973H892V363.318H877.044V351.212H892V328.556H877.044V316.45H892V293.795H877.044V281.689H892V259.033H877.044V246.927H892V224.272H877.044V212.166H892V189.511H877.044V177.405H892V154.749H877.044V142.644H892V119.988H877.044V107.882H892V85.2265H877.044V73.1207H892V50.4654H877.044V38.3595H892V15.7042H877.044V3.59835H892V0H0Z" fill="#EDDABB"/>
<path d="M463.804 107.883H428.196V119.988H463.804V107.883Z" fill="#F4E8D5"/>
<path d="M463.804 351.212H428.196V363.318H463.804V351.212Z" fill="#F4E8D5"/>
<mask id="mask1_2322_94778" style="mask-type:luminance" maskUnits="userSpaceOnUse" x="0" y="0" width="892" height="412">
<path d="M892 0H0V412H892V0Z" fill="white"/>
</mask>
<g mask="url(#mask1_2322_94778)">
<path d="M275.769 385.973H242.675V398.079H275.769V385.973Z" fill="#F4E8D5"/>
<path d="M649.325 385.973H616.231V398.079H649.325V385.973Z" fill="#F4E8D5"/>
<path d="M312.94 351.212H279.779V363.318H312.94V351.212Z" fill="#F4E8D5"/>
<path d="M612.221 351.212H579.06V363.318H612.221V351.212Z" fill="#F4E8D5"/>
<path d="M463.804 281.689H428.196V293.795H463.804V281.689Z" fill="#F4E8D5"/>
<path d="M316.884 316.451V328.556H350.111V316.451H316.884Z" fill="#F4E8D5"/>
<path d="M541.889 316.451V328.556H575.116V316.451H541.889Z" fill="#F4E8D5"/>
<path d="M387.282 316.451H353.988V328.557H387.282V316.451Z" fill="#F4E8D5"/>
<path d="M538.012 316.451H504.718V328.557H538.012V316.451Z" fill="#F4E8D5"/>
<path d="M424.453 316.451H391.092V328.557H424.453V316.451Z" fill="#F4E8D5"/>
<path d="M500.908 316.451H467.547V328.557H500.908V316.451Z" fill="#F4E8D5"/>
<path d="M424.453 281.689H391.092V293.795H424.453V281.689Z" fill="#F4E8D5"/>
<path d="M500.908 281.689H467.547V293.795H500.908V281.689Z" fill="#F4E8D5"/>
<path d="M387.282 281.689H353.988V293.795H387.282V281.689Z" fill="#F4E8D5"/>
<path d="M538.013 281.689H504.718V293.795H538.013V281.689Z" fill="#F4E8D5"/>
<path d="M350.111 281.689H316.884V293.795H350.111V281.689Z" fill="#F4E8D5"/>
<path d="M575.116 281.689H541.889V293.795H575.116V281.689Z" fill="#F4E8D5"/>
<path d="M312.94 281.689H279.779V293.795H312.94V281.689Z" fill="#F4E8D5"/>
<path d="M612.221 281.689H579.06V293.795H612.221V281.689Z" fill="#F4E8D5"/>
<path d="M279.779 316.451V328.556H312.94V316.451H279.779Z" fill="#F4E8D5"/>
<path d="M579.06 316.451V328.556H612.221V316.451H579.06Z" fill="#F4E8D5"/>
<path d="M350.111 351.212H316.884V363.318H350.111V351.212Z" fill="#F4E8D5"/>
<path d="M575.116 351.212H541.889V363.318H575.116V351.212Z" fill="#F4E8D5"/>
<path d="M387.282 351.212H353.988V363.318H387.282V351.212Z" fill="#F4E8D5"/>
<path d="M538.012 351.212H504.718V363.318H538.012V351.212Z" fill="#F4E8D5"/>
<path d="M424.453 351.212H391.092V363.318H424.453V351.212Z" fill="#F4E8D5"/>
<path d="M500.908 351.212H467.547V363.318H500.908V351.212Z" fill="#F4E8D5"/>
<path d="M428.196 316.451V328.556H463.804V316.451H428.196Z" fill="#F4E8D5"/>
<path d="M428.196 246.928V259.034H463.804V246.928H428.196Z" fill="#F4E8D5"/>
<path d="M391.092 246.928V259.034H424.453V246.928H391.092Z" fill="#F4E8D5"/>
<path d="M467.547 246.928V259.034H500.908V246.928H467.547Z" fill="#F4E8D5"/>
<path d="M353.988 246.928V259.034H387.282V246.928H353.988Z" fill="#F4E8D5"/>
<path d="M504.718 246.928V259.034H538.013V246.928H504.718Z" fill="#F4E8D5"/>
<path d="M316.884 246.928V259.034H350.111V246.928H316.884Z" fill="#F4E8D5"/>
<path d="M541.889 246.928V259.034H575.116V246.928H541.889Z" fill="#F4E8D5"/>
<path d="M279.779 246.928V259.034H312.94V246.928H279.779Z" fill="#F4E8D5"/>
<path d="M579.06 246.928V259.034H612.221V246.928H579.06Z" fill="#F4E8D5"/>
<path d="M242.675 246.928V259.034H275.769V246.928H242.675Z" fill="#F4E8D5"/>
<path d="M616.231 246.928V259.034H649.325V246.928H616.231Z" fill="#F4E8D5"/>
<path d="M275.769 281.689H242.675V293.795H275.769V281.689Z" fill="#F4E8D5"/>
<path d="M649.325 281.689H616.231V293.795H649.325V281.689Z" fill="#F4E8D5"/>
<path d="M242.675 316.451V328.556H275.769V316.451H242.675Z" fill="#F4E8D5"/>
<path d="M616.231 316.451V328.556H649.325V316.451H616.231Z" fill="#F4E8D5"/>
<path d="M275.769 351.212H242.675V363.318H275.769V351.212Z" fill="#F4E8D5"/>
<path d="M649.325 351.212H616.231V363.318H649.325V351.212Z" fill="#F4E8D5"/>
<path d="M312.94 385.973H279.779V398.079H312.94V385.973Z" fill="#F4E8D5"/>
<path d="M612.221 385.973H579.06V398.079H612.221V385.973Z" fill="#F4E8D5"/>
<path d="M350.111 385.973H316.884V398.079H350.111V385.973Z" fill="#F4E8D5"/>
<path d="M575.116 385.973H541.889V398.079H575.116V385.973Z" fill="#F4E8D5"/>
<path d="M387.282 385.973H353.988V398.079H387.282V385.973Z" fill="#F4E8D5"/>
<path d="M538.012 385.973H504.718V398.079H538.012V385.973Z" fill="#F4E8D5"/>
<path d="M424.453 385.973H391.092V398.079H424.453V385.973Z" fill="#F4E8D5"/>
<path d="M500.908 385.973H467.547V398.079H500.908V385.973Z" fill="#F4E8D5"/>
<path d="M428.196 212.167V224.273H463.804V212.167H428.196Z" fill="#F4E8D5"/>
<path d="M391.092 212.167V224.273H424.453V212.167H391.092Z" fill="#F4E8D5"/>
<path d="M467.547 212.167V224.273H500.908V212.167H467.547Z" fill="#F4E8D5"/>
<path d="M353.988 212.167V224.273H387.282V212.167H353.988Z" fill="#F4E8D5"/>
<path d="M504.718 212.167V224.273H538.013V212.167H504.718Z" fill="#F4E8D5"/>
<path d="M316.884 212.167V224.273H350.111V212.167H316.884Z" fill="#F4E8D5"/>
<path d="M541.889 212.167V224.273H575.116V212.167H541.889Z" fill="#F4E8D5"/>
<path d="M279.779 212.167V224.273H312.94V212.167H279.779Z" fill="#F4E8D5"/>
<path d="M579.06 212.167V224.273H612.221V212.167H579.06Z" fill="#F4E8D5"/>
<path d="M242.675 212.167V224.273H275.769V212.167H242.675Z" fill="#F4E8D5"/>
<path d="M616.231 212.167V224.273H649.325V212.167H616.231Z" fill="#F4E8D5"/>
<path d="M205.571 212.167V224.273H238.598V212.167H205.571Z" fill="#F4E8D5"/>
<path d="M653.402 212.167V224.273H686.429V212.167H653.402Z" fill="#F4E8D5"/>
<path d="M205.571 246.928V259.034H238.598V246.928H205.571Z" fill="#F4E8D5"/>
<path d="M653.402 246.928V259.034H686.429V246.928H653.402Z" fill="#F4E8D5"/>
<path d="M238.598 281.689H205.571V293.795H238.598V281.689Z" fill="#F4E8D5"/>
<path d="M686.429 281.689H653.402V293.795H686.429V281.689Z" fill="#F4E8D5"/>
<path d="M205.571 316.451V328.556H238.598V316.451H205.571Z" fill="#F4E8D5"/>
<path d="M653.402 316.451V328.556H686.429V316.451H653.402Z" fill="#F4E8D5"/>
<path d="M238.598 351.212H205.571V363.318H238.598V351.212Z" fill="#F4E8D5"/>
<path d="M686.429 351.212H653.402V363.318H686.429V351.212Z" fill="#F4E8D5"/>
<path d="M238.598 385.973H205.571V398.079H238.598V385.973Z" fill="#F4E8D5"/>
<path d="M686.429 385.973H653.402V398.079H686.429V385.973Z" fill="#F4E8D5"/>
<path d="M463.804 385.973H428.196V398.079H463.804V385.973Z" fill="#F4E8D5"/>
<path d="M463.804 177.405H428.196V189.511H463.804V177.405Z" fill="#F4E8D5"/>
<path d="M424.453 177.405H391.092V189.511H424.453V177.405Z" fill="#F4E8D5"/>
<path d="M500.908 177.405H467.547V189.511H500.908V177.405Z" fill="#F4E8D5"/>
<path d="M387.282 177.405H353.988V189.511H387.282V177.405Z" fill="#F4E8D5"/>
<path d="M538.013 177.405H504.718V189.511H538.013V177.405Z" fill="#F4E8D5"/>
<path d="M350.111 177.405H316.884V189.511H350.111V177.405Z" fill="#F4E8D5"/>
<path d="M575.116 177.405H541.889V189.511H575.116V177.405Z" fill="#F4E8D5"/>
<path d="M312.94 177.405H279.779V189.511H312.94V177.405Z" fill="#F4E8D5"/>
<path d="M612.221 177.405H579.06V189.511H612.221V177.405Z" fill="#F4E8D5"/>
<path d="M275.769 177.405H242.675V189.511H275.769V177.405Z" fill="#F4E8D5"/>
<path d="M649.325 177.405H616.231V189.511H649.325V177.405Z" fill="#F4E8D5"/>
<path d="M238.598 177.405H205.571V189.511H238.598V177.405Z" fill="#F4E8D5"/>
<path d="M686.429 177.405H653.402V189.511H686.429V177.405Z" fill="#F4E8D5"/>
<path d="M201.427 177.405H168.467V189.511H201.427V177.405Z" fill="#F4E8D5"/>
<path d="M723.533 177.405H690.573V189.511H723.533V177.405Z" fill="#F4E8D5"/>
<path d="M168.467 212.167V224.273H201.427V212.167H168.467Z" fill="#F4E8D5"/>
<path d="M690.573 212.167V224.273H723.533V212.167H690.573Z" fill="#F4E8D5"/>
<path d="M168.467 246.928V259.034H201.427V246.928H168.467Z" fill="#F4E8D5"/>
<path d="M690.573 246.928V259.034H723.533V246.928H690.573Z" fill="#F4E8D5"/>
<path d="M201.427 281.689H168.467V293.795H201.427V281.689Z" fill="#F4E8D5"/>
<path d="M723.533 281.689H690.573V293.795H723.533V281.689Z" fill="#F4E8D5"/>
<path d="M168.467 316.451V328.556H201.427V316.451H168.467Z" fill="#F4E8D5"/>
<path d="M690.573 316.451V328.556H723.533V316.451H690.573Z" fill="#F4E8D5"/>
<path d="M201.427 351.212H168.467V363.318H201.427V351.212Z" fill="#F4E8D5"/>
<path d="M723.533 351.212H690.573V363.318H723.533V351.212Z" fill="#F4E8D5"/>
<path d="M201.427 385.973H168.467V398.079H201.427V385.973Z" fill="#F4E8D5"/>
<path d="M723.533 385.973H690.573V398.079H723.533V385.973Z" fill="#F4E8D5"/>
<path d="M463.804 142.644H428.196V154.75H463.804V142.644Z" fill="#F4E8D5"/>
<path d="M424.453 142.644H391.092V154.75H424.453V142.644Z" fill="#F4E8D5"/>
<path d="M500.908 142.644H467.547V154.75H500.908V142.644Z" fill="#F4E8D5"/>
<path d="M387.282 142.644H353.988V154.75H387.282V142.644Z" fill="#F4E8D5"/>
<path d="M538.013 142.644H504.718V154.75H538.013V142.644Z" fill="#F4E8D5"/>
<path d="M350.111 142.644H316.884V154.75H350.111V142.644Z" fill="#F4E8D5"/>
<path d="M575.116 142.644H541.889V154.75H575.116V142.644Z" fill="#F4E8D5"/>
<path d="M312.94 142.644H279.779V154.75H312.94V142.644Z" fill="#F4E8D5"/>
<path d="M612.221 142.644H579.06V154.75H612.221V142.644Z" fill="#F4E8D5"/>
<path d="M275.769 142.644H242.675V154.75H275.769V142.644Z" fill="#F4E8D5"/>
<path d="M649.325 142.644H616.231V154.75H649.325V142.644Z" fill="#F4E8D5"/>
<path d="M238.598 142.644H205.571V154.75H238.598V142.644Z" fill="#F4E8D5"/>
<path d="M686.429 142.644H653.402V154.75H686.429V142.644Z" fill="#F4E8D5"/>
<path d="M201.427 142.644H168.467V154.75H201.427V142.644Z" fill="#F4E8D5"/>
<path d="M723.533 142.644H690.573V154.75H723.533V142.644Z" fill="#F4E8D5"/>
<path d="M164.256 142.644H131.363V154.75H164.256V142.644Z" fill="#F4E8D5"/>
<path d="M760.637 142.644H727.744V154.75H760.637V142.644Z" fill="#F4E8D5"/>
<path d="M164.256 177.405H131.363V189.511H164.256V177.405Z" fill="#F4E8D5"/>
<path d="M760.637 177.405H727.744V189.511H760.637V177.405Z" fill="#F4E8D5"/>
<path d="M131.363 212.167V224.273H164.256V212.167H131.363Z" fill="#F4E8D5"/>
<path d="M727.744 212.167V224.273H760.637V212.167H727.744Z" fill="#F4E8D5"/>
<path d="M131.363 246.928V259.034H164.256V246.928H131.363Z" fill="#F4E8D5"/>
<path d="M727.744 246.928V259.034H760.637V246.928H727.744Z" fill="#F4E8D5"/>
<path d="M164.256 281.689H131.363V293.795H164.256V281.689Z" fill="#F4E8D5"/>
<path d="M760.637 281.689H727.744V293.795H760.637V281.689Z" fill="#F4E8D5"/>
<path d="M131.363 316.451V328.556H164.256V316.451H131.363Z" fill="#F4E8D5"/>
<path d="M727.744 316.451V328.556H760.637V316.451H727.744Z" fill="#F4E8D5"/>
<path d="M164.256 351.212H131.363V363.318H164.256V351.212Z" fill="#F4E8D5"/>
<path d="M760.637 351.212H727.744V363.318H760.637V351.212Z" fill="#F4E8D5"/>
<path d="M164.256 385.973H131.363V398.079H164.256V385.973Z" fill="#F4E8D5"/>
<path d="M760.637 385.973H727.744V398.079H760.637V385.973Z" fill="#F4E8D5"/>
<path d="M424.453 107.883H391.092V119.988H424.453V107.883Z" fill="#F4E8D5"/>
<path d="M500.908 107.883H467.547V119.988H500.908V107.883Z" fill="#F4E8D5"/>
<path d="M387.282 107.883H353.988V119.988H387.282V107.883Z" fill="#F4E8D5"/>
<path d="M538.013 107.883H504.718V119.988H538.013V107.883Z" fill="#F4E8D5"/>
<path d="M350.111 107.883H316.884V119.988H350.111V107.883Z" fill="#F4E8D5"/>
<path d="M575.116 107.883H541.889V119.988H575.116V107.883Z" fill="#F4E8D5"/>
<path d="M312.94 107.883H279.779V119.988H312.94V107.883Z" fill="#F4E8D5"/>
<path d="M612.221 107.883H579.06V119.988H612.221V107.883Z" fill="#F4E8D5"/>
<path d="M275.769 107.883H242.675V119.988H275.769V107.883Z" fill="#F4E8D5"/>
<path d="M649.325 107.883H616.231V119.988H649.325V107.883Z" fill="#F4E8D5"/>
<path d="M238.598 107.883H205.571V119.988H238.598V107.883Z" fill="#F4E8D5"/>
<path d="M686.429 107.883H653.402V119.988H686.429V107.883Z" fill="#F4E8D5"/>
<path d="M201.427 107.883H168.467V119.988H201.427V107.883Z" fill="#F4E8D5"/>
<path d="M723.533 107.883H690.573V119.988H723.533V107.883Z" fill="#F4E8D5"/>
<path d="M164.256 107.883H131.363V119.988H164.256V107.883Z" fill="#F4E8D5"/>
<path d="M760.637 107.883H727.744V119.988H760.637V107.883Z" fill="#F4E8D5"/>
<path d="M127.085 107.883H94.2586V119.988H127.085V107.883Z" fill="#F4E8D5"/>
<path d="M797.742 107.883H764.915V119.988H797.742V107.883Z" fill="#F4E8D5"/>
<path d="M127.085 142.644H94.2586V154.75H127.085V142.644Z" fill="#F4E8D5"/>
<path d="M797.742 142.644H764.915V154.75H797.742V142.644Z" fill="#F4E8D5"/>
<path d="M127.085 177.405H94.2586V189.511H127.085V177.405Z" fill="#F4E8D5"/>
<path d="M797.742 177.405H764.915V189.511H797.742V177.405Z" fill="#F4E8D5"/>
<path d="M94.2586 212.167V224.273H127.085V212.167H94.2586Z" fill="#F4E8D5"/>
<path d="M764.915 212.167V224.273H797.741V212.167H764.915Z" fill="#F4E8D5"/>
<path d="M94.2586 246.928V259.034H127.085V246.928H94.2586Z" fill="#F4E8D5"/>
<path d="M764.915 246.928V259.034H797.741V246.928H764.915Z" fill="#F4E8D5"/>
<path d="M127.085 281.689H94.2586V293.795H127.085V281.689Z" fill="#F4E8D5"/>
<path d="M797.742 281.689H764.915V293.795H797.742V281.689Z" fill="#F4E8D5"/>
<path d="M94.2586 316.451V328.556H127.085V316.451H94.2586Z" fill="#F4E8D5"/>
<path d="M764.915 316.451V328.556H797.741V316.451H764.915Z" fill="#F4E8D5"/>
<path d="M127.085 351.212H94.2586V363.318H127.085V351.212Z" fill="#F4E8D5"/>
<path d="M797.742 351.212H764.915V363.318H797.742V351.212Z" fill="#F4E8D5"/>
<path d="M127.085 385.973H94.2586V398.079H127.085V385.973Z" fill="#F4E8D5"/>
<path d="M797.742 385.973H764.915V398.079H797.742V385.973Z" fill="#F4E8D5"/>
<path d="M428.196 73.121V85.2269H463.804V73.121H428.196Z" fill="#F4E8D5"/>
<path d="M391.092 73.121V85.2269H424.453V73.121H391.092Z" fill="#F4E8D5"/>
<path d="M467.547 73.121V85.2269H500.908V73.121H467.547Z" fill="#F4E8D5"/>
<path d="M353.988 73.121V85.2269H387.282V73.121H353.988Z" fill="#F4E8D5"/>
<path d="M504.718 73.121V85.2269H538.013V73.121H504.718Z" fill="#F4E8D5"/>
<path d="M316.884 73.121V85.2269H350.111V73.121H316.884Z" fill="#F4E8D5"/>
<path d="M541.889 73.121V85.2269H575.116V73.121H541.889Z" fill="#F4E8D5"/>
<path d="M279.779 73.121V85.2269H312.94V73.121H279.779Z" fill="#F4E8D5"/>
<path d="M579.06 73.121V85.2269H612.221V73.121H579.06Z" fill="#F4E8D5"/>
<path d="M242.675 73.121V85.2269H275.769V73.121H242.675Z" fill="#F4E8D5"/>
<path d="M616.231 73.121V85.2269H649.325V73.121H616.231Z" fill="#F4E8D5"/>
<path d="M205.571 73.121V85.2269H238.598V73.121H205.571Z" fill="#F4E8D5"/>
<path d="M653.402 73.121V85.2269H686.429V73.121H653.402Z" fill="#F4E8D5"/>
<path d="M168.467 73.121V85.2269H201.427V73.121H168.467Z" fill="#F4E8D5"/>
<path d="M690.573 73.121V85.2269H723.533V73.121H690.573Z" fill="#F4E8D5"/>
<path d="M131.363 73.121V85.2269H164.256V73.121H131.363Z" fill="#F4E8D5"/>
<path d="M727.744 73.121V85.2269H760.637V73.121H727.744Z" fill="#F4E8D5"/>
<path d="M94.2586 73.121V85.2269H127.085V73.121H94.2586Z" fill="#F4E8D5"/>
<path d="M764.915 73.121V85.2269H797.741V73.121H764.915Z" fill="#F4E8D5"/>
<path d="M57.1544 73.121V85.2269H89.9141V73.121H57.1544Z" fill="#F4E8D5"/>
<path d="M802.086 73.121V85.2269H834.846V73.121H802.086Z" fill="#F4E8D5"/>
<path d="M89.9141 107.883H57.1544V119.988H89.9141V107.883Z" fill="#F4E8D5"/>
<path d="M834.846 107.883H802.086V119.988H834.846V107.883Z" fill="#F4E8D5"/>
<path d="M89.9141 142.644H57.1544V154.75H89.9141V142.644Z" fill="#F4E8D5"/>
<path d="M834.846 142.644H802.086V154.75H834.846V142.644Z" fill="#F4E8D5"/>
<path d="M89.9141 177.405H57.1544V189.511H89.9141V177.405Z" fill="#F4E8D5"/>
<path d="M834.846 177.405H802.086V189.511H834.846V177.405Z" fill="#F4E8D5"/>
<path d="M57.1544 212.167V224.273H89.9141V212.167H57.1544Z" fill="#F4E8D5"/>
<path d="M802.086 212.167V224.273H834.846V212.167H802.086Z" fill="#F4E8D5"/>
<path d="M57.1544 246.928V259.034H89.9141V246.928H57.1544Z" fill="#F4E8D5"/>
<path d="M802.086 246.928V259.034H834.846V246.928H802.086Z" fill="#F4E8D5"/>
<path d="M89.9141 281.689H57.1544V293.795H89.9141V281.689Z" fill="#F4E8D5"/>
<path d="M834.846 281.689H802.086V293.795H834.846V281.689Z" fill="#F4E8D5"/>
<path d="M57.1544 316.451V328.556H89.9141V316.451H57.1544Z" fill="#F4E8D5"/>
<path d="M802.086 316.451V328.556H834.846V316.451H802.086Z" fill="#F4E8D5"/>
<path d="M89.9141 351.212H57.1544V363.318H89.9141V351.212Z" fill="#F4E8D5"/>
<path d="M834.846 351.212H802.086V363.318H834.846V351.212Z" fill="#F4E8D5"/>
<path d="M89.9141 385.973H57.1544V398.079H89.9141V385.973Z" fill="#F4E8D5"/>
<path d="M834.846 385.973H802.086V398.079H834.846V385.973Z" fill="#F4E8D5"/>
<path d="M463.804 38.3595H428.196V50.4654H463.804V38.3595Z" fill="#F4E8D5"/>
<path d="M424.453 38.3595H391.092V50.4654H424.453V38.3595Z" fill="#F4E8D5"/>
<path d="M500.908 38.3595H467.547V50.4654H500.908V38.3595Z" fill="#F4E8D5"/>
<path d="M387.282 38.3595H353.988V50.4654H387.282V38.3595Z" fill="#F4E8D5"/>
<path d="M538.013 38.3595H504.718V50.4654H538.013V38.3595Z" fill="#F4E8D5"/>
<path d="M350.111 38.3595H316.884V50.4654H350.111V38.3595Z" fill="#F4E8D5"/>
<path d="M575.116 38.3595H541.889V50.4654H575.116V38.3595Z" fill="#F4E8D5"/>
<path d="M312.94 38.3595H279.779V50.4654H312.94V38.3595Z" fill="#F4E8D5"/>
<path d="M612.221 38.3595H579.06V50.4654H612.221V38.3595Z" fill="#F4E8D5"/>
<path d="M275.769 38.3595H242.675V50.4654H275.769V38.3595Z" fill="#F4E8D5"/>
<path d="M649.325 38.3595H616.231V50.4654H649.325V38.3595Z" fill="#F4E8D5"/>
<path d="M238.598 38.3595H205.571V50.4654H238.598V38.3595Z" fill="#F4E8D5"/>
<path d="M686.429 38.3595H653.402V50.4654H686.429V38.3595Z" fill="#F4E8D5"/>
<path d="M201.427 38.3595H168.467V50.4654H201.427V38.3595Z" fill="#F4E8D5"/>
<path d="M723.533 38.3595H690.573V50.4654H723.533V38.3595Z" fill="#F4E8D5"/>
<path d="M164.256 38.3595H131.363V50.4654H164.256V38.3595Z" fill="#F4E8D5"/>
<path d="M760.637 38.3595H727.744V50.4654H760.637V38.3595Z" fill="#F4E8D5"/>
<path d="M127.085 38.3595H94.2586V50.4654H127.085V38.3595Z" fill="#F4E8D5"/>
<path d="M797.742 38.3595H764.915V50.4654H797.742V38.3595Z" fill="#F4E8D5"/>
<path d="M89.9141 38.3595H57.1544V50.4654H89.9141V38.3595Z" fill="#F4E8D5"/>
<path d="M834.846 38.3595H802.086V50.4654H834.846V38.3595Z" fill="#F4E8D5"/>
<path d="M52.7431 38.3595H20.0503V50.4654H52.7431V38.3595Z" fill="#F4E8D5"/>
<path d="M871.95 38.3595H839.257V50.4654H871.95V38.3595Z" fill="#F4E8D5"/>
<path d="M20.0503 73.121V85.2269H52.7431V73.121H20.0503Z" fill="#F4E8D5"/>
<path d="M839.257 73.121V85.2269H871.95V73.121H839.257Z" fill="#F4E8D5"/>
<path d="M52.7431 107.883H20.0503V119.988H52.7431V107.883Z" fill="#F4E8D5"/>
<path d="M871.95 107.883H839.257V119.988H871.95V107.883Z" fill="#F4E8D5"/>
<path d="M52.7431 142.644H20.0503V154.75H52.7431V142.644Z" fill="#F4E8D5"/>
<path d="M871.95 142.644H839.257V154.75H871.95V142.644Z" fill="#F4E8D5"/>
<path d="M52.7431 177.405H20.0503V189.511H52.7431V177.405Z" fill="#F4E8D5"/>
<path d="M871.95 177.405H839.257V189.511H871.95V177.405Z" fill="#F4E8D5"/>
<path d="M20.0503 212.167V224.273H52.7431V212.167H20.0503Z" fill="#F4E8D5"/>
<path d="M839.257 212.167V224.273H871.95V212.167H839.257Z" fill="#F4E8D5"/>
<path d="M20.0503 246.928V259.034H52.7431V246.928H20.0503Z" fill="#F4E8D5"/>
<path d="M839.257 246.928V259.034H871.95V246.928H839.257Z" fill="#F4E8D5"/>
<path d="M52.7431 281.689H20.0503V293.795H52.7431V281.689Z" fill="#F4E8D5"/>
<path d="M871.95 281.689H839.257V293.795H871.95V281.689Z" fill="#F4E8D5"/>
<path d="M20.0503 316.451V328.556H52.7431V316.451H20.0503Z" fill="#F4E8D5"/>
<path d="M839.257 316.451V328.556H871.95V316.451H839.257Z" fill="#F4E8D5"/>
<path d="M52.7431 351.212H20.0503V363.318H52.7431V351.212Z" fill="#F4E8D5"/>
<path d="M871.95 351.212H839.257V363.318H871.95V351.212Z" fill="#F4E8D5"/>
<path d="M52.7431 385.973H20.0503V398.079H52.7431V385.973Z" fill="#F4E8D5"/>
<path d="M871.95 385.973H839.257V398.079H871.95V385.973Z" fill="#F4E8D5"/>
<path d="M428.196 3.59833V15.7042H463.804V3.59833H428.196Z" fill="#F4E8D5"/>
<path d="M424.453 3.59833H391.092V15.7042H424.453V3.59833Z" fill="#F4E8D5"/>
<path d="M500.908 3.59833H467.547V15.7042H500.908V3.59833Z" fill="#F4E8D5"/>
<path d="M387.282 3.59833H353.988V15.7042H387.282V3.59833Z" fill="#F4E8D5"/>
<path d="M538.012 3.59833H504.718V15.7042H538.012V3.59833Z" fill="#F4E8D5"/>
<path d="M350.111 3.59833H316.884V15.7042H350.111V3.59833Z" fill="#F4E8D5"/>
<path d="M575.116 3.59833H541.889V15.7042H575.116V3.59833Z" fill="#F4E8D5"/>
<path d="M312.94 3.59833H279.779V15.7042H312.94V3.59833Z" fill="#F4E8D5"/>
<path d="M612.221 3.59833H579.06V15.7042H612.221V3.59833Z" fill="#F4E8D5"/>
<path d="M275.769 3.59833H242.675V15.7042H275.769V3.59833Z" fill="#F4E8D5"/>
<path d="M649.325 3.59833H616.231V15.7042H649.325V3.59833Z" fill="#F4E8D5"/>
<path d="M238.598 3.59833H205.571V15.7042H238.598V3.59833Z" fill="#F4E8D5"/>
<path d="M686.429 3.59833H653.402V15.7042H686.429V3.59833Z" fill="#F4E8D5"/>
<path d="M201.427 3.59833H168.467V15.7042H201.427V3.59833Z" fill="#F4E8D5"/>
<path d="M723.533 3.59833H690.573V15.7042H723.533V3.59833Z" fill="#F4E8D5"/>
<path d="M164.256 3.59833H131.363V15.7042H164.256V3.59833Z" fill="#F4E8D5"/>
<path d="M760.637 3.59833H727.744V15.7042H760.637V3.59833Z" fill="#F4E8D5"/>
<path d="M127.085 3.59833H94.2586V15.7042H127.085V3.59833Z" fill="#F4E8D5"/>
<path d="M797.741 3.59833H764.915V15.7042H797.741V3.59833Z" fill="#F4E8D5"/>
<path d="M89.9141 3.59833H57.1544V15.7042H89.9141V3.59833Z" fill="#F4E8D5"/>
<path d="M834.845 3.59833H802.086V15.7042H834.845V3.59833Z" fill="#F4E8D5"/>
<path d="M52.7431 3.59833H20.0503V15.7042H52.7431V3.59833Z" fill="#F4E8D5"/>
<path d="M871.95 3.59833H839.257V15.7042H871.95V3.59833Z" fill="#F4E8D5"/>
<path d="M463.804 385.973H428.196V398.079H463.804V385.973Z" fill="#F4E8D5"/>
<path d="M424.453 385.973H391.092V398.079H424.453V385.973Z" fill="#F4E8D5"/>
<path d="M500.908 385.973H467.547V398.079H500.908V385.973Z" fill="#F4E8D5"/>
<path d="M387.282 385.973H353.988V398.079H387.282V385.973Z" fill="#F4E8D5"/>
<path d="M538.013 385.973H504.718V398.079H538.013V385.973Z" fill="#F4E8D5"/>
<path d="M350.111 385.973H316.884V398.079H350.111V385.973Z" fill="#F4E8D5"/>
<path d="M575.116 385.973H541.889V398.079H575.116V385.973Z" fill="#F4E8D5"/>
<path d="M312.94 385.973H279.779V398.079H312.94V385.973Z" fill="#F4E8D5"/>
<path d="M612.221 385.973H579.06V398.079H612.221V385.973Z" fill="#F4E8D5"/>
<path d="M275.769 385.973H242.675V398.079H275.769V385.973Z" fill="#F4E8D5"/>
<path d="M649.325 385.973H616.231V398.079H649.325V385.973Z" fill="#F4E8D5"/>
<path d="M238.598 385.973H205.571V398.079H238.598V385.973Z" fill="#F4E8D5"/>
<path d="M686.429 385.973H653.402V398.079H686.429V385.973Z" fill="#F4E8D5"/>
<path d="M201.427 385.973H168.467V398.079H201.427V385.973Z" fill="#F4E8D5"/>
<path d="M723.533 385.973H690.573V398.079H723.533V385.973Z" fill="#F4E8D5"/>
<path d="M164.256 385.973H131.363V398.079H164.256V385.973Z" fill="#F4E8D5"/>
<path d="M760.637 385.973H727.744V398.079H760.637V385.973Z" fill="#F4E8D5"/>
<path d="M127.085 385.973H94.2586V398.079H127.085V385.973Z" fill="#F4E8D5"/>
<path d="M797.741 385.973H764.915V398.079H797.741V385.973Z" fill="#F4E8D5"/>
<path d="M89.9141 385.973H57.1544V398.079H89.9141V385.973Z" fill="#F4E8D5"/>
<path d="M834.845 385.973H802.086V398.079H834.845V385.973Z" fill="#F4E8D5"/>
<path d="M52.7431 385.973H20.0503V398.079H52.7431V385.973Z" fill="#F4E8D5"/>
<path d="M871.95 385.973H839.257V398.079H871.95V385.973Z" fill="#F4E8D5"/>
<path d="M424.453 351.212H391.092V363.318H424.453V351.212Z" fill="#F4E8D5"/>
<path d="M500.908 351.212H467.547V363.318H500.908V351.212Z" fill="#F4E8D5"/>
<path d="M387.282 351.212H353.988V363.318H387.282V351.212Z" fill="#F4E8D5"/>
<path d="M538.013 351.212H504.718V363.318H538.013V351.212Z" fill="#F4E8D5"/>
<path d="M350.111 351.212H316.884V363.318H350.111V351.212Z" fill="#F4E8D5"/>
<path d="M575.116 351.212H541.889V363.318H575.116V351.212Z" fill="#F4E8D5"/>
<path d="M312.94 351.212H279.779V363.318H312.94V351.212Z" fill="#F4E8D5"/>
<path d="M612.221 351.212H579.06V363.318H612.221V351.212Z" fill="#F4E8D5"/>
<path d="M275.769 351.212H242.675V363.318H275.769V351.212Z" fill="#F4E8D5"/>
<path d="M649.325 351.212H616.231V363.318H649.325V351.212Z" fill="#F4E8D5"/>
<path d="M238.598 351.212H205.571V363.318H238.598V351.212Z" fill="#F4E8D5"/>
<path d="M686.429 351.212H653.402V363.318H686.429V351.212Z" fill="#F4E8D5"/>
<path d="M201.427 351.212H168.467V363.318H201.427V351.212Z" fill="#F4E8D5"/>
<path d="M723.533 351.212H690.573V363.318H723.533V351.212Z" fill="#F4E8D5"/>
<path d="M164.256 351.212H131.363V363.318H164.256V351.212Z" fill="#F4E8D5"/>
<path d="M760.637 351.212H727.744V363.318H760.637V351.212Z" fill="#F4E8D5"/>
<path d="M127.085 351.212H94.2586V363.318H127.085V351.212Z" fill="#F4E8D5"/>
<path d="M797.741 351.212H764.915V363.318H797.741V351.212Z" fill="#F4E8D5"/>
<path d="M89.9141 351.212H57.1544V363.318H89.9141V351.212Z" fill="#F4E8D5"/>
<path d="M834.845 351.212H802.086V363.318H834.845V351.212Z" fill="#F4E8D5"/>
<path d="M52.7431 351.212H20.0503V363.318H52.7431V351.212Z" fill="#F4E8D5"/>
<path d="M871.95 351.212H839.257V363.318H871.95V351.212Z" fill="#F4E8D5"/>
<path d="M428.196 316.451V328.556H463.804V316.451H428.196Z" fill="#F4E8D5"/>
<path d="M424.453 316.451H391.092V328.557H424.453V316.451Z" fill="#F4E8D5"/>
<path d="M500.908 316.451H467.547V328.557H500.908V316.451Z" fill="#F4E8D5"/>
<path d="M387.282 316.451H353.988V328.557H387.282V316.451Z" fill="#F4E8D5"/>
<path d="M538.013 316.451H504.718V328.557H538.013V316.451Z" fill="#F4E8D5"/>
<path d="M350.111 316.451H316.884V328.557H350.111V316.451Z" fill="#F4E8D5"/>
<path d="M575.116 316.451H541.889V328.557H575.116V316.451Z" fill="#F4E8D5"/>
<path d="M312.94 316.451H279.779V328.557H312.94V316.451Z" fill="#F4E8D5"/>
<path d="M612.221 316.451H579.06V328.557H612.221V316.451Z" fill="#F4E8D5"/>
<path d="M275.769 316.451H242.675V328.557H275.769V316.451Z" fill="#F4E8D5"/>
<path d="M649.325 316.451H616.231V328.557H649.325V316.451Z" fill="#F4E8D5"/>
<path d="M238.598 316.451H205.571V328.557H238.598V316.451Z" fill="#F4E8D5"/>
<path d="M686.429 316.451H653.402V328.557H686.429V316.451Z" fill="#F4E8D5"/>
<path d="M201.427 316.451H168.467V328.557H201.427V316.451Z" fill="#F4E8D5"/>
<path d="M723.533 316.451H690.573V328.557H723.533V316.451Z" fill="#F4E8D5"/>
<path d="M164.256 316.451H131.363V328.557H164.256V316.451Z" fill="#F4E8D5"/>
<path d="M760.637 316.451H727.744V328.557H760.637V316.451Z" fill="#F4E8D5"/>
<path d="M127.085 316.451H94.2586V328.557H127.085V316.451Z" fill="#F4E8D5"/>
<path d="M797.741 316.451H764.915V328.557H797.741V316.451Z" fill="#F4E8D5"/>
<path d="M89.9141 316.451H57.1544V328.557H89.9141V316.451Z" fill="#F4E8D5"/>
<path d="M834.845 316.451H802.086V328.557H834.845V316.451Z" fill="#F4E8D5"/>
<path d="M52.7431 316.451H20.0503V328.557H52.7431V316.451Z" fill="#F4E8D5"/>
<path d="M871.95 316.451H839.257V328.557H871.95V316.451Z" fill="#F4E8D5"/>
<path d="M463.804 281.689H428.196V293.795H463.804V281.689Z" fill="#F4E8D5"/>
<path d="M424.453 281.689H391.092V293.795H424.453V281.689Z" fill="#F4E8D5"/>
<path d="M500.908 281.689H467.547V293.795H500.908V281.689Z" fill="#F4E8D5"/>
<path d="M387.282 281.689H353.988V293.795H387.282V281.689Z" fill="#F4E8D5"/>
<path d="M538.012 281.689H504.718V293.795H538.012V281.689Z" fill="#F4E8D5"/>
<path d="M350.111 281.689H316.884V293.795H350.111V281.689Z" fill="#F4E8D5"/>
<path d="M575.116 281.689H541.889V293.795H575.116V281.689Z" fill="#F4E8D5"/>
<path d="M312.94 281.689H279.779V293.795H312.94V281.689Z" fill="#F4E8D5"/>
<path d="M612.221 281.689H579.06V293.795H612.221V281.689Z" fill="#F4E8D5"/>
<path d="M275.769 281.689H242.675V293.795H275.769V281.689Z" fill="#F4E8D5"/>
<path d="M649.325 281.689H616.231V293.795H649.325V281.689Z" fill="#F4E8D5"/>
<path d="M238.598 281.689H205.571V293.795H238.598V281.689Z" fill="#F4E8D5"/>
<path d="M686.429 281.689H653.402V293.795H686.429V281.689Z" fill="#F4E8D5"/>
<path d="M201.427 281.689H168.467V293.795H201.427V281.689Z" fill="#F4E8D5"/>
<path d="M723.533 281.689H690.573V293.795H723.533V281.689Z" fill="#F4E8D5"/>
<path d="M164.256 281.689H131.363V293.795H164.256V281.689Z" fill="#F4E8D5"/>
<path d="M760.637 281.689H727.744V293.795H760.637V281.689Z" fill="#F4E8D5"/>
<path d="M127.085 281.689H94.2586V293.795H127.085V281.689Z" fill="#F4E8D5"/>
<path d="M797.741 281.689H764.915V293.795H797.741V281.689Z" fill="#F4E8D5"/>
<path d="M89.9141 281.689H57.1544V293.795H89.9141V281.689Z" fill="#F4E8D5"/>
<path d="M834.845 281.689H802.086V293.795H834.845V281.689Z" fill="#F4E8D5"/>
<path d="M52.7431 281.689H20.0503V293.795H52.7431V281.689Z" fill="#F4E8D5"/>
<path d="M871.95 281.689H839.257V293.795H871.95V281.689Z" fill="#F4E8D5"/>
<path d="M428.196 246.928V259.034H463.804V246.928H428.196Z" fill="#F4E8D5"/>
<path d="M424.453 246.928H391.092V259.034H424.453V246.928Z" fill="#F4E8D5"/>
<path d="M500.908 246.928H467.547V259.034H500.908V246.928Z" fill="#F4E8D5"/>
<path d="M387.282 246.928H353.988V259.034H387.282V246.928Z" fill="#F4E8D5"/>
<path d="M538.012 246.928H504.718V259.034H538.012V246.928Z" fill="#F4E8D5"/>
<path d="M350.111 246.928H316.884V259.034H350.111V246.928Z" fill="#F4E8D5"/>
<path d="M575.116 246.928H541.889V259.034H575.116V246.928Z" fill="#F4E8D5"/>
<path d="M312.94 246.928H279.779V259.034H312.94V246.928Z" fill="#F4E8D5"/>
<path d="M612.221 246.928H579.06V259.034H612.221V246.928Z" fill="#F4E8D5"/>
<path d="M275.769 246.928H242.675V259.034H275.769V246.928Z" fill="#F4E8D5"/>
<path d="M649.325 246.928H616.231V259.034H649.325V246.928Z" fill="#F4E8D5"/>
<path d="M238.598 246.928H205.571V259.034H238.598V246.928Z" fill="#F4E8D5"/>
<path d="M686.429 246.928H653.402V259.034H686.429V246.928Z" fill="#F4E8D5"/>
<path d="M201.427 246.928H168.467V259.034H201.427V246.928Z" fill="#F4E8D5"/>
<path d="M723.533 246.928H690.573V259.034H723.533V246.928Z" fill="#F4E8D5"/>
<path d="M164.256 246.928H131.363V259.034H164.256V246.928Z" fill="#F4E8D5"/>
<path d="M760.637 246.928H727.744V259.034H760.637V246.928Z" fill="#F4E8D5"/>
<path d="M127.085 246.928H94.2586V259.034H127.085V246.928Z" fill="#F4E8D5"/>
<path d="M797.741 246.928H764.915V259.034H797.741V246.928Z" fill="#F4E8D5"/>
<path d="M89.9141 246.928H57.1544V259.034H89.9141V246.928Z" fill="#F4E8D5"/>
<path d="M834.845 246.928H802.086V259.034H834.845V246.928Z" fill="#F4E8D5"/>
<path d="M52.7431 246.928H20.0503V259.034H52.7431V246.928Z" fill="#F4E8D5"/>
<path d="M871.95 246.928H839.257V259.034H871.95V246.928Z" fill="#F4E8D5"/>
<path d="M428.196 212.167V224.273H463.804V212.167H428.196Z" fill="#F4E8D5"/>
<path d="M424.453 212.167H391.092V224.273H424.453V212.167Z" fill="#F4E8D5"/>
<path d="M500.908 212.167H467.547V224.273H500.908V212.167Z" fill="#F4E8D5"/>
<path d="M387.282 212.167H353.988V224.273H387.282V212.167Z" fill="#F4E8D5"/>
<path d="M538.012 212.167H504.718V224.273H538.012V212.167Z" fill="#F4E8D5"/>
<path d="M350.111 212.167H316.884V224.273H350.111V212.167Z" fill="#F4E8D5"/>
<path d="M575.116 212.167H541.889V224.273H575.116V212.167Z" fill="#F4E8D5"/>
<path d="M312.94 212.167H279.779V224.273H312.94V212.167Z" fill="#F4E8D5"/>
<path d="M612.221 212.167H579.06V224.273H612.221V212.167Z" fill="#F4E8D5"/>
<path d="M275.769 212.167H242.675V224.273H275.769V212.167Z" fill="#F4E8D5"/>
<path d="M649.325 212.167H616.231V224.273H649.325V212.167Z" fill="#F4E8D5"/>
<path d="M238.598 212.167H205.571V224.273H238.598V212.167Z" fill="#F4E8D5"/>
<path d="M686.429 212.167H653.402V224.273H686.429V212.167Z" fill="#F4E8D5"/>
<path d="M201.427 212.167H168.467V224.273H201.427V212.167Z" fill="#F4E8D5"/>
<path d="M723.533 212.167H690.573V224.273H723.533V212.167Z" fill="#F4E8D5"/>
<path d="M164.256 212.167H131.363V224.273H164.256V212.167Z" fill="#F4E8D5"/>
<path d="M760.637 212.167H727.744V224.273H760.637V212.167Z" fill="#F4E8D5"/>
<path d="M127.085 212.167H94.2586V224.273H127.085V212.167Z" fill="#F4E8D5"/>
<path d="M797.741 212.167H764.915V224.273H797.741V212.167Z" fill="#F4E8D5"/>
<path d="M89.9141 212.167H57.1544V224.273H89.9141V212.167Z" fill="#F4E8D5"/>
<path d="M834.845 212.167H802.086V224.273H834.845V212.167Z" fill="#F4E8D5"/>
<path d="M52.7431 212.167H20.0503V224.273H52.7431V212.167Z" fill="#F4E8D5"/>
<path d="M871.95 212.167H839.257V224.273H871.95V212.167Z" fill="#F4E8D5"/>
<path d="M463.804 177.405H428.196V189.511H463.804V177.405Z" fill="#F4E8D5"/>
<path d="M424.453 177.405H391.092V189.511H424.453V177.405Z" fill="#F4E8D5"/>
<path d="M500.908 177.405H467.547V189.511H500.908V177.405Z" fill="#F4E8D5"/>
<path d="M387.282 177.405H353.988V189.511H387.282V177.405Z" fill="#F4E8D5"/>
<path d="M538.012 177.405H504.718V189.511H538.012V177.405Z" fill="#F4E8D5"/>
<path d="M350.111 177.405H316.884V189.511H350.111V177.405Z" fill="#F4E8D5"/>
<path d="M575.116 177.405H541.889V189.511H575.116V177.405Z" fill="#F4E8D5"/>
<path d="M312.94 177.405H279.779V189.511H312.94V177.405Z" fill="#F4E8D5"/>
<path d="M612.221 177.405H579.06V189.511H612.221V177.405Z" fill="#F4E8D5"/>
<path d="M275.769 177.405H242.675V189.511H275.769V177.405Z" fill="#F4E8D5"/>
<path d="M649.325 177.405H616.231V189.511H649.325V177.405Z" fill="#F4E8D5"/>
<path d="M238.598 177.405H205.571V189.511H238.598V177.405Z" fill="#F4E8D5"/>
<path d="M686.429 177.405H653.402V189.511H686.429V177.405Z" fill="#F4E8D5"/>
<path d="M201.427 177.405H168.467V189.511H201.427V177.405Z" fill="#F4E8D5"/>
<path d="M723.533 177.405H690.573V189.511H723.533V177.405Z" fill="#F4E8D5"/>
<path d="M164.256 177.405H131.363V189.511H164.256V177.405Z" fill="#F4E8D5"/>
<path d="M760.637 177.405H727.744V189.511H760.637V177.405Z" fill="#F4E8D5"/>
<path d="M127.085 177.405H94.2586V189.511H127.085V177.405Z" fill="#F4E8D5"/>
<path d="M797.741 177.405H764.915V189.511H797.741V177.405Z" fill="#F4E8D5"/>
<path d="M89.9141 177.405H57.1544V189.511H89.9141V177.405Z" fill="#F4E8D5"/>
<path d="M834.845 177.405H802.086V189.511H834.845V177.405Z" fill="#F4E8D5"/>
<path d="M52.7431 177.405H20.0503V189.511H52.7431V177.405Z" fill="#F4E8D5"/>
<path d="M871.95 177.405H839.257V189.511H871.95V177.405Z" fill="#F4E8D5"/>
<path d="M463.804 142.644H428.196V154.75H463.804V142.644Z" fill="#F4E8D5"/>
<path d="M424.453 142.644H391.092V154.75H424.453V142.644Z" fill="#F4E8D5"/>
<path d="M500.908 142.644H467.547V154.75H500.908V142.644Z" fill="#F4E8D5"/>
<path d="M387.282 142.644H353.988V154.75H387.282V142.644Z" fill="#F4E8D5"/>
<path d="M538.012 142.644H504.718V154.75H538.012V142.644Z" fill="#F4E8D5"/>
<path d="M350.111 142.644H316.884V154.75H350.111V142.644Z" fill="#F4E8D5"/>
<path d="M575.116 142.644H541.889V154.75H575.116V142.644Z" fill="#F4E8D5"/>
<path d="M312.94 142.644H279.779V154.75H312.94V142.644Z" fill="#F4E8D5"/>
<path d="M612.221 142.644H579.06V154.75H612.221V142.644Z" fill="#F4E8D5"/>
<path d="M275.769 142.644H242.675V154.75H275.769V142.644Z" fill="#F4E8D5"/>
<path d="M649.325 142.644H616.231V154.75H649.325V142.644Z" fill="#F4E8D5"/>
<path d="M238.598 142.644H205.571V154.75H238.598V142.644Z" fill="#F4E8D5"/>
<path d="M686.429 142.644H653.402V154.75H686.429V142.644Z" fill="#F4E8D5"/>
<path d="M201.427 142.644H168.467V154.75H201.427V142.644Z" fill="#F4E8D5"/>
<path d="M723.533 142.644H690.573V154.75H723.533V142.644Z" fill="#F4E8D5"/>
<path d="M164.256 142.644H131.363V154.75H164.256V142.644Z" fill="#F4E8D5"/>
<path d="M760.637 142.644H727.744V154.75H760.637V142.644Z" fill="#F4E8D5"/>
<path d="M127.085 142.644H94.2586V154.75H127.085V142.644Z" fill="#F4E8D5"/>
<path d="M797.741 142.644H764.915V154.75H797.741V142.644Z" fill="#F4E8D5"/>
<path d="M89.9141 142.644H57.1544V154.75H89.9141V142.644Z" fill="#F4E8D5"/>
<path d="M834.845 142.644H802.086V154.75H834.845V142.644Z" fill="#F4E8D5"/>
<path d="M52.7431 142.644H20.0503V154.75H52.7431V142.644Z" fill="#F4E8D5"/>
<path d="M871.95 142.644H839.257V154.75H871.95V142.644Z" fill="#F4E8D5"/>
<path d="M463.804 107.883H428.196V119.988H463.804V107.883Z" fill="#F4E8D5"/>
<path d="M424.453 107.883H391.092V119.988H424.453V107.883Z" fill="#F4E8D5"/>
<path d="M500.908 107.883H467.547V119.988H500.908V107.883Z" fill="#F4E8D5"/>
<path d="M387.282 107.883H353.988V119.988H387.282V107.883Z" fill="#F4E8D5"/>
<path d="M538.012 107.883H504.718V119.988H538.012V107.883Z" fill="#F4E8D5"/>
<path d="M350.111 107.883H316.884V119.988H350.111V107.883Z" fill="#F4E8D5"/>
<path d="M575.116 107.883H541.889V119.988H575.116V107.883Z" fill="#F4E8D5"/>
<path d="M312.94 107.883H279.779V119.988H312.94V107.883Z" fill="#F4E8D5"/>
<path d="M612.221 107.883H579.06V119.988H612.221V107.883Z" fill="#F4E8D5"/>
<path d="M275.769 107.883H242.675V119.988H275.769V107.883Z" fill="#F4E8D5"/>
<path d="M649.325 107.883H616.231V119.988H649.325V107.883Z" fill="#F4E8D5"/>
<path d="M238.598 107.883H205.571V119.988H238.598V107.883Z" fill="#F4E8D5"/>
<path d="M686.429 107.883H653.402V119.988H686.429V107.883Z" fill="#F4E8D5"/>
<path d="M201.427 107.883H168.467V119.988H201.427V107.883Z" fill="#F4E8D5"/>
<path d="M723.533 107.883H690.573V119.988H723.533V107.883Z" fill="#F4E8D5"/>
<path d="M164.256 107.883H131.363V119.988H164.256V107.883Z" fill="#F4E8D5"/>
<path d="M760.637 107.883H727.744V119.988H760.637V107.883Z" fill="#F4E8D5"/>
<path d="M127.085 107.883H94.2586V119.988H127.085V107.883Z" fill="#F4E8D5"/>
<path d="M797.741 107.883H764.915V119.988H797.741V107.883Z" fill="#F4E8D5"/>
<path d="M89.9141 107.883H57.1544V119.988H89.9141V107.883Z" fill="#F4E8D5"/>
<path d="M834.845 107.883H802.086V119.988H834.845V107.883Z" fill="#F4E8D5"/>
<path d="M52.7431 107.883H20.0503V119.988H52.7431V107.883Z" fill="#F4E8D5"/>
<path d="M871.95 107.883H839.257V119.988H871.95V107.883Z" fill="#F4E8D5"/>
<path d="M428.196 73.121V85.2269H463.804V73.121H428.196Z" fill="#F4E8D5"/>
<path d="M424.453 73.121H391.092V85.2269H424.453V73.121Z" fill="#F4E8D5"/>
<path d="M500.908 73.121H467.547V85.2269H500.908V73.121Z" fill="#F4E8D5"/>
<path d="M387.282 73.121H353.988V85.2269H387.282V73.121Z" fill="#F4E8D5"/>
<path d="M538.012 73.121H504.718V85.2269H538.012V73.121Z" fill="#F4E8D5"/>
<path d="M350.111 73.121H316.884V85.2269H350.111V73.121Z" fill="#F4E8D5"/>
<path d="M575.116 73.121H541.889V85.2269H575.116V73.121Z" fill="#F4E8D5"/>
<path d="M312.94 73.121H279.779V85.2269H312.94V73.121Z" fill="#F4E8D5"/>
<path d="M612.221 73.121H579.06V85.2269H612.221V73.121Z" fill="#F4E8D5"/>
<path d="M275.769 73.121H242.675V85.2269H275.769V73.121Z" fill="#F4E8D5"/>
<path d="M649.325 73.121H616.231V85.2269H649.325V73.121Z" fill="#F4E8D5"/>
<path d="M238.598 73.121H205.571V85.2269H238.598V73.121Z" fill="#F4E8D5"/>
<path d="M686.429 73.121H653.402V85.2269H686.429V73.121Z" fill="#F4E8D5"/>
<path d="M201.427 73.121H168.467V85.2269H201.427V73.121Z" fill="#F4E8D5"/>
<path d="M723.533 73.121H690.573V85.2269H723.533V73.121Z" fill="#F4E8D5"/>
<path d="M164.256 73.121H131.363V85.2269H164.256V73.121Z" fill="#F4E8D5"/>
<path d="M760.637 73.121H727.744V85.2269H760.637V73.121Z" fill="#F4E8D5"/>
<path d="M127.085 73.121H94.2586V85.2269H127.085V73.121Z" fill="#F4E8D5"/>
<path d="M797.741 73.121H764.915V85.2269H797.741V73.121Z" fill="#F4E8D5"/>
<path d="M89.9141 73.121H57.1544V85.2269H89.9141V73.121Z" fill="#F4E8D5"/>
<path d="M834.845 73.121H802.086V85.2269H834.845V73.121Z" fill="#F4E8D5"/>
<path d="M52.7431 73.121H20.0503V85.2269H52.7431V73.121Z" fill="#F4E8D5"/>
<path d="M871.95 73.121H839.257V85.2269H871.95V73.121Z" fill="#F4E8D5"/>
<path d="M463.804 38.3595H428.196V50.4654H463.804V38.3595Z" fill="#F4E8D5"/>
<path d="M424.453 38.3595H391.092V50.4654H424.453V38.3595Z" fill="#F4E8D5"/>
<path d="M500.908 38.3595H467.547V50.4654H500.908V38.3595Z" fill="#F4E8D5"/>
<path d="M387.282 38.3595H353.988V50.4654H387.282V38.3595Z" fill="#F4E8D5"/>
<path d="M538.012 38.3595H504.718V50.4654H538.012V38.3595Z" fill="#F4E8D5"/>
<path d="M350.111 38.3595H316.884V50.4654H350.111V38.3595Z" fill="#F4E8D5"/>
<path d="M575.116 38.3595H541.889V50.4654H575.116V38.3595Z" fill="#F4E8D5"/>
<path d="M312.94 38.3595H279.779V50.4654H312.94V38.3595Z" fill="#F4E8D5"/>
<path d="M612.221 38.3595H579.06V50.4654H612.221V38.3595Z" fill="#F4E8D5"/>
<path d="M275.769 38.3595H242.675V50.4654H275.769V38.3595Z" fill="#F4E8D5"/>
<path d="M649.325 38.3595H616.231V50.4654H649.325V38.3595Z" fill="#F4E8D5"/>
<path d="M238.598 38.3595H205.571V50.4654H238.598V38.3595Z" fill="#F4E8D5"/>
<path d="M686.429 38.3595H653.402V50.4654H686.429V38.3595Z" fill="#F4E8D5"/>
<path d="M201.427 38.3595H168.467V50.4654H201.427V38.3595Z" fill="#F4E8D5"/>
<path d="M723.533 38.3595H690.573V50.4654H723.533V38.3595Z" fill="#F4E8D5"/>
<path d="M164.256 38.3595H131.363V50.4654H164.256V38.3595Z" fill="#F4E8D5"/>
<path d="M760.637 38.3595H727.744V50.4654H760.637V38.3595Z" fill="#F4E8D5"/>
<path d="M127.085 38.3595H94.2586V50.4654H127.085V38.3595Z" fill="#F4E8D5"/>
<path d="M797.741 38.3595H764.915V50.4654H797.741V38.3595Z" fill="#F4E8D5"/>
<path d="M89.9141 38.3595H57.1544V50.4654H89.9141V38.3595Z" fill="#F4E8D5"/>
<path d="M834.845 38.3595H802.086V50.4654H834.845V38.3595Z" fill="#F4E8D5"/>
<path d="M52.7431 38.3595H20.0503V50.4654H52.7431V38.3595Z" fill="#F4E8D5"/>
<path d="M871.95 38.3595H839.257V50.4654H871.95V38.3595Z" fill="#F4E8D5"/>
<path d="M428.196 3.59833V15.7042H463.804V3.59833H428.196Z" fill="#F4E8D5"/>
<path d="M424.453 3.59833H391.092V15.7042H424.453V3.59833Z" fill="#F4E8D5"/>
<path d="M500.908 3.59833H467.547V15.7042H500.908V3.59833Z" fill="#F4E8D5"/>
<path d="M387.282 3.59833H353.988V15.7042H387.282V3.59833Z" fill="#F4E8D5"/>
<path d="M538.013 3.59833H504.718V15.7042H538.013V3.59833Z" fill="#F4E8D5"/>
<path d="M350.111 3.59833H316.884V15.7042H350.111V3.59833Z" fill="#F4E8D5"/>
<path d="M575.116 3.59833H541.889V15.7042H575.116V3.59833Z" fill="#F4E8D5"/>
<path d="M312.94 3.59833H279.779V15.7042H312.94V3.59833Z" fill="#F4E8D5"/>
<path d="M612.221 3.59833H579.06V15.7042H612.221V3.59833Z" fill="#F4E8D5"/>
<path d="M275.769 3.59833H242.675V15.7042H275.769V3.59833Z" fill="#F4E8D5"/>
<path d="M649.325 3.59833H616.231V15.7042H649.325V3.59833Z" fill="#F4E8D5"/>
<path d="M238.598 3.59833H205.571V15.7042H238.598V3.59833Z" fill="#F4E8D5"/>
<path d="M686.429 3.59833H653.402V15.7042H686.429V3.59833Z" fill="#F4E8D5"/>
<path d="M201.427 3.59833H168.467V15.7042H201.427V3.59833Z" fill="#F4E8D5"/>
<path d="M723.533 3.59833H690.573V15.7042H723.533V3.59833Z" fill="#F4E8D5"/>
<path d="M164.256 3.59833H131.363V15.7042H164.256V3.59833Z" fill="#F4E8D5"/>
<path d="M760.637 3.59833H727.744V15.7042H760.637V3.59833Z" fill="#F4E8D5"/>
<path d="M127.085 3.59833H94.2586V15.7042H127.085V3.59833Z" fill="#F4E8D5"/>
<path d="M797.742 3.59833H764.915V15.7042H797.742V3.59833Z" fill="#F4E8D5"/>
<path d="M89.9141 3.59833H57.1544V15.7042H89.9141V3.59833Z" fill="#F4E8D5"/>
<path d="M834.846 3.59833H802.086V15.7042H834.846V3.59833Z" fill="#F4E8D5"/>
<path d="M52.7431 3.59833H20.0503V15.7042H52.7431V3.59833Z" fill="#F4E8D5"/>
<path d="M871.95 3.59833H839.257V15.7042H871.95V3.59833Z" fill="#F4E8D5"/>
<path d="M14.9557 385.973H0V398.079H14.9557V385.973Z" fill="#F4E8D5"/>
<path d="M892 385.973H877.045V398.079H892V385.973Z" fill="#F4E8D5"/>
<path d="M14.9557 351.212H0V363.318H14.9557V351.212Z" fill="#F4E8D5"/>
<path d="M892 351.212H877.045V363.318H892V351.212Z" fill="#F4E8D5"/>
<path d="M14.9557 316.451H0V328.556H14.9557V316.451Z" fill="#F4E8D5"/>
<path d="M892 316.451H877.045V328.556H892V316.451Z" fill="#F4E8D5"/>
<path d="M14.9557 281.689H0V293.795H14.9557V281.689Z" fill="#F4E8D5"/>
<path d="M892 281.689H877.045V293.795H892V281.689Z" fill="#F4E8D5"/>
<path d="M14.9557 246.928H0V259.034H14.9557V246.928Z" fill="#F4E8D5"/>
<path d="M892 246.928H877.045V259.034H892V246.928Z" fill="#F4E8D5"/>
<path d="M14.9557 212.167H0V224.273H14.9557V212.167Z" fill="#F4E8D5"/>
<path d="M892 212.167H877.045V224.273H892V212.167Z" fill="#F4E8D5"/>
<path d="M14.9557 177.405H0V189.511H14.9557V177.405Z" fill="#F4E8D5"/>
<path d="M892 177.405H877.045V189.511H892V177.405Z" fill="#F4E8D5"/>
<path d="M14.9557 142.644H0V154.75H14.9557V142.644Z" fill="#F4E8D5"/>
<path d="M892 142.644H877.045V154.75H892V142.644Z" fill="#F4E8D5"/>
<path d="M14.9557 107.883H0V119.988H14.9557V107.883Z" fill="#F4E8D5"/>
<path d="M892 107.883H877.045V119.988H892V107.883Z" fill="#F4E8D5"/>
<path d="M14.9557 73.121H0V85.2269H14.9557V73.121Z" fill="#F4E8D5"/>
<path d="M892 73.121H877.045V85.2269H892V73.121Z" fill="#F4E8D5"/>
<path d="M14.9557 38.3599H0V50.4657H14.9557V38.3599Z" fill="#F4E8D5"/>
<path d="M892 38.3599H877.045V50.4657H892V38.3599Z" fill="#F4E8D5"/>
<path d="M14.9557 3.59833H0V15.7042H14.9557V3.59833Z" fill="#F4E8D5"/>
<path d="M892 3.59833H877.045V15.7042H892V3.59833Z" fill="#F4E8D5"/>
<path d="M443.957 403.354H410.529V412H443.957V403.354Z" fill="#F4E8D5"/>
<path d="M481.471 403.354H448.043V412H481.471V403.354Z" fill="#F4E8D5"/>
<path d="M406.786 403.354H373.425V412H406.786V403.354Z" fill="#F4E8D5"/>
<path d="M518.575 403.354H485.214V412H518.575V403.354Z" fill="#F4E8D5"/>
<path d="M369.615 403.354H336.321V412H369.615V403.354Z" fill="#F4E8D5"/>
<path d="M555.68 403.354H522.385V412H555.68V403.354Z" fill="#F4E8D5"/>
<path d="M332.444 403.354H299.217V412H332.444V403.354Z" fill="#F4E8D5"/>
<path d="M592.783 403.354H559.556V412H592.783V403.354Z" fill="#F4E8D5"/>
<path d="M295.273 403.354H262.112V412H295.273V403.354Z" fill="#F4E8D5"/>
<path d="M629.888 403.354H596.727V412H629.888V403.354Z" fill="#F4E8D5"/>
<path d="M258.102 403.354H225.008V412H258.102V403.354Z" fill="#F4E8D5"/>
<path d="M666.992 403.354H633.898V412H666.992V403.354Z" fill="#F4E8D5"/>
<path d="M220.931 403.354H187.904V412H220.931V403.354Z" fill="#F4E8D5"/>
<path d="M704.096 403.354H671.069V412H704.096V403.354Z" fill="#F4E8D5"/>
<path d="M183.76 403.354H150.8V412H183.76V403.354Z" fill="#F4E8D5"/>
<path d="M741.201 403.354H708.24V412H741.201V403.354Z" fill="#F4E8D5"/>
<path d="M146.589 403.354H113.696V412H146.589V403.354Z" fill="#F4E8D5"/>
<path d="M778.305 403.354H745.411V412H778.305V403.354Z" fill="#F4E8D5"/>
<path d="M109.418 403.354H76.5916V412H109.418V403.354Z" fill="#F4E8D5"/>
<path d="M815.408 403.354H782.582V412H815.408V403.354Z" fill="#F4E8D5"/>
<path d="M72.247 403.354H39.4874V412H72.247V403.354Z" fill="#F4E8D5"/>
<path d="M852.513 403.354H819.753V412H852.513V403.354Z" fill="#F4E8D5"/>
<path d="M35.0757 403.354H2.38327V412H35.0757V403.354Z" fill="#F4E8D5"/>
<path d="M889.617 403.354H856.925V412H889.617V403.354Z" fill="#F4E8D5"/>
<path d="M443.96 368.593H410.532V380.698H443.96V368.593Z" fill="#F4E8D5"/>
<path d="M481.468 368.593H448.04V380.698H481.468V368.593Z" fill="#F4E8D5"/>
<path d="M406.789 368.593H373.428V380.698H406.789V368.593Z" fill="#F4E8D5"/>
<path d="M518.573 368.593H485.211V380.698H518.573V368.593Z" fill="#F4E8D5"/>
<path d="M369.618 368.593H336.323V380.698H369.618V368.593Z" fill="#F4E8D5"/>
<path d="M555.677 368.593H522.382V380.698H555.677V368.593Z" fill="#F4E8D5"/>
<path d="M332.447 368.593H299.22V380.698H332.447V368.593Z" fill="#F4E8D5"/>
<path d="M592.781 368.593H559.553V380.698H592.781V368.593Z" fill="#F4E8D5"/>
<path d="M295.276 368.593H262.115V380.698H295.276V368.593Z" fill="#F4E8D5"/>
<path d="M629.885 368.593H596.724V380.698H629.885V368.593Z" fill="#F4E8D5"/>
<path d="M258.105 368.593H225.011V380.698H258.105V368.593Z" fill="#F4E8D5"/>
<path d="M666.989 368.593H633.895V380.698H666.989V368.593Z" fill="#F4E8D5"/>
<path d="M220.934 368.593H187.907V380.698H220.934V368.593Z" fill="#F4E8D5"/>
<path d="M704.093 368.593H671.066V380.698H704.093V368.593Z" fill="#F4E8D5"/>
<path d="M183.763 368.593H150.803V380.698H183.763V368.593Z" fill="#F4E8D5"/>
<path d="M741.197 368.593H708.237V380.698H741.197V368.593Z" fill="#F4E8D5"/>
<path d="M146.592 368.593H113.699V380.698H146.592V368.593Z" fill="#F4E8D5"/>
<path d="M778.301 368.593H745.408V380.698H778.301V368.593Z" fill="#F4E8D5"/>
<path d="M109.421 368.593H76.5949V380.698H109.421V368.593Z" fill="#F4E8D5"/>
<path d="M815.405 368.593H782.579V380.698H815.405V368.593Z" fill="#F4E8D5"/>
<path d="M72.25 368.593H39.4904V380.698H72.25V368.593Z" fill="#F4E8D5"/>
<path d="M852.51 368.593H819.75V380.698H852.51V368.593Z" fill="#F4E8D5"/>
<path d="M35.079 368.593H2.3862V380.698H35.079V368.593Z" fill="#F4E8D5"/>
<path d="M889.614 368.593H856.921V380.698H889.614V368.593Z" fill="#F4E8D5"/>
<path d="M443.963 333.831H410.535V345.937H443.963V333.831Z" fill="#F4E8D5"/>
<path d="M481.465 333.831H448.037V345.937H481.465V333.831Z" fill="#F4E8D5"/>
<path d="M406.792 333.831H373.431V345.937H406.792V333.831Z" fill="#F4E8D5"/>
<path d="M518.57 333.831H485.208V345.937H518.57V333.831Z" fill="#F4E8D5"/>
<path d="M369.621 333.831H336.327V345.937H369.621V333.831Z" fill="#F4E8D5"/>
<path d="M555.674 333.831H522.379V345.937H555.674V333.831Z" fill="#F4E8D5"/>
<path d="M332.45 333.831H299.222V345.937H332.45V333.831Z" fill="#F4E8D5"/>
<path d="M592.778 333.831H559.55V345.937H592.778V333.831Z" fill="#F4E8D5"/>
<path d="M295.279 333.831H262.118V345.937H295.279V333.831Z" fill="#F4E8D5"/>
<path d="M629.882 333.831H596.721V345.937H629.882V333.831Z" fill="#F4E8D5"/>
<path d="M258.108 333.831H225.014V345.937H258.108V333.831Z" fill="#F4E8D5"/>
<path d="M666.986 333.831H633.892V345.937H666.986V333.831Z" fill="#F4E8D5"/>
<path d="M220.937 333.831H187.91V345.937H220.937V333.831Z" fill="#F4E8D5"/>
<path d="M704.09 333.831H671.063V345.937H704.09V333.831Z" fill="#F4E8D5"/>
<path d="M183.766 333.831H150.806V345.937H183.766V333.831Z" fill="#F4E8D5"/>
<path d="M741.195 333.831H708.234V345.937H741.195V333.831Z" fill="#F4E8D5"/>
<path d="M146.595 333.831H113.702V345.937H146.595V333.831Z" fill="#F4E8D5"/>
<path d="M778.298 333.831H745.405V345.937H778.298V333.831Z" fill="#F4E8D5"/>
<path d="M109.424 333.831H76.5975V345.937H109.424V333.831Z" fill="#F4E8D5"/>
<path d="M815.403 333.831H782.577V345.937H815.403V333.831Z" fill="#F4E8D5"/>
<path d="M72.2529 333.831H39.4937V345.937H72.2529V333.831Z" fill="#F4E8D5"/>
<path d="M852.507 333.831H819.747V345.937H852.507V333.831Z" fill="#F4E8D5"/>
<path d="M35.082 333.831H2.38913V345.937H35.082V333.831Z" fill="#F4E8D5"/>
<path d="M889.611 333.831H856.918V345.937H889.611V333.831Z" fill="#F4E8D5"/>
<path d="M443.966 299.07H410.538V311.176H443.966V299.07Z" fill="#F4E8D5"/>
<path d="M481.462 299.07H448.034V311.176H481.462V299.07Z" fill="#F4E8D5"/>
<path d="M406.795 299.07H373.434V311.176H406.795V299.07Z" fill="#F4E8D5"/>
<path d="M518.566 299.07H485.205V311.176H518.566V299.07Z" fill="#F4E8D5"/>
<path d="M369.624 299.07H336.33V311.176H369.624V299.07Z" fill="#F4E8D5"/>
<path d="M555.671 299.07H522.376V311.176H555.671V299.07Z" fill="#F4E8D5"/>
<path d="M332.453 299.07H299.226V311.176H332.453V299.07Z" fill="#F4E8D5"/>
<path d="M592.775 299.07H559.547V311.176H592.775V299.07Z" fill="#F4E8D5"/>
<path d="M295.282 299.07H262.122V311.176H295.282V299.07Z" fill="#F4E8D5"/>
<path d="M629.879 299.07H596.718V311.176H629.879V299.07Z" fill="#F4E8D5"/>
<path d="M258.111 299.07H225.017V311.176H258.111V299.07Z" fill="#F4E8D5"/>
<path d="M666.983 299.07H633.889V311.176H666.983V299.07Z" fill="#F4E8D5"/>
<path d="M220.94 299.07H187.913V311.176H220.94V299.07Z" fill="#F4E8D5"/>
<path d="M704.087 299.07H671.06V311.176H704.087V299.07Z" fill="#F4E8D5"/>
<path d="M183.769 299.07H150.809V311.176H183.769V299.07Z" fill="#F4E8D5"/>
<path d="M741.191 299.07H708.231V311.176H741.191V299.07Z" fill="#F4E8D5"/>
<path d="M146.598 299.07H113.705V311.176H146.598V299.07Z" fill="#F4E8D5"/>
<path d="M778.296 299.07H745.402V311.176H778.296V299.07Z" fill="#F4E8D5"/>
<path d="M109.427 299.07H76.6004V311.176H109.427V299.07Z" fill="#F4E8D5"/>
<path d="M815.4 299.07H782.573V311.176H815.4V299.07Z" fill="#F4E8D5"/>
<path d="M72.2558 299.07H39.4966V311.176H72.2558V299.07Z" fill="#F4E8D5"/>
<path d="M852.504 299.07H819.745V311.176H852.504V299.07Z" fill="#F4E8D5"/>
<path d="M35.0849 299.07H2.39246V311.176H35.0849V299.07Z" fill="#F4E8D5"/>
<path d="M889.608 299.07H856.916V311.176H889.608V299.07Z" fill="#F4E8D5"/>
<path d="M443.969 264.309H410.541V276.415H443.969V264.309Z" fill="#F4E8D5"/>
<path d="M481.459 264.309H448.031V276.415H481.459V264.309Z" fill="#F4E8D5"/>
<path d="M406.798 264.309H373.437V276.415H406.798V264.309Z" fill="#F4E8D5"/>
<path d="M518.563 264.309H485.202V276.415H518.563V264.309Z" fill="#F4E8D5"/>
<path d="M369.627 264.309H336.333V276.415H369.627V264.309Z" fill="#F4E8D5"/>
<path d="M555.668 264.309H522.373V276.415H555.668V264.309Z" fill="#F4E8D5"/>
<path d="M332.456 264.309H299.228V276.415H332.456V264.309Z" fill="#F4E8D5"/>
<path d="M592.772 264.309H559.544V276.415H592.772V264.309Z" fill="#F4E8D5"/>
<path d="M295.285 264.308H262.124V276.414H295.285V264.308Z" fill="#F4E8D5"/>
<path d="M629.876 264.308H596.715V276.414H629.876V264.308Z" fill="#F4E8D5"/>
<path d="M258.114 264.308H225.02V276.414H258.114V264.308Z" fill="#F4E8D5"/>
<path d="M666.98 264.308H633.886V276.414H666.98V264.308Z" fill="#F4E8D5"/>
<path d="M220.943 264.308H187.916V276.414H220.943V264.308Z" fill="#F4E8D5"/>
<path d="M704.084 264.308H671.057V276.414H704.084V264.308Z" fill="#F4E8D5"/>
<path d="M183.772 264.308H150.812V276.414H183.772V264.308Z" fill="#F4E8D5"/>
<path d="M741.188 264.308H708.228V276.414H741.188V264.308Z" fill="#F4E8D5"/>
<path d="M146.601 264.308H113.708V276.414H146.601V264.308Z" fill="#F4E8D5"/>
<path d="M778.292 264.308H745.399V276.414H778.292V264.308Z" fill="#F4E8D5"/>
<path d="M109.43 264.308H76.6037V276.414H109.43V264.308Z" fill="#F4E8D5"/>
<path d="M815.397 264.308H782.57V276.414H815.397V264.308Z" fill="#F4E8D5"/>
<path d="M72.2588 264.308H39.4992V276.414H72.2588V264.308Z" fill="#F4E8D5"/>
<path d="M852.501 264.308H819.741V276.414H852.501V264.308Z" fill="#F4E8D5"/>
<path d="M35.0878 264.308H2.39539V276.414H35.0878V264.308Z" fill="#F4E8D5"/>
<path d="M889.605 264.308H856.912V276.414H889.605V264.308Z" fill="#F4E8D5"/>
<path d="M443.972 229.547H410.544V241.653H443.972V229.547Z" fill="#F4E8D5"/>
<path d="M481.456 229.547H448.028V241.653H481.456V229.547Z" fill="#F4E8D5"/>
<path d="M406.801 229.547H373.44V241.653H406.801V229.547Z" fill="#F4E8D5"/>
<path d="M518.56 229.547H485.199V241.653H518.56V229.547Z" fill="#F4E8D5"/>
<path d="M369.63 229.547H336.336V241.653H369.63V229.547Z" fill="#F4E8D5"/>
<path d="M555.665 229.547H522.37V241.653H555.665V229.547Z" fill="#F4E8D5"/>
<path d="M332.459 229.547H299.231V241.653H332.459V229.547Z" fill="#F4E8D5"/>
<path d="M592.769 229.547H559.541V241.653H592.769V229.547Z" fill="#F4E8D5"/>
<path d="M295.288 229.547H262.127V241.653H295.288V229.547Z" fill="#F4E8D5"/>
<path d="M629.873 229.547H596.712V241.653H629.873V229.547Z" fill="#F4E8D5"/>
<path d="M258.117 229.547H225.023V241.653H258.117V229.547Z" fill="#F4E8D5"/>
<path d="M666.977 229.547H633.883V241.653H666.977V229.547Z" fill="#F4E8D5"/>
<path d="M220.946 229.547H187.919V241.653H220.946V229.547Z" fill="#F4E8D5"/>
<path d="M704.081 229.547H671.054V241.653H704.081V229.547Z" fill="#F4E8D5"/>
<path d="M183.775 229.547H150.815V241.653H183.775V229.547Z" fill="#F4E8D5"/>
<path d="M741.185 229.547H708.225V241.653H741.185V229.547Z" fill="#F4E8D5"/>
<path d="M146.604 229.547H113.711V241.653H146.604V229.547Z" fill="#F4E8D5"/>
<path d="M778.289 229.547H745.396V241.653H778.289V229.547Z" fill="#F4E8D5"/>
<path d="M109.433 229.547H76.6067V241.653H109.433V229.547Z" fill="#F4E8D5"/>
<path d="M815.394 229.547H782.567V241.653H815.394V229.547Z" fill="#F4E8D5"/>
<path d="M72.2617 229.547H39.5021V241.653H72.2617V229.547Z" fill="#F4E8D5"/>
<path d="M852.498 229.547H819.738V241.653H852.498V229.547Z" fill="#F4E8D5"/>
<path d="M35.0908 229.547H2.39832V241.653H35.0908V229.547Z" fill="#F4E8D5"/>
<path d="M889.602 229.547H856.909V241.653H889.602V229.547Z" fill="#F4E8D5"/>
<path d="M443.975 194.786H410.547V206.892H443.975V194.786Z" fill="#F4E8D5"/>
<path d="M481.453 194.786H448.025V206.892H481.453V194.786Z" fill="#F4E8D5"/>
<path d="M406.804 194.786H373.443V206.892H406.804V194.786Z" fill="#F4E8D5"/>
<path d="M518.557 194.786H485.196V206.892H518.557V194.786Z" fill="#F4E8D5"/>
<path d="M369.633 194.786H336.339V206.892H369.633V194.786Z" fill="#F4E8D5"/>
<path d="M555.661 194.786H522.367V206.892H555.661V194.786Z" fill="#F4E8D5"/>
<path d="M332.462 194.786H299.235V206.892H332.462V194.786Z" fill="#F4E8D5"/>
<path d="M592.765 194.786H559.538V206.892H592.765V194.786Z" fill="#F4E8D5"/>
<path d="M295.291 194.786H262.13V206.892H295.291V194.786Z" fill="#F4E8D5"/>
<path d="M629.87 194.786H596.709V206.892H629.87V194.786Z" fill="#F4E8D5"/>
<path d="M258.12 194.786H225.027V206.892H258.12V194.786Z" fill="#F4E8D5"/>
<path d="M666.974 194.786H633.88V206.892H666.974V194.786Z" fill="#F4E8D5"/>
<path d="M220.949 194.786H187.922V206.892H220.949V194.786Z" fill="#F4E8D5"/>
<path d="M704.078 194.786H671.051V206.892H704.078V194.786Z" fill="#F4E8D5"/>
<path d="M183.778 194.786H150.818V206.892H183.778V194.786Z" fill="#F4E8D5"/>
<path d="M741.182 194.786H708.222V206.892H741.182V194.786Z" fill="#F4E8D5"/>
<path d="M146.607 194.786H113.713V206.892H146.607V194.786Z" fill="#F4E8D5"/>
<path d="M778.287 194.786H745.393V206.892H778.287V194.786Z" fill="#F4E8D5"/>
<path d="M109.436 194.786H76.6096V206.892H109.436V194.786Z" fill="#F4E8D5"/>
<path d="M815.39 194.786H782.564V206.892H815.39V194.786Z" fill="#F4E8D5"/>
<path d="M72.265 194.786H39.5054V206.892H72.265V194.786Z" fill="#F4E8D5"/>
<path d="M852.495 194.786H819.735V206.892H852.495V194.786Z" fill="#F4E8D5"/>
<path d="M35.0937 194.786H2.40125V206.892H35.0937V194.786Z" fill="#F4E8D5"/>
<path d="M889.599 194.786H856.906V206.892H889.599V194.786Z" fill="#F4E8D5"/>
<path d="M443.978 160.024H410.55V172.13H443.978V160.024Z" fill="#F4E8D5"/>
<path d="M481.45 160.024H448.022V172.13H481.45V160.024Z" fill="#F4E8D5"/>
<path d="M406.807 160.024H373.446V172.13H406.807V160.024Z" fill="#F4E8D5"/>
<path d="M518.554 160.024H485.193V172.13H518.554V160.024Z" fill="#F4E8D5"/>
<path d="M369.636 160.024H336.342V172.13H369.636V160.024Z" fill="#F4E8D5"/>
<path d="M555.658 160.024H522.364V172.13H555.658V160.024Z" fill="#F4E8D5"/>
<path d="M332.465 160.024H299.237V172.13H332.465V160.024Z" fill="#F4E8D5"/>
<path d="M592.762 160.024H559.535V172.13H592.762V160.024Z" fill="#F4E8D5"/>
<path d="M295.294 160.024H262.133V172.13H295.294V160.024Z" fill="#F4E8D5"/>
<path d="M629.867 160.024H596.706V172.13H629.867V160.024Z" fill="#F4E8D5"/>
<path d="M258.123 160.024H225.03V172.13H258.123V160.024Z" fill="#F4E8D5"/>
<path d="M666.971 160.024H633.877V172.13H666.971V160.024Z" fill="#F4E8D5"/>
<path d="M220.952 160.024H187.925V172.13H220.952V160.024Z" fill="#F4E8D5"/>
<path d="M704.075 160.024H671.048V172.13H704.075V160.024Z" fill="#F4E8D5"/>
<path d="M183.781 160.024H150.821V172.13H183.781V160.024Z" fill="#F4E8D5"/>
<path d="M741.179 160.024H708.219V172.13H741.179V160.024Z" fill="#F4E8D5"/>
<path d="M146.61 160.024H113.717V172.13H146.61V160.024Z" fill="#F4E8D5"/>
<path d="M778.283 160.024H745.39V172.13H778.283V160.024Z" fill="#F4E8D5"/>
<path d="M109.439 160.024H76.6129V172.13H109.439V160.024Z" fill="#F4E8D5"/>
<path d="M815.388 160.024H782.561V172.13H815.388V160.024Z" fill="#F4E8D5"/>
<path d="M72.268 160.024H39.5087V172.13H72.268V160.024Z" fill="#F4E8D5"/>
<path d="M852.492 160.024H819.732V172.13H852.492V160.024Z" fill="#F4E8D5"/>
<path d="M35.097 160.024H2.40454V172.13H35.097V160.024Z" fill="#F4E8D5"/>
<path d="M889.596 160.024H856.903V172.13H889.596V160.024Z" fill="#F4E8D5"/>
<path d="M443.981 125.263H410.553V137.369H443.981V125.263Z" fill="#F4E8D5"/>
<path d="M481.447 125.263H448.019V137.369H481.447V125.263Z" fill="#F4E8D5"/>
<path d="M406.81 125.263H373.449V137.369H406.81V125.263Z" fill="#F4E8D5"/>
<path d="M518.551 125.263H485.19V137.369H518.551V125.263Z" fill="#F4E8D5"/>
<path d="M369.64 125.263H336.345V137.369H369.64V125.263Z" fill="#F4E8D5"/>
<path d="M555.655 125.263H522.361V137.369H555.655V125.263Z" fill="#F4E8D5"/>
<path d="M332.468 125.263H299.24V137.369H332.468V125.263Z" fill="#F4E8D5"/>
<path d="M592.76 125.263H559.532V137.369H592.76V125.263Z" fill="#F4E8D5"/>
<path d="M295.297 125.263H262.137V137.369H295.297V125.263Z" fill="#F4E8D5"/>
<path d="M629.863 125.263H596.703V137.369H629.863V125.263Z" fill="#F4E8D5"/>
<path d="M258.126 125.263H225.032V137.369H258.126V125.263Z" fill="#F4E8D5"/>
<path d="M666.968 125.263H633.874V137.369H666.968V125.263Z" fill="#F4E8D5"/>
<path d="M220.955 125.263H187.928V137.369H220.955V125.263Z" fill="#F4E8D5"/>
<path d="M704.072 125.263H671.045V137.369H704.072V125.263Z" fill="#F4E8D5"/>
<path d="M183.784 125.263H150.824V137.369H183.784V125.263Z" fill="#F4E8D5"/>
<path d="M741.176 125.263H708.216V137.369H741.176V125.263Z" fill="#F4E8D5"/>
<path d="M146.613 125.263H113.72V137.369H146.613V125.263Z" fill="#F4E8D5"/>
<path d="M778.28 125.263H745.387V137.369H778.28V125.263Z" fill="#F4E8D5"/>
<path d="M109.442 125.263H76.6158V137.369H109.442V125.263Z" fill="#F4E8D5"/>
<path d="M815.385 125.263H782.558V137.369H815.385V125.263Z" fill="#F4E8D5"/>
<path d="M72.2709 125.263H39.5117V137.369H72.2709V125.263Z" fill="#F4E8D5"/>
<path d="M852.489 125.263H819.729V137.369H852.489V125.263Z" fill="#F4E8D5"/>
<path d="M35.1 125.263H2.40714V137.369H35.1V125.263Z" fill="#F4E8D5"/>
<path d="M889.592 125.263H856.9V137.369H889.592V125.263Z" fill="#F4E8D5"/>
<path d="M443.984 90.5016H410.556V102.607H443.984V90.5016Z" fill="#F4E8D5"/>
<path d="M481.444 90.5016H448.016V102.607H481.444V90.5016Z" fill="#F4E8D5"/>
<path d="M406.813 90.5016H373.452V102.607H406.813V90.5016Z" fill="#F4E8D5"/>
<path d="M518.548 90.5016H485.187V102.607H518.548V90.5016Z" fill="#F4E8D5"/>
<path d="M369.643 90.5016H336.348V102.607H369.643V90.5016Z" fill="#F4E8D5"/>
<path d="M555.652 90.5016H522.358V102.607H555.652V90.5016Z" fill="#F4E8D5"/>
<path d="M332.471 90.5016H299.243V102.607H332.471V90.5016Z" fill="#F4E8D5"/>
<path d="M592.757 90.5016H559.529V102.607H592.757V90.5016Z" fill="#F4E8D5"/>
<path d="M295.3 90.5016H262.14V102.607H295.3V90.5016Z" fill="#F4E8D5"/>
<path d="M629.861 90.5016H596.7V102.607H629.861V90.5016Z" fill="#F4E8D5"/>
<path d="M258.129 90.5016H225.035V102.607H258.129V90.5016Z" fill="#F4E8D5"/>
<path d="M666.965 90.5016H633.871V102.607H666.965V90.5016Z" fill="#F4E8D5"/>
<path d="M220.958 90.5016H187.931V102.607H220.958V90.5016Z" fill="#F4E8D5"/>
<path d="M704.069 90.5016H671.042V102.607H704.069V90.5016Z" fill="#F4E8D5"/>
<path d="M183.787 90.5016H150.827V102.607H183.787V90.5016Z" fill="#F4E8D5"/>
<path d="M741.173 90.5016H708.213V102.607H741.173V90.5016Z" fill="#F4E8D5"/>
<path d="M146.616 90.5016H113.723V102.607H146.616V90.5016Z" fill="#F4E8D5"/>
<path d="M778.277 90.5016H745.384V102.607H778.277V90.5016Z" fill="#F4E8D5"/>
<path d="M109.445 90.5016H76.6187V102.607H109.445V90.5016Z" fill="#F4E8D5"/>
<path d="M815.382 90.5016H782.555V102.607H815.382V90.5016Z" fill="#F4E8D5"/>
<path d="M72.2742 90.5016H39.5146V102.607H72.2742V90.5016Z" fill="#F4E8D5"/>
<path d="M852.485 90.5016H819.726V102.607H852.485V90.5016Z" fill="#F4E8D5"/>
<path d="M35.1029 90.5016H2.41043V102.607H35.1029V90.5016Z" fill="#F4E8D5"/>
<path d="M889.59 90.5016H856.897V102.607H889.59V90.5016Z" fill="#F4E8D5"/>
<path d="M443.987 55.7404H410.559V67.8463H443.987V55.7404Z" fill="#F4E8D5"/>
<path d="M481.441 55.7404H448.013V67.8463H481.441V55.7404Z" fill="#F4E8D5"/>
<path d="M406.816 55.7404H373.455V67.8463H406.816V55.7404Z" fill="#F4E8D5"/>
<path d="M518.545 55.7404H485.184V67.8463H518.545V55.7404Z" fill="#F4E8D5"/>
<path d="M369.645 55.7404H336.351V67.8463H369.645V55.7404Z" fill="#F4E8D5"/>
<path d="M555.649 55.7404H522.355V67.8463H555.649V55.7404Z" fill="#F4E8D5"/>
<path d="M332.474 55.7404H299.247V67.8463H332.474V55.7404Z" fill="#F4E8D5"/>
<path d="M592.753 55.7404H559.526V67.8463H592.753V55.7404Z" fill="#F4E8D5"/>
<path d="M295.303 55.7404H262.143V67.8463H295.303V55.7404Z" fill="#F4E8D5"/>
<path d="M629.857 55.7404H596.697V67.8463H629.857V55.7404Z" fill="#F4E8D5"/>
<path d="M258.132 55.7404H225.038V67.8463H258.132V55.7404Z" fill="#F4E8D5"/>
<path d="M666.962 55.7404H633.868V67.8463H666.962V55.7404Z" fill="#F4E8D5"/>
<path d="M220.961 55.7404H187.934V67.8463H220.961V55.7404Z" fill="#F4E8D5"/>
<path d="M704.066 55.7404H671.039V67.8463H704.066V55.7404Z" fill="#F4E8D5"/>
<path d="M183.79 55.7404H150.83V67.8463H183.79V55.7404Z" fill="#F4E8D5"/>
<path d="M741.17 55.7404H708.21V67.8463H741.17V55.7404Z" fill="#F4E8D5"/>
<path d="M146.619 55.7404H113.726V67.8463H146.619V55.7404Z" fill="#F4E8D5"/>
<path d="M778.274 55.7404H745.381V67.8463H778.274V55.7404Z" fill="#F4E8D5"/>
<path d="M109.448 55.7404H76.6217V67.8463H109.448V55.7404Z" fill="#F4E8D5"/>
<path d="M815.378 55.7404H782.552V67.8463H815.378V55.7404Z" fill="#F4E8D5"/>
<path d="M72.2771 55.7401H39.5175V67.8459H72.2771V55.7401Z" fill="#F4E8D5"/>
<path d="M852.483 55.7401H819.723V67.8459H852.483V55.7401Z" fill="#F4E8D5"/>
<path d="M35.1058 55.7401H2.41336V67.8459H35.1058V55.7401Z" fill="#F4E8D5"/>
<path d="M889.587 55.7401H856.894V67.8459H889.587V55.7401Z" fill="#F4E8D5"/>
<path d="M443.99 20.9789H410.562V33.0848H443.99V20.9789Z" fill="#F4E8D5"/>
<path d="M481.438 20.9789H448.01V33.0848H481.438V20.9789Z" fill="#F4E8D5"/>
<path d="M406.819 20.9789H373.458V33.0848H406.819V20.9789Z" fill="#F4E8D5"/>
<path d="M518.542 20.9789H485.181V33.0848H518.542V20.9789Z" fill="#F4E8D5"/>
<path d="M369.648 20.9789H336.354V33.0848H369.648V20.9789Z" fill="#F4E8D5"/>
<path d="M555.646 20.9789H522.352V33.0848H555.646V20.9789Z" fill="#F4E8D5"/>
<path d="M332.477 20.9789H299.25V33.0848H332.477V20.9789Z" fill="#F4E8D5"/>
<path d="M592.75 20.9789H559.523V33.0848H592.75V20.9789Z" fill="#F4E8D5"/>
<path d="M295.306 20.9789H262.145V33.0848H295.306V20.9789Z" fill="#F4E8D5"/>
<path d="M629.855 20.9789H596.694V33.0848H629.855V20.9789Z" fill="#F4E8D5"/>
<path d="M258.135 20.9789H225.041V33.0848H258.135V20.9789Z" fill="#F4E8D5"/>
<path d="M666.959 20.9789H633.865V33.0848H666.959V20.9789Z" fill="#F4E8D5"/>
<path d="M220.964 20.9789H187.937V33.0848H220.964V20.9789Z" fill="#F4E8D5"/>
<path d="M704.063 20.9789H671.036V33.0848H704.063V20.9789Z" fill="#F4E8D5"/>
<path d="M183.793 20.9789H150.833V33.0848H183.793V20.9789Z" fill="#F4E8D5"/>
<path d="M741.167 20.9789H708.207V33.0848H741.167V20.9789Z" fill="#F4E8D5"/>
<path d="M146.622 20.9789H113.729V33.0848H146.622V20.9789Z" fill="#F4E8D5"/>
<path d="M778.271 20.9789H745.378V33.0848H778.271V20.9789Z" fill="#F4E8D5"/>
<path d="M109.451 20.9789H76.6246V33.0848H109.451V20.9789Z" fill="#F4E8D5"/>
<path d="M815.376 20.9789H782.549V33.0848H815.376V20.9789Z" fill="#F4E8D5"/>
<path d="M72.2804 20.9789H39.5208V33.0848H72.2804V20.9789Z" fill="#F4E8D5"/>
<path d="M852.48 20.9789H819.72V33.0848H852.48V20.9789Z" fill="#F4E8D5"/>
<path d="M35.1091 20.9789H2.41666V33.0848H35.1091V20.9789Z" fill="#F4E8D5"/>
<path d="M889.584 20.9789H856.891V33.0848H889.584V20.9789Z" fill="#F4E8D5"/>
</g>
</g>
</g>
</g>
<defs>
<clipPath id="clip0_2322_94778">
<rect width="892" height="412" fill="white"/>
</clipPath>
<clipPath id="clip1_2322_94778">
<rect width="892" height="412" fill="white"/>
</clipPath>
</defs>
</svg>
