<svg width="98" height="98" viewBox="0 0 98 98" fill="none" xmlns="http://www.w3.org/2000/svg">
<path d="M65.5483 51.6654C66.7827 51.1554 68.2512 51.8281 69.0747 52.8797C69.8982 53.9313 70.2247 55.2765 70.5313 56.5761C70.8081 57.7547 71.0879 58.9581 70.9738 60.1635C70.7674 62.3331 69.165 64.3053 67.0823 64.9532C66.3877 65.1694 64.1145 67.6705 60.7261 68.2667C55.892 69.1179 52.699 66.6169 52.1542 66.4819C51.4855 66.3163 50.9219 65.8778 50.3851 65.4462C48.9781 64.3143 47.5136 63.0236 47.1127 61.2627C46.8309 60.0256 47.1276 58.721 47.6317 57.5573C48.6179 55.2775 50.4615 53.335 52.7793 52.4402C54.487 51.7814 56.3563 51.7031 58.186 51.6326C60.2508 51.5533 62.3146 51.4739 64.3795 51.3945" fill="#119620"/>
<path d="M40.6772 72.8023C40.6772 72.8023 41.983 75.8281 42.7033 76.7289C43.4237 77.6297 46.8766 80.725 46.8766 80.725L47.1822 78.0999C47.1822 78.0999 44.5648 76.717 43.6817 75.9977C42.7986 75.2775 41.5682 72.7805 41.5682 72.7805C41.5682 72.7805 40.4788 70.6773 40.1553 70.6753C39.8318 70.6733 40.6772 72.8023 40.6772 72.8023Z" fill="#983801"/>
<path d="M43.8542 73.3256C42.6923 74.6917 40.4876 75.0171 38.9804 74.0449C38.5468 73.7651 38.1697 73.3951 37.7024 73.1778C36.8054 72.7592 35.709 72.9586 34.823 72.5181C33.8486 72.034 33.3753 70.8881 33.2791 69.8038C33.2552 69.5319 33.1302 68.5171 33.8327 67.7661C34.6215 66.9228 35.6525 67.0151 36.7151 66.5667C37.7778 66.1172 38.9903 65.9416 40.0957 66.272C40.6543 66.4397 41.1752 66.7313 41.7487 66.8375C42.1079 66.904 42.48 66.896 42.8342 66.9863C43.4266 67.1371 43.9227 67.5538 44.2918 68.0399C45.4219 69.5319 45.3882 71.7929 44.2154 73.2512" fill="#119620"/>
<path d="M52.1544 66.4815C52.1544 66.4815 51.0302 70.9726 51.5938 76.7356C52.1574 82.4985 56.3793 95.441 56.1471 97.9391H42.7629C42.7629 97.9391 43.781 94.4361 43.9665 90.065C44.3009 82.19 43.9774 71.0321 44.6412 69.1601C45.6741 66.2484 52.1544 66.4815 52.1544 66.4815Z" fill="#7C2D00"/>
<path d="M59.36 66.917C59.36 66.917 57.9868 70.6025 57.183 71.7196C56.3793 72.8367 51.4063 78.3179 51.4063 78.3179L51.1245 74.1849C51.1245 74.1849 54.9634 71.8178 55.9725 70.9071C56.9816 69.9954 58.2963 66.9448 58.2963 66.9448" fill="#7C2D00"/>
<path d="M66.0445 46.3042C65.0324 44.4837 64.0214 42.6633 63.0093 40.8428C62.4566 39.8488 61.89 38.8369 61.0566 38.063C58.706 35.8815 55.0318 36.187 52.0382 35.0323C49.7452 34.1473 47.7786 32.3676 45.3427 32.0362C42.4394 31.6414 39.7257 33.3973 37.3225 35.072C36.2549 35.816 35.1684 36.5779 34.3875 37.6186C32.9239 39.57 32.7533 42.194 32.9378 44.6256C32.9914 45.3359 33.0728 46.0482 33.2742 46.7318C33.9132 48.8945 35.728 50.5562 37.765 51.5254C39.8021 52.4937 42.0643 52.8637 44.2959 53.1931C47.083 53.6038 49.901 53.9709 52.711 53.7665C55.5209 53.5622 58.3518 52.7487 60.5714 51.0125C61.0417 50.6445 61.5259 50.0899 61.3404 49.5225" fill="#15BB28"/>
<path style="mix-blend-mode:multiply" opacity="0.25" fill-rule="evenodd" clip-rule="evenodd" d="M51.4728 71.835C51.411 71.8705 51.3492 71.9061 51.2874 71.9417C50.7519 72.2503 50.2161 72.559 49.6636 72.8259C47.9987 73.6276 46.0694 74.0138 44.2412 73.8268C44.3031 71.5219 44.4147 69.7995 44.6414 69.1601C45.6743 66.2484 52.1545 66.4815 52.1545 66.4815C52.1545 66.4815 51.6197 68.6181 51.4728 71.835Z" fill="#15BB28"/>
<path d="M27.0749 54.4579C28.1524 56.2188 27.0808 58.4331 27.8399 60.9113C28.7379 63.8716 30.4117 64.3627 32.1283 65.5135C33.7694 66.6127 35.866 66.7824 37.5399 67.827C38.9459 68.709 39.9332 70.081 41.2677 71.0602C43.6887 72.841 47.1278 72.7001 49.8286 71.3965C51.4023 70.6346 52.8321 69.5116 54.5437 69.1237C55.658 68.8727 56.8278 68.951 57.9421 68.707C59.2846 68.4094 60.5209 67.6356 61.3643 66.5611C62.4954 65.1216 62.9657 63.1732 64.3539 61.9837C65.8472 60.697 68.3019 59.8389 70.0572 55.5829C71.234 52.7317 70.1098 47.7862 68.8258 46.1384C67.9874 44.4985 66.2947 43.4756 64.5771 42.8308C62.8596 42.186 61.0418 41.8268 59.362 41.0798C56.4528 39.7703 54.1438 37.3516 51.2029 36.1026C47.1427 34.3764 42.3095 35.174 38.5331 37.4567C37.4298 38.1194 36.3899 38.9081 35.2221 39.4578C33.5343 40.2435 27.8329 41.9399 26.3873 47.2068C25.5657 50.2178 26.1829 52.9896 27.0769 54.4579H27.0749Z" fill="#15BB28"/>
<path style="mix-blend-mode:multiply" opacity="0.25" d="M28.5342 52.2375C28.5729 52.044 28.6027 51.8496 28.6821 51.664C29.201 50.4438 30.5038 49.7851 31.7064 49.2275C31.9703 49.1055 32.2501 48.9795 32.5399 49.0023C32.7591 49.0202 32.9616 49.1204 33.156 49.2206C34.1076 49.7136 35.0442 50.2742 35.7725 51.0599C36.4562 51.797 36.9325 52.7067 37.6181 53.4408C38.6639 54.5599 40.2763 55.2206 41.7666 54.8655C42.7806 54.6234 43.634 53.9597 44.5726 53.5053C45.8317 52.8952 47.2705 52.665 48.6566 52.8516C48.9473 52.8912 49.2391 52.9488 49.502 53.0787C50.1311 53.3893 50.4922 54.048 50.8862 54.6274C51.8397 56.0341 53.2258 57.0897 54.7816 57.7653C58.3447 56.8109 63.3088 58.052 66.4989 54.8C70.1175 51.1115 68.8246 46.1362 68.8246 46.1362C70.1086 47.7841 71.2328 52.7295 70.056 55.5807C68.3007 59.8367 65.845 60.6949 64.3527 61.9816C62.9655 63.1711 62.4952 65.1195 61.3641 66.559C60.5207 67.6334 59.2844 68.4072 57.9419 68.7049C56.8276 68.9489 55.6578 68.8705 54.5435 69.1215C52.8319 69.5094 51.4021 70.6324 49.8284 71.3944C47.1276 72.6979 43.6885 72.8388 41.2675 71.0581C39.9329 70.0799 38.9467 68.7078 37.5397 67.8249C35.8658 66.7812 33.7692 66.6106 32.1281 65.5114C30.4115 64.3606 28.7376 63.8695 27.8397 60.9092C27.0816 58.431 28.1522 56.2177 27.0747 54.4557C26.1807 52.9875 25.5635 50.2146 26.3851 47.2047C26.528 49.8674 27.2156 51.1353 28.5342 52.2355V52.2375Z" fill="#13A824"/>
<path fill-rule="evenodd" clip-rule="evenodd" d="M22.6161 97.9272C18.1893 97.5014 16.667 92.1675 17.0593 89.1794C17.4382 86.3035 20.9075 89.9316 21.199 92.727C21.199 92.727 20.285 84.6719 22.4282 84.954C24.5707 85.2361 24.2896 93.6259 24.2896 93.6259C24.2896 93.6259 26.2961 85.6451 27.8611 88.1715C29.0537 90.0952 26.2836 98.2783 22.6161 97.9272Z" fill="#119620"/>
<path fill-rule="evenodd" clip-rule="evenodd" d="M11.6161 97.9272C7.18932 97.5014 5.66698 92.1675 6.05925 89.1794C6.43821 86.3035 9.90754 89.9316 10.199 92.727C10.199 92.727 9.285 84.6719 11.4282 84.954C13.5707 85.2361 13.2896 93.6259 13.2896 93.6259C13.2896 93.6259 15.2961 85.6451 16.8611 88.1715C18.0537 90.0952 15.2836 98.2783 11.6161 97.9272Z" fill="#119620"/>
<path fill-rule="evenodd" clip-rule="evenodd" d="M31.8912 97.7673C28.5614 97.4705 27.4162 93.7527 27.7113 91.67C27.9964 89.6654 30.606 92.1942 30.8252 94.1426C30.8252 94.1426 30.1378 88.5281 31.7499 88.7248C33.3615 88.9214 33.15 94.7693 33.15 94.7693C33.15 94.7693 34.6594 89.2064 35.8366 90.9674C36.7337 92.3083 34.6499 98.012 31.8912 97.7673Z" fill="#119620"/>
<path fill-rule="evenodd" clip-rule="evenodd" d="M41.6637 97.9272C37.2369 97.5014 35.7146 92.1675 36.1069 89.1794C36.4858 86.3035 39.9551 89.9316 40.2466 92.727C40.2466 92.727 39.3326 84.6719 41.4759 84.954C43.6183 85.2361 43.3372 93.6259 43.3372 93.6259C43.3372 93.6259 45.3437 85.6451 46.9087 88.1715C48.1013 90.0952 45.3312 98.2783 41.6637 97.9272Z" fill="#119620"/>
<path fill-rule="evenodd" clip-rule="evenodd" d="M50.9388 97.7673C47.609 97.4705 46.4639 93.7527 46.7589 91.67C47.044 89.6654 49.6536 92.1942 49.8729 94.1426C49.8729 94.1426 49.1854 88.5281 50.7975 88.7248C52.4091 88.9214 52.1976 94.7693 52.1976 94.7693C52.1976 94.7693 53.707 89.2064 54.8842 90.9674C55.7813 92.3083 53.6976 98.012 50.9388 97.7673Z" fill="#119620"/>
<path fill-rule="evenodd" clip-rule="evenodd" d="M58.9356 97.7673C55.9085 97.4705 54.8675 93.7527 55.1357 91.67C55.3949 89.6654 57.7673 92.1942 57.9666 94.1426C57.9666 94.1426 57.3416 88.5281 58.8072 88.7248C60.2722 88.9214 60.08 94.7693 60.08 94.7693C60.08 94.7693 61.4521 89.2064 62.5223 90.9674C63.3379 92.3083 61.4436 98.012 58.9356 97.7673Z" fill="#119620"/>
<path fill-rule="evenodd" clip-rule="evenodd" d="M77.2213 97.7673C74.1941 97.4705 73.1531 93.7527 73.4214 91.67C73.6805 89.6654 76.0529 92.1942 76.2522 94.1426C76.2522 94.1426 75.6272 88.5281 77.0928 88.7248C78.5579 88.9214 78.3657 94.7693 78.3657 94.7693C78.3657 94.7693 79.7378 89.2064 80.808 90.9674C81.6235 92.3083 79.7292 98.012 77.2213 97.7673Z" fill="#119620"/>
<path fill-rule="evenodd" clip-rule="evenodd" d="M84.8404 97.9919C81.8133 97.6951 80.7723 93.9773 81.0405 91.8946C81.2997 89.89 83.6721 92.4188 83.8714 94.3673C83.8714 94.3673 83.2464 88.7527 84.712 88.9494C86.177 89.146 85.9848 94.9939 85.9848 94.9939C85.9848 94.9939 87.3569 89.431 88.4271 91.192C89.2426 92.5329 87.3484 98.2366 84.8404 97.9919Z" fill="#119620"/>
<path fill-rule="evenodd" clip-rule="evenodd" d="M68.3304 97.9272C63.9037 97.5014 62.3813 92.1675 62.7736 89.1794C63.1526 86.3035 66.6219 89.9316 66.9133 92.727C66.9133 92.727 65.9994 84.6719 68.1426 84.954C70.285 85.2361 70.0039 93.6259 70.0039 93.6259C70.0039 93.6259 72.0104 85.6451 73.5755 88.1715C74.7681 90.0952 71.9979 98.2783 68.3304 97.9272Z" fill="#119620"/>
</svg>
