<svg width="35" height="36" viewBox="0 0 35 36" fill="none" xmlns="http://www.w3.org/2000/svg">
<path d="M15.5862 4.26181H19.427L18.6588 12.4555H16.0983L15.5862 4.26181Z" fill="#376BB7"/>
<path d="M12.1397 19.6239L13.7831 21.5875L7.90482 27.3055L5.60023 24.2329L12.1397 19.6239Z" fill="#376BB7"/>
<path d="M21.0427 21.6313L22.4002 19.4602L29.2689 23.1589L27.628 26.2305L21.0427 21.6313Z" fill="#376BB7"/>
<path fill-rule="evenodd" clip-rule="evenodd" d="M17.1649 33.9106C26.3041 33.9106 33.713 26.5017 33.713 17.3624C33.713 8.22313 26.3041 0.81427 17.1649 0.81427C8.02556 0.81427 0.616699 8.22313 0.616699 17.3624C0.616699 26.5017 8.02556 33.9106 17.1649 33.9106ZM17.1649 30.4631C24.4001 30.4631 30.2655 24.5977 30.2655 17.3624C30.2655 10.1272 24.4001 4.2618 17.1649 4.2618C9.92958 4.2618 4.06423 10.1272 4.06423 17.3624C4.06423 24.5977 9.92958 30.4631 17.1649 30.4631Z" fill="#4F87D8"/>
<path fill-rule="evenodd" clip-rule="evenodd" d="M17.1342 33.7086C26.2735 33.7086 33.6823 26.2997 33.6823 17.1604C33.6823 14.7782 33.179 12.5136 32.2728 10.4671C33.6097 12.855 34.3718 15.6082 34.3718 18.5394C34.3718 27.6787 26.963 35.0876 17.8237 35.0876C11.0666 35.0876 5.2554 31.0377 2.68506 25.2328C5.5165 30.2901 10.9261 33.7086 17.1342 33.7086Z" fill="#376BB7"/>
<path fill-rule="evenodd" clip-rule="evenodd" d="M28.5243 10.8319C26.5232 6.15764 21.8817 2.88278 16.4754 2.88278C9.24011 2.88278 3.37476 8.74813 3.37476 15.9834C3.37476 18.3615 4.00837 20.5915 5.11599 22.514C4.43904 20.9327 4.06426 19.1913 4.06426 17.3624C4.06426 10.1271 9.92961 4.2618 17.1649 4.2618C22.0221 4.2618 26.2619 6.90518 28.5243 10.8319Z" fill="#376BB7"/>
<circle cx="16.8202" cy="17.0177" r="5.86081" fill="#4F87D8"/>
<path fill-rule="evenodd" clip-rule="evenodd" d="M15.7357 21.794C18.9725 21.794 21.5965 19.17 21.5965 15.9332C21.5965 14.6668 21.1948 13.4942 20.512 12.5359C22.0031 13.5984 22.9755 15.3417 22.9755 17.3122C22.9755 20.549 20.3515 23.173 17.1147 23.173C15.1442 23.173 13.4009 22.2006 12.3384 20.7095C13.2967 21.3923 14.4693 21.794 15.7357 21.794Z" fill="#376BB7"/>
<path opacity="0.41" d="M11.7325 16.4281C11.6379 16.8883 11.5953 17.3648 11.759 17.8144C11.8214 17.9859 11.9768 18.1831 12.2167 18.1683C12.3475 18.1602 12.4538 18.0876 12.5334 18.0106C12.8105 17.742 12.8831 17.3915 12.951 17.0576C13.205 15.8104 13.5355 14.5391 14.4155 13.4577C14.5451 13.2984 14.6899 13.1365 14.7169 12.9519C14.7777 12.5368 14.2075 12.419 13.8245 12.659C13.4588 12.8881 13.1949 13.3602 12.9737 13.667C12.3535 14.5272 11.9305 15.4649 11.7327 16.4283L11.7325 16.4281Z" fill="white"/>
<path opacity="0.41" d="M2.07943 12.2911C1.98484 12.7513 1.94223 13.2278 2.10593 13.6774C2.16829 13.8489 2.32368 14.046 2.56361 14.0312C2.6944 14.0232 2.80076 13.9506 2.88028 13.8735C3.15745 13.605 3.23003 13.2545 3.29794 12.9206C3.5519 11.6734 3.88243 10.402 4.76244 9.32067C4.89202 9.16133 5.03684 8.99945 5.06387 8.81481C5.12467 8.3998 4.55439 8.28198 4.17137 8.52194C3.80568 8.75104 3.54185 9.22318 3.32063 9.52996C2.70046 10.3901 2.27743 11.3279 2.0796 12.2913L2.07943 12.2911Z" fill="white"/>
<path opacity="0.41" d="M29.9128 26.3514C29.6698 26.6011 29.3921 26.8175 29.0339 26.8659C28.8974 26.8844 28.7009 26.8417 28.597 26.6527C28.5404 26.5497 28.5356 26.4405 28.5463 26.35C28.5835 26.0347 28.7683 25.8441 28.9449 25.6634C29.6047 24.9884 30.2434 24.2455 30.5043 23.1562C30.5428 22.9958 30.5757 22.8227 30.6784 22.7309C30.9091 22.5243 31.2515 22.9145 31.2822 23.2996C31.3114 23.6673 31.1407 24.051 31.0533 24.3383C30.808 25.1438 30.4214 25.8286 29.9126 26.3513L29.9128 26.3514Z" fill="white"/>
</svg>
