<svg width="20" height="60" viewBox="0 0 20 60" fill="none" xmlns="http://www.w3.org/2000/svg">
<path fill-rule="evenodd" clip-rule="evenodd" d="M10.3839 9.2996C11.4837 9.16625 15.3563 8.68252 16.9194 8.28614C17.952 8.02403 18.959 7.97161 19.9312 8.08932C17.7864 10.6441 14.0972 14.1775 10.0801 14.1775V14.1776C5.21905 14.1776 2.44707 10.5899 1.08273 8.03142C1.78733 8.02222 2.5074 8.10132 3.23984 8.28709C4.62428 8.6384 7.81932 9.05778 9.29967 9.24172V9.24079C9.77228 9.3008 10.0732 9.33565 10.08 9.33642V9.3364C10.08 9.3364 10.196 9.3226 10.3839 9.2996Z" fill="#EB5757"/>
<path fill-rule="evenodd" clip-rule="evenodd" d="M10.0793 55.7857V55.7869H10.0799V55.7871C11.6585 57.0443 16.3184 59.7822 18.9736 59.1752C19.0248 59.157 19.0761 59.139 19.1275 59.121C19.3178 59.0543 19.5089 58.9874 19.6952 58.9085C18.7694 58.5139 17.8676 57.9971 16.9557 57.3147H16.955C14.1366 55.2031 13.879 50.1882 16.7454 47.9874C16.7469 47.866 16.7492 47.7262 16.7539 47.568L16.6688 46.4736C16.6622 46.3839 16.6554 46.294 16.6486 46.2041C16.5664 45.1103 16.4834 44.0062 16.5992 42.9108C16.6101 42.8079 16.6207 42.7055 16.6314 42.6036C16.7468 41.4951 16.8565 40.4424 17.1653 39.3719C17.2808 39.0294 17.4079 38.6927 17.535 38.3558C17.5816 38.2324 17.6282 38.1089 17.6743 37.9851C15.0345 35.307 14.0971 30.8227 15.9742 26.9398C16.1916 26.4894 16.4476 26.0662 16.703 25.644L16.733 25.5943C16.6773 25.5162 16.6224 25.4408 16.5559 25.3497C15.1413 23.4377 14.4684 21.4733 14.8311 18.9185C15.298 15.6193 16.7746 13.2977 18.3108 10.8825C18.8819 9.98454 19.4613 9.07369 20 8.09487C19.9887 8.09348 19.9772 8.09279 19.9656 8.0921C19.9541 8.09141 19.9426 8.09072 19.9311 8.08936C17.7864 10.6442 14.0971 14.1776 10.0799 14.1776V55.7862C10.0797 55.786 10.0795 55.7859 10.0793 55.7857ZM10.0793 55.7857V14.1774C5.21827 14.1774 2.44629 10.5898 1.08196 8.03125C0.798884 8.03493 0.518142 8.04964 0.240479 8.08275C0.228105 8.36969 0.204895 8.66307 0.156169 8.96564C0.15067 8.99883 0.146557 9.03175 0.14244 9.06469C0.139028 9.09199 0.135615 9.1193 0.131409 9.14681C0.839099 9.83196 4.00245 13.7534 4.20663 14.8616C4.23478 15.0142 4.2801 15.5835 4.3413 16.3522C4.47011 17.9702 4.66925 20.4718 4.9267 21.8309C5.28402 23.7208 4.87024 25.6411 3.86014 26.9912C3.8401 27.0493 3.8208 27.1079 3.8015 27.1664C3.76494 27.2774 3.7284 27.3883 3.68689 27.4961C4.23912 28.127 4.64749 28.9409 4.79754 29.9553C5.24072 32.9598 4.33271 37.1719 2.65358 41.0134C2.97765 41.5054 3.28082 41.9845 3.55849 42.437C4.13547 43.376 4.29943 44.5201 4.18187 45.643C4.72482 47.4336 4.51523 49.5948 3.22282 51.3974C2.26661 52.7314 1.69503 54.4696 1.15516 56.1115C1.0802 56.3394 1.00584 56.5656 0.931158 56.7885C0.754043 57.3182 0.519673 57.8029 0.258253 58.2581C0.664305 58.1716 1.10904 58.0686 1.62956 57.9325C3.78412 57.3701 5.29837 56.6804 6.4538 56.1541C8.13164 55.3899 9.05282 54.9703 10.0793 55.7857Z" fill="#FBEEAB"/>
<path fill-rule="evenodd" clip-rule="evenodd" d="M0.257559 58.2581C0.663611 58.1708 1.10755 58.0687 1.62884 57.9326C3.7834 57.3702 5.29778 56.6804 6.4533 56.1542C8.13214 55.3895 9.0535 54.9699 10.0801 55.787V55.7872C11.6596 57.0447 16.3182 59.7813 18.9729 59.1745C17.7075 59.6224 16.378 59.8817 14.999 59.8817H10.0801V59.8823H5.16112C3.34432 59.8823 1.60332 59.4638 0 58.7088C0.0643737 58.6128 0.121191 58.5078 0.177815 58.4032C0.20419 58.3544 0.230523 58.3058 0.257559 58.2581Z" fill="#EB5757"/>
<path d="M11.6957 59.3379C11.6957 59.7039 10.7784 60.0001 9.64682 60.0001C8.51529 60.0001 7.59723 59.7039 7.59723 59.3379C7.59723 58.9719 8.51451 58.6748 9.64682 58.6748C10.7791 58.6748 11.6957 58.9719 11.6957 59.3379Z" fill="#AE5A0F"/>
<path d="M8.43498 0.477543C8.67243 0.891395 8.82635 1.29237 8.97252 1.67035C9.11638 2.05385 9.24554 2.43552 9.36388 2.81994C9.60055 3.58694 9.80705 4.35947 9.9919 5.14119C10.1729 5.92475 10.333 6.71289 10.4498 7.52036C10.5519 8.33059 10.6393 9.15922 10.5148 10.0301C10.4838 10.2435 10.3144 10.3879 10.1334 10.3511C9.98417 10.3208 9.87512 10.1755 9.8612 10.0053L9.85811 9.97956C9.79701 9.26681 9.6338 8.52649 9.44199 7.80087C9.25714 7.07249 9.02666 6.34871 8.77839 5.63873C8.52702 4.92782 8.25478 4.22795 7.96088 3.54831C7.6662 2.88983 7.35218 2.15777 7.03043 1.71081C6.71874 1.27213 6.76515 0.618246 7.13253 0.2467C7.50068 -0.124847 8.05137 -0.0705827 8.36306 0.3681C8.3824 0.393851 8.40018 0.422358 8.4172 0.449028L8.43267 0.475691L8.43498 0.477543Z" fill="#AE5A0F"/>
<path d="M13.3037 40.7526C11.7197 38.8222 10.9532 36.0356 10.8898 33.3263C10.8349 30.6169 11.483 27.7972 12.9549 25.751C12.5689 27.0063 12.2773 28.247 12.0933 29.506C11.9162 30.7742 11.8303 32.0148 11.8666 33.2987C11.9115 35.8352 12.3833 38.3265 13.3037 40.7526Z" fill="#E6DA9A"/>
<path d="M6.82379 40.7526C7.74418 38.3265 8.21442 35.8352 8.26005 33.2987C8.29563 32.0148 8.21055 30.7742 8.03344 29.506C7.84936 28.247 7.55777 27.0063 7.1726 25.751C8.64444 27.7972 9.29182 30.6169 9.23767 33.3263C9.17425 36.0356 8.40855 38.8232 6.82379 40.7526Z" fill="#E6DA9A"/>
<path d="M13.3027 32.8816C13.3027 33.725 13.0846 34.0091 12.8131 34.0091C12.544 34.0091 12.3235 33.725 12.3235 32.8816C12.3235 32.0383 12.8131 31.355 12.8131 31.355C12.8131 31.355 13.3027 32.0392 13.3027 32.8816Z" fill="#AE5A0F"/>
<path d="M7.80218 32.8816C7.80218 33.725 7.58253 34.0091 7.3126 34.0091C7.04268 34.0091 6.82379 33.725 6.82379 32.8816C6.82379 32.0383 7.3126 31.355 7.3126 31.355C7.3126 31.355 7.80218 32.0392 7.80218 32.8816Z" fill="#AE5A0F"/>
</svg>
