<svg width="55" height="61" viewBox="0 0 55 61" fill="none" xmlns="http://www.w3.org/2000/svg">
<path d="M8.14615 50.7042C9.51462 50.4285 14.7397 54.6022 19.3427 54.9049C23.9457 55.2077 33.525 55.6024 36.3366 54.4972C39.1482 53.3931 41.2382 48.9826 41.0531 46.4026C40.868 43.8227 39.2477 33.6197 37.8265 27.2027C36.4063 20.7858 31.1603 15.6338 29.5072 14.5167C28.5259 13.8542 25.8387 14.152 23.7168 14.5387C20.7699 16.5831 17.5284 18.2728 14.7606 20.532C10.2183 24.2401 7.26635 30.0195 4.54932 35.1205C2.26323 39.4111 -0.8509 45.3904 0.216008 50.4255C0.220984 50.4515 0.230933 50.4754 0.236904 50.5014C1.19633 51.053 2.27518 51.5376 3.29929 51.6945C6.11883 52.1261 6.77669 50.981 8.14516 50.7052L8.14615 50.7042Z" fill="#8892A3"/>
<path d="M7.31912 53.8101C9.33151 55.184 10.1207 56.2782 12.5004 56.9286C16.4615 58.0118 22.0438 58.5813 26.0388 59.5276C29.1071 60.254 32.4442 61.507 35.6191 60.7816C36.9905 60.4679 38.2704 59.8324 39.5344 59.2318C41.2343 58.4245 43.0436 57.9119 44.7196 57.1045C44.844 57.0446 44.9177 56.9596 44.9525 56.8647C47.8865 58.7562 52.1064 59.6915 54.1964 56.2362C57.0926 51.4459 51.3102 46.2111 50.2462 41.8505C49.4998 38.7919 49.0927 35.7813 47.9631 32.8156C46.9181 30.0728 45.5785 27.4509 44.0558 24.9458C41.1437 20.1556 37.5996 15.799 33.9789 11.5324C34.1321 11.2196 34.3003 10.9179 34.4765 10.6201C32.1596 10.745 29.8327 10.69 27.5446 10.3523C27.667 10.5631 27.7884 10.777 27.9108 10.9928C26.6648 12.3587 25.2267 13.4928 23.7169 14.54C25.8387 14.1533 28.5259 13.8555 29.5072 14.518C31.1613 15.6351 36.4063 20.7871 37.8265 27.204C39.2467 33.621 40.868 43.8249 41.0531 46.4039C41.2382 48.9839 39.1482 53.3944 36.3366 54.4986C33.525 55.6037 23.9458 55.209 19.3427 54.9062C14.7397 54.6045 9.51464 50.4298 8.14617 50.7056C6.7777 50.9813 6.11985 52.1264 3.3003 51.6948C2.27619 51.5379 1.19734 51.0533 0.237915 50.5017C0.942552 53.5843 4.64787 56.1033 7.32012 53.8101H7.31912Z" fill="#7F8896"/>
<path d="M35.7643 9.67846C36.8332 8.56933 40.232 6.98559 42.8973 5.85149C42.6733 5.12206 42.2583 4.37364 41.8144 3.74813C40.648 2.10442 38.7948 3.10066 38.7948 3.10066C37.2213 4.30671 34.0027 8.71822 34.0027 8.71822C34.0027 8.71822 33.2772 7.39027 34.769 5.15303C35.5702 3.95197 36.9337 2.61602 38.0265 1.6338C37.7697 1.30505 37.4463 0.97931 37.0223 0.733503C35.6668 -0.053877 34.0027 1.2511 34.0027 1.2511C31.7425 3.47935 29.6793 8.01577 29.6793 8.01577C29.6793 8.01577 28.9229 6.14227 29.4614 3.61326C29.7361 2.32127 30.7592 1.02229 31.7505 0.0250764C31.4011 -0.032878 31.0657 0.00309566 30.789 0.201939C29.6694 1.00531 27.9277 2.89481 27.2808 6.28215C26.6339 9.66848 27.5007 12.5492 27.5007 12.5492C27.5007 12.5492 33.8982 15.1362 34.768 13.5124C34.8546 13.3516 34.977 13.1797 35.1174 13.0049C34.5272 12.7501 34.1022 12.5492 34.1022 12.5492C34.1022 12.5492 33.9788 11.533 35.7643 9.68047V9.67846Z" fill="#7F8896"/>
<path d="M34.7682 5.15229C33.2763 7.38953 34.0018 8.71748 34.0018 8.71748C34.0018 8.71748 37.2205 4.30497 38.794 3.09992C38.794 3.09992 38.5879 2.35449 38.0256 1.63306C36.9328 2.61528 35.5693 3.95124 34.7682 5.15229Z" fill="#8E98A8"/>
<path d="M41.7299 8.63962C43.1133 8.17499 43.2616 7.03987 42.8973 5.85181C40.232 6.98591 36.8342 8.56965 35.7643 9.67878C33.9789 11.5313 34.1023 12.5475 34.1023 12.5475C34.1023 12.5475 34.5273 12.7484 35.1174 13.0032C36.3933 11.4074 39.7175 9.31509 41.7299 8.63962Z" fill="#8E98A8"/>
<path d="M29.4604 3.61259C28.922 6.1416 29.6784 8.01514 29.6784 8.01514C29.6784 8.01514 31.7415 3.47968 34.0017 1.25044C34.0017 1.25044 32.8144 0.200276 31.7495 0.0244141C30.7582 1.02163 29.7351 2.32061 29.4604 3.61259Z" fill="#8E98A8"/>
<path d="M37.0213 15.1822C37.0213 15.1822 37.294 12.0986 34.4764 10.6188C31.6589 9.13896 29.9003 9.68952 27.5445 10.351C25.1888 11.0125 25.2674 13.4116 25.2674 13.4116C25.2674 13.4116 27.3236 11.604 29.6774 11.8079C32.0311 12.0117 37.0213 15.1822 37.0213 15.1822Z" fill="#FAFAFA"/>
<path d="M20.5331 19.5607C17.7404 21.0515 16.1082 20.9765 13.6201 24.238C11.1319 27.4994 4.35828 40.676 4.35828 40.676C6.59759 38.21 12.2347 35.561 16.6058 27.9101C18.9039 23.8872 21.2089 23.1528 23.1994 22.0787C25.1899 21.0045 25.2685 17.1335 25.2685 17.1335C25.2685 17.1335 22.232 18.6544 20.5331 19.5617V19.5607Z" fill="#7F8896"/>
<path d="M35.1065 31.967C35.1065 31.967 33.8256 41.6005 28.4254 45.4984C24.2115 48.539 18.3485 49.857 18.3485 49.857C18.3485 49.857 25.166 53.7319 32.6552 48.4831C40.1445 43.2332 35.1065 31.967 35.1065 31.967Z" fill="#7F8896"/>
</svg>
