<svg width="56" height="59" viewBox="0 0 56 59" fill="none" xmlns="http://www.w3.org/2000/svg">
<path d="M1.04736 45.9184C2.94845 46.3511 4.92701 45.7323 6.71325 44.9504C11.7944 42.7265 16.2509 39.0949 19.4554 34.5672C20.49 33.1054 21.415 31.5316 22.7646 30.3546C24.883 32.164 25.4471 35.3045 24.8793 38.0322C24.3116 40.76 22.8008 43.1834 21.317 45.5417C18.7987 49.5443 16.2803 53.5467 13.762 57.5493C13.5665 57.86 13.3646 58.24 13.5158 58.5744C13.6591 58.8912 14.0562 59.0034 14.4038 59C15.4895 58.9895 16.4175 58.2484 17.2126 57.5088C26.2465 49.1048 30.2111 36.0165 28.7738 23.7611C29.8074 26.518 33.0475 27.9599 35.9826 27.7306C38.9177 27.5012 41.5784 25.9483 43.9671 24.2274C48.6896 20.8245 52.8517 16.5543 55.686 11.4698C55.8435 11.1872 56.001 10.8867 56.0004 10.563C55.9991 9.81102 55.1134 9.31811 54.3695 9.42671C53.6257 9.53531 53.0123 10.0435 52.4276 10.5162C48.6187 13.5948 44.2513 15.9803 39.6028 17.5211C36.8929 18.4193 33.7966 18.9989 31.2814 17.6485C29.9729 16.946 28.964 15.7866 27.695 15.0149C26.4261 14.2431 24.6283 13.9541 23.5575 14.9836C23.0888 15.4342 22.8411 16.0615 22.6051 16.6676C19.2154 25.377 15.2579 34.2758 8.15398 40.3477C6.64125 41.6405 4.97945 42.797 3.14019 43.575C2.3846 43.8945 0.932712 43.9614 0.319951 44.418C-0.400416 44.9547 0.307629 45.7501 1.04736 45.9184Z" fill="#FFE28B"/>
<path d="M53.3701 8.38714C52.5371 8.52 51.8102 9.01194 51.1331 9.51502C48.3606 11.5739 45.8462 14.062 42.7016 15.4889C39.5568 16.9157 35.4455 16.9997 33.0267 14.5345C31.7548 13.2384 31.1174 11.4194 29.8302 10.1383C28.8632 9.17572 27.5492 8.65091 26.1979 8.5519C26.0122 8.34996 25.8371 8.13863 25.6779 7.91418C25.0808 7.07218 24.7157 6.01455 24.9098 5.00074C25.1039 3.98694 25.9567 3.07136 26.9871 3.0154C27.3825 2.99387 27.7758 3.09308 28.1717 3.09034C28.5677 3.0876 29.0046 2.94887 29.1899 2.5988C29.3856 2.22936 29.26 1.7071 29.5681 1.42474C28.6067 0.622849 27.3968 0.122894 26.1498 0.0121402C25.968 -0.004101 25.7814 -0.0117373 25.6065 0.0401172C25.3721 0.109583 25.1817 0.278064 25.006 0.447912C23.3974 2.00218 22.3151 4.09182 21.9737 6.30278C21.7869 7.51324 21.6885 8.73074 21.4907 9.93905C21.4819 9.99286 21.4746 10.0447 21.4686 10.0948C20.9035 10.5278 20.3995 11.0413 20.1254 11.6168C19.4845 12.9629 19.2173 14.4848 19.0269 15.9516C18.8048 17.6626 18.7238 19.3895 18.4668 21.0964C17.694 26.2265 15.1713 31.0765 11.4149 34.6543C7.72642 38.1673 2.87481 40.5187 0 44.7239C0.64426 45.2874 1.6182 45.1898 2.45498 45.0096C6.9423 44.0423 11.0434 41.6496 14.4617 38.5851C17.8798 35.5206 18.8217 33.1992 21.2479 29.3017C20.1155 36.6647 19.2601 40.3299 16.5142 48.1913C15.3269 51.5908 11.4404 57.7018 13.4041 58.4945C14.4144 58.5418 15.2803 57.8164 16.0013 57.1071C19.8684 53.3026 22.8836 48.6902 25.2087 43.7885C26.6923 40.6604 27.9133 37.3713 28.3711 33.9395C29.1467 28.1257 27.7024 22.2644 26.1374 16.6118C26.8875 18.9676 27.9219 21.277 29.5501 23.1371C31.1783 24.9972 33.4618 26.376 35.9291 26.5264C39.1539 26.7231 42.1305 24.8685 44.657 22.8546C48.5167 19.7783 51.9374 16.1518 54.7829 12.1189C55.3608 11.3 55.9368 10.2617 55.5195 9.35046C55.1683 8.5834 54.2032 8.25407 53.3701 8.38694V8.38714Z" fill="#F2C94C"/>
<path d="M54.7248 8.57617C54.314 8.37952 53.8227 8.31514 53.3704 8.38715C52.5373 8.52001 51.8105 9.01195 51.1333 9.51503C48.3608 11.574 45.8464 14.062 42.7018 15.4889C39.557 16.9157 35.4457 16.9997 33.027 14.5345C31.7551 13.2384 31.1176 11.4194 29.8305 10.1383C28.8634 9.17573 27.5495 8.65092 26.1981 8.55191C26.0125 8.34997 25.8374 8.13864 25.6781 7.9142C25.081 7.0722 24.7159 6.01456 24.91 5.00075C25.1041 3.98695 25.9569 3.07137 26.9874 3.01541C27.3828 2.99388 27.776 3.09309 28.172 3.09035C28.568 3.08761 29.0049 2.94888 29.1901 2.59881C29.3858 2.22937 29.2602 1.70711 29.5683 1.42475C29.5548 1.41359 29.5411 1.40263 29.5276 1.39148C28.9213 1.83117 28.3013 2.13271 27.6747 1.83841C27.4575 1.73646 27.2685 1.57698 27.042 1.49773C26.5061 1.31008 25.9223 1.61592 25.4958 1.99065C24.5815 2.7939 24.0085 3.97364 23.9422 5.1888C23.8948 6.05565 24.0936 6.91996 24.0742 7.78779C24.0547 8.65581 23.7483 9.60269 22.9907 10.0265C24.0922 9.73536 25.3046 9.88878 26.2987 10.4453C28.1996 11.5094 29.035 13.7424 30.1762 15.5981C30.9987 16.9355 32.0403 18.1379 33.2471 19.1424C34.0713 19.8286 35.0164 20.4399 36.0813 20.5675C37.563 20.7452 38.9797 19.966 40.2214 19.1383C44.5389 16.2602 48.1852 12.4905 52.3252 9.36279C52.7122 9.07045 53.1205 8.77596 53.5961 8.68164C54.072 8.58713 54.6342 8.75111 54.8547 9.18316C54.8218 8.97868 54.7782 8.77615 54.7248 8.57597V8.57617Z" fill="#E0B73C"/>
<path d="M22.0482 16.6479C22.1857 25.8066 17.6822 34.617 11.231 41.1184C14.8097 38.1715 18.3172 34.945 20.4177 30.8119C22.5361 26.6434 22.1165 21.2035 22.0482 16.6479Z" fill="#E0B73C"/>
<path d="M24.0276 14.1373C24.763 15.8262 25.0414 17.676 25.2243 19.5089C26.2616 29.8982 24.3956 40.5622 19.8918 49.9817C20.9059 47.6903 22.051 45.3551 22.5835 42.8994C23.084 40.5914 23.5465 38.2745 23.9299 35.944C24.6969 31.2834 25.16 26.5519 24.9716 21.8249C24.9191 20.508 24.8162 19.1929 24.6554 17.8847C24.5145 16.7391 24.4907 15.2012 24.0274 14.1375L24.0276 14.1373Z" fill="#E0B73C"/>
<path opacity="0.34" d="M19.97 13.4082C19.5353 14.9709 19.8168 16.64 19.6141 18.2491C19.5394 18.8423 19.3989 19.4253 19.2739 20.01C19.254 20.1037 19.2376 20.2125 19.2992 20.286C19.3948 20.4003 19.5832 20.3307 19.6952 20.2322C19.9904 19.9726 20.1356 19.5834 20.2305 19.2016C20.4429 18.3467 20.4578 17.4569 20.5586 16.5817C20.6593 15.7064 20.8602 14.811 21.3865 14.1044C21.6211 13.7894 21.9175 13.5158 22.0918 13.1638C22.2661 12.8118 22.2816 12.3345 21.9891 12.0723C21.049 11.2299 20.179 12.6576 19.9702 13.4078L19.97 13.4082Z" fill="white"/>
</svg>
