<svg width="32" height="61" viewBox="0 0 32 61" fill="none" xmlns="http://www.w3.org/2000/svg">
<path d="M31.8292 57.1557C31.5308 58.3009 29.6202 59.9641 28.1747 60.4334C26.0126 61.1362 15.9996 60.9865 15.9996 60.9865C15.9996 60.9865 5.98656 61.137 3.82444 60.4334C2.3806 59.9641 0.470042 58.3009 0.170759 57.1557C0.00817547 56.5083 -0.113964 53.6852 0.170759 53.1208C0.455482 52.5547 1.07265 52.2139 1.07265 52.2139V22.6167L0.170759 21.2528V19.2633C0.170759 19.2633 1.04515 17.374 2.65885 16.2564C3.7298 15.5074 6.40151 14.0141 9.23418 12.5891C11.9261 11.226 13.0909 9.14791 13.01 7.47651C13.0027 7.4025 12.9963 7.32035 12.9898 7.22519C12.9752 7.10807 12.9623 6.97306 12.9421 6.82992C12.7245 5.13249 12.0677 1.90844 12.2917 1.68396C12.5433 1.43101 15.0031 1.17236 15.9996 1.17236C16.9961 1.17236 19.4567 1.43101 19.7083 1.68396C19.9323 1.90844 19.2739 5.13249 19.0579 6.82992C19.0369 6.97388 19.0232 7.10888 19.0102 7.22519C19.0038 7.31954 18.9965 7.4025 18.99 7.47651C18.9083 9.14791 20.0747 11.226 22.7658 12.5891C25.5928 14.0141 28.2702 15.5074 29.3411 16.2564C30.9476 17.374 31.8292 19.2633 31.8292 19.2633V21.2528L30.9273 22.6167V52.2139C30.9273 52.2139 31.5437 52.5547 31.8292 53.1208C32.114 53.6852 31.9918 56.5083 31.8292 57.1557Z" fill="#AADBFB"/>
<path d="M31.8154 19.2352C21.2879 18.4243 10.7119 18.4243 0.184448 19.2352C0.238643 19.1132 0.503951 18.6016 0.951258 17.9811C10.9578 16.9449 21.004 16.9319 31.0098 17.9331C31.4838 18.574 31.754 19.1124 31.8154 19.2352Z" fill="#C3E6FC"/>
<path d="M31.8291 19.2638V21.2263C21.2943 20.4081 10.7054 20.4081 0.170624 21.2263V19.2638C0.170624 19.2638 0.177097 19.2564 0.183568 19.2361C10.7119 18.4252 21.2871 18.4252 31.8145 19.2361C31.8218 19.2564 31.8291 19.2638 31.8291 19.2638Z" fill="#ADDCDC"/>
<path d="M31.8291 53.1207C30.1005 54.627 1.81183 54.5652 0.170624 53.1207C0.455347 52.5546 1.07252 52.2139 1.07252 52.2139C11.0103 52.9979 20.9894 52.9979 30.9272 52.2139C30.9272 52.2139 31.5436 52.5546 31.8291 53.1207Z" fill="#C3E6FC"/>
<path d="M31.8291 21.2265V21.2533L30.9272 22.6172C20.881 21.8812 11.105 21.8812 1.06605 22.6034L0.170624 21.2533V21.2265C10.7054 20.4082 21.2935 20.4082 31.8291 21.2265Z" fill="#C3E6FC"/>
<path opacity="0.2" d="M19.0578 6.8299H12.9427C12.7251 5.13248 12.0683 1.90843 12.2924 1.68395C12.5439 1.431 15.0037 1.17236 16.0002 1.17236C16.9968 1.17236 19.4574 1.431 19.7089 1.68395C19.933 1.90843 19.2738 5.13248 19.0578 6.8299Z" fill="black"/>
<path d="M31.8291 19.2354V21.2256C21.2943 20.4074 10.7054 20.4074 0.170624 21.2256V19.2354H0.183568C10.7119 18.4245 21.2871 18.4245 31.8145 19.2354H31.8291Z" fill="#C3E6FC"/>
<path d="M19.0504 8.32656H12.9491C12.6692 8.32656 12.442 8.09719 12.442 7.81496C12.442 7.53274 12.6692 7.3042 12.9491 7.3042H19.0504C19.3311 7.3042 19.5592 7.53274 19.5592 7.81496C19.5592 8.09719 19.3311 8.32656 19.0504 8.32656Z" fill="#EBF4F8"/>
<path d="M19.8093 6.54326H12.1905C11.871 4.43754 11.3161 0.844244 11.5466 0.61407C11.6413 0.518097 11.9867 0.428625 12.4607 0.341598C13.0778 0.224478 13.911 0.130127 14.6576 0.0675006C15.1793 0.0268339 15.6614 0 15.9995 0C17.1991 0 20.1555 0.313951 20.4531 0.61407C20.6837 0.844244 20.128 4.43754 19.8093 6.54326Z" fill="#F76FB7"/>
<path opacity="0.4" d="M15.3427 6.54315H13.1054C12.8279 4.43743 12.434 1.36953 12.4615 0.341481C13.0787 0.224361 13.9118 0.130009 14.6584 0.0673828C14.6786 1.32886 15.0442 4.25361 15.3427 6.54315Z" fill="white"/>
<rect width="1.69273" height="27.6537" rx="0.846366" transform="matrix(1 0 0.00483735 0.999988 2.42664 23.5867)" fill="#C3E6FC"/>
</svg>
