<svg xmlns="http://www.w3.org/2000/svg" width="108" height="140" fill="none"><path fill="#0F7219" fill-rule="evenodd" d="M97.933 132.415c0-4.187-3.39-7.581-7.574-7.581H17.054c-4.182 0-7.573 3.394-7.573 7.581v.005c0 4.187 3.39 7.581 7.573 7.581H90.36c4.183 0 7.574-3.394 7.574-7.581v-.005Z" clip-rule="evenodd"/><path fill="#11831D" fill-rule="evenodd" d="M3.914 6.501h100.181l-9.35 119.73a9.282 9.282 0 0 1-9.25 8.564H22.513a9.282 9.282 0 0 1-9.25-8.564L3.914 6.501Z" clip-rule="evenodd"/><path fill="#0F7219" fill-rule="evenodd" d="m102.946 21.236-98.5-7.941-.531-6.794h100.182l-1.15 14.735h-.001Z" clip-rule="evenodd"/><path fill="#11831D" fill-rule="evenodd" d="M108 6.462A6.458 6.458 0 0 0 101.545 0H6.455A6.458 6.458 0 0 0 0 6.462v.011a6.46 6.46 0 0 0 6.455 6.463h95.09A6.459 6.459 0 0 0 108 6.473v-.011Z" clip-rule="evenodd"/><path fill="#D7D8D5" d="m50.235 64.52-7.877-4.188c1.698-3.733 3.427-6.646 4.993-8.87.759-.584 2.076-.836 2.629-.993 2.623-.745 7.056.725 7.056.725L50.235 64.52Z"/><path fill="#fff" d="m65.768 60.166-7.69 4.545c-.73-1.354-1.356-2.689-2.022-3.958-1.439-2.74-1.888-3.85-3.684-6.038-.83-1.01-2.731-2.851-4.956-3.309 2.359-2.004 6.4-1.629 8.304-1.345 3.015.451 5.361 1.382 6.411 3.376.277.526 3.51 6.803 3.637 6.73Z"/><path fill="#fff" d="m64.244 66.912-8.803-2.252 6.61-2.974 5.516-2.48-3.323 7.706Z"/><path fill="#D7D8D5" d="m64.047 71.138 7.411-4.779c1.963 3.48 4.207 6.184 5.381 8.638.138.95-.286 2.224-.418 2.781-.633 2.656-4.08 5.81-4.08 5.81l-8.294-12.45Z"/><path fill="#fff" d="m60.255 86.831-.204-8.936c1.536.023 3.005.129 4.437.167 3.09.083 4.279.231 7.062-.268 1.286-.231 3.82-.993 5.305-2.713.596 3.04-1.706 6.387-2.884 7.91-1.866 2.414-3.824 4.009-6.074 3.952-.593-.015-7.646-.257-7.642-.112Z"/><path fill="#fff" d="m55.12 82.205 6.263-6.59-.637 7.228-.532 6.03-5.095-6.668Z"/><path fill="#D7D8D5" d="m49.204 79.226-.035 8.648c-4.156.137-7.434.371-10.13.03-.872-.396-1.713-1.443-2.11-1.857-1.887-1.97-2.672-6.578-2.672-6.578l14.947-.243Z"/><path fill="#fff" d="m38.074 67.54 7.617 4.664c-.851 1.281-1.735 2.46-2.541 3.646-1.743 2.556-2.511 3.475-3.598 6.09-.502 1.206-1.233 3.751-.593 5.934-2.876-1.145-4.441-4.894-5.083-6.71-1.018-2.878-1.297-5.388-.031-7.252.333-.491 4.353-6.297 4.229-6.371Z"/><path fill="#fff" d="m44.74 65.72 2.145 8.84-5.726-4.448-4.777-3.711 8.358-.68ZM66.995 27.3c0-.68.28-1.233.84-1.66.567-.427 1.307-.64 2.22-.64.92 0 1.67.223 2.25.67.587.447.88.913.88 1.4a.22.22 0 0 1-.07.16.192.192 0 0 1-.14.06h-2a.616.616 0 0 1-.42-.17c-.126-.113-.296-.17-.51-.17-.32 0-.48.093-.48.28 0 .1.077.183.23.25.16.067.454.127.88.18.994.127 1.7.36 2.12.7.427.333.64.843.64 1.53 0 .68-.313 1.237-.94 1.67-.62.427-1.433.64-2.44.64-1.006 0-1.796-.207-2.37-.62-.573-.413-.86-.917-.86-1.51 0-.06.02-.11.06-.15a.22.22 0 0 1 .16-.07h1.9c.14 0 .294.067.46.2.174.133.41.2.71.2.5 0 .75-.093.75-.28 0-.12-.09-.21-.27-.27-.18-.067-.52-.133-1.02-.2-1.72-.227-2.58-.96-2.58-2.2ZM59.288 27.3c0-.68.28-1.233.84-1.66.567-.427 1.307-.64 2.22-.64.92 0 1.67.223 2.25.67.587.447.88.913.88 1.4a.22.22 0 0 1-.07.16.192.192 0 0 1-.14.06h-2a.616.616 0 0 1-.42-.17c-.126-.113-.296-.17-.51-.17-.32 0-.48.093-.48.28 0 .1.077.183.23.25.16.067.454.127.88.18.994.127 1.7.36 2.12.7.427.333.64.843.64 1.53 0 .68-.313 1.237-.94 1.67-.62.427-1.433.64-2.44.64-1.006 0-1.796-.207-2.37-.62-.573-.413-.86-.917-.86-1.51 0-.06.02-.11.06-.15a.22.22 0 0 1 .16-.07h1.9c.14 0 .294.067.46.2.174.133.41.2.71.2.5 0 .75-.093.75-.28 0-.12-.09-.21-.27-.27-.18-.067-.52-.133-1.02-.2-1.72-.227-2.58-.96-2.58-2.2ZM53.307 25.1h2.17c.24 0 .39.11.45.33l2.23 6.38c.006.02.01.053.01.1 0 .04-.024.083-.07.13-.04.04-.09.06-.15.06h-1.85c-.2 0-.33-.083-.39-.25l-.24-.66h-2.15l-.24.66c-.06.167-.19.25-.39.25h-1.85a.239.239 0 0 1-.16-.06c-.04-.047-.06-.09-.06-.13a.35.35 0 0 1 .01-.1l2.23-6.38c.06-.22.21-.33.45-.33Zm.52 4.14h1.13l-.57-1.86-.56 1.86ZM46.672 30.05h2.77a.26.26 0 0 1 .19.08.26.26 0 0 1 .08.19v1.51a.26.26 0 0 1-.08.19.26.26 0 0 1-.19.08h-5.04a.26.26 0 0 1-.19-.08.26.26 0 0 1-.08-.19v-6.46a.26.26 0 0 1 .08-.19.26.26 0 0 1 .19-.08h2a.26.26 0 0 1 .19.08.26.26 0 0 1 .08.19v4.68ZM39.508 27.88h2.75a.26.26 0 0 1 .19.08.26.26 0 0 1 .08.19v1.3c0 .88-.314 1.56-.94 2.04-.627.473-1.464.71-2.51.71-1.04 0-1.86-.23-2.46-.69-.6-.467-.9-1.163-.9-2.09v-1.68c0-.887.306-1.563.92-2.03.613-.473 1.43-.71 2.45-.71 1.026 0 1.856.217 2.49.65.633.427.95.953.95 1.58a.22.22 0 0 1-.07.16c-.04.04-.09.06-.15.06h-2.21c-.134 0-.23-.037-.29-.11-.134-.173-.234-.273-.3-.3a1.163 1.163 0 0 0-.42-.09c-.514 0-.77.25-.77.75v1.7c0 .567.273.85.82.85.56 0 .84-.24.84-.72h-.47a.26.26 0 0 1-.19-.08.26.26 0 0 1-.08-.19v-1.11a.26.26 0 0 1 .08-.19.26.26 0 0 1 .19-.08Z"/></svg>