<svg xmlns="http://www.w3.org/2000/svg" width="108" height="140" fill="none"><path fill="#D8A739" fill-rule="evenodd" d="M97.933 132.415c0-4.187-3.39-7.581-7.573-7.581H17.055c-4.182 0-7.574 3.394-7.574 7.581v.005c0 4.187 3.39 7.581 7.574 7.581H90.36c4.183 0 7.573-3.394 7.573-7.581v-.005Z" clip-rule="evenodd"/><path fill="#EDB63A" fill-rule="evenodd" d="M3.914 6.501h100.181l-9.35 119.73a9.282 9.282 0 0 1-9.25 8.564H22.513a9.282 9.282 0 0 1-9.25-8.564L3.912 6.501h.002Z" clip-rule="evenodd"/><path fill="#D8A739" fill-rule="evenodd" d="m103.026 21.735-98.5-7.94L3.996 7h100.182l-1.151 14.735h-.001Z" clip-rule="evenodd"/><path fill="#EDB63A" fill-rule="evenodd" d="M108 6.462A6.46 6.46 0 0 0 101.545 0H6.455A6.458 6.458 0 0 0 0 6.462v.011a6.46 6.46 0 0 0 6.455 6.463h95.09A6.459 6.459 0 0 0 108 6.473v-.011Z" clip-rule="evenodd"/><path fill="#D7D8D5" d="m50.235 64.52-7.877-4.188c1.698-3.733 3.427-6.646 4.993-8.87.759-.584 2.076-.836 2.629-.993 2.623-.745 7.056.725 7.056.725L50.235 64.52Z"/><path fill="#fff" d="m65.768 60.166-7.69 4.545c-.73-1.354-1.356-2.689-2.022-3.958-1.439-2.74-1.888-3.85-3.684-6.038-.83-1.01-2.731-2.851-4.956-3.309 2.359-2.004 6.4-1.629 8.304-1.345 3.015.451 5.361 1.382 6.411 3.376.277.526 3.51 6.803 3.637 6.73Z"/><path fill="#fff" d="m64.244 66.912-8.803-2.252 6.61-2.974 5.516-2.48-3.323 7.706Z"/><path fill="#D7D8D5" d="m64.047 71.138 7.411-4.779c1.963 3.48 4.207 6.184 5.381 8.638.138.95-.286 2.224-.418 2.781-.633 2.656-4.08 5.81-4.08 5.81l-8.294-12.45Z"/><path fill="#fff" d="m60.255 86.831-.204-8.936c1.536.023 3.005.129 4.437.167 3.09.083 4.279.231 7.062-.268 1.286-.231 3.82-.993 5.305-2.713.596 3.04-1.706 6.387-2.884 7.91-1.866 2.414-3.824 4.009-6.074 3.952-.593-.015-7.646-.257-7.642-.112Z"/><path fill="#fff" d="m55.12 82.205 6.263-6.59-.637 7.228-.532 6.03-5.095-6.668Z"/><path fill="#D7D8D5" d="m49.204 79.226-.035 8.648c-4.156.137-7.434.371-10.13.03-.872-.396-1.713-1.443-2.11-1.857-1.887-1.97-2.672-6.578-2.672-6.578l14.947-.243Z"/><path fill="#fff" d="m38.074 67.54 7.617 4.664c-.851 1.281-1.735 2.46-2.541 3.646-1.743 2.556-2.511 3.475-3.598 6.09-.502 1.206-1.233 3.751-.593 5.934-2.876-1.145-4.441-4.894-5.083-6.71-1.018-2.878-1.297-5.388-.031-7.252.333-.491 4.353-6.297 4.229-6.371Z"/><path fill="#fff" d="m44.74 65.72 2.145 8.84-5.726-4.448-4.777-3.711 8.358-.68ZM69.731 37.05h2.77a.26.26 0 0 1 .19.08.26.26 0 0 1 .08.19v1.51a.26.26 0 0 1-.08.19.26.26 0 0 1-.19.08h-5.04a.26.26 0 0 1-.19-.08.26.26 0 0 1-.08-.19v-6.46a.26.26 0 0 1 .08-.19.26.26 0 0 1 .19-.08h2a.26.26 0 0 1 .19.08.26.26 0 0 1 .08.19v4.68ZM61.03 32.1h2.17c.24 0 .39.11.45.33l2.23 6.38c.006.02.01.053.01.1 0 .04-.024.083-.07.13-.04.04-.09.06-.15.06h-1.85c-.2 0-.33-.083-.39-.25l-.24-.66h-2.15l-.24.66c-.06.167-.19.25-.39.25h-1.85a.239.239 0 0 1-.16-.06c-.04-.047-.06-.09-.06-.13a.35.35 0 0 1 .01-.1l2.23-6.38c.06-.22.21-.33.45-.33Zm.52 4.14h1.13l-.57-1.86-.56 1.86ZM51.258 32.1h5.86a.26.26 0 0 1 .19.08.26.26 0 0 1 .08.19v1.61a.26.26 0 0 1-.08.19.26.26 0 0 1-.19.08h-1.66v4.58a.26.26 0 0 1-.08.19.26.26 0 0 1-.19.08h-2a.26.26 0 0 1-.19-.08.26.26 0 0 1-.08-.19v-4.58h-1.66a.26.26 0 0 1-.19-.08.26.26 0 0 1-.08-.19v-1.61a.26.26 0 0 1 .08-.19.26.26 0 0 1 .19-.08ZM46.284 37.15h3.08a.26.26 0 0 1 .19.08.26.26 0 0 1 .08.19v1.41a.26.26 0 0 1-.08.19.26.26 0 0 1-.19.08h-5.21a.26.26 0 0 1-.19-.08.26.26 0 0 1-.08-.19v-6.46a.26.26 0 0 1 .08-.19.26.26 0 0 1 .19-.08h5.13a.26.26 0 0 1 .19.08.26.26 0 0 1 .08.19v1.41a.26.26 0 0 1-.08.19.26.26 0 0 1-.19.08h-3v.63h2.78a.26.26 0 0 1 .19.08.26.26 0 0 1 .08.19v1.3a.26.26 0 0 1-.08.19.26.26 0 0 1-.19.08h-2.78v.63ZM40.235 32.1h1.58a.26.26 0 0 1 .19.08.26.26 0 0 1 .08.19v6.46a.26.26 0 0 1-.08.19.26.26 0 0 1-.19.08h-1.81a.26.26 0 0 1-.19-.08.26.26 0 0 1-.08-.19v-2.74l-.66 1.08c-.107.167-.23.25-.37.25h-.7c-.14 0-.264-.083-.37-.25l-.66-1.08v2.74a.26.26 0 0 1-.08.19.26.26 0 0 1-.19.08h-1.81a.26.26 0 0 1-.19-.08.26.26 0 0 1-.08-.19v-6.46a.26.26 0 0 1 .08-.19.26.26 0 0 1 .19-.08h1.58c.186 0 .33.09.43.27l1.45 2.4 1.45-2.4c.1-.18.243-.27.43-.27ZM74.154 21.76v1.68c0 .54.246.81.74.81.38 0 .63-.18.75-.54a.485.485 0 0 1 .12-.23c.053-.04.136-.06.25-.06h2.04c.06 0 .11.023.15.07.046.04.07.09.07.15 0 .58-.167 1.067-.5 1.46-.614.733-1.57 1.1-2.87 1.1-1.02 0-1.834-.223-2.44-.67-.607-.453-.91-1.147-.91-2.08v-1.7c0-.913.31-1.6.93-2.06.62-.46 1.426-.69 2.42-.69 1.3 0 2.256.367 2.87 1.1.333.393.5.88.5 1.46a.22.22 0 0 1-.07.16c-.04.04-.09.06-.15.06h-2.04c-.107 0-.187-.02-.24-.06a.547.547 0 0 1-.13-.23c-.127-.36-.377-.54-.75-.54-.494 0-.74.27-.74.81ZM69.687 26.1h-2.04a.26.26 0 0 1-.19-.08.26.26 0 0 1-.08-.19v-6.46a.26.26 0 0 1 .08-.19.26.26 0 0 1 .19-.08h2.04a.26.26 0 0 1 .19.08.26.26 0 0 1 .08.19v6.46a.26.26 0 0 1-.08.19.26.26 0 0 1-.19.08ZM59.795 19.1h5.86a.26.26 0 0 1 .19.08.26.26 0 0 1 .08.19v1.61a.26.26 0 0 1-.08.19.26.26 0 0 1-.19.08h-1.66v4.58a.26.26 0 0 1-.08.19.26.26 0 0 1-.19.08h-2a.26.26 0 0 1-.19-.08.26.26 0 0 1-.08-.19v-4.58h-1.66a.26.26 0 0 1-.19-.08.26.26 0 0 1-.08-.19v-1.61a.26.26 0 0 1 .08-.19.26.26 0 0 1 .19-.08ZM51.988 21.3c0-.68.28-1.233.84-1.66.566-.427 1.306-.64 2.22-.64.92 0 1.67.223 2.25.67.586.447.88.913.88 1.4a.22.22 0 0 1-.07.16.192.192 0 0 1-.14.06h-2a.616.616 0 0 1-.42-.17c-.127-.113-.297-.17-.51-.17-.32 0-.48.093-.48.28 0 .1.076.183.23.25.16.067.453.127.88.18.993.127 1.7.36 2.12.7.426.333.64.843.64 1.53 0 .68-.314 1.237-.94 1.67-.62.427-1.434.64-2.44.64-1.007 0-1.797-.207-2.37-.62-.574-.413-.86-.917-.86-1.51 0-.06.02-.11.06-.15a.22.22 0 0 1 .16-.07h1.9c.14 0 .293.067.46.2.173.133.41.2.71.2.5 0 .75-.093.75-.28 0-.12-.09-.21-.27-.27-.18-.067-.52-.133-1.02-.2-1.72-.227-2.58-.96-2.58-2.2ZM46.006 19.1h2.17c.24 0 .39.11.45.33l2.23 6.38a.35.35 0 0 1 .01.1c0 .04-.023.083-.07.13-.04.04-.09.06-.15.06h-1.85c-.2 0-.33-.083-.39-.25l-.24-.66h-2.15l-.24.66c-.06.167-.19.25-.39.25h-1.85a.239.239 0 0 1-.16-.06c-.04-.047-.06-.09-.06-.13 0-.047.003-.08.01-.1l2.23-6.38c.06-.22.21-.33.45-.33Zm.52 4.14h1.13l-.57-1.86-.56 1.86ZM39.372 24.05h2.77a.26.26 0 0 1 .19.08.26.26 0 0 1 .08.19v1.51a.26.26 0 0 1-.08.19.26.26 0 0 1-.19.08h-5.04a.26.26 0 0 1-.19-.08.26.26 0 0 1-.08-.19v-6.46a.26.26 0 0 1 .08-.19.26.26 0 0 1 .19-.08h2a.26.26 0 0 1 .19.08.26.26 0 0 1 .08.19v4.68ZM29.346 19.1h2.98c.96 0 1.71.207 2.25.62.54.413.81 1.023.81 1.83 0 .807-.27 1.403-.81 1.79-.534.387-1.284.58-2.25.58h-.65v1.91a.26.26 0 0 1-.08.19.26.26 0 0 1-.19.08h-2.06a.26.26 0 0 1-.19-.08.26.26 0 0 1-.08-.19v-6.46a.26.26 0 0 1 .08-.19.26.26 0 0 1 .19-.08Zm2.28 1.86v1.11h.7c.12 0 .227-.043.32-.13a.527.527 0 0 0 .14-.39.758.758 0 0 0-.11-.42c-.074-.113-.19-.17-.35-.17h-.7Z"/></svg>