<svg xmlns="http://www.w3.org/2000/svg" width="108" height="140" fill="none"><path fill="#1F1F20" fill-rule="evenodd" d="M97.933 132.415c0-4.187-3.39-7.581-7.573-7.581H17.055c-4.182 0-7.574 3.394-7.574 7.581v.005c0 4.187 3.39 7.581 7.574 7.581H90.36c4.183 0 7.573-3.394 7.573-7.581v-.005Z" clip-rule="evenodd"/><path fill="#353637" fill-rule="evenodd" d="M3.914 6.5h100.181l-9.35 119.731a9.281 9.281 0 0 1-9.25 8.563H22.513a9.281 9.281 0 0 1-9.25-8.563L3.912 6.501h.002Z" clip-rule="evenodd"/><path fill="#1F1F20" fill-rule="evenodd" d="m103.026 21.735-98.5-7.941L3.996 7h100.182l-1.151 14.735h-.001Z" clip-rule="evenodd"/><path fill="#353637" fill-rule="evenodd" d="M108 6.462A6.46 6.46 0 0 0 101.545 0H6.455A6.458 6.458 0 0 0 0 6.462v.011a6.46 6.46 0 0 0 6.455 6.463h95.09A6.459 6.459 0 0 0 108 6.473v-.011Z" clip-rule="evenodd"/><path fill="#D7D8D5" d="m50.235 64.52-7.877-4.188c1.698-3.733 3.427-6.646 4.993-8.87.759-.584 2.076-.836 2.629-.993 2.623-.745 7.056.725 7.056.725L50.235 64.52Z"/><path fill="#fff" d="m65.768 60.166-7.69 4.545c-.73-1.354-1.356-2.689-2.022-3.958-1.439-2.74-1.888-3.85-3.684-6.038-.83-1.01-2.731-2.851-4.956-3.309 2.359-2.004 6.4-1.629 8.304-1.345 3.015.451 5.361 1.382 6.411 3.376.277.526 3.51 6.803 3.637 6.73Z"/><path fill="#fff" d="m64.244 66.912-8.803-2.252 6.61-2.974 5.516-2.48-3.323 7.706Z"/><path fill="#D7D8D5" d="m64.047 71.138 7.411-4.779c1.963 3.48 4.207 6.184 5.381 8.638.138.95-.286 2.224-.418 2.781-.633 2.656-4.08 5.81-4.08 5.81l-8.294-12.45Z"/><path fill="#fff" d="m60.255 86.831-.204-8.936c1.536.023 3.005.129 4.437.167 3.09.083 4.279.231 7.062-.268 1.286-.231 3.82-.993 5.305-2.713.596 3.04-1.706 6.387-2.884 7.91-1.866 2.414-3.824 4.009-6.074 3.952-.593-.015-7.646-.257-7.642-.112Z"/><path fill="#fff" d="m55.12 82.205 6.263-6.59-.637 7.228-.532 6.03-5.095-6.668Z"/><path fill="#D7D8D5" d="m49.204 79.226-.035 8.648c-4.156.137-7.434.371-10.13.03-.872-.396-1.713-1.443-2.11-1.857-1.887-1.97-2.672-6.578-2.672-6.578l14.947-.243Z"/><path fill="#fff" d="m38.074 67.54 7.617 4.664c-.851 1.281-1.735 2.46-2.541 3.646-1.743 2.556-2.511 3.475-3.598 6.09-.502 1.206-1.233 3.751-.593 5.934-2.876-1.145-4.441-4.894-5.083-6.71-1.018-2.878-1.297-5.388-.031-7.252.333-.491 4.353-6.297 4.229-6.371Z"/><path fill="#fff" d="m44.74 65.72 2.145 8.84-5.726-4.448-4.777-3.711 8.358-.68ZM75.861 27.76v1.68c0 .54.248.81.743.81.382 0 .633-.18.754-.54a.485.485 0 0 1 .12-.23c.054-.04.138-.06.252-.06h2.049c.06 0 .11.023.15.07.047.04.071.09.071.15 0 .58-.167 1.067-.502 1.46-.617.733-1.578 1.1-2.884 1.1-1.024 0-1.841-.223-2.45-.67-.61-.453-.915-1.147-.915-2.08v-1.7c0-.913.311-1.6.934-2.06.623-.46 1.433-.69 2.431-.69 1.306 0 2.267.367 2.884 1.1.335.393.502.88.502 1.46a.22.22 0 0 1-.07.16c-.04.04-.09.06-.151.06h-2.05a.401.401 0 0 1-.24-.06.548.548 0 0 1-.131-.23c-.127-.36-.379-.54-.754-.54-.495 0-.743.27-.743.81ZM71.373 32.1h-2.05a.262.262 0 0 1-.19-.08.26.26 0 0 1-.08-.19v-6.46a.26.26 0 0 1 .08-.19.262.262 0 0 1 .19-.08h2.05c.074 0 .138.026.191.08.054.053.08.116.08.19v6.46a.259.259 0 0 1-.08.19.262.262 0 0 1-.19.08ZM65.157 25.1h1.818c.074 0 .138.026.191.08.054.053.08.116.08.19v6.46a.259.259 0 0 1-.08.19.262.262 0 0 1-.19.08h-1.588a.469.469 0 0 1-.412-.23l-1.697-2.55v2.51a.259.259 0 0 1-.08.19.262.262 0 0 1-.192.08H61.19a.261.261 0 0 1-.191-.08.259.259 0 0 1-.08-.19v-6.46c0-.074.026-.137.08-.19a.261.261 0 0 1 .19-.08h1.588a.44.44 0 0 1 .412.23l1.698 2.77v-2.73c0-.074.027-.137.08-.19a.262.262 0 0 1 .191-.08ZM54.728 25.1h2.18c.24 0 .391.11.452.33l2.24 6.38c.007.02.01.053.01.1 0 .04-.023.083-.07.13-.04.04-.09.06-.151.06h-1.858c-.201 0-.332-.084-.392-.25l-.241-.66h-2.16l-.241.66c-.06.166-.191.25-.392.25h-1.859a.24.24 0 0 1-.16-.06c-.04-.047-.06-.09-.06-.13 0-.047.003-.08.01-.1l2.24-6.38c.06-.22.21-.33.452-.33Zm.522 4.14h1.135l-.572-1.86-.563 1.86ZM47.881 27.88h2.763c.074 0 .137.027.19.08.054.053.081.117.081.19v1.3c0 .88-.315 1.56-.944 2.04-.63.473-1.47.71-2.522.71-1.044 0-1.868-.23-2.471-.69-.603-.467-.904-1.163-.904-2.09v-1.68c0-.887.308-1.563.924-2.03.616-.473 1.437-.71 2.461-.71 1.032 0 1.866.217 2.502.65.636.427.954.953.954 1.58a.22.22 0 0 1-.07.16c-.04.04-.09.06-.15.06h-2.22c-.135 0-.232-.037-.292-.11-.134-.173-.235-.273-.302-.3a1.173 1.173 0 0 0-.422-.09c-.515 0-.773.25-.773.75v1.7c0 .567.275.85.824.85.562 0 .843-.24.843-.72h-.472a.261.261 0 0 1-.19-.08.259.259 0 0 1-.08-.19v-1.11c0-.073.026-.137.08-.19a.261.261 0 0 1 .19-.08ZM42.786 31.77c.02.04.03.083.03.13 0 .046-.023.093-.07.14-.04.04-.09.06-.15.06h-2.06c-.208 0-.352-.09-.432-.27l-.864-1.91h-.412v1.91a.26.26 0 0 1-.08.19.262.262 0 0 1-.191.08h-1.97a.261.261 0 0 1-.19-.08.259.259 0 0 1-.08-.19v-6.46c0-.074.026-.137.08-.19a.261.261 0 0 1 .19-.08h2.974c.965 0 1.718.216 2.26.65.543.426.814 1.043.814 1.85 0 .8-.361 1.43-1.085 1.89l1.236 2.28Zm-3.958-4.81v1.06h.733a.427.427 0 0 0 .342-.14c.08-.1.12-.224.12-.37a.614.614 0 0 0-.12-.38c-.074-.114-.188-.17-.342-.17h-.733ZM28.914 25.74c.616-.493 1.43-.74 2.441-.74 1.012 0 1.822.25 2.432.75.616.493.924 1.19.924 2.09v1.56c0 .913-.305 1.61-.914 2.09-.603.473-1.417.71-2.442.71-1.024 0-1.841-.237-2.45-.71C28.3 31.01 28 30.313 28 29.4v-1.56c0-.907.305-1.607.914-2.1Zm1.899 4.31c.134.133.315.2.542.2.228 0 .409-.067.543-.2.134-.133.2-.337.2-.61v-1.68c0-.267-.066-.467-.2-.6-.134-.14-.315-.21-.543-.21-.227 0-.408.07-.542.21-.134.133-.201.333-.201.6v1.68c0 .273.067.477.2.61Z"/></svg>