<svg width="23" height="61" viewBox="0 0 23 61" fill="none" xmlns="http://www.w3.org/2000/svg">
<path d="M17.8707 28.7497C22.8392 45.5486 25.0685 59.6659 20.5581 60.9168C16.0477 62.1678 9.84924 49.1516 4.88073 32.3527C-0.0881183 15.5539 -1.94546 1.33351 2.56496 0.0825751C7.07538 -1.16836 12.9019 11.9509 17.8707 28.7497Z" fill="#F1C674"/>
<path d="M9.02816 9.58144C9.30661 9.84174 8.20079 11.3871 6.5587 13.033C4.91662 14.6789 3.35969 15.8017 3.08124 15.5413C2.80279 15.2807 3.90861 13.7357 5.5507 12.0898C7.19279 10.4438 8.74971 9.32114 9.02816 9.58144Z" fill="#EEB241"/>
<path d="M11.1566 16.7772C11.4351 17.0379 10.3292 18.5829 8.68715 20.2288C7.04507 21.8747 5.48814 22.9975 5.20969 22.7372C4.93124 22.4765 6.03706 20.9315 7.67915 19.2856C9.32123 17.6397 10.8782 16.5169 11.1566 16.7772Z" fill="#EEB241"/>
<path d="M13.2847 23.9735C13.5632 24.2338 12.4577 25.7792 10.8153 27.4251C9.17321 29.071 7.61629 30.1937 7.33784 29.9334C7.05939 29.6728 8.1652 28.1278 9.80729 26.4818C11.4494 24.8359 13.0063 23.7132 13.2847 23.9735Z" fill="#EEB241"/>
<path d="M15.4132 31.1694C15.6917 31.4297 14.5862 32.9751 12.9438 34.621C11.3017 36.2669 9.74479 37.3899 9.46634 37.1293C9.1879 36.8687 10.2937 35.3236 11.9358 33.6777C13.5779 32.0318 15.1348 30.9088 15.4132 31.1694Z" fill="#EEB241"/>
<path d="M17.5417 38.3655C17.8202 38.6258 16.7147 40.1711 15.0723 41.817C13.4302 43.4629 11.8733 44.5857 11.5948 44.3254C11.3164 44.0651 12.4222 42.5197 14.0643 40.8738C15.7063 39.2279 17.2633 38.1048 17.5417 38.3655Z" fill="#EEB241"/>
<path d="M19.6702 45.5614C19.9486 45.8217 18.8431 47.3671 17.2007 49.013C15.5586 50.6589 14.0017 51.782 13.7233 51.5213C13.4448 51.261 14.5506 49.7156 16.1927 48.0697C17.8348 46.4238 19.3917 45.3011 19.6702 45.5614Z" fill="#EEB241"/>
</svg>
