<svg width="27" height="40" viewBox="0 0 27 40" fill="none" xmlns="http://www.w3.org/2000/svg">
<path d="M26.5509 15.2504C26.708 15.4348 26.6664 15.7155 26.4625 15.8464L25.9804 16.156C25.7964 16.2741 25.7414 16.5181 25.8569 16.7038L26.1618 17.1941C26.2902 17.4006 26.2061 17.6731 25.9836 17.7713L25.4608 18.002C25.2601 18.0906 25.1682 18.3243 25.2548 18.5258L25.4826 19.0559C25.5784 19.2789 25.455 19.5352 25.2209 19.5995L24.67 19.7508C24.4591 19.8087 24.3338 20.0252 24.3887 20.2369L24.5334 20.795C24.5944 21.0302 24.4333 21.265 24.192 21.2928L23.3822 21.386C23.3054 21.3948 23.2502 21.464 23.2586 21.5408L23.3474 22.3682C23.3733 22.6097 23.1797 22.8184 22.9369 22.8107L22.0756 22.7833C22.0198 22.7815 21.9724 22.824 21.9681 22.8798L21.9334 23.7488C21.9236 23.9925 21.6999 24.1708 21.4601 24.126L20.9095 24.023C20.6926 23.9824 20.4839 24.1251 20.4429 24.3418L20.3372 24.9011C20.2917 25.1414 20.0432 25.285 19.8123 25.2044L19.2838 25.02C19.0753 24.9472 18.8472 25.0572 18.7743 25.2657L18.5867 25.8027C18.5058 26.034 18.2379 26.1389 18.0215 26.024L17.5252 25.7605C17.3301 25.6569 17.0881 25.731 16.9844 25.926L16.7189 26.4255C16.6041 26.6413 16.3244 26.7047 16.1279 26.5594L15.6785 26.2272C15.5005 26.0956 15.2494 26.1336 15.1183 26.3121L14.7849 26.7661C14.6395 26.964 14.3519 26.9854 14.1788 26.8113L13.7831 26.4132C13.6266 26.2557 13.3718 26.2558 13.2154 26.4134L12.8198 26.8122C12.6473 26.9861 12.3603 26.9654 12.2145 26.7686L11.8744 26.3097C11.743 26.1323 11.4927 26.095 11.3152 26.2262L10.8643 26.5596C10.6679 26.7048 10.3882 26.6415 10.2734 26.4259L10.0073 25.9258C9.90354 25.7309 9.66149 25.6569 9.46651 25.7605L8.97071 26.024C8.75436 26.1389 8.48645 26.0341 8.4055 25.8029L8.21736 25.2654C8.1444 25.057 7.91638 24.9472 7.70793 25.02L7.18015 25.2043C6.94924 25.285 6.70067 25.1413 6.65522 24.901L6.54949 24.3418C6.5085 24.125 6.29978 23.9824 6.08295 24.0229L5.53164 24.126C5.2918 24.1708 5.06804 23.9923 5.05845 23.7485L5.02426 22.8798C5.02426 22.8252 4.97916 22.7815 4.92467 22.7833L4.06219 22.8107C3.81943 22.8184 3.62588 22.6097 3.65178 22.3682L3.74051 21.5408C3.7494 21.464 3.69454 21.3945 3.6178 21.3853L2.79771 21.287C2.55731 21.2581 2.39745 21.024 2.4581 20.7896L2.60261 20.2311C2.65757 20.0187 2.53116 19.8016 2.31927 19.7446L1.7738 19.5979C1.53847 19.5346 1.41396 19.2774 1.51027 19.0535L1.73762 18.5252C1.82423 18.3239 1.73276 18.0904 1.53248 18.0015L1.01295 17.7708C0.791692 17.6726 0.707704 17.4019 0.834507 17.1957L1.1374 16.7031C1.25153 16.5175 1.19613 16.2747 1.01278 16.157L0.529025 15.8464C0.325138 15.7155 0.283528 15.4348 0.440669 15.2504L0.81377 14.8125C0.955097 14.6467 0.937654 14.3982 0.774539 14.2537L0.339377 13.8682C0.159208 13.7086 0.159776 13.4272 0.34059 13.2683L0.772295 12.889C0.936466 12.7447 0.954474 12.4954 0.812739 12.3291L0.440667 11.8924C0.283527 11.708 0.325134 11.4273 0.52902 11.2964L1.01278 10.9858C1.19613 10.868 1.25153 10.6252 1.1374 10.4396L0.834508 9.94708C0.707704 9.74087 0.791691 9.47018 1.01294 9.37196L1.53444 9.14046C1.73395 9.05189 1.82562 8.81973 1.74043 8.61876L1.51421 8.08506C1.41988 7.8625 1.54298 7.60777 1.77597 7.5434L2.32262 7.39237C2.53307 7.33422 2.65801 7.11806 2.60335 6.90667L2.4587 6.34727C2.39786 6.11196 2.5592 5.87722 2.80069 5.84971L3.36146 5.78582C3.58005 5.76092 3.7375 5.56417 3.71388 5.34544L3.65222 4.77459C3.6261 4.5328 3.82001 4.32384 4.06308 4.33185L4.62593 4.3504C4.84616 4.35766 5.03078 4.18544 5.03884 3.96524L5.05969 3.39519C5.06862 3.15105 5.29241 2.97188 5.53259 3.01656L6.09021 3.12031C6.30685 3.16062 6.5153 3.01811 6.55637 2.80161L6.66265 2.24128C6.7082 2.00113 6.95659 1.85764 7.18739 1.93814L7.71663 2.12275C7.92533 2.19555 8.15351 2.08528 8.22615 1.87653L8.41276 1.34028C8.49339 1.10858 8.76168 1.00339 8.9783 1.11855L9.47152 1.38076C9.66751 1.48495 9.91085 1.40964 10.0137 1.21296L10.2748 0.713825C10.3886 0.496298 10.6697 0.431642 10.8671 0.577585L11.3162 0.909685C11.4933 1.04062 11.7429 1.00376 11.8746 0.827229L12.2152 0.370669C12.3611 0.175215 12.6463 0.154593 12.8187 0.327043L13.2165 0.724913C13.3726 0.881076 13.6258 0.881183 13.782 0.725152L14.1798 0.327907C14.3528 0.15521 14.6388 0.176626 14.7841 0.37315L15.1188 0.825852C15.2499 1.00309 15.4996 1.04091 15.6772 0.910438L16.1331 0.575652C16.3306 0.430588 16.6109 0.495624 16.7244 0.712832L16.9855 1.21268C17.0883 1.40948 17.3318 1.48489 17.5278 1.38066L18.0213 1.1183C18.2378 1.00323 18.5059 1.10817 18.5867 1.33961L18.7744 1.87703C18.8472 2.08556 19.0753 2.19559 19.2838 2.1228L19.8123 1.93835C20.0432 1.85776 20.2917 2.00139 20.3371 2.24169L20.4429 2.80095C20.4839 3.01772 20.6926 3.16038 20.9095 3.11981L21.4613 3.01659C21.7007 2.97181 21.9241 3.14949 21.9345 3.39278L21.9589 3.96767C21.9682 4.1869 22.1524 4.3577 22.3717 4.35047L22.9363 4.33185C23.1793 4.32384 23.3732 4.53264 23.3472 4.77435L23.2859 5.34568C23.2624 5.56432 23.4198 5.76092 23.6383 5.78582L24.1967 5.84948C24.4388 5.87707 24.6002 6.11285 24.5383 6.3485L24.3907 6.91068C24.3348 7.12345 24.4612 7.3414 24.6737 7.39855L25.218 7.54498C25.4532 7.60826 25.5778 7.86533 25.4816 8.08915L25.2548 8.61696C25.1682 8.81852 25.2601 9.05223 25.4608 9.1408L25.9836 9.37152C26.2061 9.46973 26.2902 9.74215 26.1618 9.9487L25.8569 10.439C25.7414 10.6247 25.7964 10.8687 25.9804 10.9868L26.4625 11.2964C26.6664 11.4273 26.708 11.708 26.5509 11.8924L26.1798 12.3279C26.0377 12.4947 26.0562 12.7448 26.2214 12.8888L26.6555 13.2673C26.8379 13.4263 26.8385 13.7095 26.6568 13.8692L26.2192 14.2538C26.055 14.3981 26.037 14.6474 26.1788 14.8137L26.5509 15.2504Z" fill="#BEBEBE"/>
<path d="M13.4974 25.3073C7.07614 25.3073 1.85242 20.0426 1.85242 13.571C1.85242 7.09939 7.07699 1.83472 13.4974 1.83472C19.9178 1.83472 25.1415 7.09939 25.1415 13.571C25.1415 20.0426 19.9186 25.3073 13.4974 25.3073ZM13.4974 2.21971C7.28742 2.21971 2.23441 7.31147 2.23441 13.571C2.23441 19.8305 7.28742 24.9231 13.4974 24.9231C19.7074 24.9231 24.7603 19.8305 24.7603 13.571C24.7603 7.31147 19.7082 2.21971 13.4974 2.21971Z" fill="#DCDCDC"/>
<path opacity="0.2" d="M6.8157 15.6346C6.8157 9.43807 10.7421 4.17936 16.2177 2.20755C15.5813 2.09682 14.9306 2.02783 14.2612 2.02783C7.93548 2.02783 2.80727 7.19626 2.80727 13.5716C2.80727 18.2741 5.60124 22.3132 9.60459 24.1129C7.86026 21.7408 6.8157 18.815 6.8157 15.6354V15.6346Z" fill="white"/>
<path opacity="0.2" d="M23.3965 22.8255L21.9759 22.7803L21.9683 22.88H5.02442V22.7803L3.60292 22.8255L3.74067 21.541H23.2588L23.3965 22.8255Z" fill="black"/>
<rect y="22.9973" width="26.1988" height="16.1833" fill="#BEBEBE"/>
<rect x="2.5354" y="22.9976" width="3.38049" height="16.1833" fill="#CBCBCB"/>
<path d="M25.6026 22.9973H0.596226C0.26694 22.9973 0 23.2643 0 23.5935C0 23.9228 0.266939 24.1898 0.596225 24.1898H25.6026C25.9319 24.1898 26.1988 23.9228 26.1988 23.5935C26.1988 23.2643 25.9319 22.9973 25.6026 22.9973Z" fill="black" fill-opacity="0.2"/>
<path d="M25.6026 38.3286H0.596226C0.26694 38.3286 0 38.5956 0 38.9248C0 39.2541 0.266939 39.5211 0.596225 39.5211H25.6026C25.9319 39.5211 26.1988 39.2541 26.1988 38.9248C26.1988 38.5956 25.9319 38.3286 25.6026 38.3286Z" fill="black" fill-opacity="0.2"/>
<path d="M25.5311 38.6643H0.66777C0.298971 38.6643 0 38.9633 0 39.3321C0 39.7009 0.298971 39.9998 0.66777 39.9998H25.5311C25.8999 39.9998 26.1988 39.7009 26.1988 39.3321C26.1988 38.9633 25.8999 38.6643 25.5311 38.6643Z" fill="#DCDCDC"/>
<path d="M25.5311 22.313H0.66777C0.298971 22.313 0 22.612 0 22.9808C0 23.3496 0.298971 23.6485 0.66777 23.6485H25.5311C25.8999 23.6485 26.1988 23.3496 26.1988 22.9808C26.1988 22.612 25.8999 22.313 25.5311 22.313Z" fill="#DCDCDC"/>
</svg>
