<svg width="69" height="68" viewBox="0 0 69 68" fill="none" xmlns="http://www.w3.org/2000/svg">
<path d="M63.5536 40.2506C65.2807 32.3661 53.1065 24.6825 45.8886 25.8949C45.9835 23.3938 45.1624 19.0925 41.8164 18.063C36.4699 20.1022 37.8768 27.2795 34.4876 26.8508C33.2478 20.6761 29.5064 16.924 27.7409 15.4779C25.3342 13.5066 20.8156 11.2726 17.7132 12.3412C14.4873 13.4527 13.6187 17.0103 12.6928 20.1304C11.0664 25.6102 10.2715 39.1361 12.1542 39.8831C16.9591 41.7902 20.8342 42.4942 25.6336 43.1462C26.1845 44.0553 27.8222 47.9415 28.8112 48.8757C32.9165 49.8591 33.8751 48.3258 37.8126 45.4868C40.3544 48.2514 45.8885 53.8759 49.4542 54.3173C55.0443 55.0084 62.6435 44.4034 63.5536 40.2506Z" fill="#F76FB7"/>
<path d="M23.2378 29.2151C24.2454 26.371 26.3542 17.7553 21.6679 13.2358C18.5103 10.1889 14.6646 12.5326 11.7574 17.3161C10.2203 19.8424 7.68604 27.6062 8.15713 33.1892C8.5595 37.9566 11.7816 41.9749 16.6131 39.3232C19.8804 37.5293 22.2161 32.0926 23.2378 29.2151Z" fill="#F552A8"/>
<path d="M21.9956 28.6714C22.8262 26.3264 24.5621 19.2316 20.7026 15.5095C18.1012 12.9991 14.9331 14.9299 12.5388 18.8707C11.2744 20.9515 9.18478 27.348 9.5725 31.9449C9.90378 35.8727 12.5569 39.182 16.5375 36.9955C19.2292 35.518 21.1544 31.0424 21.9956 28.6714Z" fill="#F99BCD"/>
<path d="M16.1089 32.4493C16.3664 31.7202 16.907 29.5166 15.7075 28.3585C14.8997 27.5797 13.9144 28.1786 13.1701 29.4019C12.7754 30.0479 12.1266 32.0366 12.2488 33.4638C12.3518 34.6835 13.1777 35.7126 14.4136 35.0352C15.2515 34.5756 15.8478 33.1858 16.1089 32.4493Z" fill="#953266"/>
<path d="M41.8153 18.0603C41.8153 18.0603 44.2933 22.9496 40.6368 31.7779C36.9823 40.6082 37.1407 42.3542 37.1407 42.3542C37.1407 42.3542 45.2702 33.0124 45.8856 25.894C46.5029 18.7774 41.8135 18.0622 41.8135 18.0622L41.8153 18.0603Z" fill="#F552A8"/>
<path d="M31.2282 38.6464C31.2282 38.6464 26.3209 38.4266 21.4681 38.8741C25.9548 42.3446 31.2282 38.6464 31.2282 38.6464Z" fill="#F552A8"/>
<path d="M59.9975 37.7433C59.9975 37.7433 56.4006 44.0613 52.2014 45.7181C48.0757 47.345 43.4426 45.1335 43.4426 45.1335C43.4426 45.1335 48.8036 51.2608 54.1121 47.7387C59.4207 44.2165 59.9957 37.7451 59.9957 37.7451L59.9975 37.7433Z" fill="#F552A8"/>
</svg>
