<svg width="68" height="68" viewBox="0 0 68 68" fill="none" xmlns="http://www.w3.org/2000/svg">
<path d="M63.5156 40.2499C65.2426 32.3654 53.0684 24.6817 45.8505 25.8941C45.9454 23.393 45.1243 19.0918 41.7783 18.0623C36.4318 20.1014 37.8387 27.2788 34.4495 26.85C33.2097 20.6754 29.4683 16.9233 27.7028 15.4772C25.2961 13.5058 20.7775 11.2718 17.6751 12.3405C14.4493 13.452 13.5806 17.0096 12.6547 20.1297C11.0283 25.6095 10.2335 39.1354 12.1161 39.8824C16.921 41.7895 20.7961 42.4934 25.5955 43.1454C26.1464 44.0546 27.7841 47.9407 28.7731 48.8749C32.8784 49.8584 33.837 48.3251 37.7745 45.4861C40.3163 48.2506 45.8504 53.8752 49.4161 54.3165C55.0062 55.0077 62.6054 44.4026 63.5156 40.2499Z" fill="#EA8818"/>
<path d="M23.1998 29.2143C24.2074 26.3702 26.3161 17.7546 21.6299 13.2351C18.4723 10.1881 14.6266 12.5319 11.7193 17.3153C10.1823 19.8417 7.64796 27.6055 8.11906 33.1885C8.52142 37.9559 11.7436 41.9741 16.575 39.3224C19.8424 37.5286 22.178 32.0919 23.1998 29.2143Z" fill="#CD720B"/>
<path d="M21.9575 28.6707C22.7881 26.3257 24.524 19.2309 20.6645 15.5087C18.0631 12.9983 14.895 14.9292 12.5007 18.8699C11.2363 20.9508 9.14669 27.3473 9.53441 31.9442C9.86569 35.8719 12.5188 39.1813 16.4994 36.9948C19.1911 35.5173 21.1163 31.0417 21.9575 28.6707Z" fill="#F8A649"/>
<path d="M16.0708 32.4485C16.3283 31.7194 16.8689 29.5159 15.6694 28.3578C14.8616 27.5789 13.8763 28.1779 13.132 29.4012C12.7373 30.0471 12.0886 32.0358 12.2107 33.4631C12.3137 34.6828 13.1397 35.7119 14.3755 35.0345C15.2134 34.5749 15.8097 33.1851 16.0708 32.4485Z" fill="#A75C0A"/>
<path d="M41.7773 18.0596C41.7773 18.0596 44.2552 22.9488 40.5988 31.7772C36.9442 40.6074 37.1026 42.3535 37.1026 42.3535C37.1026 42.3535 45.2321 33.0117 45.8476 25.8932C46.4649 18.7767 41.7754 18.0614 41.7754 18.0614L41.7773 18.0596Z" fill="#CD720B"/>
<path d="M31.1901 38.6457C31.1901 38.6457 26.2828 38.4259 21.4301 38.8733C25.9167 42.3439 31.1901 38.6457 31.1901 38.6457Z" fill="#CD720B"/>
<path d="M59.9594 37.7425C59.9594 37.7425 56.3625 44.0606 52.1633 45.7173C48.0376 47.3442 43.4045 45.1328 43.4045 45.1328C43.4045 45.1328 48.7655 51.2601 54.074 47.7379C59.3826 44.2158 59.9576 37.7444 59.9576 37.7444L59.9594 37.7425Z" fill="#CD720B"/>
</svg>
