<svg width="61" height="32" viewBox="0 0 61 32" fill="none" xmlns="http://www.w3.org/2000/svg">
<path fill-rule="evenodd" clip-rule="evenodd" d="M6.11386 18.7495C8.2126 18.6851 10.7619 19.0009 12.8434 20.4639H12.8421C16.5115 23.0454 16.9731 27.7452 15.64 31.4774C14.9372 31.6472 14.2269 31.7921 13.4995 31.8776C10.901 32.1823 8.28522 31.885 5.73719 31.3461C5.48558 31.2929 5.20321 31.242 4.9023 31.1878C3.34101 30.9064 1.28063 30.5352 0.428177 29.2775C-1.168 26.9213 2.08035 23.2381 3.912 21.1612C4.14404 20.8981 4.35335 20.6608 4.52718 20.4552C5.03433 19.8557 5.56732 19.2945 6.11386 18.7495ZM7.60951 23.3624C8.44654 23.2844 9.08293 22.7728 9.03123 22.2191C8.98076 21.6654 8.26191 21.2801 7.42488 21.3582C6.58784 21.4362 5.95266 21.9478 6.00313 22.5015C6.0536 23.0553 6.7737 23.4405 7.60951 23.3624Z" fill="white"/>
<path d="M6.96201 25.8143C6.96201 25.8143 18.2817 19.4187 26.0205 16.1039C34.4438 12.4954 44.7922 9.13477 44.7922 9.13477L46.2287 10.2942C46.2287 10.2942 34.4327 14.2631 27.6626 17.2398C20.8925 20.2164 9.28231 26.2094 9.28231 26.2094L6.96201 25.8155V25.8143Z" fill="white"/>
<path d="M50.2294 0C50.2294 0 43.2364 3.2368 41.9206 6.19365C40.6047 9.1505 40.8952 11.1486 40.8952 11.1486C40.8952 11.1486 46.6227 13.1194 50.2294 13.5232C56.6917 14.2454 61 10.7361 61 10.7361C61 10.7361 58.3326 9.18766 56.1785 8.98079C54.0243 8.77392 46.7409 9.13438 46.7409 9.13438C46.7409 9.13438 49.7678 6.85267 50.3315 4.13985C50.9335 1.23874 50.2294 0 50.2294 0Z" fill="white"/>
<path d="M12.6858 13.6211C12.6858 13.6211 10.8098 15.1807 10.912 18.1164C11.0142 21.0522 13.4034 23.5359 13.4034 23.5359L14.75 22.3603C14.75 22.3603 13.2421 20.522 12.831 18.5785C12.4199 16.6349 12.6858 13.6211 12.6858 13.6211Z" fill="white"/>
<path d="M18.7531 11.3032C18.7531 11.3032 16.7331 11.9436 16.8353 14.8794C16.9375 17.8152 19.3267 20.2989 19.3267 20.2989L20.6734 19.1233C20.6734 19.1233 19.1655 17.2851 18.7543 15.3415C18.3432 13.3979 18.7531 11.3032 18.7531 11.3032Z" fill="white"/>
<path d="M26.023 16.5199C25.6377 15.851 25.2413 15.0223 25.0591 14.1614C24.648 12.2178 25.0567 9.58057 25.0567 9.58057C25.0567 9.58057 23.0367 10.7623 23.1389 13.6993C23.1869 15.0681 23.7334 16.3254 24.3009 17.2916C24.8745 17.0352 25.4481 16.7751 26.023 16.5199Z" fill="white"/>
<path d="M31.5868 15.0297C31.2015 14.3608 30.8051 13.5321 30.6229 12.6712C30.2118 10.7276 30.6205 8.09033 30.6205 8.09033C30.6205 8.09033 28.6005 9.27206 28.7027 12.2091C28.7507 13.5779 29.2972 14.8352 29.8647 15.8014C30.4383 15.545 31.0119 15.2849 31.5868 15.0297Z" fill="white"/>
<path d="M35.404 13.4368C35.7709 13.2857 36.1327 13.1135 36.4909 12.9339C36.3125 12.5351 36.1574 12.1114 36.065 11.6754C35.6908 9.90768 36.0638 7.51074 36.0638 7.51074C36.0638 7.51074 34.2273 8.58597 34.3208 11.2554C34.3504 12.1176 34.6052 12.9252 34.9264 13.6363C35.0852 13.5694 35.244 13.5025 35.404 13.4368Z" fill="white"/>
<path d="M24.1938 17.6717C24.1938 17.6717 26.4809 19.6153 31.7653 20.9816C37.078 22.3541 40.3769 20.6447 40.3769 20.6447C40.3769 20.6447 33.4751 20.138 29.7823 18.2911C27.3992 17.0994 26.1486 16.7241 26.1486 16.7241L24.1938 17.673V17.6717Z" fill="white"/>
<path d="M19.5779 20.4588C19.5779 20.4588 21.865 22.4024 27.1493 23.7687C32.462 25.1412 35.761 23.4318 35.761 23.4318C35.761 23.4318 28.8591 22.9251 25.1663 21.0782C22.7832 19.8865 21.5326 19.5112 21.5326 19.5112L19.5779 20.4601V20.4588Z" fill="white"/>
<path d="M13.7568 23.3094C13.7568 23.3094 16.0438 25.253 21.3282 26.6193C26.6409 27.9919 30.8421 26.5561 30.8421 26.5561C30.8421 26.5561 23.038 25.7757 19.3452 23.9288C16.9621 22.7371 15.7115 22.3618 15.7115 22.3618L13.7568 23.3107V23.3094Z" fill="white"/>
<path d="M28.7003 15.6988C28.7003 15.6988 32.291 17.4838 36.8036 18.2642C41.3174 19.0446 43.7793 18.1304 43.7793 18.1304C43.7793 18.1304 39.8809 17.5693 36.4958 16.7889C33.1108 16.0085 30.4655 14.8726 30.4655 14.8726L28.7003 15.6988Z" fill="white"/>
<path d="M39.1828 13.6796C38.0664 13.422 37.0435 13.1234 36.1794 12.8447C35.6735 13.1606 35.1638 13.4716 34.6469 13.7726C35.9479 14.2321 37.6245 14.7313 39.4684 15.0497C43.6597 15.7743 45.9456 14.9258 45.9456 14.9258C45.9456 14.9258 42.3266 14.4043 39.1828 13.6796Z" fill="white"/>
</svg>
