<svg width="42" height="61" viewBox="0 0 42 61" fill="none" xmlns="http://www.w3.org/2000/svg">
<path d="M36.9109 11.2947C35.4729 9.27768 30.9014 9.18996 30.2823 8.09424C29.6632 6.9988 29.9111 4.36035 29.9111 4.36035L18.3689 5.5013L17.2438 5.61256L5.70155 6.75351C5.70155 6.75351 6.46399 9.29203 6.07272 10.4874C5.68144 11.6827 1.21614 12.6639 0.203604 14.9233C-0.809202 17.1827 2.20615 55.2872 3.75848 57.6785C5.31082 60.0697 10.6478 60.853 13.2129 60.9851C15.1842 61.0867 20.3894 60.6407 22.6939 60.4287L22.6944 60.4334C22.6944 60.4334 22.9011 60.413 23.2568 60.3762C23.613 60.3427 23.8193 60.3221 23.8193 60.3221L23.8188 60.3175C26.12 60.0741 31.3117 59.4922 33.2246 59.0068C35.714 58.3751 40.7924 56.5622 41.8438 53.9135C42.8951 51.2647 38.3481 13.3116 36.9104 11.2945L36.9109 11.2947Z" fill="#E5F0FC"/>
<path d="M5.00116 3.64386C5.00116 3.64386 4.17004 4.26821 4.42012 5.74433C5.15379 10.0722 14.1955 8.50866 18.3276 8.1242C29.2594 7.107 30.5834 5.41103 30.841 3.84367C31.1525 1.94898 29.4307 1.22852 29.4307 1.22852L5.00116 3.64386Z" fill="#7F8896"/>
<path d="M18.119 0.234502C10.2971 0.808487 5.01477 2.26077 4.82144 4.2107C4.62757 6.16577 11.7392 5.87174 18.9415 5.05246C24.8937 4.37532 32.068 3.66488 30.1182 1.69275C28.1681 -0.279382 23.4638 -0.157541 18.119 0.234502Z" fill="#8892A2"/>
<path opacity="0.48" d="M6.03835 4.183C6.14588 4.45971 6.46707 4.57883 6.75516 4.65356C9.39063 5.33692 12.1714 4.96113 14.8674 4.58128C15.6918 4.46512 16.5192 4.34842 17.3196 4.12126C17.4834 4.07497 17.672 3.99645 17.7057 3.82994C17.7293 3.71298 17.6628 3.59629 17.5824 3.5083C17.2365 3.12925 16.6593 3.08836 16.1461 3.11381C15.1762 3.162 14.2182 3.35316 13.2491 3.42004C12.5314 3.46958 11.7942 3.44954 11.098 3.2527C10.8051 3.16985 10.3684 3.05669 10.1539 2.8271C9.94892 2.60752 9.16421 2.39119 7.39003 2.9917C6.8744 3.16607 5.75026 3.44088 6.03835 4.183Z" fill="white"/>
<path d="M29.5847 22.9012L10.3819 24.7996C9.633 24.8736 9.08616 25.5389 9.1604 26.2856L10.4747 39.5035C10.5489 40.2502 11.2161 40.7955 11.965 40.7215L31.1678 38.8231C31.9167 38.7491 32.4635 38.0838 32.3892 37.3371L31.075 24.1192C31.0008 23.3725 30.3335 22.8272 29.5847 22.9012Z" fill="#90CAFB"/>
<path opacity="0.55" d="M4.69107 14.5569C3.92291 15.7263 3.71324 17.191 3.83624 18.5835C3.95924 19.9759 4.39074 21.3207 4.81894 22.6517C4.91887 22.9623 5.03155 23.2915 5.28842 23.4935C5.87737 23.9565 6.8038 23.3833 6.98654 22.6577C7.16928 21.9324 6.88172 21.1835 6.6645 20.4676C6.40329 19.6072 6.23878 18.692 6.4112 17.8094C6.84184 15.6061 9.1175 14.3438 10.4969 12.5699C10.7418 12.2547 10.971 11.8586 10.854 11.4774C10.7432 11.1165 10.3437 10.9061 9.96548 10.894C8.91276 10.8596 7.90078 11.8221 7.08293 12.3766C6.18525 12.9849 5.29413 13.6388 4.69107 14.5569Z" fill="white"/>
<path opacity="0.55" d="M6.8061 52.6214C7.01953 53.9708 7.3275 55.4142 8.33677 56.3382C9.10384 57.0408 10.156 57.3265 11.1688 57.5693C11.5259 57.6549 11.8949 57.7388 12.2569 57.6787C12.6191 57.6186 12.9763 57.3784 13.06 57.0221C13.1496 56.6398 12.9022 56.25 12.5865 56.0155C12.2707 55.781 11.8892 55.6543 11.5459 55.4621C10.1804 54.6964 9.61891 53.0278 9.40685 51.4799C9.23036 50.1906 9.25341 45.4571 6.9245 46.0135C5.22581 46.4194 6.61202 51.3922 6.80644 52.6214H6.8061Z" fill="white"/>
</svg>
