<svg width="30" height="54" viewBox="0 0 30 54" fill="none" xmlns="http://www.w3.org/2000/svg">
<path d="M29.0513 0.987775L26.2571 52.043C26.1985 53.1248 25.263 53.9999 24.1829 53.9999H4.87165C3.77947 53.9999 2.85613 53.1248 2.79584 52.043L0.00162964 0.987775C-0.0293787 0.44513 0.385775 0.00415039 0.935311 0.00415039H28.1175C28.6567 0.00415039 29.0823 0.446852 29.0513 0.987775Z" fill="#DCF2F7"/>
<path d="M29.0514 0.988829L26.2572 52.0371C26.1986 53.119 25.2649 53.9975 24.1796 53.9975H4.87526C3.78136 53.9975 2.85625 53.119 2.7994 52.0371L0.00350848 0.988829C-0.0292225 0.442739 0.380775 0 0.938925 0H28.116C28.6621 0 29.0841 0.442739 29.0514 0.988829Z" fill="#3FC74D"/>
<path d="M28.1176 0.00170898L25.127 44.0473C25.0702 45.1326 24.2243 46.0129 23.2441 46.0129H5.81059C4.81832 46.0129 3.98451 45.1326 3.92766 44.0473L0.935364 0.00170898H28.1176Z" fill="#5CCF68"/>
<path opacity="0.4" d="M10.9343 53.9975H7.45967C6.16421 42.7225 3.70076 7.3903 3.2477 0.00170898H9.37009C9.83177 9.91059 10.8964 53.8786 10.9343 53.9975Z" fill="white"/>
</svg>
