<svg width="65" height="69" viewBox="0 0 65 69" fill="none" xmlns="http://www.w3.org/2000/svg">
<path d="M25.3677 31.0859C29.2773 33.8102 35.4691 34.6086 39.1966 32.8688C40.7783 32.1302 41.6201 31.0454 41.8153 29.8427C41.8275 29.7831 41.8723 29.7384 41.8784 29.6765L39.2413 59.5345L39.2188 59.5304C38.9772 60.6736 38.1372 61.6994 36.6201 62.4071C32.8926 64.1469 26.7009 63.3485 22.7912 60.6242C20.7167 59.1786 19.7345 57.4863 19.7946 55.9501L22.3556 26.218C22.3516 26.2659 22.3792 26.3104 22.3783 26.3565C22.2896 27.9058 23.2668 29.6219 25.3677 31.0859Z" fill="#3FC74D"/>
<path d="M30.9878 6.18815C32.7018 7.38257 35.4177 7.73394 37.0523 6.96994C37.8082 6.61715 38.1845 6.08548 38.2176 5.4995L38.2202 5.50135C38.2202 5.50135 37.6006 13.3121 37.4021 15.6975C37.1836 18.322 41.702 24.4301 41.8423 28.9235C41.8631 29.0956 41.872 29.2652 41.868 29.4336C41.8647 29.5111 41.8862 29.5981 41.8795 29.6751C41.8734 29.7371 41.8286 29.7817 41.8164 29.8413C41.6212 31.0441 40.7807 32.1298 39.1976 32.8675C35.4702 34.6073 29.2785 33.8089 25.3688 31.0845C23.2679 29.6206 22.2907 27.9044 22.3794 26.3551C22.379 26.3081 22.3514 26.2636 22.3567 26.2167C22.3703 26.0316 22.4368 25.8717 22.4632 25.6936C22.4737 25.6561 22.4749 25.618 22.4866 25.5815C23.2606 21.0577 28.2361 18.5084 28.6104 15.3912C29.0038 12.1258 29.6684 4.18884 29.6684 4.18884C29.6659 4.84868 30.102 5.56899 30.9887 6.18683L30.9878 6.18815Z" fill="#5CCF68"/>
<path d="M38.2169 5.49863C38.1825 6.08369 37.8075 6.61627 37.0516 6.96906C35.418 7.73175 32.7012 7.3817 30.9871 6.18727C30.1005 5.56943 29.6643 4.84913 29.6668 4.18929C29.6681 3.57332 30.0525 3.01034 30.8425 2.64236C32.477 1.87836 35.1929 2.22972 36.907 3.42415C37.8291 4.06674 38.2571 4.81836 38.2183 5.49955L38.2169 5.49863Z" fill="#5CCF68"/>
<path d="M36.2183 3.74604C34.9028 2.82937 32.8192 2.56056 31.5651 3.14601C30.3109 3.73146 30.3611 4.94948 31.6766 5.86615C32.9921 6.78283 35.0757 7.05163 36.3298 6.46618C37.584 5.88074 37.5338 4.66271 36.2183 3.74604Z" fill="#3FC74D"/>
<path d="M35.6985 54.0976C32.1309 51.6116 26.4807 50.8831 23.0785 52.4702C19.6776 54.0582 19.8117 57.3602 23.3806 59.8472C26.9496 62.3341 32.5985 63.0617 35.9993 61.4737C39.4002 59.8857 39.2661 56.5837 35.6985 54.0976Z" fill="#5CCF68"/>
<path opacity="0.5" d="M34.9439 11.7782C34.819 13.6682 33.6085 16.8019 35.0843 19.9201C36.5601 23.0383 38.3622 24.8272 37.5797 35.449C36.795 46.0713 35.6712 55.531 35.7632 59.0898C35.8255 61.5188 38.9554 61.0574 39.141 56.4973C39.3266 51.9372 41.4653 32.1109 41.441 28.8056C41.4155 25.4993 38.9231 22.132 37.9634 19.8073C37.0036 17.4827 36.5416 15.6721 36.8196 13.0211C37.0968 10.3713 37.8449 7.3065 36.7872 7.33805C35.5672 7.37524 35.0754 9.81701 34.9452 11.7791L34.9439 11.7782Z" fill="#5CCF68"/>
</svg>
