<svg width="71" height="60" viewBox="0 0 71 60" fill="none" xmlns="http://www.w3.org/2000/svg">
<path d="M47.7027 26.1463L22.0668 9.25635L-7.08773e-05 43.0866L25.6358 59.9766L47.7027 26.1463Z" fill="#8892A2"/>
<path d="M58.1674 21.659C65.2547 17.4748 69.1574 10.9303 66.8844 7.04136C64.6113 3.15241 57.0232 3.3917 49.9359 7.57583C42.8486 11.76 38.9459 18.3045 41.219 22.1934C43.4921 26.0824 51.0801 25.8431 58.1674 21.659Z" fill="#8892A2"/>
<path d="M42.0299 17.8112C42.0299 17.8113 42.0298 17.8112 42.0298 17.8112C41.7333 16.9305 41.4502 16.0452 41.1808 15.1558C40.9962 14.5465 41.2413 14.0924 41.753 14.471C41.9866 14.6438 42.2201 14.7758 42.411 14.6178C42.4913 14.5514 42.5293 14.4476 42.5639 14.349C42.8075 13.6555 43.051 12.9621 43.2945 12.2685C43.4853 11.725 44.1741 11.5385 44.7148 11.7371C45.0969 11.8774 45.4863 11.6245 45.6161 11.2387C45.8552 10.5279 46.1209 9.82614 46.4122 9.13527C46.6509 8.5692 47.3022 8.31233 47.8729 8.53987C48.3452 8.72823 48.8895 8.58912 49.1827 8.17358C49.5068 7.71423 49.8027 7.23477 50.0681 6.73888C50.4376 6.04867 51.3582 5.81719 51.9552 6.3237C51.9775 6.34262 51.9998 6.36153 52.0221 6.38045C52.465 6.7563 53.1286 6.70291 53.5058 6.26106C53.9834 5.70161 54.4609 5.14217 54.9385 4.58272C55.1927 4.2849 55.8045 4.51002 55.9336 4.87971C56.007 5.09004 56.2556 5.16249 56.4497 5.05316C57.3669 4.53659 58.2841 4.02 59.2013 3.50334C59.5981 3.2798 60.0957 3.52444 60.1609 3.97521C60.2217 4.39565 60.6638 4.64462 61.0614 4.49502C61.6382 4.27801 62.2245 4.08678 62.8181 3.92214C63.2148 3.81212 63.5426 4.22028 63.3646 4.59146C63.1927 4.95 63.4947 5.35588 63.8888 5.30289C64.499 5.22084 65.1112 5.15415 65.7246 5.1029C66.1382 5.06835 66.3547 5.56821 66.0536 5.85388C65.7984 6.09601 65.9093 6.52833 66.2426 6.64076C66.7606 6.8155 67.2655 7.02976 67.7515 7.28083C68.3816 7.60629 68.227 8.50886 67.5801 8.79929C67.0882 9.02016 66.9959 9.65579 67.3177 10.0885C67.5336 10.3787 67.7329 10.6813 67.9145 10.9943C68.2221 11.5244 67.7928 12.1395 67.1806 12.1099C67.0652 12.1042 66.9365 12.1032 66.8507 12.1812C66.769 12.2556 66.7541 12.3772 66.7445 12.488C66.6716 13.3319 66.5988 14.176 66.526 15.02C66.4828 15.5205 65.8433 15.7552 65.4287 15.4715C65.0509 15.2131 64.5766 15.5506 64.5351 16.0065C64.442 17.0286 64.0198 18.0221 63.3353 18.7845C63.2571 18.8717 63.1266 18.8875 63.0325 18.8176C62.8083 18.651 62.1004 18.8519 62.0397 19.1246C61.8913 19.7906 61.6183 20.4289 61.2367 20.993C61.0448 21.2766 60.6484 21.2954 60.3869 21.0743C60.3174 21.0157 60.2474 20.9577 60.1768 20.9004C59.6555 20.4777 58.893 20.86 58.7092 21.5055C58.6604 21.6771 58.6045 21.8467 58.5418 22.0137C58.2461 22.801 57.2005 22.7671 56.5476 22.2371C56.515 22.2107 56.482 22.1846 56.4488 22.1589C55.8228 21.6756 55.0332 22.2228 54.9354 23.0077C54.9279 23.0675 54.92 23.1272 54.9117 23.1868C54.8148 23.8795 54.0211 24.1784 53.41 23.8381C53.3311 23.7942 53.2518 23.7509 53.1721 23.7083C52.6216 23.414 51.9834 23.851 51.9405 24.4737C51.9007 25.052 51.27 25.3569 50.7622 25.0774C50.417 24.8874 50.0719 24.6975 49.7267 24.5075C49.4603 24.3608 49.1344 24.5552 49.1369 24.8593C49.14 25.2483 48.5198 25.5123 48.1628 25.3578C47.3788 25.0184 46.3997 24.9608 45.5382 24.7707C42.7836 24.1626 42.0196 22.0105 40.2277 20.2283C39.9575 19.9596 38.7471 19.1829 38.8569 18.7086C39.0091 18.0503 41.4751 17.9255 42.0299 17.811C42.03 17.811 42.03 17.8111 42.0299 17.8112Z" fill="#8892A2"/>
<path d="M48.3555 22.2632C46.414 22.2632 44.9065 21.6633 44.1898 20.437C43.402 19.0889 43.7237 17.2152 45.0958 15.1613C46.4251 13.1717 48.5946 11.2274 51.2046 9.68632C56.7486 6.41318 62.353 6.00763 63.9635 8.76282C64.7514 10.111 64.4299 11.9846 63.0576 14.0386C61.7283 16.0282 59.5587 17.9724 56.9487 19.5135C53.8722 21.3299 50.7765 22.2632 48.3555 22.2632ZM59.8221 7.53526C57.5104 7.53526 54.4777 8.44932 51.5069 10.2032C48.9725 11.6994 46.8716 13.5789 45.5911 15.4955C44.3536 17.3478 44.0385 18.9951 44.7041 20.1338C46.1213 22.5583 51.4788 22.0483 56.647 18.9972C59.1815 17.5011 61.2824 15.6216 62.5629 13.7049C63.8004 11.8527 64.1154 10.2053 63.4498 9.06667C62.8475 8.0358 61.5319 7.53526 59.8221 7.53526Z" fill="#7F8896"/>
<path d="M49.221 20.9573C47.5483 20.9573 46.3308 20.4308 45.7535 19.4431C44.4071 17.1394 46.9835 13.1912 51.6188 10.4545C53.8011 9.16611 56.0971 8.3655 58.0841 8.19963C60.1357 8.02851 61.6276 8.55506 62.2865 9.68238C63.6329 11.9861 61.0567 15.9343 56.4213 18.671C54.2391 19.9594 51.9431 20.7602 49.9561 20.9259C49.7024 20.947 49.4572 20.9575 49.2212 20.9575L49.221 20.9573ZM58.8252 8.66872C58.6011 8.66872 58.3678 8.67857 58.1252 8.69891C56.2112 8.85849 53.9902 9.63541 51.8711 10.8865C47.55 13.4376 44.9984 17.162 46.1831 19.1894C46.7396 20.1416 48.0643 20.5803 49.9146 20.4266C51.8285 20.267 54.0496 19.4901 56.1686 18.239C60.4898 15.6881 63.0414 11.9635 61.8564 9.93611C61.373 9.10886 60.3091 8.66872 58.8252 8.66872Z" fill="#7F8896"/>
<path d="M7.66446 48.1701L25.6198 59.9999L47.4713 26.5002C40.8665 22.1909 34.2619 17.8817 27.6571 13.5724C26.1346 12.5791 24.6087 11.5816 22.9971 10.7382C22.7492 10.6086 21.9728 10.0734 21.5451 10.0552L21.2839 10.4557C21.3855 10.8201 21.7994 11.2945 21.9451 11.4509C23.1339 12.7267 24.8171 13.6947 26.1135 14.8882C27.4997 16.1647 28.8098 17.5245 30.034 18.9584C31.279 20.4171 32.4504 21.9785 33.1439 23.7693C34.2819 26.7078 34.0223 30.0795 32.8301 32.9959C31.6379 35.9124 29.5741 38.4052 27.2062 40.4734C21.8199 45.178 14.8117 47.7308 7.66446 48.1697V48.1701Z" fill="#7F8896"/>
<path d="M47.2469 27.5135L21.0005 10.2211C20.5542 9.92714 20.4296 9.32531 20.7221 8.87677C21.0147 8.42823 21.6135 8.30304 22.0598 8.59704L48.3062 25.8894C48.7525 26.1834 48.8771 26.7852 48.5846 27.2338C48.292 27.6823 47.6932 27.8075 47.2469 27.5135Z" fill="#8892A2"/>
<path d="M45.1568 30.0491L19.521 13.1592L2.54546 39.184L28.1813 56.0739L45.1568 30.0491Z" fill="url(#paint0_linear_2319_89995)"/>
<defs>
<linearGradient id="paint0_linear_2319_89995" x1="12.206" y1="25.7924" x2="36.7898" y2="40.8855" gradientUnits="userSpaceOnUse">
<stop stop-color="#85C2F9"/>
<stop offset="0.45" stop-color="#AADBFB"/>
<stop offset="1" stop-color="#86C3FA"/>
</linearGradient>
</defs>
</svg>
