<svg width="53" height="60" viewBox="0 0 53 60" fill="none" xmlns="http://www.w3.org/2000/svg">
<path d="M21.4984 3.34729C19.8852 5.5395 18.7191 8.06566 17.5717 10.56C17.0804 11.6279 16.5891 12.6959 16.0978 13.7638C15.4023 15.2755 14.7049 16.7923 14.1665 18.3572C17.602 14.9661 21.0375 11.5751 24.473 8.18406C25.6037 7.06799 26.7914 5.86375 27.3394 4.32539C27.8895 2.78131 27.7028 -0.119003 26.0334 0.0037775C24.3339 0.128829 22.6453 1.78865 21.4984 3.34729H21.4984Z" fill="#E5BE19"/>
<path d="M43.0686 12.4469C41.2918 13.7294 39.802 15.5447 38.367 17.3525C36.9321 19.1601 35.4967 21.015 33.7777 22.4229C34.6617 23.7174 35.7202 24.8385 36.9169 25.7478C37.7623 24.4572 38.6236 23.1785 39.5002 21.9127C40.8 20.036 42.1548 18.1632 43.7947 16.6918C45.4345 15.2203 47.4122 14.1728 49.2592 14.2505C49.7843 14.2726 50.3113 14.3816 50.8473 14.1808C50.9453 14.144 51.0519 14.0879 51.1072 13.9821C51.1969 13.8105 51.0992 13.6336 51.0017 13.512C50.1423 12.4405 48.9934 11.0202 47.5812 10.9018C46.0952 10.7772 44.4671 11.4374 43.0686 12.4469L43.0686 12.4469Z" fill="#E5BE19"/>
<path d="M18.4992 10.1818C15.0888 14.3197 12.5013 19.1937 9.95332 24.0078C6.23073 31.0411 2.47346 38.1568 0.130929 45.6908C0.0414128 45.9788 -0.0469349 46.2921 0.0284799 46.5472C0.127968 46.8839 0.467567 46.991 0.77172 47.0711C10.4846 49.6269 17.8988 57.4906 27.628 59.9999C33.626 53.9949 38.5398 46.439 41.7323 38.3115C43.1382 34.7325 44.2257 31.0266 46.0061 27.6067C48.4588 22.8954 52.2664 18.574 53 13.4819C51.647 12.3957 50.1088 11.5837 48.4532 11.0817C46.7861 16.6465 43.6334 21.9235 39.5919 25.9138C34.9206 20.3361 27.2945 19.2576 21.2443 15.6321C23.2277 13.4966 25.2244 11.3446 26.8942 8.88694C28.5639 6.42921 29.9052 3.61833 30.3294 0.753808C30.2269 1.44649 26.6227 0.0403839 26.4799 0.0305176C26.4799 0.0305176 25.7396 1.7081 25.332 2.28849C23.3051 5.17369 20.7131 7.49548 18.499 10.1818H18.4992Z" fill="#FFC800"/>
<path d="M27.6281 60C33.6262 53.995 38.5399 46.4391 41.7325 38.3116C43.1383 34.7325 44.2259 31.0267 46.0063 27.6067C46.3618 26.9238 46.7463 26.2493 47.1451 25.5793C45.5917 27.0006 44.2634 28.797 43.3238 30.7768C42.7958 31.8892 42.3891 33.0513 41.8693 34.1673C41.198 35.6087 40.3464 36.956 39.5778 38.3475C37.9277 41.3346 36.6475 44.547 34.7629 47.3742C33.3928 49.4296 31.7392 51.2262 30.0973 53.008C29.3743 53.7926 28.6098 54.6071 27.7148 54.9607C26.1212 55.5904 24.7056 54.5797 23.5285 53.6051C23.8935 54.6682 24.5552 55.5381 25.4099 56.0788C24.9543 56.5451 24.3453 56.2809 23.9123 55.9867C17.473 51.6128 11.1837 46.7105 3.58638 44.8051C2.57965 44.5526 1.46689 44.3681 0.412175 44.9433C0.393555 44.9534 0.376028 44.9658 0.35772 44.9765C0.280747 45.2143 0.205097 45.4523 0.130929 45.6909C0.0414128 45.9789 -0.0469349 46.2922 0.0284799 46.5474C0.127968 46.8839 0.467489 46.9911 0.77172 47.0712C10.4846 49.6271 17.8988 57.4907 27.628 60L27.6281 60Z" fill="#E5BE19"/>
<path opacity="0.18" d="M17.8176 18.0433C17.1469 18.0514 16.3862 18.1635 15.8446 18.7622C15.1656 19.5126 15.1449 20.6398 15.0211 21.6311C14.7573 23.7432 13.7733 25.8086 12.6859 27.7252C11.5984 29.6419 10.3786 31.4957 9.5238 33.5252C9.44971 33.7009 9.37703 33.8848 9.3715 34.0655C9.35677 34.5503 9.83255 34.7692 10.2564 34.6758C11.1411 34.4808 11.8226 33.462 12.3511 32.5331C13.5133 30.4903 14.56 28.3767 15.4799 26.2151C15.8202 25.4155 16.1658 24.5741 16.7579 23.9717C17.6291 23.0852 18.8195 22.9442 19.8073 23.1488C20.7951 23.3534 21.6837 23.8421 22.6816 24.0135C24.2957 24.2905 26.0859 23.7213 27.7242 23.9096C28.7205 24.0242 29.6306 24.4156 30.5218 24.8216C31.4872 25.2614 32.4428 25.7218 33.3882 26.2026C32.8644 24.7275 31.5669 23.9569 30.3371 23.2669C26.5189 21.1248 22.5174 17.9859 17.8176 18.0433Z" fill="white"/>
</svg>
