<svg width="108" height="54" viewBox="0 0 108 54" fill="none" xmlns="http://www.w3.org/2000/svg">
<path d="M61.3936 20.0347L6.43085 30.1394L13.8189 42.6948C13.8189 42.6948 14.7051 45.1173 17.7235 45.532C20.7331 45.9468 67.1847 53.9683 67.1847 53.9683C67.1847 53.9683 68.2903 54.1191 69.6678 53.7609C69.6591 53.6949 69.6503 53.6667 69.6503 53.6667L61.3936 20.0442V20.0347Z" fill="#EDEDED"/>
<path d="M61.3949 20.0333L69.6516 53.6558C69.6516 53.6558 69.6516 53.6842 69.6691 53.7502C70.5466 53.5239 71.4854 53.0997 72.3629 52.3739C74.6705 50.3944 99.8179 31.024 99.8179 31.024C99.8179 31.024 101.266 30.0625 101.775 28.1773C102.292 26.3204 106.153 13.1428 106.153 13.1428L106.381 11.729L61.3949 20.0333Z" fill="#DBDBDB"/>
<g style="mix-blend-mode:multiply">
<path d="M106.38 11.7378L6.43085 30.1466L7.97516 32.7671L64.8595 42.4193C64.8595 42.4193 66.746 43.2677 68.5447 41.9763C70.1153 40.8546 98.4039 20.7867 105.353 15.8569C105.801 14.2639 106.143 13.1516 106.143 13.1516L106.38 11.7378Z" fill="#DBDBDB"/>
</g>
<path d="M47.4327 0.0099939C47.4327 0.0099939 45.2128 -0.188019 42.9226 1.17875C40.6062 2.53609 2.95533 25.3659 2.95533 25.3659C2.95533 25.3659 -1.85305 28.288 0.796815 29.7678C3.4379 31.2666 64.9375 40.5135 64.9375 40.5135C64.9375 40.5135 66.8328 40.9942 68.6667 39.618C70.4917 38.2324 107.177 12.4899 107.177 12.4899C107.177 12.4899 109.336 10.388 106.66 9.17206L47.4327 0.0099939Z" fill="#F7F7F7"/>
<path d="M46.5843 14.0471L19.6996 31.2212C37.4677 34.0679 63.475 37.9891 63.475 37.9891C63.475 37.9891 66.6162 38.6301 69.2397 36.9806C70.9156 35.9343 84.5598 26.5084 94.3608 19.7028C84.2791 18.0344 52.6562 12.8029 50.5065 12.6898C47.9268 12.5673 46.5843 14.0471 46.5843 14.0471Z" fill="#CDCDCD"/>
<path d="M44.6147 1.61381C43.0178 2.34903 5.18266 25.8104 5.18266 25.8104C5.18266 25.8104 1.94491 27.7238 3.4892 28.4401C4.01566 28.6852 10.8246 29.8257 19.6604 31.2208L46.5626 14.0467C46.5626 14.0467 47.3172 13.1889 48.8177 12.8496L45.8343 1.2085C45.457 1.29333 45.0359 1.40644 44.6147 1.61381Z" fill="#E0E0E0"/>
<path d="M105.776 10.4824L47.532 1.12246C47.532 1.12246 46.83 0.990458 45.8385 1.19783L48.8219 12.8389C49.2869 12.707 49.8484 12.6411 50.4714 12.7071C52.6387 12.8013 84.2792 18.0328 94.3522 19.72C100.056 15.7611 104.46 12.7164 104.46 12.7164C104.46 12.7164 106.864 11.3402 105.776 10.4824Z" fill="#EBEBEB"/>
</svg>
