<svg width="38" height="59" viewBox="0 0 38 59" fill="none" xmlns="http://www.w3.org/2000/svg">
<path d="M4.75102 10.6342C5.66184 11.0393 6.68024 11.1089 7.67051 11.2294C9.863 11.4962 12.015 12.0386 14.115 12.7205C13.5835 12.7755 13.277 13.4275 13.42 13.9404C13.5629 14.4534 14.0143 14.8222 14.484 15.0761C14.9538 15.33 15.4681 15.507 15.9001 15.8204C16.6654 16.3757 17.0873 17.2957 17.8168 17.8967C19.1712 19.013 21.3113 18.8303 22.5725 20.0502C22.6742 20.1485 22.7738 20.2678 22.7772 20.4089C22.7804 20.546 22.6924 20.6657 22.6264 20.7859C22.0918 21.758 22.9129 22.8956 23.6799 23.699C24.9093 24.9867 26.1388 26.2745 27.3683 27.5622C28.5528 26.202 28.771 24.2003 28.3198 22.4569C27.8686 20.7133 26.8347 19.1795 25.7308 17.7536C23.518 14.8953 20.9483 12.3116 18.0994 10.0807C14.7944 7.49273 10.7278 5.30015 6.57321 5.94137C4.13143 6.31829 1.36744 9.12902 4.75102 10.6342Z" fill="#D05C5C"/>
<path d="M12.5617 0.122523C8.1534 -0.383729 3.4524 0.674237 0 3.38241C0.115534 3.95316 0.323225 4.5054 0.476445 5.06645C0.4883 5.1098 0.500184 5.15368 0.512038 5.19773C8.83581 2.56903 18.5693 4.8328 24.7993 10.9489C26.5817 12.6986 28.0971 14.7432 29.0732 17.0383C30.3068 19.9386 30.6436 23.1275 30.9223 26.2649C31.71 35.1311 32.0863 44.3844 28.6431 52.5981C27.9695 54.2048 27.1141 55.7849 25.9036 57.0568C25.7374 57.2314 25.5656 57.3898 25.3894 57.5383C25.8641 57.9156 26.3381 58.308 26.8639 58.6085C27.0647 58.7232 27.288 58.8455 27.4761 59C30.371 57.1535 34.9954 48.5662 37.0271 39.8C38.1744 34.8493 38.3055 29.7761 37.4281 24.771C36.5507 19.7659 34.5783 14.8928 31.3244 10.9799C29.9214 9.29268 28.2956 7.79824 26.5707 6.43896C22.4986 3.22964 17.7203 0.714945 12.5616 0.122351L12.5617 0.122523Z" fill="#11831D"/>
<path d="M10.9817 1.57733C7.22072 1.38385 3.33784 2.4034 0.36084 4.67175C0.401003 4.80303 0.440251 4.93449 0.476344 5.06647C0.491914 5.12321 0.507516 5.18065 0.522909 5.23844C8.1441 3.61361 16.6475 6.83527 21.1574 13.1924C22.6018 15.2283 24.8491 17.2239 25.767 19.543C27.0176 22.7025 26.8474 26.257 27.3499 29.6159C27.9624 33.7107 27.7837 37.877 27.6035 42.013C27.4109 46.4338 27.5075 52.6111 24.7272 56.3524C24.6609 56.4416 24.5383 56.5778 24.3886 56.7426C24.6706 56.9704 24.9544 57.1962 25.2396 57.4199C25.5307 57.6481 25.8192 57.886 26.1175 58.1094C27.3378 56.9986 28.5338 55.2858 29.1809 54.4573C32.2032 50.5872 34.0153 45.897 35.1331 41.1222C36.175 36.6717 36.6473 32.0527 36.0933 27.5162C35.0312 18.8186 30.0264 10.6751 22.7325 5.77624C19.2396 3.43017 15.189 1.79371 10.9817 1.57733Z" fill="#79D883"/>
<path d="M0.473561 5.05665C0.474446 5.05999 0.475485 5.06316 0.476369 5.06651C0.565718 5.39373 0.658275 5.73928 0.691007 6.08554C3.84122 7.33751 7.36526 7.51266 10.6954 8.2834C16.703 9.67387 22.3736 13.3121 25.2135 18.7649C27.042 22.2759 27.6154 26.3002 27.8001 30.2512C28.1844 38.468 26.9937 46.7554 24.3109 54.5352C24.2023 54.8501 23.8904 55.5194 23.6788 56.1617C24.1259 56.5322 24.5776 56.8975 25.0333 57.2573C26.2028 56.4485 27.2205 54.7055 27.9173 53.651C29.9274 50.6086 31.2846 47.1778 32.3373 43.7047C34.4728 36.6594 35.4661 28.5039 32.912 21.598C28.2605 9.02049 23.2462 7.72183 17.7207 4.79462C12.5013 2.02953 5.64854 2.18195 0.473561 5.05665Z" fill="#E8F8EA"/>
<path d="M27.3055 51.7825C29.2743 46.7512 31.2584 41.6631 32.0049 36.3146C32.7551 30.9388 32.2057 25.3536 30.1651 20.3211C28.1246 15.2885 24.5647 10.8355 19.9481 7.95164C16.837 6.00822 13.274 4.78762 9.62094 4.41352C6.47462 4.09141 3.10714 4.45158 0.529297 6.27676C2.06504 6.61174 2.42758 8.79304 3.83876 9.48308C4.54205 9.82705 5.36918 9.73155 6.15191 9.69331C8.74852 9.56679 11.3775 10.1796 13.6478 11.4413C13.5949 12.3409 13.542 13.2402 13.4891 14.1398C14.6146 14.0231 15.7349 14.3389 16.8219 14.6513C18.3184 15.0815 19.9417 15.6022 20.7917 16.9019C21.9026 18.6006 21.3522 21.1575 22.8479 22.5325C23.6004 23.2243 24.7835 23.4049 25.7096 22.9695C26.4904 23.4587 26.3522 24.6359 25.9771 25.4752C25.6018 26.3145 25.0739 27.2259 25.3858 28.0905C25.6273 28.7596 26.321 29.1908 26.5563 29.8622C26.9619 31.0192 25.8531 32.1624 25.7805 33.3855C25.7267 34.2905 26.2439 35.1204 26.4719 35.9982C26.9305 37.7627 26.2055 39.593 26.0378 41.408C25.9123 42.7648 26.1008 44.1445 25.8752 45.4885C25.6496 46.8324 24.6606 49.573 24.5282 50.3186C24.3959 51.0641 23.9753 51.7536 23.9606 52.5108C23.9532 52.8948 24.0511 53.287 23.9509 53.6577C23.838 54.0764 23.4918 54.395 23.3369 54.8001C22.8929 55.9619 24.1473 56.4537 24.1473 56.4537C25.2892 55.5644 26.8011 53.072 27.3058 51.7822L27.3055 51.7825Z" fill="#F76F6F"/>
<path d="M29.5941 27.1378C29.908 26.9327 30.1586 26.6021 30.1841 26.2291C29.7695 25.9926 29.2566 25.9785 28.7914 26.0888C28.2485 26.2176 26.6136 26.7008 27.2394 27.4025C27.715 27.9357 29.1327 27.4397 29.5941 27.1378Z" fill="#AC542E"/>
<path d="M24.8343 16.8782C24.969 16.5293 24.9791 16.1152 24.7811 15.7975C24.3059 15.8463 23.8809 16.1328 23.5679 16.4928C23.2025 16.9131 22.1576 18.2553 23.0771 18.4616C23.7756 18.6184 24.6364 17.3915 24.8343 16.8784V16.8782Z" fill="#AC542E"/>
<path d="M22.7677 12.3473C22.9023 11.9984 22.9125 11.5843 22.7145 11.2666C22.2392 11.3154 21.8142 11.6019 21.5012 11.9619C21.1357 12.3822 20.091 13.7244 21.0105 13.9305C21.709 14.0874 22.5697 12.8604 22.7677 12.3473Z" fill="#AC542E"/>
</svg>
