<svg width="26" height="54" viewBox="0 0 26 54" fill="none" xmlns="http://www.w3.org/2000/svg">
<path d="M20.3801 5.72981L18.2519 5.15411C17.4918 4.94842 16.7159 5.40079 16.5122 6.1682C16.3085 6.93562 16.7565 7.71895 17.5166 7.92465L19.6448 8.50035C20.4049 8.70604 21.1808 8.25367 21.3843 7.48626C21.5881 6.71884 21.14 5.93551 20.3801 5.72981Z" fill="#F76FB7"/>
<path d="M23.209 7.53386C25.2225 8.07849 26.4095 10.1535 25.8698 12.1863L25.4679 13.701C25.1744 14.8071 24.4302 15.6629 23.49 16.1283C24.0737 17.006 24.2946 18.1225 24.001 19.2285L23.5989 20.7431C23.3542 21.6653 22.7959 22.4129 22.0727 22.9068C22.4229 23.8362 22.5008 24.881 22.2253 25.919L15.7377 50.3634C15.0414 52.987 12.389 54.533 9.79046 53.8301L3.60162 52.156C1.00307 51.4531 -0.528311 48.7752 0.167931 46.1517L6.65536 21.7073C6.93085 20.6691 7.5157 19.8038 8.27928 19.1756C7.89759 18.383 7.78427 17.4535 8.02918 16.5313L8.43107 15.0167C8.72465 13.9105 9.4688 13.0551 10.409 12.5898C9.8251 11.712 9.60462 10.5954 9.8982 9.48902L10.3001 7.97438C10.8395 5.94173 12.8948 4.74371 14.9081 5.28834L23.2088 7.53386H23.209Z" fill="#F0FDFD"/>
<path d="M21.8413 0.682536C22.5387 0.871136 22.9495 1.59019 22.7627 2.29429L21.9065 5.52011C21.8048 5.90372 21.5449 6.19683 21.2186 6.35785C21.035 6.05989 20.7442 5.82856 20.3804 5.73027L18.252 5.15437C17.8882 5.05589 17.5219 5.1095 17.2152 5.27479C17.0125 4.97062 16.9324 4.58566 17.0344 4.20205L17.8905 0.976221C18.0773 0.272126 18.7891 -0.143143 19.4865 0.0454574L21.8413 0.682536Z" fill="#F76FB7"/>
<path d="M22.386 24.7407C22.3633 25.1863 22.2996 25.639 22.179 26.0933L20.071 34.0361L4.50125 29.8242L6.60921 21.8814C6.72984 21.4271 6.89876 21.0029 7.0998 20.6055L22.386 24.7407Z" fill="#F76FB7"/>
<rect width="1.53044" height="17.0394" rx="0.765219" transform="matrix(0.963941 0.266116 -0.261425 0.965224 16.6898 35.1772)" fill="#E6EBF2" fill-opacity="0.5"/>
<path d="M21.7032 24.5551C21.6961 24.9444 21.643 25.3393 21.5385 25.7332L19.3844 33.8498L15.1407 32.7019L17.2949 24.5853C17.3995 24.1913 17.4525 23.7963 17.4596 23.4072L21.7032 24.5551Z" fill="#F76FB7"/>
<path d="M21.8412 0.682272C22.5386 0.870873 22.9493 1.58993 22.7623 2.29403L21.9062 5.51984C21.8045 5.90346 21.5445 6.19656 21.2183 6.35758C21.0347 6.05963 20.7438 5.82829 20.38 5.73001L18.2515 5.1541C17.8879 5.05582 17.5214 5.10924 17.2147 5.27453C17.0119 4.97036 16.9321 4.5854 17.0339 4.20179L17.1991 3.57927C17.8473 4.54325 20.2305 5.04223 20.5411 3.87178L21.4179 0.567871L21.8408 0.682272H21.8412Z" fill="#E66AAC"/>
</svg>
